<?xml version="1.0" standalone="no"?>
<!DOCTYPE svg PUBLIC "-//W3C//DTD SVG 1.1//EN" "http://www.w3.org/Graphics/SVG/1.1/DTD/svg11.dtd" >
<svg xmlns="http://www.w3.org/2000/svg">
<metadata>
This is a custom SVG webfont generated by Font Squirrel.
Copyright   : Copyleft 2002 2003 2005 2008 2009 Free Software Foundation
Foundry     : GNU
Foundry URL : httpssavannahgnuorgprojectsfreefont
</metadata>
<defs>
<font id="FreeSansBoldOblique" horiz-adv-x="1251" >
<font-face units-per-em="2048" ascent="1638" descent="-410" />
<missing-glyph horiz-adv-x="569" />
<glyph unicode=" "  horiz-adv-x="569" />
<glyph unicode="&#x09;" horiz-adv-x="569" />
<glyph unicode="&#xa0;" horiz-adv-x="569" />
<glyph unicode="!" horiz-adv-x="681" d="M229 0l64 299h307l-63 -299h-308zM406 424l49 633l92 430h307l-92 -430l-219 -633h-137z" />
<glyph unicode="&#x22;" horiz-adv-x="970" d="M362 1227l58 266h282l-57 -266l-141 -264h-115zM846 1227l57 266h283l-58 -266l-141 -264h-115z" />
<glyph unicode="#" horiz-adv-x="1138" d="M68 -66l170 418h-158l43 205h199l127 311h-203l45 205h241l146 354h217l-147 -354h210l146 354h217l-147 -354h178l-43 -205h-217l-127 -311h202l-43 -205h-243l-172 -418h-215l170 418h-209l-172 -418h-215zM537 557h211l126 311h-208z" />
<glyph unicode="$" horiz-adv-x="1138" d="M121 303q0 53 16 121h266q-2 -39 -2 -68q0 -154 134 -180l94 436q-338 86 -338 361q0 41 10 90t44 115.5t87 120t150.5 97.5t224.5 56l22 111h140l-25 -111q342 -29 342 -332q0 -43 -10 -100h-262q6 57 6 82q0 123 -119 143l-88 -411q76 -23 132 -48.5t112.5 -66.5 t86.5 -100.5t30 -133.5q0 -135 -73 -258t-190 -188q-119 -63 -284 -82l-45 -215h-140l47 215q-178 18 -273 107t-95 239zM557 1026q0 -102 127 -152l78 371q-66 -12 -111 -41.5t-63.5 -66.5t-24.5 -62.5t-6 -48.5zM674 176q98 23 152.5 83t54.5 147q0 123 -121 172z" />
<glyph unicode="%" horiz-adv-x="1820" d="M264 987q0 174 140.5 311.5t316.5 137.5q137 0 225 -84t88 -211q0 -176 -140 -313.5t-321 -137.5q-133 0 -221 85t-88 212zM422 -41l1126 1493h158l-1128 -1493h-156zM469 1026q0 -57 43 -96t106 -39q84 0 147.5 62.5t63.5 144.5q0 59 -44 98t-107 39q-82 0 -145.5 -63.5 t-63.5 -145.5zM1079 256q0 174 140.5 311.5t316.5 137.5q137 0 225 -84t88 -211q0 -176 -140 -313.5t-320 -137.5q-133 0 -221.5 85t-88.5 212zM1284 295q0 -57 43 -96t107 -39q84 0 147.5 62.5t63.5 144.5q0 59 -44.5 98t-107.5 39q-82 0 -145.5 -63.5t-63.5 -145.5z" />
<glyph unicode="&#x26;" horiz-adv-x="1478" d="M182 319q0 158 99.5 277t330.5 225q-109 154 -108 250q0 164 138 287t323 123q139 0 226 -66.5t87 -175.5q0 -74 -28.5 -142.5t-59.5 -109.5t-91.5 -87t-77.5 -57.5t-69 -39.5l168 -281q51 47 79 100.5t44 141.5h232q-16 -113 -84 -233.5t-158 -202.5l192 -328h-327 l-76 123q-141 -102 -228 -136t-206 -34q-190 0 -298 97t-108 269zM463 383q0 -80 53 -136.5t129 -56.5q51 0 108.5 26t159.5 95l-202 342l-107 -59q-141 -80 -141 -211zM784 1130q0 -27 12.5 -54t61.5 -113q164 86 164 213q0 39 -27.5 61.5t-76.5 22.5q-59 0 -96.5 -36.5 t-37.5 -93.5z" />
<glyph unicode="'" horiz-adv-x="487" d="M362 1227l58 266h282l-57 -266l-143 -264h-113z" />
<glyph unicode="(" horiz-adv-x="681" d="M172 250q0 309 134 608t427 635h205q-264 -360 -393 -647t-129 -617q0 -141 25.5 -279t93.5 -360h-205q-158 363 -158 660z" />
<glyph unicode=")" horiz-adv-x="681" d="M-43 -410q178 240 283.5 418t175 397.5t69.5 446.5q0 143 -26.5 279.5t-98.5 361.5h205q164 -360 164 -662q0 -121 -18.5 -232.5t-72.5 -268t-174 -345t-302 -395.5h-205z" />
<glyph unicode="*" horiz-adv-x="796" d="M297 1188l76 141l207 -74l49 238h147l-51 -238l240 74l14 -143l-238 -72l97 -192l-138 -88l-96 192l-178 -192l-100 88l178 192z" />
<glyph unicode="+" horiz-adv-x="1196" d="M178 352l51 246h373l80 371h244l-80 -371h375l-52 -246h-374l-80 -372h-244l80 372h-373z" />
<glyph unicode="," horiz-adv-x="569" d="M55 -356l25 114q188 33 227 242h-176l64 299h307l-60 -281q-29 -168 -123 -258.5t-264 -115.5z" />
<glyph unicode="-" horiz-adv-x="681" d="M143 424l60 276h557l-60 -276h-557z" />
<glyph unicode="." horiz-adv-x="569" d="M131 0l64 299h307l-64 -299h-307z" />
<glyph unicode="/" horiz-adv-x="569" d="M-2 -29l739 1491h137l-739 -1491h-137z" />
<glyph unicode="0" horiz-adv-x="1138" d="M166 360q0 156 49 381.5t115 366.5q84 182 221 278.5t311 96.5q184 0 289.5 -108.5t105.5 -297.5q0 -156 -50 -383t-113 -366q-174 -375 -539 -375q-180 0 -284.5 109.5t-104.5 297.5zM459 375q0 -78 42 -125t113 -47q90 0 147.5 65.5t100.5 216.5q41 145 72 322.5 t31 273.5q0 78 -43 125t-115 47q-106 0 -180 -116q-51 -82 -109.5 -347t-58.5 -415z" />
<glyph unicode="1" horiz-adv-x="1138" d="M352 1001l41 191q377 0 500 260h190l-309 -1452h-287l213 1001h-348z" />
<glyph unicode="2" horiz-adv-x="1138" d="M61 0q43 160 114 271.5t159 177t176 114.5t192.5 117t180.5 147q111 111 110 263q0 78 -47 120.5t-129 42.5q-106 0 -172.5 -78.5t-87.5 -228.5h-274q39 258 190.5 397.5t388.5 139.5q199 0 311.5 -93.5t112.5 -259.5q0 -137 -66.5 -254.5t-171 -200.5t-212 -150.5 t-208 -138.5t-141.5 -130h615l-53 -256h-988z" />
<glyph unicode="3" horiz-adv-x="1138" d="M137 309q0 47 13 117h278l2 -20v-46q4 -158 184 -157q102 0 176 79.5t74 188.5t-64.5 143.5t-217.5 34.5l41 193h24q137 0 221 73.5t84 194.5q0 63 -44 103t-113 40q-33 0 -60.5 -6t-48 -19.5t-38 -27.5t-31 -35.5t-21.5 -37t-16.5 -40t-11.5 -36t-8 -33t-5 -23.5h-264 q47 250 182 369t373 119q195 0 302 -81t107 -228q0 -244 -245 -396q147 -90 147 -252q0 -248 -164 -410.5t-436 -162.5q-199 0 -309.5 93t-110.5 263z" />
<glyph unicode="4" horiz-adv-x="1138" d="M117 322l51 241l721 889h338l-191 -893h152l-51 -237h-150l-69 -322h-287l69 322h-583zM373 559h377l133 623z" />
<glyph unicode="5" horiz-adv-x="1138" d="M121 289q0 39 10 90h283q-4 -37 -4 -45q0 -59 49 -95t131 -36q125 0 207 103.5t82 258.5q0 90 -48.5 138.5t-136.5 48.5q-137 0 -207 -109h-258l299 809h785l-56 -256h-606l-110 -303q133 88 270 88q168 0 264 -98.5t96 -268.5q0 -51 -14 -122.5t-58 -169t-110.5 -177 t-186.5 -136t-272 -56.5q-184 0 -296.5 92t-112.5 244z" />
<glyph unicode="6" horiz-adv-x="1138" d="M174 350q0 57 7 135t29.5 188.5t55.5 218t91.5 216.5t132 190.5t182 133t235.5 51.5q174 0 273.5 -84t99.5 -230q0 -29 -2 -47h-266q-14 70 -52 100.5t-112 30.5q-127 0 -190.5 -92t-125.5 -319q152 115 306 114q162 0 253 -91t91 -251q0 -55 -15.5 -130.5t-58.5 -171 t-107.5 -173.5t-174 -132t-244.5 -54q-186 0 -297 108.5t-111 288.5zM440 385q0 -80 49.5 -131t126.5 -51q113 0 193 102.5t80 245.5q0 78 -46 127t-122 49q-113 0 -197 -101.5t-84 -240.5z" />
<glyph unicode="7" horiz-adv-x="1138" d="M268 0q123 373 294 640t470 556h-723l56 256h1026l-48 -225l-215 -221q-225 -252 -356 -482.5t-213 -523.5h-291z" />
<glyph unicode="8" horiz-adv-x="1138" d="M123 317q0 305 330 474q-72 55 -103 106t-31 117q0 193 161 331t384 138q180 0 293 -88t113 -228q0 -225 -264 -376q94 -57 133 -119t39 -154q0 -104 -47.5 -211.5t-129.5 -185.5q-172 -168 -436 -168q-205 0 -323.5 98t-118.5 266zM416 369q0 -72 54 -119t138 -47 q121 0 199 85t78 218q0 78 -50.5 124t-134.5 46q-119 0 -201.5 -89t-82.5 -218zM569 1024q0 -70 48.5 -112t125.5 -42q109 0 185 69t76 167q0 66 -52.5 106.5t-136.5 40.5q-102 0 -174 -66.5t-72 -162.5z" />
<glyph unicode="9" horiz-adv-x="1138" d="M139 270q0 25 8 68h277q-2 -10 -2 -25q0 -49 45 -79.5t117 -30.5q106 0 182 83t127 310q-86 -74 -150.5 -101.5t-150.5 -27.5q-160 0 -253 96t-93 262q0 274 174 466t426 192q184 0 294.5 -115t110.5 -305q0 -63 -12 -155.5t-40 -223.5t-83 -255t-133 -233.5t-202 -176 t-273 -66.5q-164 0 -266.5 88t-102.5 229zM526 883q0 -82 44 -130t120 -48q123 0 209 104t86 254q0 88 -51 139t-137 51q-113 0 -192 -107t-79 -263z" />
<glyph unicode=":" horiz-adv-x="681" d="M231 0l64 299h307l-63 -299h-308zM395 766l64 299h307l-64 -299h-307z" />
<glyph unicode=";" horiz-adv-x="681" d="M156 -356l24 114q188 33 228 242h-177l64 299h307l-59 -281q-29 -168 -123 -258.5t-264 -115.5zM395 766l64 299h307l-64 -299h-307z" />
<glyph unicode="&#x3c;" horiz-adv-x="1196" d="M158 352l53 248l1079 371l-55 -264l-696 -232l598 -227l-58 -268z" />
<glyph unicode="=" horiz-adv-x="1196" d="M125 106l51 246h993l-51 -246h-993zM229 598l52 246h993l-51 -246h-994z" />
<glyph unicode="&#x3e;" horiz-adv-x="1196" d="M78 -20l55 264l696 231l-598 227l58 269l921 -373l-53 -248z" />
<glyph unicode="?" d="M344 985q12 59 25.5 104.5t58.5 134.5t102.5 147.5t164 105.5t239.5 47q125 0 217 -36t138 -93.5t66.5 -115.5t20.5 -120q0 -63 -16.5 -123.5t-33.5 -102.5t-57 -87t-59.5 -66.5t-69.5 -56.5t-56.5 -38t-49.5 -30q-104 -66 -135 -104.5t-51 -138.5h-250 q10 109 64.5 192.5t123 136t137 100.5t114.5 110.5t46 140t-52 128t-134 50.5q-104 0 -176 -75t-98 -210h-279zM485 0l64 299h307l-63 -299h-308z" />
<glyph unicode="@" horiz-adv-x="1996" d="M150 371q0 199 87 402.5t244 367.5q176 184 407.5 284.5t483.5 100.5q326 0 534 -182.5t208 -444.5q0 -166 -67 -317.5t-168 -251t-217 -157.5t-218 -58q-174 0 -221 143q-154 -150 -326 -149q-125 0 -203 77.5t-78 200.5q0 195 185 412q106 123 234 192.5t247 69.5 q78 0 123 -33t76 -108l55 120h184l-278 -573q-39 -76 -39 -111q0 -33 22.5 -52t57.5 -19q33 0 86 24.5t114.5 75.5t114.5 118.5t89 165t36 201.5q0 197 -167 341.5t-443 144.5q-156 0 -292 -42t-231.5 -109.5t-173 -157t-125 -179.5t-80 -182t-45 -162.5t-12.5 -122.5 q0 -225 174 -368.5t447 -143.5q172 0 434 84l25 -161q-225 -92 -506 -93q-180 0 -321.5 45.5t-224.5 114t-138.5 158.5t-74.5 172t-19 162zM821 440q0 -72 38 -116.5t99 -44.5q135 0 275.5 172t140.5 319q0 63 -40 103t-103 40q-131 0 -270.5 -159.5t-139.5 -313.5z" />
<glyph unicode="A" horiz-adv-x="1478" d="M53 0l834 1493h354l199 -1493h-314l-36 301h-558l-165 -301h-314zM674 557h387l-72 580z" />
<glyph unicode="B" horiz-adv-x="1478" d="M168 0l317 1493h666q117 0 202 -30.5t128 -81t61.5 -102.5t18.5 -110q0 -217 -240 -374q78 -61 111.5 -125t33.5 -148q0 -90 -45 -189.5t-121 -172.5q-166 -160 -460 -160h-672zM530 256h365q145 0 206.5 72.5t61.5 173.5q0 141 -186 141h-365zM666 899h335 q143 0 198.5 64.5t55.5 146.5q0 66 -44 96.5t-138 30.5h-336z" />
<glyph unicode="C" horiz-adv-x="1478" d="M219 481q0 285 112.5 522.5t313.5 376t447 138.5q238 0 385 -119t147 -309q0 -27 -8 -103h-289q0 268 -270 268q-109 0 -197 -42t-143 -111.5t-95 -148.5t-60.5 -163.5t-29 -145t-8.5 -103.5q0 -326 301 -326q147 0 252 77t150 218h293q-68 -262 -262.5 -409.5 t-475.5 -147.5q-262 0 -412.5 141t-150.5 387z" />
<glyph unicode="D" horiz-adv-x="1478" d="M158 0l317 1493h584q279 0 404.5 -122t125.5 -390q0 -59 -8 -130t-31.5 -168t-61.5 -188.5t-104.5 -182.5t-152.5 -159.5t-212 -110.5t-278 -42h-583zM520 256h275q123 0 217 59.5t143 141.5t81 188.5t40 180t8 135.5q0 276 -280 276h-277z" />
<glyph unicode="E" horiz-adv-x="1366" d="M162 0l317 1493h1082l-56 -256h-774l-72 -338h715l-53 -256h-715l-82 -387h809l-55 -256h-1116z" />
<glyph unicode="F" d="M152 0l317 1493h1049l-56 -256h-741l-72 -338h656l-56 -256h-653l-137 -643h-307z" />
<glyph unicode="G" horiz-adv-x="1593" d="M219 537q0 178 68.5 361t189.5 323q256 297 643 297q250 0 403.5 -120t153.5 -315q0 -10 -4 -67h-282q-12 115 -97.5 177t-230.5 62q-262 0 -412 -229q-55 -84 -91 -210t-36 -234q0 -158 99.5 -262.5t248.5 -104.5q98 0 181.5 36t135.5 93t81.5 107.5t44.5 95.5h-340 l55 256h598l-172 -807h-184l14 184q-115 -121 -224.5 -174t-252.5 -53q-270 0 -430 158t-160 426z" />
<glyph unicode="H" horiz-adv-x="1478" d="M139 0l318 1493h307l-119 -559h590l119 559h309l-317 -1493h-308l144 678h-592l-144 -678h-307z" />
<glyph unicode="I" horiz-adv-x="569" d="M129 0l317 1493h308l-318 -1493h-307z" />
<glyph unicode="J" horiz-adv-x="1138" d="M121 272q0 70 14 134l31 147h307l-33 -158q-8 -35 -8 -69q0 -49 38 -80t97 -31q164 0 203 174l236 1104h307l-236 -1104q-51 -242 -205 -342q-145 -94 -366 -94q-180 0 -282.5 84.5t-102.5 234.5z" />
<glyph unicode="K" horiz-adv-x="1478" d="M152 0l317 1493h307l-139 -655l725 655h364l-739 -653l481 -840h-366l-354 643l-187 -164l-102 -479h-307z" />
<glyph unicode="L" d="M164 0l317 1493h307l-262 -1237h715l-55 -256h-1022z" />
<glyph unicode="M" horiz-adv-x="1705" d="M135 0l318 1493h444l41 -1147l520 1147h449l-318 -1493h-291l271 1268l-551 -1268h-307l-15 1268l-270 -1268h-291z" />
<glyph unicode="N" horiz-adv-x="1478" d="M139 0l318 1493h307l393 -1055l223 1055h291l-317 -1493h-303l-394 1071l-227 -1071h-291z" />
<glyph unicode="O" horiz-adv-x="1593" d="M217 535q0 176 68.5 358t187.5 324q250 301 629 301q281 0 437.5 -155t156.5 -431q0 -182 -66.5 -360.5t-185.5 -317.5q-131 -156 -284.5 -228.5t-350.5 -72.5q-274 0 -433 157t-159 425zM522 578q0 -168 90 -265.5t246 -97.5q106 0 194.5 40t143.5 106.5t96 142.5 t60.5 155.5t29 137t9.5 98.5q0 170 -87 265t-241 95q-106 0 -195.5 -39.5t-145.5 -105.5t-97 -140.5t-62.5 -154.5t-31 -138t-9.5 -99z" />
<glyph unicode="P" horiz-adv-x="1366" d="M156 0l317 1493h631q121 0 209 -33t133 -87t64.5 -109.5t19.5 -116.5q0 -119 -49 -240t-133 -209q-154 -166 -390 -166h-383l-112 -532h-307zM631 788h313q80 0 138.5 28t87 74t42 92t13.5 93q0 72 -51.5 117t-133.5 45h-315z" />
<glyph unicode="Q" horiz-adv-x="1593" d="M223 537q0 178 67.5 359t184.5 321q250 301 627 301q281 0 440.5 -158t159.5 -432q0 -188 -83 -390t-214 -327l131 -156l-190 -166l-142 166q-184 -102 -391 -102q-272 0 -431 158t-159 426zM528 578q0 -168 88.5 -265.5t239.5 -97.5q100 0 182 39l-127 149l193 166 l133 -159q72 90 116 224t44 259q0 170 -89 266t-247 96q-233 0 -387 -215q-146 -200 -146 -462z" />
<glyph unicode="R" horiz-adv-x="1478" d="M164 0l317 1493h772q100 0 174 -31.5t111 -81t53.5 -98.5t16.5 -96q0 -84 -28 -158t-62.5 -120t-91 -89t-86 -59.5t-74.5 -38.5q160 -53 159 -168q0 -70 -31.5 -231.5t-31.5 -196.5q0 -41 37 -70l-13 -55h-325q-16 51 -17 84q0 70 39 217.5t39 177.5q0 113 -174 113h-352 l-125 -592h-307zM651 848h371q82 0 140.5 25.5t87 66.5t41 79t12.5 75q0 143 -226 143h-344z" />
<glyph unicode="S" horiz-adv-x="1366" d="M156 356q0 35 8 90h299q-4 -37 -4 -47q0 -88 76.5 -136t216.5 -48q160 0 255 62.5t95 164.5q0 72 -53.5 109t-192.5 65l-201 41q-182 37 -264 110t-82 200q0 236 180.5 393.5t479.5 157.5q244 0 380 -93.5t136 -259.5q0 -51 -17 -127h-286q4 37 4 47q0 170 -271 170 q-139 0 -220 -57t-81 -156q0 -57 51.5 -88.5t196.5 -60.5l223 -45q158 -31 240 -108.5t82 -196.5q0 -74 -18.5 -147.5t-67.5 -155.5t-125 -143.5t-203 -102.5t-286 -41q-158 0 -271.5 38t-171 100.5t-83 127.5t-25.5 137z" />
<glyph unicode="T" d="M291 1237l55 256h1196l-55 -256h-434l-265 -1237h-307l264 1237h-454z" />
<glyph unicode="U" horiz-adv-x="1478" d="M244 342q0 74 22 180l207 971h307l-215 -1012q-10 -55 -10 -92q0 -82 66.5 -128t185.5 -46q139 0 219 64.5t109 201.5l215 1012h307l-215 -1012q-53 -246 -219 -377q-193 -152 -473 -151q-231 0 -368.5 105.5t-137.5 283.5z" />
<glyph unicode="V" horiz-adv-x="1366" d="M367 1493h309l92 -1124l565 1124h309l-823 -1493h-260z" />
<glyph unicode="W" horiz-adv-x="1933" d="M344 1493h326l-6 -1118l458 1118h324l-6 -1122l461 1122h325l-731 -1493h-276l-9 1137l-485 -1137h-276z" />
<glyph unicode="X" horiz-adv-x="1366" d="M45 0l635 752l-297 741h365l161 -483l375 483h358l-620 -731l319 -762h-366l-184 510l-388 -510h-358z" />
<glyph unicode="Y" horiz-adv-x="1366" d="M373 1493h342l168 -645l424 645h342l-672 -940l-119 -553h-307l119 553z" />
<glyph unicode="Z" d="M61 0l56 256l970 981h-763l55 256h1122l-55 -256l-971 -981h764l-55 -256h-1123z" />
<glyph unicode="[" horiz-adv-x="681" d="M47 -410l404 1903h497l-45 -205h-231l-316 -1493h232l-43 -205h-498z" />
<glyph unicode="\" horiz-adv-x="569" d="M283 1452h151l150 -1499h-154z" />
<glyph unicode="]" horiz-adv-x="681" d="M-51 -410l45 205h231l316 1493h-232l43 205h498l-404 -1903h-497z" />
<glyph unicode="^" horiz-adv-x="1196" d="M244 553l522 870h256l166 -870h-232l-118 614l-365 -614h-229z" />
<glyph unicode="_" horiz-adv-x="1138" d="M-133 -297l31 141h1228l-30 -141h-1229z" />
<glyph unicode="`" horiz-adv-x="681" d="M358 1550h244l92 -307h-129z" />
<glyph unicode="a" horiz-adv-x="1138" d="M102 221q0 31 8.5 71t36 95t70.5 102.5t121 89.5t178 58l119 18q8 2 34.5 5.5t39 5.5t38 7t38 10t33 12t31.5 17.5t22.5 25t16.5 31.5t5 38q0 88 -150 88q-98 0 -150 -35t-79 -119h-268q43 201 173 292t372 91q117 0 199.5 -23.5t121.5 -63.5t55.5 -78.5t16.5 -81.5 q0 -37 -13 -93l-129 -614q-6 -25 -6 -43q0 -43 43 -92l-8 -35h-313q-14 31 -14.5 55.5t6.5 55.5q-176 -158 -342 -158q-137 0 -221.5 73.5t-84.5 194.5zM395 285q0 -102 150 -103q104 0 175 67.5t99 194.5l17 78q-25 -14 -97 -28l-135 -23q-100 -16 -154.5 -65t-54.5 -121z " />
<glyph unicode="b" d="M121 0l317 1493h287l-113 -530q135 162 340 161q162 0 260.5 -115.5t98.5 -308.5q0 -291 -185.5 -519t-423.5 -228q-205 0 -270 160l-24 -113h-287zM508 414q0 -104 49 -168t131 -64q131 0 230.5 142.5t99.5 328.5q0 113 -48 177.5t-132 64.5q-131 0 -230.5 -144 t-99.5 -337z" />
<glyph unicode="c" horiz-adv-x="1138" d="M158 352q0 145 58 307t149 271q160 195 450 194q186 0 297 -98t111 -246q0 -23 -9 -88h-274q-2 102 -32.5 152.5t-135.5 50.5q-164 0 -246 -174q-76 -152 -75 -328q0 -211 182 -211q84 0 139 46t102 155h275q-63 -205 -207.5 -317.5t-343.5 -112.5q-125 0 -216 39 t-137 102.5t-66.5 126.5t-20.5 131z" />
<glyph unicode="d" d="M162 379q0 266 160 498q80 115 197.5 181t242.5 66q203 0 272 -161l113 530h287l-318 -1493h-287l25 113q-139 -160 -340 -160q-160 0 -256 116.5t-96 309.5zM455 422q0 -111 48 -175.5t130 -64.5q131 0 228 143.5t97 336.5q0 106 -48 169.5t-132 63.5 q-127 0 -225 -143.5t-98 -329.5z" />
<glyph unicode="e" horiz-adv-x="1138" d="M131 379q0 49 10.5 112.5t35 152.5t72.5 170t115.5 152.5t174 114.5t237.5 43q195 0 314.5 -112.5t119.5 -292.5q0 -117 -36 -256h-744q-6 -57 -6 -92q0 -84 53 -136.5t141 -52.5q74 0 136.5 35t93.5 94h282q-84 -170 -232 -264t-335 -94q-193 0 -312.5 118t-119.5 308z M467 653h451v31q0 211 -177 211q-206 0 -274 -242z" />
<glyph unicode="f" horiz-adv-x="681" d="M184 0l191 893h-158l41 190h156l28 134q31 143 116 209.5t235 66.5q29 0 157 -6l-45 -215q-74 8 -86 8q-74 0 -94 -88l-25 -109h170l-41 -190h-167l-191 -893h-287z" />
<glyph unicode="g" d="M53 -197q0 27 6 64h295l-2 -25q0 -45 50.5 -74.5t125.5 -29.5q113 0 195 62.5t104 162.5l33 150q-98 -90 -172 -125t-168 -35q-156 0 -257 110.5t-101 278.5q0 150 53 305.5t141 263.5q172 213 418 213q178 0 260 -188l37 170h272l-243 -1143q-41 -197 -202 -303 t-417 -106q-231 0 -329.5 74.5t-98.5 174.5zM455 412q0 -106 46 -168t126 -62q137 0 237.5 138.5t100.5 324.5q0 115 -51.5 182.5t-137.5 67.5q-125 0 -223 -147.5t-98 -335.5z" />
<glyph unicode="h" d="M137 0l318 1493h286l-118 -555q158 186 368 186q133 0 215 -74.5t82 -195.5q0 -55 -12 -113l-158 -741h-287l138 641q12 63 12 98q0 156 -150 156q-98 0 -172.5 -73.5t-101.5 -198.5l-133 -623h-287z" />
<glyph unicode="i" horiz-adv-x="569" d="M137 0l236 1106h286l-235 -1106h-287zM399 1237l56 256h286l-55 -256h-287z" />
<glyph unicode="j" horiz-adv-x="569" d="M-88 -436l49 227q10 -8 51 -8q47 0 70.5 20.5t34.5 69.5l262 1233h287l-277 -1299q-29 -133 -120 -193t-265 -60q-57 0 -92 10zM406 1237l55 256h287l-56 -256h-286z" />
<glyph unicode="k" horiz-adv-x="1138" d="M121 0l317 1493h287l-174 -817l457 430h325l-475 -422l264 -684h-336l-161 489l-140 -127l-77 -362h-287z" />
<glyph unicode="l" horiz-adv-x="569" d="M137 0l318 1493h286l-317 -1493h-287z" />
<glyph unicode="m" horiz-adv-x="1820" d="M123 0l235 1106h285l-35 -166q90 100 170 142t180 42q94 0 163 -45t91 -123q162 168 363 168q137 0 214 -68.5t77 -189.5q0 -45 -17 -125l-157 -741h-287l147 696q10 47 11 84q0 115 -119 115q-96 0 -163 -60.5t-89 -170.5l-141 -664h-287l151 709q6 33 7 67q0 53 -35 86 t-94 33q-90 0 -155 -62.5t-87 -168.5l-141 -664h-287z" />
<glyph unicode="n" d="M129 0l236 1106h286l-37 -168q82 98 170 142t203 44q137 0 219 -73.5t82 -196.5q0 -55 -12 -113l-158 -741h-287l138 641q12 68 12 100q0 154 -152 154q-102 0 -176.5 -72.5t-103.5 -199.5l-133 -623h-287z" />
<glyph unicode="o" d="M168 362q0 317 187.5 539.5t490.5 222.5q211 0 331.5 -109.5t120.5 -299.5q0 -324 -190 -543t-496 -219q-203 0 -323.5 111.5t-120.5 297.5zM461 420q0 -109 55 -173.5t148 -64.5q96 0 167.5 56.5t106.5 139.5t51.5 154.5t16.5 122.5q0 109 -55.5 174.5t-149.5 65.5 q-139 0 -239.5 -140t-100.5 -335z" />
<glyph unicode="p" d="M23 -446l329 1552h287l-35 -164q141 182 346 182q164 0 259.5 -114.5t95.5 -309.5q0 -309 -176.5 -529t-423.5 -220q-209 0 -273 180l-123 -577h-286zM504 412q0 -104 49 -168t131 -64q133 0 230.5 143.5t97.5 338.5q0 106 -49.5 169.5t-131.5 63.5q-131 0 -229 -144 t-98 -339z" />
<glyph unicode="q" d="M147 369q0 279 164 512q84 115 201 179t244 64q211 0 272 -182l35 164h287l-330 -1552h-287l123 577q-137 -180 -348 -180q-164 0 -262.5 115t-98.5 303zM440 414q0 -106 50.5 -170t132.5 -64q133 0 232 144.5t99 339.5q0 106 -49 168.5t-133 62.5q-133 0 -232.5 -144 t-99.5 -337z" />
<glyph unicode="r" horiz-adv-x="796" d="M129 0l236 1106h286l-47 -217q72 113 166 174t193 61q18 0 34 -2l-61 -291q-49 8 -88 9q-254 0 -307 -252l-125 -588h-287z" />
<glyph unicode="s" horiz-adv-x="1138" d="M123 260q0 20 8 62h281q8 -139 217 -140q94 0 153.5 32t59.5 81q0 35 -30 55.5t-126 50.5l-162 52q-135 45 -199.5 106.5t-64.5 147.5q0 180 148.5 298.5t384.5 118.5q193 0 303 -78.5t110 -218.5q0 -33 -10 -77h-276q6 29 6 38q0 49 -48.5 78t-132.5 29 q-82 0 -131 -29.5t-49 -79.5q0 -31 28 -50t105 -42l197 -57q250 -76 250 -254q0 -197 -154.5 -313.5t-415.5 -116.5q-129 0 -223 30.5t-140 81t-67.5 98.5t-21.5 97z" />
<glyph unicode="t" horiz-adv-x="681" d="M207 129q0 37 10 84l143 680h-141l41 190h141l64 297h287l-64 -297h160l-41 -190h-160l-127 -602q-12 -53 -12 -70q0 -51 78 -51q25 0 67 6l-41 -201q-80 -23 -174 -22q-113 0 -172 46t-59 130z" />
<glyph unicode="u" d="M180 223q0 55 13 113l163 770h287l-143 -670q-12 -72 -13 -100q0 -154 156 -154q100 0 174 74t101 199l139 651h286l-235 -1106h-287l31 139q-82 -98 -170 -142t-203 -44q-135 0 -217 73.5t-82 196.5z" />
<glyph unicode="v" horiz-adv-x="1138" d="M264 1106h303l62 -809l401 809h303l-616 -1106h-301z" />
<glyph unicode="w" horiz-adv-x="1593" d="M246 1106h297l10 -774l326 774h295v-774l333 774h297l-540 -1106h-297l-11 778l-340 -778h-294z" />
<glyph unicode="x" horiz-adv-x="1138" d="M33 0l477 561l-227 545h344l104 -334l252 334h344l-485 -545l252 -561h-344l-121 344l-252 -344h-344z" />
<glyph unicode="y" horiz-adv-x="1138" d="M76 -440l47 223q23 -4 57 -4q106 0 169 51t63 139q-27 219 -83 614l-75 523h315l74 -805l399 805h295l-733 -1307q-51 -96 -90 -135q-117 -113 -348 -113q-55 1 -90 9z" />
<glyph unicode="z" horiz-adv-x="1024" d="M43 0l49 231l684 643h-510l49 232h863l-50 -232l-679 -643h561l-49 -231h-918z" />
<glyph unicode="{" horiz-adv-x="796" d="M172 457l41 188h33q131 0 160 129l92 432q29 137 110.5 212t202.5 75h156l-43 -203h-76q-57 0 -80 -22.5t-37 -93.5l-84 -400q-25 -111 -80 -161t-168 -62q47 -8 75 -16.5t57.5 -40t29.5 -84.5q0 -33 -10 -84l-86 -400q-10 -57 -10 -82q0 -51 80 -51h71l-43 -203h-157 q-88 0 -143.5 57.5t-55.5 149.5q0 45 8 80l92 430q10 51 10 70q0 78 -110 78h-27z" />
<glyph unicode="|" horiz-adv-x="573" d="M117 -410l405 1903h164l-405 -1903h-164z" />
<glyph unicode="}" horiz-adv-x="796" d="M59 -410l43 203h78q57 0 80 22.5t37 94.5l84 399q25 111 80 161t168 62q-47 8 -75 16.5t-57.5 40.5t-29.5 85q0 33 10 84l86 399q10 57 10 82q0 51 -79 51h-74l43 203h160q88 0 143 -57.5t55 -149.5q0 -45 -8 -80l-92 -430q-10 -51 -10 -69q0 -78 110 -78h29l8 -2 l-41 -189h-35q-131 0 -159 -129l-93 -432q-29 -137 -110.5 -212t-202.5 -75h-158z" />
<glyph unicode="~" horiz-adv-x="1196" d="M199 346q80 297 325 297q96 0 156 -51l100 -86q57 -51 114.5 -51t86.5 28.5t51 106.5h158q-35 -145 -118 -222t-206 -77q-96 0 -157 53l-99 86q-57 49 -114 49q-59 0 -88 -28.5t-50 -104.5h-159z" />
<glyph unicode="&#xa1;" horiz-adv-x="681" d="M53 -381l92 430l220 633h137l-49 -633l-93 -430h-307zM307 807l64 299h307l-64 -299h-307z" />
<glyph unicode="&#xa2;" horiz-adv-x="1138" d="M162 352q0 45 9 107.5t31.5 150.5t66.5 170t106.5 157t160 125t218.5 60l39 176h135l-39 -178q84 -10 148.5 -43t99 -71.5t55 -86t27 -80t6.5 -59.5q0 -23 -8 -88h-275q0 92 -22.5 136t-79.5 63l-150 -709q63 14 106.5 61.5t80.5 139.5h274q-55 -188 -192.5 -304 t-317.5 -124l-43 -209h-135l45 213q-90 14 -157.5 53t-102.5 82t-55.5 98.5t-25.5 90t-5 69.5zM455 391q0 -84 23.5 -130t78.5 -71l148 701q-76 -20 -129.5 -88t-77 -153t-33.5 -149.5t-10 -109.5z" />
<glyph unicode="&#xa3;" horiz-adv-x="1138" d="M100 164q160 94 227.5 179t67.5 192q0 41 -10 112h-182l24 113h123q-53 156 -53 219q0 41 14.5 95t56.5 125t102 128t165.5 97t234.5 40q418 0 418 -360q0 -45 -8 -113h-268q2 20 2 53q0 190 -191 191q-94 0 -163.5 -65.5t-69.5 -153.5q0 -35 24.5 -123t32.5 -133h285 l-25 -113h-250q4 -27 5 -53q0 -109 -71 -204t-239 -214q98 45 136 56.5t85 11.5q43 0 130.5 -17.5t138.5 -17.5q100 0 233 59l37 -223q-178 -92 -317 -92q-74 0 -197 30.5t-195 30.5q-102 0 -235 -57z" />
<glyph unicode="&#xa4;" horiz-adv-x="1138" d="M135 346l193 158q-23 68 -23 131q0 162 113 301l-127 162l170 139l125 -158q113 63 241 64q113 0 199 -62l182 150l111 -141l-186 -154q20 -68 20 -123q0 -162 -115 -309l123 -156l-170 -139l-121 153q-123 -61 -221 -61q-137 0 -211 64l-192 -160zM510 676 q0 -78 49 -126t127 -48q109 0 185.5 77.5t76.5 188.5q0 76 -49 125t-127 49q-111 0 -186.5 -76.5t-75.5 -189.5z" />
<glyph unicode="&#xa5;" horiz-adv-x="1138" d="M219 369l27 123h299l22 106h-299l25 123h287l-263 721h285l174 -520l383 520h279l-547 -721h285l-27 -123h-295l-23 -106h295l-26 -123h-295l-78 -369h-287l78 369h-299z" />
<glyph unicode="&#xa6;" horiz-adv-x="573" d="M117 -410l170 797h164l-170 -797h-164zM352 696l170 797h164l-170 -797h-164z" />
<glyph unicode="&#xa7;" horiz-adv-x="1138" d="M115 -121q0 53 18 121h268q-6 -53 -6 -70q0 -113 133 -112q78 0 131.5 44t53.5 107q0 41 -17.5 59.5t-95.5 71.5l-307 205q-111 76 -111 201q0 117 56.5 197.5t203.5 173.5q-78 80 -77 196q0 156 133 277q141 131 372 131q164 0 257.5 -70t93.5 -194q0 -31 -15 -103h-260 q2 14 2 37q0 121 -127 121q-66 0 -109.5 -37t-43.5 -90q0 -61 145 -152l229 -143q141 -88 142 -232q0 -150 -70 -231.5t-196 -128.5q98 -80 98 -203q0 -35 -12.5 -85t-50.5 -119.5t-94 -126t-156.5 -96.5t-227.5 -40q-166 0 -263 79t-97 212zM449 616q0 -63 79 -110 l256 -158q133 61 134 158q0 37 -20.5 62.5t-74.5 58.5l-260 155q-114 -60 -114 -166z" />
<glyph unicode="&#xa8;" horiz-adv-x="681" d="M301 1272l53 246h226l-54 -246h-225zM682 1272l53 246h226l-54 -246h-225z" />
<glyph unicode="&#xa9;" horiz-adv-x="1509" d="M111 575q0 180 81.5 354.5t216 303.5t313.5 209t363 80q272 0 450.5 -176.5t178.5 -444.5q0 -180 -82 -354t-216 -303t-313 -209t-366 -80q-270 0 -448 176t-178 444zM274 604q0 -217 141.5 -359.5t356.5 -142.5q301 0 539.5 236.5t238.5 535.5q0 217 -141 358.5 t-356 141.5q-301 0 -540 -236.5t-239 -533.5zM475 588q0 264 154.5 444t380.5 180q143 0 229 -71.5t86 -190.5q0 -16 -6 -67h-184q0 84 -37 121.5t-119 37.5q-92 0 -159.5 -51t-98.5 -127t-43 -135t-12 -104q0 -94 46 -143.5t130 -49.5q178 0 235 176h189 q-43 -162 -168 -254t-299 -92q-150 0 -237 87t-87 239z" />
<glyph unicode="&#xaa;" horiz-adv-x="757" d="M197 537l34 163h580l-33 -163h-581zM274 948q0 96 69 166t181 86l70 12q113 16 135 39q20 18 21 52q0 51 -91 51q-59 0 -90.5 -20.5t-46.5 -69.5h-162q51 229 330 229q109 0 171.5 -39t62.5 -108q0 -23 -6 -58l-80 -368q-2 -10 -2 -27q0 -25 24 -55l-4 -21h-188 q-8 16 -9 33q0 12 5 33q-106 -94 -220 -95q-78 0 -124 43t-46 117zM453 989q0 -61 86 -61q63 0 107 41t59 114l10 47q-20 -8 -33 -12l-25 -4l-20 -2l-62 -12q-57 -8 -89.5 -38t-32.5 -73z" />
<glyph unicode="&#xab;" horiz-adv-x="1138" d="M276 446l50 234l407 305l-51 -240l-246 -182l168 -182l-49 -234zM713 446l49 234l407 305l-51 -240l-246 -182l168 -182l-49 -234z" />
<glyph unicode="&#xac;" horiz-adv-x="1196" d="M211 524l51 246h1032l-125 -594h-243l73 348h-788z" />
<glyph unicode="&#xad;" horiz-adv-x="681" d="M143 424l60 276h557l-60 -276h-557z" />
<glyph unicode="&#xae;" horiz-adv-x="1509" d="M113 575q0 240 137 460t363.5 353.5t471.5 133.5q272 0 450.5 -176.5t178.5 -444.5q0 -240 -137 -460t-363.5 -353t-474.5 -133q-270 0 -448 176t-178 444zM276 604q0 -217 140.5 -359.5t355.5 -142.5q197 0 378 108.5t290.5 288t109.5 375.5q0 217 -141 358.5 t-356 141.5q-197 0 -377 -108.5t-290 -287.5t-110 -374zM457 287l192 905h488q203 0 202 -182q0 -197 -198 -287q80 -37 80 -100q0 -41 -31 -224l-2 -26q0 -27 24 -43l-10 -43h-209q-10 33 -10 57q0 43 20.5 128t20.5 97q0 72 -109 72h-186l-76 -354h-196zM764 807h209 q76 0 118 32.5t42 121.5q0 37 -26 52t-87 15h-209z" />
<glyph unicode="&#xaf;" horiz-adv-x="681" d="M307 1315l35 164h614l-34 -164h-615z" />
<glyph unicode="&#xb0;" horiz-adv-x="1241" d="M492 1096q0 127 91 218t218 91q129 0 220 -91t91 -218q0 -131 -91 -221.5t-222 -90.5q-125 0 -216 92.5t-91 219.5zM621 1094q0 -72 53 -126.5t125 -54.5q78 0 131 53.5t53 129.5q0 74 -53 127t-127 53q-76 0 -129 -53t-53 -129z" />
<glyph unicode="&#xb1;" horiz-adv-x="1196" d="M102 0l52 244h991l-51 -244h-992zM248 680l51 246h373l80 370h243l-80 -370h375l-51 -246h-375l-71 -332h-244l72 332h-373z" />
<glyph unicode="&#xb2;" horiz-adv-x="716" d="M168 582q31 115 101.5 199.5t149.5 130.5t153.5 88t123.5 97.5t49 131.5q0 94 -106 94q-135 0 -154 -182h-186q25 160 119 244.5t246 84.5q129 0 200.5 -56t71.5 -159q0 -100 -62.5 -184t-140.5 -131t-164 -101.5t-116 -93.5h376l-34 -163h-627z" />
<glyph unicode="&#xb3;" horiz-adv-x="716" d="M219 774q0 31 8 74h187q-4 -16 -4 -37q0 -96 114 -96q61 0 105.5 44t44.5 105q0 51 -36 75t-120 26h-26l26 129q8 -2 21 -2q82 0 130 39.5t48 109.5q0 37 -25.5 59.5t-66.5 22.5q-59 0 -90 -34t-50 -120h-178q31 156 116 228.5t236 72.5q125 0 194 -50t69 -140 q0 -141 -146 -231q88 -55 88 -150q0 -152 -104.5 -248t-272.5 -96q-127 0 -197.5 57.5t-70.5 161.5z" />
<glyph unicode="&#xb4;" horiz-adv-x="681" d="M506 1243l209 307h258l-324 -307h-143z" />
<glyph unicode="&#xb5;" horiz-adv-x="1366" d="M-90 -397l391 1509h283l-170 -659q-8 -31 -8 -66q0 -61 38.5 -114.5t128.5 -53.5q92 0 165 61.5t102 172.5l170 659h278l-198 -770q-18 -70 -19 -100l39 -19l33 -155q-131 -72 -193 -72q-135 0 -157 92q-125 -113 -289 -113q-23 0 -42.5 2.5t-33.5 4.5t-31 8l-24 9 q-8 3 -21.5 10t-17.5 9t-17 11l-12 10l-112 -436h-283z" />
<glyph unicode="&#xb6;" horiz-adv-x="1138" d="M248 891q0 94 37 196.5t102.5 194.5t170 151.5t224.5 59.5h619l-31 -150h-90l-369 -1734h-200l368 1734h-127l-368 -1734h-201l199 938q-154 8 -244 100t-90 244z" />
<glyph unicode="&#xb7;" horiz-adv-x="569" d="M293 373l45 205h215l-45 -205h-215z" />
<glyph unicode="&#xb8;" horiz-adv-x="681" d="M-27 -391l62 104q125 -61 201 -61q57 0 98 26.5t41 63.5q0 31 -24.5 49.5t-65.5 18.5q-45 0 -109 -27l139 217h103l-84 -127q49 12 88 12q61 0 96 -30.5t35 -85.5q0 -100 -84 -160t-223 -60q-121 1 -273 60z" />
<glyph unicode="&#xb9;" horiz-adv-x="507" d="M291 1174l26 124q238 0 312 154h129l-185 -870h-192l127 592h-217z" />
<glyph unicode="&#xba;" horiz-adv-x="747" d="M188 537l35 163h617l-35 -163h-617zM287 1036q0 186 112.5 321.5t294.5 135.5q127 0 199 -65.5t72 -178.5q0 -195 -115 -326.5t-299 -131.5q-121 0 -192.5 66t-71.5 179zM465 1065q0 -66 32.5 -105.5t86.5 -39.5q82 0 142 86t60 202q0 66 -32.5 106t-85.5 40 q-84 0 -143.5 -85t-59.5 -204z" />
<glyph unicode="&#xbb;" horiz-adv-x="1138" d="M211 147l51 240l246 182l-168 183l49 233l279 -299l-50 -235zM635 147l51 240l246 182l-168 183l49 233l279 -299l-50 -235z" />
<glyph unicode="&#xbc;" horiz-adv-x="1779" d="M299 1174l27 124q238 0 311 154h129l-184 -870h-193l127 592h-217zM311 -41l1190 1505h174l-1190 -1505h-174zM1124 190l33 148l445 532h221l-113 -530h94l-32 -150h-95l-39 -190h-192l41 190h-363zM1305 340h215l71 340z" />
<glyph unicode="&#xbd;" horiz-adv-x="1779" d="M311 1174l27 124q238 0 311 154h129l-184 -870h-193l127 592h-217zM322 -41l1189 1505h175l-1190 -1505h-174zM1106 0q31 115 101.5 200t149.5 131t153.5 88t123.5 97t49 131q0 94 -106 94q-135 0 -154 -182h-186q25 160 119 245t246 85q129 0 200.5 -56.5t71.5 -158.5 q0 -100 -62.5 -184t-140.5 -131.5t-164 -101.5t-116 -93h376l-34 -164h-627z" />
<glyph unicode="&#xbe;" horiz-adv-x="1779" d="M233 774q0 31 9 74h186q-4 -16 -4 -37q0 -96 115 -96q61 0 105 44t44 105q0 51 -36 75t-120 26h-26l26 129q8 -2 21 -2q82 0 130 39.5t48 109.5q0 37 -25.5 59.5t-66.5 22.5q-59 0 -90 -34t-49 -120h-178q31 156 115.5 228.5t236.5 72.5q125 0 193.5 -50t68.5 -140 q0 -141 -145 -231q88 -55 88 -150q0 -152 -104.5 -248t-272.5 -96q-127 0 -198 57.5t-71 161.5zM397 -41l1190 1505h174l-1190 -1505h-174zM1118 190l33 148l444 532h222l-113 -530h94l-33 -150h-94l-39 -190h-192l41 190h-363zM1298 340h215l72 340z" />
<glyph unicode="&#xbf;" d="M106 -53q0 47 8.5 91t19.5 80t31.5 70.5t37 59t45 53.5t45 44t47.5 36.5t42 29t40 23.5l27 17q104 63 133.5 102t52.5 141h250q-10 -111 -64.5 -195.5t-123 -135t-137 -96.5t-115 -109.5t-46.5 -143.5q0 -78 53.5 -128t135.5 -50q102 0 175 76t97 209h279 q-12 -59 -25.5 -104.5t-58.5 -134.5t-102.5 -147.5t-164 -105.5t-239.5 -47q-205 0 -324 98.5t-119 266.5zM627 807l63 299h307l-63 -299h-307z" />
<glyph unicode="&#xc0;" horiz-adv-x="1478" d="M880 1892h244l92 -307h-129zM53 0l834 1493h354l199 -1493h-314l-36 301h-558l-165 -301h-314zM674 557h387l-72 580z" />
<glyph unicode="&#xc1;" horiz-adv-x="1478" d="M948 1597l209 307h258l-324 -307h-143zM53 0l834 1493h354l199 -1493h-314l-36 301h-558l-165 -301h-314zM674 557h387l-72 580z" />
<glyph unicode="&#xc2;" horiz-adv-x="1478" d="M761 1616l285 301h221l146 -301h-160l-125 199l-211 -199h-156zM53 0l834 1493h354l199 -1493h-314l-36 301h-558l-165 -301h-314zM674 557h387l-72 580z" />
<glyph unicode="&#xc3;" horiz-adv-x="1478" d="M732 1645q35 115 99 177.5t148 62.5q66 0 146 -35l102 -43q43 -20 68 -21q68 0 110 105h111q-37 -129 -109.5 -189.5t-162.5 -60.5q-55 0 -105 22l-102 52q-61 29 -90 28q-53 0 -105 -98h-110zM53 0l834 1493h354l199 -1493h-314l-36 301h-558l-165 -301h-314zM674 557 h387l-72 580z" />
<glyph unicode="&#xc4;" horiz-adv-x="1478" d="M53 0l834 1493h354l199 -1493h-314l-36 301h-558l-165 -301h-314zM674 557h387l-72 580zM793 1641l53 246h226l-54 -246h-225zM1174 1641l53 246h226l-54 -246h-225z" />
<glyph unicode="&#xc5;" horiz-adv-x="1478" d="M53 0l834 1493h354l199 -1493h-314l-36 301h-558l-165 -301h-314zM674 557h387l-72 580zM925 1729q0 88 70 155.5t160 67.5q63 0 105 -41t42 -104q0 -88 -69.5 -156t-159.5 -68q-63 0 -105.5 41.5t-42.5 104.5zM1026 1751q0 -29 19.5 -47t49.5 -18q41 0 74 30.5t33 69.5 q0 27 -19.5 45.5t-48.5 18.5q-41 0 -74.5 -30t-33.5 -69z" />
<glyph unicode="&#xc6;" horiz-adv-x="2048" d="M2 0l860 1493h1399l-53 -256h-752l-74 -338h695l-54 -256h-694l-82 -387h791l-56 -256h-1097l65 311h-448l-174 -311h-326zM635 567h371l143 670h-135z" />
<glyph unicode="&#xc7;" horiz-adv-x="1478" d="M219 481q0 285 112.5 522.5t313.5 376t447 138.5q238 0 385 -119t147 -312q0 -29 -8 -100h-289q0 268 -270 268q-106 0 -194.5 -42t-143.5 -111.5t-96 -148.5t-60.5 -162.5t-29 -144t-9.5 -103.5q0 -328 301 -328q147 0 252 77t150 218h293q-63 -256 -258 -405.5 t-465 -151.5l-54 -82q41 14 88 14q61 0 96.5 -30.5t35.5 -85.5q0 -100 -85 -160t-225 -60q-119 0 -272 60l61 104q129 -61 203 -61q57 0 98 26.5t41 63.5q0 31 -24.5 49.5t-65.5 18.5q-43 0 -110 -27l112 172q-217 16 -347 159.5t-130 366.5z" />
<glyph unicode="&#xc8;" horiz-adv-x="1366" d="M880 1890h244l92 -307h-129zM162 0l317 1493h1082l-56 -256h-774l-72 -338h715l-53 -256h-715l-82 -387h809l-55 -256h-1116z" />
<glyph unicode="&#xc9;" horiz-adv-x="1366" d="M916 1612l209 307h258l-324 -307h-143zM162 0l317 1493h1082l-56 -256h-774l-72 -338h715l-53 -256h-715l-82 -387h809l-55 -256h-1116z" />
<glyph unicode="&#xca;" horiz-adv-x="1366" d="M727 1616l285 301h221l146 -301h-160l-125 199l-211 -199h-156zM162 0l317 1493h1082l-56 -256h-774l-72 -338h715l-53 -256h-715l-82 -387h809l-55 -256h-1116z" />
<glyph unicode="&#xcb;" horiz-adv-x="1366" d="M747 1641l53 246h226l-54 -246h-225zM1128 1641l53 246h226l-54 -246h-225zM162 0l317 1493h1082l-56 -256h-774l-72 -338h715l-53 -256h-715l-82 -387h809l-55 -256h-1116z" />
<glyph unicode="&#xcc;" horiz-adv-x="569" d="M417 1896h244l92 -307h-129zM129 0l317 1493h308l-318 -1493h-307z" />
<glyph unicode="&#xcd;" horiz-adv-x="569" d="M533 1612l209 307h258l-324 -307h-143zM129 0l317 1493h308l-318 -1493h-307z" />
<glyph unicode="&#xce;" horiz-adv-x="569" d="M305 1616l285 301h221l146 -301h-160l-125 199l-211 -199h-156zM129 0l317 1493h308l-318 -1493h-307z" />
<glyph unicode="&#xcf;" horiz-adv-x="569" d="M328 1641l53 246h226l-54 -246h-225zM709 1641l53 246h226l-54 -246h-225zM129 0l317 1493h308l-318 -1493h-307z" />
<glyph unicode="&#xd0;" horiz-adv-x="1478" d="M150 698l34 164h156l135 631h584q279 0 404.5 -122t125.5 -390q0 -377 -229 -694q-113 -156 -254 -221.5t-365 -65.5h-583l149 698h-157zM520 256h275q133 0 217 48t149 163q53 90 88 231.5t35 262.5q0 276 -280 276h-277l-80 -375h357l-35 -164h-355z" />
<glyph unicode="&#xd1;" horiz-adv-x="1478" d="M732 1645q35 115 99 177.5t148 62.5q66 0 146 -35l102 -43q43 -20 68 -21q68 0 110 105h111q-37 -129 -109.5 -189.5t-162.5 -60.5q-55 0 -105 22l-102 52q-61 29 -90 28q-53 0 -105 -98h-110zM139 0l318 1493h307l393 -1055l223 1055h291l-317 -1493h-303l-394 1071 l-227 -1071h-291z" />
<glyph unicode="&#xd2;" horiz-adv-x="1593" d="M880 1896h244l92 -307h-129zM217 535q0 176 68.5 358t187.5 324q250 301 629 301q281 0 437.5 -155t156.5 -431q0 -182 -66.5 -360.5t-185.5 -317.5q-131 -156 -284.5 -228.5t-350.5 -72.5q-274 0 -433 157t-159 425zM522 578q0 -168 90 -265.5t246 -97.5q106 0 194.5 40 t143.5 106.5t96 142.5t60.5 155.5t29 137t9.5 98.5q0 170 -87 265t-241 95q-106 0 -195.5 -39.5t-145.5 -105.5t-97 -140.5t-62.5 -154.5t-31 -138t-9.5 -99z" />
<glyph unicode="&#xd3;" horiz-adv-x="1593" d="M1030 1608l209 307h258l-324 -307h-143zM217 535q0 176 68.5 358t187.5 324q250 301 629 301q281 0 437.5 -155t156.5 -431q0 -182 -66.5 -360.5t-185.5 -317.5q-131 -156 -284.5 -228.5t-350.5 -72.5q-274 0 -433 157t-159 425zM522 578q0 -168 90 -265.5t246 -97.5 q106 0 194.5 40t143.5 106.5t96 142.5t60.5 155.5t29 137t9.5 98.5q0 170 -87 265t-241 95q-106 0 -195.5 -39.5t-145.5 -105.5t-97 -140.5t-62.5 -154.5t-31 -138t-9.5 -99z" />
<glyph unicode="&#xd4;" horiz-adv-x="1593" d="M825 1618l285 301h221l146 -301h-160l-125 199l-211 -199h-156zM217 535q0 176 68.5 358t187.5 324q250 301 629 301q281 0 437.5 -155t156.5 -431q0 -182 -66.5 -360.5t-185.5 -317.5q-131 -156 -284.5 -228.5t-350.5 -72.5q-274 0 -433 157t-159 425zM522 578 q0 -168 90 -265.5t246 -97.5q106 0 194.5 40t143.5 106.5t96 142.5t60.5 155.5t29 137t9.5 98.5q0 170 -87 265t-241 95q-106 0 -195.5 -39.5t-145.5 -105.5t-97 -140.5t-62.5 -154.5t-31 -138t-9.5 -99z" />
<glyph unicode="&#xd5;" horiz-adv-x="1593" d="M217 535q0 176 68.5 358t187.5 324q250 301 629 301q281 0 437.5 -155t156.5 -431q0 -182 -66.5 -360.5t-185.5 -317.5q-131 -156 -284.5 -228.5t-350.5 -72.5q-274 0 -433 157t-159 425zM522 578q0 -168 90 -265.5t246 -97.5q106 0 194.5 40t143.5 106.5t96 142.5 t60.5 155.5t29 137t9.5 98.5q0 170 -87 265t-241 95q-106 0 -195.5 -39.5t-145.5 -105.5t-97 -140.5t-62.5 -154.5t-31 -138t-9.5 -99zM791 1645q35 115 99 177.5t148 62.5q66 0 146 -35l102 -43q43 -20 68 -21q68 0 110 105h111q-37 -129 -109.5 -189.5t-162.5 -60.5 q-55 0 -105 22l-102 52q-61 29 -90 28q-53 0 -105 -98h-110z" />
<glyph unicode="&#xd6;" horiz-adv-x="1593" d="M217 535q0 176 68.5 358t187.5 324q250 301 629 301q281 0 437.5 -155t156.5 -431q0 -182 -66.5 -360.5t-185.5 -317.5q-131 -156 -284.5 -228.5t-350.5 -72.5q-274 0 -433 157t-159 425zM522 578q0 -168 90 -265.5t246 -97.5q106 0 194.5 40t143.5 106.5t96 142.5 t60.5 155.5t29 137t9.5 98.5q0 170 -87 265t-241 95q-106 0 -195.5 -39.5t-145.5 -105.5t-97 -140.5t-62.5 -154.5t-31 -138t-9.5 -99zM848 1641l53 246h226l-54 -246h-225zM1229 1641l53 246h226l-54 -246h-225z" />
<glyph unicode="&#xd7;" horiz-adv-x="1196" d="M209 211l317 262l-207 262l209 174l207 -264l322 264l135 -172l-322 -264l207 -264l-209 -172l-206 264l-318 -262z" />
<glyph unicode="&#xd8;" horiz-adv-x="1593" d="M70 14l227 203q-74 141 -74 322q0 174 68.5 356t187.5 324q256 299 641 299q289 0 443 -168l206 184l86 -92l-221 -199q70 -141 70 -317q0 -174 -68.5 -353.5t-187.5 -320.5q-256 -299 -639 -299q-293 0 -438 162l-217 -195zM528 575q0 -72 13 -139l790 705 q-92 115 -264 114q-127 0 -227.5 -58t-156.5 -140t-93 -182.5t-49.5 -174.5t-12.5 -125zM602 322q90 -106 260 -107q236 0 389 215q147 201 148 469q0 68 -10 125z" />
<glyph unicode="&#xd9;" horiz-adv-x="1478" d="M880 1894h244l92 -307h-129zM244 342q0 74 22 180l207 971h307l-215 -1012q-10 -55 -10 -92q0 -82 66.5 -128t185.5 -46q139 0 219 64.5t109 201.5l215 1012h307l-215 -1012q-53 -246 -219 -377q-193 -152 -473 -151q-231 0 -368.5 105.5t-137.5 283.5z" />
<glyph unicode="&#xda;" horiz-adv-x="1478" d="M950 1612l209 307h258l-324 -307h-143zM244 342q0 74 22 180l207 971h307l-215 -1012q-10 -55 -10 -92q0 -82 66.5 -128t185.5 -46q139 0 219 64.5t109 201.5l215 1012h307l-215 -1012q-53 -246 -219 -377q-193 -152 -473 -151q-231 0 -368.5 105.5t-137.5 283.5z" />
<glyph unicode="&#xdb;" horiz-adv-x="1478" d="M772 1616l285 301h221l146 -301h-160l-125 199l-211 -199h-156zM244 342q0 74 22 180l207 971h307l-215 -1012q-10 -55 -10 -92q0 -82 66.5 -128t185.5 -46q139 0 219 64.5t109 201.5l215 1012h307l-215 -1012q-53 -246 -219 -377q-193 -152 -473 -151 q-231 0 -368.5 105.5t-137.5 283.5z" />
<glyph unicode="&#xdc;" horiz-adv-x="1478" d="M244 342q0 74 22 180l207 971h307l-215 -1012q-10 -55 -10 -92q0 -82 66.5 -128t185.5 -46q139 0 219 64.5t109 201.5l215 1012h307l-215 -1012q-53 -246 -219 -377q-193 -152 -473 -151q-231 0 -368.5 105.5t-137.5 283.5zM793 1641l53 246h226l-54 -246h-225z M1174 1641l53 246h226l-54 -246h-225z" />
<glyph unicode="&#xdd;" horiz-adv-x="1366" d="M903 1612l209 307h258l-324 -307h-143zM373 1493h342l168 -645l424 645h342l-672 -940l-119 -553h-307l119 553z" />
<glyph unicode="&#xde;" horiz-adv-x="1366" d="M156 0l317 1493h307l-53 -246h326q123 0 211 -33.5t131 -88t62.5 -109.5t19.5 -115q0 -119 -49.5 -239.5t-131.5 -208.5q-158 -166 -389 -166h-383l-61 -287h-307zM578 543h313q152 0 216 87t64 199q0 72 -51 117t-133 45h-313z" />
<glyph unicode="&#xdf;" d="M137 0l244 1143q35 160 182.5 255t362.5 95q186 0 299.5 -83t113.5 -218q0 -119 -67.5 -214t-181.5 -136q96 -23 148 -94.5t52 -180.5q0 -47 -15 -114.5t-57 -157.5t-103.5 -164t-166 -126t-233.5 -52q-47 0 -140 14l50 230h28q160 2 252 90t92 227q0 201 -231 201h-31 l41 194q121 0 196 61.5t75 159.5q0 63 -49.5 98.5t-133.5 35.5q-172 0 -207 -164l-233 -1100h-287z" />
<glyph unicode="&#xe0;" horiz-adv-x="1138" d="M555 1550h244l92 -307h-129zM102 221q0 31 8.5 71t36 95t70.5 102.5t121 89.5t178 58l119 18q8 2 34.5 5.5t39 5.5t38 7t38 10t33 12t31.5 17.5t22.5 25t16.5 31.5t5 38q0 88 -150 88q-98 0 -150 -35t-79 -119h-268q43 201 173 292t372 91q117 0 199.5 -23.5t121.5 -63.5 t55.5 -78.5t16.5 -81.5q0 -37 -13 -93l-129 -614q-6 -25 -6 -43q0 -43 43 -92l-8 -35h-313q-14 31 -14.5 55.5t6.5 55.5q-176 -158 -342 -158q-137 0 -221.5 73.5t-84.5 194.5zM395 285q0 -102 150 -103q104 0 175 67.5t99 194.5l17 78q-25 -14 -97 -28l-135 -23 q-100 -16 -154.5 -65t-54.5 -121z" />
<glyph unicode="&#xe1;" horiz-adv-x="1138" d="M737 1245l209 307h258l-324 -307h-143zM102 221q0 31 8.5 71t36 95t70.5 102.5t121 89.5t178 58l119 18q8 2 34.5 5.5t39 5.5t38 7t38 10t33 12t31.5 17.5t22.5 25t16.5 31.5t5 38q0 88 -150 88q-98 0 -150 -35t-79 -119h-268q43 201 173 292t372 91q117 0 199.5 -23.5 t121.5 -63.5t55.5 -78.5t16.5 -81.5q0 -37 -13 -93l-129 -614q-6 -25 -6 -43q0 -43 43 -92l-8 -35h-313q-14 31 -14.5 55.5t6.5 55.5q-176 -158 -342 -158q-137 0 -221.5 73.5t-84.5 194.5zM395 285q0 -102 150 -103q104 0 175 67.5t99 194.5l17 78q-25 -14 -97 -28 l-135 -23q-100 -16 -154.5 -65t-54.5 -121z" />
<glyph unicode="&#xe2;" horiz-adv-x="1138" d="M505 1247l285 301h221l146 -301h-160l-125 199l-211 -199h-156zM102 221q0 31 8.5 71t36 95t70.5 102.5t121 89.5t178 58l119 18q8 2 34.5 5.5t39 5.5t38 7t38 10t33 12t31.5 17.5t22.5 25t16.5 31.5t5 38q0 88 -150 88q-98 0 -150 -35t-79 -119h-268q43 201 173 292 t372 91q117 0 199.5 -23.5t121.5 -63.5t55.5 -78.5t16.5 -81.5q0 -37 -13 -93l-129 -614q-6 -25 -6 -43q0 -43 43 -92l-8 -35h-313q-14 31 -14.5 55.5t6.5 55.5q-176 -158 -342 -158q-137 0 -221.5 73.5t-84.5 194.5zM395 285q0 -102 150 -103q104 0 175 67.5t99 194.5 l17 78q-25 -14 -97 -28l-135 -23q-100 -16 -154.5 -65t-54.5 -121z" />
<glyph unicode="&#xe3;" horiz-adv-x="1138" d="M453 1251q35 115 99 177.5t148 62.5q66 0 146 -35l102 -43q43 -20 68 -21q68 0 110 105h111q-37 -129 -109.5 -189.5t-162.5 -60.5q-55 0 -105 22l-102 52q-61 29 -90 28q-53 0 -105 -98h-110zM102 221q0 31 8.5 71t36 95t70.5 102.5t121 89.5t178 58l119 18 q8 2 34.5 5.5t39 5.5t38 7t38 10t33 12t31.5 17.5t22.5 25t16.5 31.5t5 38q0 88 -150 88q-98 0 -150 -35t-79 -119h-268q43 201 173 292t372 91q117 0 199.5 -23.5t121.5 -63.5t55.5 -78.5t16.5 -81.5q0 -37 -13 -93l-129 -614q-6 -25 -6 -43q0 -43 43 -92l-8 -35h-313 q-14 31 -14.5 55.5t6.5 55.5q-176 -158 -342 -158q-137 0 -221.5 73.5t-84.5 194.5zM395 285q0 -102 150 -103q104 0 175 67.5t99 194.5l17 78q-25 -14 -97 -28l-135 -23q-100 -16 -154.5 -65t-54.5 -121z" />
<glyph unicode="&#xe4;" horiz-adv-x="1138" d="M534 1268l53 246h226l-54 -246h-225zM915 1268l53 246h226l-54 -246h-225zM102 221q0 31 8.5 71t36 95t70.5 102.5t121 89.5t178 58l119 18q8 2 34.5 5.5t39 5.5t38 7t38 10t33 12t31.5 17.5t22.5 25t16.5 31.5t5 38q0 88 -150 88q-98 0 -150 -35t-79 -119h-268 q43 201 173 292t372 91q117 0 199.5 -23.5t121.5 -63.5t55.5 -78.5t16.5 -81.5q0 -37 -13 -93l-129 -614q-6 -25 -6 -43q0 -43 43 -92l-8 -35h-313q-14 31 -14.5 55.5t6.5 55.5q-176 -158 -342 -158q-137 0 -221.5 73.5t-84.5 194.5zM395 285q0 -102 150 -103 q104 0 175 67.5t99 194.5l17 78q-25 -14 -97 -28l-135 -23q-100 -16 -154.5 -65t-54.5 -121z" />
<glyph unicode="&#xe5;" horiz-adv-x="1138" d="M674 1362q0 88 70 155.5t160 67.5q63 0 105 -41t42 -104q0 -88 -69.5 -156t-159.5 -68q-63 0 -105.5 41.5t-42.5 104.5zM775 1384q0 -29 19.5 -47t49.5 -18q41 0 74 30.5t33 69.5q0 27 -19.5 45.5t-48.5 18.5q-41 0 -74.5 -30t-33.5 -69zM102 221q0 31 8.5 71t36 95 t70.5 102.5t121 89.5t178 58l119 18q8 2 34.5 5.5t39 5.5t38 7t38 10t33 12t31.5 17.5t22.5 25t16.5 31.5t5 38q0 88 -150 88q-98 0 -150 -35t-79 -119h-268q43 201 173 292t372 91q117 0 199.5 -23.5t121.5 -63.5t55.5 -78.5t16.5 -81.5q0 -37 -13 -93l-129 -614 q-6 -25 -6 -43q0 -43 43 -92l-8 -35h-313q-14 31 -14.5 55.5t6.5 55.5q-176 -158 -342 -158q-137 0 -221.5 73.5t-84.5 194.5zM395 285q0 -102 150 -103q104 0 175 67.5t99 194.5l17 78q-25 -14 -97 -28l-135 -23q-100 -16 -154.5 -65t-54.5 -121z" />
<glyph unicode="&#xe6;" horiz-adv-x="1820" d="M111 217q0 31 6 68t31.5 94t66.5 105t122 91t187 62l117 18q6 0 35 4.5t40 6.5t37.5 7t39 10t33 12t31.5 17.5t22.5 25t16.5 31.5t5 38q0 88 -149 88q-98 0 -150.5 -35t-79.5 -119h-268q37 176 129 258q141 125 420 125q231 0 330 -100q150 100 337 100 q195 0 311.5 -115.5t116.5 -289.5q0 -117 -36 -256h-742q-14 -61 -14 -105q0 -78 54 -127t143 -49q76 0 139 35t94 94h283q-82 -164 -238 -261t-340 -97q-281 0 -371 205q-109 -115 -205 -160t-237 -45q-150 0 -233.5 69.5t-83.5 194.5zM403 285q0 -102 146 -103 q106 0 178 66.5t100 193.5l17 78q-27 -12 -53 -20q-4 0 -18.5 -2t-24.5 -4l-136 -23q-100 -16 -154.5 -65t-54.5 -121zM1163 653h443v56q0 88 -45 137t-129 49q-203 0 -269 -242z" />
<glyph unicode="&#xe7;" horiz-adv-x="1138" d="M158 354q0 143 57 305t147 271q164 195 453 194q186 0 297 -98t111 -246q0 -23 -9 -88h-274q-2 102 -32.5 152.5t-135.5 50.5q-164 0 -246 -174q-76 -152 -75 -328q0 -211 182 -211q84 0 139 46t102 155h275q-49 -156 -148.5 -257t-194.5 -137t-190 -36h-26l-53 -80 q45 12 88 12q61 0 96 -30.5t35 -85.5q0 -100 -85 -160t-225 -60q-121 0 -272 60l62 106q125 -63 202 -63q57 0 98.5 26.5t41.5 63.5q0 31 -25 49.5t-66 18.5q-45 0 -110 -27l117 178q-90 16 -157 57t-99.5 84t-52 97.5t-23.5 87t-4 67.5z" />
<glyph unicode="&#xe8;" horiz-adv-x="1138" d="M555 1550h244l92 -307h-129zM131 379q0 49 10.5 112.5t35 152.5t72.5 170t115.5 152.5t174 114.5t237.5 43q195 0 314.5 -112.5t119.5 -292.5q0 -117 -36 -256h-744q-6 -57 -6 -92q0 -84 53 -136.5t141 -52.5q74 0 136.5 35t93.5 94h282q-84 -170 -232 -264t-335 -94 q-193 0 -312.5 118t-119.5 308zM467 653h451v31q0 211 -177 211q-206 0 -274 -242z" />
<glyph unicode="&#xe9;" horiz-adv-x="1138" d="M686 1247l209 307h258l-324 -307h-143zM131 379q0 49 10.5 112.5t35 152.5t72.5 170t115.5 152.5t174 114.5t237.5 43q195 0 314.5 -112.5t119.5 -292.5q0 -117 -36 -256h-744q-6 -57 -6 -92q0 -84 53 -136.5t141 -52.5q74 0 136.5 35t93.5 94h282q-84 -170 -232 -264 t-335 -94q-193 0 -312.5 118t-119.5 308zM467 653h451v31q0 211 -177 211q-206 0 -274 -242z" />
<glyph unicode="&#xea;" horiz-adv-x="1138" d="M485 1249l285 301h221l146 -301h-160l-125 199l-211 -199h-156zM131 379q0 49 10.5 112.5t35 152.5t72.5 170t115.5 152.5t174 114.5t237.5 43q195 0 314.5 -112.5t119.5 -292.5q0 -117 -36 -256h-744q-6 -57 -6 -92q0 -84 53 -136.5t141 -52.5q74 0 136.5 35t93.5 94 h282q-84 -170 -232 -264t-335 -94q-193 0 -312.5 118t-119.5 308zM467 653h451v31q0 211 -177 211q-206 0 -274 -242z" />
<glyph unicode="&#xeb;" horiz-adv-x="1138" d="M520 1268l53 246h226l-54 -246h-225zM901 1268l53 246h226l-54 -246h-225zM131 379q0 49 10.5 112.5t35 152.5t72.5 170t115.5 152.5t174 114.5t237.5 43q195 0 314.5 -112.5t119.5 -292.5q0 -117 -36 -256h-744q-6 -57 -6 -92q0 -84 53 -136.5t141 -52.5q74 0 136.5 35 t93.5 94h282q-84 -170 -232 -264t-335 -94q-193 0 -312.5 118t-119.5 308zM467 653h451v31q0 211 -177 211q-206 0 -274 -242z" />
<glyph unicode="&#xec;" horiz-adv-x="569" d="M329 1550h244l92 -307h-129zM137 0l236 1106h286l-235 -1106h-287z" />
<glyph unicode="&#xed;" horiz-adv-x="569" d="M451 1243l209 307h258l-324 -307h-143zM137 0l236 1106h286l-235 -1106h-287z" />
<glyph unicode="&#xee;" horiz-adv-x="569" d="M221 1247l285 301h221l146 -301h-160l-125 199l-211 -199h-156zM137 0l236 1106h286l-235 -1106h-287z" />
<glyph unicode="&#xef;" horiz-adv-x="569" d="M246 1270l53 246h226l-54 -246h-225zM627 1270l53 246h226l-54 -246h-225zM137 0l236 1106h286l-235 -1106h-287z" />
<glyph unicode="&#xf0;" d="M170 365q0 57 12.5 135t50 184.5t97 192.5t167 147t244.5 61q84 0 185 -55q-76 129 -199 217l-199 -92l-84 88l181 84q-59 41 -144 94l144 103q117 -53 194 -105l213 92l88 -88l-190 -84q199 -147 282.5 -291.5t83.5 -340.5q0 -322 -187 -538t-484 -216 q-213 0 -334 109.5t-121 302.5zM465 422q0 -135 62.5 -187.5t140.5 -52.5q145 0 241.5 138.5t96.5 347.5q0 117 -64.5 166t-148.5 49q-78 0 -139.5 -39t-96.5 -93.5t-56.5 -123t-28.5 -118.5t-7 -87z" />
<glyph unicode="&#xf1;" d="M525 1251q35 115 99 177.5t148 62.5q66 0 146 -35l102 -43q43 -20 68 -21q68 0 110 105h111q-37 -129 -109.5 -189.5t-162.5 -60.5q-55 0 -105 22l-102 52q-61 29 -90 28q-53 0 -105 -98h-110zM129 0l236 1106h286l-37 -168q82 98 170 142t203 44q137 0 219 -73.5 t82 -196.5q0 -55 -12 -113l-158 -741h-287l138 641q12 68 12 100q0 154 -152 154q-102 0 -176.5 -72.5t-103.5 -199.5l-133 -623h-287z" />
<glyph unicode="&#xf2;" d="M634 1550h244l92 -307h-129zM168 362q0 317 187.5 539.5t490.5 222.5q211 0 331.5 -109.5t120.5 -299.5q0 -324 -190 -543t-496 -219q-203 0 -323.5 111.5t-120.5 297.5zM461 420q0 -109 55 -173.5t148 -64.5q96 0 167.5 56.5t106.5 139.5t51.5 154.5t16.5 122.5 q0 109 -55.5 174.5t-149.5 65.5q-139 0 -239.5 -140t-100.5 -335z" />
<glyph unicode="&#xf3;" d="M762 1245l209 307h258l-324 -307h-143zM168 362q0 317 187.5 539.5t490.5 222.5q211 0 331.5 -109.5t120.5 -299.5q0 -324 -190 -543t-496 -219q-203 0 -323.5 111.5t-120.5 297.5zM461 420q0 -109 55 -173.5t148 -64.5q96 0 167.5 56.5t106.5 139.5t51.5 154.5 t16.5 122.5q0 109 -55.5 174.5t-149.5 65.5q-139 0 -239.5 -140t-100.5 -335z" />
<glyph unicode="&#xf4;" d="M567 1249l285 301h221l146 -301h-160l-125 199l-211 -199h-156zM168 362q0 317 187.5 539.5t490.5 222.5q211 0 331.5 -109.5t120.5 -299.5q0 -324 -190 -543t-496 -219q-203 0 -323.5 111.5t-120.5 297.5zM461 420q0 -109 55 -173.5t148 -64.5q96 0 167.5 56.5 t106.5 139.5t51.5 154.5t16.5 122.5q0 109 -55.5 174.5t-149.5 65.5q-139 0 -239.5 -140t-100.5 -335z" />
<glyph unicode="&#xf5;" d="M508 1251q35 115 99 177.5t148 62.5q66 0 146 -35l102 -43q43 -20 68 -21q68 0 110 105h111q-37 -129 -109.5 -189.5t-162.5 -60.5q-55 0 -105 22l-102 52q-61 29 -90 28q-53 0 -105 -98h-110zM168 362q0 317 187.5 539.5t490.5 222.5q211 0 331.5 -109.5t120.5 -299.5 q0 -324 -190 -543t-496 -219q-203 0 -323.5 111.5t-120.5 297.5zM461 420q0 -109 55 -173.5t148 -64.5q96 0 167.5 56.5t106.5 139.5t51.5 154.5t16.5 122.5q0 109 -55.5 174.5t-149.5 65.5q-139 0 -239.5 -140t-100.5 -335z" />
<glyph unicode="&#xf6;" d="M582 1268l53 246h226l-54 -246h-225zM963 1268l53 246h226l-54 -246h-225zM168 362q0 317 187.5 539.5t490.5 222.5q211 0 331.5 -109.5t120.5 -299.5q0 -324 -190 -543t-496 -219q-203 0 -323.5 111.5t-120.5 297.5zM461 420q0 -109 55 -173.5t148 -64.5 q96 0 167.5 56.5t106.5 139.5t51.5 154.5t16.5 122.5q0 109 -55.5 174.5t-149.5 65.5q-139 0 -239.5 -140t-100.5 -335z" />
<glyph unicode="&#xf7;" horiz-adv-x="1196" d="M158 352l51 246h1032l-51 -246h-1032zM496 100q0 59 48 106.5t107 47.5q45 0 74 -29.5t29 -74.5q0 -57 -48.5 -103.5t-107.5 -46.5q-45 0 -73.5 28.5t-28.5 71.5zM643 793q0 59 48 106t108 47q45 0 73.5 -29.5t28.5 -74.5q0 -57 -48 -103.5t-110 -46.5q-43 0 -71.5 29 t-28.5 72z" />
<glyph unicode="&#xf8;" d="M25 4l190 160q-43 92 -43 201q0 199 80 369.5t238.5 280t363.5 109.5q231 0 354 -129l174 146l70 -84l-186 -156q37 -90 37 -196q0 -307 -190.5 -529.5t-489.5 -222.5q-219 0 -347 121l-182 -152zM465 426q0 -29 2 -51l512 428q-57 92 -170 92q-78 0 -140.5 -39 t-99.5 -94t-61.5 -124t-33.5 -121t-9 -91zM504 264q55 -82 168 -82q78 0 139 39t98 95.5t60.5 125t33 122.5t9.5 93q0 16 -2 31z" />
<glyph unicode="&#xf9;" d="M698 1550h244l92 -307h-129zM180 223q0 55 13 113l163 770h287l-143 -670q-12 -72 -13 -100q0 -154 156 -154q100 0 174 74t101 199l139 651h286l-235 -1106h-287l31 139q-82 -98 -170 -142t-203 -44q-135 0 -217 73.5t-82 196.5z" />
<glyph unicode="&#xfa;" d="M739 1245l209 307h258l-324 -307h-143zM180 223q0 55 13 113l163 770h287l-143 -670q-12 -72 -13 -100q0 -154 156 -154q100 0 174 74t101 199l139 651h286l-235 -1106h-287l31 139q-82 -98 -170 -142t-203 -44q-135 0 -217 73.5t-82 196.5z" />
<glyph unicode="&#xfb;" d="M544 1249l285 301h221l146 -301h-160l-125 199l-211 -199h-156zM180 223q0 55 13 113l163 770h287l-143 -670q-12 -72 -13 -100q0 -154 156 -154q100 0 174 74t101 199l139 651h286l-235 -1106h-287l31 139q-82 -98 -170 -142t-203 -44q-135 0 -217 73.5t-82 196.5z" />
<glyph unicode="&#xfc;" d="M582 1268l53 246h226l-54 -246h-225zM963 1268l53 246h226l-54 -246h-225zM180 223q0 55 13 113l163 770h287l-143 -670q-12 -72 -13 -100q0 -154 156 -154q100 0 174 74t101 199l139 651h286l-235 -1106h-287l31 139q-82 -98 -170 -142t-203 -44q-135 0 -217 73.5 t-82 196.5z" />
<glyph unicode="&#xfd;" horiz-adv-x="1138" d="M692 1243l209 307h258l-324 -307h-143zM76 -440l47 223q23 -4 57 -4q106 0 169 51t63 139q-27 219 -83 614l-75 523h315l74 -805l399 805h295l-733 -1307q-51 -96 -90 -135q-117 -113 -348 -113q-55 1 -90 9z" />
<glyph unicode="&#xfe;" d="M23 -446l411 1939h287l-117 -551q141 182 346 182q162 0 258.5 -114.5t96.5 -307.5q0 -309 -176.5 -529t-423.5 -220q-209 0 -273 178l-123 -577h-286zM504 414q0 -104 49 -168t131 -64q133 0 230.5 143.5t97.5 336.5q0 106 -49.5 169.5t-131.5 63.5q-131 0 -229 -144 t-98 -337z" />
<glyph unicode="&#xff;" horiz-adv-x="1138" d="M534 1272l53 246h226l-54 -246h-225zM915 1272l53 246h226l-54 -246h-225zM76 -440l47 223q23 -4 57 -4q106 0 169 51t63 139q-27 219 -83 614l-75 523h315l74 -805l399 805h295l-733 -1307q-51 -96 -90 -135q-117 -113 -348 -113q-55 1 -90 9z" />
<glyph unicode="&#x100;" horiz-adv-x="1478" d="M760 1641l35 164h614l-34 -164h-615zM53 0l834 1493h354l199 -1493h-314l-36 301h-558l-165 -301h-314zM674 557h387l-72 580z" />
<glyph unicode="&#x101;" horiz-adv-x="1138" d="M532 1315l35 164h614l-34 -164h-615zM102 221q0 31 8.5 71t36 95t70.5 102.5t121 89.5t178 58l119 18q8 2 34.5 5.5t39 5.5t38 7t38 10t33 12t31.5 17.5t22.5 25t16.5 31.5t5 38q0 88 -150 88q-98 0 -150 -35t-79 -119h-268q43 201 173 292t372 91q117 0 199.5 -23.5 t121.5 -63.5t55.5 -78.5t16.5 -81.5q0 -37 -13 -93l-129 -614q-6 -25 -6 -43q0 -43 43 -92l-8 -35h-313q-14 31 -14.5 55.5t6.5 55.5q-176 -158 -342 -158q-137 0 -221.5 73.5t-84.5 194.5zM395 285q0 -102 150 -103q104 0 175 67.5t99 194.5l17 78q-25 -14 -97 -28 l-135 -23q-100 -16 -154.5 -65t-54.5 -121z" />
<glyph unicode="&#x102;" horiz-adv-x="1478" d="M864 1818q0 35 12 80h86v-16q0 -55 40 -86t112 -31q158 0 211 133h86q-23 -127 -116 -210t-214 -83q-96 0 -156.5 59.5t-60.5 153.5zM53 0l834 1493h354l199 -1493h-314l-36 301h-558l-165 -301h-314zM674 557h387l-72 580z" />
<glyph unicode="&#x103;" horiz-adv-x="1138" d="M653 1458q0 35 12 80h86v-16q0 -55 40 -86t112 -31q158 0 211 133h86q-23 -127 -116 -210t-214 -83q-96 0 -156.5 59.5t-60.5 153.5zM102 221q0 31 8.5 71t36 95t70.5 102.5t121 89.5t178 58l119 18q8 2 34.5 5.5t39 5.5t38 7t38 10t33 12t31.5 17.5t22.5 25t16.5 31.5 t5 38q0 88 -150 88q-98 0 -150 -35t-79 -119h-268q43 201 173 292t372 91q117 0 199.5 -23.5t121.5 -63.5t55.5 -78.5t16.5 -81.5q0 -37 -13 -93l-129 -614q-6 -25 -6 -43q0 -43 43 -92l-8 -35h-313q-14 31 -14.5 55.5t6.5 55.5q-176 -158 -342 -158q-137 0 -221.5 73.5 t-84.5 194.5zM395 285q0 -102 150 -103q104 0 175 67.5t99 194.5l17 78q-25 -14 -97 -28l-135 -23q-100 -16 -154.5 -65t-54.5 -121z" />
<glyph unicode="&#x104;" horiz-adv-x="1478" d="M53 0l834 1493h354l199 -1493q-119 -49 -197 -130t-78 -157q0 -88 113 -88q80 0 147 23l-22 -107q-82 -18 -164 -18q-133 0 -205.5 42t-72.5 118q0 68 34.5 125t93 96t101.5 59.5t90 36.5h-154l-36 301h-558l-165 -301h-314zM674 557h387l-72 580z" />
<glyph unicode="&#x105;" horiz-adv-x="1138" d="M102 221q0 31 8.5 71t36 95t70.5 102.5t121 89.5t178 58l119 18q8 2 34.5 5.5t39 5.5t38 7t38 10t33 12t31.5 17.5t22.5 25t16.5 31.5t5 38q0 88 -150 88q-98 0 -150 -35t-79 -119h-268q43 201 173 292t372 91q117 0 199.5 -23.5t121.5 -63.5t55.5 -78.5t16.5 -81.5 q0 -37 -13 -93l-129 -614q-6 -25 -6 -43q0 -43 43 -92l-8 -35q-268 -143 -268 -287q0 -88 104 -88q88 0 156 23l-21 -107q-84 -18 -165 -18q-276 0 -277 162q0 195 320 315h-162q-14 31 -14.5 55.5t6.5 55.5q-176 -158 -342 -158q-137 0 -221.5 73.5t-84.5 194.5zM395 285 q0 -102 150 -103q104 0 175 67.5t99 194.5l17 78q-25 -14 -97 -28l-135 -23q-100 -16 -154.5 -65t-54.5 -121z" />
<glyph unicode="&#x106;" horiz-adv-x="1478" d="M985 1612l209 307h258l-324 -307h-143zM219 481q0 285 112.5 522.5t313.5 376t447 138.5q238 0 385 -119t147 -309q0 -27 -8 -103h-289q0 268 -270 268q-109 0 -197 -42t-143 -111.5t-95 -148.5t-60.5 -163.5t-29 -145t-8.5 -103.5q0 -326 301 -326q147 0 252 77t150 218 h293q-68 -262 -262.5 -409.5t-475.5 -147.5q-262 0 -412.5 141t-150.5 387z" />
<glyph unicode="&#x107;" horiz-adv-x="1138" d="M158 352q0 145 58 307t149 271q160 195 450 194q186 0 297 -98t111 -246q0 -23 -9 -88h-274q-2 102 -32.5 152.5t-135.5 50.5q-164 0 -246 -174q-76 -152 -75 -328q0 -211 182 -211q84 0 139 46t102 155h275q-63 -205 -207.5 -317.5t-343.5 -112.5q-125 0 -216 39 t-137 102.5t-66.5 126.5t-20.5 131zM737 1245l209 307h258l-324 -307h-143z" />
<glyph unicode="&#x108;" horiz-adv-x="1478" d="M790 1626l285 301h221l146 -301h-160l-125 199l-211 -199h-156zM219 481q0 285 112.5 522.5t313.5 376t447 138.5q238 0 385 -119t147 -309q0 -27 -8 -103h-289q0 268 -270 268q-109 0 -197 -42t-143 -111.5t-95 -148.5t-60.5 -163.5t-29 -145t-8.5 -103.5 q0 -326 301 -326q147 0 252 77t150 218h293q-68 -262 -262.5 -409.5t-475.5 -147.5q-262 0 -412.5 141t-150.5 387z" />
<glyph unicode="&#x109;" horiz-adv-x="1138" d="M528 1310l285 301h221l146 -301h-160l-125 199l-211 -199h-156zM158 352q0 145 58 307t149 271q160 195 450 194q186 0 297 -98t111 -246q0 -23 -9 -88h-274q-2 102 -32.5 152.5t-135.5 50.5q-164 0 -246 -174q-76 -152 -75 -328q0 -211 182 -211q84 0 139 46t102 155 h275q-63 -205 -207.5 -317.5t-343.5 -112.5q-125 0 -216 39t-137 102.5t-66.5 126.5t-20.5 131z" />
<glyph unicode="&#x10a;" horiz-adv-x="1478" d="M1012 1643l53 246h225l-53 -246h-225zM219 481q0 285 112.5 522.5t313.5 376t447 138.5q238 0 385 -119t147 -309q0 -27 -8 -103h-289q0 268 -270 268q-109 0 -197 -42t-143 -111.5t-95 -148.5t-60.5 -163.5t-29 -145t-8.5 -103.5q0 -326 301 -326q147 0 252 77t150 218 h293q-68 -262 -262.5 -409.5t-475.5 -147.5q-262 0 -412.5 141t-150.5 387z" />
<glyph unicode="&#x10b;" horiz-adv-x="1138" d="M742 1311l53 246h225l-53 -246h-225zM158 352q0 145 58 307t149 271q160 195 450 194q186 0 297 -98t111 -246q0 -23 -9 -88h-274q-2 102 -32.5 152.5t-135.5 50.5q-164 0 -246 -174q-76 -152 -75 -328q0 -211 182 -211q84 0 139 46t102 155h275q-63 -205 -207.5 -317.5 t-343.5 -112.5q-125 0 -216 39t-137 102.5t-66.5 126.5t-20.5 131z" />
<glyph unicode="&#x10c;" horiz-adv-x="1478" d="M219 481q0 285 112.5 522.5t313.5 376t447 138.5q238 0 385 -119t147 -309q0 -27 -8 -103h-289q0 268 -270 268q-109 0 -197 -42t-143 -111.5t-95 -148.5t-60.5 -163.5t-29 -145t-8.5 -103.5q0 -326 301 -326q147 0 252 77t150 218h293q-68 -262 -262.5 -409.5 t-475.5 -147.5q-262 0 -412.5 141t-150.5 387zM870 1906h160l125 -198l211 198h155l-284 -301h-222z" />
<glyph unicode="&#x10d;" horiz-adv-x="1138" d="M571 1550h160l125 -198l211 198h155l-284 -301h-222zM158 352q0 145 58 307t149 271q160 195 450 194q186 0 297 -98t111 -246q0 -23 -9 -88h-274q-2 102 -32.5 152.5t-135.5 50.5q-164 0 -246 -174q-76 -152 -75 -328q0 -211 182 -211q84 0 139 46t102 155h275 q-63 -205 -207.5 -317.5t-343.5 -112.5q-125 0 -216 39t-137 102.5t-66.5 126.5t-20.5 131z" />
<glyph unicode="&#x10e;" horiz-adv-x="1478" d="M158 0l317 1493h584q279 0 404.5 -122t125.5 -390q0 -59 -8 -130t-31.5 -168t-61.5 -188.5t-104.5 -182.5t-152.5 -159.5t-212 -110.5t-278 -42h-583zM520 256h275q123 0 217 59.5t143 141.5t81 188.5t40 180t8 135.5q0 276 -280 276h-277zM764 1906h160l125 -198 l211 198h155l-284 -301h-222z" />
<glyph unicode="&#x10f;" horiz-adv-x="1478" d="M162 379q0 266 160 498q80 115 197.5 181t242.5 66q203 0 272 -161l113 530h287l-318 -1493h-287l25 113q-139 -160 -340 -160q-160 0 -256 116.5t-96 309.5zM455 422q0 -111 48 -175.5t130 -64.5q131 0 228 143.5t97 336.5q0 106 -48 169.5t-132 63.5 q-127 0 -225 -143.5t-98 -329.5zM1460 995l20 94q68 12 117 62.5t58 120.5h-138l49 229h250l-43 -197q-16 -121 -106 -211t-207 -98z" />
<glyph unicode="&#x110;" horiz-adv-x="1478" d="M150 698l34 164h156l135 631h584q279 0 404.5 -122t125.5 -390q0 -377 -229 -694q-113 -156 -254 -221.5t-365 -65.5h-583l149 698h-157zM520 256h275q133 0 217 48t149 163q53 90 88 231.5t35 262.5q0 276 -280 276h-277l-80 -375h357l-35 -164h-355z" />
<glyph unicode="&#x111;" d="M162 379q0 266 160 498q82 115 198.5 181t241.5 66q203 0 272 -161l56 258h-287l28 137h287l29 135h287l-29 -135h123l-29 -137h-123l-260 -1221h-287l25 113q-139 -160 -340 -160q-160 0 -256 116.5t-96 309.5zM455 422q0 -111 48 -175.5t130 -64.5q131 0 228 143.5 t97 336.5q0 106 -49 169.5t-131 63.5q-127 0 -225 -143.5t-98 -329.5z" />
<glyph unicode="&#x112;" horiz-adv-x="1366" d="M162 0l317 1493h1082l-56 -256h-774l-72 -338h715l-53 -256h-715l-82 -387h809l-55 -256h-1116zM758 1641l35 164h614l-34 -164h-615z" />
<glyph unicode="&#x113;" horiz-adv-x="1138" d="M538 1315l35 164h614l-34 -164h-615zM131 379q0 49 10.5 112.5t35 152.5t72.5 170t115.5 152.5t174 114.5t237.5 43q195 0 314.5 -112.5t119.5 -292.5q0 -117 -36 -256h-744q-6 -57 -6 -92q0 -84 53 -136.5t141 -52.5q74 0 136.5 35t93.5 94h282q-84 -170 -232 -264 t-335 -94q-193 0 -312.5 118t-119.5 308zM467 653h451v31q0 211 -177 211q-206 0 -274 -242z" />
<glyph unicode="&#x114;" horiz-adv-x="1366" d="M864 1818q0 35 12 80h86v-16q0 -55 40 -86t112 -31q158 0 211 133h86q-23 -127 -116 -210t-214 -83q-96 0 -156.5 59.5t-60.5 153.5zM162 0l317 1493h1082l-56 -256h-774l-72 -338h715l-53 -256h-715l-82 -387h809l-55 -256h-1116z" />
<glyph unicode="&#x115;" horiz-adv-x="1138" d="M612 1458q0 35 12 80h86v-16q0 -55 40 -86t112 -31q158 0 211 133h86q-23 -127 -116 -210t-214 -83q-96 0 -156.5 59.5t-60.5 153.5zM131 379q0 49 10.5 112.5t35 152.5t72.5 170t115.5 152.5t174 114.5t237.5 43q195 0 314.5 -112.5t119.5 -292.5q0 -117 -36 -256h-744 q-6 -57 -6 -92q0 -84 53 -136.5t141 -52.5q74 0 136.5 35t93.5 94h282q-84 -170 -232 -264t-335 -94q-193 0 -312.5 118t-119.5 308zM467 653h451v31q0 211 -177 211q-206 0 -274 -242z" />
<glyph unicode="&#x116;" horiz-adv-x="1366" d="M957 1643l53 246h225l-53 -246h-225zM162 0l317 1493h1082l-56 -256h-774l-72 -338h715l-53 -256h-715l-82 -387h809l-55 -256h-1116z" />
<glyph unicode="&#x117;" horiz-adv-x="1138" d="M678 1288l53 246h225l-53 -246h-225zM131 379q0 49 10.5 112.5t35 152.5t72.5 170t115.5 152.5t174 114.5t237.5 43q195 0 314.5 -112.5t119.5 -292.5q0 -117 -36 -256h-744q-6 -57 -6 -92q0 -84 53 -136.5t141 -52.5q74 0 136.5 35t93.5 94h282q-84 -170 -232 -264 t-335 -94q-193 0 -312.5 118t-119.5 308zM467 653h451v31q0 211 -177 211q-206 0 -274 -242z" />
<glyph unicode="&#x118;" horiz-adv-x="1366" d="M162 0l317 1493h1082l-56 -256h-774l-72 -338h715l-53 -256h-715l-82 -387h809l-55 -256q-139 -78 -201.5 -147.5t-62.5 -145.5q0 -82 110 -82q82 0 150 23l-23 -107q-82 -18 -164 -18q-133 0 -205.5 41t-72.5 117q0 94 80 180t239 139h-966z" />
<glyph unicode="&#x119;" horiz-adv-x="1138" d="M131 377q0 49 10.5 113.5t35 152.5t72.5 170t115.5 153.5t174 114.5t237.5 43q195 0 314.5 -112.5t119.5 -292.5q0 -117 -36 -256h-744q-6 -57 -6 -92q0 -84 53 -136.5t141 -52.5q74 0 136.5 35t93.5 94h282q-43 -90 -127.5 -178t-158.5 -145.5t-130.5 -130t-56.5 -144.5 q0 -88 105 -88q82 0 145 23l-22 -107q-94 -18 -156 -18q-131 0 -202.5 44t-71.5 122t49 137t182 139q-78 -14 -121 -14q-193 0 -313.5 119t-120.5 307zM467 653h451v31q0 211 -177 211q-206 0 -274 -242z" />
<glyph unicode="&#x11a;" horiz-adv-x="1366" d="M162 0l317 1493h1082l-56 -256h-774l-72 -338h715l-53 -256h-715l-82 -387h809l-55 -256h-1116zM786 1906h160l125 -198l211 198h155l-284 -301h-222z" />
<glyph unicode="&#x11b;" horiz-adv-x="1138" d="M571 1550h160l125 -198l211 198h155l-284 -301h-222zM131 379q0 49 10.5 112.5t35 152.5t72.5 170t115.5 152.5t174 114.5t237.5 43q195 0 314.5 -112.5t119.5 -292.5q0 -117 -36 -256h-744q-6 -57 -6 -92q0 -84 53 -136.5t141 -52.5q74 0 136.5 35t93.5 94h282 q-84 -170 -232 -264t-335 -94q-193 0 -312.5 118t-119.5 308zM467 653h451v31q0 211 -177 211q-206 0 -274 -242z" />
<glyph unicode="&#x11c;" horiz-adv-x="1593" d="M804 1622l285 301h221l146 -301h-160l-125 199l-211 -199h-156zM219 537q0 178 68.5 361t189.5 323q256 297 643 297q250 0 403.5 -120t153.5 -315q0 -10 -4 -67h-282q-12 115 -97.5 177t-230.5 62q-262 0 -412 -229q-55 -84 -91 -210t-36 -234q0 -158 99.5 -262.5 t248.5 -104.5q98 0 181.5 36t135.5 93t81.5 107.5t44.5 95.5h-340l55 256h598l-172 -807h-184l14 184q-115 -121 -224.5 -174t-252.5 -53q-270 0 -430 158t-160 426z" />
<glyph unicode="&#x11d;" d="M550 1310l285 301h221l146 -301h-160l-125 199l-211 -199h-156zM53 -197q0 27 6 64h295l-2 -25q0 -45 50.5 -74.5t125.5 -29.5q113 0 195 62.5t104 162.5l33 150q-98 -90 -172 -125t-168 -35q-156 0 -257 110.5t-101 278.5q0 150 53 305.5t141 263.5q172 213 418 213 q178 0 260 -188l37 170h272l-243 -1143q-41 -197 -202 -303t-417 -106q-231 0 -329.5 74.5t-98.5 174.5zM455 412q0 -106 46 -168t126 -62q137 0 237.5 138.5t100.5 324.5q0 115 -51.5 182.5t-137.5 67.5q-125 0 -223 -147.5t-98 -335.5z" />
<glyph unicode="&#x11e;" horiz-adv-x="1593" d="M219 537q0 178 68.5 361t189.5 323q256 297 643 297q250 0 403.5 -120t153.5 -315q0 -10 -4 -67h-282q-12 115 -97.5 177t-230.5 62q-262 0 -412 -229q-55 -84 -91 -210t-36 -234q0 -158 99.5 -262.5t248.5 -104.5q98 0 181.5 36t135.5 93t81.5 107.5t44.5 95.5h-340 l55 256h598l-172 -807h-184l14 184q-115 -121 -224.5 -174t-252.5 -53q-270 0 -430 158t-160 426zM946 1818q0 35 12 80h86v-16q0 -55 40 -86t112 -31q158 0 211 133h86q-23 -127 -116 -210t-214 -83q-96 0 -156.5 59.5t-60.5 153.5z" />
<glyph unicode="&#x11f;" d="M53 -197q0 27 6 64h295l-2 -25q0 -45 50.5 -74.5t125.5 -29.5q113 0 195 62.5t104 162.5l33 150q-98 -90 -172 -125t-168 -35q-156 0 -257 110.5t-101 278.5q0 150 53 305.5t141 263.5q172 213 418 213q178 0 260 -188l37 170h272l-243 -1143q-41 -197 -202 -303 t-417 -106q-231 0 -329.5 74.5t-98.5 174.5zM455 412q0 -106 46 -168t126 -62q137 0 237.5 138.5t100.5 324.5q0 115 -51.5 182.5t-137.5 67.5q-125 0 -223 -147.5t-98 -335.5zM653 1458q0 35 12 80h86v-16q0 -55 40 -86t112 -31q158 0 211 133h86q-23 -127 -116 -210 t-214 -83q-96 0 -156.5 59.5t-60.5 153.5z" />
<glyph unicode="&#x120;" horiz-adv-x="1593" d="M1024 1643l53 246h225l-53 -246h-225zM219 537q0 178 68.5 361t189.5 323q256 297 643 297q250 0 403.5 -120t153.5 -315q0 -10 -4 -67h-282q-12 115 -97.5 177t-230.5 62q-262 0 -412 -229q-55 -84 -91 -210t-36 -234q0 -158 99.5 -262.5t248.5 -104.5q98 0 181.5 36 t135.5 93t81.5 107.5t44.5 95.5h-340l55 256h598l-172 -807h-184l14 184q-115 -121 -224.5 -174t-252.5 -53q-270 0 -430 158t-160 426z" />
<glyph unicode="&#x121;" d="M764 1311l53 246h225l-53 -246h-225zM53 -197q0 27 6 64h295l-2 -25q0 -45 50.5 -74.5t125.5 -29.5q113 0 195 62.5t104 162.5l33 150q-98 -90 -172 -125t-168 -35q-156 0 -257 110.5t-101 278.5q0 150 53 305.5t141 263.5q172 213 418 213q178 0 260 -188l37 170h272 l-243 -1143q-41 -197 -202 -303t-417 -106q-231 0 -329.5 74.5t-98.5 174.5zM455 412q0 -106 46 -168t126 -62q137 0 237.5 138.5t100.5 324.5q0 115 -51.5 182.5t-137.5 67.5q-125 0 -223 -147.5t-98 -335.5z" />
<glyph unicode="&#x122;" horiz-adv-x="1593" d="M555 -614l21 94q68 12 117 62t57 120h-137l49 229h250l-43 -196q-16 -121 -106.5 -211t-207.5 -98zM219 537q0 178 68.5 361t189.5 323q256 297 643 297q250 0 403.5 -120t153.5 -315q0 -10 -4 -67h-282q-12 115 -97.5 177t-230.5 62q-262 0 -412 -229q-55 -84 -91 -210 t-36 -234q0 -158 99.5 -262.5t248.5 -104.5q98 0 181.5 36t135.5 93t81.5 107.5t44.5 95.5h-340l55 256h598l-172 -807h-184l14 184q-115 -121 -224.5 -174t-252.5 -53q-270 0 -430 158t-160 426z" />
<glyph unicode="&#x123;" d="M53 -197q0 27 6 64h295l-2 -25q0 -45 50.5 -74.5t125.5 -29.5q113 0 195 62.5t104 162.5l33 150q-98 -90 -172 -125t-168 -35q-156 0 -257 110.5t-101 278.5q0 150 53 305.5t141 263.5q172 213 418 213q178 0 260 -188l37 170h272l-243 -1143q-41 -197 -202 -303 t-417 -106q-231 0 -329.5 74.5t-98.5 174.5zM455 412q0 -106 46 -168t126 -62q137 0 237.5 138.5t100.5 324.5q0 115 -51.5 182.5t-137.5 67.5q-125 0 -223 -147.5t-98 -335.5zM1069 1706l-21 -94q-68 -12 -117 -62t-57 -120h137l-49 -229h-250l43 196q16 121 106.5 211 t207.5 98z" />
<glyph unicode="&#x124;" horiz-adv-x="1478" d="M759 1640l285 301h221l146 -301h-160l-125 199l-211 -199h-156zM139 0l318 1493h307l-119 -559h590l119 559h309l-317 -1493h-308l144 678h-592l-144 -678h-307z" />
<glyph unicode="&#x125;" d="M608 1607l285 301h221l146 -301h-160l-125 199l-211 -199h-156zM137 0l318 1493h286l-118 -555q158 186 368 186q133 0 215 -74.5t82 -195.5q0 -55 -12 -113l-158 -741h-287l138 641q12 63 12 98q0 156 -150 156q-98 0 -172.5 -73.5t-101.5 -198.5l-133 -623h-287z" />
<glyph unicode="&#x126;" horiz-adv-x="1478" d="M-18 0l231 1090h-123l29 137h123l55 266h307l-55 -266h590l55 266h309l-55 -266h123l-29 -137h-123l-231 -1090h-307l143 678h-592l-143 -678h-307zM485 934h590l35 156h-590z" />
<glyph unicode="&#x127;" d="M-20 0l258 1221h-121l28 137h121l29 135h287l-29 -135h274l-28 -137h-275l-57 -275q154 178 360 178q115 0 204 -60t89 -202q0 -57 -14 -121l-156 -741h-286l143 676q10 55 10 76q0 61 -40 95t-103 34q-96 0 -171 -60.5t-97 -156.5l-140 -664h-286z" />
<glyph unicode="&#x128;" horiz-adv-x="569" d="M269 1640q35 115 99 177.5t148 62.5q66 0 146 -35l102 -43q43 -20 68 -21q68 0 110 105h111q-37 -129 -109.5 -189.5t-162.5 -60.5q-55 0 -105 22l-102 52q-61 29 -90 28q-53 0 -105 -98h-110zM129 0l317 1493h308l-318 -1493h-307z" />
<glyph unicode="&#x129;" horiz-adv-x="569" d="M195 1315q35 115 99 177.5t148 62.5q66 0 146 -35l102 -43q43 -20 68 -21q68 0 110 105h111q-37 -129 -109.5 -189.5t-162.5 -60.5q-55 0 -105 22l-102 52q-61 29 -90 28q-53 0 -105 -98h-110zM137 0l236 1106h286l-235 -1106h-287z" />
<glyph unicode="&#x12a;" horiz-adv-x="569" d="M325 1641l35 164h614l-34 -164h-615zM129 0l317 1493h308l-318 -1493h-307z" />
<glyph unicode="&#x12b;" horiz-adv-x="569" d="M137 0l236 1106h286l-235 -1106h-287zM256 1315l35 164h614l-34 -164h-615z" />
<glyph unicode="&#x12c;" horiz-adv-x="569" d="M422 1849q0 35 12 80h86v-16q0 -55 40 -86t112 -31q158 0 211 133h86q-23 -127 -116 -210t-214 -83q-96 0 -156.5 59.5t-60.5 153.5zM129 0l317 1493h308l-318 -1493h-307z" />
<glyph unicode="&#x12d;" horiz-adv-x="569" d="M342 1523q0 35 12 80h86v-16q0 -55 40 -86t112 -31q158 0 211 133h86q-23 -127 -116 -210t-214 -83q-96 0 -156.5 59.5t-60.5 153.5zM137 0l236 1106h286l-235 -1106h-287z" />
<glyph unicode="&#x12e;" horiz-adv-x="569" d="M14 -317q0 168 271 317h-156l317 1493h308l-318 -1493q-92 -49 -157.5 -133t-65.5 -152q0 -90 94 -90q55 0 123 23l-22 -107q-90 -18 -146 -18q-115 0 -181.5 42t-66.5 118z" />
<glyph unicode="&#x12f;" horiz-adv-x="548" d="M0 -307q0 80 60.5 150.5t203.5 156.5h-149l235 1106h287l-236 -1106q-205 -143 -204 -287q0 -86 96 -86q35 0 102 21l-22 -107q-84 -18 -129 -18q-115 0 -179.5 45t-64.5 125zM379 1237l53 256h287l-53 -256h-287z" />
<glyph unicode="&#x130;" horiz-adv-x="569" d="M529 1643l53 246h225l-53 -246h-225zM129 0l317 1493h308l-318 -1493h-307z" />
<glyph unicode="&#x131;" horiz-adv-x="569" d="M137 0l236 1106h286l-235 -1106h-287z" />
<glyph unicode="&#x132;" horiz-adv-x="1630" d="M613 272q0 70 14 134l31 147h307l-33 -158q-8 -35 -8 -69q0 -49 38 -80t97 -31q164 0 203 174l236 1104h307l-236 -1104q-51 -242 -205 -342q-145 -94 -366 -94q-180 0 -282.5 84.5t-102.5 234.5zM129 0l317 1493h308l-318 -1493h-307z" />
<glyph unicode="&#x133;" horiz-adv-x="997" d="M342 -436l49 227q10 -8 51 -8q47 0 70.5 20.5t34.5 69.5l262 1233h287l-277 -1299q-29 -133 -120 -193t-265 -60q-57 0 -92 10zM836 1237l55 256h287l-56 -256h-286zM137 0l236 1106h286l-235 -1106h-287zM399 1237l56 256h286l-55 -256h-287z" />
<glyph unicode="&#x134;" horiz-adv-x="1138" d="M557 1640l285 301h221l146 -301h-160l-125 199l-211 -199h-156zM121 272q0 70 14 134l31 147h307l-33 -158q-8 -35 -8 -69q0 -49 38 -80t97 -31q164 0 203 174l236 1104h307l-236 -1104q-51 -242 -205 -342q-145 -94 -366 -94q-180 0 -282.5 84.5t-102.5 234.5z" />
<glyph unicode="&#x135;" horiz-adv-x="569" d="M227 1247l285 301h221l146 -301h-160l-125 199l-211 -199h-156zM-88 -436l49 227q10 -8 51 -8q47 0 70.5 20.5t34.5 69.5l262 1233h287l-277 -1299q-29 -133 -120 -193t-265 -60q-57 0 -92 10z" />
<glyph unicode="&#x136;" horiz-adv-x="1478" d="M516 -614l21 94q68 12 117 62t57 120h-137l49 229h250l-43 -196q-16 -121 -106.5 -211t-207.5 -98zM152 0l317 1493h307l-139 -655l725 655h364l-739 -653l481 -840h-366l-354 643l-187 -164l-102 -479h-307z" />
<glyph unicode="&#x137;" horiz-adv-x="1138" d="M331 -614l21 94q68 12 117 62t57 120h-137l49 229h250l-43 -196q-16 -121 -106.5 -211t-207.5 -98zM121 0l317 1493h287l-174 -817l457 430h325l-475 -422l264 -684h-336l-161 489l-140 -127l-77 -362h-287z" />
<glyph unicode="&#x138;" horiz-adv-x="1083" d="M121 0l235 1106h287l-82 -387l414 387h303l-545 -500l389 -606h-372l-256 406l-86 -406h-287z" />
<glyph unicode="&#x139;" d="M692 1612l209 307h258l-324 -307h-143zM164 0l317 1493h307l-262 -1237h715l-55 -256h-1022z" />
<glyph unicode="&#x13a;" horiz-adv-x="569" d="M137 0l318 1493h286l-317 -1493h-287zM477 1612l209 307h258l-324 -307h-143z" />
<glyph unicode="&#x13b;" d="M430 -614l21 94q68 12 117 62t57 120h-137l49 229h250l-43 -196q-16 -121 -106.5 -211t-207.5 -98zM164 0l317 1493h307l-262 -1237h715l-55 -256h-1022z" />
<glyph unicode="&#x13c;" horiz-adv-x="569" d="M18 -614l21 94q68 12 117 62t57 120h-137l49 229h250l-43 -196q-16 -121 -106.5 -211t-207.5 -98zM137 0l318 1493h286l-317 -1493h-287z" />
<glyph unicode="&#x13d;" d="M164 0l317 1493h307l-262 -1237h715l-55 -256h-1022zM997 989l20 94q68 12 117 62.5t58 120.5h-138l49 229h250l-43 -197q-16 -121 -106 -211t-207 -98z" />
<glyph unicode="&#x13e;" horiz-adv-x="786" d="M137 0l318 1493h286l-317 -1493h-287zM797 989l20 94q68 12 117 62.5t58 120.5h-138l49 229h250l-43 -197q-16 -121 -106 -211t-207 -98z" />
<glyph unicode="&#x13f;" d="M873 643l45 205h215l-45 -205h-215zM164 0l317 1493h307l-262 -1237h715l-55 -256h-1022z" />
<glyph unicode="&#x140;" horiz-adv-x="1138" d="M801 602l45 205h215l-45 -205h-215zM137 0l318 1493h286l-317 -1493h-287z" />
<glyph unicode="&#x141;" d="M111 412l41 192l204 125l162 764h307l-133 -631l383 225l-41 -192l-383 -225l-88 -414h715l-55 -256h-1022l114 537z" />
<glyph unicode="&#x142;" horiz-adv-x="569" d="M102 504l35 170l156 96l156 723h286l-129 -602l156 92l-35 -168l-156 -92l-153 -723h-287l127 602z" />
<glyph unicode="&#x143;" horiz-adv-x="1478" d="M989 1612l209 307h258l-324 -307h-143zM139 0l318 1493h307l393 -1055l223 1055h291l-317 -1493h-303l-394 1071l-227 -1071h-291z" />
<glyph unicode="&#x144;" d="M129 0l236 1106h286l-37 -168q82 98 170 142t203 44q137 0 219 -73.5t82 -196.5q0 -55 -12 -113l-158 -741h-287l138 641q12 68 12 100q0 154 -152 154q-102 0 -176.5 -72.5t-103.5 -199.5l-133 -623h-287zM762 1231l209 307h258l-324 -307h-143z" />
<glyph unicode="&#x145;" horiz-adv-x="1478" d="M555 -614l21 94q68 12 117 62t57 120h-137l49 229h250l-43 -196q-16 -121 -106.5 -211t-207.5 -98zM139 0l318 1493h307l393 -1055l223 1055h291l-317 -1493h-303l-394 1071l-227 -1071h-291z" />
<glyph unicode="&#x146;" d="M348 -614l21 94q68 12 117 62t57 120h-137l49 229h250l-43 -196q-16 -121 -106.5 -211t-207.5 -98zM129 0l236 1106h286l-37 -168q82 98 170 142t203 44q137 0 219 -73.5t82 -196.5q0 -55 -12 -113l-158 -741h-287l138 641q12 68 12 100q0 154 -152 154 q-102 0 -176.5 -72.5t-103.5 -199.5l-133 -623h-287z" />
<glyph unicode="&#x147;" horiz-adv-x="1478" d="M827 1906h160l125 -198l211 198h155l-284 -301h-222zM139 0l318 1493h307l393 -1055l223 1055h291l-317 -1493h-303l-394 1071l-227 -1071h-291z" />
<glyph unicode="&#x148;" d="M129 0l236 1106h286l-37 -168q82 98 170 142t203 44q137 0 219 -73.5t82 -196.5q0 -55 -12 -113l-158 -741h-287l138 641q12 68 12 100q0 154 -152 154q-102 0 -176.5 -72.5t-103.5 -199.5l-133 -623h-287zM571 1550h160l125 -198l211 198h155l-284 -301h-222z" />
<glyph unicode="&#x149;" d="M190 1112l20 94q68 12 117 62.5t58 120.5h-138l49 229h250l-43 -197q-16 -121 -106 -211t-207 -98zM129 0l236 1106h286l-37 -168q82 98 170 142t203 44q137 0 219 -73.5t82 -196.5q0 -55 -12 -113l-158 -741h-287l138 641q12 68 12 100q0 154 -152 154 q-102 0 -176.5 -72.5t-103.5 -199.5l-133 -623h-287z" />
<glyph unicode="&#x14a;" horiz-adv-x="1478" d="M139 0l318 1493h307l393 -1055l223 1055h291l-358 -1686q-29 -133 -120 -193t-265 -60q-55 0 -92 10l49 227q10 -8 51 -8q47 0 70.5 20.5t33.5 69.5l27 127h-16l-394 1071l-227 -1071h-291z" />
<glyph unicode="&#x14b;" d="M129 0l236 1106h286l-37 -168q82 98 170 142t203 44q137 0 219 -73.5t82 -196.5q0 -55 -12 -113l-201 -934q-29 -133 -120 -193t-265 -60q-55 0 -92 10l49 227q10 -8 51 -8q47 0 71 20.5t34 69.5l166 768q12 68 12 100q0 154 -152 154q-102 0 -176.5 -72.5t-103.5 -199.5 l-133 -623h-287z" />
<glyph unicode="&#x14c;" horiz-adv-x="1593" d="M815 1641l35 164h614l-34 -164h-615zM217 535q0 176 68.5 358t187.5 324q250 301 629 301q281 0 437.5 -155t156.5 -431q0 -182 -66.5 -360.5t-185.5 -317.5q-131 -156 -284.5 -228.5t-350.5 -72.5q-274 0 -433 157t-159 425zM522 578q0 -168 90 -265.5t246 -97.5 q106 0 194.5 40t143.5 106.5t96 142.5t60.5 155.5t29 137t9.5 98.5q0 170 -87 265t-241 95q-106 0 -195.5 -39.5t-145.5 -105.5t-97 -140.5t-62.5 -154.5t-31 -138t-9.5 -99z" />
<glyph unicode="&#x14d;" d="M569 1315l35 164h614l-34 -164h-615zM168 362q0 317 187.5 539.5t490.5 222.5q211 0 331.5 -109.5t120.5 -299.5q0 -324 -190 -543t-496 -219q-203 0 -323.5 111.5t-120.5 297.5zM461 420q0 -109 55 -173.5t148 -64.5q96 0 167.5 56.5t106.5 139.5t51.5 154.5t16.5 122.5 q0 109 -55.5 174.5t-149.5 65.5q-139 0 -239.5 -140t-100.5 -335z" />
<glyph unicode="&#x14e;" horiz-adv-x="1593" d="M938 1851q0 35 12 80h86v-16q0 -55 40 -86t112 -31q158 0 211 133h86q-23 -127 -116 -210t-214 -83q-96 0 -156.5 59.5t-60.5 153.5zM217 535q0 176 68.5 358t187.5 324q250 301 629 301q281 0 437.5 -155t156.5 -431q0 -182 -66.5 -360.5t-185.5 -317.5 q-131 -156 -284.5 -228.5t-350.5 -72.5q-274 0 -433 157t-159 425zM522 578q0 -168 90 -265.5t246 -97.5q106 0 194.5 40t143.5 106.5t96 142.5t60.5 155.5t29 137t9.5 98.5q0 170 -87 265t-241 95q-106 0 -195.5 -39.5t-145.5 -105.5t-97 -140.5t-62.5 -154.5t-31 -138 t-9.5 -99z" />
<glyph unicode="&#x14f;" d="M653 1458q0 35 12 80h86v-16q0 -55 40 -86t112 -31q158 0 211 133h86q-23 -127 -116 -210t-214 -83q-96 0 -156.5 59.5t-60.5 153.5zM168 362q0 317 187.5 539.5t490.5 222.5q211 0 331.5 -109.5t120.5 -299.5q0 -324 -190 -543t-496 -219q-203 0 -323.5 111.5 t-120.5 297.5zM461 420q0 -109 55 -173.5t148 -64.5q96 0 167.5 56.5t106.5 139.5t51.5 154.5t16.5 122.5q0 109 -55.5 174.5t-149.5 65.5q-139 0 -239.5 -140t-100.5 -335z" />
<glyph unicode="&#x150;" horiz-adv-x="1593" d="M823 1581l209 301h258l-324 -301h-143zM1208 1581l209 301h258l-324 -301h-143zM217 535q0 176 68.5 358t187.5 324q250 301 629 301q281 0 437.5 -155t156.5 -431q0 -182 -66.5 -360.5t-185.5 -317.5q-131 -156 -284.5 -228.5t-350.5 -72.5q-274 0 -433 157t-159 425z M522 578q0 -168 90 -265.5t246 -97.5q106 0 194.5 40t143.5 106.5t96 142.5t60.5 155.5t29 137t9.5 98.5q0 170 -87 265t-241 95q-106 0 -195.5 -39.5t-145.5 -105.5t-97 -140.5t-62.5 -154.5t-31 -138t-9.5 -99z" />
<glyph unicode="&#x151;" d="M588 1249l209 301h258l-324 -301h-143zM973 1249l209 301h258l-324 -301h-143zM168 362q0 317 187.5 539.5t490.5 222.5q211 0 331.5 -109.5t120.5 -299.5q0 -324 -190 -543t-496 -219q-203 0 -323.5 111.5t-120.5 297.5zM461 420q0 -109 55 -173.5t148 -64.5 q96 0 167.5 56.5t106.5 139.5t51.5 154.5t16.5 122.5q0 109 -55.5 174.5t-149.5 65.5q-139 0 -239.5 -140t-100.5 -335z" />
<glyph unicode="&#x152;" horiz-adv-x="2048" d="M184 502q0 203 79 413.5t208 352.5q225 250 516 250q100 0 168 -30t125 -102l23 107h964l-55 -256h-668l-71 -338h610l-55 -256h-611l-82 -387h707l-53 -256h-1004l25 121q-86 -92 -163 -130t-179 -38q-217 0 -350.5 150.5t-133.5 398.5zM489 561q0 -164 78 -255t217 -91 q154 0 267 150l157 741q-55 150 -221 149q-113 0 -204 -57t-144 -139t-88 -182.5t-48.5 -179.5t-13.5 -136z" />
<glyph unicode="&#x153;" horiz-adv-x="1933" d="M145 360q0 311 188.5 537.5t491.5 226.5q121 0 218.5 -38.5t150.5 -108.5q152 147 399 147q195 0 310.5 -115.5t115.5 -289.5q0 -117 -37 -256h-741q-14 -61 -14 -107q0 -78 54 -126t142 -48q76 0 139.5 35t94.5 94h282q-82 -164 -237.5 -261t-337.5 -97q-113 0 -207 41 t-137 108q-170 -150 -430 -149q-207 0 -326 109.5t-119 297.5zM438 420q0 -109 55.5 -173.5t147.5 -64.5q96 0 168 56.5t106.5 139.5t51 154.5t16.5 122.5q0 109 -55.5 174.5t-149.5 65.5q-139 0 -239.5 -140t-100.5 -335zM1284 653h442v58q0 88 -46 136t-128 48 q-202 0 -268 -242z" />
<glyph unicode="&#x154;" horiz-adv-x="1478" d="M893 1612l209 307h258l-324 -307h-143zM164 0l317 1493h772q100 0 174 -31.5t111 -81t53.5 -98.5t16.5 -96q0 -84 -28 -158t-62.5 -120t-91 -89t-86 -59.5t-74.5 -38.5q160 -53 159 -168q0 -70 -31.5 -231.5t-31.5 -196.5q0 -41 37 -70l-13 -55h-325q-16 51 -17 84 q0 70 39 217.5t39 177.5q0 113 -174 113h-352l-125 -592h-307zM651 848h371q82 0 140.5 25.5t87 66.5t41 79t12.5 75q0 143 -226 143h-344z" />
<glyph unicode="&#x155;" horiz-adv-x="796" d="M588 1235l209 307h258l-324 -307h-143zM129 0l236 1106h286l-47 -217q72 113 166 174t193 61q18 0 34 -2l-61 -291q-49 8 -88 9q-254 0 -307 -252l-125 -588h-287z" />
<glyph unicode="&#x156;" horiz-adv-x="1478" d="M516 -614l21 94q68 12 117 62t57 120h-137l49 229h250l-43 -196q-16 -121 -106.5 -211t-207.5 -98zM164 0l317 1493h772q100 0 174 -31.5t111 -81t53.5 -98.5t16.5 -96q0 -84 -28 -158t-62.5 -120t-91 -89t-86 -59.5t-74.5 -38.5q160 -53 159 -168q0 -70 -31.5 -231.5 t-31.5 -196.5q0 -41 37 -70l-13 -55h-325q-16 51 -17 84q0 70 39 217.5t39 177.5q0 113 -174 113h-352l-125 -592h-307zM651 848h371q82 0 140.5 25.5t87 66.5t41 79t12.5 75q0 143 -226 143h-344z" />
<glyph unicode="&#x157;" horiz-adv-x="796" d="M30 -614l21 94q68 12 117 62t57 120h-137l49 229h250l-43 -196q-16 -121 -106.5 -211t-207.5 -98zM129 0l236 1106h286l-47 -217q72 113 166 174t193 61q18 0 34 -2l-61 -291q-49 8 -88 9q-254 0 -307 -252l-125 -588h-287z" />
<glyph unicode="&#x158;" horiz-adv-x="1478" d="M164 0l317 1493h772q100 0 174 -31.5t111 -81t53.5 -98.5t16.5 -96q0 -84 -28 -158t-62.5 -120t-91 -89t-86 -59.5t-74.5 -38.5q160 -53 159 -168q0 -70 -31.5 -231.5t-31.5 -196.5q0 -41 37 -70l-13 -55h-325q-16 51 -17 84q0 70 39 217.5t39 177.5q0 113 -174 113h-352 l-125 -592h-307zM651 848h371q82 0 140.5 25.5t87 66.5t41 79t12.5 75q0 143 -226 143h-344zM754 1906h160l125 -198l211 198h155l-284 -301h-222z" />
<glyph unicode="&#x159;" horiz-adv-x="796" d="M129 0l236 1106h286l-47 -217q72 113 166 174t193 61q18 0 34 -2l-61 -291q-49 8 -88 9q-254 0 -307 -252l-125 -588h-287zM442 1550h160l125 -198l211 198h155l-284 -301h-222z" />
<glyph unicode="&#x15a;" horiz-adv-x="1366" d="M895 1595l209 307h258l-324 -307h-143zM156 356q0 35 8 90h299q-4 -37 -4 -47q0 -88 76.5 -136t216.5 -48q160 0 255 62.5t95 164.5q0 72 -53.5 109t-192.5 65l-201 41q-182 37 -264 110t-82 200q0 236 180.5 393.5t479.5 157.5q244 0 380 -93.5t136 -259.5 q0 -51 -17 -127h-286q4 37 4 47q0 170 -271 170q-139 0 -220 -57t-81 -156q0 -57 51.5 -88.5t196.5 -60.5l223 -45q158 -31 240 -108.5t82 -196.5q0 -74 -18.5 -147.5t-67.5 -155.5t-125 -143.5t-203 -102.5t-286 -41q-158 0 -271.5 38t-171 100.5t-83 127.5t-25.5 137z" />
<glyph unicode="&#x15b;" horiz-adv-x="1138" d="M123 260q0 20 8 62h281q8 -139 217 -140q94 0 153.5 32t59.5 81q0 35 -30 55.5t-126 50.5l-162 52q-135 45 -199.5 106.5t-64.5 147.5q0 180 148.5 298.5t384.5 118.5q193 0 303 -78.5t110 -218.5q0 -33 -10 -77h-276q6 29 6 38q0 49 -48.5 78t-132.5 29 q-82 0 -131 -29.5t-49 -79.5q0 -31 28 -50t105 -42l197 -57q250 -76 250 -254q0 -197 -154.5 -313.5t-415.5 -116.5q-129 0 -223 30.5t-140 81t-67.5 98.5t-21.5 97zM686 1243l209 307h258l-324 -307h-143z" />
<glyph unicode="&#x15c;" horiz-adv-x="1366" d="M673 1607l285 301h221l146 -301h-160l-125 199l-211 -199h-156zM156 356q0 35 8 90h299q-4 -37 -4 -47q0 -88 76.5 -136t216.5 -48q160 0 255 62.5t95 164.5q0 72 -53.5 109t-192.5 65l-201 41q-182 37 -264 110t-82 200q0 236 180.5 393.5t479.5 157.5q244 0 380 -93.5 t136 -259.5q0 -51 -17 -127h-286q4 37 4 47q0 170 -271 170q-139 0 -220 -57t-81 -156q0 -57 51.5 -88.5t196.5 -60.5l223 -45q158 -31 240 -108.5t82 -196.5q0 -74 -18.5 -147.5t-67.5 -155.5t-125 -143.5t-203 -102.5t-286 -41q-158 0 -271.5 38t-171 100.5t-83 127.5 t-25.5 137z" />
<glyph unicode="&#x15d;" horiz-adv-x="1138" d="M516 1310l285 301h221l146 -301h-160l-125 199l-211 -199h-156zM123 260q0 20 8 62h281q8 -139 217 -140q94 0 153.5 32t59.5 81q0 35 -30 55.5t-126 50.5l-162 52q-135 45 -199.5 106.5t-64.5 147.5q0 180 148.5 298.5t384.5 118.5q193 0 303 -78.5t110 -218.5 q0 -33 -10 -77h-276q6 29 6 38q0 49 -48.5 78t-132.5 29q-82 0 -131 -29.5t-49 -79.5q0 -31 28 -50t105 -42l197 -57q250 -76 250 -254q0 -197 -154.5 -313.5t-415.5 -116.5q-129 0 -223 30.5t-140 81t-67.5 98.5t-21.5 97z" />
<glyph unicode="&#x15e;" horiz-adv-x="1366" d="M156 356q0 35 8 90h299q-4 -37 -4 -45q0 -88 76.5 -137t216.5 -49q160 0 255 62.5t95 164.5q0 72 -53.5 110t-192.5 64l-201 41q-182 37 -264 110t-82 200q0 236 180.5 393.5t479.5 157.5q244 0 380 -93.5t136 -259.5q0 -51 -17 -127h-286q4 37 4 47q0 170 -271 170 q-139 0 -220 -57t-81 -156q0 -57 51.5 -88.5t196.5 -60.5l223 -45q158 -31 240 -108.5t82 -196.5q0 -76 -17.5 -150t-66.5 -154.5t-124 -142t-201 -101.5t-287 -42l-56 -80q45 12 90 12q59 0 94 -30.5t35 -85.5q0 -100 -83.5 -160t-223.5 -60q-121 0 -272 60l61 104 q125 -61 203 -61q57 0 97 26.5t40 63.5q0 31 -24.5 49.5t-65.5 18.5q-45 0 -108 -27l112 172q-229 35 -341.5 129t-112.5 272z" />
<glyph unicode="&#x15f;" horiz-adv-x="1138" d="M123 260q0 23 8 62h281q8 -139 217 -140q94 0 153.5 32t59.5 81q0 35 -30 55.5t-126 50.5l-162 52q-135 45 -199.5 106.5t-64.5 147.5q0 180 148.5 298.5t384.5 118.5q193 0 303 -78.5t110 -218.5q0 -33 -10 -77h-276q6 29 6 38q0 49 -48.5 78t-132.5 29 q-82 0 -131 -29.5t-49 -79.5q0 -31 28 -50t105 -42l197 -57q250 -76 250 -254q0 -195 -150.5 -311.5t-404.5 -116.5l-53 -82q45 12 88 12q59 0 94 -30.5t35 -85.5q0 -100 -84 -160t-224 -60q-119 0 -272 60l62 104q125 -61 200 -61q57 0 98 26.5t41 63.5q0 31 -24.5 49.5 t-65.5 18.5q-45 0 -108 -27l110 174q-33 0 -89 16.5t-119.5 49t-109.5 95t-46 142.5z" />
<glyph unicode="&#x160;" horiz-adv-x="1366" d="M727 1906h160l125 -198l211 198h155l-284 -301h-222zM156 356q0 35 8 90h299q-4 -37 -4 -47q0 -88 76.5 -136t216.5 -48q160 0 255 62.5t95 164.5q0 72 -53.5 109t-192.5 65l-201 41q-182 37 -264 110t-82 200q0 236 180.5 393.5t479.5 157.5q244 0 380 -93.5t136 -259.5 q0 -51 -17 -127h-286q4 37 4 47q0 170 -271 170q-139 0 -220 -57t-81 -156q0 -57 51.5 -88.5t196.5 -60.5l223 -45q158 -31 240 -108.5t82 -196.5q0 -74 -18.5 -147.5t-67.5 -155.5t-125 -143.5t-203 -102.5t-286 -41q-158 0 -271.5 38t-171 100.5t-83 127.5t-25.5 137z" />
<glyph unicode="&#x161;" horiz-adv-x="1138" d="M123 260q0 20 8 62h281q8 -139 217 -140q94 0 153.5 32t59.5 81q0 35 -30 55.5t-126 50.5l-162 52q-135 45 -199.5 106.5t-64.5 147.5q0 180 148.5 298.5t384.5 118.5q193 0 303 -78.5t110 -218.5q0 -33 -10 -77h-276q6 29 6 38q0 49 -48.5 78t-132.5 29 q-82 0 -131 -29.5t-49 -79.5q0 -31 28 -50t105 -42l197 -57q250 -76 250 -254q0 -197 -154.5 -313.5t-415.5 -116.5q-129 0 -223 30.5t-140 81t-67.5 98.5t-21.5 97zM571 1550h160l125 -198l211 198h155l-284 -301h-222z" />
<glyph unicode="&#x162;" d="M270 -389l62 104q125 -61 200 -61q57 0 98.5 26.5t41.5 63.5q0 31 -24.5 49.5t-65.5 18.5q-45 0 -109 -27l137 215h-129l264 1237h-454l55 256h1196l-55 -256h-434l-265 -1237h-75l-82 -125q49 12 88 12q61 0 96 -30.5t35 -85.5q0 -100 -84 -160t-223 -60q-121 1 -273 60 z" />
<glyph unicode="&#x163;" horiz-adv-x="681" d="M-4 -408l61 105q125 -61 201 -62q57 0 98 27t41 64q0 31 -24.5 49t-65.5 18q-45 0 -108 -26l129 200q-121 39 -121 162q0 35 10 84l143 680h-141l41 190h141l64 297h287l-64 -297h160l-41 -190h-160l-127 -602q-12 -53 -12 -70q0 -51 78 -51q25 0 67 6l-41 -201 q-80 -23 -174 -22h-18l-64 -96q49 12 88 12q61 0 96 -31t35 -86q0 -100 -83.5 -159.5t-223.5 -59.5q-120 0 -272 59z" />
<glyph unicode="&#x164;" d="M291 1237l55 256h1196l-55 -256h-434l-265 -1237h-307l264 1237h-454zM719 1888h160l125 -198l211 198h155l-284 -301h-222z" />
<glyph unicode="&#x165;" horiz-adv-x="827" d="M872 1112l20 94q68 12 117 62.5t58 120.5h-138l49 229h250l-43 -197q-16 -121 -106 -211t-207 -98zM207 129q0 37 10 84l143 680h-141l41 190h141l64 297h287l-64 -297h160l-41 -190h-160l-127 -602q-12 -53 -12 -70q0 -51 78 -51q25 0 67 6l-41 -201q-80 -23 -174 -22 q-113 0 -172 46t-59 130z" />
<glyph unicode="&#x166;" d="M291 1237l55 256h1196l-55 -256h-434l-109 -506h150l-35 -164h-150l-121 -567h-307l121 567h-158l35 164h158l108 506h-454z" />
<glyph unicode="&#x167;" horiz-adv-x="827" d="M150 567l34 164h142l34 162h-141l41 190h141l64 297h287l-64 -297h160l-41 -190h-160l-35 -162h187l-35 -164h-186l-58 -276q-12 -53 -12 -70q0 -51 78 -51q25 0 67 6l-41 -201q-80 -23 -174 -22q-113 0 -172 46t-59 130q0 35 10 84l74 354h-141z" />
<glyph unicode="&#x168;" horiz-adv-x="1478" d="M744 1643q35 115 99 177.5t148 62.5q66 0 146 -35l102 -43q43 -20 68 -21q68 0 110 105h111q-37 -129 -109.5 -189.5t-162.5 -60.5q-55 0 -105 22l-102 52q-61 29 -90 28q-53 0 -105 -98h-110zM244 342q0 74 22 180l207 971h307l-215 -1012q-10 -55 -10 -92 q0 -82 66.5 -128t185.5 -46q139 0 219 64.5t109 201.5l215 1012h307l-215 -1012q-53 -246 -219 -377q-193 -152 -473 -151q-231 0 -368.5 105.5t-137.5 283.5z" />
<glyph unicode="&#x169;" d="M529 1315q35 115 99 177.5t148 62.5q66 0 146 -35l102 -43q43 -20 68 -21q68 0 110 105h111q-37 -129 -109.5 -189.5t-162.5 -60.5q-55 0 -105 22l-102 52q-61 29 -90 28q-53 0 -105 -98h-110zM180 223q0 55 13 113l163 770h287l-143 -670q-12 -72 -13 -100 q0 -154 156 -154q100 0 174 74t101 199l139 651h286l-235 -1106h-287l31 139q-82 -98 -170 -142t-203 -44q-135 0 -217 73.5t-82 196.5z" />
<glyph unicode="&#x16a;" horiz-adv-x="1478" d="M786 1641l35 164h614l-34 -164h-615zM244 342q0 74 22 180l207 971h307l-215 -1012q-10 -55 -10 -92q0 -82 66.5 -128t185.5 -46q139 0 219 64.5t109 201.5l215 1012h307l-215 -1012q-53 -246 -219 -377q-193 -152 -473 -151q-231 0 -368.5 105.5t-137.5 283.5z" />
<glyph unicode="&#x16b;" d="M577 1315l35 164h614l-34 -164h-615zM180 223q0 55 13 113l163 770h287l-143 -670q-12 -72 -13 -100q0 -154 156 -154q100 0 174 74t101 199l139 651h286l-235 -1106h-287l31 139q-82 -98 -170 -142t-203 -44q-135 0 -217 73.5t-82 196.5z" />
<glyph unicode="&#x16c;" horiz-adv-x="1478" d="M874 1820q0 35 12 80h86v-16q0 -55 40 -86t112 -31q158 0 211 133h86q-23 -127 -116 -210t-214 -83q-96 0 -156.5 59.5t-60.5 153.5zM244 342q0 74 22 180l207 971h307l-215 -1012q-10 -55 -10 -92q0 -82 66.5 -128t185.5 -46q139 0 219 64.5t109 201.5l215 1012h307 l-215 -1012q-53 -246 -219 -377q-193 -152 -473 -151q-231 0 -368.5 105.5t-137.5 283.5z" />
<glyph unicode="&#x16d;" d="M653 1458q0 35 12 80h86v-16q0 -55 40 -86t112 -31q158 0 211 133h86q-23 -127 -116 -210t-214 -83q-96 0 -156.5 59.5t-60.5 153.5zM180 223q0 55 13 113l163 770h287l-143 -670q-12 -72 -13 -100q0 -154 156 -154q100 0 174 74t101 199l139 651h286l-235 -1106h-287 l31 139q-82 -98 -170 -142t-203 -44q-135 0 -217 73.5t-82 196.5z" />
<glyph unicode="&#x16e;" horiz-adv-x="1478" d="M925 1729q0 88 70 155.5t160 67.5q63 0 105 -41t42 -104q0 -88 -69.5 -156t-159.5 -68q-63 0 -105.5 41.5t-42.5 104.5zM1026 1751q0 -29 19.5 -47t49.5 -18q41 0 74 30.5t33 69.5q0 27 -19.5 45.5t-48.5 18.5q-41 0 -74.5 -30t-33.5 -69zM244 342q0 74 22 180l207 971 h307l-215 -1012q-10 -55 -10 -92q0 -82 66.5 -128t185.5 -46q139 0 219 64.5t109 201.5l215 1012h307l-215 -1012q-53 -246 -219 -377q-193 -152 -473 -151q-231 0 -368.5 105.5t-137.5 283.5z" />
<glyph unicode="&#x16f;" d="M719 1331q0 88 70 155.5t160 67.5q63 0 105 -41t42 -104q0 -88 -69.5 -156t-159.5 -68q-63 0 -105.5 41.5t-42.5 104.5zM820 1353q0 -29 19.5 -47t49.5 -18q41 0 74 30.5t33 69.5q0 27 -19.5 45.5t-48.5 18.5q-41 0 -74.5 -30t-33.5 -69zM180 223q0 55 13 113l163 770 h287l-143 -670q-12 -72 -13 -100q0 -154 156 -154q100 0 174 74t101 199l139 651h286l-235 -1106h-287l31 139q-82 -98 -170 -142t-203 -44q-135 0 -217 73.5t-82 196.5z" />
<glyph unicode="&#x170;" horiz-adv-x="1478" d="M244 342q0 74 22 180l207 971h307l-215 -1012q-10 -55 -10 -92q0 -82 66.5 -128t185.5 -46q139 0 219 64.5t109 201.5l215 1012h307l-215 -1012q-53 -246 -219 -377q-193 -152 -473 -151q-231 0 -368.5 105.5t-137.5 283.5zM830 1579l209 301h258l-324 -301h-143z M1215 1579l209 301h258l-324 -301h-143z" />
<glyph unicode="&#x171;" d="M180 223q0 55 13 113l163 770h287l-143 -670q-12 -72 -13 -100q0 -154 156 -154q100 0 174 74t101 199l139 651h286l-235 -1106h-287l31 139q-82 -98 -170 -142t-203 -44q-135 0 -217 73.5t-82 196.5zM604 1249l209 301h258l-324 -301h-143zM989 1249l209 301h258 l-324 -301h-143z" />
<glyph unicode="&#x172;" horiz-adv-x="1478" d="M244 342q0 74 22 180l207 971h307l-215 -1012q-10 -55 -10 -92q0 -82 66.5 -128t185.5 -46q139 0 219 64.5t109 201.5l215 1012h307l-215 -1012q-33 -139 -91.5 -234t-116.5 -138t-136 -106.5t-127 -131.5q-66 -90 -66 -156q0 -90 115 -90q78 0 145 23l-22 -107 q-92 -18 -156 -18q-137 0 -212 41t-75 114q0 63 29 116.5t80 90.5t83 55.5t77 39.5q-133 -27 -215 -27q-236 0 -373 104.5t-137 284.5z" />
<glyph unicode="&#x173;" d="M180 223q0 55 13 113l163 770h287l-143 -670q-12 -72 -13 -100q0 -154 156 -154q100 0 174 74t101 199l139 651h286l-235 -1106q-256 -131 -256 -291q0 -84 109 -84q68 0 139 23l-23 -107q-88 -18 -143 -18q-285 0 -285 162q0 180 305 315h-133l31 139q-82 -98 -170 -142 t-203 -44q-135 0 -217 73.5t-82 196.5z" />
<glyph unicode="&#x174;" horiz-adv-x="1933" d="M987 1620l285 301h221l146 -301h-160l-125 199l-211 -199h-156zM344 1493h326l-6 -1118l458 1118h324l-6 -1122l461 1122h325l-731 -1493h-276l-9 1137l-485 -1137h-276z" />
<glyph unicode="&#x175;" horiz-adv-x="1593" d="M743 1310l285 301h221l146 -301h-160l-125 199l-211 -199h-156zM246 1106h297l10 -774l326 774h295v-774l333 774h297l-540 -1106h-297l-11 778l-340 -778h-294z" />
<glyph unicode="&#x176;" horiz-adv-x="1366" d="M706 1601l285 301h221l146 -301h-160l-125 199l-211 -199h-156zM373 1493h342l168 -645l424 645h342l-672 -940l-119 -553h-307l119 553z" />
<glyph unicode="&#x177;" horiz-adv-x="1138" d="M514 1310l285 301h221l146 -301h-160l-125 199l-211 -199h-156zM76 -440l47 223q23 -4 57 -4q106 0 169 51t63 139q-27 219 -83 614l-75 523h315l74 -805l399 805h295l-733 -1307q-51 -96 -90 -135q-117 -113 -348 -113q-55 1 -90 9z" />
<glyph unicode="&#x178;" horiz-adv-x="1366" d="M739 1641l53 246h226l-54 -246h-225zM1120 1641l53 246h226l-54 -246h-225zM373 1493h342l168 -645l424 645h342l-672 -940l-119 -553h-307l119 553z" />
<glyph unicode="&#x179;" d="M797 1612l209 307h258l-324 -307h-143zM61 0l56 256l970 981h-763l55 256h1122l-55 -256l-971 -981h764l-55 -256h-1123z" />
<glyph unicode="&#x17a;" horiz-adv-x="1024" d="M668 1235l209 307h258l-324 -307h-143zM43 0l49 231l684 643h-510l49 232h863l-50 -232l-679 -643h561l-49 -231h-918z" />
<glyph unicode="&#x17b;" d="M61 0l56 256l970 981h-763l55 256h1122l-55 -256l-971 -981h764l-55 -256h-1123zM848 1643l53 246h225l-53 -246h-225z" />
<glyph unicode="&#x17c;" horiz-adv-x="1024" d="M43 0l49 231l684 643h-510l49 232h863l-50 -232l-679 -643h561l-49 -231h-918zM678 1288l53 246h225l-53 -246h-225z" />
<glyph unicode="&#x17d;" d="M61 0l56 256l970 981h-763l55 256h1122l-55 -256l-971 -981h764l-55 -256h-1123zM661 1906h160l125 -198l211 198h155l-284 -301h-222z" />
<glyph unicode="&#x17e;" horiz-adv-x="1024" d="M520 1544h160l125 -198l211 198h155l-284 -301h-222zM43 0l49 231l684 643h-510l49 232h863l-50 -232l-679 -643h561l-49 -231h-918z" />
<glyph unicode="&#x17f;" horiz-adv-x="681" d="M184 0l191 893h-158l41 190h156l28 134q31 143 116 209.5t235 66.5q29 0 157 -6l-45 -215q-74 8 -86 8q-76 0 -94 -88l-254 -1192h-287z" />
<glyph unicode="&#x180;" d="M-33 0l260 1221h-123l29 137h123l29 135h286l-28 -135h272l-29 -137h-272l-55 -258q135 162 340 161q164 0 261 -113.5t97 -303.5q0 -170 -73.5 -341t-218 -292t-316.5 -121q-205 0 -270 160l-25 -113h-287zM356 422q0 -106 47.5 -167.5t133.5 -61.5q98 0 176 77.5 t114.5 180t36.5 200.5q0 106 -48 170t-132 64q-90 0 -159.5 -56.5t-103.5 -138.5t-49.5 -151.5t-15.5 -116.5z" />
<glyph unicode="&#x181;" horiz-adv-x="1972" d="M145 958q0 225 149.5 380t389.5 155h801q123 0 210 -31.5t128 -85t57 -102.5t16 -105q0 -80 -29.5 -146.5t-86 -115.5t-84 -67.5t-76.5 -46.5q178 -119 178 -285q0 -106 -62.5 -218t-160.5 -181q-152 -109 -399 -109h-672l252 1186h-135q-111 0 -157 -43t-46 -103 q0 -86 172 -86l-64 -307q-381 0 -381 311zM864 256h367q147 0 210.5 76t63.5 170q0 141 -192 141h-367zM1001 899h334q137 0 197.5 65.5t60.5 145.5q0 127 -186 127h-334z" />
<glyph unicode="&#x182;" horiz-adv-x="1478" d="M168 0l317 1493h1049l-55 -256h-742l-71 -338h333q109 0 194 -24.5t135 -63.5t82 -91t43 -101.5t11 -102.5q0 -115 -64.5 -227.5t-160.5 -179.5q-152 -109 -399 -109h-672zM530 256h367q147 0 210.5 76t63.5 170q0 141 -192 141h-367z" />
<glyph unicode="&#x183;" d="M-33 0l318 1493h776l-55 -256h-490l-57 -274q135 162 340 161q63 0 120.5 -19.5t112.5 -63.5t89 -132t34 -209q0 -160 -57.5 -303t-146.5 -238.5t-195.5 -150.5t-206.5 -55q-205 0 -270 160l-25 -113h-287zM356 422q0 -106 47.5 -167.5t133.5 -61.5q98 0 176 77.5 t114.5 180t36.5 200.5q0 106 -48 170t-132 64q-90 0 -159.5 -55.5t-103.5 -137.5t-49.5 -151.5t-15.5 -118.5z" />
<glyph unicode="&#x184;" horiz-adv-x="1406" d="M-2 0l203 958l-166 154l586 381l-113 -532h383q170 0 265 -95.5t95 -261.5q0 -270 -163.5 -437t-430.5 -167h-659zM358 256h287q86 0 147.5 28.5t92 75t44 94.5t13.5 99q0 152 -201 152h-286z" />
<glyph unicode="&#x185;" d="M-33 0l215 1010l-164 166l553 317l-112 -530q135 162 340 161q164 0 261 -113.5t97 -303.5q0 -170 -73.5 -341t-218 -292t-316.5 -121q-205 0 -270 160l-25 -113h-287zM356 422q0 -106 47.5 -167.5t133.5 -61.5q98 0 176 77.5t114.5 180t36.5 200.5q0 106 -48 170 t-132 64q-90 0 -159.5 -56.5t-103.5 -138.5t-49.5 -151.5t-15.5 -116.5z" />
<glyph unicode="&#x186;" horiz-adv-x="1478" d="M1274 989q0 -285 -112.5 -522.5t-313.5 -376t-447 -138.5q-238 0 -385 119t-147 309q0 27 8 103h289q0 -268 270 -268q109 0 197 42t143 111.5t95 148.5t60.5 163.5t29 145t8.5 103.5q0 326 -301 326q-147 0 -252 -77t-150 -218h-293q68 262 262.5 409.5t475.5 147.5 q262 0 412.5 -141t150.5 -387z" />
<glyph unicode="&#x187;" horiz-adv-x="1540" d="M61 498q0 115 27 235q78 362 306.5 573.5t543.5 211.5q207 0 340 -91q63 104 233 105q76 0 168 -10l-49 -230q-25 8 -28 8q-86 0 -105 -86l-49 -227h-293q0 268 -262 268q-125 0 -222.5 -62.5t-151.5 -149.5t-89 -193.5t-46 -181t-11 -125.5q0 -160 73.5 -246t215.5 -86 q145 0 253.5 80t139.5 219h299q-55 -254 -265 -405.5t-491 -151.5q-256 0 -396.5 144.5t-140.5 400.5z" />
<glyph unicode="&#x188;" horiz-adv-x="1150" d="M45 352q0 201 80 376t235.5 285.5t354.5 110.5q143 0 235 -55q74 74 221 74q59 0 156 -10l-49 -230q-25 8 -49 8q-47 0 -70.5 -19.5t-32.5 -66.5l-26 -133h-275q-2 109 -37.5 155t-123.5 46q-96 0 -166 -63.5t-101.5 -154.5t-45 -160t-13.5 -114q0 -104 45 -160.5 t129 -56.5t140.5 46t107.5 153h274q-63 -199 -217.5 -314.5t-355.5 -115.5t-308.5 103t-107.5 296z" />
<glyph unicode="&#x189;" horiz-adv-x="1478" d="M150 698l34 164h156l135 631h584q279 0 404.5 -122t125.5 -390q0 -377 -229 -694q-113 -156 -254 -221.5t-365 -65.5h-583l149 698h-157zM520 256h275q133 0 217 48t149 163q53 90 88 231.5t35 262.5q0 276 -280 276h-277l-80 -375h357l-35 -164h-355z" />
<glyph unicode="&#x18a;" horiz-adv-x="1982" d="M145 958q0 225 149.5 380t389.5 155h719q252 0 387 -112.5t135 -401.5q0 -227 -92 -447.5t-238 -357.5q-182 -174 -508 -174h-583l252 1186h-135q-111 0 -157 -43t-46 -103q0 -86 172 -86l-64 -307q-381 0 -381 311zM864 256h277q115 0 204 58.5t138 140.5t80.5 184 t42 177t10.5 132q0 289 -266 289h-277z" />
<glyph unicode="&#x18b;" horiz-adv-x="1478" d="M-66 344q0 88 35 172q29 68 75 129.5t120 121.5t186.5 96t247.5 36h334l72 338h-742l53 256h1049l-317 -1493h-672q-248 0 -352 109q-89 88 -89 235zM233 397q0 -141 193 -141h367l81 387h-366q-193 0 -252 -141q-23 -56 -23 -105z" />
<glyph unicode="&#x18c;" d="M-115 379q0 152 72 321q51 121 122 209t145.5 132t141 63.5t128.5 19.5q207 0 272 -161l59 274h-489l53 256h776l-317 -1493h-287l23 113q-133 -160 -338 -160q-152 0 -256.5 116.5t-104.5 309.5zM180 424q0 -102 44 -166.5t136 -64.5q86 0 159 61t120 168q49 119 49 246 q0 217 -180 217q-84 0 -160 -63.5t-121 -170.5q-47 -112 -47 -227z" />
<glyph unicode="&#x18d;" horiz-adv-x="1247" d="M1227 774q0 -104 -36 -217t-102.5 -217.5t-180.5 -182t-255 -102.5l268 -215l-55 -209h-928l64 232h448l-190 155q-4 2 -26.5 21.5t-32.5 30.5l-34 33q-24 24 -37 42.5t-31.5 48t-28 57t-16.5 65.5t-7 77q0 53 12.5 118.5t40 153t83.5 165t135 145t204 108.5t279 41 q127 0 217 -33.5t132 -91t59.5 -112t17.5 -113.5zM923 696q0 176 -192 176q-94 0 -167 -34.5t-113 -84t-66.5 -110.5t-34.5 -106.5t-8 -77.5q0 -188 215 -189q82 0 149.5 35t106.5 86t65.5 112.5t35.5 109.5t9 83z" />
<glyph unicode="&#x18e;" horiz-adv-x="1366" d="M-156 0l54 256h809l81 387h-714l57 256h715l72 338h-775l54 256h1081l-317 -1493h-1117z" />
<glyph unicode="&#x18f;" horiz-adv-x="1593" d="M59 537q0 154 56 319h1114q0 8 1 22.5t1 20.5q0 168 -83 262t-237 94q-240 0 -397 -223h-321q29 53 65.5 106.5t106 126t150.5 125t200 90.5t250 38q164 0 282.5 -53.5t179 -142.5t87 -184.5t26.5 -201.5q0 -219 -98.5 -429t-253.5 -347q-233 -207 -553 -207 q-131 0 -234.5 37t-167 95t-103.5 137t-55.5 156t-15.5 159zM371 573q0 -168 84 -263t235 -95q156 0 286 104.5t198 280.5h-803v-27z" />
<glyph unicode="&#x190;" horiz-adv-x="1376" d="M-2 334q0 47 9 97t32.5 115.5t79 126t135.5 99.5q-82 74 -82 193q0 248 182.5 400.5t481.5 152.5q145 0 248.5 -33t156.5 -88.5t76.5 -113.5t23.5 -124q0 -53 -12 -121h-287q2 12 2 37q0 197 -270 197q-133 0 -216 -62.5t-83 -171.5q0 -162 246 -161h156l-48 -246h-208 q-147 0 -238.5 -76t-91.5 -190q0 -78 70.5 -122t195.5 -44q317 0 385 247h299q-61 -240 -245.5 -366.5t-469.5 -126.5q-254 0 -391 99.5t-137 281.5z" />
<glyph unicode="&#x191;" d="M-166 -436l49 229q8 -2 11.5 -4t5.5 -3t10 -1q47 0 70.5 19.5t31.5 66.5l346 1622h1049l-55 -256h-742l-71 -338h653l-55 -256h-652l-176 -836q-29 -135 -101.5 -194t-205.5 -59q-72 0 -168 10z" />
<glyph unicode="&#x192;" horiz-adv-x="1138" d="M-43 -406l100 236q55 -43 107 -43q55 0 96 50t88 177l285 770h-252l43 205h283l47 121q84 213 196.5 313.5t274.5 100.5q82 0 188 -35l-90 -234q-63 33 -106 33q-119 0 -203 -215l-31 -84h252l-43 -205h-281l-286 -782q-37 -98 -76 -171t-97.5 -141.5t-138.5 -104.5 t-180 -36q-94 0 -176 45z" />
<glyph unicode="&#x193;" horiz-adv-x="1593" d="M61 535q0 92 23 200q76 348 321.5 565.5t567.5 217.5q219 0 362 -93q66 106 236 107q76 0 168 -10l-49 -230q-25 8 -29 8q-86 0 -105 -86l-43 -198h-288q-33 240 -305 239q-129 0 -231.5 -57t-159 -137t-93.5 -179.5t-48 -170t-11 -121.5q0 -170 89 -272.5t241 -102.5 q164 0 295 106.5t155 225.5h-340l53 256h598l-170 -803h-184l4 193q-115 -127 -233.5 -183.5t-268.5 -56.5q-254 0 -404.5 160t-150.5 422z" />
<glyph unicode="&#x194;" horiz-adv-x="1366" d="M373 1493h342l166 -659l424 659h344l-674 -940q76 -182 76 -328q0 -76 -37 -131t-95.5 -82.5t-114.5 -40t-110 -12.5q-127 0 -197.5 45t-70.5 123q0 68 67.5 182.5t174.5 243.5zM705 195q0 -31 32 -31q23 0 37 15.5t14 43.5q0 20 -26 56q-57 -47 -57 -84z" />
<glyph unicode="&#x195;" horiz-adv-x="1820" d="M-18 0l317 1493h287l-117 -547q158 178 362 178q121 0 207 -61.5t86 -204.5q0 -57 -14 -117l-53 -254q-18 -80 -19 -137q0 -70 36 -102.5t124 -32.5q113 0 168 68.5t86 216.5l129 606h283l-144 -672q-98 -467 -571 -467q-225 0 -318.5 77t-93.5 220q0 68 21 170l51 242 q10 45 10 74q0 131 -141 131q-96 0 -172 -61.5t-96 -155.5l-142 -664h-286z" />
<glyph unicode="&#x196;" horiz-adv-x="569" d="M104 70q0 25 7 53l301 1421h272l-285 -1345q-6 -27 -6 -34t6.5 -9t32.5 -2q45 0 70 6l67 18l-53 -254l-43 -8q-88 -14 -151 -14q-104 0 -161 44t-57 124z" />
<glyph unicode="&#x197;" horiz-adv-x="808" d="M-31 600l51 256h252l136 637h307l-135 -637h245l-53 -256h-246l-127 -600h-307l127 600h-250z" />
<glyph unicode="&#x198;" horiz-adv-x="1593" d="M-10 0l317 1493h307l-139 -655l567 508q207 180 361 180q115 0 202 -88t87 -178q0 -229 -234 -431l-145 168q117 102 117 166q0 25 -20.5 54.5t-63.5 29.5q-41 0 -91 -30l-428 -367l480 -850h-367l-350 659l-187 -159l-106 -500h-307z" />
<glyph unicode="&#x199;" horiz-adv-x="1138" d="M-37 0l262 1239q29 135 100.5 194.5t204.5 59.5q76 0 168 -10l-47 -230q-27 8 -51 9q-47 0 -69.5 -19.5t-30.5 -66.5l-107 -500l453 430h325l-464 -418l258 -688h-336l-162 487l-141 -125l-76 -362h-287z" />
<glyph unicode="&#x19a;" horiz-adv-x="681" d="M86 643l51 240h254l139 661h275l-139 -661h256l-52 -240h-256l-147 -694h-274l147 694h-254z" />
<glyph unicode="&#x19b;" horiz-adv-x="1269" d="M35 -4l567 950l-338 -186l39 182l352 195q-12 70 -36.5 91t-69.5 21q-33 0 -77 -9t-91 -13l84 250q111 37 164 36q121 0 181 -64.5t87 -180.5l322 176l-39 -180l-256 -142l6 -32l129 -797q8 -39 12 -50.5t12 -11.5q27 0 107 43l20 -229q-154 -72 -235 -72q-88 0 -120 45 t-46 138q-80 506 -84 528l-395 -688h-295z" />
<glyph unicode="&#x19c;" horiz-adv-x="1820" d="M4 240q0 33 10 84l248 1169h307l-233 -1104q-4 -25 -4 -37q0 -49 33.5 -77.5t95.5 -28.5q184 0 233 217l217 1030h308l-234 -1104q-4 -14 -4 -41q0 -102 119 -102q92 0 156.5 57t86.5 160l218 1030h307l-318 -1493h-305l31 137q-90 -84 -166 -119.5t-170 -35.5 q-102 0 -173 43t-93 120q-158 -164 -359 -163q-143 0 -227 68.5t-84 189.5z" />
<glyph unicode="&#x19d;" horiz-adv-x="1478" d="M-178 -436l49 229q27 -8 31 -8q47 0 70.5 19.5t31.5 66.5l346 1622h312l374 -1016l217 1016h308l-318 -1493h-307l-381 1028l-258 -1221q-29 -135 -101.5 -194t-205.5 -59q-72 0 -168 10z" />
<glyph unicode="&#x19e;" d="M53 0l236 1106h286l-34 -160q158 178 370 178q147 0 224 -69.5t77 -200.5q0 -51 -12 -113l-246 -1153h-286l233 1094q8 49 8 66q0 133 -151 133q-104 0 -180 -59.5t-97 -157.5l-141 -664h-287z" />
<glyph unicode="&#x19f;" horiz-adv-x="1593" d="M59 537q0 123 36 255t111 262t179 233.5t255 167t325 63.5q164 0 282.5 -53.5t179 -142.5t87 -184.5t26.5 -201.5q0 -174 -63.5 -347t-176 -315.5t-287.5 -231.5t-378 -89q-164 0 -283 54t-179 145.5t-87 186t-27 198.5zM371 573q0 -168 84 -263t235 -95q156 0 286 104.5 t198 280.5h-803v-27zM424 856h805q0 8 1 22.5t1 20.5q0 168 -83 262t-237 94q-160 0 -290.5 -107.5t-196.5 -291.5z" />
<glyph unicode="&#x1a0;" horiz-adv-x="1593" d="M53 526q0 98 25 209q74 344 317.5 563.5t565.5 219.5q307 0 460 -197q70 86 78 242h291q-6 -72 -43 -135.5t-89 -104.5t-94 -64.5t-83 -37.5q55 -121 55 -279q0 -113 -23 -217q-72 -332 -314.5 -552t-569.5 -220q-270 0 -423 156.5t-153 416.5zM367 573q0 -168 84 -263 t235 -95q184 0 327.5 141.5t192.5 370.5q18 92 19 172q0 168 -83 262t-235 94q-123 0 -221 -56t-156.5 -137t-96.5 -179.5t-52 -175.5t-14 -134z" />
<glyph unicode="&#x1a1;" d="M45 369q0 78 18 170q59 272 237.5 428.5t432.5 156.5q262 0 373 -159q63 84 72 233h290q-6 -72 -42.5 -134.5t-89 -103t-94.5 -65.5t-81 -39h-4q18 -68 19 -147q0 -88 -21 -179q-55 -266 -236.5 -421.5t-433.5 -155.5q-211 0 -325.5 109.5t-114.5 306.5zM338 424 q0 -111 52 -175.5t145 -64.5q115 0 208 97.5t127 253.5q12 63 13 120q0 113 -51.5 175.5t-145.5 62.5q-117 0 -209 -98.5t-127 -255.5q-12 -62 -12 -115z" />
<glyph unicode="&#x1a2;" horiz-adv-x="2275" d="M96 528q0 109 23 207q74 344 317.5 563.5t564.5 219.5q283 0 426 -158q168 180 435 180q195 0 297 -83t102 -236q0 -55 -12 -117l-322 -1514h-307l322 1514q6 27 6 53q0 121 -136 121q-88 0 -137 -46t-69 -149l-29 -135v-18q0 -92 -23 -205q-72 -330 -315.5 -551 t-568.5 -221q-270 0 -422 156.5t-152 418.5zM408 573q0 -168 83.5 -263t235.5 -95q184 0 327.5 141.5t192.5 370.5q18 92 19 172q0 168 -83 262t-235 94q-123 0 -221 -56t-156.5 -137t-96.5 -179.5t-52 -175.5t-14 -134z" />
<glyph unicode="&#x1a3;" horiz-adv-x="1478" d="M113 334q0 90 22 194q61 293 240.5 460t427.5 167q168 0 272 -74q145 74 273 74q137 0 198.5 -58.5t61.5 -174.5q0 -70 -21 -166l-258 -1217h-274l268 1258q8 47 8 67v13q-2 29 -31 32q-8 2 -16 2q-45 0 -80 -10q25 -78 25 -176q0 -94 -23 -205q-61 -285 -241.5 -451.5 t-425.5 -166.5q-205 0 -315.5 113.5t-110.5 318.5zM399 391q0 -111 50.5 -170t144.5 -59q117 0 207 95t125 265q16 78 16 144q0 229 -192 229q-119 0 -208 -96.5t-126 -270.5q-17 -74 -17 -137z" />
<glyph unicode="&#x1a4;" horiz-adv-x="1871" d="M145 958q0 225 149.5 380t389.5 155h795q197 0 298 -84t101 -246q0 -55 -16 -133q-47 -227 -198 -362.5t-357 -135.5h-383l-113 -532h-307l252 1186h-135q-111 0 -157 -43t-46 -103q0 -86 172 -86l-64 -307q-381 0 -381 311zM977 788h287q111 0 181.5 50.5t93 112 t22.5 132.5q0 154 -201 154h-287z" />
<glyph unicode="&#x1a5;" d="M-51 -446l330 1552h286l-35 -164q143 182 347 182q113 0 204 -59q74 82 230 82q72 0 168 -10l-49 -230q-27 8 -50 8q-47 0 -70.5 -19t-31.5 -67l-66 -301q-51 -248 -219 -412.5t-364 -164.5q-205 0 -271 180l-122 -577h-287zM432 420q0 -106 48 -168t132 -62 q74 0 134.5 39t95.5 95.5t59.5 124t32.5 118.5t8 88q0 106 -48 168t-134 62q-90 0 -159 -56.5t-102.5 -138.5t-50 -152.5t-16.5 -117.5z" />
<glyph unicode="&#x1a6;" horiz-adv-x="1325" d="M123 0l317 1493h308l-82 -387h309q90 0 156.5 -22.5t101.5 -62.5t50 -83t15 -94q0 -37 -8 -76q-18 -86 -65 -162t-105 -119q102 -49 103 -194q0 -59 -17 -135l-73 -346q-6 -35 -6.5 -60.5t8 -44t15.5 -25t21 -16.5l-10 -55h-330q-18 53 -18 96t16 119l76 356q4 18 4 35 q0 72 -57 119t-135 47h-205l-82 -383h-307zM559 608h250q84 0 129 30t61 99q4 23 5 41q0 102 -138 103h-250z" />
<glyph unicode="&#x1a7;" horiz-adv-x="1366" d="M-178 313q0 111 51 230q49 119 165 196.5t286 108.5l241 45q158 29 222.5 60.5t89.5 88.5q18 41 18 76q0 66 -59.5 101.5t-167.5 35.5q-270 0 -344 -170q-4 -10 -15 -47h-286q14 76 36 127q70 166 246 259.5t420 93.5q227 0 349 -95.5t122 -253.5q0 -94 -45 -202 q-55 -127 -167 -200t-312 -110l-217 -41q-152 -29 -220.5 -65.5t-99.5 -108.5q-16 -39 -16 -73q0 -72 70.5 -113t199.5 -41q139 0 236.5 48t134.5 136q4 10 16 47h299q-16 -55 -31 -90q-31 -72 -84 -137t-138 -127.5t-214 -100.5t-286 -38q-139 0 -240.5 29.5t-156 83 t-79 113.5t-24.5 134z" />
<glyph unicode="&#x1a8;" horiz-adv-x="1138" d="M-123 225q0 72 35 158q78 178 358 254l222 57q88 23 123.5 42.5t48.5 49.5q8 16 8 33q0 35 -38 55.5t-104 20.5q-84 0 -144 -28.5t-81 -78.5q-6 -12 -10 -38h-277q8 45 23 77q57 139 201.5 218t337.5 79q184 0 285.5 -74.5t101.5 -197.5q0 -70 -31 -145 q-72 -166 -373 -254l-184 -52q-109 -31 -146.5 -51t-54.5 -55q-6 -14 -6 -29q0 -37 46 -60.5t126 -23.5q209 0 277 140h280q-10 -41 -18 -62q-20 -49 -62.5 -97t-110 -98.5t-175 -81t-236.5 -30.5q-203 0 -312.5 71.5t-109.5 200.5z" />
<glyph unicode="&#x1a9;" horiz-adv-x="1409" d="M-166 -51l62 252l616 590l-276 489l59 242h1151l-68 -275h-753l258 -456l-598 -568h878l-67 -274h-1262z" />
<glyph unicode="&#x1aa;" horiz-adv-x="903" d="M326 1153q0 137 114.5 250t257.5 113q117 0 182.5 -60.5t65.5 -167.5q0 -20 -8 -78l-279 -1304q-6 -43 -6 -49q0 -20 15.5 -30.5t62.5 -10.5q6 0 39 2l53 4l-51 -242l-43 -10q-41 -6 -67 -6q-143 0 -219 53t-76 156q0 31 6 65l229 1075q-10 -2 -31 -2q-109 0 -177 69 t-68 173zM557 1200q0 -25 17.5 -42t43.5 -17q35 0 65 26.5t30 61.5q0 27 -17.5 42t-46.5 15q-33 0 -62.5 -25.5t-29.5 -60.5z" />
<glyph unicode="&#x1ab;" horiz-adv-x="681" d="M2 -436l49 229q25 -8 49 -8q47 0 71 19.5t32 66.5l20 98q-117 37 -117 164q0 33 11 80l143 680h-141l41 190h141l64 297h286l-63 -297h160l-41 -190h-160l-127 -602q-10 -45 -10 -66q0 -31 17 -43t60 -12q20 0 68 6l-78 -369q-29 -135 -101.5 -194t-205.5 -59 q-72 0 -168 10z" />
<glyph unicode="&#x1ac;" horiz-adv-x="1519" d="M162 1044q0 35 11 83.5t47 115t91.5 120.5t153.5 92t223 38h963l-54 -256h-436l-262 -1237h-307l262 1237h-219q-61 0 -106.5 -16.5t-66 -40t-28.5 -42t-8 -32.5q0 -43 46 -71.5t134 -28.5l-55 -256q-113 0 -187.5 23.5t-125.5 86.5q-76 96 -76 184z" />
<glyph unicode="&#x1ad;" horiz-adv-x="681" d="M53 133q0 41 8 80l146 680h-141l38 190h142l35 156q27 135 99.5 194.5t205.5 59.5q72 0 168 -10l-49 -230q-25 8 -50 9q-45 0 -68.5 -19.5t-33.5 -66.5l-21 -93h160l-39 -190h-159l-129 -602q-8 -35 -8.5 -65.5t17 -43t60.5 -12.5q23 0 66 6l-43 -201q-74 -23 -170 -22 q-234 0 -234 180z" />
<glyph unicode="&#x1ae;" d="M180 1237l56 256h1196l-56 -256h-436l-291 -1366q-2 -12 -2 -31q0 -55 53 -55q14 0 48 8l-50 -229q-96 -10 -172 -10q-109 0 -159 37.5t-50 123.5q0 39 13 92l303 1430h-453z" />
<glyph unicode="&#x1af;" horiz-adv-x="1478" d="M53 344q0 68 15 137l215 1012h307l-215 -1012q-10 -51 -10 -84q0 -182 239 -182q283 0 340 266l215 1012h49q258 25 275 340h291q-6 -72 -43 -134.5t-89.5 -103.5t-94.5 -65.5t-81 -38.5l-215 -1010q-27 -121 -84 -216t-128.5 -152.5t-161 -94t-169 -51t-161.5 -14.5 q-90 0 -171 18.5t-157 60.5t-121 121.5t-45 190.5z" />
<glyph unicode="&#x1b0;" d="M29 223q0 51 12 113l164 770h287l-152 -711q-8 -49 -8 -67q0 -131 151 -131q104 0 180 59t97 158l147 692h-14q299 0 317 342h291q-6 -72 -43 -134.5t-89 -103.5t-94 -65.5t-81 -38.5l-236 -1106h-286l28 131q-158 -178 -370 -178q-145 0 -223 69.5t-78 200.5z" />
<glyph unicode="&#x1b1;" horiz-adv-x="1597" d="M1690 1513l-64 -258h-250q129 -143 129 -348q0 -121 -41.5 -255t-123.5 -262t-191.5 -230.5t-258 -165t-308.5 -62.5q-164 0 -283 50t-180 136.5t-88 177.5t-27 193q0 231 109.5 436t300.5 330h-242l64 258h663l-61 -248q-57 -20 -115.5 -52t-138.5 -94.5t-139.5 -137 t-102.5 -189t-43 -243.5q0 -47 9.5 -94.5t33 -96.5t60 -85t99 -59.5t140.5 -23.5q123 0 234.5 64.5t185.5 166t117 222.5t43 235q0 270 -236 385l62 250h643z" />
<glyph unicode="&#x1b2;" horiz-adv-x="1478" d="M211 338q0 74 18 160l211 999h293l-229 -1081q-4 -16 -4 -31q0 -66 54 -102.5t122 -36.5q61 0 120.5 9t128 39t124 76t102.5 127t70 187v4q27 119 26 217q0 121 -33.5 226.5t-115.5 285.5l-35 80h342l10 -20q133 -248 133 -502q0 -125 -28 -266q-82 -377 -298 -555.5 t-544 -178.5q-467 1 -467 363z" />
<glyph unicode="&#x1b3;" horiz-adv-x="1366" d="M213 1493h342l166 -659l256 397q178 262 414 262q154 0 260 -92t106 -240q0 -133 -125 -311l-248 133q72 106 72 158q0 43 -31.5 61.5t-58.5 18.5q-76 0 -156 -115l-393 -553l-117 -553h-307l117 553z" />
<glyph unicode="&#x1b4;" horiz-adv-x="1445" d="M8 -440l45 215q41 -12 74 -13q74 0 137.5 51.5t81.5 141.5l-166 1151h316l71 -805l279 559q141 287 393 287q37 0 83 -10.5t101.5 -36t92 -81.5t36.5 -134q0 -109 -61 -226l-29 -57l-213 72q51 104 51 155q0 72 -94 72q-43 0 -76.5 -40t-76.5 -128l-523 -936 q-72 -127 -156.5 -186.5t-264.5 -59.5q-46 1 -101 9z" />
<glyph unicode="&#x1b5;" d="M61 0l56 256l420 424h-211l28 137h318l415 420h-763l55 256h1122l-55 -256l-414 -420h219l-28 -137h-326l-420 -424h762l-55 -256h-1123z" />
<glyph unicode="&#x1b6;" horiz-adv-x="1024" d="M43 0l49 231l289 273h-109l31 137h225l248 233h-510l49 232h861l-50 -232l-245 -233h104l-31 -137h-221l-287 -273h562l-50 -231h-915z" />
<glyph unicode="&#x1b7;" horiz-adv-x="1138" d="M-16 307q0 53 12 119h278q-4 -23 -4 -61q0 -166 174 -166q74 0 130.5 32.5t83 80.5t40 89t13.5 70q0 129 -117 164q-55 14 -166 14l41 193l305 395h-522l55 256h821l-55 -256l-325 -432q33 -10 52 -16.5t62 -31t68.5 -55t47 -85t21.5 -121.5q0 -43 -8 -78 q-45 -213 -210 -339t-396 -126q-190 0 -295.5 94t-105.5 260z" />
<glyph unicode="&#x1b8;" horiz-adv-x="1138" d="M-18 305q0 166 104 307.5t320 192.5l-146 432l55 256h822l-56 -256h-522l137 -395l-41 -193q-111 0 -170 -14q-96 -25 -152.5 -102.5t-56.5 -165.5q0 -76 47.5 -122t127.5 -46q205 0 264 227h278q-47 -217 -206.5 -345t-383.5 -128q-199 0 -310 94t-111 258z" />
<glyph unicode="&#x1b9;" horiz-adv-x="1320" d="M94 63q0 45 12 97q37 176 151 287.5t296 152.5l-209 270l43 203h1006l-54 -252h-606l228 -229l-48 -223h-176q-160 0 -238.5 -54.5t-99.5 -156.5q-4 -20 -4 -39q0 -74 67.5 -112t190.5 -38q141 0 224.5 47t117.5 166l25 97h291l-27 -103q-70 -240 -235.5 -354.5 t-444.5 -114.5q-246 0 -378 95t-132 261z" />
<glyph unicode="&#x1ba;" horiz-adv-x="1165" d="M27 -209q0 55 13 103.5t45 94.5t94.5 73.5t148.5 27.5q63 0 154 -16.5t104 -16.5q31 0 73.5 9.5t92 29t82 56t32.5 84.5q0 59 -64.5 96t-170.5 37h-150l47 223l295 280h-538l53 252h903l-47 -221l-313 -303q260 -61 260 -287q0 -207 -172 -357.5t-437 -150.5 q-33 0 -115.5 21.5t-103.5 21.5q-18 0 -18 -8q0 -37 47 -72.5t111 -35.5q168 0 376 73l54 21l28 -240l-49 -16q-84 -29 -122 -41t-140 -30.5t-201 -18.5q-184 0 -278 88t-94 223z" />
<glyph unicode="&#x1bb;" horiz-adv-x="1185" d="M43 2l14 53q55 213 142.5 322.5t269.5 222.5l-82 35l57 268l326 -143l66 33q190 96 221 241q6 25 6 49q0 76 -53.5 124t-141.5 48q-72 0 -126 -25.5t-87.5 -72.5t-53 -92t-38.5 -109l-12 -47h-281l13 54q20 84 49.5 156.5t83 148t121 128t169 86.5t224.5 34 q197 0 311.5 -101.5t114.5 -269.5q0 -51 -10 -107q-51 -238 -297 -403l112 -49l-57 -269l-356 158l-68 -31q-78 -37 -100.5 -49t-63.5 -35.5t-59.5 -43t-34.5 -46.5h749l-57 -268h-1071z" />
<glyph unicode="&#x1be;" d="M1053 551q0 -45 -12 -107q-45 -209 -215 -340t-396 -131q-57 0 -108 8.5t-107.5 32t-96.5 62.5t-65.5 106.5t-25.5 155.5q0 80 20 174h279q-12 -55 -12 -100q0 -100 49 -148.5t125 -48.5q92 0 167.5 67.5t96.5 168.5q6 29 6 53q0 49 -23.5 88t-58.5 69.5t-69.5 65.5 t-58 92.5t-23.5 130.5q0 59 14 131l8 37h-180l41 191h180l39 184h254l-39 -184h178l-41 -191h-178l-8 -37q-12 -66 -12 -96q0 -41 20 -69.5t78 -77.5q94 -80 134 -143.5t40 -143.5z" />
<glyph unicode="&#x1bf;" horiz-adv-x="1245" d="M25 -410l323 1514h275l-23 -100q113 78 213 105.5t244 27.5q131 0 211 -80t80 -217q0 -51 -13 -107q-18 -92 -69.5 -182t-111.5 -161t-150.5 -145.5t-160 -123.5t-171 -108.5t-151.5 -85t-130 -66.5q-27 -14 -37 -19l-55 -252h-274zM418 147q100 59 162.5 98.5t154.5 106 t148.5 123.5t106.5 132t67 151q2 14 2 28q0 88 -125 88q-72 0 -176.5 -39.5t-222.5 -138.5z" />
<glyph unicode="&#x1c0;" horiz-adv-x="532" d="M117 -410l405 1903h164l-405 -1903h-164z" />
<glyph unicode="&#x1c1;" horiz-adv-x="757" d="M342 -410l405 1903h164l-405 -1903h-164zM117 -410l405 1903h164l-405 -1903h-164z" />
<glyph unicode="&#x1c2;" horiz-adv-x="1196" d="M139 217l35 164h430l39 188h-430l35 164h430l162 764h143l-162 -764h439l-35 -164h-439l-38 -188h438l-35 -164h-438l-135 -627h-144l135 627h-430z" />
<glyph unicode="&#x1c3;" horiz-adv-x="569" d="M229 0l64 299h307l-63 -299h-308zM406 424l49 633l92 430h307l-92 -430l-219 -633h-137z" />
<glyph unicode="&#x1c4;" horiz-adv-x="2729" d="M158 0l317 1493h584q279 0 404.5 -122t125.5 -390q0 -59 -8 -130t-31.5 -168t-61.5 -188.5t-104.5 -182.5t-152.5 -159.5t-212 -110.5t-278 -42h-583zM520 256h275q123 0 217 59.5t143 141.5t81 188.5t40 180t8 135.5q0 276 -280 276h-277zM1540 0l56 256l970 981h-763 l55 256h1122l-55 -256l-971 -981h764l-55 -256h-1123zM2140 1906h160l125 -198l211 198h155l-284 -301h-222z" />
<glyph unicode="&#x1c5;" horiz-adv-x="2502" d="M158 0l317 1493h584q279 0 404.5 -122t125.5 -390q0 -59 -8 -130t-31.5 -168t-61.5 -188.5t-104.5 -182.5t-152.5 -159.5t-212 -110.5t-278 -42h-583zM520 256h275q123 0 217 59.5t143 141.5t81 188.5t40 180t8 135.5q0 276 -280 276h-277zM1999 1544h160l125 -198 l211 198h155l-284 -301h-222zM1522 0l49 231l684 643h-510l49 232h863l-50 -232l-679 -643h561l-49 -231h-918z" />
<glyph unicode="&#x1c6;" horiz-adv-x="2275" d="M162 379q0 266 160 498q80 115 197.5 181t242.5 66q203 0 272 -161l113 530h287l-318 -1493h-287l25 113q-139 -160 -340 -160q-160 0 -256 116.5t-96 309.5zM455 422q0 -111 48 -175.5t130 -64.5q131 0 228 143.5t97 336.5q0 106 -48 169.5t-132 63.5 q-127 0 -225 -143.5t-98 -329.5zM1771 1544h160l125 -198l211 198h155l-284 -301h-222zM1294 0l49 231l684 643h-510l49 232h863l-50 -232l-679 -643h561l-49 -231h-918z" />
<glyph unicode="&#x1c7;" horiz-adv-x="2390" d="M164 0l317 1493h307l-262 -1237h715l-55 -256h-1022zM1372 272q0 70 14 134l31 147h307l-33 -158q-8 -35 -8 -69q0 -49 38 -80t97 -31q164 0 203 174l236 1104h307l-236 -1104q-51 -242 -205 -342q-145 -94 -366 -94q-180 0 -282.5 84.5t-102.5 234.5z" />
<glyph unicode="&#x1c8;" horiz-adv-x="1820" d="M164 0l317 1493h307l-262 -1237h715l-55 -256h-1022zM1163 -436l49 227q10 -8 51 -8q47 0 70.5 20.5t34.5 69.5l262 1233h287l-277 -1299q-29 -133 -120 -193t-265 -60q-57 0 -92 10zM1657 1237l55 256h287l-56 -256h-286z" />
<glyph unicode="&#x1c9;" horiz-adv-x="1138" d="M137 0l318 1493h286l-317 -1493h-287zM481 -436l49 227q10 -8 51 -8q47 0 70.5 20.5t34.5 69.5l262 1233h287l-277 -1299q-29 -133 -120 -193t-265 -60q-57 0 -92 10zM975 1237l55 256h287l-56 -256h-286z" />
<glyph unicode="&#x1ca;" horiz-adv-x="2617" d="M139 0l318 1493h307l393 -1055l223 1055h291l-317 -1493h-303l-394 1071l-227 -1071h-291zM1600 272q0 70 14 134l31 147h307l-33 -158q-8 -35 -8 -69q0 -49 38 -80t97 -31q164 0 203 174l236 1104h307l-236 -1104q-51 -242 -205 -342q-145 -94 -366 -94 q-180 0 -282.5 84.5t-102.5 234.5z" />
<glyph unicode="&#x1cb;" horiz-adv-x="2048" d="M139 0l318 1493h307l393 -1055l223 1055h291l-317 -1493h-303l-394 1071l-227 -1071h-291zM1391 -436l49 227q10 -8 51 -8q47 0 70.5 20.5t34.5 69.5l262 1233h287l-277 -1299q-29 -133 -120 -193t-265 -60q-57 0 -92 10zM1885 1237l55 256h287l-56 -256h-286z" />
<glyph unicode="&#x1cc;" horiz-adv-x="1820" d="M129 0l236 1106h286l-37 -168q82 98 170 142t203 44q137 0 219 -73.5t82 -196.5q0 -55 -12 -113l-158 -741h-287l138 641q12 68 12 100q0 154 -152 154q-102 0 -176.5 -72.5t-103.5 -199.5l-133 -623h-287zM1163 -436l49 227q10 -8 51 -8q47 0 70.5 20.5t34.5 69.5 l262 1233h287l-277 -1299q-29 -133 -120 -193t-265 -60q-57 0 -92 10zM1657 1237l55 256h287l-56 -256h-286z" />
<glyph unicode="&#x1cd;" horiz-adv-x="1478" d="M827 1908h160l125 -198l211 198h155l-284 -301h-222zM53 0l834 1493h354l199 -1493h-314l-36 301h-558l-165 -301h-314zM674 557h387l-72 580z" />
<glyph unicode="&#x1ce;" horiz-adv-x="1138" d="M555 1548h160l125 -198l211 198h155l-284 -301h-222zM102 221q0 31 8.5 71t36 95t70.5 102.5t121 89.5t178 58l119 18q8 2 34.5 5.5t39 5.5t38 7t38 10t33 12t31.5 17.5t22.5 25t16.5 31.5t5 38q0 88 -150 88q-98 0 -150 -35t-79 -119h-268q43 201 173 292t372 91 q117 0 199.5 -23.5t121.5 -63.5t55.5 -78.5t16.5 -81.5q0 -37 -13 -93l-129 -614q-6 -25 -6 -43q0 -43 43 -92l-8 -35h-313q-14 31 -14.5 55.5t6.5 55.5q-176 -158 -342 -158q-137 0 -221.5 73.5t-84.5 194.5zM395 285q0 -102 150 -103q104 0 175 67.5t99 194.5l17 78 q-25 -14 -97 -28l-135 -23q-100 -16 -154.5 -65t-54.5 -121z" />
<glyph unicode="&#x1cf;" horiz-adv-x="569" d="M356 1902h160l125 -198l211 198h155l-284 -301h-222zM129 0l317 1493h308l-318 -1493h-307z" />
<glyph unicode="&#x1d0;" horiz-adv-x="569" d="M285 1548h160l125 -198l211 198h155l-284 -301h-222zM137 0l236 1106h286l-235 -1106h-287z" />
<glyph unicode="&#x1d1;" horiz-adv-x="1593" d="M856 1906h160l125 -198l211 198h155l-284 -301h-222zM217 535q0 176 68.5 358t187.5 324q250 301 629 301q281 0 437.5 -155t156.5 -431q0 -182 -66.5 -360.5t-185.5 -317.5q-131 -156 -284.5 -228.5t-350.5 -72.5q-274 0 -433 157t-159 425zM522 578q0 -168 90 -265.5 t246 -97.5q106 0 194.5 40t143.5 106.5t96 142.5t60.5 155.5t29 137t9.5 98.5q0 170 -87 265t-241 95q-106 0 -195.5 -39.5t-145.5 -105.5t-97 -140.5t-62.5 -154.5t-31 -138t-9.5 -99z" />
<glyph unicode="&#x1d2;" d="M610 1548h160l125 -198l211 198h155l-284 -301h-222zM168 362q0 317 187.5 539.5t490.5 222.5q211 0 331.5 -109.5t120.5 -299.5q0 -324 -190 -543t-496 -219q-203 0 -323.5 111.5t-120.5 297.5zM461 420q0 -109 55 -173.5t148 -64.5q96 0 167.5 56.5t106.5 139.5 t51.5 154.5t16.5 122.5q0 109 -55.5 174.5t-149.5 65.5q-139 0 -239.5 -140t-100.5 -335z" />
<glyph unicode="&#x1d3;" horiz-adv-x="1478" d="M819 1904h160l125 -198l211 198h155l-284 -301h-222zM244 342q0 74 22 180l207 971h307l-215 -1012q-10 -55 -10 -92q0 -82 66.5 -128t185.5 -46q139 0 219 64.5t109 201.5l215 1012h307l-215 -1012q-53 -246 -219 -377q-193 -152 -473 -151q-231 0 -368.5 105.5 t-137.5 283.5z" />
<glyph unicode="&#x1d4;" d="M618 1548h160l125 -198l211 198h155l-284 -301h-222zM180 223q0 55 13 113l163 770h287l-143 -670q-12 -72 -13 -100q0 -154 156 -154q100 0 174 74t101 199l139 651h286l-235 -1106h-287l31 139q-82 -98 -170 -142t-203 -44q-135 0 -217 73.5t-82 196.5z" />
<glyph unicode="&#x1d5;" horiz-adv-x="1478" d="M244 342q0 74 22 180l207 971h307l-215 -1012q-10 -55 -10 -92q0 -82 66.5 -128t185.5 -46q139 0 219 64.5t109 201.5l215 1012h307l-215 -1012q-53 -246 -219 -377q-193 -152 -473 -151q-231 0 -368.5 105.5t-137.5 283.5zM790 1585l53 246h226l-54 -246h-225z M1171 1585l53 246h226l-54 -246h-225zM852 1884l35 164h614l-34 -164h-615z" />
<glyph unicode="&#x1d6;" d="M582 1268l53 246h226l-54 -246h-225zM963 1268l53 246h226l-54 -246h-225zM180 223q0 55 13 113l163 770h287l-143 -670q-12 -72 -13 -100q0 -154 156 -154q100 0 174 74t101 199l139 651h286l-235 -1106h-287l31 139q-82 -98 -170 -142t-203 -44q-135 0 -217 73.5 t-82 196.5zM665 1649l35 164h614l-34 -164h-615z" />
<glyph unicode="&#x1d7;" horiz-adv-x="1478" d="M244 342q0 74 22 180l207 971h307l-215 -1012q-10 -55 -10 -92q0 -82 66.5 -128t185.5 -46q139 0 219 64.5t109 201.5l215 1012h307l-215 -1012q-53 -246 -219 -377q-193 -152 -473 -151q-231 0 -368.5 105.5t-137.5 283.5zM793 1589l53 246h226l-54 -246h-225z M1174 1589l53 246h226l-54 -246h-225zM1020 1890l209 307h258l-324 -307h-143z" />
<glyph unicode="&#x1d8;" d="M582 1268l53 246h226l-54 -246h-225zM963 1268l53 246h226l-54 -246h-225zM180 223q0 55 13 113l163 770h287l-143 -670q-12 -72 -13 -100q0 -154 156 -154q100 0 174 74t101 199l139 651h286l-235 -1106h-287l31 139q-82 -98 -170 -142t-203 -44q-135 0 -217 73.5 t-82 196.5zM852 1644l209 307h258l-324 -307h-143z" />
<glyph unicode="&#x1d9;" horiz-adv-x="1478" d="M244 342q0 74 22 180l207 971h307l-215 -1012q-10 -55 -10 -92q0 -82 66.5 -128t185.5 -46q139 0 219 64.5t109 201.5l215 1012h307l-215 -1012q-53 -246 -219 -377q-193 -152 -473 -151q-231 0 -368.5 105.5t-137.5 283.5zM793 1581l53 246h226l-54 -246h-225z M1174 1581l53 246h226l-54 -246h-225zM881 2177h160l125 -198l211 198h155l-284 -301h-222z" />
<glyph unicode="&#x1da;" d="M582 1268l53 246h226l-54 -246h-225zM963 1268l53 246h226l-54 -246h-225zM180 223q0 55 13 113l163 770h287l-143 -670q-12 -72 -13 -100q0 -154 156 -154q100 0 174 74t101 199l139 651h286l-235 -1106h-287l31 139q-82 -98 -170 -142t-203 -44q-135 0 -217 73.5 t-82 196.5zM676 1941h160l125 -198l211 198h155l-284 -301h-222z" />
<glyph unicode="&#x1db;" horiz-adv-x="1478" d="M244 342q0 74 22 180l207 971h307l-215 -1012q-10 -55 -10 -92q0 -82 66.5 -128t185.5 -46q139 0 219 64.5t109 201.5l215 1012h307l-215 -1012q-53 -246 -219 -377q-193 -152 -473 -151q-231 0 -368.5 105.5t-137.5 283.5zM793 1581l53 246h226l-54 -246h-225z M1174 1581l53 246h226l-54 -246h-225zM913 2177h244l92 -307h-129z" />
<glyph unicode="&#x1dc;" d="M582 1268l53 246h226l-54 -246h-225zM963 1268l53 246h226l-54 -246h-225zM180 223q0 55 13 113l163 770h287l-143 -670q-12 -72 -13 -100q0 -154 156 -154q100 0 174 74t101 199l139 651h286l-235 -1106h-287l31 139q-82 -98 -170 -142t-203 -44q-135 0 -217 73.5 t-82 196.5zM723 1933h244l92 -307h-129z" />
<glyph unicode="&#x1dd;" horiz-adv-x="1138" d="M989 698q0 -49 -10.5 -112.5t-35 -152.5t-72.5 -170t-115.5 -152.5t-174 -114.5t-237.5 -43q-195 0 -314.5 112.5t-119.5 292.5q0 117 36 256h744q6 57 6 92q0 84 -53 136.5t-141 52.5q-74 0 -136.5 -35t-93.5 -94h-282q84 170 232 264t335 94q193 0 312.5 -118 t119.5 -308zM653 424h-451v-31q0 -211 177 -211q206 0 274 242z" />
<glyph unicode="&#x1de;" horiz-adv-x="1478" d="M53 0l834 1493h354l199 -1493h-314l-36 301h-558l-165 -301h-314zM674 557h387l-72 580zM793 1585l53 246h226l-54 -246h-225zM1174 1585l53 246h226l-54 -246h-225zM858 1884l35 164h614l-34 -164h-615z" />
<glyph unicode="&#x1df;" horiz-adv-x="1138" d="M534 1268l53 246h226l-54 -246h-225zM915 1268l53 246h226l-54 -246h-225zM102 221q0 31 8.5 71t36 95t70.5 102.5t121 89.5t178 58l119 18q8 2 34.5 5.5t39 5.5t38 7t38 10t33 12t31.5 17.5t22.5 25t16.5 31.5t5 38q0 88 -150 88q-98 0 -150 -35t-79 -119h-268 q43 201 173 292t372 91q117 0 199.5 -23.5t121.5 -63.5t55.5 -78.5t16.5 -81.5q0 -37 -13 -93l-129 -614q-6 -25 -6 -43q0 -43 43 -92l-8 -35h-313q-14 31 -14.5 55.5t6.5 55.5q-176 -158 -342 -158q-137 0 -221.5 73.5t-84.5 194.5zM395 285q0 -102 150 -103 q104 0 175 67.5t99 194.5l17 78q-25 -14 -97 -28l-135 -23q-100 -16 -154.5 -65t-54.5 -121zM602 1649l35 164h614l-34 -164h-615z" />
<glyph unicode="&#x1e0;" horiz-adv-x="1478" d="M53 0l834 1493h354l199 -1493h-314l-36 301h-558l-165 -301h-314zM674 557h387l-72 580zM983 1577l53 246h225l-53 -246h-225zM850 1884l35 164h614l-34 -164h-615z" />
<glyph unicode="&#x1e1;" horiz-adv-x="1138" d="M705 1247l53 246h225l-53 -246h-225zM102 221q0 31 8.5 71t36 95t70.5 102.5t121 89.5t178 58l119 18q8 2 34.5 5.5t39 5.5t38 7t38 10t33 12t31.5 17.5t22.5 25t16.5 31.5t5 38q0 88 -150 88q-98 0 -150 -35t-79 -119h-268q43 201 173 292t372 91q117 0 199.5 -23.5 t121.5 -63.5t55.5 -78.5t16.5 -81.5q0 -37 -13 -93l-129 -614q-6 -25 -6 -43q0 -43 43 -92l-8 -35h-313q-14 31 -14.5 55.5t6.5 55.5q-176 -158 -342 -158q-137 0 -221.5 73.5t-84.5 194.5zM395 285q0 -102 150 -103q104 0 175 67.5t99 194.5l17 78q-25 -14 -97 -28 l-135 -23q-100 -16 -154.5 -65t-54.5 -121zM600 1624l35 164h614l-34 -164h-615z" />
<glyph unicode="&#x1e2;" horiz-adv-x="2048" d="M1286 1641l35 164h614l-34 -164h-615zM2 0l860 1493h1399l-53 -256h-752l-74 -338h695l-54 -256h-694l-82 -387h791l-56 -256h-1097l65 311h-448l-174 -311h-326zM635 567h371l143 670h-135z" />
<glyph unicode="&#x1e3;" horiz-adv-x="1820" d="M856 1288l35 164h614l-34 -164h-615zM111 217q0 31 6 68t31.5 94t66.5 105t122 91t187 62l117 18q6 0 35 4.5t40 6.5t37.5 7t39 10t33 12t31.5 17.5t22.5 25t16.5 31.5t5 38q0 88 -149 88q-98 0 -150.5 -35t-79.5 -119h-268q37 176 129 258q141 125 420 125 q231 0 330 -100q150 100 337 100q195 0 311.5 -115.5t116.5 -289.5q0 -117 -36 -256h-742q-14 -61 -14 -105q0 -78 54 -127t143 -49q76 0 139 35t94 94h283q-82 -164 -238 -261t-340 -97q-281 0 -371 205q-109 -115 -205 -160t-237 -45q-150 0 -233.5 69.5t-83.5 194.5z M403 285q0 -102 146 -103q106 0 178 66.5t100 193.5l17 78q-27 -12 -53 -20q-4 0 -18.5 -2t-24.5 -4l-136 -23q-100 -16 -154.5 -65t-54.5 -121zM1163 653h443v56q0 88 -45 137t-129 49q-203 0 -269 -242z" />
<glyph unicode="&#x1e4;" horiz-adv-x="1660" d="M221 535q0 135 38 273t117 265t185.5 226.5t255 159t316.5 59.5q252 0 397 -120t145 -327q0 -27 -4 -55h-289q-12 100 -59 149q-84 90 -246 90q-111 0 -204 -45t-154.5 -115.5t-104.5 -160.5t-61 -177t-18 -167q0 -170 89 -272.5t240 -102.5q143 0 273 90h-213l34 164 h326q16 33 31 78h-340l53 256h598l-70 -334h175l-35 -164h-174l-66 -309h-184l4 197q-113 -125 -231.5 -182.5t-270.5 -57.5q-254 0 -403.5 160t-149.5 422z" />
<glyph unicode="&#x1e5;" horiz-adv-x="1312" d="M59 -184q0 25 4 51h297q8 -129 177 -129q70 0 133 29h-107l29 137h217q12 29 18 59l33 150q-100 -90 -175 -125t-173 -35q-166 0 -258 106.5t-92 289.5t78.5 361.5t221 296t306.5 117.5q94 0 158.5 -45t107.5 -143l37 170h272l-243 -1143q-6 -31 -17 -59h191l-29 -137 h-233q-164 -213 -525 -213q-201 0 -314.5 69.5t-113.5 192.5zM457 416q0 -102 45 -162.5t125 -60.5q96 0 176 69.5t121 171t41 207.5q0 111 -50.5 177.5t-136.5 66.5q-92 0 -167.5 -77t-114.5 -183.5t-39 -208.5z" />
<glyph unicode="&#x1e6;" horiz-adv-x="1593" d="M885 1894h160l125 -198l211 198h155l-284 -301h-222zM219 537q0 178 68.5 361t189.5 323q256 297 643 297q250 0 403.5 -120t153.5 -315q0 -10 -4 -67h-282q-12 115 -97.5 177t-230.5 62q-262 0 -412 -229q-55 -84 -91 -210t-36 -234q0 -158 99.5 -262.5t248.5 -104.5 q98 0 181.5 36t135.5 93t81.5 107.5t44.5 95.5h-340l55 256h598l-172 -807h-184l14 184q-115 -121 -224.5 -174t-252.5 -53q-270 0 -430 158t-160 426z" />
<glyph unicode="&#x1e7;" d="M539 1548h160l125 -198l211 198h155l-284 -301h-222zM53 -197q0 27 6 64h295l-2 -25q0 -45 50.5 -74.5t125.5 -29.5q113 0 195 62.5t104 162.5l33 150q-98 -90 -172 -125t-168 -35q-156 0 -257 110.5t-101 278.5q0 150 53 305.5t141 263.5q172 213 418 213 q178 0 260 -188l37 170h272l-243 -1143q-41 -197 -202 -303t-417 -106q-231 0 -329.5 74.5t-98.5 174.5zM455 412q0 -106 46 -168t126 -62q137 0 237.5 138.5t100.5 324.5q0 115 -51.5 182.5t-137.5 67.5q-125 0 -223 -147.5t-98 -335.5z" />
<glyph unicode="&#x1e8;" horiz-adv-x="1478" d="M831 1896h160l125 -198l211 198h155l-284 -301h-222zM152 0l317 1493h307l-139 -655l725 655h364l-739 -653l481 -840h-366l-354 643l-187 -164l-102 -479h-307z" />
<glyph unicode="&#x1e9;" horiz-adv-x="1138" d="M661 1816h160l125 -198l211 198h155l-284 -301h-222zM121 0l317 1493h287l-174 -817l457 430h325l-475 -422l264 -684h-336l-161 489l-140 -127l-77 -362h-287z" />
<glyph unicode="&#x1ea;" horiz-adv-x="1593" d="M217 535q0 176 68.5 358t187.5 324q250 301 629 301q281 0 437.5 -155t156.5 -431q0 -180 -66.5 -358.5t-185.5 -319.5q-133 -156 -285.5 -228.5t-349.5 -72.5q-23 0 -45 2q-229 -135 -229 -279q0 -82 102 -82q82 0 145 23l-20 -106q-98 -18 -158 -19q-127 0 -200.5 42 t-73.5 114q0 102 75.5 179t233.5 142h8q-203 43 -316.5 192t-113.5 374zM522 578q0 -168 90 -265.5t246 -97.5q106 0 194.5 40t143.5 106.5t96 142.5t60.5 155.5t29 137t9.5 98.5q0 170 -87 265t-241 95q-106 0 -195.5 -39.5t-145.5 -105.5t-97 -140.5t-62.5 -154.5 t-31 -138t-9.5 -99z" />
<glyph unicode="&#x1eb;" d="M168 362q0 317 187.5 539.5t490.5 222.5q211 0 331.5 -109.5t120.5 -299.5q0 -281 -145 -486.5t-389 -259.5q-4 -2 -10 -6q-43 -25 -72 -44t-76 -58t-72.5 -86t-25.5 -99q0 -82 102 -82q82 0 146 23l-21 -106q-98 -18 -157 -19q-127 0 -201 42t-74 114q0 96 66.5 169.5 t208.5 135.5q-188 10 -299 120.5t-111 288.5zM461 420q0 -109 55 -173.5t148 -64.5q96 0 167.5 56.5t106.5 139.5t51.5 154.5t16.5 122.5q0 109 -55.5 174.5t-149.5 65.5q-139 0 -239.5 -140t-100.5 -335z" />
<glyph unicode="&#x1ec;" horiz-adv-x="1593" d="M821 1641l35 164h614l-34 -164h-615zM217 535q0 176 68.5 358t187.5 324q250 301 629 301q281 0 437.5 -155t156.5 -431q0 -180 -66.5 -358.5t-185.5 -319.5q-133 -156 -285.5 -228.5t-349.5 -72.5q-23 0 -45 2q-229 -135 -229 -279q0 -82 102 -82q82 0 145 23l-20 -106 q-98 -18 -158 -19q-127 0 -200.5 42t-73.5 114q0 102 75.5 179t233.5 142h8q-203 43 -316.5 192t-113.5 374zM522 578q0 -168 90 -265.5t246 -97.5q106 0 194.5 40t143.5 106.5t96 142.5t60.5 155.5t29 137t9.5 98.5q0 170 -87 265t-241 95q-106 0 -195.5 -39.5 t-145.5 -105.5t-97 -140.5t-62.5 -154.5t-31 -138t-9.5 -99z" />
<glyph unicode="&#x1ed;" d="M565 1247l35 164h614l-34 -164h-615zM168 362q0 317 187.5 539.5t490.5 222.5q211 0 331.5 -109.5t120.5 -299.5q0 -281 -145 -486.5t-389 -259.5q-4 -2 -10 -6q-43 -25 -72 -44t-76 -58t-72.5 -86t-25.5 -99q0 -82 102 -82q82 0 146 23l-21 -106q-98 -18 -157 -19 q-127 0 -201 42t-74 114q0 96 66.5 169.5t208.5 135.5q-188 10 -299 120.5t-111 288.5zM461 420q0 -109 55 -173.5t148 -64.5q96 0 167.5 56.5t106.5 139.5t51.5 154.5t16.5 122.5q0 109 -55.5 174.5t-149.5 65.5q-139 0 -239.5 -140t-100.5 -335z" />
<glyph unicode="&#x1ee;" horiz-adv-x="1138" d="M-16 307q0 53 12 119h278q-4 -23 -4 -61q0 -166 174 -166q74 0 130.5 32.5t83 80.5t40 89t13.5 70q0 129 -117 164q-55 14 -166 14l41 193l305 395h-522l55 256h821l-55 -256l-325 -432q33 -10 52 -16.5t62 -31t68.5 -55t47 -85t21.5 -121.5q0 -43 -8 -78 q-45 -213 -210 -339t-396 -126q-190 0 -295.5 94t-105.5 260zM518 1947h160l125 -198l211 198h155l-284 -301h-222z" />
<glyph unicode="&#x1ef;" horiz-adv-x="1138" d="M-2 61q0 55 14 119h279q-6 -33 -6 -61q0 -166 174 -166q59 0 108 22.5t78 55t48.5 71.5t26.5 70t7 53q0 61 -31.5 104.5t-87.5 59.5q-53 14 -164 14l41 193l295 278h-510l49 232h861l-50 -232l-339 -317q98 -31 162.5 -102.5t64.5 -188.5q0 -29 -6 -66.5t-24.5 -93 t-47.5 -107.5t-77 -106.5t-110.5 -94.5t-153.5 -65.5t-200 -25.5q-188 0 -294.5 94t-106.5 260zM553 1554h160l125 -198l211 198h155l-284 -301h-222z" />
<glyph unicode="&#x1f0;" horiz-adv-x="569" d="M-88 -436l49 227q10 -8 51 -8q47 0 70.5 20.5t34.5 69.5l262 1233h287l-277 -1299q-29 -133 -120 -193t-265 -60q-57 0 -92 10zM287 1530h160l125 -198l211 198h155l-284 -301h-222z" />
<glyph unicode="&#x1f1;" horiz-adv-x="2729" d="M158 0l317 1493h584q279 0 404.5 -122t125.5 -390q0 -59 -8 -130t-31.5 -168t-61.5 -188.5t-104.5 -182.5t-152.5 -159.5t-212 -110.5t-278 -42h-583zM520 256h275q123 0 217 59.5t143 141.5t81 188.5t40 180t8 135.5q0 276 -280 276h-277zM1540 0l56 256l970 981h-763 l55 256h1122l-55 -256l-971 -981h764l-55 -256h-1123z" />
<glyph unicode="&#x1f2;" horiz-adv-x="2502" d="M158 0l317 1493h584q279 0 404.5 -122t125.5 -390q0 -59 -8 -130t-31.5 -168t-61.5 -188.5t-104.5 -182.5t-152.5 -159.5t-212 -110.5t-278 -42h-583zM520 256h275q123 0 217 59.5t143 141.5t81 188.5t40 180t8 135.5q0 276 -280 276h-277zM1522 0l49 231l684 643h-510 l49 232h863l-50 -232l-679 -643h561l-49 -231h-918z" />
<glyph unicode="&#x1f3;" horiz-adv-x="2275" d="M162 379q0 266 160 498q80 115 197.5 181t242.5 66q203 0 272 -161l113 530h287l-318 -1493h-287l25 113q-139 -160 -340 -160q-160 0 -256 116.5t-96 309.5zM455 422q0 -111 48 -175.5t130 -64.5q131 0 228 143.5t97 336.5q0 106 -48 169.5t-132 63.5 q-127 0 -225 -143.5t-98 -329.5zM1294 0l49 231l684 643h-510l49 232h863l-50 -232l-679 -643h561l-49 -231h-918z" />
<glyph unicode="&#x1f4;" horiz-adv-x="1593" d="M989 1612l209 307h258l-324 -307h-143zM219 537q0 178 68.5 361t189.5 323q256 297 643 297q250 0 403.5 -120t153.5 -315q0 -10 -4 -67h-282q-12 115 -97.5 177t-230.5 62q-262 0 -412 -229q-55 -84 -91 -210t-36 -234q0 -158 99.5 -262.5t248.5 -104.5q98 0 181.5 36 t135.5 93t81.5 107.5t44.5 95.5h-340l55 256h598l-172 -807h-184l14 184q-115 -121 -224.5 -174t-252.5 -53q-270 0 -430 158t-160 426z" />
<glyph unicode="&#x1f5;" d="M729 1247l209 307h258l-324 -307h-143zM53 -197q0 27 6 64h295l-2 -25q0 -45 50.5 -74.5t125.5 -29.5q113 0 195 62.5t104 162.5l33 150q-98 -90 -172 -125t-168 -35q-156 0 -257 110.5t-101 278.5q0 150 53 305.5t141 263.5q172 213 418 213q178 0 260 -188l37 170h272 l-243 -1143q-41 -197 -202 -303t-417 -106q-231 0 -329.5 74.5t-98.5 174.5zM455 412q0 -106 46 -168t126 -62q137 0 237.5 138.5t100.5 324.5q0 115 -51.5 182.5t-137.5 67.5q-125 0 -223 -147.5t-98 -335.5z" />
<glyph unicode="&#x1f7;" horiz-adv-x="1290" d="M135 2l318 1487h297l-23 -100q113 78 213 105.5t244 27.5q133 0 218 -82t85 -221q0 -111 -52.5 -225.5t-128 -206t-186 -184.5t-201 -155.5t-199 -125t-152.5 -85t-89 -44.5l-6 -3l-41 -188h-297zM541 512q184 109 317 213t200.5 185t96.5 141.5t29 105.5q0 37 -40 62.5 t-87 25.5q-70 0 -174.5 -41t-225.5 -139z" />
<glyph unicode="&#x1f8;" horiz-adv-x="1478" d="M856 1908h244l92 -307h-129zM139 0l318 1493h307l393 -1055l223 1055h291l-317 -1493h-303l-394 1071l-227 -1071h-291z" />
<glyph unicode="&#x1f9;" d="M618 1554h244l92 -307h-129zM129 0l236 1106h286l-37 -168q82 98 170 142t203 44q137 0 219 -73.5t82 -196.5q0 -55 -12 -113l-158 -741h-287l138 641q12 68 12 100q0 154 -152 154q-102 0 -176.5 -72.5t-103.5 -199.5l-133 -623h-287z" />
<glyph unicode="&#x1fa;" horiz-adv-x="1478" d="M53 0l834 1119.75h354l199 -1119.75h-314l-36 225.75h-558l-165 -225.75h-314zM674 417.75h387l-72 435zM925 1333q0 88 70 155.5t160 67.5q63 0 105 -41t42 -104q0 -88 -69.5 -156t-159.5 -68q-63 0 -105.5 41.5t-42.5 104.5zM1026 1355q0 -29 19.5 -47t49.5 -18 q41 0 74 30.5t33 69.5q0 27 -19.5 45.5t-48.5 18.5q-41 0 -74.5 -30t-33.5 -69zM1059 1624l209 307h258l-324 -307h-143z" />
<glyph unicode="&#x1fb;" horiz-adv-x="1138" d="M768 1675l209 307h258l-324 -307h-143zM674 1362q0 88 70 155.5t160 67.5q63 0 105 -41t42 -104q0 -88 -69.5 -156t-159.5 -68q-63 0 -105.5 41.5t-42.5 104.5zM775 1384q0 -29 19.5 -47t49.5 -18q41 0 74 30.5t33 69.5q0 27 -19.5 45.5t-48.5 18.5q-41 0 -74.5 -30 t-33.5 -69zM102 221q0 31 8.5 71t36 95t70.5 102.5t121 89.5t178 58l119 18q8 2 34.5 5.5t39 5.5t38 7t38 10t33 12t31.5 17.5t22.5 25t16.5 31.5t5 38q0 88 -150 88q-98 0 -150 -35t-79 -119h-268q43 201 173 292t372 91q117 0 199.5 -23.5t121.5 -63.5t55.5 -78.5 t16.5 -81.5q0 -37 -13 -93l-129 -614q-6 -25 -6 -43q0 -43 43 -92l-8 -35h-313q-14 31 -14.5 55.5t6.5 55.5q-176 -158 -342 -158q-137 0 -221.5 73.5t-84.5 194.5zM395 285q0 -102 150 -103q104 0 175 67.5t99 194.5l17 78q-25 -14 -97 -28l-135 -23q-100 -16 -154.5 -65 t-54.5 -121z" />
<glyph unicode="&#x1fc;" horiz-adv-x="2048" d="M1444 1603l209 307h258l-324 -307h-143zM2 0l860 1493h1399l-53 -256h-752l-74 -338h695l-54 -256h-694l-82 -387h791l-56 -256h-1097l65 311h-448l-174 -311h-326zM635 567h371l143 670h-135z" />
<glyph unicode="&#x1fd;" horiz-adv-x="1820" d="M1092 1247l209 307h258l-324 -307h-143zM111 217q0 31 6 68t31.5 94t66.5 105t122 91t187 62l117 18q6 0 35 4.5t40 6.5t37.5 7t39 10t33 12t31.5 17.5t22.5 25t16.5 31.5t5 38q0 88 -149 88q-98 0 -150.5 -35t-79.5 -119h-268q37 176 129 258q141 125 420 125 q231 0 330 -100q150 100 337 100q195 0 311.5 -115.5t116.5 -289.5q0 -117 -36 -256h-742q-14 -61 -14 -105q0 -78 54 -127t143 -49q76 0 139 35t94 94h283q-82 -164 -238 -261t-340 -97q-281 0 -371 205q-109 -115 -205 -160t-237 -45q-150 0 -233.5 69.5t-83.5 194.5z M403 285q0 -102 146 -103q106 0 178 66.5t100 193.5l17 78q-27 -12 -53 -20q-4 0 -18.5 -2t-24.5 -4l-136 -23q-100 -16 -154.5 -65t-54.5 -121zM1163 653h443v56q0 88 -45 137t-129 49q-203 0 -269 -242z" />
<glyph unicode="&#x1fe;" horiz-adv-x="1593" d="M979 1608l209 307h258l-324 -307h-143zM70 14l227 203q-74 141 -74 322q0 174 68.5 356t187.5 324q256 299 641 299q289 0 443 -168l206 184l86 -92l-221 -199q70 -141 70 -317q0 -174 -68.5 -353.5t-187.5 -320.5q-256 -299 -639 -299q-293 0 -438 162l-217 -195z M528 575q0 -72 13 -139l790 705q-92 115 -264 114q-127 0 -227.5 -58t-156.5 -140t-93 -182.5t-49.5 -174.5t-12.5 -125zM602 322q90 -106 260 -107q236 0 389 215q147 201 148 469q0 68 -10 125z" />
<glyph unicode="&#x1ff;" d="M737 1263l209 307h258l-324 -307h-143zM25 4l190 160q-43 92 -43 201q0 199 80 369.5t238.5 280t363.5 109.5q231 0 354 -129l174 146l70 -84l-186 -156q37 -90 37 -196q0 -307 -190.5 -529.5t-489.5 -222.5q-219 0 -347 121l-182 -152zM465 426q0 -29 2 -51l512 428 q-57 92 -170 92q-78 0 -140.5 -39t-99.5 -94t-61.5 -124t-33.5 -121t-9 -91zM504 264q55 -82 168 -82q78 0 139 39t98 95.5t60.5 125t33 122.5t9.5 93q0 16 -2 31z" />
<glyph unicode="&#x200;" horiz-adv-x="1478" d="M596 1910h244l92 -307h-129zM981 1910h244l92 -307h-129zM53 0l834 1493h354l199 -1493h-314l-36 301h-558l-165 -301h-314zM674 557h387l-72 580z" />
<glyph unicode="&#x201;" horiz-adv-x="1138" d="M352 1554h244l92 -307h-129zM737 1554h244l92 -307h-129zM102 221q0 31 8.5 71t36 95t70.5 102.5t121 89.5t178 58l119 18q8 2 34.5 5.5t39 5.5t38 7t38 10t33 12t31.5 17.5t22.5 25t16.5 31.5t5 38q0 88 -150 88q-98 0 -150 -35t-79 -119h-268q43 201 173 292t372 91 q117 0 199.5 -23.5t121.5 -63.5t55.5 -78.5t16.5 -81.5q0 -37 -13 -93l-129 -614q-6 -25 -6 -43q0 -43 43 -92l-8 -35h-313q-14 31 -14.5 55.5t6.5 55.5q-176 -158 -342 -158q-137 0 -221.5 73.5t-84.5 194.5zM395 285q0 -102 150 -103q104 0 175 67.5t99 194.5l17 78 q-25 -14 -97 -28l-135 -23q-100 -16 -154.5 -65t-54.5 -121z" />
<glyph unicode="&#x202;" horiz-adv-x="1478" d="M1364 1676q0 -35 -12 -80h-86v16q0 55 -40 86t-112 31q-158 0 -211 -133h-86q23 127 116 210t214 83q96 0 156.5 -59.5t60.5 -153.5zM53 0l834 1493h354l199 -1493h-314l-36 301h-558l-165 -301h-314zM674 557h387l-72 580z" />
<glyph unicode="&#x203;" horiz-adv-x="1138" d="M1096 1328q0 -35 -12 -80h-86v16q0 55 -40 86t-112 31q-158 0 -211 -133h-86q23 127 116 210t214 83q96 0 156.5 -59.5t60.5 -153.5zM102 221q0 31 8.5 71t36 95t70.5 102.5t121 89.5t178 58l119 18q8 2 34.5 5.5t39 5.5t38 7t38 10t33 12t31.5 17.5t22.5 25t16.5 31.5 t5 38q0 88 -150 88q-98 0 -150 -35t-79 -119h-268q43 201 173 292t372 91q117 0 199.5 -23.5t121.5 -63.5t55.5 -78.5t16.5 -81.5q0 -37 -13 -93l-129 -614q-6 -25 -6 -43q0 -43 43 -92l-8 -35h-313q-14 31 -14.5 55.5t6.5 55.5q-176 -158 -342 -158q-137 0 -221.5 73.5 t-84.5 194.5zM395 285q0 -102 150 -103q104 0 175 67.5t99 194.5l17 78q-25 -14 -97 -28l-135 -23q-100 -16 -154.5 -65t-54.5 -121z" />
<glyph unicode="&#x204;" horiz-adv-x="1366" d="M588 1919h244l92 -307h-129zM973 1919h244l92 -307h-129zM162 0l317 1493h1082l-56 -256h-774l-72 -338h715l-53 -256h-715l-82 -387h809l-55 -256h-1116z" />
<glyph unicode="&#x205;" horiz-adv-x="1138" d="M338 1554h244l92 -307h-129zM723 1554h244l92 -307h-129zM131 379q0 49 10.5 112.5t35 152.5t72.5 170t115.5 152.5t174 114.5t237.5 43q195 0 314.5 -112.5t119.5 -292.5q0 -117 -36 -256h-744q-6 -57 -6 -92q0 -84 53 -136.5t141 -52.5q74 0 136.5 35t93.5 94h282 q-84 -170 -232 -264t-335 -94q-193 0 -312.5 118t-119.5 308zM467 653h451v31q0 211 -177 211q-206 0 -274 -242z" />
<glyph unicode="&#x206;" horiz-adv-x="1366" d="M1331 1697q0 -35 -12 -80h-86v16q0 55 -40 86t-112 31q-158 0 -211 -133h-86q23 127 116 210t214 83q96 0 156.5 -59.5t60.5 -153.5zM162 0l317 1493h1082l-56 -256h-774l-72 -338h715l-53 -256h-715l-82 -387h809l-55 -256h-1116z" />
<glyph unicode="&#x207;" horiz-adv-x="1138" d="M1081 1328q0 -35 -12 -80h-86v16q0 55 -40 86t-112 31q-158 0 -211 -133h-86q23 127 116 210t214 83q96 0 156.5 -59.5t60.5 -153.5zM131 379q0 49 10.5 112.5t35 152.5t72.5 170t115.5 152.5t174 114.5t237.5 43q195 0 314.5 -112.5t119.5 -292.5q0 -117 -36 -256h-744 q-6 -57 -6 -92q0 -84 53 -136.5t141 -52.5q74 0 136.5 35t93.5 94h282q-84 -170 -232 -264t-335 -94q-193 0 -312.5 118t-119.5 308zM467 653h451v31q0 211 -177 211q-206 0 -274 -242z" />
<glyph unicode="&#x208;" horiz-adv-x="569" d="M168 1910h244l92 -307h-129zM553 1910h244l92 -307h-129zM129 0l317 1493h308l-318 -1493h-307z" />
<glyph unicode="&#x209;" horiz-adv-x="569" d="M82 1554h244l92 -307h-129zM467 1554h244l92 -307h-129zM137 0l236 1106h286l-235 -1106h-287z" />
<glyph unicode="&#x20a;" horiz-adv-x="569" d="M909 1688q0 -35 -12 -80h-86v16q0 55 -40 86t-112 31q-158 0 -211 -133h-86q23 127 116 210t214 83q96 0 156.5 -59.5t60.5 -153.5zM129 0l317 1493h308l-318 -1493h-307z" />
<glyph unicode="&#x20b;" horiz-adv-x="569" d="M825 1328q0 -35 -12 -80h-86v16q0 55 -40 86t-112 31q-158 0 -211 -133h-86q23 127 116 210t214 83q96 0 156.5 -59.5t60.5 -153.5zM137 0l236 1106h286l-235 -1106h-287z" />
<glyph unicode="&#x20c;" horiz-adv-x="1593" d="M664 1923h244l92 -307h-129zM1049 1923h244l92 -307h-129zM217 535q0 176 68.5 358t187.5 324q250 301 629 301q281 0 437.5 -155t156.5 -431q0 -182 -66.5 -360.5t-185.5 -317.5q-131 -156 -284.5 -228.5t-350.5 -72.5q-274 0 -433 157t-159 425zM522 578 q0 -168 90 -265.5t246 -97.5q106 0 194.5 40t143.5 106.5t96 142.5t60.5 155.5t29 137t9.5 98.5q0 170 -87 265t-241 95q-106 0 -195.5 -39.5t-145.5 -105.5t-97 -140.5t-62.5 -154.5t-31 -138t-9.5 -99z" />
<glyph unicode="&#x20d;" d="M395 1554h244l92 -307h-129zM780 1554h244l92 -307h-129zM168 362q0 317 187.5 539.5t490.5 222.5q211 0 331.5 -109.5t120.5 -299.5q0 -324 -190 -543t-496 -219q-203 0 -323.5 111.5t-120.5 297.5zM461 420q0 -109 55 -173.5t148 -64.5q96 0 167.5 56.5t106.5 139.5 t51.5 154.5t16.5 122.5q0 109 -55.5 174.5t-149.5 65.5q-139 0 -239.5 -140t-100.5 -335z" />
<glyph unicode="&#x20e;" horiz-adv-x="1593" d="M1405 1699q0 -35 -12 -80h-86v16q0 55 -40 86t-112 31q-158 0 -211 -133h-86q23 127 116 210t214 83q96 0 156.5 -59.5t60.5 -153.5zM217 535q0 176 68.5 358t187.5 324q250 301 629 301q281 0 437.5 -155t156.5 -431q0 -182 -66.5 -360.5t-185.5 -317.5 q-131 -156 -284.5 -228.5t-350.5 -72.5q-274 0 -433 157t-159 425zM522 578q0 -168 90 -265.5t246 -97.5q106 0 194.5 40t143.5 106.5t96 142.5t60.5 155.5t29 137t9.5 98.5q0 170 -87 265t-241 95q-106 0 -195.5 -39.5t-145.5 -105.5t-97 -140.5t-62.5 -154.5t-31 -138 t-9.5 -99z" />
<glyph unicode="&#x20f;" d="M1151 1328q0 -35 -12 -80h-86v16q0 55 -40 86t-112 31q-158 0 -211 -133h-86q23 127 116 210t214 83q96 0 156.5 -59.5t60.5 -153.5zM168 362q0 317 187.5 539.5t490.5 222.5q211 0 331.5 -109.5t120.5 -299.5q0 -324 -190 -543t-496 -219q-203 0 -323.5 111.5 t-120.5 297.5zM461 420q0 -109 55 -173.5t148 -64.5q96 0 167.5 56.5t106.5 139.5t51.5 154.5t16.5 122.5q0 109 -55.5 174.5t-149.5 65.5q-139 0 -239.5 -140t-100.5 -335z" />
<glyph unicode="&#x210;" horiz-adv-x="1478" d="M580 1917h244l92 -307h-129zM965 1917h244l92 -307h-129zM164 0l317 1493h772q100 0 174 -31.5t111 -81t53.5 -98.5t16.5 -96q0 -84 -28 -158t-62.5 -120t-91 -89t-86 -59.5t-74.5 -38.5q160 -53 159 -168q0 -70 -31.5 -231.5t-31.5 -196.5q0 -41 37 -70l-13 -55h-325 q-16 51 -17 84q0 70 39 217.5t39 177.5q0 113 -174 113h-352l-125 -592h-307zM651 848h371q82 0 140.5 25.5t87 66.5t41 79t12.5 75q0 143 -226 143h-344z" />
<glyph unicode="&#x211;" horiz-adv-x="796" d="M246 1554h244l92 -307h-129zM631 1554h244l92 -307h-129zM129 0l236 1106h286l-47 -217q72 113 166 174t193 61q18 0 34 -2l-61 -291q-49 8 -88 9q-254 0 -307 -252l-125 -588h-287z" />
<glyph unicode="&#x212;" horiz-adv-x="1478" d="M1292 1678q0 -35 -12 -80h-86v16q0 55 -40 86t-112 31q-158 0 -211 -133h-86q23 127 116 210t214 83q96 0 156.5 -59.5t60.5 -153.5zM164 0l317 1493h772q100 0 174 -31.5t111 -81t53.5 -98.5t16.5 -96q0 -84 -28 -158t-62.5 -120t-91 -89t-86 -59.5t-74.5 -38.5 q160 -53 159 -168q0 -70 -31.5 -231.5t-31.5 -196.5q0 -41 37 -70l-13 -55h-325q-16 51 -17 84q0 70 39 217.5t39 177.5q0 113 -174 113h-352l-125 -592h-307zM651 848h371q82 0 140.5 25.5t87 66.5t41 79t12.5 75q0 143 -226 143h-344z" />
<glyph unicode="&#x213;" horiz-adv-x="796" d="M989 1328q0 -35 -12 -80h-86v16q0 55 -40 86t-112 31q-158 0 -211 -133h-86q23 127 116 210t214 83q96 0 156.5 -59.5t60.5 -153.5zM129 0l236 1106h286l-47 -217q72 113 166 174t193 61q18 0 34 -2l-61 -291q-49 8 -88 9q-254 0 -307 -252l-125 -588h-287z" />
<glyph unicode="&#x214;" horiz-adv-x="1478" d="M633 1908h244l92 -307h-129zM1018 1908h244l92 -307h-129zM244 342q0 74 22 180l207 971h307l-215 -1012q-10 -55 -10 -92q0 -82 66.5 -128t185.5 -46q139 0 219 64.5t109 201.5l215 1012h307l-215 -1012q-53 -246 -219 -377q-193 -152 -473 -151q-231 0 -368.5 105.5 t-137.5 283.5z" />
<glyph unicode="&#x215;" d="M416 1554h244l92 -307h-129zM801 1554h244l92 -307h-129zM180 223q0 55 13 113l163 770h287l-143 -670q-12 -72 -13 -100q0 -154 156 -154q100 0 174 74t101 199l139 651h286l-235 -1106h-287l31 139q-82 -98 -170 -142t-203 -44q-135 0 -217 73.5t-82 196.5z" />
<glyph unicode="&#x216;" horiz-adv-x="1478" d="M1362 1684q0 -35 -12 -80h-86v16q0 55 -40 86t-112 31q-158 0 -211 -133h-86q23 127 116 210t214 83q96 0 156.5 -59.5t60.5 -153.5zM244 342q0 74 22 180l207 971h307l-215 -1012q-10 -55 -10 -92q0 -82 66.5 -128t185.5 -46q139 0 219 64.5t109 201.5l215 1012h307 l-215 -1012q-53 -246 -219 -377q-193 -152 -473 -151q-231 0 -368.5 105.5t-137.5 283.5z" />
<glyph unicode="&#x217;" d="M1159 1328q0 -35 -12 -80h-86v16q0 55 -40 86t-112 31q-158 0 -211 -133h-86q23 127 116 210t214 83q96 0 156.5 -59.5t60.5 -153.5zM180 223q0 55 13 113l163 770h287l-143 -670q-12 -72 -13 -100q0 -154 156 -154q100 0 174 74t101 199l139 651h286l-235 -1106h-287 l31 139q-82 -98 -170 -142t-203 -44q-135 0 -217 73.5t-82 196.5z" />
<glyph unicode="&#x218;" horiz-adv-x="1366" d="M156 356q0 35 8 90h299q-4 -37 -4 -47q0 -88 76.5 -136t216.5 -48q160 0 255 62.5t95 164.5q0 72 -53.5 109t-192.5 65l-201 41q-182 37 -264 110t-82 200q0 236 180.5 393.5t479.5 157.5q244 0 380 -93.5t136 -259.5q0 -51 -17 -127h-286q4 37 4 47q0 170 -271 170 q-139 0 -220 -57t-81 -156q0 -57 51.5 -88.5t196.5 -60.5l223 -45q158 -31 240 -108.5t82 -196.5q0 -74 -18.5 -147.5t-67.5 -155.5t-125 -143.5t-203 -102.5t-286 -41q-158 0 -271.5 38t-171 100.5t-83 127.5t-25.5 137zM456 -600l21 94q68 12 117 62t57 120h-137l49 229 h250l-43 -196q-16 -121 -106.5 -211t-207.5 -98z" />
<glyph unicode="&#x219;" horiz-adv-x="1138" d="M123 260q0 20 8 62h281q8 -139 217 -140q94 0 153.5 32t59.5 81q0 35 -30 55.5t-126 50.5l-162 52q-135 45 -199.5 106.5t-64.5 147.5q0 180 148.5 298.5t384.5 118.5q193 0 303 -78.5t110 -218.5q0 -33 -10 -77h-276q6 29 6 38q0 49 -48.5 78t-132.5 29 q-82 0 -131 -29.5t-49 -79.5q0 -31 28 -50t105 -42l197 -57q250 -76 250 -254q0 -197 -154.5 -313.5t-415.5 -116.5q-129 0 -223 30.5t-140 81t-67.5 98.5t-21.5 97zM340 -600l21 94q68 12 117 62t57 120h-137l49 229h250l-43 -196q-16 -121 -106.5 -211t-207.5 -98z" />
<glyph unicode="&#x21a;" d="M374 -600l21 94q68 12 117 62t57 120h-137l49 229h250l-43 -196q-16 -121 -106.5 -211t-207.5 -98zM291 1237l55 256h1196l-55 -256h-434l-265 -1237h-307l264 1237h-454z" />
<glyph unicode="&#x21b;" horiz-adv-x="681" d="M133 -600l21 94q68 12 117 62t57 120h-137l49 229h250l-43 -196q-16 -121 -106.5 -211t-207.5 -98zM207 129q0 37 10 84l143 680h-141l41 190h141l64 297h287l-64 -297h160l-41 -190h-160l-127 -602q-12 -53 -12 -70q0 -51 78 -51q25 0 67 6l-41 -201q-80 -23 -174 -22 q-113 0 -172 46t-59 130z" />
<glyph unicode="&#x21c;" horiz-adv-x="1165" d="M55 12l68 -4l45 11q29 7 109.5 34t155.5 54.5t166 71.5t155.5 89t109.5 103.5t45 117.5q0 49 -20.5 72t-63.5 43q-133 -61 -329 -119l-56 -14l-12 248l45 16q109 41 165 63.5t129 56.5t105.5 57.5t67.5 56t47 68.5t12 79q0 141 -168 141q-119 0 -184 -60t-98 -202 l-10 -49h-283l12 51q59 256 218 388.5t399 132.5q197 0 303 -90.5t106 -247.5q0 -240 -194 -402q100 -86 100 -239q0 -80 -22.5 -152t-55 -129t-94 -112.5t-114 -95.5t-141.5 -83t-150.5 -69.5t-168 -62.5t-164 -54.5t-167.5 -50.5l-55 -17z" />
<glyph unicode="&#x21d;" horiz-adv-x="995" d="M84 -18q23 6 91.5 25.5t113.5 33.5t112.5 36.5t112.5 46t90 53.5t66.5 66t21.5 74q0 33 -30 60q-121 -55 -248 -86l-62 -15v236l43 16q217 82 291 130.5t74 132.5q0 76 -98 75q-59 0 -107.5 -43t-65.5 -118l-10 -52h-278l10 52q39 186 180 304.5t324 118.5 q152 0 243 -79.5t91 -210.5q0 -92 -40 -171t-94 -128q63 -63 64 -170q0 -270 -311 -432q-152 -78 -529 -191l-55 -16v252z" />
<glyph unicode="&#x21e;" horiz-adv-x="1478" d="M805 1906h160l125 -198l211 198h155l-284 -301h-222zM139 0l318 1493h307l-119 -559h590l119 559h309l-317 -1493h-308l144 678h-592l-144 -678h-307z" />
<glyph unicode="&#x21f;" d="M709 1800h160l125 -198l211 198h155l-284 -301h-222zM137 0l318 1493h286l-118 -555q158 186 368 186q133 0 215 -74.5t82 -195.5q0 -55 -12 -113l-158 -741h-287l138 641q12 63 12 98q0 156 -150 156q-98 0 -172.5 -73.5t-101.5 -198.5l-133 -623h-287z" />
<glyph unicode="&#x224;" horiz-adv-x="1320" d="M68 2l51 238l1055 1007h-785l53 246h1151l-51 -242l-1050 -1003h841l-88 -414q-10 -47 -33.5 -90t-67.5 -87t-122 -70.5t-182 -26.5q-31 0 -66 6l-39 10l51 242l54 -4q33 -2 37 -2q49 0 66.5 9t27.5 32q8 18 14 49l21 100h-938z" />
<glyph unicode="&#x225;" horiz-adv-x="1024" d="M43 0l47 223l715 656h-533l50 229h872l-47 -221l-711 -658h596l-84 -397q-10 -47 -33.5 -90t-67.5 -87t-123 -70.5t-181 -26.5q-31 0 -66 6l-39 10l51 242l54 -4q33 -2 37 -2q49 0 66.5 9t27.5 31q6 18 14 50l21 100h-666z" />
<glyph unicode="&#x226;" horiz-adv-x="1478" d="M53 0l834 1493h354l199 -1493h-314l-36 301h-558l-165 -301h-314zM674 557h387l-72 580zM983 1641l53 246h225l-53 -246h-225z" />
<glyph unicode="&#x227;" horiz-adv-x="1138" d="M705 1247l53 246h225l-53 -246h-225zM102 221q0 31 8.5 71t36 95t70.5 102.5t121 89.5t178 58l119 18q8 2 34.5 5.5t39 5.5t38 7t38 10t33 12t31.5 17.5t22.5 25t16.5 31.5t5 38q0 88 -150 88q-98 0 -150 -35t-79 -119h-268q43 201 173 292t372 91q117 0 199.5 -23.5 t121.5 -63.5t55.5 -78.5t16.5 -81.5q0 -37 -13 -93l-129 -614q-6 -25 -6 -43q0 -43 43 -92l-8 -35h-313q-14 31 -14.5 55.5t6.5 55.5q-176 -158 -342 -158q-137 0 -221.5 73.5t-84.5 194.5zM395 285q0 -102 150 -103q104 0 175 67.5t99 194.5l17 78q-25 -14 -97 -28 l-135 -23q-100 -16 -154.5 -65t-54.5 -121z" />
<glyph unicode="&#x228;" horiz-adv-x="1366" d="M162 0l317 1493h1082l-56 -256h-774l-72 -338h715l-53 -256h-715l-82 -387h809l-55 -256h-606l-74 -113q49 12 88 13q61 0 96 -31t35 -86q0 -100 -84 -159.5t-223 -59.5q-121 0 -272 59l61 105q125 -61 201 -62q57 0 98 26.5t41 63.5q0 31 -24.5 49.5t-65.5 18.5 q-45 0 -109 -27l131 203h-409z" />
<glyph unicode="&#x229;" horiz-adv-x="1138" d="M131 379q0 49 10.5 112.5t35 152.5t72.5 170t115.5 152.5t174 114.5t237.5 43q195 0 314.5 -112.5t119.5 -292.5q0 -117 -36 -256h-744q-6 -57 -6 -92q0 -84 53 -136.5t141 -52.5q74 0 136.5 35t93.5 94h282q-80 -162 -217 -254t-309 -102l-76 -115q49 12 88 13 q61 0 96.5 -31t35.5 -86q0 -100 -84 -159.5t-224 -59.5q-121 0 -272 59l61 105q125 -61 201 -62q57 0 98 26.5t41 63.5q0 31 -24.5 49.5t-65.5 18.5q-45 0 -108 -27l133 207q-170 18 -271.5 133t-101.5 289zM467 653h451v31q0 211 -177 211q-206 0 -274 -242z" />
<glyph unicode="&#x22a;" horiz-adv-x="1593" d="M217 535q0 176 68.5 358t187.5 324q250 301 629 301q281 0 437.5 -155t156.5 -431q0 -182 -66.5 -360.5t-185.5 -317.5q-131 -156 -284.5 -228.5t-350.5 -72.5q-274 0 -433 157t-159 425zM522 578q0 -168 90 -265.5t246 -97.5q106 0 194.5 40t143.5 106.5t96 142.5 t60.5 155.5t29 137t9.5 98.5q0 170 -87 265t-241 95q-106 0 -195.5 -39.5t-145.5 -105.5t-97 -140.5t-62.5 -154.5t-31 -138t-9.5 -99zM848 1583l53 246h226l-54 -246h-225zM1229 1583l53 246h226l-54 -246h-225zM915 1880l35 164h614l-34 -164h-615z" />
<glyph unicode="&#x22b;" d="M582 1268l53 246h226l-54 -246h-225zM963 1268l53 246h226l-54 -246h-225zM168 362q0 317 187.5 539.5t490.5 222.5q211 0 331.5 -109.5t120.5 -299.5q0 -324 -190 -543t-496 -219q-203 0 -323.5 111.5t-120.5 297.5zM461 420q0 -109 55 -173.5t148 -64.5 q96 0 167.5 56.5t106.5 139.5t51.5 154.5t16.5 122.5q0 109 -55.5 174.5t-149.5 65.5q-139 0 -239.5 -140t-100.5 -335zM651 1649l35 164h614l-34 -164h-615z" />
<glyph unicode="&#x22c;" horiz-adv-x="1593" d="M217 535q0 176 68.5 358t187.5 324q250 301 629 301q281 0 437.5 -155t156.5 -431q0 -182 -66.5 -360.5t-185.5 -317.5q-131 -156 -284.5 -228.5t-350.5 -72.5q-274 0 -433 157t-159 425zM522 578q0 -168 90 -265.5t246 -97.5q106 0 194.5 40t143.5 106.5t96 142.5 t60.5 155.5t29 137t9.5 98.5q0 170 -87 265t-241 95q-106 0 -195.5 -39.5t-145.5 -105.5t-97 -140.5t-62.5 -154.5t-31 -138t-9.5 -99zM791 1591q35 115 99 177.5t148 62.5q66 0 146 -35l102 -43q43 -20 68 -21q68 0 110 105h111q-37 -129 -109.5 -189.5t-162.5 -60.5 q-55 0 -105 22l-102 52q-61 29 -90 28q-53 0 -105 -98h-110zM907 1880l35 164h614l-34 -164h-615z" />
<glyph unicode="&#x22d;" d="M508 1251q35 115 99 177.5t148 62.5q66 0 146 -35l102 -43q43 -20 68 -21q68 0 110 105h111q-37 -129 -109.5 -189.5t-162.5 -60.5q-55 0 -105 22l-102 52q-61 29 -90 28q-53 0 -105 -98h-110zM168 362q0 317 187.5 539.5t490.5 222.5q211 0 331.5 -109.5t120.5 -299.5 q0 -324 -190 -543t-496 -219q-203 0 -323.5 111.5t-120.5 297.5zM461 420q0 -109 55 -173.5t148 -64.5q96 0 167.5 56.5t106.5 139.5t51.5 154.5t16.5 122.5q0 109 -55.5 174.5t-149.5 65.5q-139 0 -239.5 -140t-100.5 -335zM633 1661l35 164h614l-34 -164h-615z" />
<glyph unicode="&#x22e;" horiz-adv-x="1593" d="M217 535q0 176 68.5 358t187.5 324q250 301 629 301q281 0 437.5 -155t156.5 -431q0 -182 -66.5 -360.5t-185.5 -317.5q-131 -156 -284.5 -228.5t-350.5 -72.5q-274 0 -433 157t-159 425zM522 578q0 -168 90 -265.5t246 -97.5q106 0 194.5 40t143.5 106.5t96 142.5 t60.5 155.5t29 137t9.5 98.5q0 170 -87 265t-241 95q-106 0 -195.5 -39.5t-145.5 -105.5t-97 -140.5t-62.5 -154.5t-31 -138t-9.5 -99zM1016 1641l53 246h225l-53 -246h-225z" />
<glyph unicode="&#x22f;" d="M760 1247l53 246h225l-53 -246h-225zM168 362q0 317 187.5 539.5t490.5 222.5q211 0 331.5 -109.5t120.5 -299.5q0 -324 -190 -543t-496 -219q-203 0 -323.5 111.5t-120.5 297.5zM461 420q0 -109 55 -173.5t148 -64.5q96 0 167.5 56.5t106.5 139.5t51.5 154.5t16.5 122.5 q0 109 -55.5 174.5t-149.5 65.5q-139 0 -239.5 -140t-100.5 -335z" />
<glyph unicode="&#x230;" horiz-adv-x="1593" d="M217 535q0 176 68.5 358t187.5 324q250 301 629 301q281 0 437.5 -155t156.5 -431q0 -182 -66.5 -360.5t-185.5 -317.5q-131 -156 -284.5 -228.5t-350.5 -72.5q-274 0 -433 157t-159 425zM522 578q0 -168 90 -265.5t246 -97.5q106 0 194.5 40t143.5 106.5t96 142.5 t60.5 155.5t29 137t9.5 98.5q0 170 -87 265t-241 95q-106 0 -195.5 -39.5t-145.5 -105.5t-97 -140.5t-62.5 -154.5t-31 -138t-9.5 -99zM1002 1583l53 246h225l-53 -246h-225zM868 1884l35 164h614l-34 -164h-615z" />
<glyph unicode="&#x231;" d="M760 1247l53 246h225l-53 -246h-225zM168 362q0 317 187.5 539.5t490.5 222.5q211 0 331.5 -109.5t120.5 -299.5q0 -324 -190 -543t-496 -219q-203 0 -323.5 111.5t-120.5 297.5zM461 420q0 -109 55 -173.5t148 -64.5q96 0 167.5 56.5t106.5 139.5t51.5 154.5t16.5 122.5 q0 109 -55.5 174.5t-149.5 65.5q-139 0 -239.5 -140t-100.5 -335zM633 1624l35 164h614l-34 -164h-615z" />
<glyph unicode="&#x232;" horiz-adv-x="1366" d="M735 1641l35 164h614l-34 -164h-615zM373 1493h342l168 -645l424 645h342l-672 -940l-119 -553h-307l119 553z" />
<glyph unicode="&#x233;" horiz-adv-x="1138" d="M518 1247l35 164h614l-34 -164h-615zM76 -440l47 223q23 -4 57 -4q106 0 169 51t63 139q-27 219 -83 614l-75 523h315l74 -805l399 805h295l-733 -1307q-51 -96 -90 -135q-117 -113 -348 -113q-55 1 -90 9z" />
<glyph unicode="&#x237;" horiz-adv-x="569" d="M-88 -436l49 227q10 -8 51 -8q47 0 70.5 20.5t34.5 69.5l262 1233h287l-277 -1299q-29 -133 -120 -193t-265 -60q-57 0 -92 10z" />
<glyph unicode="&#x250;" horiz-adv-x="1138" d="M1028 856q0 -31 -8.5 -71t-36 -95t-70.5 -102.5t-121 -89.5t-178 -58l-119 -18q-8 -2 -34.5 -5.5t-39 -5.5t-38 -7t-38 -10t-33 -12t-31.5 -17.5t-22.5 -25t-16.5 -31.5t-5 -38q0 -88 150 -88q98 0 150 35t79 119h268q-43 -201 -173 -292t-372 -91q-117 0 -199.5 23.5 t-121.5 63.5t-55.5 78.5t-16.5 81.5q0 37 13 93l129 614q6 25 6 43q0 43 -43 92l8 35h313q14 -31 14.5 -55.5t-6.5 -55.5q176 158 342 158q137 0 221.5 -73.5t84.5 -194.5zM735 792q0 102 -150 103q-104 0 -175 -67.5t-99 -194.5l-17 -78q25 14 97 28l135 23 q100 16 154.5 65t54.5 121z" />
<glyph unicode="&#x251;" d="M41 375q0 166 73.5 337t218 291.5t316.5 120.5q199 0 271 -161l30 143h287l-199 -936q-6 -25 -6 -43q0 -43 43 -92l-8 -35h-311q-16 25 -17 55q0 23 9 56l-9 2q-139 -160 -340 -160q-63 0 -120.5 19.5t-113.5 63.5t-90 131t-34 208zM334 424q0 -106 47 -168.5t133 -62.5 q74 0 133.5 37.5t94 93t59 123t33 119.5t8.5 89q0 106 -47 168t-133 62q-90 0 -159 -56.5t-102.5 -137.5t-50 -150.5t-16.5 -116.5z" />
<glyph unicode="&#x252;" d="M1237 702q0 -166 -73.5 -337t-218 -291.5t-316.5 -120.5q-199 0 -271 161l-30 -143h-287l199 936q6 25 6 43q0 43 -43 92l8 35h311q16 -25 17 -55q0 -23 -9 -56l9 -2q139 160 340 160q63 0 120.5 -19.5t113.5 -63.5t90 -131t34 -208zM944 653q0 106 -47 168.5t-133 62.5 q-74 0 -133.5 -37.5t-94 -93t-59 -123t-33 -119.5t-8.5 -89q0 -106 47 -168t133 -62q90 0 159 56.5t102.5 137.5t50 150.5t16.5 116.5z" />
<glyph unicode="&#x253;" d="M-33 0l264 1239q27 135 99.5 194.5t206.5 59.5q72 0 168 -10l-50 -230q-25 8 -49 9q-45 0 -68.5 -19.5t-33.5 -66.5l-45 -213q135 162 340 161q63 0 120.5 -19.5t112.5 -63.5t89 -132t34 -209q0 -160 -57.5 -303t-146.5 -238.5t-195.5 -150.5t-206.5 -55q-205 0 -270 160 l-25 -113h-287zM356 422q0 -106 47.5 -167.5t133.5 -61.5q98 0 176 77.5t114.5 180t36.5 200.5q0 106 -48 170t-132 64q-90 0 -159.5 -55.5t-103.5 -137.5t-49.5 -151.5t-15.5 -118.5z" />
<glyph unicode="&#x254;" horiz-adv-x="1138" d="M981 725q0 -145 -58 -307t-149 -271q-160 -195 -450 -194q-186 0 -297 98t-111 246q0 23 9 88h274q2 -102 32.5 -152.5t135.5 -50.5q164 0 246 174q76 152 75 328q0 211 -182 211q-84 0 -139 -46t-102 -155h-275q63 205 207.5 317.5t343.5 112.5q125 0 216 -39 t137 -102.5t66.5 -126.5t20.5 -131z" />
<glyph unicode="&#x255;" horiz-adv-x="1228" d="M39 80l188 119q-20 70 -20 153q0 53 9 115.5t30.5 138.5t55.5 147.5t87 139.5t119.5 119t162 81.5t206.5 30.5q184 0 287.5 -93t103.5 -259q0 -39 -6 -80h-275q-2 109 -39 155t-123 46q-74 0 -134 -40t-94 -98.5t-57.5 -130t-31.5 -127t-8 -96.5v-36q188 109 304 145.5 t222 36.5q72 0 120 -46t48 -100q0 -10 -2 -18q-23 -109 -77 -191.5t-113.5 -125.5t-131 -71t-118.5 -35t-88 -7q-100 0 -171 12t-135 55q-31 -18 -99.5 -59t-102.5 -65zM621 193q31 -8 51 -9q137 0 231 74q-4 47 -43 47q-27 0 -112.5 -42.5t-126.5 -69.5z" />
<glyph unicode="&#x256;" d="M45 375q0 313 195.5 531t410.5 218q201 0 273 -161l112 530h287l-346 -1622q-4 -25 -4 -35q0 -51 69 -51q27 0 54 8l-49 -229q-96 -10 -173 -10q-109 0 -158.5 37.5t-49.5 123.5q0 39 12 92l63 306q-139 -160 -338 -160q-63 0 -120.5 19.5t-113.5 63.5t-90 131t-34 208z M336 424q0 -106 48 -168.5t134 -62.5q72 0 131.5 37.5t95 93t59 122t33 119.5t9.5 90q0 106 -47 168t-133 62q-145 0 -237.5 -151.5t-92.5 -309.5z" />
<glyph unicode="&#x257;" d="M2 375q0 168 75 339t218 290.5t315 119.5q199 0 271 -161l59 276q27 135 99.5 194.5t205.5 59.5q76 0 168 -10l-49 -230q-25 8 -49 9q-45 0 -68.5 -19.5t-34.5 -66.5l-249 -1176h-287l24 113q-141 -160 -340 -160q-63 0 -120.5 19.5t-113.5 63.5t-90 131t-34 208z M293 424q0 -106 48 -168.5t134 -62.5q90 0 158.5 56t102.5 137t50.5 150.5t16.5 118.5q0 106 -47 168t-133 62q-98 0 -177 -78t-116 -181.5t-37 -201.5z" />
<glyph unicode="&#x258;" horiz-adv-x="1138" d="M-98 311h282q8 -59 57.5 -94t123.5 -35q86 0 159.5 52.5t106.5 136.5q14 35 31 92h-744q16 137 62 256q72 180 234.5 292.5t356.5 112.5q121 0 206 -35.5t129 -98t62.5 -131t18.5 -152.5q0 -172 -59 -328q-74 -190 -240 -308t-358 -118q-186 0 -298 94t-130 264zM248 653 h450q2 25 2 49q0 193 -182 193q-176 0 -258 -211z" />
<glyph unicode="&#x259;" horiz-adv-x="1138" d="M989 698q0 -49 -10.5 -112.5t-35 -152.5t-72.5 -170t-115.5 -152.5t-174 -114.5t-237.5 -43q-195 0 -314.5 112.5t-119.5 292.5q0 117 36 256h744q6 57 6 92q0 84 -53 136.5t-141 52.5q-74 0 -136.5 -35t-93.5 -94h-282q84 170 232 264t335 94q193 0 312.5 -118 t119.5 -308zM653 424h-451v-31q0 -211 177 -211q206 0 274 242z" />
<glyph unicode="&#x25a;" horiz-adv-x="1708" d="M141 367q0 129 37 247h742q12 68 12 115q0 84 -41 130t-139 46q-78 0 -143.5 -37t-106.5 -102h-283q84 164 244 261t346 97t291 -98l178 141h215q20 -96 35.5 -209.5t26 -178t24.5 -89.5q8 2 15.5 5t16.5 9.5t17 12.5t21.5 19.5t25 25.5t30.5 34.5t35.5 41t46.5 51.5 t54 59l-86 -399q-80 -61 -134 -86t-120 -25q-25 0 -47 5.5t-53 32t-54.5 70.5t-46 129t-34.5 202l-64 -41q10 -51 10 -111q0 -94 -23.5 -194.5t-74.5 -205t-126 -186.5t-187.5 -134t-247.5 -52q-76 0 -144.5 19.5t-131 64.5t-99.5 129t-37 201zM430 360q0 -92 44 -140 t130 -48q188 0 270 252h-440q-4 -33 -4 -64z" />
<glyph unicode="&#x25b;" horiz-adv-x="1167" d="M-61 219q0 215 215 336q-84 61 -84 158q0 72 27.5 139.5t90 133t187.5 105t297 39.5q223 0 325.5 -64.5t102.5 -236.5q0 -23 -4 -79h-267q2 8 2 22q0 125 -229 125q-139 0 -193.5 -41t-54.5 -94q0 -51 39 -75.5t144 -24.5h149l-59 -213h-148q-141 0 -195.5 -44.5 t-54.5 -103.5q0 -88 189 -88q250 0 307 147h266q-49 -119 -117.5 -197.5t-154.5 -116.5t-168 -52t-189 -14q-423 -1 -423 239z" />
<glyph unicode="&#x25c;" horiz-adv-x="1118" d="M127 244q0 39 8 78h281v-17q0 -61 42 -94t152 -33q242 0 242 156q0 92 -145 92h-189l49 225h193q90 0 128 52.5t38 109.5q0 39 -40 62.5t-108 23.5q-205 0 -237 -149h-277q41 176 189.5 275t371.5 99q182 0 283.5 -75.5t101.5 -210.5q0 -88 -36.5 -165t-104.5 -118 q80 -59 80 -154q0 -193 -160 -320.5t-411 -127.5q-451 0 -451 291z" />
<glyph unicode="&#x25d;" horiz-adv-x="1679" d="M121 246q0 35 6 76h281q0 -33 6 -54.5t24.5 -44t59.5 -34t104 -11.5q244 0 244 158q0 90 -146 90h-188l49 225h193q49 0 84.5 16.5t50 43t19.5 48t5 40.5q0 100 -141 100q-203 0 -237 -149h-277q39 176 188.5 275t372.5 99q184 0 287 -77l168 120h217q18 -92 33.5 -209.5 t26 -184t26.5 -89.5q27 4 53.5 29.5t114.5 126.5q55 66 92 106l-86 -403q-82 -63 -135 -89t-119 -26q-45 0 -82 19.5t-61.5 58.5t-42 80t-28.5 101.5t-16 107.5t-10 110l-55 -41q2 -12 2 -26q0 -88 -37 -163t-104 -120q80 -57 80 -156q0 -55 -18.5 -114.5t-62.5 -120 t-107.5 -106.5t-163 -75.5t-220.5 -29.5q-450 0 -450 293z" />
<glyph unicode="&#x25e;" horiz-adv-x="1167" d="M-2 307q0 96 31 246q25 111 53.5 190.5t76.5 154.5t113.5 121t164 73.5t222.5 27.5h19q207 -2 317.5 -60.5t110.5 -189.5q0 -72 -21.5 -131t-57.5 -97t-61.5 -58.5t-52.5 -34.5q90 -66 91 -166q0 -57 -14.5 -109.5t-54.5 -107.5t-101.5 -95t-164 -65.5t-233.5 -25.5 q-242 0 -340 80.5t-98 246.5zM258 352q0 -78 51 -109.5t183 -31.5q240 0 239 141q0 53 -46 72.5t-142 19.5h-146l45 209h146q240 0 239 146q0 90 -192 90q-66 0 -111 -5t-79.5 -22.5t-56 -39t-41 -64.5t-31 -87t-27.5 -120q-31 -142 -31 -199z" />
<glyph unicode="&#x25f;" horiz-adv-x="569" d="M-154 -436l48 229q27 -8 49 -8q47 0 70.5 19.5t31.5 66.5l119 553h-137l57 276h137l88 406h287l-88 -406h133l-57 -276h-133l-132 -617q-29 -135 -101.5 -194t-205.5 -59q-74 0 -166 10z" />
<glyph unicode="&#x260;" d="M-45 -188q0 25 6 55h297q10 -129 176 -129q106 0 187 62.5t104 162.5l33 150q-100 -90 -176 -125t-172 -35q-164 0 -257.5 106.5t-93.5 288.5q0 174 74 351.5t217.5 301t315.5 123.5q184 0 266 -188l47 219q29 135 100.5 194.5t204.5 59.5q57 0 150 -10l-50 -230 q-25 8 -45 9q-84 0 -98 -72l-244 -1143q-41 -195 -201.5 -302t-410.5 -107q-231 0 -330.5 80t-99.5 178zM354 416q0 -102 45 -162.5t125 -60.5q106 0 196.5 81.5t117.5 210.5l20 95q8 39 8 79q0 100 -53 163t-137 63q-104 0 -189.5 -98.5t-119.5 -256.5q-13 -61 -13 -114z " />
<glyph unicode="&#x261;" d="M53 -197q0 27 6 64h295l-2 -25q0 -45 50.5 -74.5t125.5 -29.5q113 0 195 62.5t104 162.5l33 150q-98 -90 -172 -125t-168 -35q-156 0 -257 110.5t-101 278.5q0 150 53 305.5t141 263.5q172 213 418 213q178 0 260 -188l37 170h272l-243 -1143q-41 -197 -202 -303 t-417 -106q-231 0 -329.5 74.5t-98.5 174.5zM455 412q0 -106 46 -168t126 -62q137 0 237.5 138.5t100.5 324.5q0 115 -51.5 182.5t-137.5 67.5q-125 0 -223 -147.5t-98 -335.5z" />
<glyph unicode="&#x262;" horiz-adv-x="1138" d="M162 352q0 53 9 115.5t30.5 138.5t55.5 147.5t87 139.5t119.5 119t162 81.5t205.5 30.5q184 0 288 -93t104 -259q0 -39 -6 -80h-275q-2 109 -39 155t-123 46q-74 0 -134 -40t-94 -98.5t-57.5 -130t-31.5 -127t-8 -96.5q0 -104 45 -160.5t129 -56.5q70 0 121 32t94 106 h-180l47 215h475l-121 -562h-184l4 60q-137 -82 -307 -82q-201 0 -308.5 103t-107.5 296z" />
<glyph unicode="&#x263;" horiz-adv-x="1138" d="M215 -209q0 90 46 176t210 318l-215 821h315l129 -494l338 494h316l-563 -819q76 -264 75 -363q0 -31 -15 -78t-47 -101t-75 -101t-106.5 -79t-135.5 -32q-123 0 -197.5 69.5t-74.5 188.5zM510 -152q0 -29 22 -28q14 0 26.5 16.5t12.5 38.5q0 27 -12 80q-49 -78 -49 -107 z" />
<glyph unicode="&#x264;" horiz-adv-x="1343" d="M158 623q31 119 86 213t111.5 147t118 87t103 45t70.5 11q68 0 121 -32.5t111 -92.5q90 61 167.5 93t120.5 32q109 0 202 -104t93 -287q0 -74 -18 -155h-258q8 41 8 84q0 53 -14.5 102t-30.5 73.5t-29 24.5q-4 0 -13 -4t-20.5 -12t-19.5 -15.5t-21.5 -18.5t-19.5 -15 q57 -98 96 -211t39 -193q0 -47 -17.5 -103t-56 -116.5t-93 -111t-137.5 -82t-179 -31.5q-63 0 -120.5 15.5t-111 48t-84 93t-30.5 142.5q0 242 323 573q-2 4 -14 20.5t-22.5 29t-16.5 12.5q-2 0 -15.5 -8.5t-36 -28t-45 -48t-48 -75.5t-41.5 -102h-258zM639 311 q0 -63 23.5 -96t56.5 -33q45 0 82 51.5t53 103.5t16 79q0 88 -63 243q-104 -123 -136 -201.5t-32 -146.5z" />
<glyph unicode="&#x265;" horiz-adv-x="1267" d="M106 223q0 55 15 113l164 770h286l-151 -711q-8 -33 -8 -67q0 -131 149 -131q104 0 181 59t98 158l147 692h287l-332 -1552h-287l123 577q-154 -178 -368 -178q-147 0 -225.5 69.5t-78.5 200.5z" />
<glyph unicode="&#x266;" d="M-20 0l262 1239q29 135 100.5 194.5t204.5 59.5q76 0 168 -10l-47 -230q-27 8 -52 9q-47 0 -69.5 -19.5t-30.5 -66.5l-49 -230q154 178 360 178q121 0 207 -61.5t86 -204.5q0 -57 -14 -117l-156 -741h-286l143 676q10 55 10 76q0 49 -32.5 89t-110.5 40q-96 0 -171 -60.5 t-97 -156.5l-140 -664h-286z" />
<glyph unicode="&#x267;" d="M27 0l262 1239q29 135 101.5 194.5t205.5 59.5q72 0 168 -10l-49 -230q-27 8 -49 9q-47 0 -71 -19.5t-32 -66.5l-49 -230q154 178 360 178q123 0 208 -61.5t85 -204.5q0 -51 -12 -117l-199 -934q-29 -135 -101.5 -194t-205.5 -59q-72 0 -168 10l49 229q27 -8 50 -8 q47 0 70.5 19.5t31.5 66.5l172 805q10 55 10 76q0 49 -32.5 89t-110.5 40q-96 0 -171 -61.5t-95 -155.5l-142 -664h-286z" />
<glyph unicode="&#x268;" horiz-adv-x="569" d="M-61 424l57 276h131l86 406h287l-86 -406h139l-57 -276h-140l-90 -424h-286l90 424h-131zM242 1237l53 256h287l-54 -256h-286z" />
<glyph unicode="&#x269;" horiz-adv-x="704" d="M57 113q0 35 11 92l192 901h287l-178 -838q-4 -25 -4 -35q0 -51 69 -51q23 0 53 8l-49 -229q-80 -8 -172 -8q-109 0 -159 38t-50 122z" />
<glyph unicode="&#x26a;" horiz-adv-x="569" d="M6 0l60 276h131l116 553h-131l60 277h557l-60 -277h-139l-117 -553h140l-60 -276h-557z" />
<glyph unicode="&#x26b;" horiz-adv-x="968" d="M141 600q80 297 324 297q37 0 65 -6l129 602h287l-164 -774q23 -10 56 -10q66 0 92 31.5t45 103.5h160q-82 -299 -324 -299q-37 0 -66 6l-116 -551h-287l154 723q-27 10 -58 10q-66 0 -92.5 -30.5t-44.5 -102.5h-160z" />
<glyph unicode="&#x26c;" horiz-adv-x="1079" d="M203 729q0 63 28.5 132t83 131.5t147.5 104.5t210 46h53l74 350h286l-151 -713h270l-55 -260h-270l-111 -520h-287l111 520h-51q-51 0 -91 3t-89.5 16.5t-81 35t-54 61.5t-22.5 93zM481 823q0 -43 76 -43h90l23 111h-88q-101 0 -101 -68z" />
<glyph unicode="&#x26d;" horiz-adv-x="610" d="M-27 -285q0 39 13 92l358 1686h287l-346 -1622q-4 -25 -4 -35q0 -51 69 -51q27 0 53 8l-49 -229q-96 -10 -172 -10q-109 0 -159 37.5t-50 123.5z" />
<glyph unicode="&#x26e;" horiz-adv-x="1593" d="M10 0l318 1493h286l-82 -387h996l-51 -232l-338 -317q98 -31 162.5 -102.5t64.5 -188.5q0 -29 -6 -66.5t-24.5 -93t-47 -107.5t-78 -106.5t-111 -94.5t-152.5 -65.5t-199 -25.5q-188 0 -295 94.5t-107 259.5q0 55 12 119h279q-4 -33 -4 -61q0 -166 174 -166 q59 0 108.5 22.5t78 55t48 71.5t25.5 70t6 53q0 61 -30.5 104.5t-86.5 59.5q-53 14 -163 14l41 193l292 278h-645l-184 -874h-287z" />
<glyph unicode="&#x26f;" horiz-adv-x="1820" d="M1687 1112l-235 -1106h-285l35 166q-90 -100 -170 -142t-180 -42q-94 0 -163 45t-91 123q-162 -168 -363 -168q-137 0 -214 68.5t-77 189.5q0 45 17 125l157 741h287l-147 -696q-10 -47 -11 -84q0 -115 119 -115q96 0 163 60.5t89 170.5l141 664h287l-151 -709 q-6 -33 -7 -67q0 -53 35 -86t94 -33q90 0 155 62.5t87 168.5l141 664h287z" />
<glyph unicode="&#x270;" horiz-adv-x="1820" d="M111 229q0 39 10 95l168 782h286l-157 -737q-4 -25 -4 -37q0 -49 33.5 -78t95.5 -29q92 0 157.5 58.5t85.5 158.5l142 664h286l-157 -737q-4 -25 -4 -37q0 -49 33.5 -78t95.5 -29q92 0 157.5 58.5t85.5 158.5l142 664h288l-331 -1552h-287l125 583q-90 -84 -166 -119.5 t-170 -35.5q-102 0 -173 43t-93 120q-158 -164 -359 -163q-139 0 -214.5 64t-75.5 183z" />
<glyph unicode="&#x271;" horiz-adv-x="1820" d="M51 0l236 1106h284l-30 -137q90 84 166.5 119.5t171.5 35.5q215 0 266 -163q156 164 358 163q139 0 214 -64.5t75 -182.5q0 -39 -10 -95l-207 -975q-29 -135 -101.5 -194t-205.5 -59q-74 0 -166 10l47 229q27 -8 51 -8q47 0 69.5 19.5t30.5 66.5l185 866q4 12 4 37 q0 49 -34 78t-95 29q-92 0 -155.5 -57.5t-86.5 -159.5l-141 -664h-287l156 737q4 12 4 37q0 49 -34 78t-95 29q-92 0 -155.5 -57.5t-86.5 -159.5l-141 -664h-287z" />
<glyph unicode="&#x272;" d="M-170 -436l47 229q27 -8 51 -8q47 0 69.5 19.5t31.5 66.5l264 1235h287l-35 -160q150 178 370 178q145 0 223.5 -69.5t78.5 -200.5q0 -51 -13 -113l-157 -741h-287l145 682q6 37 6 66q0 133 -149 133q-104 0 -180 -59.5t-97 -157.5l-182 -857q-29 -135 -101.5 -194 t-205.5 -59q-74 0 -166 10z" />
<glyph unicode="&#x273;" d="M57 0l236 1106h287l-35 -160q158 178 370 178q145 0 223.5 -69.5t78.5 -200.5q0 -51 -13 -113l-186 -870q-4 -25 -4 -35q0 -51 71 -51q25 0 52 8l-47 -229q-98 -10 -175 -10q-109 0 -158.5 37.5t-49.5 123.5q0 39 12 92l186 875q6 37 6 66q0 133 -149 133 q-104 0 -180 -59.5t-97 -157.5l-141 -664h-287z" />
<glyph unicode="&#x274;" horiz-adv-x="1259" d="M-88 0l235 1106h318l235 -703l150 703h287l-236 -1106h-317l-236 702l-149 -702h-287z" />
<glyph unicode="&#x275;" horiz-adv-x="1208" d="M140 370.5q0 198.5 82.5 369.5t242.5 277.5t363 106.5q215 0 329.5 -108.5t114.5 -308.5q0 -307 -190.5 -530.5t-499.5 -223.5q-213 0 -327.5 109.5t-114.5 308zM432 424q0 -111 53.5 -175.5t145.5 -64.5q98 0 182 74t129 197h-510v-31zM467 618h510v35q0 113 -51 176.5 t-145 63.5q-100 0 -184.5 -75t-129.5 -200z" />
<glyph unicode="&#x276;" horiz-adv-x="1798" d="M168 362q0 92 21.5 188.5t74.5 197t131 178.5t202 128t273 50q135 0 238 -41l2 10h829l-53 -256h-530l-29 -137h461l-55 -258h-461l-35 -164h539l-56 -258h-827q-123 -47 -264 -47q-225 0 -343 107t-118 302zM459 430q0 -104 59.5 -160.5t165.5 -56.5q170 0 272 137 l76 357q-39 137 -215 137q-78 0 -141.5 -30t-103.5 -75t-66.5 -102t-36.5 -108.5t-10 -98.5z" />
<glyph unicode="&#x277;" horiz-adv-x="1683" d="M141 322q0 68 10.5 135t39 146t73.5 149.5t119 137t169 115t230.5 77t294.5 28.5q154 0 272.5 -25.5t193.5 -68.5t123 -104.5t66.5 -126t18.5 -140.5q0 -80 -19.5 -167t-65.5 -177t-111.5 -159.5t-167 -114.5t-224.5 -45q-205 0 -295 139q-147 -139 -356 -139 q-371 0 -371 340zM426 393q0 -162 145 -162q55 0 95.5 15.5t59.5 39t28.5 42t13.5 37.5l66 307h303l-66 -307q-4 -14 -4 -29q0 -43 31.5 -74t109.5 -31q72 0 126.5 40t81 101.5t38.5 117t12 102.5q0 143 -110.5 198.5t-333.5 55.5q-139 0 -247.5 -31t-173 -77t-105.5 -108.5 t-55.5 -120t-14.5 -116.5z" />
<glyph unicode="&#x278;" horiz-adv-x="1593" d="M127 367q0 49 10 113.5t35 151.5t75 168t117.5 152.5t175 118.5t238.5 53l78 369h287l-80 -371q195 -10 298 -117.5t103 -295.5q0 -51 -10 -115t-34.5 -150t-73 -165.5t-117 -151.5t-176 -118t-238.5 -54l-78 -367h-286l77 365q-193 10 -297 119t-104 295zM420 422 q0 -98 41 -159.5t117 -74.5l149 701q-121 -18 -214 -156.5t-93 -310.5zM864 188q139 25 223 168.5t84 298.5q0 207 -157 236z" />
<glyph unicode="&#x279;" horiz-adv-x="796" d="M750 1108l-236 -1106h-286l47 217q-72 -113 -166 -174t-193 -61q-18 0 -34 2l61 291q49 -8 88 -9q254 0 307 252l125 588h287z" />
<glyph unicode="&#x27a;" horiz-adv-x="796" d="M-39 -14l62 290q49 -8 88 -8q254 0 305 252l207 973h286l-317 -1493h-287l47 219q-70 -111 -164 -173t-192 -62q-19 0 -35 2z" />
<glyph unicode="&#x27b;" horiz-adv-x="796" d="M47 -14l62 290q51 -8 88 -8q252 0 307 252l125 588h286l-264 -1235q-4 -25 -4 -35q0 -51 70 -51q27 0 53 8l-47 -229q-98 -10 -174 -10q-109 0 -159 37.5t-50 123.5q0 41 12 93l86 409q-70 -111 -164 -173t-192 -62q-19 0 -35 2z" />
<glyph unicode="&#x27c;" horiz-adv-x="796" d="M-35 -410l324 1516h286l-47 -217q70 113 165 174t194 61q18 0 33 -2l-62 -291q-49 8 -88 9q-254 0 -305 -252l-213 -998h-287z" />
<glyph unicode="&#x27d;" horiz-adv-x="796" d="M4 -285q0 39 12 92l277 1299h287l-48 -217q70 113 165.5 174t193.5 61q18 0 33 -2l-62 -291q-49 8 -88 9q-254 0 -305 -252l-154 -717q-4 -25 -4 -35q0 -51 72 -51q25 0 51 8l-47 -229q-98 -10 -174 -10q-109 0 -159 37.5t-50 123.5z" />
<glyph unicode="&#x27e;" horiz-adv-x="931" d="M10 0l158 741q39 182 156.5 282.5t293.5 100.5q326 0 326 -266q0 -55 -12 -117l-14 -59h-287q20 88 20 129q0 70 -67 70q-61 0 -91 -46.5t-53 -152.5l-143 -682h-287z" />
<glyph unicode="&#x27f;" horiz-adv-x="931" d="M156 682l10 59q14 61 37 117q113 266 438 266q147 0 224 -69.5t77 -198.5q0 -53 -12 -115l-158 -741h-287l148 682q14 78 14 117q0 41 -17.5 61.5t-56.5 20.5q-68 0 -98 -70q-16 -41 -33 -129h-286z" />
<glyph unicode="&#x280;" horiz-adv-x="1269" d="M-137 0l235 1106h596q158 0 244 -65.5t86 -180.5q0 -72 -37 -155q-39 -94 -120 -162t-191 -97l223 -446h-367l-202 424h-90l-90 -424h-287zM287 649h250q76 0 115.5 14.5t58.5 57.5q16 43 16 74q0 86 -141 86h-250z" />
<glyph unicode="&#x281;" horiz-adv-x="1200" d="M1169 1106l-414 -446q98 -29 150.5 -96.5t52.5 -162.5q0 -176 -128 -288.5t-337 -112.5h-596l236 1106h286l-90 -424h90l383 424h367zM673 385q0 43 -32.5 57.5t-110.5 14.5h-250l-49 -232h250q192 0 192 160z" />
<glyph unicode="&#x282;" horiz-adv-x="1138" d="M-246 -436l47 229q27 -8 52 -8q90 0 106 86l96 451h281v-5q0 -72 39 -105.5t155 -33.5q127 0 183.5 40t56.5 89q0 43 -80 70l-319 106q-2 0 -25.5 8.5t-35 13.5t-36 16t-38 25.5t-28.5 34t-22.5 46t-7.5 59.5q0 180 149.5 309t393.5 129q195 0 302 -78.5t107 -218.5 q0 -25 -8 -77h-276q2 12 2 34q0 115 -178 115q-80 0 -135.5 -34t-55.5 -89q0 -23 18.5 -36t67.5 -29l340 -105q166 -53 166 -205q0 -190 -158.5 -319t-412.5 -129q-137 0 -236 29l-37 -175q-29 -135 -101.5 -194t-205.5 -59q-74 0 -166 10z" />
<glyph unicode="&#x283;" horiz-adv-x="681" d="M-156 -436l50 229q27 -8 49 -8q47 0 70.5 19.5t31.5 66.5l287 1346q57 276 342 276q82 0 162 -6l-45 -215q-37 6 -82 6q-78 0 -97 -86l-293 -1385q-29 -135 -101.5 -194t-205.5 -59q-72 0 -168 10z" />
<glyph unicode="&#x284;" horiz-adv-x="569" d="M-197 -436l50 229q27 -8 49 -8q47 0 69.5 19.5t32.5 66.5l139 641h-155l41 190h155l107 515q57 276 342 276q82 0 162 -6l-45 -215q-37 6 -82 6q-78 0 -97 -86l-100 -490h170l-41 -190h-170l-151 -705q-29 -135 -102 -194t-206 -59q-72 0 -168 10z" />
<glyph unicode="&#x285;" horiz-adv-x="681" d="M82 -285q0 39 12 92l219 1039q4 12 4 31q0 55 -63 55q-45 0 -82 -6l45 215q80 6 166 6q233 0 233 -186q0 -35 -10 -91l-213 -999q-4 -25 -4 -35q0 -51 70 -51q27 0 53 8l-49 -229q-96 -10 -172 -10q-109 0 -159 37.5t-50 123.5z" />
<glyph unicode="&#x286;" horiz-adv-x="1114" d="M-27 -205q0 53 23.5 108.5t69 107.5t128 85t189.5 33q80 0 180 -16l234 1104q59 276 342 276q84 0 161 -6l-45 -215q-35 6 -79 6q-78 0 -97 -86l-243 -1145q115 -37 274 -100l-139 -244q-10 4 -193 68q-37 -119 -107.5 -168t-191.5 -49q-506 -1 -506 241zM242 -158 q0 -18 65.5 -37.5t102.5 -19.5q72 0 94 57q-109 33 -160 33q-37 0 -69.5 -9.5t-32.5 -23.5z" />
<glyph unicode="&#x287;" horiz-adv-x="671" d="M438 950q0 -37 -10 -84l-143 -680h141l-41 -190h-141l-64 -297h-287l64 297h-160l41 190h160l127 602q12 53 12 70q0 51 -78 51q-25 0 -67 -6l41 201q80 23 174 22q113 0 172 -46t59 -130z" />
<glyph unicode="&#x288;" horiz-adv-x="681" d="M23 -266q0 41 8 80l229 1079h-141l41 190h141l64 297h286l-63 -297h160l-41 -190h-160l-213 -1002q-8 -35 -8 -65.5t17 -42.5t60 -12q23 0 66 6l-41 -201q-76 -23 -172 -22q-233 0 -233 180z" />
<glyph unicode="&#x289;" horiz-adv-x="1275" d="M-12 424l59 276h129l86 406h287l-86 -406h416l86 406h286l-86 -406h138l-60 -276h-137l-90 -424h-287l29 131q-158 -178 -371 -178q-147 0 -224 69.5t-77 200.5q0 51 12 113l19 88h-129zM389 328q0 -131 150 -131q98 0 177 55t103 172h-416l-6 -29q-8 -32 -8 -67z" />
<glyph unicode="&#x28a;" horiz-adv-x="1486" d="M168 422q0 121 71.5 237.5t168.5 202.5h-152l55 252h578l-45 -211q-113 -55 -192 -116.5t-115.5 -116t-51 -95t-14.5 -75.5q0 -33 6 -68t26.5 -77t52.5 -73.5t89 -54t131 -22.5q104 0 193.5 40t143.5 100.5t84 126t30 120.5q0 174 -219 311l45 211h577l-55 -252h-150 q86 -123 86 -274q0 -74 -33.5 -160t-102 -170t-161 -152.5t-221.5 -110.5t-270 -42q-133 0 -235.5 32.5t-161 83t-95 116t-50 123t-13.5 114.5z" />
<glyph unicode="&#x28b;" horiz-adv-x="1308" d="M164 111q0 20 4 45l194 917h279l-176 -827q-2 -8 -2 -10q0 -31 112 -31q115 0 210.5 45t151.5 113.5t88 141.5t32 134q0 55 -21.5 109.5t-49.5 91.5t-75 77.5t-73.5 59t-71.5 47.5t-47 29l461 14q74 -53 123 -163.5t49 -231.5q0 -88 -37 -186.5t-108.5 -192.5t-169 -170 t-232.5 -123t-283 -47h-137q-106 0 -163.5 41t-57.5 117z" />
<glyph unicode="&#x28c;" horiz-adv-x="1138" d="M862 0h-303l-62 809l-401 -809h-303l616 1106h301z" />
<glyph unicode="&#x28d;" horiz-adv-x="1593" d="M1333 0h-297l-10 774l-326 -774h-295v774l-333 -774h-297l540 1106h297l11 -778l340 778h294z" />
<glyph unicode="&#x28e;" horiz-adv-x="1138" d="M1044 1548l-47 -223q-23 4 -57 4q-106 0 -169 -51t-63 -139q27 -219 83 -614l75 -523h-315l-74 805l-399 -805h-295l733 1307q51 96 90 135q117 113 348 113q55 -1 90 -9z" />
<glyph unicode="&#x28f;" horiz-adv-x="1138" d="M264 1106h303l142 -465l321 465h303l-542 -762l-74 -344h-301l73 344z" />
<glyph unicode="&#x290;" horiz-adv-x="1024" d="M-27 0l50 231l684 643h-510l49 232h860l-49 -232l-680 -643h561l-78 -360q-2 -12 -2 -31q0 -55 74 -55q27 0 53 8l-49 -229q-96 -10 -172 -10q-109 0 -159 37.5t-50 123.5q0 39 12 92l41 193h-635z" />
<glyph unicode="&#x291;" horiz-adv-x="1169" d="M43 0l49 231l684 643h-510l49 232h861l-50 -232l-680 -643h181q25 104 123 182.5t221 78.5q88 0 158.5 -52.5t70.5 -156.5q0 -268 -383 -283l-41 -197h-239l41 197h-535zM870 231q66 0 79.5 3.5t13.5 21.5q0 27 -35 27q-48 -1 -58 -52z" />
<glyph unicode="&#x292;" horiz-adv-x="1138" d="M-2 61q0 55 14 119h279q-6 -33 -6 -61q0 -166 174 -166q59 0 108 22.5t78 55t48.5 71.5t26.5 70t7 53q0 61 -31.5 104.5t-87.5 59.5q-53 14 -164 14l41 193l295 278h-510l49 232h861l-50 -232l-339 -317q98 -31 162.5 -102.5t64.5 -188.5q0 -29 -6 -66.5t-24.5 -93 t-47.5 -107.5t-77 -106.5t-110.5 -94.5t-153.5 -65.5t-200 -25.5q-188 0 -294.5 94t-106.5 260z" />
<glyph unicode="&#x293;" horiz-adv-x="1314" d="M133 -37q0 51 25.5 104.5t77 102.5t143.5 81t211 32q88 0 221 -31q-8 49 -34.5 81t-70.5 46t-83 19t-93 5l41 193l295 278h-510l50 232h860l-49 -232l-340 -317q98 -31 162.5 -103.5t64.5 -189.5q0 -37 -10 -94q133 -45 186 -68l-135 -233q-18 6 -79.5 23.5t-90.5 27.5 q-2 -2 -17.5 -18.5t-25.5 -25.5t-32.5 -28.5t-43 -33t-51.5 -32t-63.5 -29.5t-71.5 -23.5t-86 -17.5t-97 -5q-182 0 -268 77t-86 179zM420 -4q0 -43 119 -43q90 0 163 55q-84 23 -174 23q-108 0 -108 -35z" />
<glyph unicode="&#x294;" d="M178 985q31 133 86 233.5t116.5 157t139.5 91t140.5 46t130.5 11.5q195 0 308 -99.5t113 -265.5q0 -47 -8 -91t-19 -79t-31.5 -70.5t-37 -60t-45.5 -53.5t-45 -43t-47 -37t-42 -30t-39 -23l-28 -17q-106 -66 -137 -104.5t-51 -138.5l-88 -412h-254l88 412q18 92 56 164.5 t82 117.5t94.5 82t95.5 67.5t80.5 64.5t58.5 83t23 113q0 78 -47.5 128t-125.5 50q-96 0 -177 -77t-111 -220h-279z" />
<glyph unicode="&#x295;" d="M180 944q0 51 13 109q45 209 215 340t395 131q74 0 137.5 -15.5t126.5 -52.5t100 -114.5t37 -188.5q0 -72 -18 -168h-279q14 57 15 96q0 90 -48.5 145.5t-128.5 55.5q-113 0 -191.5 -92t-78.5 -195q0 -59 37 -109t80 -84t80 -102.5t37 -158.5q0 -59 -15 -129l-88 -412 h-254l88 412q12 61 13 98q0 51 -43 98t-93.5 81t-93.5 100.5t-43 154.5z" />
<glyph unicode="&#x296;" d="M1204 580q0 -51 -13 -109q-45 -209 -215 -340t-395 -131q-74 0 -137.5 15.5t-126.5 52.5t-100 114.5t-37 188.5q0 72 18 168h279q-14 -57 -15 -96q0 -90 48.5 -145.5t128.5 -55.5q113 0 191.5 92t78.5 195q0 59 -37 109t-80 84t-80 102.5t-37 158.5q0 59 15 129l88 412 h254l-88 -412q-12 -61 -13 -98q0 -51 43 -98t93.5 -81t93.5 -100.5t43 -154.5z" />
<glyph unicode="&#x298;" d="M168 362q0 317 187.5 539.5t490.5 222.5q211 0 331.5 -109.5t120.5 -299.5q0 -324 -190 -543t-496 -219q-203 0 -323.5 111.5t-120.5 297.5zM461 420q0 -109 55 -173.5t148 -64.5q96 0 167.5 56.5t106.5 139.5t51.5 154.5t16.5 122.5q0 109 -55.5 174.5t-149.5 65.5 q-139 0 -239.5 -140t-100.5 -335zM602 441l45 205h215l-45 -205h-215z" />
<glyph unicode="&#x299;" horiz-adv-x="1171" d="M123 0l235 1106h590q172 0 238.5 -72.5t66.5 -167.5q0 -59 -21.5 -108t-62.5 -85t-62.5 -51.5t-57.5 -35.5q131 -88 131 -213q0 -156 -128 -264.5t-333 -108.5h-596zM457 225h250q193 0 192 160q0 43 -32.5 57.5t-110.5 14.5h-250zM555 682h238q88 0 132 25.5t44 101.5 q0 41 -32 56.5t-103 15.5h-238z" />
<glyph unicode="&#x29a;" horiz-adv-x="1167" d="M-31 231q0 211 193 318q-90 63 -90 168q0 53 11 102t48 105.5t97.5 96.5t166 68.5t244.5 30.5h18q229 0 324.5 -84t95.5 -245q0 -96 -30 -238q-25 -117 -53.5 -200t-79 -157.5t-118 -119.5t-168 -70.5t-231.5 -25.5q-215 0 -321.5 63t-106.5 188zM248 301q0 -90 192 -90 q66 0 112 6t81 25.5t56.5 40t41 65.5t29.5 87t26 116q31 139 31 199q0 80 -50 109.5t-183 29.5t-186.5 -38t-53.5 -106q0 -51 46 -71.5t142 -20.5h146l-45 -209h-146q-113 0 -176 -31.5t-63 -111.5z" />
<glyph unicode="&#x29b;" horiz-adv-x="1261" d="M162 352q0 53 9 115.5t30.5 138.5t55.5 147.5t87 139.5t119.5 119t162 81.5t205.5 30.5q154 0 252 -65q82 55 211 55q84 0 162 -6l-45 -215q-37 6 -82 6q-41 0 -70.5 -21.5t-37.5 -62.5q2 -20 2 -43q0 -39 -6 -80h-275q-2 109 -39 155t-123 46q-74 0 -134 -40t-94 -98.5 t-57.5 -130t-31.5 -127t-8 -96.5q0 -104 45 -160.5t129 -56.5q70 0 121 32t94 106h-180l47 215h475l-121 -562h-184l4 60q-137 -82 -307 -82q-201 0 -308.5 103t-107.5 296z" />
<glyph unicode="&#x29c;" horiz-adv-x="1234" d="M123 0l235 1106h287l-82 -385h416l82 385h287l-236 -1106h-287l109 485h-416l-108 -485h-287z" />
<glyph unicode="&#x29d;" horiz-adv-x="1130" d="M-20 -147q0 47 27.5 105t79.5 115.5t146.5 95.5t210.5 38q66 0 162 -19l195 918h286l-210 -989q137 -45 258 -92l-136 -232q-16 6 -178 64q-10 -53 -20 -88t-34 -80t-54.5 -72t-84 -45t-122.5 -18q-127 0 -223.5 20t-152.5 52t-92 74t-47 78t-11 75zM266 -127 q0 -39 66.5 -63.5t103.5 -24.5q53 0 73.5 27.5t39.5 119.5q-88 23 -166 23q-39 0 -78 -23.5t-39 -58.5zM827 1237l56 256h286l-55 -256h-287z" />
<glyph unicode="&#x29e;" horiz-adv-x="1138" d="M1122 1100l-317 -1493h-287l174 817l-457 -430h-325l475 422l-264 684h336l161 -489l140 127l77 362h287z" />
<glyph unicode="&#x29f;" horiz-adv-x="929" d="M123 0l235 1106h287l-186 -875h426l-49 -231h-713z" />
<glyph unicode="&#x2a0;" d="M51 365q0 96 25.5 199.5t78 203.5t123 179t170 128t209.5 49q203 0 269 -182l45 213q29 135 100.5 194.5t204.5 59.5q76 0 168 -10l-49 -230q-25 8 -49 9q-45 0 -69 -19.5t-34 -66.5l-325 -1538h-287l123 577q-141 -180 -348 -180q-61 0 -119 19.5t-113 62.5t-89 128 t-34 204zM342 420q0 -106 48 -168t134 -62q90 0 160 56.5t103.5 137.5t49 151.5t15.5 119.5q0 109 -47 169.5t-133 60.5q-74 0 -133.5 -39t-95 -94.5t-59.5 -123t-33 -119.5t-9 -89z" />
<glyph unicode="&#x2a1;" d="M178 985q37 164 109.5 277.5t164 167t172.5 74t167 20.5q195 0 308 -99.5t113 -265.5q0 -47 -8 -91t-19 -80t-31.5 -70.5t-37 -59t-45.5 -53.5t-45 -44.5t-47 -37t-42 -28.5t-40 -23l-27 -17q-106 -66 -137 -104.5t-51 -138.5l-8 -37h176l-41 -191h-176l-39 -184h-254 l39 184h-182l41 191h182l8 37q23 106 70 187t100 125t110.5 87t103.5 76t76 88t30 129q0 80 -47.5 129t-125.5 49q-96 0 -177 -77t-111 -220h-279z" />
<glyph unicode="&#x2a2;" d="M217 942q0 45 12 107q45 209 215 340t396 131q57 0 108 -8.5t107.5 -32t96.5 -62.5t65.5 -106.5t25.5 -155.5q0 -80 -20 -174h-279q12 55 12 100q0 100 -49 148.5t-125 48.5q-92 0 -167.5 -67.5t-96.5 -168.5q-6 -29 -6 -53q0 -49 23.5 -88t58.5 -69.5t69.5 -65.5 t58 -92.5t23.5 -130.5q0 -59 -14 -131l-8 -37h180l-41 -191h-180l-39 -184h-254l39 184h-178l41 191h178l8 37q12 66 12 96q0 41 -20 69.5t-78 77.5q-94 80 -134 143.5t-40 143.5z" />
<glyph unicode="&#x2ac;" horiz-adv-x="1064" d="M165.891 718.859h193.039l6.5 -503.071l211.888 503.071h191.739v-503.071l216.438 503.071h193.039l-350.98 -718.859h-193.039l-7.14941 505.672l-220.988 -505.672h-191.089zM345.891 1515.86h193.039l6.5 -503.071l211.888 503.071h191.739v-503.071l216.438 503.071 h193.039l-350.98 -718.859h-193.039l-7.14941 505.672l-220.988 -505.672h-191.089z" />
<glyph unicode="&#x2b0;" horiz-adv-x="1024" d="M372.045 815l206.688 970.396h185.89l-76.6963 -360.729q102.694 120.893 239.187 120.893q86.4453 0 139.742 -48.4219q53.2969 -48.4229 53.2969 -127.068q0 -35.748 -7.79883 -73.4453l-102.694 -481.623h-186.54l89.6953 416.627q7.7998 40.9473 7.7998 63.6963 q0 101.394 -97.4951 101.394q-63.6963 0 -112.118 -47.7715q-48.4229 -47.7725 -65.9717 -129.019l-86.4453 -404.927h-186.539z" />
<glyph unicode="&#x2b1;" horiz-adv-x="1024" d="M128.001 817l170.29 805.305q18.8486 87.7451 65.3213 126.418t132.918 38.6729q49.3965 0 109.193 -6.5l-30.5479 -149.491q-17.5488 5.19922 -33.7988 5.84961q-30.5479 0 -45.1719 -12.6748q-14.624 -12.6738 -19.8242 -43.2217l-31.8477 -149.492 q100.094 115.693 233.986 115.693q78.6455 0 134.543 -39.9727q55.8965 -39.9727 55.8965 -132.917q0 -37.0479 -9.09961 -76.0459l-101.395 -481.623h-185.889l92.9443 439.375q6.5 35.748 6.5 49.3975q0 31.8486 -21.124 57.8467q-21.124 25.999 -71.8213 25.999 q-62.3965 0 -111.144 -39.3232q-48.7471 -39.3223 -63.0469 -101.719l-90.9941 -431.576h-185.89z" />
<glyph unicode="&#x2b2;" horiz-adv-x="342" d="M-6.19727 556.616l31.8486 147.541q6.5 -5.19922 33.1484 -5.19922q30.5479 0 45.8223 13.3242t22.4238 45.1729l170.29 801.404h186.54l-180.04 -844.303q-18.8496 -86.4443 -77.9961 -125.442t-172.24 -38.998q-37.0479 0 -59.7969 6.5zM314.885 1644l35.748 166.391 h186.54l-36.3984 -166.391h-185.89z" />
<glyph unicode="&#x2b3;" horiz-adv-x="681" d="M298.846 825l153.391 718.859h185.89l-30.5479 -141.042q46.7969 73.4463 107.894 113.094t125.443 39.6475q11.6992 0 22.0986 -1.2998l-39.6484 -189.14q-31.8477 5.2002 -57.1963 5.84961q-165.091 0 -199.539 -163.79l-81.2451 -382.179h-186.539z" />
<glyph unicode="&#x2b4;" horiz-adv-x="681" d="M856.146 1544l-153.405 -718.927h-185.907l30.5508 141.055q-46.8008 -73.4521 -107.903 -113.104t-125.455 -39.6514q-11.7002 0 -22.1006 1.2998l39.6514 189.157q31.8516 -5.2002 57.2021 -5.85059q165.106 0 199.558 163.806l81.2529 382.215h186.557z" />
<glyph unicode="&#x2b5;" horiz-adv-x="681" d="M61.5479 821.9l40.2979 188.489q33.1484 -5.19922 57.1973 -5.19922q163.791 0 199.539 163.79l81.2451 382.179h185.89l-171.591 -802.704q-2.59961 -16.25 -2.59961 -22.749q0 -33.1484 45.4971 -33.1484q17.5488 0 34.4482 5.2002l-30.5479 -148.842 q-63.6963 -6.5 -113.094 -6.5q-70.8457 0 -103.345 24.374q-32.498 24.373 -32.498 80.2705q0 26.6484 7.7998 60.4463l55.8965 265.835q-45.4971 -72.1455 -106.594 -112.443t-124.793 -40.2979q-12.3496 0 -22.749 1.2998z" />
<glyph unicode="&#x2b6;" horiz-adv-x="712" d="M1044.35 1518l-269.109 -289.911q63.7021 -18.8506 97.8281 -62.7275q34.126 -43.876 34.126 -105.629q0 -114.404 -83.2031 -187.531q-83.2031 -73.1279 -219.058 -73.1279h-387.415l153.406 718.927h185.907l-58.5029 -275.61h58.5029l248.959 275.61h238.559z M721.937 1049.33q0 27.9512 -21.125 37.377q-21.126 9.4248 -71.8281 9.4248h-162.506l-31.8516 -150.806h162.506q124.805 0 124.805 104.004z" />
<glyph unicode="&#x2b7;" horiz-adv-x="1024" d="M339.891 1564.86h193.039l6.5 -503.071l211.888 503.071h191.739v-503.071l216.438 503.071h193.039l-350.98 -718.859h-193.039l-7.14941 505.672l-220.988 -505.672h-191.089z" />
<glyph unicode="&#x2b8;" horiz-adv-x="706" d="M194.397 482.016l30.5479 144.942q14.9492 -2.59961 37.0479 -2.59961q68.8965 0 109.844 33.1475q40.9482 33.1484 40.9482 90.3457q-17.5488 142.342 -53.9473 399.077l-48.7471 339.931h204.738l48.0977 -523.221l259.335 523.221h191.739l-476.423 -849.502 q-33.1484 -62.3965 -58.4971 -87.7451q-76.0459 -73.4463 -226.188 -73.4463q-35.748 0.650391 -58.4961 5.84961z" />
<glyph unicode="&#x2b9;" horiz-adv-x="569" d="M328 987l47 277l125 256l256 -72l-123 -258l-201 -234z" />
<glyph unicode="&#x2ba;" horiz-adv-x="929" d="M328 987l47 277l125 256l256 -72l-123 -258l-201 -234zM754 987l47 277l125 256l256 -72l-123 -258l-201 -234z" />
<glyph unicode="&#x2bb;" horiz-adv-x="569" d="M616 1030l105 246q115 268 330 268l-35 -78q-72 -2 -114 -41t-87 -145l-16 -37h123l-91 -213h-215z" />
<glyph unicode="&#x2bc;" horiz-adv-x="681" d="M426 989l20 94q68 12 117 62.5t58 120.5h-138l49 229h250l-43 -197q-16 -121 -106 -211t-207 -98z" />
<glyph unicode="&#x2bd;" horiz-adv-x="569" d="M422 1106q0 43 12 98l51 246h215l-45 -213h-123l-6 -37q-14 -63 -14 -98q0 -47 22.5 -66.5t73.5 -21.5l-16 -78q-170 0 -170 170z" />
<glyph unicode="&#x2be;" horiz-adv-x="681" d="M487 1174l41 192h52q14 0 30.5 13.5t16.5 31.5q0 12 -9.5 21.5t-21.5 9.5h-51l41 192h51q82 0 134 -52t52 -130q0 -111 -90 -194.5t-194 -83.5h-52z" />
<glyph unicode="&#x2bf;" horiz-adv-x="681" d="M494 1358q0 102 87 189t199 87h51l-40 -192h-52q-16 0 -32.5 -12.5t-16.5 -30.5q0 -14 9.5 -23.5t23.5 -9.5h51l-41 -192h-51q-82 0 -135 52t-53 132z" />
<glyph unicode="&#x2c0;" horiz-adv-x="681" d="M289 1272q12 61 38.5 114.5t70.5 102.5t118 77.5t168 28.5q125 0 194.5 -58t69.5 -161q0 -119 -83 -222t-222 -120l-51 -243h-174l84 393q55 0 96 6t81 21.5t61.5 47t21.5 78.5q0 94 -111 95q-150 0 -184 -160h-178z" />
<glyph unicode="&#x2c1;" horiz-adv-x="681" d="M291 1247q0 53 20.5 109.5t63.5 112t121.5 91t181.5 35.5q143 0 204.5 -63.5t61.5 -165.5q0 -43 -10 -94h-178q6 29 6 51q0 109 -121 109q-47 0 -82 -17.5t-52.5 -44.5t-24.5 -50.5t-7 -41.5q0 -94 209 -94l-84 -393h-174l51 243q-102 12 -144 74.5t-42 138.5z" />
<glyph unicode="&#x2c2;" horiz-adv-x="681" d="M301 1315l25 110l675 203l-30 -145l-396 -115l347 -117l-29 -137z" />
<glyph unicode="&#x2c3;" horiz-adv-x="681" d="M971 1429l-25 -110l-675 -203l30 145l396 115l-347 117l29 137z" />
<glyph unicode="&#x2c4;" horiz-adv-x="681" d="M295 1147l328 420h102l149 -420h-149l-84 256l-197 -256h-149z" />
<glyph unicode="&#x2c5;" horiz-adv-x="681" d="M971 1567l-328 -420h-102l-149 420h149l84 -256l197 256h149z" />
<glyph unicode="&#x2c6;" horiz-adv-x="681" d="M276 1249l285 301h221l146 -301h-160l-125 199l-211 -199h-156z" />
<glyph unicode="&#x2c7;" horiz-adv-x="681" d="M342 1550h160l125 -198l211 198h155l-284 -301h-222z" />
<glyph unicode="&#x2c8;" horiz-adv-x="681" d="M514 1204l86 404h164l-86 -404h-164z" />
<glyph unicode="&#x2c9;" horiz-adv-x="681" d="M307 1315l35 164h614l-34 -164h-615z" />
<glyph unicode="&#x2ca;" horiz-adv-x="681" d="M506 1243l209 307h258l-324 -307h-143z" />
<glyph unicode="&#x2cb;" horiz-adv-x="681" d="M358 1550h244l92 -307h-129z" />
<glyph unicode="&#x2cc;" horiz-adv-x="557" d="M96 -443l86 404h164l-86 -404h-164z" />
<glyph unicode="&#x2cd;" horiz-adv-x="681" d="M309 -264l35 164h614l-34 -164h-615z" />
<glyph unicode="&#x2ce;" horiz-adv-x="681" d="M483 -74h244l92 -307h-129z" />
<glyph unicode="&#x2cf;" horiz-adv-x="681" d="M389 -381l209 307h258l-324 -307h-143z" />
<glyph unicode="&#x2d0;" horiz-adv-x="681" d="M403 1149h363l-252 -328zM531 0h-363l252 328z" />
<glyph unicode="&#x2d1;" horiz-adv-x="681" d="M403 1149h363l-252 -328z" />
<glyph unicode="&#x2d2;" horiz-adv-x="681" d="M550 229q0 -102 -87 -189t-199 -87h-51l40 192h52q16 0 32.5 12.5t16.5 30.5q0 14 -9.5 23.5t-23.5 9.5h-51l41 192h51q82 0 135 -52t53 -132z" />
<glyph unicode="&#x2d3;" horiz-adv-x="681" d="M175 141q0 102 87 189t199 87h51l-40 -192h-52q-16 0 -32.5 -12.5t-16.5 -30.5q0 -14 9.5 -23.5t23.5 -9.5h51l-41 -192h-51q-82 0 -135 52t-53 132z" />
<glyph unicode="&#x2d4;" horiz-adv-x="681" d="M57 274l45 205h240l78 365h205l-78 -365h237l-45 -205h-682z" />
<glyph unicode="&#x2d5;" horiz-adv-x="681" d="M865 854l-45 -205h-240l-78 -365h-205l78 365h-237l45 205h682z" />
<glyph unicode="&#x2d6;" horiz-adv-x="681" d="M94 442l43 205h240l51 240h205l-51 -240h237l-43 -205h-239l-52 -239h-204l51 239h-238z" />
<glyph unicode="&#x2d7;" horiz-adv-x="681" d="M94 442l43 205h682l-43 -205h-682z" />
<glyph unicode="&#x2d8;" horiz-adv-x="681" d="M385 1464q0 35 12 80h86v-16q0 -55 40 -86t112 -31q158 0 211 133h86q-23 -127 -116 -210t-214 -83q-96 0 -156.5 59.5t-60.5 153.5z" />
<glyph unicode="&#x2d9;" horiz-adv-x="681" d="M494 1272l53 246h225l-53 -246h-225z" />
<glyph unicode="&#x2da;" horiz-adv-x="681" d="M438 1360q0 88 70 155.5t160 67.5q63 0 105 -41t42 -104q0 -88 -69.5 -156t-159.5 -68q-63 0 -105.5 41.5t-42.5 104.5zM539 1382q0 -29 19.5 -47t49.5 -18q41 0 74 30.5t33 69.5q0 27 -19.5 45.5t-48.5 18.5q-41 0 -74.5 -30t-33.5 -69z" />
<glyph unicode="&#x2db;" horiz-adv-x="681" d="M47 -322q0 102 76 179t233 143h152q-158 -92 -213 -168q-43 -61 -43 -125q0 -82 102 -82q82 0 146 23l-21 -107q-98 -18 -157 -18q-127 0 -201 41.5t-74 113.5z" />
<glyph unicode="&#x2dc;" horiz-adv-x="681" d="M240 1278q35 115 99 177.5t148 62.5q66 0 146 -35l102 -43q43 -20 68 -21q68 0 110 105h111q-37 -129 -109.5 -189.5t-162.5 -60.5q-55 0 -105 22l-102 52q-61 29 -90 28q-53 0 -105 -98h-110z" />
<glyph unicode="&#x2dd;" horiz-adv-x="681" d="M168 1249l209 301h258l-324 -301h-143zM553 1249l209 301h258l-324 -301h-143z" />
<glyph unicode="&#x2de;" horiz-adv-x="681" d="M172 811l47 215l205 172h145q6 -43 20.5 -186.5t29 -231.5t34.5 -98q14 0 25.5 4t21 11.5t25.5 26.5t31.5 39.5t49.5 62.5t71 87l-76 -354q-47 -39 -68.5 -55.5t-66.5 -35.5t-91.5 -19t-79 33.5t-50 80.5t-27.5 120t-12.5 125t-2.5 124l-184 -144z" />
<glyph unicode="&#x2df;" horiz-adv-x="1044" d="M447.75 1293.5l237.75 131l-155.25 131l156.75 87l155.25 -132l241.5 132l101.25 -86l-241.5 -132l155.25 -132l-156.75 -86l-154.5 132l-238.5 -131z" />
<glyph unicode="&#x2e0;" horiz-adv-x="681" d="M314.995 744.605q0 53.9971 27.5986 105.596q27.5986 51.5977 125.995 190.792l-128.995 492.58h188.992l77.3965 -296.388l202.792 296.388h189.593l-337.786 -491.38q45.5977 -158.394 44.998 -217.791q0 -18.5996 -9 -46.7988q-8.99902 -28.1982 -28.1982 -60.5977 q-19.1992 -32.3984 -44.999 -60.5977q-25.7988 -28.1982 -63.8975 -47.3975q-38.0977 -19.1992 -81.2959 -19.1992q-73.7979 0 -118.495 41.6982q-44.6982 41.6982 -44.6982 113.096zM491.987 778.804q0 -17.3994 13.2002 -16.7998q8.39941 0 15.8984 9.90039 q7.5 9.89941 7.5 23.0986q0 16.1992 -7.19922 47.998q-29.3994 -46.7979 -29.3994 -64.1973z" />
<glyph unicode="&#x2e1;" horiz-adv-x="681" d="M400.045 811l206.688 970.396h185.89l-206.039 -970.396h-186.539z" />
<glyph unicode="&#x2e2;" horiz-adv-x="681" d="M237.945 1004.99q0 13 5.2002 40.2979h182.64q5.19922 -90.3447 141.042 -90.9951q61.0967 0 99.7695 20.7988t38.6729 52.6475q0 22.749 -19.499 36.0732t-81.8955 32.8232l-105.294 33.7979q-87.7451 29.248 -129.668 69.2207t-41.9229 95.8701 q0 116.993 96.5195 194.014t249.911 77.0205q125.443 0 196.938 -51.0215q71.4961 -51.0225 71.4961 -142.018q0 -21.4482 -6.49902 -50.0469h-179.39q3.89941 18.8486 3.89941 24.6982q0 31.8486 -31.5234 50.6973t-86.1201 18.8486q-53.2969 0 -85.1455 -19.1738 q-31.8477 -19.1738 -31.8477 -51.6719q0 -20.1484 18.1992 -32.498q18.1982 -12.3496 68.2461 -27.2988l128.042 -37.0479q162.491 -49.3965 162.491 -165.091q0 -128.042 -100.419 -203.763q-100.42 -75.7207 -270.061 -75.7207q-83.8447 0 -144.941 19.8232 q-61.0967 19.8242 -90.9951 52.6475t-43.8721 64.0215q-13.9746 31.1982 -13.9746 63.0459z" />
<glyph unicode="&#x2e3;" horiz-adv-x="731" d="M197.449 815l310.032 364.63l-147.542 354.229h223.588l67.5957 -217.088l163.791 217.088h223.587l-315.231 -354.229l163.79 -364.63h-223.587l-78.6455 223.588l-163.791 -223.588h-223.587z" />
<glyph unicode="&#x2e4;" horiz-adv-x="684" d="M276.993 1199.57q0 33.1484 8.4502 70.8457q29.248 135.843 139.742 220.988q110.493 85.1445 256.735 85.1445q48.0967 0 89.3701 -10.0742q41.2725 -10.0742 82.2197 -34.123q40.9482 -24.0488 64.9961 -74.4209q24.0488 -50.3721 24.0488 -122.518 q0 -46.7979 -11.6992 -109.194h-181.34q9.09961 37.0479 9.75 62.3965q0 58.4971 -31.5234 94.5693q-31.5234 36.0732 -83.5205 36.0732q-73.4453 0 -124.468 -59.7969q-51.0225 -59.7959 -51.0225 -126.742q0 -38.3486 24.0488 -70.8467t51.9971 -54.5967t51.9971 -66.6211 t24.0488 -103.02q0 -38.3477 -9.75 -83.8447l-57.1963 -267.785h-165.091l57.1973 267.785q7.79883 39.6475 8.44922 63.6963q0 33.1484 -27.9482 63.6963q-27.9492 30.5479 -60.7715 52.6475q-32.8232 22.0986 -60.7725 65.3213q-27.9482 43.2227 -27.9482 100.419z" />
<glyph unicode="&#x2e5;" horiz-adv-x="1077" d="M360 1430l46 208h911l-352 -1636h-211l307 1428h-701z" />
<glyph unicode="&#x2e6;" horiz-adv-x="1077" d="M289 1122l45 209h700l68 307h211l-350 -1636h-211l237 1120h-700z" />
<glyph unicode="&#x2e7;" horiz-adv-x="1077" d="M203 719l45 209h700l150 710h211l-351 -1640h-210l155 721h-700z" />
<glyph unicode="&#x2e8;" horiz-adv-x="1077" d="M117 307l43 209h700l240 1122h211l-350 -1638h-211l67 307h-700z" />
<glyph unicode="&#x2e9;" horiz-adv-x="1077" d="M47 2l45 209h701l305 1427h211l-351 -1636h-911z" />
<glyph unicode="&#x2ea;" horiz-adv-x="1062" d="M117 -2l270 1274h209l-223 -1065h686l-45 -209h-897z" />
<glyph unicode="&#x2eb;" horiz-adv-x="1062" d="M109 -2l276 1290h211l-113 -549h686l-45 -211h-686l-119 -530h-210z" />
<glyph unicode="&#x2ec;" horiz-adv-x="681" d="M350 -70h160l125 -198l211 198h155l-284 -301h-222z" />
<glyph unicode="&#x2ed;" horiz-adv-x="681" d="M346 1475l35 164h614l-34 -164h-615zM287 1159l35 164h614l-34 -164h-615z" />
<glyph unicode="&#x2ee;" horiz-adv-x="681" d="M354 961l21 94q176 31 203 182h-166l55 256h276l-47 -223q-20 -133 -112.5 -216t-229.5 -93zM829 961l21 94q176 31 203 182h-166l55 256h277l-48 -223q-20 -133 -112.5 -216t-229.5 -93z" />
<glyph unicode="&#x2ef;" horiz-adv-x="681" d="M633 -30l-328 -420h-102l-149 420h149l84 -256l197 256h149z" />
<glyph unicode="&#x2f0;" horiz-adv-x="681" d="M-43 -444l328 420h102l149 -420h-149l-84 256l-197 -256h-149z" />
<glyph unicode="&#x2f1;" horiz-adv-x="681" d="M-39 -325l25 110l675 203l-30 -145l-396 -115l347 -117l-29 -137z" />
<glyph unicode="&#x2f2;" horiz-adv-x="681" d="M609 -224l-25 -110l-675 -203l30 145l396 115l-347 117l29 137z" />
<glyph unicode="&#x2f3;" horiz-adv-x="681" d="M104 -268q0 88 70 155.5t160 67.5q63 0 105 -41t42 -104q0 -88 -69.5 -156t-159.5 -68q-63 0 -105.5 41.5t-42.5 104.5zM205 -246q0 -29 19.5 -47t49.5 -18q41 0 74 30.5t33 69.5q0 27 -19.5 45.5t-48.5 18.5q-41 0 -74.5 -30t-33.5 -69z" />
<glyph unicode="&#x2f4;" horiz-adv-x="681" d="M454 1087h244l92 -307h-129z" />
<glyph unicode="&#x2f5;" horiz-adv-x="894" d="M718 1087h244l92 -307h-129zM358 1087h244l92 -307h-129z" />
<glyph unicode="&#x2f6;" horiz-adv-x="894" d="M354 780l209 307h258l-324 -307h-143zM713 776l209 307h258l-324 -307h-143z" />
<glyph unicode="&#x2f7;" horiz-adv-x="819" d="M-20 -299q35 115 99 177.5t148 62.5q66 0 146 -35l102 -43q43 -20 68 -21q68 0 110 105h111q-37 -129 -109.5 -189.5t-162.5 -60.5q-55 0 -105 22l-102 52q-61 29 -90 28q-53 0 -105 -98h-110z" />
<glyph unicode="&#x2f8;" horiz-adv-x="681" d="M231 133l64 299h307l-63 -299h-308zM395 899l64 299h307l-64 -299h-307z" />
<glyph unicode="&#x2f9;" horiz-adv-x="409" d="M236 1018l114 547h373l-43 -209h-164l-72 -338h-208z" />
<glyph unicode="&#x2fa;" horiz-adv-x="409" d="M311 1356l43 209h373l-115 -547h-209l72 338h-164z" />
<glyph unicode="&#x2fb;" horiz-adv-x="409" d="M396 28l-43 -209h-373l115 547h209l-72 -338h164z" />
<glyph unicode="&#x2fc;" horiz-adv-x="409" d="M464 368l-114 -547h-373l43 209h164l72 338h208z" />
<glyph unicode="&#x2fd;" horiz-adv-x="679" d="M-27 -403l60 280h160l-25 -121h242l24 121h160l-59 -280h-562z" />
<glyph unicode="&#x2fe;" horiz-adv-x="681" d="M-27 -410l76 353h164l-41 -189h395l-35 -164h-559z" />
<glyph unicode="&#x2ff;" horiz-adv-x="681" d="M-94 -244q166 115 289 240l71 -80l-104 -98h512l-27 -125h-520q6 -10 29.5 -48t40.5 -59l-82 -69q-45 61 -113.5 134.5t-95.5 104.5z" />
<glyph unicode="&#x300;" horiz-adv-x="0" d="M-324 1550h244l92 -307h-129z" />
<glyph unicode="&#x301;" horiz-adv-x="0" d="M-176 1243l209 307h258l-324 -307h-143z" />
<glyph unicode="&#x302;" horiz-adv-x="0" d="M-406 1249l285 301h221l146 -301h-160l-125 199l-211 -199h-156z" />
<glyph unicode="&#x303;" horiz-adv-x="0" d="M-446 1260q35 115 99 177.5t148 62.5q66 0 146 -35l102 -43q43 -20 68 -21q68 0 110 105h111q-37 -129 -109.5 -189.5t-162.5 -60.5q-55 0 -105 22l-102 52q-61 29 -90 28q-53 0 -105 -98h-110z" />
<glyph unicode="&#x304;" horiz-adv-x="0" d="M-422 1266l35 164h614l-34 -164h-615z" />
<glyph unicode="&#x305;" horiz-adv-x="0" d="M-924 1264l35 161h1229l-35 -161h-1229z" />
<glyph unicode="&#x306;" horiz-adv-x="0" d="M-297 1464q0 35 12 80h86v-16q0 -55 40 -86t112 -31q158 0 211 133h86q-23 -127 -116 -210t-214 -83q-96 0 -156.5 59.5t-60.5 153.5z" />
<glyph unicode="&#x307;" horiz-adv-x="0" d="M-188 1272l53 246h225l-53 -246h-225z" />
<glyph unicode="&#x308;" horiz-adv-x="0" d="M-381 1272l53 246h226l-54 -246h-225zM0 1272l53 246h226l-54 -246h-225z" />
</font>
</defs>
</svg>
