<?xml version="1.0" standalone="no"?>
<!DOCTYPE svg PUBLIC "-//W3C//DTD SVG 1.1//EN" "http://www.w3.org/Graphics/SVG/1.1/DTD/svg11.dtd" >
<svg xmlns="http://www.w3.org/2000/svg">
<metadata>
This is a custom SVG webfont generated by Font Squirrel.
Copyright   : Copyleft 2002 2003 2005 2008 2009 Free Software Foundation
Foundry     : GNU
Foundry URL : httpssavannahgnuorgprojectsfreefont
</metadata>
<defs>
<font id="FreeSansMedium" horiz-adv-x="0" >
<font-face units-per-em="2048" ascent="1638" descent="-410" />
<missing-glyph horiz-adv-x="569" />
<glyph unicode=" "  horiz-adv-x="569" />
<glyph unicode="&#x09;" horiz-adv-x="569" />
<glyph unicode="&#xa0;" horiz-adv-x="569" />
<glyph unicode="!" horiz-adv-x="569" d="M254 0v213h172v-213h-172zM256 801v692h170v-692l-45 -457h-80z" />
<glyph unicode="&#x22;" horiz-adv-x="727" d="M106 1225v227h191v-227l-55 -275h-80zM434 1225v227h191v-227l-56 -275h-80z" />
<glyph unicode="#" horiz-adv-x="1138" d="M29 391v139h233l64 357h-222v139h248l74 401h156l-74 -401h256l72 401h157l-73 -401h190v-139h-217l-64 -357h215v-139h-239l-80 -432h-156l78 432h-254l-80 -432h-155l78 432h-207zM418 530h256l63 357h-254z" />
<glyph unicode="$" horiz-adv-x="1138" d="M68 391v35h161q4 -41 5.5 -54.5t7.5 -51t13 -53t20.5 -46.5t32 -46t45 -33.5t63.5 -30t82 -17.5v557q-190 57 -258 107q-145 104 -146 299q0 174 103.5 279.5t300.5 129.5v111h120v-111q186 -14 292 -121.5t106 -281.5h-162q-2 113 -67.5 184.5t-168.5 75.5v-510 q8 -2 61.5 -16.5t82.5 -24.5t81 -32.5t83.5 -50t66.5 -67.5t51.5 -97.5t16.5 -125.5q0 -197 -113.5 -314.5t-329.5 -131.5v-211h-120v211q-207 14 -318.5 126.5t-111.5 311.5zM260 1077q0 -184 238 -248v492q-115 -16 -176.5 -80t-61.5 -164zM618 94q137 16 206 92t69 189 q0 100 -58.5 155.5t-216.5 102.5v-539z" />
<glyph unicode="%" horiz-adv-x="1820" d="M59 1052.5q0 143.5 102.5 247t246.5 103.5q147 0 248.5 -102.5t101.5 -251.5q0 -141 -102.5 -244t-246 -103t-247 103.5t-103.5 247zM201 1053q0 -84 61.5 -145.5t147.5 -61.5q84 0 145 60.5t61 144.5q0 88 -60 148.5t-148 60.5q-84 0 -145.5 -60.5t-61.5 -146.5z M438 -41l809 1493h135l-809 -1493h-135zM1061 311.5q0 143.5 102.5 245.5t245.5 102q147 0 248.5 -102t101.5 -250q0 -141 -103.5 -243.5t-244.5 -102.5q-145 0 -247.5 103.5t-102.5 247zM1202 311q0 -86 61.5 -146.5t147.5 -60.5q84 0 145.5 60.5t61.5 142.5 q0 88 -60.5 148.5t-148.5 60.5q-84 0 -145.5 -60.5t-61.5 -144.5z" />
<glyph unicode="&#x26;" horiz-adv-x="1366" d="M106 360q0 139 71 232.5t261 204.5q-96 121 -131 191.5t-35 141.5q0 135 102.5 228.5t248 93.5t239.5 -90t94 -232q0 -111 -61 -188.5t-221 -167.5l272 -334q63 113 64 236v8h164q0 -193 -119 -375l250 -309h-224l-127 160q-102 -100 -168 -137q-121 -70 -260 -70 q-188 0 -304 111.5t-116 295.5zM279 375q0 -109 78.5 -185.5t189.5 -76.5q150 0 309 168l-328 409q-139 -88 -194 -158.5t-55 -156.5zM440 1133q0 -55 26 -99.5t118 -150.5q121 76 166 129t45 123q0 76 -50.5 125t-128.5 49q-80 0 -128 -48t-48 -128z" />
<glyph unicode="'" horiz-adv-x="391" d="M98 1225v227h193v-227l-55 -275h-82z" />
<glyph unicode="(" horiz-adv-x="681" d="M150 530.5q0 241.5 90 501.5t243 461h113q-281 -453 -281 -963q0 -508 281 -964h-113q-154 201 -243.5 462t-89.5 502.5z" />
<glyph unicode=")" horiz-adv-x="681" d="M78 -434q281 453 280 962q0 508 -280 965h112q154 -201 244 -462t90 -502.5t-90 -501.5t-244 -461h-112z" />
<glyph unicode="*" horiz-adv-x="796" d="M82 1221l39 120l217 -77l-10 229h129l-11 -229l218 77l38 -120l-221 -62l144 -182l-105 -74l-127 191l-129 -191l-102 74l141 182z" />
<glyph unicode="+" horiz-adv-x="1196" d="M102 403v144h424v424h144v-424h424v-144h-424v-423h-144v423h-424z" />
<glyph unicode="," horiz-adv-x="569" d="M178 0v213h215v-246q0 -268 -215 -268v78q72 2 97.5 41t25.5 145v37h-123z" />
<glyph unicode="-" horiz-adv-x="681" d="M94 492v147h488v-147h-488z" />
<glyph unicode="." horiz-adv-x="569" d="M178 0v213h213v-213h-213z" />
<glyph unicode="/" horiz-adv-x="569" d="M-16 -41l485 1534h113l-486 -1534h-112z" />
<glyph unicode="0" horiz-adv-x="1138" d="M88 702q0 182 31 321.5t78 218.5t112.5 128t126 65.5t127.5 16.5q475 0 475 -762q0 -358 -121.5 -547.5t-353.5 -189.5q-233 0 -354 191t-121 558zM272 700q0 -598 287 -598q152 0 223.5 147.5t71.5 457.5q0 586 -291 585.5t-291 -592.5z" />
<glyph unicode="1" horiz-adv-x="1138" d="M209 1034v129q209 27 272.5 74t110.5 215h119v-1452h-181v1034h-321z" />
<glyph unicode="2" horiz-adv-x="1138" d="M70 0q12 240 96 370t311 259l189 106q197 113 196 287q0 117 -82 194.5t-205 77.5q-272 0 -292 -346h-181q14 504 480 504q207 0 336 -119t129 -307q0 -270 -308 -438l-204 -111q-133 -72 -190.5 -139.5t-72.5 -159.5h764v-178h-966z" />
<glyph unicode="3" horiz-adv-x="1138" d="M66 422h180q10 -158 83.5 -233.5t221.5 -75.5q141 0 221 76.5t80 213.5q0 264 -301 265l-76 -2h-22v153q195 4 275.5 49t80.5 179q0 115 -68.5 181t-187.5 66q-156 0 -214 -85t-63 -226h-180q10 469 455 469q207 0 324.5 -106.5t117.5 -292.5q0 -221 -202 -301 q131 -45 188 -126t57 -220q0 -207 -134 -330t-357 -123q-446 0 -479 469z" />
<glyph unicode="4" horiz-adv-x="1138" d="M57 348v191l660 913h133v-942h215v-162h-215v-348h-180v348h-613zM215 510h455v635z" />
<glyph unicode="5" horiz-adv-x="1138" d="M72 356h180q63 -244 297 -243q147 0 232 90t85 246q0 162 -86 255t-231 93q-84 0 -143.5 -30t-122.5 -105h-166l108 790h750v-178h-604l-58 -406q121 88 269 88q209 0 339 -134t130 -349q0 -229 -139.5 -374.5t-358.5 -145.5q-84 0 -154.5 18.5t-116.5 44t-84 67.5 t-57.5 73.5t-37 80t-21.5 66.5t-10 53z" />
<glyph unicode="6" horiz-adv-x="1138" d="M88 662q0 193 35 339t87 230t125 136t137.5 68.5t135.5 16.5q166 0 275.5 -100.5t136.5 -278.5h-180q-23 104 -86.5 161.5t-157.5 57.5q-156 0 -239 -142t-85 -409q119 162 334 162q195 0 320 -129t125 -332q0 -213 -134.5 -351t-341.5 -138q-487 0 -487 709zM283 438 q0 -139 84 -232t211 -93q125 0 206.5 89t81.5 226q0 145 -75.5 230t-206.5 85q-133 0 -217 -85t-84 -220z" />
<glyph unicode="7" horiz-adv-x="1138" d="M94 1274v178h971v-152q-246 -328 -388 -640t-202 -660h-192q82 358 208.5 630.5t387.5 643.5h-785z" />
<glyph unicode="8" horiz-adv-x="1138" d="M76 403q0 242 248 361q-111 70 -154 135.5t-43 165.5q0 170 122 278.5t314.5 108.5t314 -108.5t121.5 -278.5q0 -102 -43 -168t-155 -133q250 -119 250 -363q0 -199 -136.5 -323.5t-351.5 -124.5t-351 125.5t-136 324.5zM260 399q0 -127 83 -206.5t216 -79.5 q137 0 222 78.5t85 207.5q0 127 -84 206t-219 79t-219 -79t-84 -206zM311 1063q0 -102 69 -164.5t183 -62.5q113 0 182.5 61t69.5 164q0 106 -68.5 168.5t-183 62.5t-183.5 -62.5t-69 -166.5z" />
<glyph unicode="9" horiz-adv-x="1138" d="M78 963q0 213 134 351t341 138q489 0 489 -709q0 -193 -34.5 -339t-87 -230t-125 -136t-138 -68.5t-137.5 -16.5q-166 0 -275.5 100.5t-135.5 278.5h180q23 -104 86 -161.5t157 -57.5q156 0 239 142t85 409q-135 -162 -331.5 -162t-321.5 129t-125 332zM262 977 q0 -145 76 -230t207 -85t216 86t85 219q0 141 -84 234t-211 93q-125 0 -207 -90t-82 -227z" />
<glyph unicode=":" horiz-adv-x="569" d="M225 0v213h213v-213h-213zM225 860v213h213v-213h-213z" />
<glyph unicode=";" horiz-adv-x="569" d="M225 0v213h215v-246q0 -268 -215 -268v78q72 2 97.5 41t25.5 145v37h-123zM227 860v213h213v-213h-213z" />
<glyph unicode="&#x3c;" horiz-adv-x="1196" d="M92 406v141l1002 424v-162l-807 -330l807 -336v-161z" />
<glyph unicode="=" horiz-adv-x="1196" d="M102 227v144h992v-144h-992zM102 580v143h992v-143h-992z" />
<glyph unicode="&#x3e;" horiz-adv-x="1196" d="M102 -18v161l807 330l-807 336v162l1002 -424v-141z" />
<glyph unicode="?" horiz-adv-x="1138" d="M158 1038q0 236 113.5 358t334.5 122q199 0 317.5 -106.5t118.5 -287.5q0 -94 -37.5 -169.5t-91 -126t-107.5 -96.5t-92 -104.5t-38 -123.5v-96h-184v112q0 76 37.5 143.5t92 116.5t107.5 98.5t91 112t38 133.5q0 104 -71.5 169t-190.5 65q-150 0 -207 -84t-57 -236h-174 zM492 0v213h184v-213h-184z" />
<glyph unicode="@" horiz-adv-x="2078" d="M70 528q0 201 86 394.5t237 330.5q135 123 317.5 194t364.5 71q358 0 615.5 -225.5t257.5 -536.5q0 -252 -176 -457q-156 -182 -381 -182q-197 0 -226 157q-135 -147 -291 -147q-143 0 -238 107.5t-95 267.5q0 223 159.5 395t366.5 172q172 0 250 -178l45 135h170 l-184 -573q-25 -72 -25 -103q0 -37 30.5 -63.5t71.5 -26.5q131 0 237.5 145.5t106.5 325.5q0 256 -214 442.5t-506 186.5q-324 0 -564.5 -239.5t-240.5 -561.5q0 -293 221 -492.5t547 -199.5q162 0 395 65l57 -137q-229 -86 -463 -86q-254 0 -469 109.5t-338.5 298 t-123.5 411.5zM725 500q0 -100 59.5 -171t143.5 -71q133 0 226 170t93 326q0 78 -55 131t-137 53q-129 0 -229.5 -133t-100.5 -305z" />
<glyph unicode="A" horiz-adv-x="1366" d="M35 0l532 1493h246l524 -1493h-213l-153 449h-576l-157 -449h-203zM442 608h476l-230 680z" />
<glyph unicode="B" horiz-adv-x="1366" d="M162 0v1493h606q125 0 217 -37t138 -97.5t66.5 -120.5t20.5 -124q0 -229 -206 -326q143 -55 207.5 -141t64.5 -221q0 -193 -121 -309.5t-319 -116.5h-674zM352 168h465q100 0 163.5 44t84 97t20.5 115q0 117 -69.5 187.5t-198.5 70.5h-465v-514zM352 850h369 q299 0 299 237.5t-299 237.5h-369v-475z" />
<glyph unicode="C" horiz-adv-x="1478" d="M98 729q0 102 17.5 202.5t66.5 209t122 189.5t197 134.5t279 53.5q487 0 576 -488h-195q-33 160 -129 240t-274 80q-217 0 -343 -166t-126 -453q0 -281 131 -445.5t354 -164.5q184 0 282.5 103.5t133.5 320.5h196q-68 -592 -614 -592q-154 0 -275.5 52t-194.5 132 t-121 187.5t-65.5 206t-17.5 198.5z" />
<glyph unicode="D" horiz-adv-x="1478" d="M182 0v1493h576q285 0 446.5 -198.5t161.5 -547t-163 -548t-445 -199.5h-576zM373 168h352q221 0 336 147.5t115 429.5q0 285 -115 432.5t-336 147.5h-352v-1157z" />
<glyph unicode="E" horiz-adv-x="1366" d="M184 0v1493h1035v-168h-844v-477h813v-168h-813v-512h880v-168h-1071z" />
<glyph unicode="F" horiz-adv-x="1251" d="M184 0v1493h1002v-168h-811v-477h712v-168h-712v-680h-191z" />
<glyph unicode="G" horiz-adv-x="1593" d="M90 731q0 98 18.5 197.5t69.5 208t128 190.5t207 136.5t294 54.5q256 0 421 -125t204 -353h-195q-31 143 -146.5 226.5t-285.5 83.5q-238 0 -381 -167t-143 -442q0 -78 14 -156.5t51 -164.5t95.5 -150.5t154.5 -106.5t219 -42q205 0 337 129t132 330v41h-455v167h623 v-796h-121l-47 198q-213 -238 -510 -237q-303 0 -493.5 217t-190.5 561z" />
<glyph unicode="H" horiz-adv-x="1478" d="M170 0v1493h190v-645h768v645h191v-1493h-191v680h-768v-680h-190z" />
<glyph unicode="I" horiz-adv-x="569" d="M205 0v1493h192v-1493h-192z" />
<glyph unicode="J" horiz-adv-x="1024" d="M35 348v131h194v-96q0 -131 57.5 -200.5t166.5 -69.5q131 0 180 86t49 243v1051h190v-1120q0 -195 -113.5 -307.5t-307.5 -112.5q-193 0 -304.5 106.5t-111.5 288.5z" />
<glyph unicode="K" horiz-adv-x="1366" d="M162 0v1493h190v-756l744 756h245l-608 -608l615 -885h-226l-526 766l-244 -244v-522h-190z" />
<glyph unicode="L" horiz-adv-x="1138" d="M164 0v1493h190v-1325h738v-168h-928z" />
<glyph unicode="M" horiz-adv-x="1705" d="M154 0v1493h264l442 -1300l434 1300h265v-1493h-181v1251l-420 -1251h-200l-424 1251v-1251h-180z" />
<glyph unicode="N" horiz-adv-x="1478" d="M156 0v1493h206l781 -1221v1221h180v-1493h-215l-772 1210v-1210h-180z" />
<glyph unicode="O" horiz-adv-x="1593" d="M78 735q0 350 198.5 566.5t520.5 216.5q328 0 525.5 -217.5t197.5 -577.5q0 -332 -197 -551t-524 -219q-324 0 -522.5 216t-198.5 566zM268 735.5q0 -276.5 146.5 -445.5t384 -169t384 168t146.5 438q0 283 -145.5 453t-386.5 170q-238 0 -383.5 -169t-145.5 -445.5z" />
<glyph unicode="P" horiz-adv-x="1366" d="M186 0v1493h617q221 0 341 -113.5t120 -324.5q0 -190 -116 -306t-302 -116h-469v-633h-191zM377 801h397q137 0 214 69.5t77 192.5t-77 192.5t-214 69.5h-397v-524z" />
<glyph unicode="Q" horiz-adv-x="1593" d="M78 735q0 350 198.5 566.5t522.5 216.5q322 0 521.5 -215.5t199.5 -563.5q0 -352 -211 -583l192 -158l-96 -119l-215 178q-176 -104 -391 -104q-324 0 -522.5 216t-198.5 566zM268 735.5q0 -276.5 145.5 -445.5t383.5 -169q123 0 245 57l-151 127l94 115l182 -150 q162 182 162 467q0 274 -146.5 443.5t-384 169.5t-384 -169t-146.5 -445.5z" />
<glyph unicode="R" horiz-adv-x="1478" d="M190 0v1493h689q219 0 336.5 -103.5t117.5 -295.5q0 -127 -55 -211t-180 -146q66 -29 109.5 -67.5t63 -88t26 -92.5t6.5 -102q0 -18 -1.5 -53t-1.5 -51q0 -84 18.5 -141.5t72.5 -94.5v-47h-232q-41 94 -41 244v133q0 137 -59.5 201.5t-186.5 64.5h-491v-643h-191z M381 811h461q152 0 222.5 61.5t70.5 194.5q0 147 -78 202.5t-215 55.5h-461v-514z" />
<glyph unicode="S" horiz-adv-x="1366" d="M98 475h181v-10q0 -63 19 -118.5t63.5 -109t131.5 -85t207 -31.5q115 0 195 26.5t118 69.5t53 85t15 89q0 170 -274 242l-371 98q-293 76 -293 348q0 203 142.5 321t388.5 118q258 0 401.5 -122t145.5 -341h-181q-2 145 -98 224t-274 79q-152 0 -243 -69.5t-91 -182.5 q0 -86 55 -135t191 -86l374 -101q152 -41 235 -139t83 -235q0 -59 -15.5 -118t-56.5 -121t-104.5 -109.5t-169 -78t-238.5 -30.5q-84 0 -160.5 13.5t-156.5 49t-137.5 92t-95.5 150.5t-40 217z" />
<glyph unicode="T" horiz-adv-x="1251" d="M43 1325v168h1171v-168h-489v-1325h-190v1325h-492z" />
<glyph unicode="U" horiz-adv-x="1478" d="M174 444v1049h191v-1049q0 -162 103 -242.5t277 -80.5q180 0 282.5 86t102.5 237v1049h191v-1049q0 -225 -156.5 -358t-419.5 -133q-266 0 -418.5 132t-152.5 359z" />
<glyph unicode="V" horiz-adv-x="1366" d="M61 1493h205l439 -1264l413 1264h203l-518 -1493h-205z" />
<glyph unicode="W" horiz-adv-x="1933" d="M45 1493h213l281 -1212l331 1212h205l340 -1212l275 1212h213l-379 -1493h-209l-344 1227l-334 -1227h-209z" />
<glyph unicode="X" horiz-adv-x="1366" d="M45 0l528 766l-495 727h231l383 -586l385 586h228l-504 -727l528 -766h-235l-408 623l-410 -623h-231z" />
<glyph unicode="Y" horiz-adv-x="1366" d="M27 1493h235l438 -727l426 727h228l-561 -907v-586h-191v586z" />
<glyph unicode="Z" horiz-adv-x="1251" d="M57 0v168l897 1157h-839v168h1075v-172l-893 -1153h897v-168h-1137z" />
<glyph unicode="[" horiz-adv-x="569" d="M131 -434v1927h381v-147h-211v-1633h211v-147h-381z" />
<glyph unicode="\" horiz-adv-x="569" d="M-16 1493h112l486 -1534h-113z" />
<glyph unicode="]" horiz-adv-x="567" d="M45 -287h211v1633h-211v147h381v-1927h-381v147z" />
<glyph unicode="^" horiz-adv-x="960" d="M90 674l313 778h150l317 -778h-141l-250 614l-248 -614h-141z" />
<glyph unicode="_" horiz-adv-x="1138" d="M-45 -258h1229v-102h-1229v102z" />
<glyph unicode="`" horiz-adv-x="681" d="M45 1516h231l197 -304h-123z" />
<glyph unicode="a" horiz-adv-x="1138" d="M86 270q0 47 9 86t20.5 69t40 55.5t48 42t65.5 31.5t71 22.5t86 17.5t90 14t102 15q100 12 139.5 38.5t39.5 79.5v45q0 78 -62.5 119t-177.5 41q-119 0 -180.5 -46t-71.5 -144h-172q12 348 430 348q199 0 301.5 -75t102.5 -218v-631q0 -84 92 -84q18 0 37 4v-129 q-72 -18 -117 -18q-82 0 -124 38t-52 120q-172 -158 -365 -158q-162 0 -257 86t-95 231zM264 274.5q0 -81.5 55.5 -127t155.5 -45.5q141 0 231.5 75t90.5 161v192q-51 -25 -154.5 -41t-179.5 -28t-137.5 -58.5t-61.5 -128z" />
<glyph unicode="b" horiz-adv-x="1138" d="M111 0v1493h170v-565q117 176 331 176q213 0 336 -151.5t123 -411.5q0 -266 -127 -427t-340 -161q-219 0 -340 184v-137h-153zM281 528.5q0 -188.5 81.5 -302t217.5 -113.5q139 0 226 113.5t87 295.5q0 193 -85 307.5t-228 114.5q-135 0 -217 -113.5t-82 -302z" />
<glyph unicode="c" horiz-adv-x="1024" d="M63 518q0 266 130.5 426t347.5 160q186 0 297.5 -100.5t126.5 -290.5h-172q-16 113 -82 173t-172 60q-139 0 -218 -113.5t-79 -314.5q0 -190 79.5 -298.5t221.5 -108.5q219 0 262 258h172q-16 -197 -131 -306.5t-307 -109.5q-219 0 -347.5 152.5t-128.5 412.5z" />
<glyph unicode="d" horiz-adv-x="1138" d="M53 539q0 256 126 410.5t335 154.5q221 0 330 -166v555h170v-1493h-152v141q-70 -100 -150.5 -144t-191.5 -44q-217 0 -342 157t-125 429zM231 528q0 -188 86 -301.5t228 -113.5q135 0 217 112.5t82 298.5q0 193 -82 306.5t-219 113.5q-139 0 -225.5 -115t-86.5 -301z " />
<glyph unicode="e" horiz-adv-x="1138" d="M82 522q0 264 134 423t357 159q152 0 267.5 -76t167.5 -207q43 -113 43 -342h-791q2 -147 57 -229q88 -139 258 -139q209 0 281 215h172q-33 -176 -153.5 -274.5t-305.5 -98.5q-225 0 -356 152.5t-131 416.5zM264 618h602q2 4 2 13q0 133 -86 224t-211 91 q-129 0 -213 -89t-94 -239z" />
<glyph unicode="f" horiz-adv-x="569" d="M37 934v139h143v182q0 115 66.5 179.5t185.5 64.5q47 0 96 -10v-141q-39 2 -59 2q-119 0 -119 -109v-168h178v-139h-178v-934h-170v934h-143z" />
<glyph unicode="g" horiz-adv-x="1138" d="M59 518q0 262 126 424t331 162q201 0 328 -186v155h157v-897q0 -154 -18 -257t-67.5 -191t-146.5 -131t-247 -43q-188 0 -300.5 86t-127.5 237h174q29 -180 260 -180q172 0 235.5 97t63.5 296v55q-72 -102 -148.5 -147t-176.5 -45q-188 0 -315.5 154.5t-127.5 410.5z M238 528q0 -195 79.5 -306t219.5 -111q135 0 212.5 109.5t77.5 301.5q0 201 -76.5 312.5t-215.5 111.5q-137 0 -217 -112.5t-80 -305.5z" />
<glyph unicode="h" horiz-adv-x="1138" d="M143 0v1493h170v-567q76 98 153 138t191 40q156 0 247 -79t91 -214v-811h-170v743q0 113 -68.5 162t-152.5 49q-131 0 -211 -99t-80 -263v-592h-170z" />
<glyph unicode="i" horiz-adv-x="454" d="M135 1278v215h172v-215h-172zM137 -12v1073h170v-1073h-170z" />
<glyph unicode="j" horiz-adv-x="454" d="M-37 -295q23 -2 41 -2q78 0 108.5 30.5t30.5 110.5v1229h170v-1296q0 -223 -293 -223q-27 0 -57 6v145zM143 1278v215h170v-215h-170z" />
<glyph unicode="k" horiz-adv-x="1024" d="M119 0v1493h170v-875l454 455h220l-373 -371l438 -702h-211l-362 582l-166 -164v-418h-170z" />
<glyph unicode="l" horiz-adv-x="454" d="M139 0v1493h172v-1493h-172z" />
<glyph unicode="m" horiz-adv-x="1705" d="M143 0v1073h158v-151q70 96 146.5 139t183.5 43q199 0 289 -164q76 90 149.5 127t179.5 37q150 0 231 -77t81 -222v-805h-172v739q0 102 -52.5 158.5t-146.5 56.5q-104 0 -178 -81.5t-74 -198.5v-674h-172v739q0 102 -52 158.5t-147 56.5q-104 0 -178 -81.5t-74 -198.5 v-674h-172z" />
<glyph unicode="n" horiz-adv-x="1138" d="M143 0v1073h158v-180q72 113 155 162t201 49q156 0 248 -80t92 -213v-811h-170v743q0 96 -59 153.5t-162 57.5q-131 0 -211 -99t-80 -263v-592h-172z" />
<glyph unicode="o" horiz-adv-x="1138" d="M74 528.5q0 270.5 129 423t354 152.5q231 0 359 -152.5t128 -431.5q0 -264 -130 -415.5t-355 -151.5q-229 0 -357 152.5t-128 423zM252 528.5q0 -194.5 82 -306t225 -111.5q141 0 224 111.5t83 299.5q0 199 -80.5 311.5t-226.5 112.5q-143 0 -225 -111.5t-82 -306z" />
<glyph unicode="p" horiz-adv-x="1138" d="M111 -446v1519h157v-162q121 193 342 193q213 0 337 -158t124 -428q0 -256 -126 -410.5t-333 -154.5q-199 0 -329 160v-559h-172zM283 528.5q0 -188.5 81.5 -302t217.5 -113.5q139 0 225 113.5t86 295.5q0 193 -85 307.5t-226 114.5q-135 0 -217 -113.5t-82 -302z" />
<glyph unicode="q" horiz-adv-x="1138" d="M53 516q0 266 127 427t340 161q219 0 342 -174v143h152v-1519h-170v569q-117 -170 -332 -170q-213 0 -336 151.5t-123 411.5zM231 528q0 -188 86 -301.5t228 -113.5q135 0 217 112.5t82 296.5q0 193 -81 307.5t-218 114.5q-141 0 -227.5 -115t-86.5 -301z" />
<glyph unicode="r" horiz-adv-x="681" d="M141 0v1073h158v-194q74 121 142.5 173t150.5 52q23 0 65 -6v-174q-172 -4 -258 -80t-86 -287v-557h-172z" />
<glyph unicode="s" horiz-adv-x="1024" d="M70 319h180q12 -96 66.5 -152t195.5 -56q113 0 181.5 46t68.5 122q0 59 -39 94t-127 55l-160 39q-190 45 -265 113.5t-75 195.5q0 150 113 239t299 89t286.5 -86t102.5 -244h-180q-6 172 -215 172q-104 0 -166 -44t-62 -118q0 -57 47.5 -93t151.5 -60l164 -39 q160 -39 231.5 -109.5t71.5 -189.5q0 -156 -120 -248t-322 -92q-416 -1 -428 366z" />
<glyph unicode="t" horiz-adv-x="569" d="M29 934v139h145v295h170v-295h176v-139h-176v-735q0 -57 19.5 -77t74.5 -20q51 0 82 9v-144q-80 -14 -139 -14q-100 0 -153.5 44t-53.5 126v811h-145z" />
<glyph unicode="u" horiz-adv-x="1138" d="M133 246v827h170v-760q0 -96 59.5 -153.5t161.5 -57.5q133 0 213 99.5t80 263.5v608h170v-1073h-153v150q-76 -106 -158 -151.5t-201 -45.5q-156 0 -249 80t-93 213z" />
<glyph unicode="v" horiz-adv-x="1024" d="M20 1073h193l287 -870l303 870h192l-411 -1073h-187z" />
<glyph unicode="w" horiz-adv-x="1478" d="M12 1073h189l219 -835l205 835h209l210 -835l213 835h193l-315 -1073h-195l-217 842l-207 -842h-192z" />
<glyph unicode="x" horiz-adv-x="1024" d="M35 0l379 547l-359 526h195l258 -389l258 389h192l-360 -518l371 -555h-199l-268 412l-273 -412h-194z" />
<glyph unicode="y" horiz-adv-x="1024" d="M41 1073h182l275 -835l297 835h184l-477 -1298q-84 -221 -277 -221q-63 0 -114 26v154q55 -12 90 -13q53 0 83.5 24t53.5 81l65 170z" />
<glyph unicode="z" horiz-adv-x="1024" d="M63 0v154l642 770h-599v149h801v-151l-637 -772h666v-150h-873z" />
<glyph unicode="{" horiz-adv-x="684" d="M88 459v141q90 18 125 78.5t35 204.5v342q0 127 58.5 197.5t164.5 70.5h94v-133h-30q-76 0 -102.5 -28.5t-26.5 -108.5v-371q0 -141 -37 -213t-131 -109q168 -78 168 -323v-371q0 -80 26.5 -108.5t102.5 -28.5h30v-133h-94q-106 0 -164.5 70.5t-58.5 197.5v342 q0 141 -35 203t-125 80z" />
<glyph unicode="|" horiz-adv-x="532" d="M205 -434v1927h123v-1927h-123z" />
<glyph unicode="}" horiz-adv-x="684" d="M59 -301h33q76 0 103.5 28.5t27.5 108.5v371q0 246 168 321q-168 78 -168 324v371q0 80 -27.5 108.5t-103.5 28.5h-33v133h97q106 0 165.5 -70.5t59.5 -197.5v-342q0 -141 34 -203t122 -80v-141q-88 -18 -122 -80t-34 -203v-342q0 -127 -59.5 -197.5t-165.5 -70.5h-97 v133z" />
<glyph unicode="~" horiz-adv-x="1196" d="M154 600q8 143 64 220t157 77q55 0 110 -33l240 -141q57 -35 102 -35q61 0 83 38t22 116h108q0 -293 -215 -293q-80 0 -166 53l-200 129q-47 29 -88 29q-96 0 -109 -160h-108z" />
<glyph unicode="&#xa1;" horiz-adv-x="569" d="M422 1073v-213h-172v213h172zM420 272v-692h-170v692l45 457h80z" />
<glyph unicode="&#xa2;" horiz-adv-x="1138" d="M106 518q0 250 120 405.5t327 178.5v184h86v-182q180 -12 281.5 -113.5t111.5 -277.5h-172q-10 102 -68.5 163.5t-152.5 69.5v-837q197 23 233 260h172q-10 -184 -118.5 -296t-286.5 -120v-199h-86v201q-207 18 -327 168.5t-120 394.5zM285 518q0 -174 70.5 -279.5 t197.5 -125.5v831q-268 -49 -268 -426z" />
<glyph unicode="&#xa3;" horiz-adv-x="1138" d="M53 657v113h166q-70 117 -89 167t-19 118q0 186 140 312t347 126q59 0 113.5 -9t118 -40t108.5 -81t77 -139t34 -206h-181q-8 315 -278 315q-131 0 -210 -71.5t-79 -190.5q0 -57 15.5 -102t54.5 -108.5t51 -90.5h328v-113h-279q31 -88 31 -145q0 -80 -52.5 -164 t-189.5 -223q121 80 250 80q68 0 174.5 -32t155.5 -32q82 0 170 62l86 -135q-117 -115 -269 -115q-88 0 -225 47t-209 47q-109 0 -223 -76l-98 135q141 121 198.5 209t57.5 183q0 78 -49 159h-226z" />
<glyph unicode="&#xa4;" horiz-adv-x="1138" d="M137 1020l115 108l113 -112q90 53 198 53q119 0 201 -57l121 108l116 -119l-112 -112q53 -84 53 -191q0 -102 -59 -198l110 -111l-119 -110l-108 108q-82 -61 -205 -61q-109 0 -192 51l-105 -105l-114 117l98 100q-66 88 -66 209q0 117 66 209zM344 696 q0 -88 64.5 -150.5t154.5 -62.5q88 0 152.5 62.5t64.5 148.5q0 90 -63.5 153.5t-155.5 63.5q-90 0 -153.5 -63.5t-63.5 -151.5z" />
<glyph unicode="&#xa5;" horiz-adv-x="1138" d="M23 1452h174l378 -659l367 659h174l-411 -727h309v-104h-348v-158h348v-105h-348v-358h-181v358h-352v105h352v158h-352v104h309z" />
<glyph unicode="&#xa6;" horiz-adv-x="532" d="M205 387h123v-821h-123v821zM205 672v821h123v-821h-123z" />
<glyph unicode="&#xa7;" horiz-adv-x="1138" d="M88 639q0 102 51 175t164 132q-90 104 -90 209q0 141 109.5 239.5t269.5 98.5t259 -100.5t99 -262.5v-57h-172v53q0 96 -54 152.5t-144 56.5q-78 0 -130.5 -49t-52.5 -125q0 -45 26 -79.5t91 -77.5l299 -193q125 -80 174 -155.5t49 -186.5q0 -236 -223 -319 q61 -70 85 -123.5t24 -118.5q0 -147 -110 -245.5t-273 -98.5q-49 0 -96.5 8t-100.5 35.5t-93 70.5t-65.5 119t-25.5 174h174q0 -141 62.5 -195.5t146.5 -54.5q88 0 142 49.5t54 127.5q0 102 -112 180l-349 239q-100 70 -144 146t-44 176zM250 671.5q0 -61.5 26.5 -102.5 t108.5 -100l340 -252q150 80 149 209q0 125 -149 229l-330 224q-80 -53 -112.5 -99.5t-32.5 -108z" />
<glyph unicode="&#xa8;" horiz-adv-x="681" d="M61 1253v211h213v-211h-213zM393 1253v211h213v-211h-213z" />
<glyph unicode="&#xa9;" horiz-adv-x="1509" d="M-27 737q0 324 229.5 553.5t553 229.5t553 -228.5t229.5 -552.5q0 -328 -230.5 -556t-562.5 -228q-315 0 -543.5 231.5t-228.5 550.5zM113 737q0 -268 187 -461.5t448 -193.5q272 0 461.5 191.5t189.5 465.5q0 268 -188.5 461t-455 193t-454.5 -193t-188 -463zM371 731 q0 215 111.5 348t291.5 133q268 0 340 -317h-145q-27 102 -73 146t-128 44q-117 0 -186.5 -95t-69.5 -257q0 -147 70.5 -247.5t185.5 -100.5q176 0 217 254h145q-12 -55 -19 -84t-34.5 -94.5t-61.5 -102t-99.5 -68.5t-147.5 -32q-176 0 -286.5 132t-110.5 341z" />
<glyph unicode="&#xaa;" horiz-adv-x="757" d="M76 1014q0 100 69.5 150t251.5 65q57 4 79 18.5t22 48.5v27q0 90 -138 90q-70 0 -99.5 -24.5t-39.5 -90.5h-121q6 221 265 222q250 0 249 -193v-366q0 -47 48 -48q8 0 20 7v-91q-33 -12 -66 -12q-96 0 -112 88q-100 -88 -215 -88q-98 0 -155.5 53.5t-57.5 143.5zM88 621 v104h567v-104h-567zM195 1020q0 -96 116 -96q76 0 131.5 41t55.5 94v104q-39 -16 -124 -26.5t-132 -34t-47 -82.5z" />
<glyph unicode="&#xab;" horiz-adv-x="917" d="M92 465v182l311 250v-170l-217 -170l217 -170v-170zM512 465v182l311 250v-170l-217 -170l217 -170v-170z" />
<glyph unicode="&#xac;" horiz-adv-x="1196" d="M82 625v143h1032v-592h-143v449h-889z" />
<glyph unicode="&#xad;" horiz-adv-x="681" d="M94 492v147h488v-147h-488z" />
<glyph unicode="&#xae;" horiz-adv-x="1509" d="M-27 737q0 324 229.5 553.5t553 229.5t553 -228.5t229.5 -552.5q0 -328 -230.5 -556t-562.5 -228q-315 0 -543.5 231.5t-228.5 550.5zM113 737q0 -268 187 -461.5t448 -193.5q272 0 461.5 191.5t189.5 465.5q0 268 -188.5 461t-455 193t-454.5 -193t-188 -463zM414 287 v911h422q289 0 288 -258q0 -70 -23.5 -113t-86.5 -90q55 -37 74.5 -85t19.5 -113q0 -12 -1 -38t-1 -36q0 -92 47 -127v-51h-162q-31 72 -30 147v10l2 82q0 74 -31 107t-101 33h-274v-379h-143zM557 795h264q154 0 154 137q0 72 -36 104.5t-118 32.5h-264v-274z" />
<glyph unicode="&#xaf;" horiz-adv-x="681" d="M57 1292v144h561v-144h-561z" />
<glyph unicode="&#xb0;" horiz-adv-x="1241" d="M309 1096q0 127 91.5 218t220.5 91q127 0 218 -91t91 -218q0 -131 -91 -221.5t-223 -90.5q-125 0 -216 92.5t-91 219.5zM426 1096q0 -80 56.5 -137.5t133.5 -57.5q82 0 139.5 56.5t57.5 138.5q0 80 -56.5 136t-136 56t-137 -57t-57.5 -135z" />
<glyph unicode="&#xb1;" horiz-adv-x="1196" d="M102 -23v144h992v-144h-992zM102 709v143h424v424h144v-424h424v-143h-424v-424h-144v424h-424z" />
<glyph unicode="&#xb2;" horiz-adv-x="716" d="M39 582q8 150 60.5 227.5t199.5 155.5l119 63q121 66 121 162q0 66 -50.5 109.5t-123.5 43.5q-53 0 -90 -18t-54.5 -51t-25 -62.5t-9.5 -70.5h-127q8 311 310 311q131 0 215 -71.5t84 -186.5q0 -168 -197 -264l-129 -66q-68 -35 -99.5 -70.5t-49.5 -93.5h469v-118h-623z " />
<glyph unicode="&#xb3;" horiz-adv-x="716" d="M33 844h127q4 -94 49 -138t137 -44q86 0 135 44t49 121q0 55 -32.5 95.5t-85.5 48.5q-31 4 -136 4v104q131 0 178.5 27t47.5 98q0 66 -42 102.5t-114 36.5q-94 0 -130 -46t-36 -136h-129q6 291 295 291q131 0 208 -65.5t77 -180.5q0 -121 -117 -174q145 -49 145 -205 q0 -125 -87 -199.5t-230 -74.5q-147 0 -228 76t-81 215z" />
<glyph unicode="&#xb4;" horiz-adv-x="681" d="M188 1212l197 304h231l-305 -304h-123z" />
<glyph unicode="&#xb5;" horiz-adv-x="1138" d="M133 -451v1524h170v-760q0 -96 59.5 -153.5t159.5 -57.5q133 0 213 99.5t80 263.5v608h170v-893q0 -84 92 -84q16 0 37 4v-129q-68 -18 -117 -18q-170 0 -176 170q-121 -170 -334 -170q-111 0 -184 53v-457h-170z" />
<glyph unicode="&#xb6;" horiz-adv-x="1099" d="M98 1001q0 207 133.5 349.5t325.5 142.5h512v-131h-117v-1724h-131v1724h-168v-1724h-131v892q-199 10 -311.5 144t-112.5 327z" />
<glyph unicode="&#xb7;" horiz-adv-x="569" d="M179 465v213h213v-213h-213z" />
<glyph unicode="&#xb8;" horiz-adv-x="681" d="M80 -369l43 82q18 -8 52 -24.5t51.5 -23.5t44 -13t53.5 -6q47 0 78.5 26.5t31.5 65.5q0 76 -94 76q-31 0 -64 -17l-24 15l86 188h78l-47 -115q27 4 57 4q78 0 120 -35.5t42 -101.5q0 -88 -67.5 -139t-184.5 -51q-96 -1 -256 69z" />
<glyph unicode="&#xb9;" horiz-adv-x="716" d="M141 1188v94l31 2q111 10 147.5 40t63.5 128h88v-870h-127v606h-203z" />
<glyph unicode="&#xba;" horiz-adv-x="747" d="M82 1169q0 166 77 258.5t214 92.5q139 0 215 -92.5t76 -264.5q0 -162 -77 -254t-214 -92t-214 92t-77 260zM104 621v104h539v-104h-539zM201 1169q0 -115 46 -180t126 -65t126 64.5t46 176.5q0 117 -45 182.5t-127 65.5q-80 0 -126 -65.5t-46 -178.5z" />
<glyph unicode="&#xbb;" horiz-adv-x="917" d="M826 649v-182l-311 -250v170l217 170l-217 170v170zM406 649v-182l-311 -250v170l217 170l-217 170v170z" />
<glyph unicode="&#xbc;" horiz-adv-x="1779" d="M125 1188v94l31 2q111 10 147.5 40t63.5 128h88v-870h-127v606h-203zM391 -41l926 1493h119l-926 -1493h-119zM1090 205v121l417 544h95v-557h137v-108h-137v-205h-127v205h-385zM1210 313h265v349z" />
<glyph unicode="&#xbd;" horiz-adv-x="1779" d="M125 1188v94l31 2q111 10 147.5 40t63.5 128h88v-870h-127v606h-203zM342 -41l926 1493h118l-925 -1493h-119zM1100 0q8 150 60 227.5t200 155.5l119 63q121 66 120 162q0 66 -50 110t-124 44q-53 0 -90 -18.5t-54 -51.5t-24.5 -62.5t-9.5 -70.5h-127q8 311 310 311 q131 0 215 -71.5t84 -186.5q0 -168 -197 -264l-129 -65q-68 -35 -99.5 -71t-50.5 -93h469v-119h-622z" />
<glyph unicode="&#xbe;" horiz-adv-x="1779" d="M33 844h127q4 -94 49 -138t137 -44q86 0 135 44t49 121q0 55 -32.5 95.5t-85.5 48.5q-31 4 -136 4v104q131 0 178.5 27t47.5 98q0 66 -42 102.5t-114 36.5q-94 0 -130 -46t-36 -136h-129q6 291 295 291q131 0 208 -65.5t77 -180.5q0 -121 -117 -174q145 -49 145 -205 q0 -125 -87 -199.5t-230 -74.5q-147 0 -228 76t-81 215zM412 -41l925 1493h119l-926 -1493h-118zM1090 205v121l417 544h95v-557h137v-108h-137v-205h-127v205h-385zM1210 313h265v349z" />
<glyph unicode="&#xbf;" horiz-adv-x="1138" d="M1081 35q0 -236 -113.5 -358t-334.5 -122q-199 0 -317.5 106.5t-118.5 287.5q0 94 37.5 169.5t91 126t107.5 96.5t92 104.5t38 123.5v96h184v-112q0 -76 -37.5 -143.5t-92 -116.5t-107.5 -98.5t-91 -112t-38 -133.5q0 -104 71.5 -169t190.5 -65q150 0 207 84t57 236h174z M747 1073v-213h-184v213h184z" />
<glyph unicode="&#xc0;" horiz-adv-x="1366" d="M389 1893h231l197 -304h-123zM35 0l532 1493h246l524 -1493h-213l-153 449h-576l-157 -449h-203zM442 608h476l-230 680z" />
<glyph unicode="&#xc1;" horiz-adv-x="1366" d="M561 1589l197 304h231l-305 -304h-123zM35 0l532 1493h246l524 -1493h-213l-153 449h-576l-157 -449h-203zM442 608h476l-230 680z" />
<glyph unicode="&#xc2;" horiz-adv-x="1366" d="M393 1591l197 308h194l197 -308h-129l-166 197l-162 -197h-131zM35 0l532 1493h246l524 -1493h-213l-153 449h-576l-157 -449h-203zM442 608h476l-230 680z" />
<glyph unicode="&#xc3;" horiz-adv-x="1366" d="M368 1605q16 100 62.5 155.5t113.5 55.5q51 0 141.5 -37.5t131.5 -37.5q51 0 76 75h118q-31 -213 -182 -213q-41 0 -143.5 39t-130.5 39q-47 0 -68 -76h-119zM35 0l532 1493h246l524 -1493h-213l-153 449h-576l-157 -449h-203zM442 608h476l-230 680z" />
<glyph unicode="&#xc4;" horiz-adv-x="1366" d="M417 1591v211h213v-211h-213zM749 1591v211h213v-211h-213zM35 2l532 1493h246l524 -1493h-213l-153 449h-576l-157 -449h-203zM442 610h476l-230 680z" />
<glyph unicode="&#xc5;" horiz-adv-x="1366" d="M506 1763q0 72 53 125t127 53q76 0 128 -52t52 -128q0 -74 -53 -126t-127 -52t-127 53t-53 127zM596 1763q0 -37 26.5 -63.5t63.5 -26.5t63.5 26.5t26.5 61.5q0 39 -25.5 64.5t-64.5 25.5q-37 0 -63.5 -26.5t-26.5 -61.5zM35 0l532 1493h246l524 -1493h-213l-153 449 h-576l-157 -449h-203zM442 608h476l-230 680z" />
<glyph unicode="&#xc6;" horiz-adv-x="2048" d="M23 0l612 1493h1274v-168h-760v-477h721v-168h-721v-512h797v-168h-988v438h-550l-175 -438h-210zM471 606h487v719h-204z" />
<glyph unicode="&#xc7;" horiz-adv-x="1478" d="M98 729q0 102 17.5 202.5t66.5 209t122 189.5t197 134.5t279 53.5q487 0 576 -488h-195q-33 158 -127 239t-274 81q-219 0 -345 -166t-126 -453q0 -281 131 -446.5t354 -165.5q184 0 281.5 102.5t134.5 323.5h196q-68 -592 -610 -592l-26 -68q27 4 57 4q78 0 120 -35.5 t42 -101.5q0 -88 -67.5 -139t-184.5 -51q-98 0 -256 69l43 82q14 -6 46 -21.5t50 -23.5t47 -15t58 -7q47 0 78.5 26.5t31.5 65.5q0 76 -94 76q-31 0 -64 -17l-22 15l63 141q-115 16 -176 37.5t-129 68.5q-139 100 -217 276.5t-78 393.5z" />
<glyph unicode="&#xc8;" horiz-adv-x="1366" d="M424 1887h231l197 -304h-123zM184 0v1493h1035v-168h-844v-477h813v-168h-813v-512h880v-168h-1071z" />
<glyph unicode="&#xc9;" horiz-adv-x="1366" d="M553 1591l197 304h231l-305 -304h-123zM184 0v1493h1035v-168h-844v-477h813v-168h-813v-512h880v-168h-1071z" />
<glyph unicode="&#xca;" horiz-adv-x="1366" d="M412 1589l197 308h194l197 -308h-129l-166 197l-162 -197h-131zM184 0v1493h1035v-168h-844v-477h813v-168h-813v-512h880v-168h-1071z" />
<glyph unicode="&#xcb;" horiz-adv-x="1366" d="M430 1597v211h213v-211h-213zM762 1597v211h213v-211h-213zM184 0v1493h1035v-168h-844v-477h813v-168h-813v-512h880v-168h-1071z" />
<glyph unicode="&#xcc;" horiz-adv-x="569" d="M0 1895h231l197 -304h-123zM205 0v1493h192v-1493h-192z" />
<glyph unicode="&#xcd;" horiz-adv-x="569" d="M145 1591l197 304h231l-305 -304h-123zM205 0v1493h192v-1493h-192z" />
<glyph unicode="&#xce;" horiz-adv-x="569" d="M-2 1587l197 308h194l197 -308h-129l-166 197l-162 -197h-131zM205 0v1493h192v-1493h-192z" />
<glyph unicode="&#xcf;" horiz-adv-x="569" d="M28 1593v211h213v-211h-213zM360 1593v211h213v-211h-213zM205 0v1493h192v-1493h-192z" />
<glyph unicode="&#xd0;" horiz-adv-x="1478" d="M41 694v137h141v662h578q283 0 444.5 -198.5t161.5 -547t-162 -548t-444 -199.5h-578v694h-141zM373 168h354q219 0 334 147.5t115 432t-115 431t-334 146.5h-354v-494h350v-137h-350v-526z" />
<glyph unicode="&#xd1;" horiz-adv-x="1478" d="M418 1570q16 100 62.5 155.5t113.5 55.5q51 0 141.5 -37.5t131.5 -37.5q51 0 76 75h118q-31 -213 -182 -213q-41 0 -143.5 39t-130.5 39q-47 0 -68 -76h-119zM156 0v1493h206l781 -1221v1221h180v-1493h-215l-772 1210v-1210h-180z" />
<glyph unicode="&#xd2;" horiz-adv-x="1593" d="M504 1889h231l197 -304h-123zM78 735q0 350 198.5 566.5t520.5 216.5q328 0 525.5 -217.5t197.5 -577.5q0 -332 -197 -551t-524 -219q-324 0 -522.5 216t-198.5 566zM268 735.5q0 -276.5 146.5 -445.5t384 -169t384 168t146.5 438q0 283 -145.5 453t-386.5 170 q-238 0 -383.5 -169t-145.5 -445.5z" />
<glyph unicode="&#xd3;" horiz-adv-x="1593" d="M657 1587l197 304h231l-305 -304h-123zM78 735q0 350 198.5 566.5t520.5 216.5q328 0 525.5 -217.5t197.5 -577.5q0 -332 -197 -551t-524 -219q-324 0 -522.5 216t-198.5 566zM268 735.5q0 -276.5 146.5 -445.5t384 -169t384 168t146.5 438q0 283 -145.5 453t-386.5 170 q-238 0 -383.5 -169t-145.5 -445.5z" />
<glyph unicode="&#xd4;" horiz-adv-x="1593" d="M506 1593l197 308h194l197 -308h-129l-166 197l-162 -197h-131zM78 735q0 350 198.5 566.5t520.5 216.5q328 0 525.5 -217.5t197.5 -577.5q0 -332 -197 -551t-524 -219q-324 0 -522.5 216t-198.5 566zM268 735.5q0 -276.5 146.5 -445.5t384 -169t384 168t146.5 438 q0 283 -145.5 453t-386.5 170q-238 0 -383.5 -169t-145.5 -445.5z" />
<glyph unicode="&#xd5;" horiz-adv-x="1593" d="M475 1595q16 100 62.5 155.5t113.5 55.5q51 0 141.5 -37.5t131.5 -37.5q51 0 76 75h118q-31 -213 -182 -213q-41 0 -143.5 39t-130.5 39q-47 0 -68 -76h-119zM78 735q0 350 198.5 566.5t520.5 216.5q328 0 525.5 -217.5t197.5 -577.5q0 -332 -197 -551t-524 -219 q-324 0 -522.5 216t-198.5 566zM268 735.5q0 -276.5 146.5 -445.5t384 -169t384 168t146.5 438q0 283 -145.5 453t-386.5 170q-238 0 -383.5 -169t-145.5 -445.5z" />
<glyph unicode="&#xd6;" horiz-adv-x="1593" d="M524 1597v211h213v-211h-213zM856 1597v211h213v-211h-213zM78 735q0 350 198.5 566.5t520.5 216.5q328 0 525.5 -217.5t197.5 -577.5q0 -332 -197 -551t-524 -219q-324 0 -522.5 216t-198.5 566zM268 735.5q0 -276.5 146.5 -445.5t384 -169t384 168t146.5 438 q0 283 -145.5 453t-386.5 170q-238 0 -383.5 -169t-145.5 -445.5z" />
<glyph unicode="&#xd7;" horiz-adv-x="1196" d="M195 172l301 301l-299 299l100 100l299 -297l301 299l100 -102l-299 -299l301 -301l-102 -102l-301 301l-299 -299z" />
<glyph unicode="&#xd8;" horiz-adv-x="1593" d="M61 39l166 182q-156 217 -155 516q0 348 199.5 564.5t521.5 216.5q281 0 471 -166l178 194l82 -73l-183 -199q172 -217 172 -541q0 -348 -199.5 -564t-520.5 -216q-295 0 -494 184l-158 -172zM262 737q0 -213 94 -377l787 859q-150 131 -350 131q-238 0 -384.5 -169.5 t-146.5 -443.5zM422 272q152 -152 371 -151q238 0 384 169t146 443q0 233 -109 402z" />
<glyph unicode="&#xd9;" horiz-adv-x="1478" d="M453 1893h231l197 -304h-123zM174 444v1049h191v-1049q0 -162 103 -242.5t277 -80.5q180 0 282.5 86t102.5 237v1049h191v-1049q0 -225 -156.5 -358t-419.5 -133q-266 0 -418.5 132t-152.5 359z" />
<glyph unicode="&#xda;" horiz-adv-x="1478" d="M596 1589l197 304h231l-305 -304h-123zM174 444v1049h191v-1049q0 -162 103 -242.5t277 -80.5q180 0 282.5 86t102.5 237v1049h191v-1049q0 -225 -156.5 -358t-419.5 -133q-266 0 -418.5 132t-152.5 359z" />
<glyph unicode="&#xdb;" horiz-adv-x="1478" d="M455 1587l197 308h194l197 -308h-129l-166 197l-162 -197h-131zM174 444v1049h191v-1049q0 -162 103 -242.5t277 -80.5q180 0 282.5 86t102.5 237v1049h191v-1049q0 -225 -156.5 -358t-419.5 -133q-266 0 -418.5 132t-152.5 359z" />
<glyph unicode="&#xdc;" horiz-adv-x="1478" d="M174 444v1049h191v-1049q0 -162 103 -242.5t277 -80.5q180 0 282.5 86t102.5 237v1049h191v-1049q0 -225 -156.5 -358t-419.5 -133q-266 0 -418.5 132t-152.5 359zM475 1591v211h213v-211h-213zM807 1591v211h213v-211h-213z" />
<glyph unicode="&#xdd;" horiz-adv-x="1366" d="M550 1587l197 304h231l-305 -304h-123zM27 1493h235l438 -727l426 727h228l-561 -907v-586h-191v586z" />
<glyph unicode="&#xde;" horiz-adv-x="1363" d="M186 0v1493h191v-246h426q213 0 336 -115.5t123 -318.5q0 -186 -117 -306t-299 -120h-469v-387h-191zM377 555h397q133 0 208 69.5t75 192.5t-75 192.5t-208 69.5h-397v-524z" />
<glyph unicode="&#xdf;" horiz-adv-x="1251" d="M137 0v1090q0 182 124 291.5t349.5 109.5t357.5 -100.5t132 -268.5q0 -70 -17.5 -125t-51.5 -92t-51 -51t-48 -35q106 -29 171.5 -133t65.5 -207q0 -260 -141 -385t-375 -125q-41 0 -108 15v153q45 -6 90 -6q348 0 348 307q0 287 -348 287h-33v149q317 0 318 232 q0 104 -81 166.5t-231 62.5q-164 0 -227.5 -73.5t-63.5 -217.5v-1044h-180z" />
<glyph unicode="&#xe0;" horiz-adv-x="1138" d="M281 1491h231l197 -304h-123zM86 270q0 47 9 86t20.5 69t40 55.5t48 42t65.5 31.5t71 22.5t86 17.5t90 14t102 15q100 12 139.5 38.5t39.5 79.5v45q0 78 -62.5 119t-177.5 41q-119 0 -180.5 -46t-71.5 -144h-172q12 348 430 348q199 0 301.5 -75t102.5 -218v-631 q0 -84 92 -84q18 0 37 4v-129q-72 -18 -117 -18q-82 0 -124 38t-52 120q-172 -158 -365 -158q-162 0 -257 86t-95 231zM264 274.5q0 -81.5 55.5 -127t155.5 -45.5q141 0 231.5 75t90.5 161v192q-51 -25 -154.5 -41t-179.5 -28t-137.5 -58.5t-61.5 -128z" />
<glyph unicode="&#xe1;" horiz-adv-x="1138" d="M424 1187l197 304h231l-305 -304h-123zM86 270q0 47 9 86t20.5 69t40 55.5t48 42t65.5 31.5t71 22.5t86 17.5t90 14t102 15q100 12 139.5 38.5t39.5 79.5v45q0 78 -62.5 119t-177.5 41q-119 0 -180.5 -46t-71.5 -144h-172q12 348 430 348q199 0 301.5 -75t102.5 -218 v-631q0 -84 92 -84q18 0 37 4v-129q-72 -18 -117 -18q-82 0 -124 38t-52 120q-172 -158 -365 -158q-162 0 -257 86t-95 231zM264 274.5q0 -81.5 55.5 -127t155.5 -45.5q141 0 231.5 75t90.5 161v192q-51 -25 -154.5 -41t-179.5 -28t-137.5 -58.5t-61.5 -128z" />
<glyph unicode="&#xe2;" horiz-adv-x="1138" d="M270 1165l197 308h194l197 -308h-129l-166 197l-162 -197h-131zM86 270q0 47 9 86t20.5 69t40 55.5t48 42t65.5 31.5t71 22.5t86 17.5t90 14t102 15q100 12 139.5 38.5t39.5 79.5v45q0 78 -62.5 119t-177.5 41q-119 0 -180.5 -46t-71.5 -144h-172q12 348 430 348 q199 0 301.5 -75t102.5 -218v-631q0 -84 92 -84q18 0 37 4v-129q-72 -18 -117 -18q-82 0 -124 38t-52 120q-172 -158 -365 -158q-162 0 -257 86t-95 231zM264 274.5q0 -81.5 55.5 -127t155.5 -45.5q141 0 231.5 75t90.5 161v192q-51 -25 -154.5 -41t-179.5 -28t-137.5 -58.5 t-61.5 -128z" />
<glyph unicode="&#xe3;" horiz-adv-x="1138" d="M241 1200q16 100 62.5 155.5t113.5 55.5q51 0 141.5 -37.5t131.5 -37.5q51 0 76 75h118q-31 -213 -182 -213q-41 0 -143.5 39t-130.5 39q-47 0 -68 -76h-119zM86 270q0 47 9 86t20.5 69t40 55.5t48 42t65.5 31.5t71 22.5t86 17.5t90 14t102 15q100 12 139.5 38.5 t39.5 79.5v45q0 78 -62.5 119t-177.5 41q-119 0 -180.5 -46t-71.5 -144h-172q12 348 430 348q199 0 301.5 -75t102.5 -218v-631q0 -84 92 -84q18 0 37 4v-129q-72 -18 -117 -18q-82 0 -124 38t-52 120q-172 -158 -365 -158q-162 0 -257 86t-95 231zM264 274.5 q0 -81.5 55.5 -127t155.5 -45.5q141 0 231.5 75t90.5 161v192q-51 -25 -154.5 -41t-179.5 -28t-137.5 -58.5t-61.5 -128z" />
<glyph unicode="&#xe4;" horiz-adv-x="1138" d="M290 1194v211h213v-211h-213zM622 1194v211h213v-211h-213zM86 270q0 47 9 86t20.5 69t40 55.5t48 42t65.5 31.5t71 22.5t86 17.5t90 14t102 15q100 12 139.5 38.5t39.5 79.5v45q0 78 -62.5 119t-177.5 41q-119 0 -180.5 -46t-71.5 -144h-172q12 348 430 348 q199 0 301.5 -75t102.5 -218v-631q0 -84 92 -84q18 0 37 4v-129q-72 -18 -117 -18q-82 0 -124 38t-52 120q-172 -158 -365 -158q-162 0 -257 86t-95 231zM264 274.5q0 -81.5 55.5 -127t155.5 -45.5q141 0 231.5 75t90.5 161v192q-51 -25 -154.5 -41t-179.5 -28t-137.5 -58.5 t-61.5 -128z" />
<glyph unicode="&#xe5;" horiz-adv-x="1138" d="M383 1366q0 72 53 125t127 53q76 0 128 -52t52 -128q0 -74 -53 -126t-127 -52t-127 53t-53 127zM473 1366q0 -37 26.5 -63.5t63.5 -26.5t63.5 26.5t26.5 61.5q0 39 -25.5 64.5t-64.5 25.5q-37 0 -63.5 -26.5t-26.5 -61.5zM86 270q0 47 9 86t20.5 69t40 55.5t48 42 t65.5 31.5t71 22.5t86 17.5t90 14t102 15q100 12 139.5 38.5t39.5 79.5v45q0 78 -62.5 119t-177.5 41q-119 0 -180.5 -46t-71.5 -144h-172q12 348 430 348q199 0 301.5 -75t102.5 -218v-631q0 -84 92 -84q18 0 37 4v-129q-72 -18 -117 -18q-82 0 -124 38t-52 120 q-172 -158 -365 -158q-162 0 -257 86t-95 231zM264 274.5q0 -81.5 55.5 -127t155.5 -45.5q141 0 231.5 75t90.5 161v192q-51 -25 -154.5 -41t-179.5 -28t-137.5 -58.5t-61.5 -128z" />
<glyph unicode="&#xe6;" horiz-adv-x="1820" d="M70 270q0 78 26.5 136.5t69.5 95.5t114.5 61.5t144.5 36.5t177.5 20.5t141 35t36.5 85.5v45q0 160 -241 160q-229 0 -250 -190h-172q12 348 426 348q262 0 358 -168q55 78 149.5 123t204.5 45q150 0 264.5 -76t168.5 -207q43 -113 43 -342h-791q2 -106 33 -183t80 -115 t99 -54t103 -16q207 0 283 215h172q-33 -174 -153.5 -273.5t-303.5 -99.5q-119 0 -215 45t-149 125q-8 12 -33 55q-115 -119 -218 -172t-224 -53q-156 0 -250 86t-94 231zM248 274q0 -80 55 -126t150 -46q143 0 235 83t92 137v206q-61 -27 -166.5 -44t-178.5 -27.5 t-130 -55.5t-57 -127zM944 618h602q0 145 -82 236.5t-213 91.5q-129 0 -213 -89t-94 -239z" />
<glyph unicode="&#xe7;" horiz-adv-x="1024" d="M63 518q0 266 130.5 426t347.5 160q186 0 297.5 -100.5t126.5 -290.5h-172q-16 113 -82 173t-172 60q-139 0 -218 -113.5t-79 -316.5q0 -190 79.5 -298.5t221.5 -108.5q219 0 262 260h172q-10 -193 -129 -304.5t-307 -111.5l-27 -68q29 4 57 4q76 0 119 -35.5t43 -101.5 q0 -88 -67.5 -139t-184.5 -51q-96 0 -256 67l43 84q14 -6 46 -21.5t49.5 -23.5t47 -15t58.5 -7q47 0 79 26.5t32 65.5q0 76 -95 76q-31 0 -63 -17l-25 15l64 145q-109 20 -188.5 77.5t-118.5 120t-60.5 144.5t-26 127t-4.5 92z" />
<glyph unicode="&#xe8;" horiz-adv-x="1138" d="M287 1496h231l197 -304h-123zM82 522q0 264 134 423t357 159q152 0 267.5 -76t167.5 -207q43 -113 43 -342h-791q2 -147 57 -229q88 -139 258 -139q209 0 281 215h172q-33 -176 -153.5 -274.5t-305.5 -98.5q-225 0 -356 152.5t-131 416.5zM264 618h602q2 4 2 13 q0 133 -86 224t-211 91q-129 0 -213 -89t-94 -239z" />
<glyph unicode="&#xe9;" horiz-adv-x="1138" d="M434 1192l197 304h231l-305 -304h-123zM82 522q0 264 134 423t357 159q152 0 267.5 -76t167.5 -207q43 -113 43 -342h-791q2 -147 57 -229q88 -139 258 -139q209 0 281 215h172q-33 -176 -153.5 -274.5t-305.5 -98.5q-225 0 -356 152.5t-131 416.5zM264 618h602q2 4 2 13 q0 133 -86 224t-211 91q-129 0 -213 -89t-94 -239z" />
<glyph unicode="&#xea;" horiz-adv-x="1138" d="M293 1165l197 308h194l197 -308h-129l-166 197l-162 -197h-131zM82 522q0 264 134 423t357 159q152 0 267.5 -76t167.5 -207q43 -113 43 -342h-791q2 -147 57 -229q88 -139 258 -139q209 0 281 215h172q-33 -176 -153.5 -274.5t-305.5 -98.5q-225 0 -356 152.5 t-131 416.5zM264 618h602q2 4 2 13q0 133 -86 224t-211 91q-129 0 -213 -89t-94 -239z" />
<glyph unicode="&#xeb;" horiz-adv-x="1138" d="M301 1194v211h213v-211h-213zM633 1194v211h213v-211h-213zM82 522q0 264 134 423t357 159q152 0 267.5 -76t167.5 -207q43 -113 43 -342h-791q2 -147 57 -229q88 -139 258 -139q209 0 281 215h172q-33 -176 -153.5 -274.5t-305.5 -98.5q-225 0 -356 152.5t-131 416.5z M264 618h602q2 4 2 13q0 133 -86 224t-211 91q-129 0 -213 -89t-94 -239z" />
<glyph unicode="&#xec;" horiz-adv-x="569" d="M0 1496h231l197 -304h-123zM193 0v1073h169v-1073h-169z" />
<glyph unicode="&#xed;" horiz-adv-x="569" d="M133 1192l197 304h231l-305 -304h-123zM193 0v1073h169v-1073h-169z" />
<glyph unicode="&#xee;" horiz-adv-x="569" d="M-14 1165l197 308h194l197 -308h-129l-166 197l-162 -197h-131zM193 0v1073h169v-1073h-169z" />
<glyph unicode="&#xef;" horiz-adv-x="569" d="M6 1196v211h213v-211h-213zM338 1196v211h213v-211h-213zM193 0v1073h169v-1073h-169z" />
<glyph unicode="&#xf0;" horiz-adv-x="1138" d="M74 528q0 131 29.5 234.5t75.5 165t107.5 101.5t119 55.5t114.5 15.5q49 0 129 -27q-80 82 -200 182l-199 -92l-74 80l174 82q-61 47 -168 107l90 90q76 -33 228 -129l198 92l82 -76l-184 -84q61 -47 104 -83t115 -114.5t116 -156.5t78.5 -196t34.5 -245 q0 -276 -126.5 -426.5t-358 -150.5t-358.5 150.5t-127 424.5zM252 528.5q0 -194.5 82 -306t225 -111.5q141 0 224 111.5t83 299.5q0 199 -80.5 311.5t-226.5 112.5q-143 0 -225 -111.5t-82 -306z" />
<glyph unicode="&#xf1;" horiz-adv-x="1138" d="M248 1194q16 100 62.5 155.5t113.5 55.5q51 0 141.5 -37.5t131.5 -37.5q51 0 76 75h118q-31 -213 -182 -213q-41 0 -143.5 39t-130.5 39q-47 0 -68 -76h-119zM143 0v1073h158v-180q72 113 155 162t201 49q156 0 248 -80t92 -213v-811h-170v743q0 96 -59 153.5t-162 57.5 q-131 0 -211 -99t-80 -263v-592h-172z" />
<glyph unicode="&#xf2;" horiz-adv-x="1138" d="M268 1493h231l197 -304h-123zM74 528.5q0 270.5 129 423t354 152.5q231 0 359 -152.5t128 -431.5q0 -264 -130 -415.5t-355 -151.5q-229 0 -357 152.5t-128 423zM252 528.5q0 -194.5 82 -306t225 -111.5q141 0 224 111.5t83 299.5q0 199 -80.5 311.5t-226.5 112.5 q-143 0 -225 -111.5t-82 -306z" />
<glyph unicode="&#xf3;" horiz-adv-x="1138" d="M413 1192l197 304h231l-305 -304h-123zM74 528.5q0 270.5 129 423t354 152.5q231 0 359 -152.5t128 -431.5q0 -264 -130 -415.5t-355 -151.5q-229 0 -357 152.5t-128 423zM252 528.5q0 -194.5 82 -306t225 -111.5q141 0 224 111.5t83 299.5q0 199 -80.5 311.5 t-226.5 112.5q-143 0 -225 -111.5t-82 -306z" />
<glyph unicode="&#xf4;" horiz-adv-x="1138" d="M266 1167l197 308h194l197 -308h-129l-166 197l-162 -197h-131zM74 528.5q0 270.5 129 423t354 152.5q231 0 359 -152.5t128 -431.5q0 -264 -130 -415.5t-355 -151.5q-229 0 -357 152.5t-128 423zM252 528.5q0 -194.5 82 -306t225 -111.5q141 0 224 111.5t83 299.5 q0 199 -80.5 311.5t-226.5 112.5q-143 0 -225 -111.5t-82 -306z" />
<glyph unicode="&#xf5;" horiz-adv-x="1138" d="M235 1198q16 100 62.5 155.5t113.5 55.5q51 0 141.5 -37.5t131.5 -37.5q51 0 76 75h118q-31 -213 -182 -213q-41 0 -143.5 39t-130.5 39q-47 0 -68 -76h-119zM74 528.5q0 270.5 129 423t354 152.5q231 0 359 -152.5t128 -431.5q0 -264 -130 -415.5t-355 -151.5 q-229 0 -357 152.5t-128 423zM252 528.5q0 -194.5 82 -306t225 -111.5q141 0 224 111.5t83 299.5q0 199 -80.5 311.5t-226.5 112.5q-143 0 -225 -111.5t-82 -306z" />
<glyph unicode="&#xf6;" horiz-adv-x="1138" d="M284 1198v211h213v-211h-213zM616 1198v211h213v-211h-213zM74 528.5q0 270.5 129 423t354 152.5q231 0 359 -152.5t128 -431.5q0 -264 -130 -415.5t-355 -151.5q-229 0 -357 152.5t-128 423zM252 528.5q0 -194.5 82 -306t225 -111.5q141 0 224 111.5t83 299.5 q0 199 -80.5 311.5t-226.5 112.5q-143 0 -225 -111.5t-82 -306z" />
<glyph unicode="&#xf7;" horiz-adv-x="1196" d="M102 412v143h992v-143h-992zM492 0v213h213v-213h-213zM492 754v213h213v-213h-213z" />
<glyph unicode="&#xf8;" horiz-adv-x="1251" d="M37 -4l135 151q-98 145 -98 381q0 270 129 423t356 153q207 0 340 -133l119 133l65 -57l-129 -146q90 -150 90 -373q0 -270 -128 -422.5t-355 -152.5q-211 0 -334 127l-125 -141zM252 528q0 -139 43 -239l489 551q-84 106 -225 106q-143 0 -225 -111.5t-82 -306.5z M342 209q88 -98 217 -98q143 0 225 111.5t82 305.5q0 135 -37 232z" />
<glyph unicode="&#xf9;" horiz-adv-x="1138" d="M266 1493h231l197 -304h-123zM133 246v827h170v-760q0 -96 59.5 -153.5t161.5 -57.5q133 0 213 99.5t80 263.5v608h170v-1073h-153v150q-76 -106 -158 -151.5t-201 -45.5q-156 0 -249 80t-93 213z" />
<glyph unicode="&#xfa;" horiz-adv-x="1138" d="M409 1189l197 304h231l-305 -304h-123zM133 246v827h170v-760q0 -96 59.5 -153.5t161.5 -57.5q133 0 213 99.5t80 263.5v608h170v-1073h-153v150q-76 -106 -158 -151.5t-201 -45.5q-156 0 -249 80t-93 213z" />
<glyph unicode="&#xfb;" horiz-adv-x="1138" d="M268 1165l197 308h194l197 -308h-129l-166 197l-162 -197h-131zM133 246v827h170v-760q0 -96 59.5 -153.5t161.5 -57.5q133 0 213 99.5t80 263.5v608h170v-1073h-153v150q-76 -106 -158 -151.5t-201 -45.5q-156 0 -249 80t-93 213z" />
<glyph unicode="&#xfc;" horiz-adv-x="1138" d="M286 1198v211h213v-211h-213zM618 1198v211h213v-211h-213zM133 246v827h170v-760q0 -96 59.5 -153.5t161.5 -57.5q133 0 213 99.5t80 263.5v608h170v-1073h-153v150q-76 -106 -158 -151.5t-201 -45.5q-156 0 -249 80t-93 213z" />
<glyph unicode="&#xfd;" horiz-adv-x="1024" d="M354 1189l197 304h231l-305 -304h-123zM41 1073h182l275 -835l297 835h184l-477 -1298q-84 -221 -277 -221q-63 0 -114 26v154q55 -12 90 -13q53 0 83.5 24t53.5 81l65 170z" />
<glyph unicode="&#xfe;" horiz-adv-x="1136" d="M111 -446v1908h170v-522q115 164 329 164q209 0 334 -160t125 -426q0 -256 -126 -410.5t-333 -154.5q-199 0 -329 160v-559h-170zM281 528.5q0 -188.5 81.5 -302t217.5 -113.5q139 0 225 113.5t86 295.5q0 193 -85 307.5t-226 114.5q-135 0 -217 -113.5t-82 -302z" />
<glyph unicode="&#xff;" horiz-adv-x="1024" d="M237 1198v211h213v-211h-213zM569 1198v211h213v-211h-213zM41 1073h182l275 -835l297 835h184l-477 -1298q-84 -221 -277 -221q-63 0 -114 26v154q55 -12 90 -13q53 0 83.5 24t53.5 81l65 170z" />
<glyph unicode="&#x100;" horiz-adv-x="1366" d="M409 1585v144h561v-144h-561zM35 0l532 1493h246l524 -1493h-213l-153 449h-576l-157 -449h-203zM442 608h476l-230 680z" />
<glyph unicode="&#x101;" horiz-adv-x="1138" d="M282 1226v144h561v-144h-561zM86 270q0 47 9 86t20.5 69t40 55.5t48 42t65.5 31.5t71 22.5t86 17.5t90 14t102 15q100 12 139.5 38.5t39.5 79.5v45q0 78 -62.5 119t-177.5 41q-119 0 -180.5 -46t-71.5 -144h-172q12 348 430 348q199 0 301.5 -75t102.5 -218v-631 q0 -84 92 -84q18 0 37 4v-129q-72 -18 -117 -18q-82 0 -124 38t-52 120q-172 -158 -365 -158q-162 0 -257 86t-95 231zM264 274.5q0 -81.5 55.5 -127t155.5 -45.5q141 0 231.5 75t90.5 161v192q-51 -25 -154.5 -41t-179.5 -28t-137.5 -58.5t-61.5 -128z" />
<glyph unicode="&#x102;" horiz-adv-x="1366" d="M383 1861h121q16 -135 188 -135q82 0 131 35t55 100h121q-23 -276 -311 -276q-74 0 -135.5 19.5t-114.5 85t-55 171.5zM35 0l532 1493h246l524 -1493h-213l-153 449h-576l-157 -449h-203zM442 608h476l-230 680z" />
<glyph unicode="&#x103;" horiz-adv-x="1138" d="M256 1440h121q16 -135 188 -135q82 0 131 35t55 100h121q-23 -276 -311 -276q-74 0 -135.5 19.5t-114.5 85t-55 171.5zM86 270q0 47 9 86t20.5 69t40 55.5t48 42t65.5 31.5t71 22.5t86 17.5t90 14t102 15q100 12 139.5 38.5t39.5 79.5v45q0 78 -62.5 119t-177.5 41 q-119 0 -180.5 -46t-71.5 -144h-172q12 348 430 348q199 0 301.5 -75t102.5 -218v-631q0 -84 92 -84q18 0 37 4v-129q-72 -18 -117 -18q-82 0 -124 38t-52 120q-172 -158 -365 -158q-162 0 -257 86t-95 231zM264 274.5q0 -81.5 55.5 -127t155.5 -45.5q141 0 231.5 75 t90.5 161v192q-51 -25 -154.5 -41t-179.5 -28t-137.5 -58.5t-61.5 -128z" />
<glyph unicode="&#x104;" horiz-adv-x="1366" d="M35 0l532 1493h246l524 -1493h-4q-113 -63 -152.5 -108.5t-39.5 -108.5q0 -111 147 -111q76 0 129 21v-92q-98 -20 -155 -21q-115 0 -193 53.5t-78 139.5q0 74 52.5 133t146.5 94h-66l-153 449h-576l-157 -449h-203zM442 608h476l-230 680z" />
<glyph unicode="&#x105;" horiz-adv-x="1138" d="M88 270q0 70 17.5 122t55.5 87t79 58.5t106.5 39t119.5 24.5t138 20q12 2 19 2q100 12 138 37.5t38 80.5v45q0 160 -240 160q-119 0 -179.5 -46t-70.5 -144h-172q12 348 428 348q199 0 301.5 -75t102.5 -218v-631q0 -84 92 -84q18 0 37 4v-129q-156 -61 -156 -186 q0 -113 148 -113q78 0 131 21v-92q-86 -20 -146 -21q-61 0 -120.5 16.5t-109.5 61.5t-50 113q0 59 31.5 100t107.5 82q-117 20 -129 158q-166 -158 -365 -158q-162 0 -257 86t-95 231zM264 274.5q0 -81.5 55.5 -127t155.5 -45.5q141 0 231.5 75t90.5 161v192 q-51 -25 -154.5 -41t-179.5 -28t-137.5 -58.5t-61.5 -128z" />
<glyph unicode="&#x106;" horiz-adv-x="1478" d="M632 1591l197 304h231l-305 -304h-123zM98 729q0 102 17.5 202.5t66.5 209t122 189.5t197 134.5t279 53.5q487 0 576 -488h-195q-33 160 -129 240t-274 80q-217 0 -343 -166t-126 -453q0 -281 131 -445.5t354 -164.5q184 0 282.5 103.5t133.5 320.5h196 q-68 -592 -614 -592q-154 0 -275.5 52t-194.5 132t-121 187.5t-65.5 206t-17.5 198.5z" />
<glyph unicode="&#x107;" horiz-adv-x="1024" d="M413 1192l197 304h231l-305 -304h-123zM63 518q0 266 130.5 426t347.5 160q186 0 297.5 -100.5t126.5 -290.5h-172q-16 113 -82 173t-172 60q-139 0 -218 -113.5t-79 -314.5q0 -190 79.5 -298.5t221.5 -108.5q219 0 262 258h172q-16 -197 -131 -306.5t-307 -109.5 q-219 0 -347.5 152.5t-128.5 412.5z" />
<glyph unicode="&#x108;" horiz-adv-x="1478" d="M465 1585l197 308h194l197 -308h-129l-166 197l-162 -197h-131zM98 729q0 102 17.5 202.5t66.5 209t122 189.5t197 134.5t279 53.5q487 0 576 -488h-195q-33 160 -129 240t-274 80q-217 0 -343 -166t-126 -453q0 -281 131 -445.5t354 -164.5q184 0 282.5 103.5 t133.5 320.5h196q-68 -592 -614 -592q-154 0 -275.5 52t-194.5 132t-121 187.5t-65.5 206t-17.5 198.5z" />
<glyph unicode="&#x109;" horiz-adv-x="1024" d="M244 1142l197 308h194l197 -308h-129l-166 197l-162 -197h-131zM63 518q0 266 130.5 426t347.5 160q186 0 297.5 -100.5t126.5 -290.5h-172q-16 113 -82 173t-172 60q-139 0 -218 -113.5t-79 -314.5q0 -190 79.5 -298.5t221.5 -108.5q219 0 262 258h172 q-16 -197 -131 -306.5t-307 -109.5q-219 0 -347.5 152.5t-128.5 412.5z" />
<glyph unicode="&#x10a;" horiz-adv-x="1478" d="M682 1591v213h213v-213h-213zM98 729q0 102 17.5 202.5t66.5 209t122 189.5t197 134.5t279 53.5q487 0 576 -488h-195q-33 160 -129 240t-274 80q-217 0 -343 -166t-126 -453q0 -281 131 -445.5t354 -164.5q184 0 282.5 103.5t133.5 320.5h196q-68 -592 -614 -592 q-154 0 -275.5 52t-194.5 132t-121 187.5t-65.5 206t-17.5 198.5z" />
<glyph unicode="&#x10b;" horiz-adv-x="1024" d="M424 1194v213h213v-213h-213zM63 518q0 266 130.5 426t347.5 160q186 0 297.5 -100.5t126.5 -290.5h-172q-16 113 -82 173t-172 60q-139 0 -218 -113.5t-79 -314.5q0 -190 79.5 -298.5t221.5 -108.5q219 0 262 258h172q-16 -197 -131 -306.5t-307 -109.5 q-219 0 -347.5 152.5t-128.5 412.5z" />
<glyph unicode="&#x10c;" horiz-adv-x="1478" d="M485 1899h129l166 -197l162 197h131l-197 -308h-194zM98 729q0 102 17.5 202.5t66.5 209t122 189.5t197 134.5t279 53.5q487 0 576 -488h-195q-33 160 -129 240t-274 80q-217 0 -343 -166t-126 -453q0 -281 131 -445.5t354 -164.5q184 0 282.5 103.5t133.5 320.5h196 q-68 -592 -614 -592q-154 0 -275.5 52t-194.5 132t-121 187.5t-65.5 206t-17.5 198.5z" />
<glyph unicode="&#x10d;" horiz-adv-x="1024" d="M250 1500h129l166 -197l162 197h131l-197 -308h-194zM63 518q0 266 130.5 426t347.5 160q186 0 297.5 -100.5t126.5 -290.5h-172q-16 113 -82 173t-172 60q-139 0 -218 -113.5t-79 -314.5q0 -190 79.5 -298.5t221.5 -108.5q219 0 262 258h172q-16 -197 -131 -306.5 t-307 -109.5q-219 0 -347.5 152.5t-128.5 412.5z" />
<glyph unicode="&#x10e;" horiz-adv-x="1478" d="M399 1897h129l166 -197l162 197h131l-197 -308h-194zM182 0v1493h576q285 0 446.5 -198.5t161.5 -547t-163 -548t-445 -199.5h-576zM373 168h352q221 0 336 147.5t115 429.5q0 285 -115 432.5t-336 147.5h-352v-1157z" />
<glyph unicode="&#x10f;" horiz-adv-x="1478" d="M1198 1280v213h215v-246q0 -268 -215 -268v78q72 2 97.5 41t25.5 145v37h-123zM53 539q0 256 126 410.5t335 154.5q221 0 330 -166v555h170v-1493h-152v141q-70 -100 -150.5 -144t-191.5 -44q-217 0 -342 157t-125 429zM231 528q0 -188 86 -301.5t228 -113.5 q135 0 217 112.5t82 298.5q0 193 -82 306.5t-219 113.5q-139 0 -225.5 -115t-86.5 -301z" />
<glyph unicode="&#x110;" horiz-adv-x="1478" d="M41 694v137h141v662h578q283 0 444.5 -198.5t161.5 -547t-162 -548t-444 -199.5h-578v694h-141zM373 168h354q219 0 334 147.5t115 432t-115 431t-334 146.5h-354v-494h350v-137h-350v-526z" />
<glyph unicode="&#x111;" horiz-adv-x="1138" d="M53 541q0 254 126 408.5t333 154.5q199 0 330 -160v285h-307v108h307v156h170v-156h129v-108h-129v-1229h-152v121q-143 -168 -344 -168q-209 0 -336 161t-127 427zM231 528.5q0 -182.5 86 -295t226 -112.5q135 0 217 110.5t82 292.5q0 188 -81 300t-218 112 q-139 0 -225.5 -112.5t-86.5 -295z" />
<glyph unicode="&#x112;" horiz-adv-x="1366" d="M422 1591v144h561v-144h-561zM184 0v1493h1035v-168h-844v-477h813v-168h-813v-512h880v-168h-1071z" />
<glyph unicode="&#x113;" horiz-adv-x="1138" d="M293 1226v144h561v-144h-561zM82 522q0 264 134 423t357 159q152 0 267.5 -76t167.5 -207q43 -113 43 -342h-791q2 -147 57 -229q88 -139 258 -139q209 0 281 215h172q-33 -176 -153.5 -274.5t-305.5 -98.5q-225 0 -356 152.5t-131 416.5zM264 618h602q2 4 2 13 q0 133 -86 224t-211 91q-129 0 -213 -89t-94 -239z" />
<glyph unicode="&#x114;" horiz-adv-x="1366" d="M393 1853h121q16 -135 188 -135q82 0 131 35t55 100h121q-23 -276 -311 -276q-74 0 -135.5 19.5t-114.5 85t-55 171.5zM184 0v1493h1035v-168h-844v-477h813v-168h-813v-512h880v-168h-1071z" />
<glyph unicode="&#x115;" horiz-adv-x="1138" d="M264 1431h121q16 -135 188 -135q82 0 131 35t55 100h121q-23 -276 -311 -276q-74 0 -135.5 19.5t-114.5 85t-55 171.5zM82 522q0 264 134 423t357 159q152 0 267.5 -76t167.5 -207q43 -113 43 -342h-791q2 -147 57 -229q88 -139 258 -139q209 0 281 215h172 q-33 -176 -153.5 -274.5t-305.5 -98.5q-225 0 -356 152.5t-131 416.5zM264 618h602q2 4 2 13q0 133 -86 224t-211 91q-129 0 -213 -89t-94 -239z" />
<glyph unicode="&#x116;" horiz-adv-x="1366" d="M596 1587v213h213v-213h-213zM184 0v1493h1035v-168h-844v-477h813v-168h-813v-512h880v-168h-1071z" />
<glyph unicode="&#x117;" horiz-adv-x="1138" d="M467 1194v213h213v-213h-213zM82 522q0 264 134 423t357 159q152 0 267.5 -76t167.5 -207q43 -113 43 -342h-791q2 -147 57 -229q88 -139 258 -139q209 0 281 215h172q-33 -176 -153.5 -274.5t-305.5 -98.5q-225 0 -356 152.5t-131 416.5zM264 618h602q2 4 2 13 q0 133 -86 224t-211 91q-129 0 -213 -89t-94 -239z" />
<glyph unicode="&#x118;" horiz-adv-x="1366" d="M184 0v1493h1035v-168h-844v-477h813v-168h-813v-512h880v-168h-4q-113 -63 -152.5 -108.5t-39.5 -108.5q0 -111 147 -111q76 0 129 21v-92q-98 -20 -155 -21q-115 0 -193 53.5t-78 139.5q0 74 52.5 133t146.5 94h-924z" />
<glyph unicode="&#x119;" horiz-adv-x="1138" d="M82 520q0 266 134 425t357 159q152 0 267.5 -76t167.5 -207q43 -111 43 -311v-31h-791q2 -106 34 -183t81 -115t99 -54t101 -16q207 0 283 215h172q-14 -84 -53 -152t-81 -113t-83 -86t-67.5 -90t-26.5 -108q0 -49 39 -77t108 -28q78 0 131 21v-92q-84 -18 -141 -19 q-129 0 -207 49.5t-78 130.5q0 25 5.5 47.5t16.5 41t21.5 33t27.5 30.5t26 23l24 18l19 14q-82 -16 -140 -16q-229 0 -359 150.5t-130 416.5zM266 618h602v13q0 133 -86 224t-211 91q-129 0 -213 -89t-92 -239z" />
<glyph unicode="&#x11a;" horiz-adv-x="1366" d="M412 1901h129l166 -197l162 197h131l-197 -308h-194zM184 0v1493h1035v-168h-844v-477h813v-168h-813v-512h880v-168h-1071z" />
<glyph unicode="&#x11b;" horiz-adv-x="1138" d="M293 1495h129l166 -197l162 197h131l-197 -308h-194zM82 522q0 264 134 423t357 159q152 0 267.5 -76t167.5 -207q43 -113 43 -342h-791q2 -147 57 -229q88 -139 258 -139q209 0 281 215h172q-33 -176 -153.5 -274.5t-305.5 -98.5q-225 0 -356 152.5t-131 416.5zM264 618 h602q2 4 2 13q0 133 -86 224t-211 91q-129 0 -213 -89t-94 -239z" />
<glyph unicode="&#x11c;" horiz-adv-x="1593" d="M533 1583.58l197 264.876h194l197 -264.876h-129l-166 169.417l-162 -169.417h-131zM90 731q0 98 18.5 197.5t69.5 208t128 190.5t207 136.5t294 54.5q256 0 421 -125t204 -353h-195q-31 143 -146.5 226.5t-285.5 83.5q-238 0 -381 -167t-143 -442q0 -78 14 -156.5 t51 -164.5t95.5 -150.5t154.5 -106.5t219 -42q205 0 337 129t132 330v41h-455v167h623v-796h-121l-47 198q-213 -238 -510 -237q-303 0 -493.5 217t-190.5 561z" />
<glyph unicode="&#x11d;" horiz-adv-x="1138" d="M281 1165l197 308h194l197 -308h-129l-166 197l-162 -197h-131zM59 518q0 262 126 424t331 162q201 0 328 -186v155h157v-897q0 -154 -18 -257t-67.5 -191t-146.5 -131t-247 -43q-188 0 -300.5 86t-127.5 237h174q29 -180 260 -180q172 0 235.5 97t63.5 296v55 q-72 -102 -148.5 -147t-176.5 -45q-188 0 -315.5 154.5t-127.5 410.5zM238 528q0 -195 79.5 -306t219.5 -111q135 0 212.5 109.5t77.5 301.5q0 201 -76.5 312.5t-215.5 111.5q-137 0 -217 -112.5t-80 -305.5z" />
<glyph unicode="&#x11e;" horiz-adv-x="1593" d="M506 1864h121q16 -135 188 -135q82 0 131 35t55 100h121q-23 -276 -311 -276q-74 0 -135.5 19.5t-114.5 85t-55 171.5zM90 731q0 98 18.5 197.5t69.5 208t128 190.5t207 136.5t294 54.5q256 0 421 -125t204 -353h-195q-31 143 -146.5 226.5t-285.5 83.5q-238 0 -381 -167 t-143 -442q0 -78 14 -156.5t51 -164.5t95.5 -150.5t154.5 -106.5t219 -42q205 0 337 129t132 330v41h-455v167h623v-796h-121l-47 198q-213 -238 -510 -237q-303 0 -493.5 217t-190.5 561z" />
<glyph unicode="&#x11f;" horiz-adv-x="1138" d="M230 1495h121q16 -135 188 -135q82 0 131 35t55 100h121q-23 -276 -311 -276q-74 0 -135.5 19.5t-114.5 85t-55 171.5zM59 518q0 262 126 424t331 162q201 0 328 -186v155h157v-897q0 -154 -18 -257t-67.5 -191t-146.5 -131t-247 -43q-188 0 -300.5 86t-127.5 237h174 q29 -180 260 -180q172 0 235.5 97t63.5 296v55q-72 -102 -148.5 -147t-176.5 -45q-188 0 -315.5 154.5t-127.5 410.5zM238 528q0 -195 79.5 -306t219.5 -111q135 0 212.5 109.5t77.5 301.5q0 201 -76.5 312.5t-215.5 111.5q-137 0 -217 -112.5t-80 -305.5z" />
<glyph unicode="&#x120;" horiz-adv-x="1593" d="M705 1591v213h213v-213h-213zM90 731q0 98 18.5 197.5t69.5 208t128 190.5t207 136.5t294 54.5q256 0 421 -125t204 -353h-195q-31 143 -146.5 226.5t-285.5 83.5q-238 0 -381 -167t-143 -442q0 -78 14 -156.5t51 -164.5t95.5 -150.5t154.5 -106.5t219 -42q205 0 337 129 t132 330v41h-455v167h623v-796h-121l-47 198q-213 -238 -510 -237q-303 0 -493.5 217t-190.5 561z" />
<glyph unicode="&#x121;" horiz-adv-x="1138" d="M416 1196v213h213v-213h-213zM59 518q0 262 126 424t331 162q201 0 328 -186v155h157v-897q0 -154 -18 -257t-67.5 -191t-146.5 -131t-247 -43q-188 0 -300.5 86t-127.5 237h174q29 -180 260 -180q172 0 235.5 97t63.5 296v55q-72 -102 -148.5 -147t-176.5 -45 q-188 0 -315.5 154.5t-127.5 410.5zM238 528q0 -195 79.5 -306t219.5 -111q135 0 212.5 109.5t77.5 301.5q0 201 -76.5 312.5t-215.5 111.5q-137 0 -217 -112.5t-80 -305.5z" />
<glyph unicode="&#x122;" horiz-adv-x="1593" d="M665 -311v213h215v-246q0 -268 -215 -268v78q72 2 97.5 41t25.5 145v37h-123zM90 731q0 98 18.5 197.5t69.5 208t128 190.5t207 136.5t294 54.5q256 0 421 -125t204 -353h-195q-31 143 -146.5 226.5t-285.5 83.5q-238 0 -381 -167t-143 -442q0 -78 14 -156.5t51 -164.5 t95.5 -150.5t154.5 -106.5t219 -42q205 0 337 129t132 330v41h-455v167h623v-796h-121l-47 198q-213 -238 -510 -237q-303 0 -493.5 217t-190.5 561z" />
<glyph unicode="&#x123;" horiz-adv-x="1138" d="M602 1528v-86q-51 0 -71.5 -21.5t-20.5 -74.5h92v-152h-180v150q0 88 48 136t132 48zM59 518q0 262 126 424t331 162q201 0 328 -186v155h157v-897q0 -154 -18 -257t-67.5 -191t-146.5 -131t-247 -43q-188 0 -300.5 86t-127.5 237h174q29 -180 260 -180q172 0 235.5 97 t63.5 296v55q-72 -102 -148.5 -147t-176.5 -45q-188 0 -315.5 154.5t-127.5 410.5zM238 528q0 -195 79.5 -306t219.5 -111q135 0 212.5 109.5t77.5 301.5q0 201 -76.5 312.5t-215.5 111.5q-137 0 -217 -112.5t-80 -305.5z" />
<glyph unicode="&#x124;" horiz-adv-x="1478" d="M451 1579l197 308h194l197 -308h-129l-166 197l-162 -197h-131zM170 0v1493h190v-645h768v645h191v-1493h-191v680h-768v-680h-190z" />
<glyph unicode="&#x125;" horiz-adv-x="1138" d="M143 1575l197 308h194l197 -308h-129l-166 197l-162 -197h-131zM143 0v1493h170v-567q76 98 153 138t191 40q156 0 247 -79t91 -214v-811h-170v743q0 113 -68.5 162t-152.5 49q-131 0 -211 -99t-80 -263v-592h-170z" />
<glyph unicode="&#x126;" horiz-adv-x="1478" d="M80 1036v144h90v313h190v-313h768v313h191v-313h90v-144h-90v-1036h-191v680h-766v-680h-192v1036h-90zM360 848h768v184h-768v-184z" />
<glyph unicode="&#x127;" horiz-adv-x="1138" d="M14 1229v108h129v156h170v-156h308v-108h-308v-303q76 98 153 138t191 40q156 0 247 -79t91 -214v-811h-170v743q0 113 -68.5 162t-152.5 49q-131 0 -211 -99t-80 -263v-592h-170v1229h-129z" />
<glyph unicode="&#x128;" horiz-adv-x="569" d="M-21 1576q16 100 62.5 155.5t113.5 55.5q51 0 141.5 -37.5t131.5 -37.5q51 0 76 75h118q-31 -213 -182 -213q-41 0 -143.5 39t-130.5 39q-47 0 -68 -76h-119zM205 0v1493h192v-1493h-192z" />
<glyph unicode="&#x129;" horiz-adv-x="569" d="M-43 1157q16 100 62.5 155.5t113.5 55.5q51 0 141.5 -37.5t131.5 -37.5q51 0 76 75h118q-31 -213 -182 -213q-41 0 -143.5 39t-130.5 39q-47 0 -68 -76h-119zM193 0v1073h169v-1073h-169z" />
<glyph unicode="&#x12a;" horiz-adv-x="569" d="M20 1597v144h561v-144h-561zM205 0v1493h192v-1493h-192z" />
<glyph unicode="&#x12b;" horiz-adv-x="569" d="M-2 1226v144h561v-144h-561zM193 0v1073h169v-1073h-169z" />
<glyph unicode="&#x12c;" horiz-adv-x="569" d="M-6 1851h121q16 -135 188 -135q82 0 131 35t55 100h121q-23 -276 -311 -276q-74 0 -135.5 19.5t-114.5 85t-55 171.5zM205 0v1493h192v-1493h-192z" />
<glyph unicode="&#x12d;" horiz-adv-x="569" d="M-30 1431h121q16 -135 188 -135q82 0 131 35t55 100h121q-23 -276 -311 -276q-74 0 -135.5 19.5t-114.5 85t-55 171.5zM193 0v1073h169v-1073h-169z" />
<glyph unicode="&#x12e;" horiz-adv-x="569" d="M53 -227q0 74 52.5 133t146.5 94h-47v1493h192v-1493q-113 -63 -153.5 -108.5t-40.5 -108.5q0 -111 147 -111q76 0 129 21v-92q-98 -20 -155 -21q-115 0 -193 53.5t-78 139.5z" />
<glyph unicode="&#x12f;" horiz-adv-x="454" d="M-37 -227q0 68 46 125t128 92v1071h170v-1073h-24q-98 -57 -134 -100.5t-36 -104.5q0 -111 147 -111q76 0 129 21v-92q-98 -20 -156 -21q-115 0 -192.5 53.5t-77.5 139.5zM135 1278v215h172v-215h-172z" />
<glyph unicode="&#x130;" horiz-adv-x="569" d="M195 1595v213h213v-213h-213zM205 0v1493h192v-1493h-192z" />
<glyph unicode="&#x131;" horiz-adv-x="569" d="M193 0v1073h169v-1073h-169z" />
<glyph unicode="&#x132;" horiz-adv-x="1433" d="M445 348v131h194v-96q0 -131 57.5 -200.5t166.5 -69.5q131 0 180 86t49 243v1051h190v-1120q0 -195 -113.5 -307.5t-307.5 -112.5q-193 0 -304.5 106.5t-111.5 288.5zM205 0v1493h192v-1493h-192z" />
<glyph unicode="&#x133;" horiz-adv-x="765" d="M274 -295q23 -2 41 -2q78 0 108.5 30.5t30.5 110.5v1229h170v-1296q0 -223 -293 -223q-27 0 -57 6v145zM454 1278v215h170v-215h-170zM135 1278v215h172v-215h-172zM137 -12v1073h170v-1073h-170z" />
<glyph unicode="&#x134;" horiz-adv-x="1024" d="M483 1583l197 308h194l197 -308h-129l-166 197l-162 -197h-131zM35 348v131h194v-96q0 -131 57.5 -200.5t166.5 -69.5q131 0 180 86t49 243v1051h190v-1120q0 -195 -113.5 -307.5t-307.5 -112.5q-193 0 -304.5 106.5t-111.5 288.5z" />
<glyph unicode="&#x135;" horiz-adv-x="454" d="M-37 -295q35 -2 41 -2q78 0 108.5 30.5t30.5 110.5v1229h170v-1296q0 -223 -293 -223q-27 0 -57 6v145zM-65 1165l197 308h194l197 -308h-129l-166 197l-162 -197h-131z" />
<glyph unicode="&#x136;" horiz-adv-x="1366" d="M647 -313v213h215v-246q0 -268 -215 -268v78q72 2 97.5 41t25.5 145v37h-123zM162 0v1493h190v-756l744 756h245l-608 -608l615 -885h-226l-526 766l-244 -244v-522h-190z" />
<glyph unicode="&#x137;" horiz-adv-x="1024" d="M465 -313v213h215v-246q0 -268 -215 -268v78q72 2 97.5 41t25.5 145v37h-123zM119 0v1493h170v-875l454 455h220l-373 -371l438 -702h-211l-362 582l-166 -164v-418h-170z" />
<glyph unicode="&#x138;" horiz-adv-x="1024" d="M119 0v1073h170v-455l454 455h220l-557 -532l622 -541h-211l-528 442v-442h-170z" />
<glyph unicode="&#x139;" horiz-adv-x="1138" d="M143 1620l197 304h231l-305 -304h-123zM164 0v1493h190v-1325h738v-168h-928z" />
<glyph unicode="&#x13a;" horiz-adv-x="454" d="M131 1620l197 304h231l-305 -304h-123zM139 0v1493h172v-1493h-172z" />
<glyph unicode="&#x13b;" horiz-adv-x="1138" d="M520 -313v213h215v-246q0 -268 -215 -268v78q72 2 97.5 41t25.5 145v37h-123zM164 0v1493h190v-1325h738v-168h-928z" />
<glyph unicode="&#x13c;" horiz-adv-x="454" d="M117 -313v213h215v-246q0 -268 -215 -268v78q72 2 97.5 41t25.5 145v37h-123zM139 0v1493h172v-1493h-172z" />
<glyph unicode="&#x13d;" horiz-adv-x="1138" d="M549 981v78q72 2 97.5 41t25.5 145v37h-123v213h215v-246q0 -268 -215 -268zM164 0v1493h190v-1325h738v-168h-928z" />
<glyph unicode="&#x13e;" horiz-adv-x="792" d="M493 944v78q72 2 97.5 41t25.5 145v37h-123v213h215v-246q0 -268 -215 -268zM139 0v1493h172v-1493h-172z" />
<glyph unicode="&#x13f;" horiz-adv-x="1138" d="M703 465v213h213v-213h-213zM164 0v1493h190v-1325h738v-168h-928z" />
<glyph unicode="&#x140;" horiz-adv-x="1024" d="M634 465v213h213v-213h-213zM139 0v1493h172v-1493h-172z" />
<glyph unicode="&#x141;" horiz-adv-x="1138" d="M0 457v157l164 115v764h190v-662l351 248v-155l-351 -250v-506h776v-168h-966v573z" />
<glyph unicode="&#x142;" horiz-adv-x="454" d="M0 539v131l129 102v721h170v-631l135 105v-131l-135 -105v-731h-170v641z" />
<glyph unicode="&#x143;" horiz-adv-x="1478" d="M600 1591l197 304h231l-305 -304h-123zM156 0v1493h206l781 -1221v1221h180v-1493h-215l-772 1210v-1210h-180z" />
<glyph unicode="&#x144;" horiz-adv-x="1138" d="M438 1198l197 304h231l-305 -304h-123zM143 0v1073h158v-180q72 113 155 162t201 49q156 0 248 -80t92 -213v-811h-170v743q0 96 -59 153.5t-162 57.5q-131 0 -211 -99t-80 -263v-592h-172z" />
<glyph unicode="&#x145;" horiz-adv-x="1478" d="M633 -313v213h215v-246q0 -268 -215 -268v78q72 2 97.5 41t25.5 145v37h-123zM156 0v1493h206l781 -1221v1221h180v-1493h-215l-772 1210v-1210h-180z" />
<glyph unicode="&#x146;" horiz-adv-x="1138" d="M463 -313v213h215v-246q0 -268 -215 -268v78q72 2 97.5 41t25.5 145v37h-123zM143 0v1073h158v-180q72 113 155 162t201 49q156 0 248 -80t92 -213v-811h-170v743q0 96 -59 153.5t-162 57.5q-131 0 -211 -99t-80 -263v-592h-172z" />
<glyph unicode="&#x147;" horiz-adv-x="1478" d="M447 1895h129l166 -197l162 197h131l-197 -308h-194zM156 0v1493h206l781 -1221v1221h180v-1493h-215l-772 1210v-1210h-180z" />
<glyph unicode="&#x148;" horiz-adv-x="1138" d="M277 1498h129l166 -197l162 197h131l-197 -308h-194zM143 0v1073h158v-180q72 113 155 162t201 49q156 0 248 -80t92 -213v-811h-170v743q0 96 -59 153.5t-162 57.5q-131 0 -211 -99t-80 -263v-592h-172z" />
<glyph unicode="&#x149;" horiz-adv-x="1478" d="M94 936v78q72 2 97.5 41t25.5 145v37h-123v213h215v-246q0 -268 -215 -268zM430 0v1073h158v-180q72 113 155 162t201 49q156 0 248 -80t92 -213v-811h-170v743q0 96 -59 153.5t-162 57.5q-131 0 -211 -99t-80 -263v-592h-172z" />
<glyph unicode="&#x14a;" horiz-adv-x="1478" d="M156 0v1493h206l781 -1221v1221h180v-1716q0 -109 -79 -166t-224 -57q-27 0 -57 6v166q35 -2 41 -2h8q131 0 131 120v101l-807 1265v-1210h-180z" />
<glyph unicode="&#x14b;" horiz-adv-x="1138" d="M143 0v1073h158v-180q72 113 155 162t201 49q156 0 248 -80t92 -213v-1034q0 -223 -292 -223q-27 0 -58 6v145q35 -2 41 -2q78 0 108.5 30.5t30.5 110.5v899q0 96 -59 153.5t-162 57.5q-131 0 -211 -99t-80 -263v-592h-172z" />
<glyph unicode="&#x14c;" horiz-adv-x="1593" d="M516 1589v144h561v-144h-561zM78 735q0 350 198.5 566.5t520.5 216.5q328 0 525.5 -217.5t197.5 -577.5q0 -332 -197 -551t-524 -219q-324 0 -522.5 216t-198.5 566zM268 735.5q0 -276.5 146.5 -445.5t384 -169t384 168t146.5 438q0 283 -145.5 453t-386.5 170 q-238 0 -383.5 -169t-145.5 -445.5z" />
<glyph unicode="&#x14d;" horiz-adv-x="1138" d="M276 1226v144h561v-144h-561zM74 528.5q0 270.5 129 423t354 152.5q231 0 359 -152.5t128 -431.5q0 -264 -130 -415.5t-355 -151.5q-229 0 -357 152.5t-128 423zM252 528.5q0 -194.5 82 -306t225 -111.5q141 0 224 111.5t83 299.5q0 199 -80.5 311.5t-226.5 112.5 q-143 0 -225 -111.5t-82 -306z" />
<glyph unicode="&#x14e;" horiz-adv-x="1593" d="M490 1851h121q16 -135 188 -135q82 0 131 35t55 100h121q-23 -276 -311 -276q-74 0 -135.5 19.5t-114.5 85t-55 171.5zM78 735q0 350 198.5 566.5t520.5 216.5q328 0 525.5 -217.5t197.5 -577.5q0 -332 -197 -551t-524 -219q-324 0 -522.5 216t-198.5 566zM268 735.5 q0 -276.5 146.5 -445.5t384 -169t384 168t146.5 438q0 283 -145.5 453t-386.5 170q-238 0 -383.5 -169t-145.5 -445.5z" />
<glyph unicode="&#x14f;" horiz-adv-x="1138" d="M252 1431h121q16 -135 188 -135q82 0 131 35t55 100h121q-23 -276 -311 -276q-74 0 -135.5 19.5t-114.5 85t-55 171.5zM74 528.5q0 270.5 129 423t354 152.5q231 0 359 -152.5t128 -431.5q0 -264 -130 -415.5t-355 -151.5q-229 0 -357 152.5t-128 423zM252 528.5 q0 -194.5 82 -306t225 -111.5q141 0 224 111.5t83 299.5q0 199 -80.5 311.5t-226.5 112.5q-143 0 -225 -111.5t-82 -306z" />
<glyph unicode="&#x150;" horiz-adv-x="1593" d="M549 1587l197 308h231l-305 -308h-123zM906 1587l196 308h232l-305 -308h-123zM78 735q0 350 198.5 566.5t520.5 216.5q328 0 525.5 -217.5t197.5 -577.5q0 -332 -197 -551t-524 -219q-324 0 -522.5 216t-198.5 566zM268 735.5q0 -276.5 146.5 -445.5t384 -169t384 168 t146.5 438q0 283 -145.5 453t-386.5 170q-238 0 -383.5 -169t-145.5 -445.5z" />
<glyph unicode="&#x151;" horiz-adv-x="1138" d="M293 1208l197 308h231l-305 -308h-123zM650 1208l196 308h232l-305 -308h-123zM74 528.5q0 270.5 129 423t354 152.5q231 0 359 -152.5t128 -431.5q0 -264 -130 -415.5t-355 -151.5q-229 0 -357 152.5t-128 423zM252 528.5q0 -194.5 82 -306t225 -111.5q141 0 224 111.5 t83 299.5q0 199 -80.5 311.5t-226.5 112.5q-143 0 -225 -111.5t-82 -306z" />
<glyph unicode="&#x152;" horiz-adv-x="2048" d="M88 729q0 180 41 322.5t103.5 228.5t146.5 141.5t163 76t158 20.5q248 0 375 -181v156h879v-168h-688v-487h671v-168h-671v-502h698v-168h-889v152q-137 -193 -377 -193q-82 0 -160.5 20.5t-162.5 75t-145.5 137t-101.5 222t-40 315.5zM279 737q0 -150 26.5 -262.5 t68.5 -177t100 -104t111.5 -53t112.5 -13.5q256 0 377 246v731q-121 246 -375 246q-63 0 -117.5 -14.5t-112.5 -54.5t-98 -105.5t-66.5 -178.5t-26.5 -260z" />
<glyph unicode="&#x153;" horiz-adv-x="1933" d="M82 530q0 274 127 424t358 150q276 0 402 -217q63 102 166.5 159.5t228.5 57.5q152 0 267.5 -76t166.5 -207q43 -113 43 -342h-790q2 -106 32.5 -183t79.5 -115t99.5 -54t103.5 -16q209 0 281 215h172q-33 -176 -154 -274.5t-303 -98.5q-270 0 -397 211 q-129 -211 -398 -211q-231 0 -358 150.5t-127 426.5zM260 530q0 -197 82 -308t225 -111q141 0 224 110.5t83 302.5q0 199 -81.5 310.5t-225 111.5t-225.5 -111.5t-82 -304.5zM1055 618h602q0 145 -82 236.5t-213 91.5q-129 0 -213 -89t-94 -239z" />
<glyph unicode="&#x154;" horiz-adv-x="1478" d="M587 1589l197 304h231l-305 -304h-123zM190 0v1493h689q219 0 336.5 -103.5t117.5 -295.5q0 -127 -55 -211t-180 -146q66 -29 109.5 -67.5t63 -88t26 -92.5t6.5 -102q0 -18 -1.5 -53t-1.5 -51q0 -84 18.5 -141.5t72.5 -94.5v-47h-232q-41 94 -41 244v133 q0 137 -59.5 201.5t-186.5 64.5h-491v-643h-191zM381 811h461q152 0 222.5 61.5t70.5 194.5q0 147 -78 202.5t-215 55.5h-461v-514z" />
<glyph unicode="&#x155;" horiz-adv-x="681" d="M249 1210l197 304h231l-305 -304h-123zM141 0v1073h158v-194q74 121 142.5 173t150.5 52q23 0 65 -6v-174q-172 -4 -258 -80t-86 -287v-557h-172z" />
<glyph unicode="&#x156;" horiz-adv-x="1478" d="M645 -313v213h215v-246q0 -268 -215 -268v78q72 2 97.5 41t25.5 145v37h-123zM190 0v1493h689q219 0 336.5 -103.5t117.5 -295.5q0 -127 -55 -211t-180 -146q66 -29 109.5 -67.5t63 -88t26 -92.5t6.5 -102q0 -18 -1.5 -53t-1.5 -51q0 -84 18.5 -141.5t72.5 -94.5v-47 h-232q-41 94 -41 244v133q0 137 -59.5 201.5t-186.5 64.5h-491v-643h-191zM381 811h461q152 0 222.5 61.5t70.5 194.5q0 147 -78 202.5t-215 55.5h-461v-514z" />
<glyph unicode="&#x157;" horiz-adv-x="681" d="M121 -313v213h215v-246q0 -268 -215 -268v78q72 2 97.5 41t25.5 145v37h-123zM141 0v1073h158v-194q74 121 142.5 173t150.5 52q23 0 65 -6v-174q-172 -4 -258 -80t-86 -287v-557h-172z" />
<glyph unicode="&#x158;" horiz-adv-x="1478" d="M436 1893h129l166 -197l162 197h131l-197 -308h-194zM190 0v1493h689q219 0 336.5 -103.5t117.5 -295.5q0 -127 -55 -211t-180 -146q66 -29 109.5 -67.5t63 -88t26 -92.5t6.5 -102q0 -18 -1.5 -53t-1.5 -51q0 -84 18.5 -141.5t72.5 -94.5v-47h-232q-41 94 -41 244v133 q0 137 -59.5 201.5t-186.5 64.5h-491v-643h-191zM381 811h461q152 0 222.5 61.5t70.5 194.5q0 147 -78 202.5t-215 55.5h-461v-514z" />
<glyph unicode="&#x159;" horiz-adv-x="681" d="M100 1518h129l166 -197l162 197h131l-197 -308h-194zM141 0v1073h158v-194q74 121 142.5 173t150.5 52q23 0 65 -6v-174q-172 -4 -258 -80t-86 -287v-557h-172z" />
<glyph unicode="&#x15a;" horiz-adv-x="1366" d="M544 1585l197 304h231l-305 -304h-123zM98 475h181v-10q0 -63 19 -118.5t63.5 -109t131.5 -85t207 -31.5q115 0 195 26.5t118 69.5t53 85t15 89q0 170 -274 242l-371 98q-293 76 -293 348q0 203 142.5 321t388.5 118q258 0 401.5 -122t145.5 -341h-181q-2 145 -98 224 t-274 79q-152 0 -243 -69.5t-91 -182.5q0 -86 55 -135t191 -86l374 -101q152 -41 235 -139t83 -235q0 -59 -15.5 -118t-56.5 -121t-104.5 -109.5t-169 -78t-238.5 -30.5q-84 0 -160.5 13.5t-156.5 49t-137.5 92t-95.5 150.5t-40 217z" />
<glyph unicode="&#x15b;" horiz-adv-x="1024" d="M366 1212l197 304h231l-305 -304h-123zM70 319h180q12 -96 66.5 -152t195.5 -56q113 0 181.5 46t68.5 122q0 59 -39 94t-127 55l-160 39q-190 45 -265 113.5t-75 195.5q0 150 113 239t299 89t286.5 -86t102.5 -244h-180q-6 172 -215 172q-104 0 -166 -44t-62 -118 q0 -57 47.5 -93t151.5 -60l164 -39q160 -39 231.5 -109.5t71.5 -189.5q0 -156 -120 -248t-322 -92q-416 -1 -428 366z" />
<glyph unicode="&#x15c;" horiz-adv-x="1366" d="M393 1585l197 308h194l197 -308h-129l-166 197l-162 -197h-131zM98 475h181v-10q0 -63 19 -118.5t63.5 -109t131.5 -85t207 -31.5q115 0 195 26.5t118 69.5t53 85t15 89q0 170 -274 242l-371 98q-293 76 -293 348q0 203 142.5 321t388.5 118q258 0 401.5 -122t145.5 -341 h-181q-2 145 -98 224t-274 79q-152 0 -243 -69.5t-91 -182.5q0 -86 55 -135t191 -86l374 -101q152 -41 235 -139t83 -235q0 -59 -15.5 -118t-56.5 -121t-104.5 -109.5t-169 -78t-238.5 -30.5q-84 0 -160.5 13.5t-156.5 49t-137.5 92t-95.5 150.5t-40 217z" />
<glyph unicode="&#x15d;" horiz-adv-x="1024" d="M217 1167l197 308h194l197 -308h-129l-166 197l-162 -197h-131zM70 319h180q12 -96 66.5 -152t195.5 -56q113 0 181.5 46t68.5 122q0 59 -39 94t-127 55l-160 39q-190 45 -265 113.5t-75 195.5q0 150 113 239t299 89t286.5 -86t102.5 -244h-180q-6 172 -215 172 q-104 0 -166 -44t-62 -118q0 -57 47.5 -93t151.5 -60l164 -39q160 -39 231.5 -109.5t71.5 -189.5q0 -156 -120 -248t-322 -92q-416 -1 -428 366z" />
<glyph unicode="&#x15e;" horiz-adv-x="1366" d="M98 461v14h181v-10q0 -63 19 -118.5t63.5 -109t131.5 -85t207 -31.5q115 0 195 26.5t118 69.5t53 85t15 89q0 170 -274 242l-371 98q-293 76 -293 348q0 203 142.5 321t388.5 118q258 0 401.5 -122t145.5 -341h-181q-2 145 -98 224t-274 79q-152 0 -243 -69.5t-91 -182.5 q0 -86 55 -135t191 -86l374 -101q152 -41 235 -139t83 -235q0 -82 -24.5 -153t-85 -140.5t-182.5 -113.5t-294 -52l-31 -66q29 4 58 4q78 0 119.5 -35.5t41.5 -101.5q0 -88 -67.5 -139t-183.5 -51q-96 0 -256 69l43 82q14 -6 45.5 -21.5t50 -23.5t47.5 -15t57 -7 q47 0 79 26.5t32 65.5q0 76 -94 76q-29 0 -64 -15l-22 13l63 141q-18 6 -22 6l-90 14q-182 39 -288 170.5t-106 317.5z" />
<glyph unicode="&#x15f;" horiz-adv-x="1024" d="M70 319h180q12 -96 66.5 -152t195.5 -56q113 0 181.5 46t68.5 122q0 59 -39 94t-127 55l-160 39q-190 45 -265 113.5t-75 195.5q0 150 113 239t299 89t286.5 -86t102.5 -244h-180q-6 172 -215 172q-104 0 -166 -44t-62 -118q0 -57 47.5 -93t151.5 -60l164 -39 q160 -39 231.5 -109.5t71.5 -189.5q0 -96 -53 -176t-148 -121q-78 -35 -239 -45l-29 -66q29 4 57 4q78 0 120 -35.5t42 -101.5q0 -88 -67.5 -139t-184.5 -51q-96 0 -256 69l43 82q14 -6 46 -21.5t50.5 -23.5t47 -15t57.5 -7q47 0 79 26.5t32 65.5q0 76 -95 76q-29 0 -63 -15 l-23 13l64 145q-344 34 -350 362z" />
<glyph unicode="&#x160;" horiz-adv-x="1366" d="M387 1895h129l166 -197l162 197h131l-197 -308h-194zM98 475h181v-10q0 -63 19 -118.5t63.5 -109t131.5 -85t207 -31.5q115 0 195 26.5t118 69.5t53 85t15 89q0 170 -274 242l-371 98q-293 76 -293 348q0 203 142.5 321t388.5 118q258 0 401.5 -122t145.5 -341h-181 q-2 145 -98 224t-274 79q-152 0 -243 -69.5t-91 -182.5q0 -86 55 -135t191 -86l374 -101q152 -41 235 -139t83 -235q0 -59 -15.5 -118t-56.5 -121t-104.5 -109.5t-169 -78t-238.5 -30.5q-84 0 -160.5 13.5t-156.5 49t-137.5 92t-95.5 150.5t-40 217z" />
<glyph unicode="&#x161;" horiz-adv-x="1024" d="M211 1502h129l166 -197l162 197h131l-197 -308h-194zM70 319h180q12 -96 66.5 -152t195.5 -56q113 0 181.5 46t68.5 122q0 59 -39 94t-127 55l-160 39q-190 45 -265 113.5t-75 195.5q0 150 113 239t299 89t286.5 -86t102.5 -244h-180q-6 172 -215 172q-104 0 -166 -44 t-62 -118q0 -57 47.5 -93t151.5 -60l164 -39q160 -39 231.5 -109.5t71.5 -189.5q0 -156 -120 -248t-322 -92q-416 -1 -428 366z" />
<glyph unicode="&#x162;" horiz-adv-x="1251" d="M43 1325v168h1171v-168h-489v-1325h-47l-47 -113q27 4 57 4q78 0 120 -35.5t42 -101.5q0 -88 -67.5 -139t-184.5 -51q-96 0 -256 69l43 82q18 -8 52 -24.5t51.5 -23.5t44 -13t53.5 -6q47 0 78.5 26.5t31.5 65.5q0 76 -94 76q-31 0 -63 -17l-25 15l86 186h-65v1325h-492z " />
<glyph unicode="&#x163;" horiz-adv-x="569" d="M29 934v139h145v295h170v-295h176v-139h-176v-735q0 -57 19.5 -77t74.5 -20q51 0 82 9v-144q-57 -10 -100 -12l-39 -96q27 4 57 4q78 0 120 -36t42 -101q0 -88 -67.5 -139.5t-184.5 -51.5q-96 0 -256 70l43 82q18 -8 52 -24.5t51.5 -24t44 -13.5t53.5 -6q47 0 78.5 26.5 t31.5 65.5q0 76 -94 76q-31 0 -63 -16l-25 14l78 170q-82 8 -125 51t-43 117v811h-145z" />
<glyph unicode="&#x164;" horiz-adv-x="1251" d="M336 1897h129l166 -197l162 197h131l-197 -308h-194zM43 1325v168h1171v-168h-489v-1325h-190v1325h-492z" />
<glyph unicode="&#x165;" horiz-adv-x="907" d="M624 1241v213h215v-246q0 -268 -215 -268v78q72 2 97.5 41t25.5 145v37h-123zM29 934v139h145v295h170v-295h176v-139h-176v-735q0 -57 19.5 -77t74.5 -20q51 0 82 9v-144q-80 -14 -139 -14q-100 0 -153.5 44t-53.5 126v811h-145z" />
<glyph unicode="&#x166;" horiz-adv-x="1251" d="M43 1325v168h1171v-168h-489v-446h289v-148h-289v-731h-190v731h-289v148h289v446h-492z" />
<glyph unicode="&#x167;" horiz-adv-x="569" d="M18 492v147h156v295h-145v139h145v295h170v-295h176v-139h-176v-295h162v-147h-162v-293q0 -57 19.5 -77t74.5 -20q51 0 82 9v-144q-80 -14 -139 -14q-100 0 -153.5 44t-53.5 126v369h-156z" />
<glyph unicode="&#x168;" horiz-adv-x="1478" d="M426 1576q16 100 62.5 155.5t113.5 55.5q51 0 141.5 -37.5t131.5 -37.5q51 0 76 75h118q-31 -213 -182 -213q-41 0 -143.5 39t-130.5 39q-47 0 -68 -76h-119zM174 444v1049h191v-1049q0 -162 103 -242.5t277 -80.5q180 0 282.5 86t102.5 237v1049h191v-1049 q0 -225 -156.5 -358t-419.5 -133q-266 0 -418.5 132t-152.5 359z" />
<glyph unicode="&#x169;" horiz-adv-x="1138" d="M239 1157q16 100 62.5 155.5t113.5 55.5q51 0 141.5 -37.5t131.5 -37.5q51 0 76 75h118q-31 -213 -182 -213q-41 0 -143.5 39t-130.5 39q-47 0 -68 -76h-119zM133 246v827h170v-760q0 -96 59.5 -153.5t161.5 -57.5q133 0 213 99.5t80 263.5v608h170v-1073h-153v150 q-76 -106 -158 -151.5t-201 -45.5q-156 0 -249 80t-93 213z" />
<glyph unicode="&#x16a;" horiz-adv-x="1478" d="M467 1591v144h561v-144h-561zM174 444v1049h191v-1049q0 -162 103 -242.5t277 -80.5q180 0 282.5 86t102.5 237v1049h191v-1049q0 -225 -156.5 -358t-419.5 -133q-266 0 -418.5 132t-152.5 359z" />
<glyph unicode="&#x16b;" horiz-adv-x="1138" d="M278 1226v144h561v-144h-561zM133 246v827h170v-760q0 -96 59.5 -153.5t161.5 -57.5q133 0 213 99.5t80 263.5v608h170v-1073h-153v150q-76 -106 -158 -151.5t-201 -45.5q-156 0 -249 80t-93 213z" />
<glyph unicode="&#x16c;" horiz-adv-x="1478" d="M441 1851h121q16 -135 188 -135q82 0 131 35t55 100h121q-23 -276 -311 -276q-74 0 -135.5 19.5t-114.5 85t-55 171.5zM174 444v1049h191v-1049q0 -162 103 -242.5t277 -80.5q180 0 282.5 86t102.5 237v1049h191v-1049q0 -225 -156.5 -358t-419.5 -133q-266 0 -418.5 132 t-152.5 359z" />
<glyph unicode="&#x16d;" horiz-adv-x="1138" d="M252 1431h121q16 -135 188 -135q82 0 131 35t55 100h121q-23 -276 -311 -276q-74 0 -135.5 19.5t-114.5 85t-55 171.5zM133 246v827h170v-760q0 -96 59.5 -153.5t161.5 -57.5q133 0 213 99.5t80 263.5v608h170v-1073h-153v150q-76 -106 -158 -151.5t-201 -45.5 q-156 0 -249 80t-93 213z" />
<glyph unicode="&#x16e;" horiz-adv-x="1478" d="M568 1761q0 72 53 125t127 53q76 0 128 -52t52 -128q0 -74 -53 -126t-127 -52t-127 53t-53 127zM658 1761q0 -37 26.5 -63.5t63.5 -26.5t63.5 26.5t26.5 61.5q0 39 -25.5 64.5t-64.5 25.5q-37 0 -63.5 -26.5t-26.5 -61.5zM174 444v1049h191v-1049q0 -162 103 -242.5 t277 -80.5q180 0 282.5 86t102.5 237v1049h191v-1049q0 -225 -156.5 -358t-419.5 -133q-266 0 -418.5 132t-152.5 359z" />
<glyph unicode="&#x16f;" horiz-adv-x="1138" d="M379 1366q0 72 53 125t127 53q76 0 128 -52t52 -128q0 -74 -53 -126t-127 -52t-127 53t-53 127zM469 1366q0 -37 26.5 -63.5t63.5 -26.5t63.5 26.5t26.5 61.5q0 39 -25.5 64.5t-64.5 25.5q-37 0 -63.5 -26.5t-26.5 -61.5zM133 246v827h170v-760q0 -96 59.5 -153.5 t161.5 -57.5q133 0 213 99.5t80 263.5v608h170v-1073h-153v150q-76 -106 -158 -151.5t-201 -45.5q-156 0 -249 80t-93 213z" />
<glyph unicode="&#x170;" horiz-adv-x="1478" d="M477 1585l197 308h231l-305 -308h-123zM834 1585l196 308h232l-305 -308h-123zM174 444v1049h191v-1049q0 -162 103 -242.5t277 -80.5q180 0 282.5 86t102.5 237v1049h191v-1049q0 -225 -156.5 -358t-419.5 -133q-266 0 -418.5 132t-152.5 359z" />
<glyph unicode="&#x171;" horiz-adv-x="1138" d="M301 1190l197 308h231l-305 -308h-123zM658 1190l196 308h232l-305 -308h-123zM133 246v827h170v-760q0 -96 59.5 -153.5t161.5 -57.5q133 0 213 99.5t80 263.5v608h170v-1073h-153v150q-76 -106 -158 -151.5t-201 -45.5q-156 0 -249 80t-93 213z" />
<glyph unicode="&#x172;" horiz-adv-x="1478" d="M174 444v1049h191v-1049q0 -162 103 -242.5t277 -80.5q180 0 282.5 86t102.5 237v1049h191v-1049q0 -106 -38 -195t-91 -147.5t-106.5 -107.5t-91.5 -102.5t-38 -108.5q0 -111 148 -111q76 0 129 21v-92q-98 -20 -154 -21q-117 0 -194.5 53.5t-77.5 137.5q0 63 35 111 t114 98q-117 -27 -206 -27q-268 0 -422 131t-154 360z" />
<glyph unicode="&#x173;" horiz-adv-x="1138" d="M133 246v827h170v-760q0 -96 59.5 -153.5t161.5 -57.5q133 0 213 99.5t80 263.5v608h170v-1073q-72 -41 -115 -101.5t-43 -119.5q0 -49 37 -78t101 -29q47 0 100 21v-92q-10 -2 -50 -10.5t-56 -8.5q-127 0 -203 51.5t-76 139.5q0 127 197 227h-45v150 q-76 -106 -158 -151.5t-201 -45.5q-156 0 -249 80t-93 213z" />
<glyph unicode="&#x174;" horiz-adv-x="1933" d="M680 1583l197 308h194l197 -308h-129l-166 197l-162 -197h-131zM45 1493h213l281 -1212l331 1212h205l340 -1212l275 1212h213l-379 -1493h-209l-344 1227l-334 -1227h-209z" />
<glyph unicode="&#x175;" horiz-adv-x="1478" d="M438 1169l197 308h194l197 -308h-129l-166 197l-162 -197h-131zM12 1073h189l219 -835l205 835h209l210 -835l213 835h193l-315 -1073h-195l-217 842l-207 -842h-192z" />
<glyph unicode="&#x176;" horiz-adv-x="1366" d="M397 1577l197 308h194l197 -308h-129l-166 197l-162 -197h-131zM27 1493h235l438 -727l426 727h228l-561 -907v-586h-191v586z" />
<glyph unicode="&#x177;" horiz-adv-x="1024" d="M217 1165l197 308h194l197 -308h-129l-166 197l-162 -197h-131zM41 1073h182l275 -835l297 835h184l-477 -1298q-84 -221 -277 -221q-63 0 -114 26v154q55 -12 90 -13q53 0 83.5 24t53.5 81l65 170z" />
<glyph unicode="&#x178;" horiz-adv-x="1366" d="M417 1591v211h213v-211h-213zM749 1591v211h213v-211h-213zM27 1493h235l438 -727l426 727h228l-561 -907v-586h-191v586z" />
<glyph unicode="&#x179;" horiz-adv-x="1251" d="M516 1591l197 304h231l-305 -304h-123zM57 0v168l897 1157h-839v168h1075v-172l-893 -1153h897v-168h-1137z" />
<glyph unicode="&#x17a;" horiz-adv-x="1024" d="M372 1194l197 304h231l-305 -304h-123zM63 0v154l642 770h-599v149h801v-151l-637 -772h666v-150h-873z" />
<glyph unicode="&#x17b;" horiz-adv-x="1251" d="M547 1591v213h213v-213h-213zM57 0v168l897 1157h-839v168h1075v-172l-893 -1153h897v-168h-1137z" />
<glyph unicode="&#x17c;" horiz-adv-x="1024" d="M400 1200v213h213v-213h-213zM63 0v154l642 770h-599v149h801v-151l-637 -772h666v-150h-873z" />
<glyph unicode="&#x17d;" horiz-adv-x="1251" d="M358 1897h129l166 -197l162 197h131l-197 -308h-194zM57 0v168l897 1157h-839v168h1075v-172l-893 -1153h897v-168h-1137z" />
<glyph unicode="&#x17e;" horiz-adv-x="1024" d="M219 1502h129l166 -197l162 197h131l-197 -308h-194zM63 0v154l642 770h-599v149h801v-151l-637 -772h666v-150h-873z" />
<glyph unicode="&#x17f;" horiz-adv-x="569" d="M37 934v139h143v182q0 115 66.5 179.5t185.5 64.5q47 0 96 -10v-141q-39 2 -59 2q-119 0 -119 -109v-1241h-170v934h-143z" />
<glyph unicode="&#x180;" horiz-adv-x="1138" d="M53 1229v108h129v156h170v-156h307v-108h-307v-285q131 160 330 160q207 0 333 -154.5t126 -408.5q0 -266 -127 -427t-336 -161q-201 0 -344 168v-121h-152v1229h-129zM352 524q0 -182 82 -292.5t217 -110.5q139 0 225.5 112.5t86.5 295t-86 295t-226 112.5 q-137 0 -218 -112t-81 -300z" />
<glyph unicode="&#x181;" horiz-adv-x="1748" d="M98 1233q0 100 62.5 180t208.5 80h782q125 0 217 -37t138 -97.5t66.5 -120.5t20.5 -124q0 -229 -207 -326q143 -55 208 -141t65 -221q0 -193 -121 -309.5t-319 -116.5h-674v1315h-168q-100 0 -101 -119q0 -47 28 -78t83 -31q4 0 20.5 1.5t38.5 1.5v-162q-49 -10 -96 -10 q-252 0 -252 315zM735 168h465q100 0 163.5 44t84 97t20.5 115q0 117 -69.5 187.5t-198.5 70.5h-465v-514zM735 850h369q299 0 299 237.5t-299 237.5h-369v-475z" />
<glyph unicode="&#x182;" horiz-adv-x="1368" d="M164 0v1493h1001v-168h-811v-434h369q555 0 555 -440v-5q0 -74 -20.5 -145.5t-66.5 -142t-137 -114.5t-216 -44h-674zM354 168h465q80 0 137.5 26.5t83 72.5t36.5 88t11 89.5t-11 90.5t-36.5 88t-83 72.5t-137.5 27.5h-465v-555z" />
<glyph unicode="&#x183;" horiz-adv-x="1138" d="M111 0v1493h800v-150h-630v-415q117 176 331 176q213 0 336 -151.5t123 -411.5q0 -266 -127 -427t-340 -161q-219 0 -340 184v-137h-153zM281 528.5q0 -188.5 81.5 -302t217.5 -113.5q139 0 226 113.5t87 295.5q0 193 -85 307.5t-228 114.5q-135 0 -217 -113.5t-82 -302z " />
<glyph unicode="&#x184;" horiz-adv-x="1366" d="M-100 1208l262 285h190v-569h338q307 0 446.5 -123t139.5 -332v-6q0 -203 -133 -333t-338 -130h-643v924zM352 168h434q131 0 215 84t84 209q0 131 -82.5 213t-216.5 82h-434v-588z" />
<glyph unicode="&#x185;" horiz-adv-x="1138" d="M-80 1208l191 285h170v-565q117 176 331 176q213 0 336 -151.5t123 -411.5q0 -266 -127 -427t-340 -161q-219 0 -340 184v-137h-153v924zM281 528.5q0 -188.5 81.5 -302t217.5 -113.5q139 0 226 113.5t87 295.5q0 193 -85 307.5t-228 114.5q-135 0 -217 -113.5t-82 -302z " />
<glyph unicode="&#x186;" horiz-adv-x="1478" d="M1387 741q0 -102 -17.5 -202.5t-66.5 -209t-122 -189.5t-197 -134.5t-279 -53.5q-487 0 -576 488h195q33 -160 129 -240t274 -80q217 0 343 166t126 453q0 281 -131 445.5t-354 164.5q-184 0 -282.5 -103.5t-133.5 -320.5h-196q68 592 614 592q154 0 275.5 -52 t194.5 -132t121 -187.5t65.5 -206t17.5 -198.5z" />
<glyph unicode="&#x187;" horiz-adv-x="1478" d="M98 729q0 102 17.5 202.5t66.5 209t122 189.5t197 134.5t279 53.5q283 0 430 -162q63 121 228 121q47 0 96 -11v-161q-39 2 -59 2q-61 0 -90 -25t-29 -84v-168h-195q-33 160 -129 240t-274 80q-217 0 -343 -166t-126 -453q0 -281 131 -445.5t354 -164.5 q184 0 282.5 103.5t133.5 320.5h196q-68 -592 -614 -592q-154 0 -275.5 52t-194.5 132t-121 187.5t-65.5 206t-17.5 198.5z" />
<glyph unicode="&#x188;" horiz-adv-x="1024" d="M63 518q0 266 130.5 426t347.5 160q172 0 286 -92q51 127 220 127q47 0 96 -11v-141q-39 2 -60 2q-61 0 -89.5 -24.5t-28.5 -83.5v-168h-172q-16 113 -82 173t-172 60q-139 0 -218 -113.5t-79 -314.5q0 -190 79.5 -298.5t221.5 -108.5q219 0 262 258h172 q-16 -197 -131 -306.5t-307 -109.5q-219 0 -347.5 152.5t-128.5 412.5z" />
<glyph unicode="&#x189;" horiz-adv-x="1478" d="M41 694v137h141v662h578q283 0 444.5 -198.5t161.5 -547t-162 -548t-444 -199.5h-578v694h-141zM373 168h354q219 0 334 147.5t115 432t-115 431t-334 146.5h-354v-494h350v-137h-350v-526z" />
<glyph unicode="&#x18a;" horiz-adv-x="1841" d="M98 1233q0 100 62.5 180t208.5 80h751q285 0 447 -198.5t162 -547t-163 -548t-446 -199.5h-575v1315h-168q-100 0 -101 -119q0 -47 28 -78t83 -31q4 0 20.5 1.5t38.5 1.5v-162q-49 -10 -96 -10q-252 0 -252 315zM735 168h352q221 0 336 147.5t115 429.5 q0 285 -114.5 432.5t-336.5 147.5h-352v-1157z" />
<glyph unicode="&#x18b;" horiz-adv-x="1366" d="M162 446v5q0 440 555 440h368v434h-811v168h1002v-1493h-674q-125 0 -216 44t-137 114.5t-66.5 142t-20.5 145.5zM352 444.5q0 -47.5 11.5 -89.5t37 -88t83 -72.5t137.5 -26.5h464v555h-464q-80 0 -137.5 -27.5t-83 -72.5t-37 -88t-11.5 -90.5z" />
<glyph unicode="&#x18c;" horiz-adv-x="1138" d="M111 541q0 260 122.5 411.5t335.5 151.5q215 0 332 -176v415h-631v150h801v-1493h-153v137q-121 -184 -340 -184q-213 0 -340 161t-127 427zM289 522q0 -182 87 -295.5t226 -113.5q135 0 217 113.5t82 302t-82 302t-217 113.5q-143 0 -228 -114.5t-85 -307.5z" />
<glyph unicode="&#x18d;" horiz-adv-x="1155" d="M1085 594q0 -236 -120.5 -381t-315.5 -145q-20 0 -70 8l433 -332v-147h-816v147h551l-358 283q-2 2 -33 24.5t-40 28.5t-38.5 32t-43 41t-39 46t-38 56.5t-31 63.5t-26.5 75t-15 85t-7 99q0 281 123.5 413t396.5 132q66 0 128 -14.5t128.5 -51.5t117 -94t82 -152.5 t31.5 -216.5zM901 578q0 186 -82 281.5t-221 95.5h-57q-96 0 -142 -33q-66 -49 -103.5 -144.5t-37.5 -203.5q0 -168 84 -268.5t244 -100.5q143 0 227 105.5t88 267.5z" />
<glyph unicode="&#x18e;" horiz-adv-x="1366" d="M184 0v168h881v512h-813v168h813v477h-844v168h1034v-1493h-1071z" />
<glyph unicode="&#x18f;" horiz-adv-x="1478" d="M96 684h1098q2 16 2 47q0 287 -126 453t-343 166q-178 0 -274.5 -79t-128.5 -241h-195q88 487 576 488q156 0 279.5 -53.5t196 -134.5t122 -189.5t66.5 -209t17 -202.5q0 -100 -17 -198.5t-65.5 -206t-121 -187.5t-194.5 -132t-275 -52q-615 0 -617 731zM317 516 q10 -68 20.5 -114t38 -104t66.5 -93t107.5 -59.5t161.5 -24.5q176 0 295.5 104.5t164.5 290.5h-854z" />
<glyph unicode="&#x190;" horiz-adv-x="1366" d="M98 410q0 256 267 356q-215 92 -215 313q0 203 142 321t388 118q258 0 401.5 -122t145.5 -341h-180q-2 145 -98.5 224t-274.5 79q-152 0 -243 -69.5t-91 -182.5q0 -94 97.5 -187.5t226.5 -93.5h180v-168h-221q-137 0 -235.5 -86t-98.5 -180q0 -45 15 -87t53 -86 t118 -70.5t195 -26.5q121 0 208 30.5t131 84t63.5 109.5t19.5 120v10h180q-2 -152 -57.5 -259t-146.5 -161.5t-185.5 -78t-200.5 -23.5q-166 0 -287 44t-182 116.5t-88 145.5t-27 151z" />
<glyph unicode="&#x191;" horiz-adv-x="1251" d="M4 -274q35 -2 41 -2q139 0 139 120v1649h1002v-168h-811v-477h712v-168h-712v-903q0 -109 -83 -166t-231 -57q-27 0 -57 6v166z" />
<glyph unicode="&#x192;" horiz-adv-x="569" d="M0 -295q35 -2 41 -2q78 0 108.5 30.5t30.5 110.5v1090h-143v139h143v182q0 115 66.5 179.5t185.5 64.5q47 0 96 -10v-141q-39 2 -59 2q-119 0 -119 -109v-168h178v-139h-178v-1157q0 -223 -293 -223q-27 0 -57 6v145z" />
<glyph unicode="&#x193;" horiz-adv-x="1593" d="M90 731q0 98 18.5 197.5t69.5 208t128 190.5t207 136.5t294 54.5q299 0 471 -168q57 137 235 137q47 0 97 -10v-162q-39 2 -60 2q-61 0 -89.5 -24.5t-28.5 -84.5v-168h-195q-31 143 -146.5 226.5t-285.5 83.5q-238 0 -381 -167t-143 -442q0 -78 14 -156.5t51 -164.5 t95.5 -150.5t154.5 -106.5t219 -42q205 0 337 129t132 330v41h-455v167h623v-796h-121l-47 198q-213 -238 -510 -237q-303 0 -493.5 217t-190.5 561z" />
<glyph unicode="&#x194;" horiz-adv-x="1366" d="M27 1493h235l438 -727l426 727h228l-561 -907q158 -211 157 -361q0 -127 -73.5 -203.5t-176.5 -76.5q-90 0 -152.5 54t-83 110.5t-20.5 99.5q0 63 25 126.5t133 250.5zM637 211q0 -37 19.5 -55.5t43.5 -18.5q59 0 60 74q0 72 -58 186q-65 -120 -65 -186z" />
<glyph unicode="&#x195;" horiz-adv-x="1820" d="M143 0v1493h170v-567q76 98 153 138t191 40q156 0 247 -79t91 -214v-612q0 -96 150 -97q92 0 163.5 36t110.5 86t63.5 112.5t33 106.5t8.5 77q0 94 -54.5 213t-201.5 223l209 9q100 -78 164.5 -206t64.5 -249q0 -39 -14.5 -100.5t-54.5 -143.5t-100 -149.5t-162.5 -115.5 t-229.5 -48h-113q-100 0 -153.5 44t-53.5 126v620q0 113 -68.5 162t-152.5 49q-131 0 -211 -99t-80 -263v-592h-170z" />
<glyph unicode="&#x196;" horiz-adv-x="569" d="M135 123v1370h170v-1294q0 -57 19.5 -77t74.5 -20q51 0 82 9v-144q-80 -14 -139 -14q-100 0 -153.5 44t-53.5 126z" />
<glyph unicode="&#x197;" horiz-adv-x="681" d="M0 694v137h244v662h192v-662h246v-137h-246v-694h-192v694h-244z" />
<glyph unicode="&#x198;" horiz-adv-x="1366" d="M162 0v1493h190v-756l590 604q133 125 258 125q106 0 176 -63l-114 -127q-20 20 -54 20q-66 0 -129 -63l-346 -348l615 -885h-226l-526 766l-244 -244v-522h-190z" />
<glyph unicode="&#x199;" horiz-adv-x="1024" d="M119 0v1255q0 115 66.5 179.5t185.5 64.5q47 0 96 -10v-141q-39 2 -59 2q-119 0 -119 -109v-623l454 455h220l-373 -371l438 -702h-211l-362 582l-166 -164v-418h-170z" />
<glyph unicode="&#x19a;" horiz-adv-x="681" d="M0 694v137h254v662h172v-662h256v-137h-256v-694h-172v694h-254z" />
<glyph unicode="&#x19b;" horiz-adv-x="1146" d="M61 4l406 1065l-12 37l-344 -238v158q10 0 295 201q-33 59 -71 77.5t-89 18.5l-111 -16l21 168q68 25 114 24q86 0 145.5 -37t121.5 -145l278 194v-155l-227 -158l383 -1010q16 -39 57 -38q10 0 37 8t33 14l41 -143q-98 -49 -166 -49q-51 0 -85 24.5t-48.5 52t-32.5 82.5 l-250 725l-299 -860h-197z" />
<glyph unicode="&#x19c;" horiz-adv-x="1705" d="M131 268v1225h195v-1137q0 -102 48 -158.5t140 -56.5q104 0 173 81t69 200v1071h194v-1137q0 -215 187 -215q104 0 172.5 81t68.5 200v1071h195v-1493h-170v152q-70 -96 -146.5 -139.5t-183.5 -43.5q-199 0 -289 164q-76 -90 -149.5 -127t-179.5 -37q-152 0 -238 78 t-86 221z" />
<glyph unicode="&#x19d;" horiz-adv-x="1478" d="M-25 -285q35 -2 41 -2q139 0 140 131v1649h206l781 -1221v1221h180v-1493h-215l-772 1210v-1433q0 -109 -79 -166t-224 -57q-27 0 -58 6v155z" />
<glyph unicode="&#x19e;" horiz-adv-x="1138" d="M143 0v1073h158v-180q72 113 155 162t201 49q156 0 248 -80t92 -213v-1221h-170v1153q0 96 -59 153.5t-162 57.5q-131 0 -211 -99t-80 -263v-592h-172z" />
<glyph unicode="&#x19f;" horiz-adv-x="1593" d="M78 735q0 350 198.5 566.5t520.5 216.5q328 0 525.5 -217.5t197.5 -577.5q0 -332 -197 -551t-524 -219q-324 0 -522.5 216t-198.5 566zM270 788h1057q-16 256 -158.5 409t-371.5 153q-223 0 -368 -154t-159 -408zM272 645q25 -240 167.5 -382t359.5 -142t360.5 143.5 t165.5 380.5h-1053z" />
<glyph unicode="&#x1a0;" horiz-adv-x="1613" d="M78 735q0 350 198.5 566.5t520.5 216.5q127 0 237.5 -37t178 -74t92.5 -37q51 0 75.5 3t43 16.5t18.5 42.5q0 47 -35 88l131 110q76 -88 76 -203q0 -190 -219 -223q125 -199 125 -481q0 -332 -197 -551t-524 -219q-324 0 -522.5 216t-198.5 566zM268 735.5 q0 -276.5 146.5 -445.5t384 -169t384 168t146.5 438q0 283 -145.5 453t-386.5 170q-238 0 -383.5 -169t-145.5 -445.5z" />
<glyph unicode="&#x1a1;" horiz-adv-x="1157" d="M74 528.5q0 270.5 129 423t354 152.5q115 0 199 -36t110 -36q63 0 91 12.5t28 49.5q0 47 -35 88l131 110q76 -88 76 -202q0 -176 -188 -218q76 -141 75 -352q0 -264 -130 -415.5t-355 -151.5q-229 0 -357 152.5t-128 423zM252 528.5q0 -194.5 82 -306t225 -111.5 q141 0 224 111.5t83 299.5q0 199 -80.5 311.5t-226.5 112.5q-143 0 -225 -111.5t-82 -306z" />
<glyph unicode="&#x1a2;" horiz-adv-x="1933" d="M78 735q0 350 198.5 566.5t520.5 216.5q231 0 407 -115q172 125 369 125q170 0 244.5 -105.5t74.5 -277.5v-1145h-192v1206q0 61 -32 115.5t-107 54.5q-78 0 -121 -20.5t-101 -73.5q180 -215 181 -559q0 -332 -197 -551t-524 -219q-324 0 -522.5 216t-198.5 566z M268 735.5q0 -276.5 146.5 -445.5t384 -169t384 168t146.5 438q0 283 -145.5 453t-386.5 170q-238 0 -383.5 -169t-145.5 -445.5z" />
<glyph unicode="&#x1a3;" horiz-adv-x="1478" d="M74 528.5q0 270.5 129 423t354 152.5q172 0 287 -84q131 84 258 84q143 0 208.5 -75t65.5 -273v-1166h-172v1207q0 80 -22.5 123t-91.5 43q-80 0 -152 -39q106 -150 106 -404q0 -264 -130 -415.5t-355 -151.5q-229 0 -357 152.5t-128 423zM252 528.5q0 -194.5 82 -306 t225 -111.5q141 0 224 111.5t83 299.5q0 199 -80.5 311.5t-226.5 112.5q-143 0 -225 -111.5t-82 -306z" />
<glyph unicode="&#x1a4;" horiz-adv-x="1724" d="M98 1233q0 100 62.5 180t208.5 80h792q221 0 341 -113.5t120 -324.5q0 -190 -115.5 -306t-302.5 -116h-469v-633h-190v1315h-168q-100 0 -101 -119q0 -47 28 -78t83 -31q4 0 20.5 1.5t38.5 1.5v-162q-49 -10 -96 -10q-252 0 -252 315zM735 801h398q137 0 213.5 69.5 t76.5 192.5t-76.5 192.5t-213.5 69.5h-398v-524z" />
<glyph unicode="&#x1a5;" horiz-adv-x="1138" d="M111 -446v1701q0 117 63.5 180.5t179.5 63.5q43 0 92 -10v-141q-39 2 -59 2q-119 0 -119 -109v-330q121 193 342 193q213 0 337 -158t124 -428q0 -256 -126 -410.5t-333 -154.5q-199 0 -329 160v-559h-172zM283 528.5q0 -188.5 81.5 -302t217.5 -113.5q139 0 225 113.5 t86 295.5q0 193 -85 307.5t-226 114.5q-135 0 -217 -113.5t-82 -302z" />
<glyph unicode="&#x1a6;" horiz-adv-x="1363" d="M186 0v1493h191v-246h426q213 0 336 -115.5t123 -318.5q0 -238 -177 -356q150 -88 150 -383q0 -227 88 -283v-47h-231q-41 94 -41 244v133q0 137 -60.5 201.5t-185.5 64.5h-428v-387h-191zM377 555h397q133 0 208 69.5t75 192.5t-75 192.5t-208 69.5h-397v-524z" />
<glyph unicode="&#x1a7;" horiz-adv-x="1366" d="M98 410q0 137 83 235t235 139l375 101q135 37 190 86t55 135q0 113 -91 182.5t-243 69.5q-178 0 -274 -79t-98 -224h-180q2 219 145 341t401 122q246 0 388.5 -118t142.5 -321q0 -272 -293 -348l-371 -98q-274 -72 -274 -242q0 -47 15 -89t53 -85t118 -69.5t195 -26.5 q121 0 208 31.5t131 85t63.5 108.5t19.5 119v10h180q-2 -123 -40 -217t-95.5 -150.5t-137 -92t-156.5 -49t-161 -13.5q-133 0 -238.5 30.5t-169 78t-104.5 109.5t-56.5 121t-15.5 118z" />
<glyph unicode="&#x1a8;" horiz-adv-x="1024" d="M70 293q0 119 71.5 189.5t231.5 109.5l164 39q104 25 151 60.5t47 92.5q0 74 -61.5 118t-165.5 44q-209 0 -215 -172h-180q2 158 102 244t286.5 86t299 -89t112.5 -239q0 -127 -74.5 -195.5t-265.5 -113.5l-159 -39q-88 -20 -127 -55t-39 -94q0 -76 68.5 -122t181.5 -46 q141 0 194 56t68 152h180q-12 -367 -428 -366q-203 0 -322.5 92t-119.5 248z" />
<glyph unicode="&#x1a9;" horiz-adv-x="1251" d="M57 0v168l449 580l-445 573v172h1076v-168h-840l448 -577l-448 -580h897v-168h-1137z" />
<glyph unicode="&#x1aa;" horiz-adv-x="681" d="M-37 1249.5q0 102.5 75 176t177 73.5q117 0 184.5 -69.5t67.5 -184.5v-1401q0 -80 31.5 -110.5t109.5 -30.5q6 0 41 2v-145q-31 -6 -57 -6q-295 0 -295 223v1235q-37 -14 -82 -15q-102 0 -177 75t-75 177.5zM88 1249q0 -51 38 -88t89 -37t89 37t38 86q0 53 -37 89t-90 36 q-51 0 -89 -37t-38 -86z" />
<glyph unicode="&#x1ab;" horiz-adv-x="569" d="M29 934v139h145v295h170v-295h176v-139h-176v-735q0 -57 19.5 -77t74.5 -20q51 0 82 9v-334q0 -223 -295 -223q-27 0 -57 6v145q35 -2 41 -2q78 0 108.5 30.5t30.5 110.5v111q-84 6 -129 50t-45 118v811h-145z" />
<glyph unicode="&#x1ac;" horiz-adv-x="1251" d="M0 1233q0 63 19.5 116.5t84 97.5t166.5 46h944v-168h-489v-1325h-190v1325h-89h-167q-100 0 -100.5 -119t110.5 -119q20 0 59 3v-162q-49 -10 -96 -10q-252 0 -252 315z" />
<glyph unicode="&#x1ad;" horiz-adv-x="569" d="M29 934v139h145v182q0 115 66.5 179.5t185.5 64.5q47 0 96 -10v-141q-39 2 -59 2q-119 0 -119 -109v-168h176v-139h-176v-735q0 -57 19.5 -77t74.5 -20q51 0 82 9v-144q-80 -14 -139 -14q-100 0 -153.5 44t-53.5 126v811h-145z" />
<glyph unicode="&#x1ae;" horiz-adv-x="1251" d="M43 1325v168h1171v-168h-489v-1481q0 -121 139 -120q6 0 41 2v-166q-31 -6 -57 -6q-147 0 -230 57t-83 166v1548h-492z" />
<glyph unicode="&#x1af;" horiz-adv-x="1589" d="M174 444v1049h191v-1049q0 -162 103 -242.5t277 -80.5q180 0 282.5 86t102.5 237v1049h191q49 2 72.5 13.5t23.5 47.5q0 47 -35 88l131 111q76 -88 76 -203q0 -209 -268 -227v-879q0 -225 -156.5 -358t-419.5 -133q-266 0 -418.5 132t-152.5 359z" />
<glyph unicode="&#x1b0;" horiz-adv-x="1277" d="M133 246v827h170v-760q0 -96 59.5 -153.5t161.5 -57.5q133 0 213 99.5t80 263.5v608h191q49 2 72.5 13.5t23.5 48.5q0 47 -35 88l131 110q76 -88 76 -203q0 -219 -289 -229v-901h-153v150q-76 -106 -158 -151.5t-201 -45.5q-156 0 -249 80t-93 213z" />
<glyph unicode="&#x1b1;" horiz-adv-x="1593" d="M1422 692q0 -283 -191.5 -491.5t-482.5 -208.5q-315 0 -514 198.5t-199 493.5q0 215 106.5 393t278.5 269h-360v147h561v-156q-45 -18 -105.5 -66t-130 -127t-117 -201t-47.5 -255q0 -231 145.5 -389t377.5 -158q223 0 361 164t138 389q0 203 -107.5 387.5t-264.5 255.5 v156h540v-147h-336q162 -94 254.5 -270.5t92.5 -383.5z" />
<glyph unicode="&#x1b2;" horiz-adv-x="1478" d="M174 424v1069h191v-1151q0 -66 24.5 -112t65.5 -68.5t82 -31.5t86 -9q80 0 152.5 15.5t144 55t124 102t85 162t32.5 228.5v4q0 115 -21.5 216.5t-74.5 209t-95 177t-130 202.5h221q291 -389 291 -784q0 -358 -183.5 -557t-484.5 -199q-113 0 -191.5 15.5t-157.5 60.5 t-120 144t-41 251z" />
<glyph unicode="&#x1b3;" horiz-adv-x="1478" d="M-25 1425q6 4 23 15l25 15q8 5 24 14.5t29.5 13.5t34 7t41.5 3q133 0 225 -131l354 -596l438 727h236l-576 -907v-586h-190v586l-367 594q-2 2 -19 32.5t-28.5 46t-34 32t-45.5 16.5q-51 0 -94 -43q-74 159 -76 161z" />
<glyph unicode="&#x1b4;" horiz-adv-x="1138" d="M41 1073h182l275 -835l233 657q84 221 277 221q63 0 114 -26v-154q-55 12 -90 12q-53 0 -83.5 -23.5t-53.5 -80.5l-393 -1069q-84 -221 -277 -221q-63 0 -114 26v154q55 -12 90 -13q53 0 84.5 24t52.5 81l65 174z" />
<glyph unicode="&#x1b5;" horiz-adv-x="1251" d="M57 0v168l408 526h-178v137h284l383 494h-839v168h1075v-172l-379 -490h158v-137h-264l-408 -526h897v-168h-1137z" />
<glyph unicode="&#x1b6;" horiz-adv-x="1024" d="M63 0v154l271 325h-191v137h306l256 308h-599v149h801v-151l-252 -306h170v-137h-282l-273 -329h666v-150h-873z" />
<glyph unicode="&#x1b7;" horiz-adv-x="1251" d="M66 422h180q18 -309 366 -309q166 0 274.5 78.5t108.5 211.5q0 324 -485 324v154q43 0 73.5 11t44 23.5t38.5 38.5l288 371h-839v168h1075v-172l-369 -475q61 -14 106.5 -30.5t95.5 -49.5t82 -77t53.5 -115.5t21.5 -161.5v-6q-2 -205 -161 -329t-413 -124 q-507 0 -540 469z" />
<glyph unicode="&#x1b8;" horiz-adv-x="1251" d="M66 1321v172h1075v-168h-840l289 -371q25 -27 38 -39t43.5 -23t73.5 -11v-154q-485 0 -485 -324q0 -133 108.5 -211.5t274.5 -78.5q348 0 367 309h180q-33 -469 -541 -469q-254 0 -412.5 124t-160.5 329v6q0 90 21.5 161.5t53 115.5t82 77t95.5 49t106 31z" />
<glyph unicode="&#x1b9;" horiz-adv-x="1024" d="M25 160q0 180 99 281.5t282 123.5l-293 357v151h800v-149h-598l293 -351v-153h-98q-301 0 -301 -262q0 -137 80 -214t221 -77q147 0 221 75.5t84 233.5h180q-33 -469 -479 -469q-223 0 -357 123t-134 330z" />
<glyph unicode="&#x1ba;" horiz-adv-x="1024" d="M70 -123q0 162 196 162q59 0 153.5 -16.5t110.5 -16.5q98 0 197.5 53.5t99.5 151.5q0 88 -85 148.5t-232 60.5h-98v153l293 351h-599v149h801v-151l-293 -357q375 -43 375 -344q0 -164 -130 -264t-329 -100q-41 0 -130 17t-117 17q-51 0 -52 -32q0 -57 62.5 -90 t173.5 -33q178 0 379 78l47 -142q-190 -70 -326 -82q-49 -4 -100 -4q-199 0 -298 78t-99 213z" />
<glyph unicode="&#x1bb;" horiz-adv-x="1138" d="M70 0q12 227 86.5 354t269.5 244l-170 70v157l330 -135l80 45q197 113 196 287q0 117 -82 194.5t-205 77.5q-272 0 -292 -346h-181q14 504 480 504q207 0 336 -119t129 -307q0 -252 -267 -414l178 -73v-158l-342 139l-81 -43q-133 -72 -190.5 -139.5t-72.5 -159.5h764 v-178h-966z" />
<glyph unicode="&#x1be;" horiz-adv-x="1138" d="M131 436h162q0 -139 64.5 -235.5t211.5 -96.5q129 0 203 57.5t74 176.5q0 84 -39 138t-94.5 84t-110.5 61.5t-94 94t-39 156.5v62h-145v139h145v295h170v-295h176v-139h-176v-45q0 -63 39 -109.5t94 -81t110.5 -73.5t94.5 -109t39 -166q0 -190 -123 -291.5t-313 -101.5 q-213 0 -331 127t-118 352z" />
<glyph unicode="&#x1bf;" horiz-adv-x="1138" d="M111 -446v1519h172v-164q125 121 222 159t257 38q135 0 224 -96.5t89 -255.5q0 -100 -38 -199.5t-109.5 -184.5t-144 -155t-172 -137.5t-160 -106.5t-140.5 -84q-20 -12 -28 -16v-317h-172zM283 53q72 47 96 62.5t105 74t121 95.5t104.5 103.5t97.5 121.5t59.5 127 t26.5 141q0 84 -56.5 126t-142.5 42q-213 0 -411 -209v-684z" />
<glyph unicode="&#x1c0;" horiz-adv-x="532" d="M205 -434v1927h123v-1927h-123z" />
<glyph unicode="&#x1c1;" horiz-adv-x="757" d="M430 -434v1927h123v-1927h-123zM205 -434v1927h123v-1927h-123z" />
<glyph unicode="&#x1c2;" horiz-adv-x="1196" d="M102 227v144h430v209h-430v143h430v770h123v-770h439v-143h-439v-209h439v-144h-439v-661h-123v661h-430z" />
<glyph unicode="&#x1c3;" horiz-adv-x="569" d="M254 0v213h172v-213h-172zM256 801v692h170v-692l-45 -457h-80z" />
<glyph unicode="&#x1c4;" horiz-adv-x="2684" d="M1792 1897h129l166 -197l162 197h131l-197 -308h-194zM1491 0v168l897 1157h-839v168h1075v-172l-893 -1153h897v-168h-1137zM182 0v1493h576q285 0 446.5 -198.5t161.5 -547t-163 -548t-445 -199.5h-576zM373 168h352q221 0 336 147.5t115 429.5q0 285 -115 432.5 t-336 147.5h-352v-1157z" />
<glyph unicode="&#x1c5;" horiz-adv-x="2473" d="M1669 1502h129l166 -197l162 197h131l-197 -308h-194zM1513 0v154l642 770h-599v149h801v-151l-637 -772h666v-150h-873zM182 0v1493h576q285 0 446.5 -198.5t161.5 -547t-163 -548t-445 -199.5h-576zM373 168h352q221 0 336 147.5t115 429.5q0 285 -115 432.5 t-336 147.5h-352v-1157z" />
<glyph unicode="&#x1c6;" horiz-adv-x="2162" d="M1358 1502h129l166 -197l162 197h131l-197 -308h-194zM1202 0v154l642 770h-599v149h801v-151l-637 -772h666v-150h-873zM53 539q0 256 126 410.5t335 154.5q221 0 330 -166v555h170v-1493h-152v141q-70 -100 -150.5 -144t-191.5 -44q-217 0 -342 157t-125 429zM231 528 q0 -188 86 -301.5t228 -113.5q135 0 217 112.5t82 298.5q0 193 -82 306.5t-219 113.5q-139 0 -225.5 -115t-86.5 -301z" />
<glyph unicode="&#x1c7;" horiz-adv-x="2162" d="M1174 348v131h194v-96q0 -131 57.5 -200.5t166.5 -69.5q131 0 180 86t49 243v1051h190v-1120q0 -195 -113.5 -307.5t-307.5 -112.5q-193 0 -304.5 106.5t-111.5 288.5zM164 0v1493h190v-1325h738v-168h-928z" />
<glyph unicode="&#x1c8;" horiz-adv-x="1593" d="M1102 -295q23 -2 41 -2q78 0 108.5 30.5t30.5 110.5v1229h170v-1296q0 -223 -293 -223q-27 0 -57 6v145zM1282 1278v215h170v-215h-170zM164 0v1493h190v-1325h738v-168h-928z" />
<glyph unicode="&#x1c9;" horiz-adv-x="909" d="M418 -295q23 -2 41 -2q78 0 108.5 30.5t30.5 110.5v1229h170v-1296q0 -223 -293 -223q-27 0 -57 6v145zM598 1278v215h170v-215h-170zM139 0v1493h172v-1493h-172z" />
<glyph unicode="&#x1ca;" horiz-adv-x="2371" d="M1485 348v131h194v-96q0 -131 57.5 -200.5t166.5 -69.5q131 0 180 86t49 243v1051h190v-1120q0 -195 -113.5 -307.5t-307.5 -112.5q-193 0 -304.5 106.5t-111.5 288.5zM156 0v1493h206l781 -1221v1221h180v-1493h-215l-772 1210v-1210h-180z" />
<glyph unicode="&#x1cb;" horiz-adv-x="1933" d="M1442 -295q23 -2 41 -2q78 0 108.5 30.5t30.5 110.5v1229h170v-1296q0 -223 -293 -223q-27 0 -57 6v145zM1622 1278v215h170v-215h-170zM156 0v1493h206l781 -1221v1221h180v-1493h-215l-772 1210v-1210h-180z" />
<glyph unicode="&#x1cc;" horiz-adv-x="1593" d="M1102 -295q23 -2 41 -2q78 0 108.5 30.5t30.5 110.5v1229h170v-1296q0 -223 -293 -223q-27 0 -57 6v145zM1282 1278v215h170v-215h-170zM143 0v1073h158v-180q72 113 155 162t201 49q156 0 248 -80t92 -213v-811h-170v743q0 96 -59 153.5t-162 57.5q-131 0 -211 -99 t-80 -263v-592h-172z" />
<glyph unicode="&#x1cd;" horiz-adv-x="1366" d="M395 1907h129l166 -197l162 197h131l-197 -308h-194zM35 0l532 1493h246l524 -1493h-213l-153 449h-576l-157 -449h-203zM442 608h476l-230 680z" />
<glyph unicode="&#x1ce;" horiz-adv-x="1138" d="M268 1493h129l166 -197l162 197h131l-197 -308h-194zM86 270q0 47 9 86t20.5 69t40 55.5t48 42t65.5 31.5t71 22.5t86 17.5t90 14t102 15q100 12 139.5 38.5t39.5 79.5v45q0 78 -62.5 119t-177.5 41q-119 0 -180.5 -46t-71.5 -144h-172q12 348 430 348q199 0 301.5 -75 t102.5 -218v-631q0 -84 92 -84q18 0 37 4v-129q-72 -18 -117 -18q-82 0 -124 38t-52 120q-172 -158 -365 -158q-162 0 -257 86t-95 231zM264 274.5q0 -81.5 55.5 -127t155.5 -45.5q141 0 231.5 75t90.5 161v192q-51 -25 -154.5 -41t-179.5 -28t-137.5 -58.5t-61.5 -128z" />
<glyph unicode="&#x1cf;" horiz-adv-x="569" d="M6 1907h129l166 -197l162 197h131l-197 -308h-194zM205 0v1493h192v-1493h-192z" />
<glyph unicode="&#x1d0;" horiz-adv-x="569" d="M-14 1493h129l166 -197l162 197h131l-197 -308h-194zM193 0v1073h169v-1073h-169z" />
<glyph unicode="&#x1d1;" horiz-adv-x="1593" d="M502 1907h129l166 -197l162 197h131l-197 -308h-194zM78 735q0 350 198.5 566.5t520.5 216.5q328 0 525.5 -217.5t197.5 -577.5q0 -332 -197 -551t-524 -219q-324 0 -522.5 216t-198.5 566zM268 735.5q0 -276.5 146.5 -445.5t384 -169t384 168t146.5 438 q0 283 -145.5 453t-386.5 170q-238 0 -383.5 -169t-145.5 -445.5z" />
<glyph unicode="&#x1d2;" horiz-adv-x="1138" d="M264 1493h129l166 -197l162 197h131l-197 -308h-194zM74 528.5q0 270.5 129 423t354 152.5q231 0 359 -152.5t128 -431.5q0 -264 -130 -415.5t-355 -151.5q-229 0 -357 152.5t-128 423zM252 528.5q0 -194.5 82 -306t225 -111.5q141 0 224 111.5t83 299.5 q0 199 -80.5 311.5t-226.5 112.5q-143 0 -225 -111.5t-82 -306z" />
<glyph unicode="&#x1d3;" horiz-adv-x="1478" d="M453 1907h129l166 -197l162 197h131l-197 -308h-194zM174 444v1049h191v-1049q0 -162 103 -242.5t277 -80.5q180 0 282.5 86t102.5 237v1049h191v-1049q0 -225 -156.5 -358t-419.5 -133q-266 0 -418.5 132t-152.5 359z" />
<glyph unicode="&#x1d4;" horiz-adv-x="1138" d="M266 1493h129l166 -197l162 197h131l-197 -308h-194zM133 246v827h170v-760q0 -96 59.5 -153.5t161.5 -57.5q133 0 213 99.5t80 263.5v608h170v-1073h-153v150q-76 -106 -158 -151.5t-201 -45.5q-156 0 -249 80t-93 213z" />
<glyph unicode="&#x1d5;" horiz-adv-x="1478" d="M475 1513v211h213v-211h-213zM807 1513v211h213v-211h-213zM174 444v1049h191v-1049q0 -162 103 -242.5t277 -80.5q180 0 282.5 86t102.5 237v1049h191v-1049q0 -225 -156.5 -358t-419.5 -133q-266 0 -418.5 132t-152.5 359zM467 1804v144h561v-144h-561z" />
<glyph unicode="&#x1d6;" horiz-adv-x="1138" d="M280 1497v144h561v-144h-561zM286 1198v211h213v-211h-213zM618 1198v211h213v-211h-213zM133 246v827h170v-760q0 -96 59.5 -153.5t161.5 -57.5q133 0 213 99.5t80 263.5v608h170v-1073h-153v150q-76 -106 -158 -151.5t-201 -45.5q-156 0 -249 80t-93 213z" />
<glyph unicode="&#x1d7;" horiz-adv-x="1478" d="M475 1513v211h213v-211h-213zM807 1513v211h213v-211h-213zM174 444v1049h191v-1049q0 -162 103 -242.5t277 -80.5q180 0 282.5 86t102.5 237v1049h191v-1049q0 -225 -156.5 -358t-419.5 -133q-266 0 -418.5 132t-152.5 359zM624 1744l197 304h231l-305 -304h-123z" />
<glyph unicode="&#x1d8;" horiz-adv-x="1138" d="M499 1546l197 304h231l-305 -304h-123zM286 1198v211h213v-211h-213zM618 1198v211h213v-211h-213zM133 246v827h170v-760q0 -96 59.5 -153.5t161.5 -57.5q133 0 213 99.5t80 263.5v608h170v-1073h-153v150q-76 -106 -158 -151.5t-201 -45.5q-156 0 -249 80t-93 213z" />
<glyph unicode="&#x1d9;" horiz-adv-x="1478" d="M475 1513v211h213v-211h-213zM807 1513v211h213v-211h-213zM174 444v1049h191v-1049q0 -162 103 -242.5t277 -80.5q180 0 282.5 86t102.5 237v1049h191v-1049q0 -225 -156.5 -358t-419.5 -133q-266 0 -418.5 132t-152.5 359zM453 2079h129l166 -197l162 197h131 l-197 -308h-194z" />
<glyph unicode="&#x1da;" horiz-adv-x="1138" d="M268 1854h129l166 -197l162 197h131l-197 -308h-194zM286 1198v211h213v-211h-213zM618 1198v211h213v-211h-213zM133 246v827h170v-760q0 -96 59.5 -153.5t161.5 -57.5q133 0 213 99.5t80 263.5v608h170v-1073h-153v150q-76 -106 -158 -151.5t-201 -45.5q-156 0 -249 80 t-93 213z" />
<glyph unicode="&#x1db;" horiz-adv-x="1478" d="M475 1513v211h213v-211h-213zM807 1513v211h213v-211h-213zM174 444v1049h191v-1049q0 -162 103 -242.5t277 -80.5q180 0 282.5 86t102.5 237v1049h191v-1049q0 -225 -156.5 -358t-419.5 -133q-266 0 -418.5 132t-152.5 359zM444 2048h231l197 -304h-123z" />
<glyph unicode="&#x1dc;" horiz-adv-x="1138" d="M195 1850h231l197 -304h-123zM286 1198v211h213v-211h-213zM618 1198v211h213v-211h-213zM133 246v827h170v-760q0 -96 59.5 -153.5t161.5 -57.5q133 0 213 99.5t80 263.5v608h170v-1073h-153v150q-76 -106 -158 -151.5t-201 -45.5q-156 0 -249 80t-93 213z" />
<glyph unicode="&#x1dd;" horiz-adv-x="1138" d="M1051 535q0 -264 -134 -423t-357 -159q-152 0 -267.5 76t-167.5 207q-43 113 -43 342h791q-2 147 -57 229q-88 139 -258 139q-209 0 -281 -215h-172q33 176 153.5 274.5t305.5 98.5q225 0 356 -152.5t131 -416.5zM869 439h-602q-2 -4 -2 -13q0 -133 86 -224t211 -91 q129 0 213 89t94 239z" />
<glyph unicode="&#x1de;" horiz-adv-x="1366" d="M417 1542v211h213v-211h-213zM749 1542v211h213v-211h-213zM35 0l532 1493h246l524 -1493h-213l-153 449h-576l-157 -449h-203zM442 608h476l-230 680zM405 1845v144h561v-144h-561z" />
<glyph unicode="&#x1df;" horiz-adv-x="1138" d="M278 1546v144h561v-144h-561zM290 1194v211h213v-211h-213zM622 1194v211h213v-211h-213zM86 270q0 47 9 86t20.5 69t40 55.5t48 42t65.5 31.5t71 22.5t86 17.5t90 14t102 15q100 12 139.5 38.5t39.5 79.5v45q0 78 -62.5 119t-177.5 41q-119 0 -180.5 -46t-71.5 -144 h-172q12 348 430 348q199 0 301.5 -75t102.5 -218v-631q0 -84 92 -84q18 0 37 4v-129q-72 -18 -117 -18q-82 0 -124 38t-52 120q-172 -158 -365 -158q-162 0 -257 86t-95 231zM264 274.5q0 -81.5 55.5 -127t155.5 -45.5q141 0 231.5 75t90.5 161v192q-51 -25 -154.5 -41 t-179.5 -28t-137.5 -58.5t-61.5 -128z" />
<glyph unicode="&#x1e0;" horiz-adv-x="1366" d="M584 1538v213h213v-213h-213zM35 0l532 1493h246l524 -1493h-213l-153 449h-576l-157 -449h-203zM442 608h476l-230 680zM409 1827v144h561v-144h-561z" />
<glyph unicode="&#x1e1;" horiz-adv-x="1138" d="M282 1480v144h561v-144h-561zM457 1185v213h213v-213h-213zM86 270q0 47 9 86t20.5 69t40 55.5t48 42t65.5 31.5t71 22.5t86 17.5t90 14t102 15q100 12 139.5 38.5t39.5 79.5v45q0 78 -62.5 119t-177.5 41q-119 0 -180.5 -46t-71.5 -144h-172q12 348 430 348 q199 0 301.5 -75t102.5 -218v-631q0 -84 92 -84q18 0 37 4v-129q-72 -18 -117 -18q-82 0 -124 38t-52 120q-172 -158 -365 -158q-162 0 -257 86t-95 231zM264 274.5q0 -81.5 55.5 -127t155.5 -45.5q141 0 231.5 75t90.5 161v192q-51 -25 -154.5 -41t-179.5 -28t-137.5 -58.5 t-61.5 -128z" />
<glyph unicode="&#x1e2;" horiz-adv-x="2048" d="M991 1640v144h561v-144h-561zM23 0l612 1493h1274v-168h-760v-477h721v-168h-721v-512h797v-168h-988v438h-550l-175 -438h-210zM471 606h487v719h-204z" />
<glyph unicode="&#x1e3;" horiz-adv-x="1820" d="M618 1292v144h561v-144h-561zM70 270q0 78 26.5 136.5t69.5 95.5t114.5 61.5t144.5 36.5t177.5 20.5t141 35t36.5 85.5v45q0 160 -241 160q-229 0 -250 -190h-172q12 348 426 348q262 0 358 -168q55 78 149.5 123t204.5 45q150 0 264.5 -76t168.5 -207q43 -113 43 -342 h-791q2 -106 33 -183t80 -115t99 -54t103 -16q207 0 283 215h172q-33 -174 -153.5 -273.5t-303.5 -99.5q-119 0 -215 45t-149 125q-8 12 -33 55q-115 -119 -218 -172t-224 -53q-156 0 -250 86t-94 231zM248 274q0 -80 55 -126t150 -46q143 0 235 83t92 137v206 q-61 -27 -166.5 -44t-178.5 -27.5t-130 -55.5t-57 -127zM944 618h602q0 145 -82 236.5t-213 91.5q-129 0 -213 -89t-94 -239z" />
<glyph unicode="&#x1e4;" horiz-adv-x="1593" d="M90 731q0 98 18.5 197.5t69.5 208t128 190.5t207 136.5t294 54.5q256 0 421 -125t204 -353h-195q-31 143 -146.5 226.5t-285.5 83.5q-238 0 -381 -167t-143 -442q0 -78 14 -156.5t51 -164.5t95.5 -150.5t154.5 -106.5t219 -42q143 0 256 67.5t168 184.5h-410v119h447 q8 39 8 88v41h-455v167h623v-296h109v-119h-109v-381h-121l-47 198q-213 -238 -510 -237q-303 0 -493.5 217t-190.5 561z" />
<glyph unicode="&#x1e5;" horiz-adv-x="1138" d="M59 518q0 262 126 424t331 162q201 0 328 -186v155h157v-897q0 -186 -22 -291h74v-106h-109q-47 -111 -156.5 -168t-265.5 -57q-188 0 -300.5 86t-127.5 237h174q29 -180 260 -180q145 0 224 82h-203v106h258q20 74 20 205v55q-72 -102 -148.5 -147t-176.5 -45 q-188 0 -315.5 154.5t-127.5 410.5zM238 528q0 -195 79.5 -306t219.5 -111q135 0 212.5 109.5t77.5 301.5q0 201 -76.5 312.5t-215.5 111.5q-137 0 -217 -112.5t-80 -305.5z" />
<glyph unicode="&#x1e6;" horiz-adv-x="1593" d="M514 1907h129l166 -197l162 197h131l-197 -308h-194zM90 731q0 98 18.5 197.5t69.5 208t128 190.5t207 136.5t294 54.5q256 0 421 -125t204 -353h-195q-31 143 -146.5 226.5t-285.5 83.5q-238 0 -381 -167t-143 -442q0 -78 14 -156.5t51 -164.5t95.5 -150.5t154.5 -106.5 t219 -42q205 0 337 129t132 330v41h-455v167h623v-796h-121l-47 198q-213 -238 -510 -237q-303 0 -493.5 217t-190.5 561z" />
<glyph unicode="&#x1e7;" horiz-adv-x="1138" d="M223 1493h129l166 -197l162 197h131l-197 -308h-194zM59 518q0 262 126 424t331 162q201 0 328 -186v155h157v-897q0 -154 -18 -257t-67.5 -191t-146.5 -131t-247 -43q-188 0 -300.5 86t-127.5 237h174q29 -180 260 -180q172 0 235.5 97t63.5 296v55 q-72 -102 -148.5 -147t-176.5 -45q-188 0 -315.5 154.5t-127.5 410.5zM238 528q0 -195 79.5 -306t219.5 -111q135 0 212.5 109.5t77.5 301.5q0 201 -76.5 312.5t-215.5 111.5q-137 0 -217 -112.5t-80 -305.5z" />
<glyph unicode="&#x1e8;" horiz-adv-x="1366" d="M457 1907h129l166 -197l162 197h131l-197 -308h-194zM162 0v1493h190v-756l744 756h245l-608 -608l615 -885h-226l-526 766l-244 -244v-522h-190z" />
<glyph unicode="&#x1e9;" horiz-adv-x="1024" d="M248 1809h129l166 -197l162 197h131l-197 -308h-194zM119 0v1493h170v-875l454 455h220l-373 -371l438 -702h-211l-362 582l-166 -164v-418h-170z" />
<glyph unicode="&#x1ea;" horiz-adv-x="1593" d="M78 735q0 350 198.5 566.5t520.5 216.5q328 0 525.5 -217.5t197.5 -577.5q0 -207 -80 -377t-233.5 -275.5t-358.5 -115.5q-98 -57 -134 -100t-36 -105q0 -111 147 -110q76 0 129 20v-92q-98 -20 -155 -21q-115 0 -193 53.5t-78 139.5q0 70 46.5 126t130.5 93 q-285 31 -456 241.5t-171 534.5zM268 735.5q0 -276.5 146.5 -445.5t384 -169t384 168t146.5 438q0 283 -145.5 453t-386.5 170q-238 0 -383.5 -169t-145.5 -445.5z" />
<glyph unicode="&#x1eb;" horiz-adv-x="1138" d="M74 528q0 270 129 423t354 153q231 0 359 -152.5t128 -431.5q0 -248 -115.5 -398.5t-320.5 -166.5q-98 -57 -134 -100t-36 -105q0 -111 148 -110q76 0 129 20v-92q-98 -20 -156 -21q-115 0 -192.5 53.5t-77.5 139.5q0 70 47 127t133 92q-188 31 -291.5 179t-103.5 390z M252 528.5q0 -194.5 82 -306t225 -111.5q141 0 224 111.5t83 299.5q0 199 -80.5 311.5t-226.5 112.5q-143 0 -225 -111.5t-82 -306z" />
<glyph unicode="&#x1ec;" horiz-adv-x="1593" d="M516 1599v144h561v-144h-561zM78 735q0 350 198.5 566.5t520.5 216.5q328 0 525.5 -217.5t197.5 -577.5q0 -207 -80 -377t-233.5 -275.5t-358.5 -115.5q-98 -57 -134 -100t-36 -105q0 -111 147 -110q76 0 129 20v-92q-98 -20 -155 -21q-115 0 -193 53.5t-78 139.5 q0 70 46.5 126t130.5 93q-285 31 -456 241.5t-171 534.5zM268 735.5q0 -276.5 146.5 -445.5t384 -169t384 168t146.5 438q0 283 -145.5 453t-386.5 170q-238 0 -383.5 -169t-145.5 -445.5z" />
<glyph unicode="&#x1ed;" horiz-adv-x="1138" d="M276 1186v144h561v-144h-561zM74 528q0 270 129 423t354 153q231 0 359 -152.5t128 -431.5q0 -248 -115.5 -398.5t-320.5 -166.5q-98 -57 -134 -100t-36 -105q0 -111 148 -110q76 0 129 20v-92q-98 -20 -156 -21q-115 0 -192.5 53.5t-77.5 139.5q0 70 47 127t133 92 q-188 31 -291.5 179t-103.5 390zM252 528.5q0 -194.5 82 -306t225 -111.5q141 0 224 111.5t83 299.5q0 199 -80.5 311.5t-226.5 112.5q-143 0 -225 -111.5t-82 -306z" />
<glyph unicode="&#x1ee;" horiz-adv-x="1251" d="M358 1948h129l166 -197l162 197h131l-197 -308h-194zM66 422h180q18 -309 366 -309q166 0 274.5 78.5t108.5 211.5q0 324 -485 324v154q43 0 73.5 11t44 23.5t38.5 38.5l288 371h-839v168h1075v-172l-369 -475q61 -14 106.5 -30.5t95.5 -49.5t82 -77t53.5 -115.5 t21.5 -161.5v-6q-2 -205 -161 -329t-413 -124q-507 0 -540 469z" />
<glyph unicode="&#x1ef;" horiz-adv-x="1024" d="M213 1512h129l166 -197l162 197h131l-197 -308h-194zM25 176h180q10 -158 83.5 -233.5t221.5 -75.5q141 0 221 76.5t80 214.5q0 262 -301 262h-98v153l293 351h-599v149h801v-151l-293 -357q182 -23 281.5 -124t99.5 -281q0 -207 -134 -330t-357 -123q-446 0 -479 469z " />
<glyph unicode="&#x1f0;" horiz-adv-x="454" d="M-37 -295q35 -2 41 -2q78 0 108.5 30.5t30.5 110.5v1229h170v-1296q0 -223 -293 -223q-27 0 -57 6v145zM-67 1463h129l166 -197l162 197h131l-197 -308h-194z" />
<glyph unicode="&#x1f1;" horiz-adv-x="2729" d="M1536 0v168l897 1157h-839v168h1075v-172l-893 -1153h897v-168h-1137zM182 0v1493h576q285 0 446.5 -198.5t161.5 -547t-163 -548t-445 -199.5h-576zM373 168h352q221 0 336 147.5t115 429.5q0 285 -115 432.5t-336 147.5h-352v-1157z" />
<glyph unicode="&#x1f2;" horiz-adv-x="2502" d="M1542 0v154l642 770h-599v149h801v-151l-637 -772h666v-150h-873zM182 0v1493h576q285 0 446.5 -198.5t161.5 -547t-163 -548t-445 -199.5h-576zM373 168h352q221 0 336 147.5t115 429.5q0 285 -115 432.5t-336 147.5h-352v-1157z" />
<glyph unicode="&#x1f3;" horiz-adv-x="2162" d="M1202 0v154l642 770h-599v149h801v-151l-637 -772h666v-150h-873zM53 539q0 256 126 410.5t335 154.5q221 0 330 -166v555h170v-1493h-152v141q-70 -100 -150.5 -144t-191.5 -44q-217 0 -342 157t-125 429zM231 528q0 -188 86 -301.5t228 -113.5q135 0 217 112.5 t82 298.5q0 193 -82 306.5t-219 113.5q-139 0 -225.5 -115t-86.5 -301z" />
<glyph unicode="&#x1f4;" horiz-adv-x="1593" d="M745 1599l197 304h231l-305 -304h-123zM90 731q0 98 18.5 197.5t69.5 208t128 190.5t207 136.5t294 54.5q256 0 421 -125t204 -353h-195q-31 143 -146.5 226.5t-285.5 83.5q-238 0 -381 -167t-143 -442q0 -78 14 -156.5t51 -164.5t95.5 -150.5t154.5 -106.5t219 -42 q205 0 337 129t132 330v41h-455v167h623v-796h-121l-47 198q-213 -238 -510 -237q-303 0 -493.5 217t-190.5 561z" />
<glyph unicode="&#x1f5;" horiz-adv-x="1138" d="M454 1185l197 304h231l-305 -304h-123zM59 518q0 262 126 424t331 162q201 0 328 -186v155h157v-897q0 -154 -18 -257t-67.5 -191t-146.5 -131t-247 -43q-188 0 -300.5 86t-127.5 237h174q29 -180 260 -180q172 0 235.5 97t63.5 296v55q-72 -102 -148.5 -147t-176.5 -45 q-188 0 -315.5 154.5t-127.5 410.5zM238 528q0 -195 79.5 -306t219.5 -111q135 0 212.5 109.5t77.5 301.5q0 201 -76.5 312.5t-215.5 111.5q-137 0 -217 -112.5t-80 -305.5z" />
<glyph unicode="&#x1f7;" horiz-adv-x="1290" d="M186 0v1489h195v-164q125 121 222 159t257 38q135 0 231.5 -96.5t96.5 -256.5q0 -90 -36 -183t-83 -163.5t-132 -152.5t-142.5 -129t-160 -115t-137 -87.5t-116.5 -68.5v-270h-195zM381 469q72 47 96.5 62.5t105.5 74t120.5 95t104 103t97.5 122t59.5 127t26.5 141.5 q0 68 -63.5 111t-134.5 43q-84 0 -194 -48.5t-218 -162.5v-668z" />
<glyph unicode="&#x1f8;" horiz-adv-x="1478" d="M373 1903h231l197 -304h-123zM156 0v1493h206l781 -1221v1221h180v-1493h-215l-772 1210v-1210h-180z" />
<glyph unicode="&#x1f9;" horiz-adv-x="1138" d="M205 1489h231l197 -304h-123zM143 0v1073h158v-180q72 113 155 162t201 49q156 0 248 -80t92 -213v-811h-170v743q0 96 -59 153.5t-162 57.5q-131 0 -211 -99t-80 -263v-592h-172z" />
<glyph unicode="&#x1fa;" horiz-adv-x="1366" d="M506 1411q0 72 53 125t127 53q76 0 128 -52t52 -128q0 -74 -53 -126t-127 -52t-127 53t-53 127zM596 1411q0 -37 26.5 -63.5t63.5 -26.5t63.5 26.5t26.5 61.5q0 39 -25.5 64.5t-64.5 25.5q-37 0 -63.5 -26.5t-26.5 -61.5zM35 0l532 1119.75h246l524 -1119.75h-213 l-153 336.75h-576l-157 -336.75h-203zM442 456h476l-230 510zM624 1636l197 304h231l-305 -304h-123z" />
<glyph unicode="&#x1fb;" horiz-adv-x="1138" d="M501 1626l197 304h231l-305 -304h-123zM383 1366q0 72 53 125t127 53q76 0 128 -52t52 -128q0 -74 -53 -126t-127 -52t-127 53t-53 127zM473 1366q0 -37 26.5 -63.5t63.5 -26.5t63.5 26.5t26.5 61.5q0 39 -25.5 64.5t-64.5 25.5q-37 0 -63.5 -26.5t-26.5 -61.5zM86 270 q0 47 9 86t20.5 69t40 55.5t48 42t65.5 31.5t71 22.5t86 17.5t90 14t102 15q100 12 139.5 38.5t39.5 79.5v45q0 78 -62.5 119t-177.5 41q-119 0 -180.5 -46t-71.5 -144h-172q12 348 430 348q199 0 301.5 -75t102.5 -218v-631q0 -84 92 -84q18 0 37 4v-129q-72 -18 -117 -18 q-82 0 -124 38t-52 120q-172 -158 -365 -158q-162 0 -257 86t-95 231zM264 274.5q0 -81.5 55.5 -127t155.5 -45.5q141 0 231.5 75t90.5 161v192q-51 -25 -154.5 -41t-179.5 -28t-137.5 -58.5t-61.5 -128z" />
<glyph unicode="&#x1fc;" horiz-adv-x="2048" d="M1210 1599l197 304h231l-305 -304h-123zM23 0l612 1493h1274v-168h-760v-477h721v-168h-721v-512h797v-168h-988v438h-550l-175 -438h-210zM471 606h487v719h-204z" />
<glyph unicode="&#x1fd;" horiz-adv-x="1820" d="M837 1185l197 304h231l-305 -304h-123zM70 270q0 78 26.5 136.5t69.5 95.5t114.5 61.5t144.5 36.5t177.5 20.5t141 35t36.5 85.5v45q0 160 -241 160q-229 0 -250 -190h-172q12 348 426 348q262 0 358 -168q55 78 149.5 123t204.5 45q150 0 264.5 -76t168.5 -207 q43 -113 43 -342h-791q2 -106 33 -183t80 -115t99 -54t103 -16q207 0 283 215h172q-33 -174 -153.5 -273.5t-303.5 -99.5q-119 0 -215 45t-149 125q-8 12 -33 55q-115 -119 -218 -172t-224 -53q-156 0 -250 86t-94 231zM248 274q0 -80 55 -126t150 -46q143 0 235 83t92 137 v206q-61 -27 -166.5 -44t-178.5 -27.5t-130 -55.5t-57 -127zM944 618h602q0 145 -82 236.5t-213 91.5q-129 0 -213 -89t-94 -239z" />
<glyph unicode="&#x1fe;" horiz-adv-x="1593" d="M737 1628l197 304h231l-305 -304h-123zM61 39l166 182q-156 217 -155 516q0 348 199.5 564.5t521.5 216.5q281 0 471 -166l178 194l82 -73l-183 -199q172 -217 172 -541q0 -348 -199.5 -564t-520.5 -216q-295 0 -494 184l-158 -172zM262 737q0 -213 94 -377l787 859 q-150 131 -350 131q-238 0 -384.5 -169.5t-146.5 -443.5zM422 272q152 -152 371 -151q238 0 384 169t146 443q0 233 -109 402z" />
<glyph unicode="&#x1ff;" horiz-adv-x="1251" d="M497 1185l197 304h231l-305 -304h-123zM37 -4l135 151q-98 145 -98 381q0 270 129 423t356 153q207 0 340 -133l119 133l65 -57l-129 -146q90 -150 90 -373q0 -270 -128 -422.5t-355 -152.5q-211 0 -334 127l-125 -141zM252 528q0 -139 43 -239l489 551q-84 106 -225 106 q-143 0 -225 -111.5t-82 -306.5zM342 209q88 -98 217 -98q143 0 225 111.5t82 305.5q0 135 -37 232z" />
<glyph unicode="&#x200;" horiz-adv-x="1366" d="M166 1907h232l196 -308h-122zM523 1907h231l197 -308h-123zM35 0l532 1493h246l524 -1493h-213l-153 449h-576l-157 -449h-203zM442 608h476l-230 680z" />
<glyph unicode="&#x201;" horiz-adv-x="1138" d="M28 1493h232l196 -308h-122zM385 1493h231l197 -308h-123zM86 270q0 47 9 86t20.5 69t40 55.5t48 42t65.5 31.5t71 22.5t86 17.5t90 14t102 15q100 12 139.5 38.5t39.5 79.5v45q0 78 -62.5 119t-177.5 41q-119 0 -180.5 -46t-71.5 -144h-172q12 348 430 348 q199 0 301.5 -75t102.5 -218v-631q0 -84 92 -84q18 0 37 4v-129q-72 -18 -117 -18q-82 0 -124 38t-52 120q-172 -158 -365 -158q-162 0 -257 86t-95 231zM264 274.5q0 -81.5 55.5 -127t155.5 -45.5q141 0 231.5 75t90.5 161v192q-51 -25 -154.5 -41t-179.5 -28t-137.5 -58.5 t-61.5 -128z" />
<glyph unicode="&#x202;" horiz-adv-x="1366" d="M993 1600h-121q-16 135 -188 135q-82 0 -131 -35t-55 -100h-121q23 276 311 276q74 0 135.5 -19.5t114.5 -85t55 -171.5zM35 0l532 1493h246l524 -1493h-213l-153 449h-576l-157 -449h-203zM442 608h476l-230 680z" />
<glyph unicode="&#x203;" horiz-adv-x="1138" d="M860 1186h-121q-16 135 -188 135q-82 0 -131 -35t-55 -100h-121q23 276 311 276q74 0 135.5 -19.5t114.5 -85t55 -171.5zM86 270q0 47 9 86t20.5 69t40 55.5t48 42t65.5 31.5t71 22.5t86 17.5t90 14t102 15q100 12 139.5 38.5t39.5 79.5v45q0 78 -62.5 119t-177.5 41 q-119 0 -180.5 -46t-71.5 -144h-172q12 348 430 348q199 0 301.5 -75t102.5 -218v-631q0 -84 92 -84q18 0 37 4v-129q-72 -18 -117 -18q-82 0 -124 38t-52 120q-172 -158 -365 -158q-162 0 -257 86t-95 231zM264 274.5q0 -81.5 55.5 -127t155.5 -45.5q141 0 231.5 75 t90.5 161v192q-51 -25 -154.5 -41t-179.5 -28t-137.5 -58.5t-61.5 -128z" />
<glyph unicode="&#x204;" horiz-adv-x="1366" d="M188 1907h232l196 -308h-122zM545 1907h231l197 -308h-123zM184 0v1493h1035v-168h-844v-477h813v-168h-813v-512h880v-168h-1071z" />
<glyph unicode="&#x205;" horiz-adv-x="1138" d="M34 1493h232l196 -308h-122zM391 1493h231l197 -308h-123zM82 522q0 264 134 423t357 159q152 0 267.5 -76t167.5 -207q43 -113 43 -342h-791q2 -147 57 -229q88 -139 258 -139q209 0 281 215h172q-33 -176 -153.5 -274.5t-305.5 -98.5q-225 0 -356 152.5t-131 416.5z M264 618h602q2 4 2 13q0 133 -86 224t-211 91q-129 0 -213 -89t-94 -239z" />
<glyph unicode="&#x206;" horiz-adv-x="1366" d="M1003 1600h-121q-16 135 -188 135q-82 0 -131 -35t-55 -100h-121q23 276 311 276q74 0 135.5 -19.5t114.5 -85t55 -171.5zM184 0v1493h1035v-168h-844v-477h813v-168h-813v-512h880v-168h-1071z" />
<glyph unicode="&#x207;" horiz-adv-x="1138" d="M880 1186h-121q-16 135 -188 135q-82 0 -131 -35t-55 -100h-121q23 276 311 276q74 0 135.5 -19.5t114.5 -85t55 -171.5zM82 522q0 264 134 423t357 159q152 0 267.5 -76t167.5 -207q43 -113 43 -342h-791q2 -147 57 -229q88 -139 258 -139q209 0 281 215h172 q-33 -176 -153.5 -274.5t-305.5 -98.5q-225 0 -356 152.5t-131 416.5zM264 618h602q2 4 2 13q0 133 -86 224t-211 91q-129 0 -213 -89t-94 -239z" />
<glyph unicode="&#x208;" horiz-adv-x="569" d="M-273 1907h232l196 -308h-122zM84 1907h231l197 -308h-123zM205 0v1493h192v-1493h-192z" />
<glyph unicode="&#x209;" horiz-adv-x="569" d="M-275 1493h232l196 -308h-122zM82 1493h231l197 -308h-123zM193 0v1073h169v-1073h-169z" />
<glyph unicode="&#x20a;" horiz-adv-x="569" d="M610 1600h-121q-16 135 -188 135q-82 0 -131 -35t-55 -100h-121q23 276 311 276q74 0 135.5 -19.5t114.5 -85t55 -171.5zM205 0v1493h192v-1493h-192z" />
<glyph unicode="&#x20b;" horiz-adv-x="569" d="M586 1186h-121q-16 135 -188 135q-82 0 -131 -35t-55 -100h-121q23 276 311 276q74 0 135.5 -19.5t114.5 -85t55 -171.5zM193 0v1073h169v-1073h-169z" />
<glyph unicode="&#x20c;" horiz-adv-x="1593" d="M250 1907h232l196 -308h-122zM607 1907h231l197 -308h-123zM78 735q0 350 198.5 566.5t520.5 216.5q328 0 525.5 -217.5t197.5 -577.5q0 -332 -197 -551t-524 -219q-324 0 -522.5 216t-198.5 566zM268 735.5q0 -276.5 146.5 -445.5t384 -169t384 168t146.5 438 q0 283 -145.5 453t-386.5 170q-238 0 -383.5 -169t-145.5 -445.5z" />
<glyph unicode="&#x20d;" horiz-adv-x="1138" d="M12 1493h232l196 -308h-122zM369 1493h231l197 -308h-123zM74 528.5q0 270.5 129 423t354 152.5q231 0 359 -152.5t128 -431.5q0 -264 -130 -415.5t-355 -151.5q-229 0 -357 152.5t-128 423zM252 528.5q0 -194.5 82 -306t225 -111.5q141 0 224 111.5t83 299.5 q0 199 -80.5 311.5t-226.5 112.5q-143 0 -225 -111.5t-82 -306z" />
<glyph unicode="&#x20e;" horiz-adv-x="1593" d="M1106 1600h-121q-16 135 -188 135q-82 0 -131 -35t-55 -100h-121q23 276 311 276q74 0 135.5 -19.5t114.5 -85t55 -171.5zM78 735q0 350 198.5 566.5t520.5 216.5q328 0 525.5 -217.5t197.5 -577.5q0 -332 -197 -551t-524 -219q-324 0 -522.5 216t-198.5 566zM268 735.5 q0 -276.5 146.5 -445.5t384 -169t384 168t146.5 438q0 283 -145.5 453t-386.5 170q-238 0 -383.5 -169t-145.5 -445.5z" />
<glyph unicode="&#x20f;" horiz-adv-x="1138" d="M870 1186h-121q-16 135 -188 135q-82 0 -131 -35t-55 -100h-121q23 276 311 276q74 0 135.5 -19.5t114.5 -85t55 -171.5zM74 528.5q0 270.5 129 423t354 152.5q231 0 359 -152.5t128 -431.5q0 -264 -130 -415.5t-355 -151.5q-229 0 -357 152.5t-128 423zM252 528.5 q0 -194.5 82 -306t225 -111.5q141 0 224 111.5t83 299.5q0 199 -80.5 311.5t-226.5 112.5q-143 0 -225 -111.5t-82 -306z" />
<glyph unicode="&#x210;" horiz-adv-x="1478" d="M192 1907h232l196 -308h-122zM549 1907h231l197 -308h-123zM190 0v1493h689q219 0 336.5 -103.5t117.5 -295.5q0 -127 -55 -211t-180 -146q66 -29 109.5 -67.5t63 -88t26 -92.5t6.5 -102q0 -18 -1.5 -53t-1.5 -51q0 -84 18.5 -141.5t72.5 -94.5v-47h-232q-41 94 -41 244 v133q0 137 -59.5 201.5t-186.5 64.5h-491v-643h-191zM381 811h461q152 0 222.5 61.5t70.5 194.5q0 147 -78 202.5t-215 55.5h-461v-514z" />
<glyph unicode="&#x211;" horiz-adv-x="681" d="M-146 1493h232l196 -308h-122zM211 1493h231l197 -308h-123zM141 0v1073h158v-194q74 121 142.5 173t150.5 52q23 0 65 -6v-174q-172 -4 -258 -80t-86 -287v-557h-172z" />
<glyph unicode="&#x212;" horiz-adv-x="1478" d="M1046 1614h-121q-16 135 -188 135q-82 0 -131 -35t-55 -100h-121q23 276 311 276q74 0 135.5 -19.5t114.5 -85t55 -171.5zM190 0v1493h689q219 0 336.5 -103.5t117.5 -295.5q0 -127 -55 -211t-180 -146q66 -29 109.5 -67.5t63 -88t26 -92.5t6.5 -102q0 -18 -1.5 -53 t-1.5 -51q0 -84 18.5 -141.5t72.5 -94.5v-47h-232q-41 94 -41 244v133q0 137 -59.5 201.5t-186.5 64.5h-491v-643h-191zM381 811h461q152 0 222.5 61.5t70.5 194.5q0 147 -78 202.5t-215 55.5h-461v-514z" />
<glyph unicode="&#x213;" horiz-adv-x="681" d="M708 1186h-121q-16 135 -188 135q-82 0 -131 -35t-55 -100h-121q23 276 311 276q74 0 135.5 -19.5t114.5 -85t55 -171.5zM141 0v1073h158v-194q74 121 142.5 173t150.5 52q23 0 65 -6v-174q-172 -4 -258 -80t-86 -287v-557h-172z" />
<glyph unicode="&#x214;" horiz-adv-x="1478" d="M180 1907h232l196 -308h-122zM537 1907h231l197 -308h-123zM174 444v1049h191v-1049q0 -162 103 -242.5t277 -80.5q180 0 282.5 86t102.5 237v1049h191v-1049q0 -225 -156.5 -358t-419.5 -133q-266 0 -418.5 132t-152.5 359z" />
<glyph unicode="&#x215;" horiz-adv-x="1138" d="M-27 1493h232l196 -308h-122zM330 1493h231l197 -308h-123zM133 246v827h170v-760q0 -96 59.5 -153.5t161.5 -57.5q133 0 213 99.5t80 263.5v608h170v-1073h-153v150q-76 -106 -158 -151.5t-201 -45.5q-156 0 -249 80t-93 213z" />
<glyph unicode="&#x216;" horiz-adv-x="1478" d="M1057 1600h-121q-16 135 -188 135q-82 0 -131 -35t-55 -100h-121q23 276 311 276q74 0 135.5 -19.5t114.5 -85t55 -171.5zM174 444v1049h191v-1049q0 -162 103 -242.5t277 -80.5q180 0 282.5 86t102.5 237v1049h191v-1049q0 -225 -156.5 -358t-419.5 -133 q-266 0 -418.5 132t-152.5 359z" />
<glyph unicode="&#x217;" horiz-adv-x="1138" d="M868 1186h-121q-16 135 -188 135q-82 0 -131 -35t-55 -100h-121q23 276 311 276q74 0 135.5 -19.5t114.5 -85t55 -171.5zM133 246v827h170v-760q0 -96 59.5 -153.5t161.5 -57.5q133 0 213 99.5t80 263.5v608h170v-1073h-153v150q-76 -106 -158 -151.5t-201 -45.5 q-156 0 -249 80t-93 213z" />
<glyph unicode="&#x218;" horiz-adv-x="1366" d="M98 475h181v-10q0 -63 19 -118.5t63.5 -109t131.5 -85t207 -31.5q115 0 195 26.5t118 69.5t53 85t15 89q0 170 -274 242l-371 98q-293 76 -293 348q0 203 142.5 321t388.5 118q258 0 401.5 -122t145.5 -341h-181q-2 145 -98 224t-274 79q-152 0 -243 -69.5t-91 -182.5 q0 -86 55 -135t191 -86l374 -101q152 -41 235 -139t83 -235q0 -59 -15.5 -118t-56.5 -121t-104.5 -109.5t-169 -78t-238.5 -30.5q-84 0 -160.5 13.5t-156.5 49t-137.5 92t-95.5 150.5t-40 217zM538 -614v78q72 2 97.5 41t25.5 145v37h-123v213h215v-246q0 -268 -215 -268z " />
<glyph unicode="&#x219;" horiz-adv-x="1024" d="M70 319h180q12 -96 66.5 -152t195.5 -56q113 0 181.5 46t68.5 122q0 59 -39 94t-127 55l-160 39q-190 45 -265 113.5t-75 195.5q0 150 113 239t299 89t286.5 -86t102.5 -244h-180q-6 172 -215 172q-104 0 -166 -44t-62 -118q0 -57 47.5 -93t151.5 -60l164 -39 q160 -39 231.5 -109.5t71.5 -189.5q0 -156 -120 -248t-322 -92q-416 -1 -428 366zM395 -614v78q72 2 97.5 41t25.5 145v37h-123v213h215v-246q0 -268 -215 -268z" />
<glyph unicode="&#x21a;" horiz-adv-x="1251" d="M43 1325v168h1171v-168h-489v-1325h-190v1325h-492zM520 -614v78q72 2 97.5 41t25.5 145v37h-123v213h215v-246q0 -268 -215 -268z" />
<glyph unicode="&#x21b;" horiz-adv-x="569" d="M196 -614v78q72 2 97.5 41t25.5 145v37h-123v213h215v-246q0 -268 -215 -268zM29 934v139h145v295h170v-295h176v-139h-176v-735q0 -57 19.5 -77t74.5 -20q51 0 82 9v-144q-80 -14 -139 -14q-100 0 -153.5 44t-53.5 126v811h-145z" />
<glyph unicode="&#x21c;" horiz-adv-x="1067" d="M66 983q10 469 454 469q207 0 325 -106.5t118 -292.5q0 -100 -50.5 -181t-107.5 -114q201 -100 201 -352q0 -233 -277 -386q-150 -82 -553 -208q-37 -10 -53 -17l-45 178q127 33 294 100.5t308 162t141 167.5q0 63 -11 105.5t-42 70t-48.5 37t-66.5 31.5 q-131 -70 -317 -127l-41 154q252 102 328 151q156 98 155 222q0 115 -68.5 181t-187.5 66q-156 0 -214 -85t-62 -226h-180z" />
<glyph unicode="&#x21d;" horiz-adv-x="804" d="M29 737q0 164 100 268.5t262 104.5q156 0 254 -90t98 -229q0 -82 -34.5 -141.5t-77.5 -84.5q143 -72 143 -262q0 -63 -23.5 -116.5t-78 -98.5t-105.5 -76.5t-145 -68.5t-153.5 -57.5t-174.5 -57.5l-35 152q23 6 59 15t128 42t162.5 67.5t129 89t58.5 109.5q0 63 -18.5 95 t-77.5 71q-94 -51 -246 -96l-35 141q199 80 254 121q90 66 90 149q0 166 -170 166q-80 0 -134 -57t-54 -156h-176z" />
<glyph unicode="&#x21e;" horiz-adv-x="1478" d="M451 1907h129l166 -197l162 197h131l-197 -308h-194zM170 0v1493h190v-645h768v645h191v-1493h-191v680h-768v-680h-190z" />
<glyph unicode="&#x21f;" horiz-adv-x="1138" d="M313 1809h129l166 -197l162 197h131l-197 -308h-194zM143 0v1493h170v-567q76 98 153 138t191 40q156 0 247 -79t91 -214v-811h-170v743q0 113 -68.5 162t-152.5 49q-131 0 -211 -99t-80 -263v-592h-170z" />
<glyph unicode="&#x224;" horiz-adv-x="1251" d="M57 0v168l897 1157h-839v168h1075v-172l-893 -1153h897v-387q0 -223 -295 -223q-27 0 -57 6v145q35 -2 41 -2q78 0 108.5 31t30.5 110v152h-965z" />
<glyph unicode="&#x225;" horiz-adv-x="1024" d="M63 0v154l642 770h-599v149h801v-151l-637 -772h666v-369q0 -223 -295 -223q-27 0 -57 6v145q35 -2 41 -2q78 0 108.5 31t30.5 110v152h-701z" />
<glyph unicode="&#x226;" horiz-adv-x="1366" d="M584 1599v213h213v-213h-213zM35 0l532 1493h246l524 -1493h-213l-153 449h-576l-157 -449h-203zM442 608h476l-230 680z" />
<glyph unicode="&#x227;" horiz-adv-x="1138" d="M457 1185v213h213v-213h-213zM86 270q0 47 9 86t20.5 69t40 55.5t48 42t65.5 31.5t71 22.5t86 17.5t90 14t102 15q100 12 139.5 38.5t39.5 79.5v45q0 78 -62.5 119t-177.5 41q-119 0 -180.5 -46t-71.5 -144h-172q12 348 430 348q199 0 301.5 -75t102.5 -218v-631 q0 -84 92 -84q18 0 37 4v-129q-72 -18 -117 -18q-82 0 -124 38t-52 120q-172 -158 -365 -158q-162 0 -257 86t-95 231zM264 274.5q0 -81.5 55.5 -127t155.5 -45.5q141 0 231.5 75t90.5 161v192q-51 -25 -154.5 -41t-179.5 -28t-137.5 -58.5t-61.5 -128z" />
<glyph unicode="&#x228;" horiz-adv-x="1366" d="M184 0v1493h1035v-168h-844v-477h813v-168h-813v-512h880v-168h-501l-41 -100q27 4 57 4q78 0 120 -36t42 -101q0 -88 -67.5 -139.5t-184.5 -51.5q-96 0 -256 70l43 82q18 -8 52 -24.5t51.5 -24t44 -13.5t53.5 -6q47 0 78.5 26.5t31.5 65.5q0 76 -94 76q-31 0 -63 -16 l-25 14l80 174h-492z" />
<glyph unicode="&#x229;" horiz-adv-x="1138" d="M82 522q0 264 134 423t357 159q152 0 267.5 -76t167.5 -207q43 -113 43 -342h-791q2 -147 57 -229q88 -139 258 -139q209 0 281 215h172q-31 -168 -142.5 -265.5t-283.5 -107.5l-41 -100q27 4 57 4q78 0 120 -36t42 -102q0 -88 -67.5 -139t-184.5 -51q-96 0 -256 70 l43 82q18 -8 52 -24.5t51.5 -24t44 -13.5t53.5 -6q47 0 79 26.5t32 65.5q0 76 -95 76q-31 0 -63 -17l-25 15l80 176q-207 14 -324.5 165.5t-117.5 401.5zM264 618h602q2 4 2 13q0 133 -86 224t-211 91q-129 0 -213 -89t-94 -239z" />
<glyph unicode="&#x22a;" horiz-adv-x="1593" d="M518 1904v144h561v-144h-561zM524 1597v211h213v-211h-213zM856 1597v211h213v-211h-213zM78 735q0 350 198.5 566.5t520.5 216.5q328 0 525.5 -217.5t197.5 -577.5q0 -332 -197 -551t-524 -219q-324 0 -522.5 216t-198.5 566zM268 735.5q0 -276.5 146.5 -445.5t384 -169 t384 168t146.5 438q0 283 -145.5 453t-386.5 170q-238 0 -383.5 -169t-145.5 -445.5z" />
<glyph unicode="&#x22b;" horiz-adv-x="1138" d="M278 1546v144h561v-144h-561zM284 1198v211h213v-211h-213zM616 1198v211h213v-211h-213zM74 528.5q0 270.5 129 423t354 152.5q231 0 359 -152.5t128 -431.5q0 -264 -130 -415.5t-355 -151.5q-229 0 -357 152.5t-128 423zM252 528.5q0 -194.5 82 -306t225 -111.5 q141 0 224 111.5t83 299.5q0 199 -80.5 311.5t-226.5 112.5q-143 0 -225 -111.5t-82 -306z" />
<glyph unicode="&#x22c;" horiz-adv-x="1593" d="M530 1900v144h561v-144h-561zM475 1595q16 100 62.5 155.5t113.5 55.5q51 0 141.5 -37.5t131.5 -37.5q51 0 76 75h118q-31 -213 -182 -213q-41 0 -143.5 39t-130.5 39q-47 0 -68 -76h-119zM78 735q0 350 198.5 566.5t520.5 216.5q328 0 525.5 -217.5t197.5 -577.5 q0 -332 -197 -551t-524 -219q-324 0 -522.5 216t-198.5 566zM268 735.5q0 -276.5 146.5 -445.5t384 -169t384 168t146.5 438q0 283 -145.5 453t-386.5 170q-238 0 -383.5 -169t-145.5 -445.5z" />
<glyph unicode="&#x22d;" horiz-adv-x="1138" d="M290 1550v144h561v-144h-561zM235 1198q16 100 62.5 155.5t113.5 55.5q51 0 141.5 -37.5t131.5 -37.5q51 0 76 75h118q-31 -213 -182 -213q-41 0 -143.5 39t-130.5 39q-47 0 -68 -76h-119zM74 528.5q0 270.5 129 423t354 152.5q231 0 359 -152.5t128 -431.5 q0 -264 -130 -415.5t-355 -151.5q-229 0 -357 152.5t-128 423zM252 528.5q0 -194.5 82 -306t225 -111.5q141 0 224 111.5t83 299.5q0 199 -80.5 311.5t-226.5 112.5q-143 0 -225 -111.5t-82 -306z" />
<glyph unicode="&#x22e;" horiz-adv-x="1593" d="M691 1599v213h213v-213h-213zM78 735q0 350 198.5 566.5t520.5 216.5q328 0 525.5 -217.5t197.5 -577.5q0 -332 -197 -551t-524 -219q-324 0 -522.5 216t-198.5 566zM268 735.5q0 -276.5 146.5 -445.5t384 -169t384 168t146.5 438q0 283 -145.5 453t-386.5 170 q-238 0 -383.5 -169t-145.5 -445.5z" />
<glyph unicode="&#x22f;" horiz-adv-x="1138" d="M451 1185v213h213v-213h-213zM74 528.5q0 270.5 129 423t354 152.5q231 0 359 -152.5t128 -431.5q0 -264 -130 -415.5t-355 -151.5q-229 0 -357 152.5t-128 423zM252 528.5q0 -194.5 82 -306t225 -111.5q141 0 224 111.5t83 299.5q0 199 -80.5 311.5t-226.5 112.5 q-143 0 -225 -111.5t-82 -306z" />
<glyph unicode="&#x230;" horiz-adv-x="1593" d="M516 1894v144h561v-144h-561zM691 1599v213h213v-213h-213zM78 735q0 350 198.5 566.5t520.5 216.5q328 0 525.5 -217.5t197.5 -577.5q0 -332 -197 -551t-524 -219q-324 0 -522.5 216t-198.5 566zM268 735.5q0 -276.5 146.5 -445.5t384 -169t384 168t146.5 438 q0 283 -145.5 453t-386.5 170q-238 0 -383.5 -169t-145.5 -445.5z" />
<glyph unicode="&#x231;" horiz-adv-x="1138" d="M276 1480v144h561v-144h-561zM451 1185v213h213v-213h-213zM74 528.5q0 270.5 129 423t354 152.5q231 0 359 -152.5t128 -431.5q0 -264 -130 -415.5t-355 -151.5q-229 0 -357 152.5t-128 423zM252 528.5q0 -194.5 82 -306t225 -111.5q141 0 224 111.5t83 299.5 q0 199 -80.5 311.5t-226.5 112.5q-143 0 -225 -111.5t-82 -306z" />
<glyph unicode="&#x232;" horiz-adv-x="1366" d="M409 1599v144h561v-144h-561zM27 1493h235l438 -727l426 727h228l-561 -907v-586h-191v586z" />
<glyph unicode="&#x233;" horiz-adv-x="1024" d="M229 1186v144h561v-144h-561zM41 1073h182l275 -835l297 835h184l-477 -1298q-84 -221 -277 -221q-63 0 -114 26v154q55 -12 90 -13q53 0 83.5 24t53.5 81l65 170z" />
<glyph unicode="&#x237;" horiz-adv-x="454" d="M-37 -295q35 -2 41 -2q78 0 108.5 30.5t30.5 110.5v1229h170v-1296q0 -223 -293 -223q-27 0 -57 6v145z" />
<glyph unicode="&#x250;" horiz-adv-x="1138" d="M1096 787q0 -47 -9 -86t-20.5 -69t-40 -55.5t-48 -42t-65.5 -31.5t-71 -22.5t-86 -17.5t-90 -14t-102 -15q-100 -12 -139.5 -38.5t-39.5 -79.5v-45q0 -78 62.5 -119t177.5 -41q119 0 180.5 46t71.5 144h172q-12 -348 -430 -348q-199 0 -301.5 75t-102.5 218v631 q0 84 -92 84q-18 0 -37 -4v129q72 18 117 18q82 0 124 -38t52 -120q172 158 365 158q162 0 257 -86t95 -231zM918 782.5q0 81.5 -55.5 127t-155.5 45.5q-141 0 -231.5 -75t-90.5 -161v-192q51 25 154.5 41t179.5 28t137.5 58.5t61.5 128z" />
<glyph unicode="&#x251;" horiz-adv-x="1138" d="M53 528q0 250 115 412t336 162q184 0 319 -164v135h170v-893q0 -84 92 -84q18 0 37 4v-129q-72 -18 -116 -18q-82 0 -126 38t-55 126q-78 -74 -153.5 -109t-194.5 -37q-154 0 -289 157.5t-135 399.5zM231 535q0 -166 87.5 -289t224.5 -123q131 0 200.5 122t69.5 294 q0 178 -81 302t-224 124q-129 0 -203 -130t-74 -300z" />
<glyph unicode="&#x252;" horiz-adv-x="1138" d="M1080 545q0 -250 -115 -412t-336 -162q-184 0 -319 164v-135h-170v893q0 84 -92 84q-18 0 -37 -4v129q72 18 116 18q82 0 126 -38t55 -126q78 74 153.5 109t194.5 37q154 0 289 -157.5t135 -399.5zM902 538q0 166 -87.5 289t-224.5 123q-131 0 -200.5 -122t-69.5 -294 q0 -178 81 -302t224 -124q129 0 203 130t74 300z" />
<glyph unicode="&#x253;" horiz-adv-x="1138" d="M111 0v1255q0 115 66.5 179.5t184.5 64.5q47 0 97 -10v-141q-39 2 -60 2q-119 0 -118 -109v-313q117 176 331 176q213 0 336 -151.5t123 -411.5q0 -266 -127 -427t-340 -161q-219 0 -340 184v-137h-153zM281 528.5q0 -188.5 81.5 -302t217.5 -113.5q139 0 226 113.5 t87 295.5q0 193 -85 307.5t-228 114.5q-135 0 -217 -113.5t-82 -302z" />
<glyph unicode="&#x254;" horiz-adv-x="1024" d="M977 539q0 -266 -130.5 -426t-347.5 -160q-186 0 -297.5 100.5t-126.5 290.5h172q16 -113 82 -173t172 -60q139 0 218 113.5t79 314.5q0 190 -79.5 298.5t-221.5 108.5q-219 0 -262 -258h-172q16 197 131 306.5t307 109.5q219 0 347.5 -152.5t128.5 -412.5z" />
<glyph unicode="&#x255;" horiz-adv-x="1024" d="M23 37l139 110q-98 150 -99 371q0 266 130.5 426t347.5 160q186 0 297.5 -100.5t126.5 -290.5h-172q-16 113 -82 173t-172 60q-139 0 -218 -113.5t-79 -314.5q0 -160 55 -258q178 147 223 172q61 35 146 35q49 0 93 -10.5t90 -37t73.5 -82.5t27.5 -136q0 -98 -93 -173 t-316 -75q-160 0 -275 84q-98 -86 -145 -123zM397 150q59 -39 144 -39q115 0 184.5 26.5t69.5 71.5q-4 35 -10.5 53.5t-32 31.5t-72.5 13q-93 1 -283 -157z" />
<glyph unicode="&#x256;" horiz-adv-x="1138" d="M53 539q0 256 126 410.5t335 154.5q221 0 330 -166v555h170v-1649q0 -78 34.5 -109.5t114.5 -31.5q6 0 41 2v-145q-31 -6 -57 -6q-285 0 -285 223v364q-70 -100 -150.5 -144t-191.5 -44q-217 0 -342 157t-125 429zM231 528q0 -188 86 -301.5t228 -113.5q135 0 217 112.5 t82 298.5q0 193 -82 306.5t-219 113.5q-139 0 -225.5 -115t-86.5 -301z" />
<glyph unicode="&#x257;" horiz-adv-x="1138" d="M53 539q0 256 126 410.5t335 154.5q221 0 330 -166v317q0 115 66.5 179.5t185.5 64.5q47 0 96 -10v-141q-39 2 -59 2q-119 0 -119 -109v-1241h-152v141q-70 -100 -150.5 -144t-191.5 -44q-217 0 -342 157t-125 429zM231 528q0 -188 86 -301.5t228 -113.5q135 0 217 112.5 t82 298.5q0 193 -82 306.5t-219 113.5q-139 0 -225.5 -115t-86.5 -301z" />
<glyph unicode="&#x258;" horiz-adv-x="1138" d="M82 479q0 229 43 342q51 131 167 207t267 76q223 0 357.5 -159t134.5 -423t-131.5 -416.5t-356.5 -152.5q-184 0 -305 98.5t-154 274.5h172q72 -215 281 -215q170 0 258 139q55 82 57 229h-790zM264 631q0 -8 2 -13h602q-10 150 -94 239t-213 89q-125 0 -211 -91 t-86 -224z" />
<glyph unicode="&#x259;" horiz-adv-x="1138" d="M1051 535q0 -264 -134 -423t-357 -159q-152 0 -267.5 76t-167.5 207q-43 113 -43 342h791q-2 147 -57 229q-88 139 -258 139q-209 0 -281 -215h-172q33 176 153.5 274.5t305.5 98.5q225 0 356 -152.5t131 -416.5zM869 439h-602q-2 -4 -2 -13q0 -133 86 -224t211 -91 q129 0 213 89t94 239z" />
<glyph unicode="&#x25a;" horiz-adv-x="1646" d="M82 578h790q-2 147 -57 229q-88 139 -258 139q-209 0 -281 -215h-172q33 176 154 274.5t305 98.5q205 0 334 -127l182 190h142q23 -57 62.5 -200.5t72.5 -229.5t63 -86q14 0 28.5 4t25 9.5t22.5 16.5t19.5 18.5t19.5 24.5t16 24.5t17.5 29t17.5 27.5v-234 q-92 -92 -178 -92q-162 0 -287 529q0 -4 -141 -146q72 -135 72 -327q0 -264 -134.5 -423t-357.5 -159q-152 0 -267.5 75.5t-166.5 207.5q-43 113 -43 342zM264 426q0 -133 86 -224t211 -91q129 0 213 89t94 238h-602q-2 -4 -2 -12z" />
<glyph unicode="&#x25b;" horiz-adv-x="1024" d="M70 293q0 176 176 254q-133 76 -133 229q0 150 112.5 239t299 89t286.5 -86t102 -244h-180q-6 172 -215 172q-104 0 -165.5 -44t-61.5 -118q0 -68 50 -122t148 -54h127v-155h-151q-88 0 -148.5 -55.5t-60.5 -118.5q0 -76 65.5 -122t176.5 -46q141 0 194 56t68 152h180 q-12 -367 -428 -366q-203 0 -322.5 92t-119.5 248z" />
<glyph unicode="&#x25c;" horiz-adv-x="1021" d="M74 319h180q12 -96 66.5 -152t195.5 -56q111 0 176.5 46t65.5 122q0 63 -60.5 118.5t-148.5 55.5h-152v155h127q98 0 148.5 54.5t50.5 121.5q0 74 -61.5 118t-165.5 44q-209 0 -215 -172h-181q2 158 102.5 244t287 86t299 -89t112.5 -239q0 -154 -133 -229 q176 -78 176 -254q0 -156 -119.5 -248t-322.5 -92q-416 -1 -428 366z" />
<glyph unicode="&#x25d;" horiz-adv-x="1519" d="M70 319h180q12 -96 66.5 -152t195.5 -56q111 0 176.5 46t65.5 122q0 63 -60.5 118.5t-148.5 55.5h-152v155h127q98 0 148.5 54.5t50.5 121.5q0 74 -61.5 118t-165.5 44q-209 0 -216 -172h-180q2 158 102.5 244t286.5 86q197 0 310 -98l174 161h141q20 -55 61 -199.5 t75 -230.5t67 -86q20 0 37.5 7.5t29 14.5t27.5 27.5t22.5 29.5t23.5 38t22 37v-234q-92 -92 -179 -92q-51 0 -94 41t-77.5 126t-57.5 155.5t-53 189.5q-2 10 -4 17q0 -4 -127 -131q14 -47 14 -101q0 -154 -133 -229q176 -78 176 -254q0 -156 -120 -248t-322 -92 q-416 -1 -428 366z" />
<glyph unicode="&#x25e;" horiz-adv-x="1024" d="M70 545v8q2 279 101 415t349 136q188 0 303 -89t115 -239q0 -82 -32 -136t-101 -93q90 -41 133 -101.5t43 -152.5q0 -156 -116.5 -248t-319.5 -92q-248 0 -361.5 135t-113.5 457zM252 528q0 -223 72.5 -320t234.5 -97q111 0 173.5 46t62.5 122q0 63 -60.5 118.5 t-148.5 55.5h-109v155h84q98 0 148.5 54.5t50.5 121.5q0 74 -64.5 118t-169.5 44q-145 0 -209.5 -91t-64.5 -327z" />
<glyph unicode="&#x25f;" horiz-adv-x="454" d="M-37 -295q35 -2 41 -2q78 0 108.5 30.5t30.5 110.5v648h-159v147h159v434h170v-434h158v-147h-158v-715q0 -223 -293 -223q-27 0 -57 6v145z" />
<glyph unicode="&#x260;" horiz-adv-x="1138" d="M59 518q0 262 126 424t331 162q201 0 328 -186v169q0 117 61.5 180.5t177.5 63.5q47 0 97 -10v-141q-39 2 -60 2q-61 0 -90 -24.5t-29 -84.5v-897q0 -154 -18 -257t-67.5 -191t-146.5 -131t-247 -43q-188 0 -300.5 86t-127.5 237h174q29 -180 260 -180q172 0 235.5 96 t63.5 297v55q-72 -102 -148.5 -147t-176.5 -45q-188 0 -315.5 154.5t-127.5 410.5zM238 528q0 -195 79.5 -306t219.5 -111q135 0 212.5 109.5t77.5 301.5q0 201 -76.5 312.5t-215.5 111.5q-137 0 -217 -112.5t-80 -305.5z" />
<glyph unicode="&#x261;" horiz-adv-x="1138" d="M59 518q0 262 126 424t331 162q201 0 324 -182q6 72 43 118.5t100.5 46.5t124.5 -22l-29 -147q-23 6 -32 6q-45 0 -46 -76v-672q0 -154 -18 -257t-67.5 -191t-146.5 -131t-247 -43q-188 0 -300.5 86t-127.5 237h174q29 -180 260 -180q172 0 235.5 97t63.5 296v55 q-72 -102 -148.5 -147t-176.5 -45q-188 0 -315.5 154.5t-127.5 410.5zM238 528q0 -195 79.5 -306t219.5 -111q135 0 212.5 109.5t77.5 301.5q0 201 -76.5 312.5t-215.5 111.5q-137 0 -217 -112.5t-80 -305.5z" />
<glyph unicode="&#x262;" horiz-adv-x="1118" d="M63 522q0 72 14.5 145.5t51.5 154.5t94.5 141.5t153.5 100.5t217 40q190 0 311 -92t152 -260h-176q-23 104 -91.5 149t-197.5 45q-174 0 -262 -109.5t-88 -314.5q0 -199 78.5 -307.5t279.5 -108.5q94 0 192.5 87.5t98.5 222.5v30h-281v125h461v-589h-90l-35 147 q-156 -176 -377 -176q-225 0 -365.5 157.5t-140.5 411.5z" />
<glyph unicode="&#x263;" horiz-adv-x="1024" d="M35 1073h184l293 -684l293 684h184l-307 -717l-78 -196q106 -283 107 -365q0 -143 -56.5 -204.5t-134.5 -61.5t-127 44t-64.5 97.5t-15.5 114.5q0 96 107 377l-78 194zM485 -231q0 -29 7.5 -46.5t12.5 -20.5t9 -3q29 0 29 72q0 41 -31 137q-27 -82 -27 -139z" />
<glyph unicode="&#x264;" horiz-adv-x="1138" d="M25 682q8 172 108 300t203 128q106 0 225 -129q121 129 230 129q127 0 225 -147.5t98 -280.5h-156q0 59 -51 163.5t-108 104.5q-23 0 -64 -31.5t-71 -68.5q88 -131 149 -280.5t61 -225.5q0 -111 -27.5 -191.5t-73.5 -122.5t-93 -60.5t-98 -18.5q-125 0 -221.5 92 t-96.5 301q0 84 57.5 232.5t141.5 277.5q-76 94 -123 94t-100.5 -91t-59.5 -175h-155zM422 342q0 -129 46 -181t105 -52q55 0 89 39.5t44.5 90t10.5 109.5q0 47 -45 152.5t-109 210.5q-141 -224 -141 -369z" />
<glyph unicode="&#x265;" horiz-adv-x="1138" d="M996 1073v-1493h-170v567q-76 -98 -153 -138t-191 -40q-156 0 -247 79t-91 214v811h170v-743q0 -113 68.5 -162t152.5 -49q131 0 211 99t80 263v592h170z" />
<glyph unicode="&#x266;" horiz-adv-x="1138" d="M143 0v1255q0 115 66.5 179.5t185.5 64.5q47 0 97 -10v-141q-43 4 -60 4q-119 0 -119 -111v-315q76 98 153 138t191 40q156 0 247 -79t91 -214v-811h-170v743q0 113 -68.5 162t-152.5 49q-131 0 -211 -99t-80 -263v-592h-170z" />
<glyph unicode="&#x267;" horiz-adv-x="1138" d="M143 0v1255q0 115 66.5 179.5t185.5 64.5q47 0 97 -10v-141q-39 2 -60 2q-119 0 -119 -109v-315q76 98 153 138t191 40q156 0 247 -79t91 -214v-1034q0 -223 -293 -223q-27 0 -57 6v145q35 -2 41 -2q78 0 108.5 30.5t30.5 110.5v899q0 113 -68.5 162t-152.5 49 q-131 0 -211 -99t-80 -263v-592h-170z" />
<glyph unicode="&#x268;" horiz-adv-x="454" d="M-16 492v147h153v434h170v-434h164v-147h-164v-492h-170v492h-153zM135 1278v215h172v-215h-172z" />
<glyph unicode="&#x269;" horiz-adv-x="454" d="M135 123v950h170v-874q0 -57 19.5 -77t74.5 -20q51 0 82 9v-144q-80 -14 -139 -14q-100 0 -153.5 44t-53.5 126z" />
<glyph unicode="&#x26a;" horiz-adv-x="569" d="M25 0v147h168v779h-168v147h487v-147h-150v-779h150v-147h-487z" />
<glyph unicode="&#x26b;" horiz-adv-x="968" d="M41 600q8 143 64.5 220t156.5 77q53 0 109 -31v627h172v-729l36 -22q26 -15 34 -19t25 -14.5t27.5 -12.5t23.5 -5t26 -3q61 0 82.5 38t21.5 116h109q0 -293 -215 -293q-80 0 -166 53l-4 2v-604h-172v715q-70 45 -113 45q-96 0 -108 -160h-109z" />
<glyph unicode="&#x26c;" horiz-adv-x="874" d="M41 803q0 39 15.5 78t47 75.5t96 61t150.5 29.5v446h172v-764h312v-158h-312v-571h-172v571q-309 1 -309 232zM199 811q0 -82 151 -82v168q-82 0 -116.5 -25.5t-34.5 -60.5z" />
<glyph unicode="&#x26d;" horiz-adv-x="454" d="M139 -223v1716h172v-1649q0 -80 31 -110.5t109 -30.5q6 0 41 2v-145q-31 -6 -58 -6q-295 0 -295 223z" />
<glyph unicode="&#x26e;" horiz-adv-x="1251" d="M139 0v1493h172v-420h801v-151l-293 -357q182 -23 281.5 -124t99.5 -281q0 -207 -134 -330t-357 -123q-305 0 -414 211l149 94q31 -49 52.5 -74.5t78 -48t140.5 -22.5q141 0 221 76.5t80 214.5q0 264 -301 264q-47 -2 -76 -2h-23v153l293 351h-598v-924h-172z" />
<glyph unicode="&#x26f;" horiz-adv-x="1705" d="M1561 1073v-1073h-158v151q-70 -96 -146.5 -139t-183.5 -43q-199 0 -289 164q-76 -90 -149.5 -127t-179.5 -37q-150 0 -231 77t-81 222v805h172v-739q0 -102 52.5 -158.5t146.5 -56.5q104 0 178 81.5t74 198.5v674h172v-739q0 -102 52 -158.5t147 -56.5q104 0 178 81.5 t74 198.5v674h172z" />
<glyph unicode="&#x270;" horiz-adv-x="1705" d="M143 268v805h172v-739q0 -102 52.5 -158.5t146.5 -56.5q104 0 178 82t74 198v674h172v-739q0 -102 52 -158.5t147 -56.5q104 0 178 82t74 198v674h172v-1483h-158v562q-70 -96 -146.5 -139.5t-183.5 -43.5q-199 0 -289 164q-76 -90 -149.5 -127t-179.5 -37 q-150 0 -231 77t-81 222z" />
<glyph unicode="&#x271;" horiz-adv-x="1705" d="M143 0v1073h158v-151q70 96 146.5 139t183.5 43q199 0 289 -164q76 90 149.5 127t179.5 37q150 0 231 -77t81 -222v-1028q0 -223 -295 -223q-27 0 -58 6v145q35 -2 41 -2q78 0 109 30.5t31 110.5v895q0 102 -52.5 158.5t-146.5 56.5q-104 0 -178 -81.5t-74 -198.5v-674 h-172v739q0 102 -52 158.5t-147 56.5q-104 0 -178 -81.5t-74 -198.5v-674h-172z" />
<glyph unicode="&#x272;" horiz-adv-x="1138" d="M-37 -295q35 -2 41 -2q78 0 108.5 30.5t30.5 110.5v1229h158v-180q72 113 155 162t201 49q156 0 248 -80t92 -213v-811h-170v743q0 96 -59 153.5t-162 57.5q-131 0 -211 -99t-80 -263v-815q0 -223 -295 -223q-27 0 -57 6v145z" />
<glyph unicode="&#x273;" horiz-adv-x="1138" d="M143 0v1073h158v-180q72 113 155 162t201 49q156 0 248 -80t92 -213l2 -967q0 -80 31 -110.5t109 -30.5q6 0 41 2v-145q-31 -6 -58 -6q-295 0 -295 223v966q0 96 -59 153.5t-162 57.5q-131 0 -211 -99t-80 -263v-592h-172z" />
<glyph unicode="&#x274;" horiz-adv-x="1161" d="M143 0v1073h222l481 -846v846h172v-1073h-223l-482 846v-846h-170z" />
<glyph unicode="&#x275;" horiz-adv-x="1138" d="M74 528.5q0 270.5 129 423t354 152.5q231 0 359 -152.5t128 -431.5q0 -264 -130 -415.5t-355 -151.5q-229 0 -357 152.5t-128 423zM254 594h610q-16 168 -95 260t-210 92t-211 -93t-94 -259zM256 451q16 -160 96 -250t207 -90t207 90t96 250h-606z" />
<glyph unicode="&#x276;" horiz-adv-x="1593" d="M74 528.5q0 270.5 129 423t354 152.5q160 0 274 -76v45h676v-153h-503v-291h434v-156h-434v-317h512v-156h-685v31q-113 -78 -272 -78q-229 0 -357 152.5t-128 423zM252 528.5q0 -194.5 82 -306t225 -111.5q195 0 272 200v434q-74 201 -272 201q-143 0 -225 -111.5 t-82 -306z" />
<glyph unicode="&#x277;" horiz-adv-x="1478" d="M55 494q0 84 14.5 159.5t59.5 162.5t117.5 149.5t199.5 103.5t293 41t292 -40t199 -102.5t118 -147.5t60 -162.5t15 -163.5q0 -143 -36.5 -250t-98 -160t-124 -77.5t-130.5 -24.5q-197 0 -295 184q-94 -184 -295 -184q-193 0 -291 147.5t-98 364.5zM227 481 q0 -150 52.5 -251t171.5 -101q113 0 157.5 58.5t44.5 125.5v457h172v-457q0 -70 48.5 -127t152.5 -57q82 0 135 54.5t71.5 128t18.5 169.5q0 119 -29.5 205t-75.5 136t-117 79t-137.5 38t-152.5 9q-266 0 -389 -115.5t-123 -351.5z" />
<glyph unicode="&#x278;" horiz-adv-x="1517" d="M117 537q0 240 139 396.5t426 156.5v368h180v-368q250 0 407.5 -155t157.5 -403q0 -115 -29.5 -211t-94 -174.5t-177 -122.5t-264.5 -44v-390h-180v390q-250 0 -407.5 154.5t-157.5 402.5zM289 535q0 -170 99 -280t294 -110v779q-201 0 -297 -113.5t-96 -275.5zM862 145 q207 0 300 107.5t93 282.5q0 170 -97 279.5t-296 109.5v-779z" />
<glyph unicode="&#x279;" horiz-adv-x="681" d="M658 1073v-1073h-158v194q-74 -121 -142.5 -173t-150.5 -52q-23 0 -65 6v174q172 4 258 80t86 287v557h172z" />
<glyph unicode="&#x27a;" horiz-adv-x="681" d="M141 -25v175q172 4 258 79.5t86 286.5v977h172v-1493h-157v195q-74 -121 -142.5 -173.5t-150.5 -52.5q-23 0 -66 6z" />
<glyph unicode="&#x27b;" horiz-adv-x="681" d="M141 -25v175q172 4 258 79.5t86 286.5v557h172v-1229q0 -80 31 -110.5t109 -30.5q25 0 41 2v-145q-31 -6 -58 -6q-281 0 -280 223v418q-74 -121 -142.5 -173.5t-150.5 -52.5q-23 0 -66 6z" />
<glyph unicode="&#x27c;" horiz-adv-x="681" d="M141 -410v1483h158v-194q74 121 142.5 173t150.5 52q23 0 65 -6v-174q-172 -4 -258 -80t-86 -287v-967h-172z" />
<glyph unicode="&#x27d;" horiz-adv-x="681" d="M141 -223v1296h158v-194q74 121 142.5 173t150.5 52q23 0 65 -6v-174q-172 -4 -258 -80t-86 -287v-713q0 -80 31 -110.5t109 -30.5q6 0 41 2v-145q-31 -6 -58 -6q-295 0 -295 223z" />
<glyph unicode="&#x27e;" horiz-adv-x="786" d="M172 0v881q0 223 295 223t295 -223v-68h-172q0 76 -26.5 107.5t-96.5 33.5q-70 -2 -96.5 -33.5t-26.5 -107.5v-813h-172z" />
<glyph unicode="&#x27f;" horiz-adv-x="755" d="M141 813v68q0 223 295 223t295 -223v-881h-172v813q0 76 -26.5 107.5t-96.5 33.5q-70 -2 -96.5 -33.5t-26.5 -107.5h-172z" />
<glyph unicode="&#x280;" horiz-adv-x="1118" d="M111 0v1073h507q90 0 156 -30.5t99.5 -80t48 -97.5t14.5 -97q0 -147 -84 -225t-221 -90l420 -453h-211l-416 446h-141v-446h-172zM283 602h280q186 0 187 143v13q0 74 -50.5 118t-136.5 44h-280v-318z" />
<glyph unicode="&#x281;" horiz-adv-x="1118" d="M1050 1073l-420 -453q137 -12 221.5 -90t84.5 -225q0 -49 -14.5 -97t-48.5 -97.5t-99.5 -80t-155.5 -30.5h-508v1073h172v-446h142l415 446h211zM749 328q0 143 -186 143h-281v-318h281q86 0 136 44.5t50 117.5v13z" />
<glyph unicode="&#x282;" horiz-adv-x="1024" d="M70 -219v538h180q12 -96 66.5 -152t195.5 -56q113 0 181.5 46t68.5 122q0 59 -39 94t-127 55l-160 39q-190 45 -265 113.5t-75 195.5q0 150 113 239t299 89t286.5 -86t102.5 -244h-180q-6 172 -215 172q-104 0 -166 -44t-62 -118q0 -57 47.5 -93t151.5 -60l164 -39 q160 -39 231.5 -109.5t71.5 -189.5q0 -156 -120 -248t-322 -92q-160 0 -256 51v-156q0 -80 30.5 -110.5t108.5 -30.5q6 0 41 2v-145q-31 -6 -57 -6q-295 0 -295 223z" />
<glyph unicode="&#x283;" horiz-adv-x="569" d="M16 -295q35 -2 41 -2q78 0 110 30.5t32 110.5v1411q0 115 66.5 179.5t185.5 64.5q47 0 96 -10v-141q-39 2 -60 2q-119 0 -118 -109v-1464q0 -223 -295 -223q-27 0 -58 6v145z" />
<glyph unicode="&#x284;" horiz-adv-x="569" d="M0 -295q35 -2 41 -2q78 0 108.5 30.5t30.5 110.5v656h-143v139h143v616q0 115 66.5 179.5t185.5 64.5q47 0 96 -10v-141q-39 2 -59 2q-119 0 -119 -109v-602h178v-139h-178v-723q0 -223 -293 -223q-27 0 -57 6v145z" />
<glyph unicode="&#x285;" horiz-adv-x="569" d="M16 952v142q49 10 97 10q119 0 185.5 -64.5t66.5 -179.5v-1016q0 -80 31.5 -110.5t109.5 -30.5q6 0 41 2v-145q-31 -6 -58 -6q-295 0 -294 223v1069q0 109 -119 108q-21 0 -60 -2z" />
<glyph unicode="&#x286;" horiz-adv-x="909" d="M12 -203q0 86 48.5 140.5t105.5 72t123 17.5q104 0 205 -27v1255q0 115 66.5 179.5t184.5 64.5q47 0 97 -10v-141q-39 2 -60 2q-119 0 -118 -109v-1292q70 -20 239 -84l-53 -148q-41 14 -186 66q0 -229 -320 -229q-176 0 -254 74.5t-78 168.5zM170 -211q0 -35 36 -60.5 t118 -25.5q98 0 134 33t36 98q-123 33 -193 33q-72 0 -101.5 -23.5t-29.5 -54.5z" />
<glyph unicode="&#x287;" horiz-adv-x="569" d="M520 436v-139h-145v-295h-170v295h-176v139h176v735q0 57 -19.5 77t-74.5 20q-51 0 -82 -9v144q80 14 139 14q100 0 153.5 -44t53.5 -126v-811h145z" />
<glyph unicode="&#x288;" horiz-adv-x="569" d="M29 934v139h145v295h170v-295h176v-139h-176v-1135q0 -57 19.5 -76.5t74.5 -19.5q51 0 82 8v-143q-80 -14 -139 -14q-100 0 -153.5 44t-53.5 126v1210h-145z" />
<glyph unicode="&#x289;" horiz-adv-x="1138" d="M-16 492v147h149v434h170v-434h514v434h170v-434h160v-147h-160v-492h-153v150q-76 -106 -158 -151.5t-201 -45.5q-156 0 -249 80t-93 213v246h-149zM303 313q0 -96 59.5 -153.5t161.5 -57.5q133 0 213 99.5t80 263.5v27h-514v-179z" />
<glyph unicode="&#x28a;" horiz-adv-x="1282" d="M70 510q0 121 64.5 249t164.5 206h-225v149h434v-158q-147 -104 -201.5 -223t-54.5 -213q0 -41 18.5 -102.5t56.5 -136t117.5 -127t186.5 -52.5q90 0 160.5 36t110.5 86t65.5 112.5t34 107.5t8.5 76q0 94 -54.5 213t-201.5 223v158h434v-149h-225q100 -78 164.5 -206 t64.5 -249q0 -39 -14.5 -100.5t-54.5 -143.5t-100 -149.5t-162.5 -115.5t-229.5 -48q-133 0 -237.5 48t-163 115.5t-97.5 150.5t-51 142.5t-12 100.5z" />
<glyph unicode="&#x28b;" horiz-adv-x="1103" d="M135 123v950h170v-874q0 -96 150 -97q92 0 163.5 36t110.5 86t63.5 112.5t33 106.5t8.5 77q0 94 -54.5 213t-201.5 223l208 9q100 -78 165 -206t65 -249q0 -39 -14.5 -100.5t-54.5 -143.5t-100.5 -149.5t-162.5 -115.5t-229 -48h-113q-100 0 -153.5 44t-53.5 126z" />
<glyph unicode="&#x28c;" horiz-adv-x="1024" d="M996 0h-193l-287 870l-303 -870h-192l411 1073h187z" />
<glyph unicode="&#x28d;" horiz-adv-x="1478" d="M1450 0h-189l-219 835l-205 -835h-209l-210 835l-213 -835h-193l315 1073h195l217 -842l207 842h192z" />
<glyph unicode="&#x28e;" horiz-adv-x="1024" d="M979 0h-182l-275 835l-297 -835h-184l477 1298q84 221 277 221q63 0 114 -26v-154q-55 12 -90 13q-53 0 -83.5 -24t-53.5 -81l-65 -170z" />
<glyph unicode="&#x28f;" horiz-adv-x="1138" d="M66 1073h198l305 -504l297 504h195l-408 -659v-414h-170v414z" />
<glyph unicode="&#x290;" horiz-adv-x="1024" d="M63 0v154l642 770h-599v149h801v-151l-637 -772h666v-302q0 -80 30.5 -110.5t108.5 -30.5q6 0 41 2v-145q-31 -6 -57 -6q-295 0 -295 223v219h-701z" />
<glyph unicode="&#x291;" horiz-adv-x="1024" d="M63 0v154l642 770h-599v149h801v-151l-637 -772h234v59q0 92 67.5 155.5t173.5 63.5q88 0 162 -54.5t74 -178.5q0 -111 -85 -153t-245 -42v-197h-147v197h-441zM651 150h21q78 0 112.5 7t40.5 17t6 39q0 66 -88 66q-49 0 -70.5 -21.5t-21.5 -48.5v-59z" />
<glyph unicode="&#x292;" horiz-adv-x="1024" d="M25 176h180q10 -158 83.5 -233.5t221.5 -75.5q141 0 221 76.5t80 214.5q0 262 -301 262h-98v153l293 351h-599v149h801v-151l-293 -357q182 -23 281.5 -124t99.5 -281q0 -207 -134 -330t-357 -123q-446 0 -479 469z" />
<glyph unicode="&#x293;" horiz-adv-x="1130" d="M106 924v149h801v-151l-293 -357q182 -23 281.5 -124t99.5 -281q0 -49 -8 -97q68 -23 103 -34l-54 -148q-29 10 -104 35q-59 -96 -172 -147.5t-262 -51.5q-84 0 -145.5 25t-93.5 63.5t-46 77.5t-14 78q0 86 48 140.5t105.5 71.5t122.5 17q29 0 54.5 -1t54 -6t44 -7 t48.5 -11t41 -12t48 -15.5t44 -14.5q2 16 2 35q0 262 -301 262h-98v153l293 351h-599zM356 -47q0 -35 36 -60.5t118 -25.5q92 0 165 37t95 73q-141 53 -283 54q-72 0 -101.5 -23.5t-29.5 -54.5z" />
<glyph unicode="&#x294;" horiz-adv-x="1138" d="M96 983q10 469 455 469q207 0 324.5 -106.5t117.5 -292.5q0 -117 -68.5 -221.5t-183.5 -133.5q-53 -14 -116 -22v-676h-172v819q195 4 275.5 49t80.5 179q0 115 -68.5 181t-187.5 66q-156 0 -214 -85t-63 -226h-180z" />
<glyph unicode="&#x295;" horiz-adv-x="1138" d="M96 1053q0 186 118 292.5t325 106.5q444 0 454 -469h-180q-4 152 -66.5 231.5t-209.5 79.5q-119 0 -187.5 -66.5t-68.5 -180.5q0 -133 80.5 -178.5t275.5 -49.5v-819h-172v676q-63 8 -117 22q-115 29 -183.5 133.5t-68.5 221.5z" />
<glyph unicode="&#x296;" horiz-adv-x="1138" d="M994 469q-10 -469 -455 -469q-207 0 -324.5 106.5t-117.5 292.5q0 117 68.5 221.5t183.5 133.5q53 14 116 22v676h172v-819q-195 -4 -275.5 -49t-80.5 -179q0 -115 68.5 -181t187.5 -66q156 0 214 85t63 226h180z" />
<glyph unicode="&#x297;" horiz-adv-x="1478" d="M98 338v391q0 102 17.5 202.5t66.5 209t122 189.5t197 134.5t279 53.5q487 0 576 -488h-195q-33 160 -129 240t-274 80q-217 0 -343 -166t-126 -453v-391q0 -279 131 -443.5t354 -164.5q184 0 282.5 103.5t133.5 320.5h196q-68 -592 -614 -592q-154 0 -275.5 52 t-194.5 132t-121 186.5t-65.5 205t-17.5 198.5z" />
<glyph unicode="&#x298;" horiz-adv-x="1593" d="M78 735q0 350 198.5 566.5t520.5 216.5q328 0 525.5 -217.5t197.5 -577.5q0 -332 -197 -551t-524 -219q-324 0 -522.5 216t-198.5 566zM268 735.5q0 -276.5 146.5 -445.5t384 -169t384 168t146.5 438q0 283 -145.5 453t-386.5 170q-238 0 -383.5 -169t-145.5 -445.5z M690 1079v213h213v-213h-213z" />
<glyph unicode="&#x299;" horiz-adv-x="1036" d="M143 0v1073h449q168 0 239.5 -82t71.5 -188q0 -166 -141 -236q102 -41 149 -102.5t47 -157.5q0 -133 -86 -220t-231 -87h-498zM315 156h271q86 0 136 44t50 117v13q0 143 -186 143h-271v-317zM315 629h201q121 0 168 42t47 99q0 59 -47 104.5t-168 45.5h-201v-291z" />
<glyph unicode="&#x29a;" horiz-adv-x="1024" d="M70 293q0 176 176 254q-133 76 -133 229q0 150 114.5 239t302.5 89q258 0 354.5 -127t96.5 -440q0 -319 -112.5 -451.5t-362.5 -132.5q-203 0 -319.5 92t-116.5 248zM256 279q0 -76 62.5 -122t173.5 -46q162 0 234.5 97t72.5 320q0 236 -64.5 327t-210.5 91 q-104 0 -168.5 -44t-64.5 -118q0 -68 50 -122t148 -54h84v-155h-108q-88 0 -148.5 -55.5t-60.5 -118.5z" />
<glyph unicode="&#x29b;" horiz-adv-x="1118" d="M63 522q0 72 14.5 145.5t51.5 154.5t94.5 141.5t153.5 100.5t217 40q203 0 324 -103q61 113 221 113q47 0 96 -10v-141q-39 2 -59 2q-119 0 -119 -109v-104h-176q-23 104 -91.5 149t-197.5 45q-174 0 -262 -109.5t-88 -314.5q0 -199 78.5 -307.5t279.5 -108.5 q94 0 192.5 87.5t98.5 222.5v30h-281v125h461v-589h-90l-35 147q-156 -176 -377 -176q-225 0 -365.5 157.5t-140.5 411.5z" />
<glyph unicode="&#x29c;" horiz-adv-x="1142" d="M143 0v1073h172v-440h512v440h172v-1073h-172v477h-512v-477h-172z" />
<glyph unicode="&#x29d;" horiz-adv-x="909" d="M12 -203q0 86 48.5 140.5t105.5 72t123 17.5q104 0 205 -27v1073h170v-1124q70 -20 239 -84l-53 -148q-41 14 -186 66q0 -229 -320 -229q-176 0 -254 74.5t-78 168.5zM170 -211q0 -35 36 -60.5t118 -25.5q98 0 134 33t36 98q-123 33 -193 33q-72 0 -101.5 -23.5 t-29.5 -54.5zM494 1278v215h170v-215h-170z" />
<glyph unicode="&#x29e;" horiz-adv-x="1024" d="M1028 1081v-1493h-170v875l-454 -455h-220l373 371l-438 702h211l362 -582l166 164v418h170z" />
<glyph unicode="&#x29f;" horiz-adv-x="880" d="M143 0v1073h172v-917h463v-156h-635z" />
<glyph unicode="&#x2a0;" horiz-adv-x="1138" d="M53 516q0 266 127 427t340 161q211 0 336 -166v149q0 117 61.5 180.5t178.5 63.5q47 0 96 -10v-141q-39 2 -59 2q-61 0 -90 -24.5t-29 -84.5v-1519h-170v569q-117 -170 -332 -170q-213 0 -336 151.5t-123 411.5zM231 528q0 -188 86 -301.5t228 -113.5q135 0 217 112.5 t82 296.5q0 193 -81 307.5t-218 114.5q-141 0 -227.5 -115t-86.5 -301z" />
<glyph unicode="&#x2a1;" horiz-adv-x="1138" d="M96 983q10 469 455 469q207 0 324.5 -106.5t117.5 -292.5q0 -117 -68.5 -221.5t-183.5 -133.5q-53 -14 -116 -22v-37h223v-147h-223v-492h-172v492h-215v147h215v180q195 4 275.5 49t80.5 179q0 115 -68.5 181t-187.5 66q-156 0 -214 -85t-63 -226h-180z" />
<glyph unicode="&#x2a2;" horiz-adv-x="1138" d="M96 1053q0 186 118 292.5t325 106.5q444 0 454 -469h-180q-4 152 -66.5 231.5t-209.5 79.5q-119 0 -187.5 -66.5t-68.5 -180.5q0 -133 80.5 -178.5t275.5 -49.5v-180h215v-147h-215v-492h-172v492h-223v147h223v37q-63 8 -117 22q-115 29 -183.5 133.5t-68.5 221.5z" />
<glyph unicode="&#x2a3;" horiz-adv-x="1933" d="M53 539q0 256 126 410.5t335 154.5q221 0 330 -166v555h170v-420h794v-151l-637 -772h666v-150h-975v141q-70 -100 -150.5 -144t-191.5 -44q-217 0 -342 157t-125 429zM231 528q0 -188 86 -301.5t228 -113.5q135 0 217 112.5t82 298.5q0 193 -82 306.5t-219 113.5 q-139 0 -225.5 -115t-86.5 -301zM1014 213l592 711h-592v-711z" />
<glyph unicode="&#x2a4;" horiz-adv-x="1933" d="M53 539q0 256 126 410.5t335 154.5q221 0 330 -166v555h170v-420h794v-151l-292 -357q182 -23 281 -124t99 -281q0 -207 -134 -330t-357 -123q-305 0 -414 211l150 94q31 -49 52 -74.5t77.5 -48t140.5 -22.5q141 0 221 76.5t80 214.5q0 264 -301 264q-47 -2 -76 -2h-22 v153l293 351h-592v-924h-152v141q-70 -100 -150.5 -144t-191.5 -44q-217 0 -342 157t-125 429zM231 528q0 -188 86 -301.5t228 -113.5q135 0 217 112.5t82 298.5q0 193 -82 306.5t-219 113.5q-139 0 -225.5 -115t-86.5 -301z" />
<glyph unicode="&#x2a5;" horiz-adv-x="1933" d="M53 539q0 256 126 410.5t335 154.5q221 0 330 -166v555h170v-420h798v-151l-636 -772h233v59q0 92 67.5 155.5t174.5 63.5q88 0 161.5 -54.5t73.5 -178.5q0 -111 -85 -153t-245 -42v-197h-147v197h-547v141q-70 -100 -150.5 -144t-191.5 -44q-217 0 -342 157t-125 429z M231 528q0 -188 86 -301.5t228 -113.5q135 0 217 112.5t82 298.5q0 193 -82 306.5t-219 113.5q-139 0 -225.5 -115t-86.5 -301zM1014 207l596 717h-596v-717zM1556 150h21q78 0 112.5 7t41 17t6.5 39q0 66 -88 66q-49 0 -71 -21.5t-22 -48.5v-59z" />
<glyph unicode="&#x2a6;" horiz-adv-x="1411" d="M29 934v139h145v295h170v-295h176v-139h-176v-727q0 -59 17.5 -77.5t76.5 -18.5h504q102 0 176 47t74 121q0 59 -39 94t-127 55l-160 39q-190 45 -265 113.5t-75 195.5q0 150 113 239t299 89t286.5 -86t102.5 -244h-180q-6 172 -215 172q-104 0 -165.5 -44t-61.5 -118 q0 -57 47 -93t151 -60l164 -39q160 -39 231.5 -109.5t71.5 -189.5q0 -156 -121 -248t-321 -92h-547q-98 0 -152.5 44t-54.5 126v811h-145z" />
<glyph unicode="&#x2a7;" horiz-adv-x="1036" d="M23 934v139h145v295h170v-295h328v182q0 115 66.5 179.5t185.5 64.5q47 0 96 -10v-141q-39 2 -60 2q-119 0 -118 -109v-1464q0 -223 -295 -223q-27 0 -58 6v145q35 -2 41 -2q78 0 110 30.5t32 110.5v138q-236 -29 -291 -29q-100 0 -153.5 44t-53.5 126v811h-145zM338 199 q0 -57 19.5 -77t74.5 -20q41 0 234 23v809h-328v-735z" />
<glyph unicode="&#x2a8;" horiz-adv-x="1564" d="M29 934v139h145v295h170v-295h176v-139h-176v-735q0 -57 19.5 -77t74.5 -20q23 0 221 58q-94 143 -94 358q0 266 130 426t347 160q186 0 298 -100.5t126 -290.5h-172q-16 113 -81.5 173t-172.5 60q-139 0 -218 -113.5t-79 -314.5q0 -190 80 -298.5t224 -108.5v59 q0 92 67.5 155.5t173.5 63.5q88 0 162 -54t74 -179q0 -111 -85 -153t-245 -42v-197h-147v197q-164 0 -283 86q-27 -6 -118 -30.5t-170 -44t-95 -19.5q-100 0 -153.5 44t-53.5 126v811h-145zM1194 111h20q113 0 136.5 12t23.5 51q0 66 -88 66q-49 0 -70.5 -21.5t-21.5 -48.5 v-59z" />
<glyph unicode="&#x2a9;" horiz-adv-x="1568" d="M37 934v139h143v182q0 115 66.5 179.5t185.5 64.5q47 0 96 -10v-141q-39 2 -59 2q-119 0 -119 -109v-168h459v-180q72 113 155 162t201 49q156 0 248 -80t92 -213l2 -995q0 -109 -75.5 -166.5t-219.5 -57.5q-27 0 -57 7v145q35 -2 41 -2q78 0 108.5 30.5t30.5 110.5v860 q0 96 -59 153.5t-162 57.5q-131 0 -211 -99t-80 -263v-592h-172v934h-301v-934h-170v934h-143z" />
<glyph unicode="&#x2aa;" horiz-adv-x="1351" d="M139 0v1493h172v-1196q88 -78 252 -132t307 -54q113 0 181.5 46t68.5 122q0 59 -39 93t-127 56l-159 39q-190 47 -265 114.5t-75 194.5q0 150 112.5 239t299 89t286.5 -86t102 -244h-180q-6 172 -215 172q-104 0 -165.5 -44t-61.5 -118q0 -57 47 -93t151 -60l164 -39 q160 -39 231.5 -109.5t71.5 -189.5q0 -156 -119.5 -248t-322.5 -92q-287 0 -545 149v-102h-172z" />
<glyph unicode="&#x2ab;" horiz-adv-x="1181" d="M139 0v1493h172v-420h801v-151l-637 -772h666v-150h-1002zM311 205l598 719h-598v-719z" />
<glyph unicode="&#x2ac;" horiz-adv-x="1085" d="M93.7998 1494.41h122.843l142.342 -542.72l133.243 542.72h135.842l136.492 -542.72l138.442 542.72h125.443l-204.739 -697.411h-126.742l-141.042 547.27l-134.543 -547.27h-124.793zM93.7998 697.411h122.843l142.342 -542.72l133.243 542.72h135.842l136.492 -542.72 l138.442 542.72h125.443l-204.739 -697.411h-126.742l-141.042 547.27l-134.543 -547.27h-124.793z" />
<glyph unicode="&#x2ad;" horiz-adv-x="995" d="M61 244v280h873v-280h-143v137h-586v-137h-144zM61 981v281h873v-281h-143v137h-586v-137h-144z" />
<glyph unicode="&#x2ae;" horiz-adv-x="1157" d="M31 1348v145q31 6 57 6q293 0 293 -223v-967q0 -113 68.5 -162t152.5 -49q131 0 211 99.5t80 263.5v592h170v-1459h-170v533q-76 -98 -152.5 -138t-191.5 -40q-156 0 -247 78.5t-91 214.5v966q0 80 -30.5 111t-108.5 31q-6 0 -41 -2z" />
<glyph unicode="&#x2af;" horiz-adv-x="1271" d="M31 1348v145q31 6 57 6q293 0 293 -223v-967q0 -113 68.5 -162t152.5 -49q131 0 211 99.5t80 263.5v592h170v-1241q0 -109 119 -109q20 0 59 2v-141q-49 -10 -96 -10q-119 0 -185.5 64.5t-66.5 178.5v330q-76 -98 -152.5 -138t-191.5 -40q-156 0 -247 78.5t-91 214.5v966 q0 80 -30.5 111t-108.5 31q-6 0 -41 -2z" />
<glyph unicode="&#x2b0;" horiz-adv-x="681" d="M65.9443 815v970.396h110.494v-368.529q49.3975 63.6963 99.4443 89.6943q50.0469 25.999 124.144 25.999q101.394 0 160.54 -51.3467q59.1475 -51.3477 59.1475 -139.093v-527.12h-110.494v482.923q0 73.4463 -44.5225 105.294q-44.5225 31.8486 -99.1191 31.8486 q-85.1455 0 -137.143 -64.3467t-51.9971 -170.94v-384.778h-110.494z" />
<glyph unicode="&#x2b1;" horiz-adv-x="681" d="M65.9443 815v815.704q0 74.7461 43.2227 116.668q43.2227 41.9229 120.568 41.9229q30.5488 0 63.0469 -6.49902v-91.6455q-27.9482 2.59961 -38.998 2.59961q-77.3457 0 -77.3457 -72.1455v-204.738q49.3975 63.6963 99.4443 89.6943q50.0469 25.999 124.144 25.999 q101.394 0 160.54 -51.3467q59.1475 -51.3477 59.1475 -139.093v-527.12h-110.494v482.923q0 73.4463 -44.5225 105.294q-44.5225 31.8486 -99.1191 31.8486q-85.1455 0 -137.143 -64.3467t-51.9971 -170.94v-384.778h-110.494z" />
<glyph unicode="&#x2b2;" horiz-adv-x="342" d="M27 555v94q14 -2 26 -2q51 0 70.5 20.5t19.5 71.5v799h111v-842q0 -145 -191 -145q-16 0 -36 4zM143 1671v139h111v-139h-111z" />
<glyph unicode="&#x2b3;" horiz-adv-x="483" d="M77.6445 825v697.411h102.694v-126.094q48.0977 78.6455 92.6201 112.444q44.5225 33.7979 97.8193 33.7979q14.9492 0 42.248 -3.89941v-113.094q-111.794 -2.59961 -167.691 -51.9971q-55.8965 -49.3975 -55.8965 -186.54v-362.029h-111.794z" />
<glyph unicode="&#x2b4;" horiz-adv-x="483" d="M397.347 1544v-697.477h-102.704v126.105q-48.1016 -78.6533 -92.6279 -112.455q-44.5273 -33.8008 -97.8291 -33.8008q-14.9502 0 -42.252 3.90039v113.104q111.805 2.60059 167.707 52.002q55.9014 49.4023 55.9014 186.558v362.063h111.805z" />
<glyph unicode="&#x2b5;" horiz-adv-x="565" d="M53 815v113q113 2 169.5 51t56.5 186v363h110v-799q0 -51 20.5 -71.5t69.5 -20.5q16 0 29 2v-94q-20 -4 -39 -4q-182 0 -182 145v270q-47 -78 -91 -111.5t-100 -33.5q-14 0 -43 4z" />
<glyph unicode="&#x2b6;" horiz-adv-x="735" d="M694.149 1518l-273.011 -294.461q89.0537 -7.80078 143.98 -58.502q54.9277 -50.7021 54.9277 -146.256q0 -31.8516 -9.42578 -63.0527t-31.5264 -63.377t-64.6768 -52.002q-42.5771 -19.8262 -101.079 -19.8262h-330.213v697.477h111.805v-289.911h92.3037 l269.76 289.911h137.155zM498.492 1033.73q0 92.9541 -120.904 92.9541h-182.657v-206.708h182.657q55.9014 0 88.4023 28.9258q32.502 28.9268 32.502 76.3779v8.4502z" />
<glyph unicode="&#x2b7;" horiz-adv-x="1024" d="M44.7998 1543.41h122.843l142.342 -542.72l133.243 542.72h135.842l136.492 -542.72l138.442 542.72h125.443l-204.739 -697.411h-126.742l-141.042 547.27l-134.543 -547.27h-124.793z" />
<glyph unicode="&#x2b8;" horiz-adv-x="675" d="M34.6484 1465.41h118.293l178.74 -542.72l193.039 542.72h119.594l-310.033 -843.653q-54.5967 -143.642 -180.039 -143.642q-40.9482 0 -74.0967 16.8994v100.094q35.748 -7.79883 58.4971 -8.44922q34.4482 0 54.2725 15.5996q19.8232 15.5986 34.7725 52.6465 l42.248 110.494z" />
<glyph unicode="&#x2b9;" horiz-adv-x="569" d="M100 932l74 291l115 243l174 -82l-115 -241l-174 -246z" />
<glyph unicode="&#x2ba;" horiz-adv-x="929" d="M526 932l74 291l115 243l174 -82l-115 -241l-174 -246zM100 932l74 291l115 243l174 -82l-115 -241l-174 -246z" />
<glyph unicode="&#x2bb;" horiz-adv-x="569" d="M178 1030v246q0 268 215 268v-78q-72 -2 -97.5 -41t-25.5 -145v-37h123v-213h-215z" />
<glyph unicode="&#x2bc;" horiz-adv-x="569" d="M178 936v78q72 2 97.5 41t25.5 145v37h-123v213h215v-246q0 -268 -215 -268z" />
<glyph unicode="&#x2bd;" horiz-adv-x="569" d="M178 1204v246h215v-213h-123v-37q0 -106 26 -145t97 -41v-78q-215 0 -215 268z" />
<glyph unicode="&#x2be;" horiz-adv-x="681" d="M485 1364q0 -72 -53 -125t-127 -53v90q37 0 63.5 26.5t26.5 61.5q0 37 -26.5 63.5t-63.5 26.5v90q74 0 127 -53t53 -127z" />
<glyph unicode="&#x2bf;" horiz-adv-x="681" d="M162 1366q0 72 53 125t127 53v-90q-37 0 -63.5 -26.5t-26.5 -61.5q0 -37 26.5 -63.5t63.5 -26.5v-90q-74 0 -127 53t-53 127z" />
<glyph unicode="&#x2c0;" horiz-adv-x="681" d="M49 1260q4 152 79 228.5t216 76.5q135 0 212 -69t77 -191q0 -76 -45 -143.5t-119 -86.5q-35 -10 -76 -14v-240h-112v332q127 2 179 31.5t52 115.5q0 76 -44 119t-122 43q-102 0 -140 -55t-40 -147h-117z" />
<glyph unicode="&#x2c1;" horiz-adv-x="681" d="M49 1305q0 123 77 191.5t212 68.5q141 0 216 -77t79 -228h-117q-2 98 -43 150t-137 52q-78 0 -122 -43t-44 -119q0 -86 52 -115.5t179 -31.5v-332h-112v240q-41 4 -76 14q-74 18 -119 86t-45 144z" />
<glyph unicode="&#x2c2;" horiz-adv-x="681" d="M59 1296v60l564 178v-68l-455 -139l455 -141v-70z" />
<glyph unicode="&#x2c3;" horiz-adv-x="681" d="M621 1356v-60l-564 -178v68l455 139l-455 141v70z" />
<glyph unicode="&#x2c4;" horiz-adv-x="681" d="M104 1178l203 358h68l203 -358h-78l-158 288l-160 -288h-78z" />
<glyph unicode="&#x2c5;" horiz-adv-x="681" d="M578 1536l-203 -358h-68l-203 358h78l158 -288l160 288h78z" />
<glyph unicode="&#x2c6;" horiz-adv-x="681" d="M41 1210l197 308h194l197 -308h-129l-166 197l-162 -197h-131z" />
<glyph unicode="&#x2c7;" horiz-adv-x="681" d="M39 1518h129l166 -197l162 197h131l-197 -308h-194z" />
<glyph unicode="&#x2c8;" horiz-adv-x="681" d="M266 1204v404h148v-404h-148z" />
<glyph unicode="&#x2c9;" horiz-adv-x="681" d="M57 1292v144h561v-144h-561z" />
<glyph unicode="&#x2ca;" horiz-adv-x="681" d="M188 1212l197 304h231l-305 -304h-123z" />
<glyph unicode="&#x2cb;" horiz-adv-x="681" d="M45 1516h231l197 -304h-123z" />
<glyph unicode="&#x2cc;" horiz-adv-x="557" d="M205 -127h147v-403h-147v403z" />
<glyph unicode="&#x2cd;" horiz-adv-x="681" d="M59 -287v144h561v-144h-561z" />
<glyph unicode="&#x2ce;" horiz-adv-x="681" d="M170 -108h231l197 -304h-123z" />
<glyph unicode="&#x2cf;" horiz-adv-x="681" d="M71 -412l197 304h231l-305 -304h-123z" />
<glyph unicode="&#x2d0;" horiz-adv-x="681" d="M469 0h-258l129 233zM211 1118h258l-129 -233z" />
<glyph unicode="&#x2d1;" horiz-adv-x="681" d="M211 1118h258l-129 -233z" />
<glyph unicode="&#x2d2;" horiz-adv-x="681" d="M430 176q0 -72 -53 -125t-127 -53v90q37 0 63.5 26.5t26.5 61.5q0 37 -26.5 63.5t-63.5 26.5v90q74 0 127 -53t53 -127z" />
<glyph unicode="&#x2d3;" horiz-adv-x="681" d="M252 184q0 72 53 125t127 53v-90q-37 0 -63.5 -26.5t-26.5 -61.5q0 -37 26.5 -63.5t63.5 -26.5v-90q-74 0 -127 53t-53 127z" />
<glyph unicode="&#x2d4;" horiz-adv-x="681" d="M23 305v144h247v374h144v-374h245v-144h-636z" />
<glyph unicode="&#x2d5;" horiz-adv-x="681" d="M659 823v-144h-247v-374h-144v374h-245v144h636z" />
<glyph unicode="&#x2d6;" horiz-adv-x="681" d="M23 473v143h247v248h144v-248h245v-143h-247v-248h-144v248h-245z" />
<glyph unicode="&#x2d7;" horiz-adv-x="681" d="M23 473v143h636v-143h-636z" />
<glyph unicode="&#x2d8;" horiz-adv-x="681" d="M31 1499h121q16 -135 188 -135q82 0 131 35t55 100h121q-23 -276 -311 -276q-74 0 -135.5 19.5t-114.5 85t-55 171.5z" />
<glyph unicode="&#x2d9;" horiz-adv-x="681" d="M236 1253v213h213v-213h-213z" />
<glyph unicode="&#x2da;" horiz-adv-x="681" d="M162 1366q0 72 53 125t127 53q76 0 128 -52t52 -128q0 -74 -53 -126t-127 -52t-127 53t-53 127zM252 1366q0 -37 26.5 -63.5t63.5 -26.5t63.5 26.5t26.5 61.5q0 39 -25.5 64.5t-64.5 25.5q-37 0 -63.5 -26.5t-26.5 -61.5z" />
<glyph unicode="&#x2db;" horiz-adv-x="681" d="M117 -227q0 74 52 133t146 94h144q-113 -63 -153 -108.5t-40 -108.5q0 -111 148 -111q76 0 129 21v-92q-98 -20 -156 -21q-115 0 -192.5 53.5t-77.5 139.5z" />
<glyph unicode="&#x2dc;" horiz-adv-x="681" d="M10 1257q16 100 62.5 155.5t113.5 55.5q51 0 141.5 -37.5t131.5 -37.5q51 0 76 75h118q-31 -213 -182 -213q-41 0 -143.5 39t-130.5 39q-47 0 -68 -76h-119z" />
<glyph unicode="&#x2dd;" horiz-adv-x="681" d="M-72 1208l197 308h231l-305 -308h-123zM285 1208l196 308h232l-305 -308h-123z" />
<glyph unicode="&#x2de;" horiz-adv-x="681" d="M0 811v203l152 153h141q14 -39 62 -197.5t84 -238.5t69 -80q29 0 52.5 15.5t34.5 31t32.5 54.5t29.5 53v-234q-92 -92 -178 -92q-92 0 -172 167t-114 362z" />
<glyph unicode="&#x2df;" horiz-adv-x="1044" d="M296.25 1274l225.75 150.5l-224.25 149.5l75 50l224.25 -148.5l225.75 149.5l75 -51l-224.25 -149.5l225.75 -150.5l-76.5 -51l-225.75 150.5l-224.25 -149.5z" />
<glyph unicode="&#x2e0;" horiz-adv-x="681" d="M30.749 1459.41h119.593l190.439 -444.575l190.439 444.575h119.593l-199.538 -466.024l-50.6973 -127.393q68.8955 -183.939 69.5459 -237.236q0 -92.9453 -36.7227 -132.918q-36.7236 -39.9727 -87.4209 -39.9727q-50.6963 0 -82.5449 28.5986 q-31.8477 28.5986 -41.9229 63.3711q-10.0742 34.7734 -10.0742 74.4209q0 62.3965 69.5459 245.036l-50.6973 126.093zM323.232 611.858q0 -18.8486 4.875 -30.2236q4.87402 -11.374 8.12402 -13.3242q3.25 -1.94922 5.84961 -1.94922q18.8486 0 18.8486 46.7969 q0 26.6484 -20.1484 89.0449q-17.5488 -53.2969 -17.5488 -90.3447z" />
<glyph unicode="&#x2e1;" horiz-adv-x="380" d="M119.345 811v970.396h111.794v-970.396h-111.794z" />
<glyph unicode="&#x2e2;" horiz-adv-x="681" d="M57.4971 1043.34h116.994q7.79883 -62.3965 43.2227 -98.7939q35.4229 -36.3984 127.067 -36.3984q73.4463 0 117.969 29.8984t44.5225 79.2959q0 38.3477 -25.3486 61.0967t-82.5459 35.748l-103.994 25.3486q-123.493 29.248 -172.24 73.7705t-48.7471 127.067 q0 97.4951 73.4463 155.342q73.4453 57.8467 194.339 57.8467q120.893 0 186.214 -55.8965q65.3213 -55.8975 66.6221 -158.592h-116.994q-3.89941 111.794 -139.742 111.794q-67.5957 0 -107.894 -28.5986q-40.2979 -28.5977 -40.2979 -76.6953q0 -37.0479 30.873 -60.4463 q30.874 -23.3994 98.4697 -38.998l106.594 -25.3486q103.994 -25.3486 150.467 -71.1709t46.4727 -123.168q0 -101.395 -77.9961 -161.191q-77.9951 -59.7959 -209.288 -59.7959q-270.385 -0.650391 -278.185 237.886z" />
<glyph unicode="&#x2e3;" horiz-adv-x="681" d="M36.749 815l246.336 355.53l-233.337 341.881h126.743l167.69 -252.836l167.69 252.836h124.793l-233.987 -336.682l241.137 -360.729h-129.343l-174.19 267.785l-177.439 -267.785h-126.093z" />
<glyph unicode="&#x2e4;" horiz-adv-x="684" d="M50.3965 1270.41q0 120.894 76.6953 190.114q76.6963 69.2217 211.238 69.2217q288.584 0 295.084 -304.833h-116.994q-2.59961 98.7939 -43.2227 150.467q-40.6221 51.6719 -136.167 51.6719q-77.3457 0 -121.868 -43.2227t-44.5225 -117.318 q0 -86.4453 52.3223 -116.019t179.064 -32.1729v-532.32h-111.793v439.375q-40.9482 5.2002 -76.0459 14.2998q-74.7461 18.8486 -119.269 86.7695t-44.5225 143.967z" />
<glyph unicode="&#x2e5;" horiz-adv-x="1077" d="M82 1491v147h848v-1638h-148v1491h-700z" />
<glyph unicode="&#x2e6;" horiz-adv-x="1077" d="M82 1153v147h700v338h148v-1638h-148v1153h-700z" />
<glyph unicode="&#x2e7;" horiz-adv-x="1077" d="M82 750v147h700v741h148v-1638h-148v750h-700z" />
<glyph unicode="&#x2e8;" horiz-adv-x="1077" d="M82 338v147h700v1153h148v-1638h-148v338h-700z" />
<glyph unicode="&#x2e9;" horiz-adv-x="1077" d="M82 0v147h700v1491h148v-1638h-848z" />
<glyph unicode="&#x2ea;" horiz-adv-x="1062" d="M147 -2v1243h148v-1096h686v-147h-834z" />
<glyph unicode="&#x2eb;" horiz-adv-x="1062" d="M147 0v1257h148v-548h686v-150h-686v-559h-148z" />
<glyph unicode="&#x2ec;" horiz-adv-x="681" d="M47 -102h129l166 -197l162 197h131l-197 -308h-194z" />
<glyph unicode="&#x2ed;" horiz-adv-x="681" d="M57 1495v144h561v-144h-561zM57 1214v144h561v-144h-561z" />
<glyph unicode="&#x2ee;" horiz-adv-x="681" d="M100 977v78q98 14 99 172v12h-99v213h191v-207q-1 -252 -191 -268zM428 977v78q98 14 98 172v12h-98v213h190v-207q0 -252 -190 -268z" />
<glyph unicode="&#x2ef;" horiz-adv-x="681" d="M578 -52l-203 -358h-68l-203 358h78l158 -288l160 288h78z" />
<glyph unicode="&#x2f0;" horiz-adv-x="681" d="M94 -409l203 358h68l203 -358h-78l-158 288l-160 -288h-78z" />
<glyph unicode="&#x2f1;" horiz-adv-x="681" d="M55 -273v60l564 178v-68l-455 -139l455 -141v-70z" />
<glyph unicode="&#x2f2;" horiz-adv-x="681" d="M619 -211v-60l-564 -178v68l455 139l-455 141v70z" />
<glyph unicode="&#x2f3;" horiz-adv-x="669" d="M156 -229q0 72 53 125t127 53q76 0 128 -52t52 -128q0 -74 -53 -126t-127 -52t-127 53t-53 127zM246 -229q0 -37 26.5 -63.5t63.5 -26.5t63.5 26.5t26.5 61.5q0 39 -25.5 64.5t-64.5 25.5q-37 0 -63.5 -26.5t-26.5 -61.5z" />
<glyph unicode="&#x2f4;" horiz-adv-x="534" d="M45 1053h231l197 -304h-123z" />
<glyph unicode="&#x2f5;" horiz-adv-x="894" d="M405 1053h231l197 -304h-123zM45 1053h231l197 -304h-123z" />
<glyph unicode="&#x2f6;" horiz-adv-x="894" d="M36 749l197 304h231l-305 -304h-123zM395 745l197 304h231l-305 -304h-123z" />
<glyph unicode="&#x2f7;" horiz-adv-x="681" d="M18 -320q16 100 62.5 155.5t113.5 55.5q51 0 141.5 -37.5t131.5 -37.5q51 0 76 75h118q-31 -213 -182 -213q-41 0 -143.5 39t-130.5 39q-47 0 -68 -76h-119z" />
<glyph unicode="&#x2f8;" horiz-adv-x="569" d="M225 133v213h213v-213h-213zM225 993v213h213v-213h-213z" />
<glyph unicode="&#x2f9;" horiz-adv-x="409" d="M49 1049v485h311v-148h-163v-337h-148z" />
<glyph unicode="&#x2fa;" horiz-adv-x="409" d="M53 1386v148h312v-485h-148v337h-164z" />
<glyph unicode="&#x2fb;" horiz-adv-x="409" d="M361 -2v-148h-312v485h148v-337h164z" />
<glyph unicode="&#x2fc;" horiz-adv-x="409" d="M361 337v-485h-311v148h163v337h148z" />
<glyph unicode="&#x2fd;" horiz-adv-x="681" d="M23 -57h147v-205h342v205h147v-353h-636v353z" />
<glyph unicode="&#x2fe;" horiz-adv-x="681" d="M23 -57h147v-205h489v-148h-636v353z" />
<glyph unicode="&#x2ff;" horiz-adv-x="681" d="M0 -246l8 10q104 98 180 187l9 10l43 -41l-9 -8q-51 -68 -102 -125h553v-63h-553q51 -59 102 -125l9 -9l-43 -41l-9 11q-76 88 -180 186z" />
<glyph unicode="&#x300;" d="M-637 1516h231l197 -304h-123z" />
<glyph unicode="&#x301;" d="M-494 1212l197 304h231l-305 -304h-123z" />
<glyph unicode="&#x302;" d="M-641 1210l197 308h194l197 -308h-129l-166 197l-162 -197h-131z" />
<glyph unicode="&#x303;" d="M-672 1257q16 100 62.5 155.5t113.5 55.5q51 0 141.5 -37.5t131.5 -37.5q51 0 76 75h118q-31 -213 -182 -213q-41 0 -143.5 39t-130.5 39q-47 0 -68 -76h-119z" />
<glyph unicode="&#x304;" d="M-625 1292v144h561v-144h-561z" />
<glyph unicode="&#x305;" d="M-924 1288v148h1160v-148h-1160z" />
<glyph unicode="&#x306;" d="M-651 1499h121q16 -135 188 -135q82 0 131 35t55 100h121q-23 -276 -311 -276q-74 0 -135.5 19.5t-114.5 85t-55 171.5z" />
<glyph unicode="&#x307;" d="M-446 1253v213h213v-213h-213z" />
<glyph unicode="&#x308;" d="M-621 1253v211h213v-211h-213zM-289 1253v211h213v-211h-213z" />
<glyph unicode="&#x309;" d="M-582 1493q57 57 133 57q82 0 131.5 -51t49.5 -129q0 -74 -53.5 -126t-127.5 -52v-37h-90v131h90q37 0 62 24.5t25 59.5q0 47 -28 68.5t-59 21.5q-41 0 -67 -33z" />
<glyph unicode="&#x30a;" d="M-520 1366q0 72 53 125t127 53q76 0 128 -52t52 -128q0 -74 -53 -126t-127 -52t-127 53t-53 127zM-430 1366q0 -37 26.5 -63.5t63.5 -26.5t63.5 26.5t26.5 61.5q0 39 -25.5 64.5t-64.5 25.5q-37 0 -63.5 -26.5t-26.5 -61.5z" />
<glyph unicode="&#x30b;" d="M-680 1210l197 308h231l-305 -308h-123zM-323 1210l196 308h232l-305 -308h-123z" />
<glyph unicode="&#x30c;" d="M-643 1518h129l166 -197l162 197h131l-197 -308h-194z" />
<glyph unicode="&#x30d;" d="M-424 1204v404h148v-404h-148z" />
<glyph unicode="&#x30e;" d="M-268 1204v404h148v-404h-148zM-565 1204v404h148v-404h-148z" />
<glyph unicode="&#x30f;" d="M-924 1516h232l196 -308h-122zM-567 1516h231l197 -308h-123z" />
<glyph unicode="&#x310;" d="M-446 1456v213h213v-213h-213zM-651 1499h121q16 -135 188 -135q82 0 131 35t55 100h121q-23 -276 -311 -276q-74 0 -135.5 19.5t-114.5 85t-55 171.5z" />
<glyph unicode="&#x311;" d="M-35 1223h-121q-16 135 -188 135q-82 0 -131 -35t-55 -100h-121q23 276 311 276q74 0 135.5 -19.5t114.5 -85t55 -171.5z" />
<glyph unicode="&#x312;" d="M-260 1528v-86q-51 0 -71.5 -21.5t-20.5 -74.5h92v-152h-180v150q0 88 48 136t132 48z" />
<glyph unicode="&#x313;" d="M-422 1182v86q51 0 71.5 21.5t20.5 74.5h-92v152h180v-150q0 -88 -48 -136t-132 -48z" />
<glyph unicode="&#x314;" d="M-434 1366v150h180v-152h-92q0 -53 20.5 -74.5t71.5 -21.5v-86q-84 0 -132 48t-48 136z" />
<glyph unicode="&#x315;" d="M-436 1182v86q51 0 71.5 21.5t20.5 74.5h-92v152h180v-150q0 -88 -48 -136t-132 -48z" />
<glyph unicode="&#x316;" d="M-637 -106h231l197 -304h-123z" />
<glyph unicode="&#x317;" d="M-529 -410l197 304h231l-305 -304h-123z" />
<glyph unicode="&#x318;" d="M-573 -274h272v170h147v-488h-147v170h-272v148z" />
<glyph unicode="&#x319;" d="M-103 -420h-272v-170h-147v488h147v-170h272v-148z" />
<glyph unicode="&#x31a;" d="M-416 1292v144h561v-562h-143v418h-418z" />
<glyph unicode="&#x31b;" d="M-281 901v172h150q49 2 72.5 13.5t23.5 48.5q0 47 -35 88l131 110q76 -88 76 -203q0 -229 -325 -229h-93z" />
<glyph unicode="&#x31c;" d="M-459 -267q0 72 53 125t127 53v-90q-37 0 -63.5 -26.5t-26.5 -61.5q0 -37 26.5 -63.5t63.5 -26.5v-90q-74 0 -127 53t-53 127z" />
<glyph unicode="&#x31d;" d="M-582 -262h170v170h148v-170h170v-148h-488v148z" />
<glyph unicode="&#x31e;" d="M-582 -92h488v-148h-170v-170h-148v170h-170v148z" />
<glyph unicode="&#x31f;" d="M-582 -272h170v170h148v-170h170v-148h-170v-170h-148v170h-170v148z" />
<glyph unicode="&#x320;" d="M-868 -320v143h636v-143h-636z" />
<glyph unicode="&#x321;" d="M-350 -295q35 -2 41 -2q78 0 108.5 30.5t30.5 110.5v248h170v-315q0 -223 -293 -223q-27 0 -57 6v145z" />
<glyph unicode="&#x322;" d="M-170 92h170v-248q0 -80 30.5 -110.5t108.5 -30.5q6 0 41 2v-145q-31 -6 -57 -6q-293 0 -293 223v315z" />
<glyph unicode="&#x323;" d="M-552 -338v213h213v-213h-213z" />
<glyph unicode="&#x324;" d="M-738 -332v211h213v-211h-213zM-406 -332v211h213v-211h-213z" />
<glyph unicode="&#x325;" d="M-653 -305q0 72 53 125t127 53q76 0 128 -52t52 -128q0 -74 -53 -126t-127 -52t-127 53t-53 127zM-563 -305q0 -37 26.5 -63.5t63.5 -26.5t63.5 26.5t26.5 61.5q0 39 -25.5 64.5t-64.5 25.5q-37 0 -63.5 -26.5t-26.5 -61.5z" />
<glyph unicode="&#x326;" d="M-561 -123h205v-211q0 -115 -53.5 -181.5t-147.5 -66.5h-4v78q113 0 112 160v16h-112v205z" />
<glyph unicode="&#x327;" d="M-754 -369l43 82q18 -8 52 -24.5t51.5 -23.5t44 -13t53.5 -6q47 0 78.5 26.5t31.5 65.5q0 76 -94 76q-31 0 -64 -17l-24 15l86 188h78l-47 -115q27 4 57 4q78 0 120 -35.5t42 -101.5q0 -88 -67.5 -139t-184.5 -51q-96 -1 -256 69z" />
<glyph unicode="&#x328;" d="M-565 -227q0 74 52 133t146 94h144q-113 -63 -153 -108.5t-40 -108.5q0 -111 148 -111q76 0 129 21v-92q-98 -20 -156 -21q-115 0 -192.5 53.5t-77.5 139.5z" />
<glyph unicode="&#x329;" d="M-530 -498v404h148v-404h-148z" />
<glyph unicode="&#x32a;" d="M-625 -123h562v-280h-144v137h-274v-137h-144v280z" />
<glyph unicode="&#x32b;" d="M-655 -102h90v-70q0 -37 26.5 -63.5t61.5 -26.5q39 0 64.5 25.5t25.5 64.5v70h90v-70q0 -37 26.5 -63.5t61.5 -26.5q39 0 64.5 25.5t25.5 64.5v70h90v-70q0 -76 -52 -128t-128 -52q-78 0 -133 61q-55 -61 -135 -61q-74 0 -126 53t-52 127v70z" />
<glyph unicode="&#x32c;" d="M-643 -102h129l166 -197l162 197h131l-197 -308h-194z" />
<glyph unicode="&#x32d;" d="M-55 -410h-129l-166 197l-162 -197h-131l197 308h194z" />
<glyph unicode="&#x32e;" d="M-651 -133h121q16 -135 188 -135q82 0 131 35t55 100h121q-23 -276 -311 -276q-74 0 -135.5 19.5t-114.5 85t-55 171.5z" />
<glyph unicode="&#x32f;" d="M-35 -409h-121q-16 135 -188 135q-82 0 -131 -35t-55 -100h-121q23 276 311 276q74 0 135.5 -19.5t114.5 -85t55 -171.5z" />
<glyph unicode="&#x330;" d="M-793 -381q16 100 62.5 155.5t113.5 55.5q51 0 141.5 -37.5t131.5 -37.5q51 0 76 75h118q-31 -213 -182 -213q-41 0 -143.5 39t-130.5 39q-47 0 -68 -76h-119z" />
<glyph unicode="&#x331;" d="M-754 -314v144h561v-144h-561z" />
<glyph unicode="&#x332;" d="M-1231 -258h1229v-102h-1229v102z" />
<glyph unicode="&#x333;" d="M-1231 -467h1229v-102h-1229v102zM-1231 -258h1229v-102h-1229v102z" />
<glyph unicode="&#x334;" d="M-922 428q16 100 62.5 155.5t113.5 55.5q51 0 141.5 -37.5t131.5 -37.5q51 0 76 75h118q-31 -213 -182 -213q-41 0 -143.5 39t-130.5 39q-47 0 -68 -76h-119z" />
<glyph unicode="&#x335;" d="M-842 475v144h561v-144h-561z" />
<glyph unicode="&#x336;" d="M-1456 557h1229v-102h-1229v102z" />
<glyph unicode="&#x337;" d="M-1436 6l1254 1256h155l-1253 -1256h-156z" />
<glyph unicode="&#x338;" d="M-1436 -125l1254 1659h155l-1253 -1659h-156z" />
<glyph unicode="&#x339;" d="M-340 -339q0 -72 -53 -125t-127 -53v90q37 0 63.5 26.5t26.5 61.5q0 37 -26.5 63.5t-63.5 26.5v90q74 0 127 -53t53 -127z" />
<glyph unicode="&#x33a;" d="M-180 -360h-562v280h144v-137h274v137h144v-280z" />
<glyph unicode="&#x33b;" d="M-745 -80h534v-534h-534v534zM-606 -219v-256h256v256h-256z" />
<glyph unicode="&#x33c;" d="M-782 -301q0 76 52 128t128 52q78 0 133 -61q55 61 135 61q74 0 126 -53t52 -127h-90q0 37 -26.5 63.5t-61.5 26.5q-39 0 -64.5 -25.5t-25.5 -64.5v-55h-90v55q0 37 -26.5 63.5t-61.5 26.5q-39 0 -64.5 -25.5t-25.5 -64.5h-90z" />
<glyph unicode="&#x33d;" d="M-616 1204l194 148l-194 145l65 49l195 -145l196 145l66 -49l-195 -145l195 -148l-66 -49l-196 145l-195 -145z" />
<glyph unicode="&#x33e;" d="M-457 1604q0 113 213 137v-90q-76 -18 -75 -58q0 -27 37.5 -130t37.5 -140q0 -49 -55 -84t-156 -47v90q76 12 76 49q0 27 -39 132.5t-39 140.5z" />
<glyph unicode="&#x33f;" d="M-1229 1309h1229v-102h-1229v102zM-1229 1518h1229v-102h-1229v102z" />
<glyph unicode="&#x340;" d="M-637 1518h231l197 -304h-123z" />
<glyph unicode="&#x341;" d="M-494 1212l197 304h231l-305 -304h-123z" />
<glyph unicode="&#x342;" d="M-705 1239q16 100 62.5 155.5t113.5 55.5q51 0 141.5 -37.5t131.5 -37.5q51 0 76 75h118q-31 -213 -182 -213q-41 0 -143.5 39t-130.5 39q-47 0 -68 -76h-119z" />
<glyph unicode="&#x343;" d="M-422 1182v86q51 0 71.5 21.5t20.5 74.5h-92v152h180v-150q0 -88 -48 -136t-132 -48z" />
<glyph unicode="&#x344;" d="M-725 1233v170h170v-170h-170zM-508 1229l134 323h184l-199 -323h-119zM-229 1233v170h170v-170h-170z" />
<glyph unicode="&#x345;" d="M-658 -21h156v-162q0 -90 53 -90q23 0 33 3t13 6t7 17.5t6 22.5h52q0 -86 -34 -105.5t-134 -19.5q-152 0 -152 162v166z" />
<glyph unicode="&#x346;" d="M-625 1495h562v-280h-144v137h-274v-137h-144v280z" />
<glyph unicode="&#x347;" d="M-762 -224v144h561v-144h-561zM-762 -429v144h561v-144h-561z" />
<glyph unicode="&#x348;" d="M-383 -490v404h148v-404h-148zM-671 -490v404h148v-404h-148z" />
<glyph unicode="&#x349;" d="M-553 -190h295v-295h-125v178h-170v117z" />
<glyph unicode="&#x34a;" d="M-756 1298q16 100 62.5 155.5t113.5 55.5q51 0 127 -30l80 131h127l-100 -172q20 -4 39 -4q51 0 76 75h118q-31 -213 -182 -213q-37 0 -117 29l-61 -106h-137l88 145q-31 10 -47 10q-47 0 -68 -76h-119z" />
<glyph unicode="&#x34b;" d="M-714 1155v213h213v-213h-213zM-514 1640v213h213v-213h-213zM-836 1400q16 100 62.5 155.5t113.5 55.5q51 0 141.5 -37.5t131.5 -37.5q51 0 76 75h118q-31 -213 -182 -213q-41 0 -143.5 39t-130.5 39q-47 0 -68 -76h-119z" />
<glyph unicode="&#x34c;" d="M-752 1452q16 100 62.5 155.5t113.5 55.5q51 0 141.5 -37.5t131.5 -37.5q51 0 76 75h118q-31 -213 -182 -213q-41 0 -143.5 39t-130.5 39q-47 0 -68 -76h-119zM-752 1175q16 100 62.5 155.5t113.5 55.5q51 0 141.5 -37.5t131.5 -37.5q51 0 76 75h118q-31 -213 -182 -213 q-41 0 -143.5 39t-130.5 39q-47 0 -68 -76h-119z" />
<glyph unicode="&#x34d;" d="M-1114.5 -294.5q55.5 36.75 103.5 74.0625t72.25 57.9375t79.25 70.125l38 -24.75q-51 -53.625 -79.75 -79.5t-95.25 -78h788.5q-66.5 52.125 -95.25 78t-80.25 79.5l38 24.75q55.5 -49.125 79.5 -69.9375t72.25 -58.125t103.25 -74.0625q-55.5 -36.75 -103.5 -74.0625 t-72 -58.125t-79.5 -69.9375l-38 24.75q51 53.625 80 79.3125t95.5 78.1875h-788.5q66.5 -52.125 95 -78t80 -79.5l-38 -24.75q-55.5 49.125 -79.5 69.9375t-72 58.125t-103.5 74.0625z" />
<glyph unicode="&#x34e;" d="M-745 -305q106 92 200 192q115 -117 203 -192l-27 -27q-133 109 -153 131v-413h-43v413q-37 -41 -154 -131z" />
<glyph unicode="&#x34f;" />
<glyph unicode="&#x350;" d="M-104 1356v-60l-564 -178v68l455 139l-455 141v70z" />
<glyph unicode="&#x351;" d="M-406 1386q0 72 53 125t127 53v-90q-37 0 -63.5 -26.5t-26.5 -61.5q0 -37 26.5 -63.5t63.5 -26.5v-90q-74 0 -127 53t-53 127z" />
<glyph unicode="&#x352;" d="M-514 1153v213h213v-213h-213zM-103 1362h-121q-16 135 -188 135q-82 0 -131 -35t-55 -100h-121q23 276 311 276q74 0 135.5 -19.5t114.5 -85t55 -171.5z" />
<glyph unicode="&#x353;" d="M-882 -420l194 148l-194 145l65 49l195 -145l196 145l66 -49l-195 -145l195 -148l-66 -49l-196 145l-195 -145z" />
<glyph unicode="&#x354;" d="M-830 -273v60l564 178v-68l-455 -139l455 -141v-70z" />
<glyph unicode="&#x355;" d="M-233 -211v-60l-564 -178v68l455 139l-455 141v70z" />
<glyph unicode="&#x356;" d="M-1008 -88l478 -152v-51l-478 -151v57l385 119l-385 121v57zM-532 -444l202 358h68l203 -358h-78l-158 288l-160 -288h-77z" />
<glyph unicode="&#x357;" d="M-223 1352q0 -72 -53 -125t-127 -53v90q37 0 63.5 26.5t26.5 61.5q0 37 -26.5 63.5t-63.5 26.5v90q74 0 127 -53t53 -127z" />
<glyph unicode="&#x358;" d="M-661 1302v213h213v-213h-213z" />
<glyph unicode="&#x359;" d="M-823 -344l28 90l164 -57l-8 172h96l-8 -172l164 57l29 -90l-166 -45l108 -137l-80 -56l-94 144l-96 -144l-78 56l107 137z" />
<glyph unicode="&#x35a;" d="M-1057 -281q0 20 9.5 48t29 60t58 52.5t90.5 20.5q16 0 33.5 -3t35 -10.5l31.5 -13.5t31.5 -18.5t28 -18.5t27.5 -20.5t22.5 -19.5t20.5 -19.5t17 -16.5q2 2 22.5 20.5t30 27t31 25.5t38 26.5t39 19.5t44 15.5t43.5 5.5q51 0 90 -21.5t58.5 -53.5t29 -58.5t9.5 -47.5 q0 -70 -51.5 -127t-125.5 -57q-29 0 -57.5 7t-53 19.5t-47 26t-40 28.5t-29.5 28l-21 21l-10 9q-8 -8 -35.5 -32.5t-39 -33.5t-38 -26.5t-44 -26t-45 -14.5t-56.5 -6q-74 0 -125 57t-51 127zM-989 -289q0 -33 29.5 -73.5t93.5 -40.5q12 0 25.5 2t26.5 7t23.5 9t23.5 14.5 t20.5 15.5t21.5 18t19.5 17.5t20.5 19.5t19 17q-2 0 -16 12.5t-20.5 18.5t-22.5 18.5t-26.5 19.5t-28 17.5t-31.5 15.5t-30.5 9t-30.5 4q-53 0 -85 -39t-32 -82zM-580 -283q4 -2 19.5 -17t20.5 -19.5t19.5 -17.5t21.5 -18t20.5 -15.5t24 -14.5t23.5 -9t26.5 -7t25.5 -2 q63 0 93 40.5t30 73.5q0 43 -31.5 82t-85.5 39q-16 0 -32.5 -4t-30 -9t-30.5 -15.5t-28.5 -17.5t-27 -19.5t-22.5 -18.5t-20.5 -17.5t-15.5 -13.5z" />
<glyph unicode="&#x35b;" d="M-690 1313l115 325h133l-76 -206l307 2l-117 -316h-129l80 195h-313z" />
<glyph unicode="&#x35c;" d="M-682 -72h94q4 -59 37 -83.5t109 -51.5q74 -25 196.5 -43t245.5 -18t247 18.5t197 42.5q39 14 58.5 22.5t42 24t33 37t12.5 51.5h94q-4 -66 -21.5 -111.5t-52.5 -76.5t-70.5 -49.5t-99.5 -38.5q-70 -25 -192.5 -42.5t-246.5 -17.5t-247 17.5t-192 42.5q-63 20 -99 38.5 t-71 49.5t-52.5 76.5t-21.5 111.5z" />
<glyph unicode="&#x35d;" d="M-674 1591h94q4 -59 37 -83.5t109 -51.5q74 -25 196.5 -43t245.5 -18t247 18.5t197 42.5q39 14 58.5 22.5t42 24t33 37t12.5 51.5h94q-4 -66 -21.5 -111.5t-52.5 -76.5t-70.5 -49.5t-99.5 -38.5q-70 -25 -192.5 -42.5t-246.5 -17.5t-247 17.5t-192 42.5q-63 20 -99 38.5 t-71 49.5t-52.5 76.5t-21.5 111.5z" />
<glyph unicode="&#x35e;" d="M-664 1251v133h1328v-133h-1328z" />
<glyph unicode="&#x35f;" d="M-664 -301v133h1328v-133h-1328z" />
<glyph unicode="&#x360;" d="M-705 1217q12 143 101.5 219.5t245.5 76.5q86 0 172 -32l374 -142q90 -35 160 -34q137 0 182 32.5t45 120.5h105q0 -84 -28.5 -144.5t-79 -91t-106.5 -44t-122 -13.5q-125 0 -258 54l-313 129q-76 29 -138 28q-104 0 -172.5 -43t-78.5 -116h-89z" />
<glyph unicode="&#x361;" d="M684 1295h-94q-4 59 -37 83.5t-109 51.5q-74 25 -196.5 43t-245.5 18t-247 -18.5t-197 -42.5q-39 -14 -58.5 -22.5t-42 -24t-33 -37t-12.5 -51.5h-94q4 66 21.5 111.5t52.5 76.5t70.5 49.5t99.5 38.5q70 25 192.5 42.5t246.5 17.5t247 -17.5t192 -42.5q63 -20 99 -38.5 t71 -49.5t52.5 -76.5t21.5 -111.5z" />
<glyph unicode="&#x362;" d="M-614 -250h991l-141 129l75 58q117 -104 299 -236q-182 -129 -299 -233l-75 57l141 131h-991v94z" />
<glyph unicode="&#x363;" d="M-704.325 1286.58q0 17.8574 3.41992 32.6748q3.41895 14.8184 7.78906 26.2168q4.36914 11.3975 15.1973 21.0869q10.8291 9.68848 18.2373 15.957q7.40918 6.26953 24.8867 11.9688t26.9756 8.54883q9.49902 2.84863 32.6758 6.64844q23.1758 3.7998 34.1943 5.31934 t38.7549 5.69922q37.9941 4.55957 53.002 14.6279t15.0078 30.2051v17.0977q0 29.6357 -23.7471 45.2139q-23.7461 15.5771 -67.4395 15.5771q-45.2139 0 -68.5801 -17.4775t-27.166 -54.7119h-65.3506q4.55957 132.221 163.376 132.221q75.6094 0 114.554 -28.4961 q38.9434 -28.4951 38.9434 -82.8271v-239.745q0 -31.915 34.9551 -31.915q6.83887 0 14.0576 1.51953v-49.0127q-27.3555 -6.83887 -44.4531 -6.83887q-31.1553 0 -47.1133 14.4375q-15.957 14.4385 -19.7568 45.5938q-65.3506 -60.0312 -138.68 -60.0312 q-61.5508 0 -97.6455 32.6748q-36.0947 32.6758 -36.0947 87.7676zM-636.695 1288.29q0 -30.9658 21.0869 -48.2529q21.0869 -17.2881 59.082 -17.2881q53.5713 0 87.957 28.4961q34.3848 28.4961 34.3848 61.1709v72.9492q-19.377 -9.49805 -58.7012 -15.5771 t-68.2002 -10.6387t-52.2422 -22.2266q-23.3672 -17.668 -23.3672 -48.6328z" />
<glyph unicode="&#x364;" d="M-742.845 1384.33q0 100.305 50.9131 160.716q50.9121 60.4111 135.64 60.4111q57.751 0 101.635 -28.876q43.8838 -28.875 63.6406 -78.6484q16.3379 -42.9336 16.3379 -129.94h-300.536q0.759766 -55.8516 21.6572 -87.0068q33.4346 -52.8125 98.0254 -52.8125 q79.4082 0 106.765 81.6875h65.3496q-12.5381 -66.8701 -58.3213 -104.294q-45.7832 -37.4248 -116.072 -37.4248q-85.4873 0 -135.261 57.9414q-49.7725 57.9414 -49.7725 158.247zM-673.695 1420.81h228.727q0.759766 1.51953 0.759766 4.93848 q0 50.5332 -32.6748 85.1074q-32.6748 34.5752 -80.168 34.5752q-49.0127 0 -80.9287 -33.8145q-31.915 -33.8154 -35.7148 -90.8066z" />
<glyph unicode="&#x365;" d="M-583.708 1663.57v81.6875h65.3506v-81.6875h-65.3506zM-582.947 1173.44v407.68h64.5898v-407.68h-64.5898z" />
<glyph unicode="&#x366;" d="M-747.884 1386.8q0 102.774 49.0127 160.716t134.5 57.9414q87.7666 0 136.399 -57.9414t48.6328 -163.946q0 -100.305 -49.3926 -157.866t-134.88 -57.5615q-87.0068 0 -135.64 57.9414t-48.6328 160.717zM-680.254 1386.8q0 -73.8994 31.1553 -116.264 q31.1553 -42.3633 85.4873 -42.3633q53.5723 0 85.1074 42.3633q31.5352 42.3643 31.5352 113.794q0 75.6084 -30.585 118.353q-30.5859 42.7432 -86.0576 42.7432q-54.332 0 -85.4873 -42.3633q-31.1553 -42.3643 -31.1553 -116.263z" />
<glyph unicode="&#x367;" d="M-692.468 1279.47v314.214h64.5908v-288.757q0 -36.4746 22.6064 -58.3223q22.6064 -21.8467 61.3613 -21.8467q50.5322 0 80.9277 37.8047t30.3955 100.115v231.006h64.5908v-407.68h-58.1318v56.9912q-28.876 -40.2734 -60.0312 -57.5615 q-31.1553 -17.2871 -76.3682 -17.2871q-59.2715 0 -94.6064 30.3955t-35.335 80.9277z" />
<glyph unicode="&#x368;" d="M-681.063 1384.81q0 101.065 49.583 161.856q49.582 60.791 132.03 60.791q70.6689 0 113.033 -38.1846q42.3633 -38.1846 48.0625 -110.373h-65.3496q-6.0791 42.9336 -31.1562 65.7295q-25.0762 22.7969 -65.3496 22.7969q-52.8125 0 -82.8281 -43.123 q-30.0156 -43.124 -30.0156 -119.493q0 -72.1895 30.2061 -113.413q30.2051 -41.2236 84.1572 -41.2236q83.208 0 99.5449 98.0254h65.3506q-6.0791 -74.8486 -49.7725 -116.453q-43.6934 -41.6035 -116.643 -41.6035q-83.208 0 -132.031 57.9414 q-48.8223 57.9414 -48.8223 156.727z" />
<glyph unicode="&#x369;" d="M-712.863 1390.79q0 97.2656 47.873 155.967t127.281 58.7012q83.9678 0 125.382 -63.0703v210.868h64.5898v-567.256h-57.751v53.5723q-26.5957 -37.9941 -57.1816 -54.7119t-72.7598 -16.7178q-82.4473 0 -129.94 59.6514t-47.4932 162.996zM-645.233 1386.61 q0 -71.4297 32.6758 -114.553q32.6748 -43.124 86.627 -43.124q51.292 0 82.4482 42.7441q31.1553 42.7432 31.1553 113.413q0 73.3291 -31.1553 116.452q-31.1562 43.124 -83.208 43.124q-52.8125 0 -85.6777 -43.6934t-32.8652 -114.363z" />
<glyph unicode="&#x36a;" d="M-670.668 1167v567.256h64.5908v-215.428q28.875 37.2344 58.1309 52.4316q29.2559 15.1982 72.5693 15.1982q59.2715 0 93.8457 -30.0156q34.5752 -30.0156 34.5752 -81.3076v-308.135h-64.5898v282.298q0 42.9346 -26.0264 61.5518t-57.9414 18.6172 q-49.7725 0 -80.168 -37.6152q-30.3955 -37.6143 -30.3955 -99.9248v-224.927h-64.5908z" />
<glyph unicode="&#x36b;" d="M-824.668 1171v407.68h60.0312v-57.3711q26.5957 36.4746 55.6611 52.8115q29.0664 16.3379 69.7197 16.3379q75.6094 0 109.805 -62.3105q28.875 34.1943 56.8008 48.2529q27.9258 14.0576 68.2002 14.0576q56.9912 0 87.7666 -29.2559 q30.7764 -29.2559 30.7764 -84.3477v-305.854h-65.3506v280.778q0 38.7549 -19.9473 60.2217t-55.6621 21.4668q-39.5137 0 -67.6299 -30.9658q-28.1152 -30.9658 -28.1152 -75.4189v-256.082h-65.3506v280.778q0 38.7549 -19.7568 60.2217 q-19.7578 21.4668 -55.8525 21.4668q-39.5137 0 -67.6299 -30.9658q-28.1152 -30.9658 -28.1152 -75.4189v-256.082h-65.3506z" />
<glyph unicode="&#x36c;" d="M-587.428 1171v407.68h60.0312v-73.709q28.1152 45.9727 54.1416 65.7305q26.0264 19.7568 57.1816 19.7568q8.73828 0 24.6963 -2.2793v-66.1104q-65.3506 -1.51953 -98.0254 -30.3955t-32.6748 -109.044v-211.629h-65.3506z" />
<glyph unicode="&#x36d;" d="M-629.981 1540.87v52.8125h55.0918v112.084h64.5908v-112.084h66.8691v-52.8125h-66.8691v-279.259q0 -21.6562 7.4082 -29.2549q7.40918 -7.59961 28.3057 -7.59961q19.3779 0 31.1553 3.41992v-54.7119q-30.3945 -5.31934 -52.8115 -5.31934 q-37.9941 0 -58.3213 16.7178t-20.3271 47.873v308.134h-55.0918z" />
<glyph unicode="&#x36e;" d="M-746.401 1574.68h73.3291l109.044 -330.551l115.123 330.551h72.9492l-156.157 -407.68h-71.0488z" />
<glyph unicode="&#x36f;" d="M-725.702 1167l143.999 207.829l-136.4 199.851h74.0898l98.0254 -147.798l98.0254 147.798h72.9492l-136.78 -196.811l140.96 -210.869h-75.6094l-101.825 156.537l-103.725 -156.537h-73.709z" />
<glyph unicode="&#x374;" horiz-adv-x="569" d="M100 932l74 291l115 243l174 -82l-115 -241l-174 -246z" />
<glyph unicode="&#x375;" horiz-adv-x="407" d="M45 -266l217 278l23 -131l-135 -278z" />
<glyph unicode="&#x37a;" horiz-adv-x="679" d="M260 -82h156v-162q0 -90 53 -90q23 0 33 3t13 6t7 17.5t6 22.5h52q0 -86 -34 -105.5t-134 -19.5q-152 0 -152 162v166z" />
</font>
</defs>
</svg>
