<?xml version="1.0" standalone="no"?>
<!DOCTYPE svg PUBLIC "-//W3C//DTD SVG 1.1//EN" "http://www.w3.org/Graphics/SVG/1.1/DTD/svg11.dtd" >
<svg xmlns="http://www.w3.org/2000/svg">
<metadata>
This is a custom SVG webfont generated by Font Squirrel.
Copyright   : Copyleft 2002 2003 2005 2008 2009 Free Software Foundation
Foundry     : GNU
Foundry URL : httpssavannahgnuorgprojectsfreefont
</metadata>
<defs>
<font id="FreeSerifBold" horiz-adv-x="0" >
<font-face units-per-em="2048" ascent="1638" descent="-410" />
<missing-glyph horiz-adv-x="512" />
<glyph unicode="IJ" horiz-adv-x="1806" d="M33 0v51q115 10 152.5 39t37.5 107v991q0 78 -40 107.5t-150 37.5v51h717v-51q-113 -4 -154 -34.5t-41 -110.5v-991q0 -80 39 -109t156 -37v-51h-717zM780 74q0 59 43 103t101 44q59 0 104 -46t45 -107q0 -39 -27.5 -75t-27.5 -56q0 -29 25.5 -47.5t66.5 -18.5 q70 0 100.5 42t30.5 136v1139q0 82 -41 111.5t-166 33.5v51h721v-51q-115 -8 -148.5 -43t-33.5 -145v-893q0 -219 -112 -334t-327 -115q-152 0 -253 74t-101 197z" />
<glyph unicode="ij" horiz-adv-x="995" d="M33 0v49q70 16 89 38t19 85v602q0 63 -20.5 85t-87.5 36v49h393v-778q0 -57 21.5 -83t74.5 -34v-49h-489zM123 1257q0 66 47 112t112.5 46t111.5 -47t46 -113q0 -68 -46 -112.5t-113.5 -44.5t-112.5 44.5t-45 114.5zM293 -211q0 55 35 90t92 35q49 0 85 -33t36 -78 q0 -27 -23.5 -67.5t-23.5 -52.5q0 -35 66 -35q98 0 98 155v971q0 66 -25.5 90.5t-103.5 30.5v49h413v-940q0 -420 -362 -420q-127 0 -207 57.5t-80 147.5zM631 1257q0 66 46 112t111.5 46t113 -47t47.5 -112.5t-47.5 -111.5t-112.5 -46q-70 0 -114 44.5t-44 114.5z" />
<glyph unicode="&#xfb00;" horiz-adv-x="1255" d="M29 0v49q70 10 93 31.5t23 91.5v682h-116v90h116q4 233 110.5 352t342.5 119q168 0 268 -49q82 49 219 49q104 0 191.5 -53t87.5 -152q0 -57 -36 -92t-93 -35q-47 0 -84 32t-37 79q0 29 22.5 67.5t22.5 51.5q0 39 -61 39q-100 0 -101 -158v-250h179v-90h-179v-688 q0 -115 101 -117v-49h-482v49q55 4 76 32t21 85v688h-283v-688q0 -55 20.5 -83t75.5 -34v-49h-497zM428 1057q0 -20 1 -59.5t1 -53.5h283q0 135 14 203q-25 29 -25 67q0 51 19 82q0 31 -38 44.5t-75 13.5q-57 0 -96 -25.5t-55.5 -73t-22.5 -92.5t-6 -106z" />
<glyph unicode="&#xfb01;" horiz-adv-x="1144" d="M29 0v49q72 8 94 32.5t22 90.5v682h-116v90h116q2 109 23.5 188.5t70 147.5t139.5 101.5t224 33.5q170 0 267.5 -50t97.5 -138q0 -53 -38 -88t-95.5 -35t-94.5 30.5t-37 79.5q0 31 9.5 56.5t9.5 27.5q0 23 -33 39.5t-78 16.5q-115 0 -147.5 -82t-32.5 -328h217 q102 0 350 25v-803q0 -61 22.5 -87t78.5 -30v-49h-482v49q55 6 76 30.5t21 86.5v618q0 39 -14.5 54.5t-55.5 15.5h-213v-688q0 -59 20.5 -84t75.5 -33v-49h-497z" />
<glyph unicode="&#xfb02;" horiz-adv-x="1144" d="M29 0v49q72 8 94 32.5t22 90.5v682h-116v90h116q6 229 94.5 350t315.5 121q156 0 307 -63l96 61h39v-1247q0 -109 76 -115l25 -2v-49h-482v49q35 4 52.5 11.5t31 33t13.5 72.5v688h-283v-688q0 -59 20.5 -84t75.5 -33v-49h-497zM430 944h283v201q-43 14 -43 72 q0 16 13 47.5t13 40.5q0 43 -86 43q-102 0 -141 -59.5t-39 -217.5v-127z" />
<glyph unicode="&#xfb03;" horiz-adv-x="1732" d="M29 0v49q70 10 93 31.5t23 91.5v682h-116v90h116q4 233 110.5 352t342.5 119q188 0 295 -63q102 63 272 63q53 0 108.5 -7t119 -25.5t102.5 -58.5t39 -95q0 -57 -38 -91t-97 -34q-53 0 -91 29.5t-38 81t18 81.5q0 31 -38 44.5t-74 13.5q-57 0 -96.5 -25.5t-55.5 -73 t-22.5 -92.5t-6.5 -106q0 -20 1 -59.5t1 -53.5h217q70 0 351 25v-803q0 -115 100 -117v-49h-481v49q55 4 75.5 33t20.5 84v618q0 39 -15.5 54.5t-54.5 15.5h-213v-688q0 -55 20.5 -83t76.5 -34v-49h-478v49q55 4 76 33t21 84v688h-283v-688q0 -55 20.5 -83t75.5 -34v-49 h-497zM428 1057q0 -20 1 -59.5t1 -53.5h283q0 117 22 195q-33 27 -33 75q0 51 19 82q0 31 -38 44.5t-75 13.5q-57 0 -96 -25.5t-55.5 -73t-22.5 -92.5t-6 -106z" />
<glyph unicode="&#xfb04;" horiz-adv-x="1712" d="M29 0v49q70 10 93 31.5t23 91.5v682h-116v90h116q4 233 110.5 352t342.5 119q184 0 285 -59q96 59 254 59q156 0 293 -63l96 61h39v-1247q0 -59 21.5 -87t78.5 -30v-49h-481v49q53 4 74.5 33t21.5 84v688h-283v-688q0 -55 20.5 -83t76.5 -34v-49h-478v49q55 4 76 33 t21 84v688h-283v-688q0 -55 20.5 -83t75.5 -34v-49h-497zM428 1057q0 -20 1 -59.5t1 -53.5h283q0 115 20 195q-31 25 -31 76t19 81q0 31 -38 44.5t-75 13.5q-57 0 -96 -25.5t-55.5 -73t-22.5 -92.5t-6 -106zM997 944h283v201q-20 4 -31.5 27.5t-11.5 46.5q0 14 13.5 42.5 t13.5 38.5q0 47 -97 48q-57 0 -93 -22.5t-52 -65.5t-20.5 -81t-4.5 -96v-139z" />
<glyph unicode=" "  horiz-adv-x="512" />
<glyph unicode="&#x09;" horiz-adv-x="512" />
<glyph unicode="&#xa0;" horiz-adv-x="512" />
<glyph unicode="!" horiz-adv-x="681" d="M166 1210q0 96 46 150.5t128 54.5t127 -54t45 -155q0 -63 -22.5 -127.5t-59.5 -213t-61 -386.5h-60q-25 227 -60.5 379t-59 222.5t-23.5 129.5zM168 147q0 70 51 121t121 51q72 0 123 -52t51 -123.5t-51 -121t-125 -49.5q-72 0 -121 50t-49 124z" />
<glyph unicode="&#x22;" horiz-adv-x="1136" d="M170 1270q0 66 36 105.5t95 39.5q57 0 95 -39t38 -98q0 -61 -90 -451h-84q-4 18 -32.5 138t-43 195t-14.5 110zM702 1270q0 66 36 105.5t96 39.5q57 0 95 -39t38 -98q0 -63 -90 -451h-84q-91 390 -91 443z" />
<glyph unicode="#" horiz-adv-x="1024" d="M8 430v150h219l37 274h-196v150h217l61 430h158l-60 -430h232l61 430h158l-59 -430h180v-150h-201l-37 -274h178v-150h-200l-60 -430h-159l59 430h-231l-60 -430h-160l60 430h-197zM387 580h231l37 274h-231z" />
<glyph unicode="$" horiz-adv-x="1024" d="M59 1016q0 150 99.5 245t279.5 115v160h113v-156q121 -20 187.5 -41.5t138.5 -64.5v-289h-43q-45 154 -110 228.5t-173 99.5v-441q205 -106 276 -170q139 -121 140 -301q0 -178 -99.5 -270t-316.5 -131v-203h-113v203q-96 4 -157.5 20.5t-186.5 67.5v320l43 -5 q49 -166 117 -242.5t182 -99.5v514q-205 102 -291 203t-86 238zM254 1135q0 -141 182 -205v389q-96 -25 -139 -67.5t-43 -116.5zM551 61q190 37 190 213q0 84 -33.5 126t-156.5 112v-451z" />
<glyph unicode="%" horiz-adv-x="2048" d="M254 881q0 197 142.5 352.5t320.5 155.5q72 0 154.5 -56.5t189.5 -56.5q94 0 191.5 36t129.5 83q16 23 31 22h78l-807 -1433h-113l713 1269q-129 -55 -235 -55q-43 0 -97 10q-2 -270 -124.5 -438t-309.5 -168q-117 0 -190.5 78t-73.5 201zM487 803q0 -47 27 -77t72 -30 q111 0 205 163t94 306q0 51 -51.5 89t-77.5 38q-37 0 -100.5 -78.5t-116 -198.5t-52.5 -212zM1096 256q0 188 144 347t319 159q109 0 173 -64.5t64 -171.5q0 -41 -11 -103.5t-43 -143t-77 -147t-123 -114t-174 -47.5q-123 0 -197.5 78t-74.5 207zM1335 180q0 -115 101 -114 q104 0 198.5 153.5t94.5 290.5q0 63 -31 105t-76 42q-74 0 -144.5 -101t-106.5 -211t-36 -165z" />
<glyph unicode="&#x26;" horiz-adv-x="1705" d="M127 330q0 145 92 251.5t309 213.5q-61 106 -83.5 167.5t-22.5 129.5q0 150 107.5 236.5t291.5 86.5q156 0 249 -68.5t93 -181.5q0 -96 -73.5 -167.5t-237.5 -131.5l309 -438q90 113 123 174.5t33 122.5q0 45 -22.5 59.5t-112.5 24.5v49h422v-49q-66 -6 -93.5 -21.5 t-56.5 -60.5l-55 -90q-63 -100 -191 -277q86 -111 135.5 -148.5t108.5 -37.5q70 0 119 78l41 -25l-33 -53q-2 -2 -12.5 -19.5t-16.5 -26.5t-20 -28.5t-26.5 -32t-31 -30t-38 -28.5t-44 -21.5t-53 -15.5t-59.5 -5q-82 0 -147.5 39t-157.5 141q-240 -178 -455 -178 q-172 0 -281.5 101.5t-109.5 259.5zM412 541q0 -131 99 -273.5t230 -142.5q74 0 185 80q-76 98 -264 381l-99 147q-84 -49 -117.5 -92t-33.5 -100zM662 1233q0 -119 151 -307q78 27 110.5 64.5t32.5 101.5q0 102 -56 179t-132 77q-49 0 -77.5 -31t-28.5 -84z" />
<glyph unicode="'" horiz-adv-x="569" d="M154 1270q0 66 35.5 105.5t95.5 39.5q57 0 95 -39t38 -98q0 -57 -90 -451h-84q-90 369 -90 443z" />
<glyph unicode="(" horiz-adv-x="681" d="M94 530q0 406 268 697q59 63 114.5 103t150.5 91v-55q-121 -80 -181.5 -167t-90 -242.5t-29.5 -428.5q0 -135 11 -245.5t24.5 -184t44 -138t47 -95.5t59.5 -69t55.5 -46t59.5 -37v-57q-150 90 -231 165t-152 185q-150 237 -150 524z" />
<glyph unicode=")" horiz-adv-x="681" d="M55 -289q121 80 182.5 170t90 244t28.5 424q0 184 -20.5 323.5t-44 214t-74.5 138t-75.5 81t-86.5 58.5v57q70 -43 126.5 -83t137 -120.5t135 -168.5t94.5 -221.5t40 -282.5q0 -406 -271 -695q-100 -109 -262 -194v55z" />
<glyph unicode="*" horiz-adv-x="1038" d="M123 813q0 59 57.5 89t150.5 44.5t118 24.5q-23 10 -115 28.5t-149.5 49t-57.5 88.5q0 43 30.5 75.5t73.5 32.5q41 0 86 -41t92.5 -99t71.5 -77q-4 41 -35.5 131t-31.5 137t28.5 77t73.5 30q47 0 78 -30t31 -77q0 -45 -36 -136t-40 -130q25 18 75 73.5t96 94.5t85 39 q43 0 72.5 -33t29.5 -76q0 -59 -57 -88.5t-150.5 -45t-117.5 -25.5q25 -10 117 -27.5t149 -48.5t57 -88q0 -43 -31.5 -76t-74.5 -33q-41 0 -86 41t-91.5 98.5t-70.5 75.5q4 -41 34.5 -131t30.5 -137q0 -45 -28.5 -75.5t-73.5 -30.5q-47 0 -77.5 29.5t-30.5 76.5 q0 49 35.5 139t39.5 129q-25 -16 -74 -72.5t-96 -96.5t-86 -40q-41 0 -71.5 34t-30.5 77z" />
<glyph unicode="+" horiz-adv-x="1384" d="M127 428v197h469v456h197v-456h464v-197h-464v-461h-197v461h-469z" />
<glyph unicode="," horiz-adv-x="512" d="M80 147q0 78 46 124t124 46q92 0 149.5 -65.5t57.5 -171.5q0 -133 -81 -239.5t-259 -209.5l-23 45q223 156 223 271q0 45 -38 45q-4 0 -14.5 -2t-35.5 -2q-66 0 -107.5 44.5t-41.5 114.5z" />
<glyph unicode="-" horiz-adv-x="681" d="M90 350v238h498v-238h-498z" />
<glyph unicode="." horiz-adv-x="512" d="M84 147q0 70 51 121t121 51q72 0 123 -52t51 -123.5t-51 -121t-125 -49.5q-72 0 -121 50t-49 124z" />
<glyph unicode="/" horiz-adv-x="569" d="M-49 -39l483 1454h184l-483 -1454h-184z" />
<glyph unicode="0" horiz-adv-x="1024" d="M49 696q0 301 133 507t330 206q199 0 331 -206t132 -513q0 -309 -131 -513t-330 -204q-205 0 -335 203t-130 520zM373 455q0 -227 32.5 -325.5t108.5 -98.5q68 0 102.5 92t34.5 332v469q0 227 -32.5 327.5t-108.5 100.5q-74 0 -105.5 -98.5t-31.5 -329.5v-469z" />
<glyph unicode="1" horiz-adv-x="1024" d="M133 1133v53l516 223h35v-1167q0 -119 41 -155t180 -38v-49h-768v49q152 2 198 40t46 165v788q0 141 -74 142q-25 0 -58.5 -10.5t-71.5 -24.5t-44 -16z" />
<glyph unicode="2" horiz-adv-x="1024" d="M35 0v47q350 373 464.5 550t114.5 318q0 104 -67.5 182.5t-175.5 78.5q-158 0 -250 -185h-58q156 418 451 418q166 0 272.5 -105.5t106.5 -269.5q0 -225 -234 -446l-331 -316h309q158 0 203 25t90 135h49l-92 -432h-852z" />
<glyph unicode="3" horiz-adv-x="1024" d="M33 156q0 51 36.5 84.5t96.5 33.5q68 0 129 -50t117.5 -100t111.5 -50q92 0 146.5 65.5t54.5 175.5q0 88 -31.5 157t-95 117t-126 77.5t-159.5 62.5v35q145 47 206 107.5t61 160.5q0 96 -56.5 153.5t-152.5 57.5q-80 0 -136.5 -39t-115.5 -133l-43 25q168 313 469 313 q158 0 246 -74.5t88 -206.5q0 -90 -36 -145t-134 -115q250 -113 249 -364q0 -223 -178 -378t-434 -155q-141 0 -227 50.5t-86 134.5z" />
<glyph unicode="4" horiz-adv-x="1024" d="M39 295v231q166 262 520 725l121 158h164v-887h129v-227h-129v-295h-297v295h-508zM123 522h428v608z" />
<glyph unicode="5" horiz-adv-x="1024" d="M45 164q0 53 36 88t91 35q74 0 199 -89t188 -89q86 0 145.5 59t59.5 145q0 102 -77 184.5t-214 125.5q-115 37 -369 55l199 706h660l-89 -260h-569l-45 -166q213 -12 309 -40q168 -47 261.5 -164t93.5 -277q0 -217 -162 -355t-416 -138q-137 0 -219 49t-82 131z" />
<glyph unicode="6" horiz-adv-x="1024" d="M57 559q0 418 351 660q117 80 234.5 120.5t320.5 69.5v-53q-223 -45 -355.5 -174t-189.5 -355q80 35 172 35q174 0 278.5 -110.5t104.5 -296.5q0 -209 -125 -345.5t-316 -136.5q-215 0 -345 160t-130 426zM377 496q0 -188 21.5 -295t53 -139.5t85.5 -32.5 q76 0 100.5 60.5t24.5 242.5q0 244 -41 341t-144 97q-47 0 -66.5 -18.5t-26.5 -72.5t-7 -183z" />
<glyph unicode="7" horiz-adv-x="1024" d="M35 930l90 454h852l-481 -1384h-195l410 1104h-424q-84 0 -128 -38t-73 -136h-51z" />
<glyph unicode="8" horiz-adv-x="1024" d="M57 322q0 141 81 216.5t227 125.5q-152 90 -218.5 181t-66.5 206q0 162 126 260t333 98q182 0 290.5 -80t108.5 -217q0 -98 -65.5 -165.5t-213.5 -119.5q164 -104 236 -207.5t72 -236.5q0 -184 -131 -297t-344 -113q-195 0 -315 96.5t-120 252.5zM305 330 q0 -137 52.5 -214t146.5 -77q82 0 130 59.5t48 161.5q0 113 -52 183.5t-220 183.5q-61 -90 -83 -151.5t-22 -145.5zM344 1180q0 -178 266 -316q51 68 67.5 115t16.5 119q0 121 -47 186.5t-133 65.5q-72 0 -121 -49t-49 -121z" />
<glyph unicode="9" horiz-adv-x="1024" d="M53 926q0 211 124 347t317 136q215 0 345 -159.5t130 -426.5q0 -395 -320 -637q-121 -90 -245.5 -136t-340.5 -77v54q221 45 352.5 172t196.5 360q-76 -39 -186 -39q-168 0 -270.5 112t-102.5 294zM365 1055q0 -242 39.5 -342.5t134.5 -100.5q16 0 29.5 1t22.5 4l15 6 q6 2 11 7l9 8q3 3 4 9t2 8t1 9v8l6 53q10 154 10 213q0 231 -41 323.5t-119 92.5q-76 0 -100 -60.5t-24 -238.5z" />
<glyph unicode=":" horiz-adv-x="681" d="M168 147q0 70 51 121t121 51q72 0 123 -52t51 -123.5t-51 -121t-125 -49.5q-72 0 -121 50t-49 124zM168 797q0 70 51 120t121 50q72 0 123 -51.5t51 -123t-51 -121.5t-123 -50q-74 0 -123 50t-49 126z" />
<glyph unicode=";" horiz-adv-x="681" d="M168 147q0 78 47 124t123 46q92 0 149.5 -65.5t57.5 -171.5q0 -133 -81 -239.5t-259 -209.5l-23 45q223 156 224 273q0 16 -11.5 29.5t-25.5 13.5h-15l-24 -4h-17q-23 0 -51.5 10t-61 49t-32.5 100zM168 797q0 70 51 120t121 50q72 0 123 -51.5t51 -123t-51 -121.5 t-123 -50q-74 0 -123 50t-49 126z" />
<glyph unicode="&#x3c;" horiz-adv-x="1384" d="M127 479v94l1130 531v-205l-794 -373l794 -372v-205z" />
<glyph unicode="=" horiz-adv-x="1384" d="M127 178v197h1130v-197h-1130zM127 678v196h1130v-196h-1130z" />
<glyph unicode="&#x3e;" horiz-adv-x="1384" d="M1257 574v-94l-1130 -531v205l794 373l-794 372v205z" />
<glyph unicode="?" horiz-adv-x="1024" d="M117 1116q0 129 108.5 212t276.5 83q184 0 296.5 -93t112.5 -247q0 -106 -54 -180t-193 -160q-96 -59 -121 -102t-25 -156h-61q-4 61 -4 94q0 70 37.5 142.5t76.5 162t39 199.5q0 127 -45 196.5t-127 69.5q-55 0 -90 -22.5t-35 -59.5q0 -25 38 -67.5t38 -95.5 q0 -59 -36 -95t-93 -36q-59 0 -99 43.5t-40 111.5zM315 147q0 70 52.5 121t122 51t121 -51t51.5 -122.5t-50.5 -122t-122.5 -50.5q-74 0 -124 50t-50 124z" />
<glyph unicode="@" horiz-adv-x="1904" d="M221 676q0 309 225.5 524t546.5 215q293 0 491.5 -178t198.5 -438q0 -205 -115.5 -355.5t-271.5 -150.5q-76 0 -129 42t-63 111q-53 -70 -123 -110.5t-135 -40.5q-82 0 -137.5 67.5t-55.5 167.5q0 53 20.5 133t63.5 174.5t130 160t202 65.5q55 0 86 -21.5t64 -87.5l22 82 h145l-135 -532q-4 -20 -4 -37q0 -98 78 -98q102 0 182 129t80 290q0 221 -176 384t-416 163q-256 0 -420.5 -189.5t-164.5 -479.5q0 -268 172 -439.5t440 -171.5q184 0 408 101l26 -72q-150 -70 -247 -96.5t-212 -26.5q-328 0 -552 207t-224 508zM811 567q0 -82 33 -129 t88 -47q68 0 127 79t91 183.5t32 194.5q0 115 -84 115q-96 0 -191.5 -115t-95.5 -281z" />
<glyph unicode="A" horiz-adv-x="1478" d="M18 0v51q74 14 108 55t93 185l455 1122h57l457 -1077q76 -180 115.5 -232.5t99.5 -52.5h8v-51h-663v51q43 6 65 6q98 6 98 67.5t-94 278.5h-461l-30 -79q-59 -154 -60 -189q0 -39 39 -58.5t129 -25.5v-51h-416zM387 483h399l-206 498z" />
<glyph unicode="B" horiz-adv-x="1366" d="M33 0v51q113 12 146.5 40t33.5 106v991q0 78 -37 108.5t-143 36.5v51h633q256 0 394 -85t138 -242q0 -117 -73.5 -187.5t-252.5 -121.5q395 -84 396 -363q0 -174 -158 -279.5t-418 -105.5h-659zM541 190q0 -68 28.5 -96t96.5 -28q250 0 249 301q0 336 -313 335h-61v-512z M541 764q188 4 253.5 60.5t65.5 217.5q0 145 -51 213t-158 68q-59 0 -84.5 -22.5t-25.5 -77.5v-459z" />
<glyph unicode="C" horiz-adv-x="1478" d="M100 682q0 313 204 523t509 210q96 0 181 -25.5t142.5 -50t88.5 -24.5q29 0 49 20.5t41 73.5h55v-479h-51q-20 45 -43 85t-70 105.5t-96 111.5t-122 81t-148 35q-184 0 -280.5 -166t-96.5 -484q0 -639 411 -639q135 0 246 65.5t226 186.5l61 -51l-27 -31q-27 -29 -33 -35 l-37 -37q-30 -30 -46.5 -42.5t-51 -38t-60.5 -37.5t-67 -29.5t-78.5 -27t-85 -15.5t-96.5 -6q-317 0 -521 203t-204 518z" />
<glyph unicode="D" horiz-adv-x="1482" d="M33 0v51q88 2 129 35t41 100v1010q0 70 -36 98.5t-134 38.5v51h624q354 0 557 -180t203 -497.5t-202.5 -512t-534.5 -194.5h-647zM535 190q0 -70 24.5 -94t93.5 -24q408 0 408 604q0 180 -37 311t-98.5 198.5t-128 98.5t-142.5 31q-121 0 -120 -72v-1053z" />
<glyph unicode="E" horiz-adv-x="1366" d="M33 0v51q115 12 147.5 39t32.5 107v991q0 78 -37 108.5t-143 36.5v51h1181v-411h-51q-39 205 -137 273.5t-348 68.5q-80 0 -106.5 -19.5t-26.5 -76.5v-476h8q162 0 231.5 67t92.5 239h53v-693h-53q-18 178 -91 248t-241 70v-496q0 -66 35.5 -90.5t134.5 -24.5 q223 0 339.5 90.5t200.5 272.5h58l-82 -426h-1198z" />
<glyph unicode="F" horiz-adv-x="1251" d="M33 0v51q115 12 147.5 39t32.5 107v991q0 80 -37 109.5t-143 35.5v51h1161v-411h-49q-12 55 -18.5 78.5t-23 69.5t-34.5 66.5t-53 50.5t-80 43t-110.5 23.5t-149.5 10.5q-78 0 -104.5 -19.5t-26.5 -76.5v-476q154 0 219 64.5t94 241.5h51v-693h-51q-20 178 -88 246 t-225 72v-477q0 -84 42 -112t183 -34v-51h-737z" />
<glyph unicode="G" horiz-adv-x="1593" d="M76 678q0 315 203.5 526t508.5 211q96 0 181.5 -25.5t142.5 -50t88 -24.5q29 0 49.5 20.5t40.5 73.5h56v-479h-52q-53 117 -97 181.5t-110 121.5q-133 115 -272 115q-186 0 -281.5 -167t-95.5 -489q0 -367 133 -536q98 -127 283 -127q102 0 149.5 35.5t47.5 113.5v215 q0 84 -38 109.5t-169 34.5v51h702v-51q-115 -12 -145.5 -45t-30.5 -144v-260q-98 -57 -251.5 -92t-313.5 -35q-322 0 -525.5 200t-203.5 517z" />
<glyph unicode="H" horiz-adv-x="1585" d="M33 0v51q106 14 140 42t34 104v991q0 76 -36 105.5t-138 39.5v51h690v-51q-106 -8 -145 -37.5t-39 -107.5v-424h493v424q0 78 -39 107.5t-145 37.5v51h696v-51q-104 -8 -142 -38.5t-38 -106.5v-991q0 -76 35 -103.5t145 -42.5v-51h-696v51q113 12 148.5 41t35.5 105v471 h-493v-471q0 -76 35.5 -105t148.5 -41v-51h-690z" />
<glyph unicode="I" horiz-adv-x="790" d="M33 0v51q115 10 152.5 39t37.5 107v991q0 78 -40 107.5t-150 37.5v51h717v-51q-113 -4 -154 -34.5t-41 -110.5v-991q0 -80 39 -109t156 -37v-51h-717z" />
<glyph unicode="J" horiz-adv-x="1024" d="M6 74q0 59 43 103t101 44q59 0 104 -46t45 -107q0 -39 -27.5 -75t-27.5 -56q0 -29 25.5 -47.5t66.5 -18.5q70 0 100.5 42t30.5 136v1139q0 82 -41 111.5t-166 33.5v51h721v-51q-115 -8 -148.5 -43t-33.5 -145v-893q0 -219 -112 -334t-327 -115q-152 0 -253 74t-101 197z " />
<glyph unicode="K" horiz-adv-x="1564" d="M33 0v51q111 12 144.5 40t33.5 106v991q0 80 -36 109.5t-142 35.5v51h692v-51q-113 -8 -147.5 -44t-34.5 -144v-438l444 446q47 47 60.5 67.5t13.5 45.5q0 39 -34 50t-140 17v51h592v-51q-150 -12 -259.5 -90t-398.5 -375l625 -774q35 -41 100 -43v-51h-688v51q29 2 66 2 q96 6 96 41q0 29 -49 90l-373 465l-55 -51v-401q0 -76 34.5 -103.5t145.5 -42.5v-51h-690z" />
<glyph unicode="L" horiz-adv-x="1359" d="M33 0v51q113 14 144.5 41t31.5 105v991q0 78 -36 108.5t-140 36.5v51h715v-51q-133 -6 -170 -39.5t-37 -148.5v-967q0 -66 34.5 -90.5t129.5 -24.5q59 0 111 8.5t93 20.5t79 36t63.5 40t52 50t41 51.5t33 54t24.5 50t21.5 50.5t17.5 41h59l-83 -465h-1184z" />
<glyph unicode="M" horiz-adv-x="1931" d="M33 0v51q119 12 152.5 42t33.5 122v973q0 80 -34.5 108.5t-147.5 36.5v51h518l410 -966l409 966h516v-51q-113 -8 -146.5 -43t-33.5 -145v-905q0 -109 31 -141.5t149 -47.5v-51h-680v51q115 10 149 39t34 115v1042l-516 -1247h-56l-516 1217v-963q0 -115 41 -155t166 -48 v-51h-479z" />
<glyph unicode="N" horiz-adv-x="1478" d="M33 0v51q113 14 146.5 45t33.5 119v971q-74 88 -108.5 117.5t-65.5 29.5v51h432l715 -878v624q0 109 -39 151t-152 52v51h441v-51q-100 -16 -130 -46t-30 -118v-1206h-57l-916 1114v-823q0 -109 38 -148.5t157 -54.5v-51h-465z" />
<glyph unicode="O" horiz-adv-x="1593" d="M72 686q0 319 205.5 524t527.5 205q309 0 513 -207t204 -520q0 -317 -204 -522t-521.5 -205t-521 204t-203.5 521zM434 668q0 -311 93.5 -475t269.5 -164t269 164.5t93 480.5q0 319 -93 496.5t-263 177.5q-180 0 -274.5 -174t-94.5 -506z" />
<glyph unicode="P" horiz-adv-x="1251" d="M33 0v51q45 8 49 8q72 8 97.5 46t25.5 135v905q0 109 -33 144.5t-139 43.5v51h659q256 0 396.5 -97t140.5 -275q0 -119 -66.5 -209t-189.5 -137q-68 -27 -148 -35t-288 -10v-381q0 -113 29.5 -142.5t150.5 -46.5v-51h-684zM537 692q201 0 270.5 61.5t69.5 247.5 q0 166 -55.5 239t-182.5 73q-102 0 -102 -72v-549z" />
<glyph unicode="Q" horiz-adv-x="1593" d="M72 678q0 319 205.5 528t519.5 209q317 0 521 -205.5t204 -525.5q0 -303 -193 -508q-66 -70 -133.5 -108.5t-191.5 -79.5q123 -252 354 -252q49 0 137 24l12 -49q-199 -72 -366 -71q-287 0 -467 180q-59 59 -115 176q-117 43 -179.5 83t-125.5 109q-182 201 -182 490z M434 678q0 -319 92 -484t271 -165q176 0 269 165.5t93 481.5q0 319 -94 495.5t-266 176.5q-176 0 -270.5 -174t-94.5 -496z" />
<glyph unicode="R" horiz-adv-x="1458" d="M33 0v51q121 14 150.5 45t29.5 144v905q0 111 -34 145.5t-146 42.5v51h659q281 0 429.5 -94t148.5 -270q0 -63 -19.5 -116.5t-47 -87.5t-74 -62.5t-86 -45t-95.5 -34.5l412 -584q31 -39 84 -39v-51h-420l-424 641h-55v-401q0 -109 30.5 -141.5t149.5 -47.5v-51h-692z M545 707q219 4 297 63t78 242q0 162 -61.5 232.5t-203.5 70.5q-111 0 -110 -86v-522z" />
<glyph unicode="S" horiz-adv-x="1138" d="M72 -39v506h59q106 -438 418 -438q119 0 188.5 63.5t69.5 169.5q0 80 -47 131t-182 115l-138 65q-182 88 -266 189.5t-84 236.5q0 195 120 305.5t329 110.5q98 0 204.5 -33.5t120.5 -33.5q27 0 41.5 15t24.5 54h61v-444h-57q-59 195 -164.5 287t-230.5 92 q-104 0 -165 -55.5t-61 -149.5q0 -74 44 -122t167 -110l301 -149q98 -49 162 -153.5t64 -219.5q0 -193 -140.5 -312.5t-367.5 -119.5q-111 0 -220.5 35t-129.5 35q-45 0 -62 -70h-59z" />
<glyph unicode="T" horiz-adv-x="1366" d="M63 973l7 411h1228l5 -411h-60q-27 182 -116 261t-277 85v-1079q0 -117 34 -148t167 -41v-51h-732v51q131 10 165 42t34 147v1079q-190 -6 -279 -85t-116 -261h-60z" />
<glyph unicode="U" horiz-adv-x="1478" d="M33 1333v51h692v-51q-123 -4 -161 -37.5t-38 -150.5v-684q0 -209 72 -304.5t229 -95.5q182 0 270.5 109t88.5 336v624q0 113 -40 153t-161 50v51h451v-51q-98 -14 -129 -49t-31 -125v-653q0 -545 -528 -545q-229 0 -379 109q-94 68 -131 153.5t-37 237.5v684 q0 111 -29.5 144.5t-138.5 43.5z" />
<glyph unicode="V" horiz-adv-x="1478" d="M33 1333v51h688v-51q-61 -4 -68 -4q-109 -6 -108 -74q0 -37 47 -147l282 -684l261 674q41 104 41 145q0 49 -33 65.5t-144 24.5v51h437v-51q-80 -10 -114 -40.5t-71 -127.5l-467 -1202h-55l-524 1227q-39 84 -67.5 108.5t-104.5 34.5z" />
<glyph unicode="W" horiz-adv-x="2048" d="M39 1333v51h602v-51q-80 -6 -105.5 -23.5t-25.5 -62.5q0 -23 14 -67l246 -746l242 631l-72 197q-31 66 -147 71v51h639v-51q-12 -2 -27 -2q-68 -4 -94.5 -20.5t-26.5 -53.5q0 -23 29 -114l221 -688l229 702q14 41 15 86q0 47 -30 66.5t-112 23.5v51h373v-51 q-102 -10 -141 -131l-410 -1233h-55l-350 977l-381 -977h-58l-434 1233q-27 76 -51 98.5t-90 32.5z" />
<glyph unicode="X" horiz-adv-x="1478" d="M33 0v51q76 8 121 33t92 82l358 452l-405 596q-47 70 -78 92.5t-86 26.5v51h708v-51q-57 -4 -63 -4q-55 -2 -76.5 -16.5t-21.5 -46.5q0 -29 30 -76l199 -307q33 47 80 110.5t68.5 92t45 65.5t31.5 60.5t8 45.5q0 49 -38 62q-14 4 -109 14v51h512v-51q-115 -10 -182.5 -63 t-202.5 -236l-164 -227l373 -580q74 -111 109.5 -142.5t89.5 -33.5v-51h-697v51q53 4 58 4q106 6 106 58q0 43 -43 110l-207 332l-78 -104q-115 -156 -153.5 -219.5t-38.5 -96.5q0 -39 36 -56.5t130 -27.5v-51h-512z" />
<glyph unicode="Y" horiz-adv-x="1478" d="M31 1333v51h686v-51l-51 -2q-63 0 -89 -14t-26 -47q0 -20 10 -44t23.5 -46.5t15.5 -30.5l246 -475l227 379q80 131 80 194q0 45 -35 61.5t-137 24.5v51h451v-51q-100 -14 -140 -80l-391 -637v-376q0 -113 31 -145t158 -44v-51h-711v51q125 12 157.5 44t32.5 145v301 l-374 680q-64 106 -164 112z" />
<glyph unicode="Z" horiz-adv-x="1366" d="M57 0v33l783 1280q-39 -2 -98.5 -4t-71.5 -2q-229 0 -323.5 -65.5t-168.5 -278.5h-57l43 421h1073v-32l-776 -1280h151q389 0 521 153q55 68 102 234q8 27 10 35h53l-53 -494h-1188z" />
<glyph unicode="[" horiz-adv-x="681" d="M137 -305v1694h479v-68h-129q-86 0 -111.5 -26.5t-25.5 -116.5v-1307q0 -66 19.5 -87.5t83.5 -21.5h163v-67h-479z" />
<glyph unicode="\" horiz-adv-x="569" d="M-51 1415h190l482 -1454h-189z" />
<glyph unicode="]" horiz-adv-x="681" d="M66 -238h163q63 0 83 20.5t20 88.5v1307q0 90 -25.5 116.5t-111.5 26.5h-129v68h479v-1694h-479v67z" />
<glyph unicode="^" horiz-adv-x="1189" d="M150 637l364 747h164l364 -747h-182l-264 557l-264 -557h-182z" />
<glyph unicode="_" horiz-adv-x="1024" d="M0 -154h1024v-102h-1024v102z" />
<glyph unicode="`" horiz-adv-x="681" d="M16 1368q0 39 28 65.5t69 26.5q59 0 110 -57l281 -322h-115l-291 181q-82 51 -82 106z" />
<glyph unicode="a" horiz-adv-x="1024" d="M51 188q0 63 34 117.5t79 89.5t124 70t134 53.5t145 44.5q23 6 35 10v150q0 94 -41 137t-131 43q-53 0 -91 -21.5t-38 -54.5q0 -10 30.5 -54t30.5 -79q0 -53 -38.5 -86t-100.5 -33q-63 0 -98 36t-35 100q0 115 106.5 186.5t280.5 71.5q186 0 296 -76t110 -205v-534 q0 -51 43 -52q14 0 22 9l21 20l30 -43q-109 -117 -229 -117q-76 0 -114 33t-54 111q-158 -143 -323 -144q-98 0 -163 61.5t-65 155.5zM350 254q0 -61 29 -99t76 -38q70 0 145 88v297q-250 -66 -250 -248z" />
<glyph unicode="b" horiz-adv-x="1138" d="M35 1335v49h397v-530q109 115 250 115q170 0 277.5 -133.5t107.5 -346.5q0 -229 -129 -373.5t-334 -144.5q-139 0 -270 117l-162 -115h-25v1244q0 61 -20 82.5t-92 35.5zM432 199q0 -74 39 -118t102 -44q193 0 193 416q0 406 -191 405q-96 0 -143 -121v-538z" />
<glyph unicode="c" horiz-adv-x="909" d="M51 457q0 221 137.5 366.5t346.5 145.5q135 0 226 -64.5t91 -161.5q0 -59 -37 -94t-102 -35q-113 0 -115 148q0 86 -10 104q-20 39 -76 39q-80 0 -126 -91t-46 -249q0 -209 79 -332.5t212 -123.5q63 0 109 25.5t104 88.5l37 -37q-90 -115 -181.5 -165t-210.5 -50 q-190 0 -314 137.5t-124 348.5z" />
<glyph unicode="d" horiz-adv-x="1138" d="M51 453q0 223 111.5 369.5t281.5 146.5q70 0 124.5 -28t119.5 -99v375q0 72 -26.5 91t-129.5 27v49h441v-1177q0 -66 25.5 -90.5t95.5 -28.5v-47l-127 -16q-152 -16 -273 -52v133q-72 -76 -131 -105.5t-141 -29.5q-162 0 -266.5 136.5t-104.5 345.5zM354 469 q0 -383 160 -383q68 0 121 58.5t53 84.5v498q-20 57 -64 92t-96 35q-174 0 -174 -385z" />
<glyph unicode="e" horiz-adv-x="909" d="M51 467q0 225 118 363.5t310 138.5q350 0 383 -467h-516q2 -55 8 -99.5t21.5 -100.5t41 -93t69.5 -63.5t104 -26.5q66 0 119 30.5t114 106.5l49 -29q-100 -143 -187 -199.5t-212 -56.5q-190 0 -306 136.5t-116 359.5zM336 578h274v30q-2 66 -4 100.5t-10 78.5t-21.5 65.5 t-37 37t-58.5 15.5q-76 0 -107.5 -71.5t-35.5 -255.5z" />
<glyph unicode="f" horiz-adv-x="681" d="M29 0v49q70 8 93 32.5t23 90.5v682h-116v90h116q0 90 7.5 154.5t29 128t60.5 102.5t104.5 62.5t157.5 23.5q129 0 211 -57.5t82 -147.5q0 -57 -35 -92t-92 -35q-51 0 -87 33t-36 80q0 27 22.5 67t22.5 50q0 39 -60 39q-53 0 -77.5 -37t-24.5 -121v-250h178v-90h-178v-643 q0 -100 31 -130t137 -32v-49h-569z" />
<glyph unicode="g" horiz-adv-x="1024" d="M57 -233q0 125 197 153q-98 35 -133 70t-35 98q0 156 244 240q-254 106 -254 311q0 145 116.5 237.5t299.5 92.5q106 0 229 -45h266v-109h-166q82 -82 82 -201q0 -49 -16.5 -97t-54 -96t-111.5 -77t-174 -29l-92 2q-61 0 -100.5 -29.5t-39.5 -76.5q0 -43 41 -57.5 t164 -14.5h133q158 0 247 -66.5t89 -185.5q0 -152 -132 -230.5t-388 -78.5q-195 0 -303.5 50.5t-108.5 138.5zM238 -219q0 -137 274 -137q152 0 233.5 37.5t81.5 109.5q0 102 -163 103h-355q-43 -35 -57 -57.5t-14 -55.5zM356 637q0 -143 31 -203.5t105 -60.5 q72 0 103.5 60.5t31.5 203.5t-32 205.5t-103.5 62.5t-103.5 -62.5t-32 -205.5z" />
<glyph unicode="h" horiz-adv-x="1138" d="M33 0v49q70 14 89 37t19 86v1045q0 63 -19.5 83.5t-88.5 34.5v49h393v-575q80 88 144.5 124t146.5 36q127 0 201.5 -79t74.5 -210v-508q0 -63 22.5 -91t78.5 -32v-49h-482v49q51 6 74 33t23 84v496q0 170 -107 169q-57 0 -116.5 -48t-59.5 -70v-547q0 -57 21.5 -83 t78.5 -34v-49h-493z" />
<glyph unicode="i" horiz-adv-x="569" d="M33 0v49q70 16 89 38t19 85v602q0 63 -20.5 85t-87.5 36v49h393v-778q0 -57 21.5 -83t74.5 -34v-49h-489zM123 1257q0 66 47 112t112.5 46t111.5 -47t46 -113q0 -68 -46 -112.5t-113.5 -44.5t-112.5 44.5t-45 114.5z" />
<glyph unicode="j" horiz-adv-x="681" d="M-117 -211q0 55 35 90t92 35q49 0 85 -33t36 -78q0 -27 -23.5 -67.5t-23.5 -52.5q0 -35 66 -35q98 0 98 155v971q0 66 -25.5 90.5t-103.5 30.5v49h413v-940q0 -420 -362 -420q-127 0 -207 57.5t-80 147.5zM221 1257q0 66 46 112t111.5 46t113 -47t47.5 -112.5 t-47.5 -111.5t-112.5 -46q-70 0 -114 44.5t-44 114.5z" />
<glyph unicode="k" horiz-adv-x="1138" d="M45 0v49q98 8 98 123v1045q0 111 -98 118v49h383v-882l262 262q43 43 43 78q0 12 -6 21t-20.5 14.5t-24.5 8.5t-35.5 6t-34.5 5v47h439v-47q-96 -12 -165 -59t-222 -209l397 -549q23 -31 51 -31v-49h-479v49q86 4 86 39q0 20 -49 92l-195 275l-47 -49v-234 q0 -72 17.5 -92.5t89.5 -30.5v-49h-490z" />
<glyph unicode="l" horiz-adv-x="569" d="M33 0v49q104 8 104 123v1045q0 111 -104 118v49h389v-1212q0 -121 100 -123v-49h-489z" />
<glyph unicode="m" horiz-adv-x="1705" d="M33 0v49q68 12 90 36t22 87v602q0 63 -22.5 88t-89.5 33v49h391v-153q113 178 301 178q96 0 155.5 -41t106.5 -137q80 98 146.5 138t154.5 40q127 0 202 -79t75 -210v-514q0 -66 21.5 -89.5t80.5 -27.5v-49h-487v49q59 4 79.5 28.5t20.5 88.5v496q0 90 -25.5 129.5 t-83.5 39.5q-53 0 -113.5 -48t-60.5 -70v-547q0 -59 21.5 -85t75.5 -32v-49h-480v49q57 4 78 28.5t21 88.5v496q0 92 -25.5 130.5t-85.5 38.5q-55 0 -113.5 -47t-58.5 -71v-547q0 -59 20.5 -84t73.5 -33v-49h-491z" />
<glyph unicode="n" horiz-adv-x="1138" d="M43 0v49q70 14 89.5 37t19.5 86v602q0 63 -20.5 87t-88.5 34v49h391v-153q113 178 293 178q127 0 202 -79t75 -210v-514q0 -66 20 -89.5t80 -27.5v-49h-481v49q51 6 73.5 33t22.5 84v496q0 170 -107 169q-57 0 -116.5 -48t-59.5 -70v-547q0 -57 21.5 -83t79.5 -34v-49 h-494z" />
<glyph unicode="o" horiz-adv-x="1024" d="M51 475q0 209 134 351.5t329 142.5q199 0 330 -142.5t131 -357.5q0 -213 -131 -355.5t-330 -142.5q-201 0 -332 142.5t-131 361.5zM352 438q0 -225 36 -314t126 -89t125 93t35 329q0 252 -35 350t-123 98q-94 0 -129 -98.5t-35 -368.5z" />
<glyph unicode="p" horiz-adv-x="1138" d="M39 -371q74 12 94.5 34t20.5 85v1026q0 63 -21.5 87t-89.5 34v49h391v-141q47 88 107.5 127t150.5 39q170 0 275.5 -133.5t105.5 -346.5q0 -227 -110.5 -371.5t-282.5 -144.5q-68 0 -118 26t-124 97v-289q0 -102 33 -141t127 -43v-43h-559v49zM438 211q49 -125 158 -125 q174 0 174 375q0 391 -156 391q-66 0 -121 -56.5t-55 -86.5v-498z" />
<glyph unicode="q" horiz-adv-x="1138" d="M70 449q0 229 127 374.5t327 145.5q76 0 133.5 -24.5t137.5 -92.5l159 115h31v-1219q0 -61 20.5 -82.5t92.5 -36.5v-49h-547v51q100 18 124.5 47t24.5 123v285q-117 -115 -251 -115q-168 0 -273.5 133.5t-105.5 344.5zM369 483q0 -401 190 -401q109 0 141 119v538 q0 74 -37.5 119t-99.5 45q-194 0 -194 -420z" />
<glyph unicode="r" horiz-adv-x="909" d="M59 0v49q68 12 89.5 36t21.5 87v602q0 61 -22.5 87t-88.5 34v49h387v-168q72 102 136.5 147.5t140.5 45.5q72 0 119 -45t47 -115q0 -59 -36 -98t-93 -39q-47 0 -83 30.5t-58.5 60.5t-38.5 30q-51 0 -88 -57.5t-37 -137.5v-387q0 -96 27.5 -126t121.5 -36v-49h-545z" />
<glyph unicode="s" horiz-adv-x="796" d="M51 -27v338h58q66 -270 280 -270q70 0 112 37t42 96q0 53 -50.5 94t-122 74t-143 71t-122 103.5t-50.5 153.5q0 129 91.5 214t230.5 85q57 0 133 -22.5t92 -22.5q33 0 49 41h45v-297h-51q-80 233 -250 233q-57 0 -96 -33.5t-39 -85.5q0 -47 36 -85t89 -60.5t114.5 -54 t115 -65.5t89 -94.5t35.5 -139.5q0 -137 -88 -224.5t-227 -87.5q-84 0 -170 30t-98 30q-23 0 -54 -58h-51z" />
<glyph unicode="t" horiz-adv-x="681" d="M41 854v55q100 84 173 166t167 215h51v-346h193v-90h-193v-616q0 -61 18.5 -89t61.5 -28q61 0 117 106l51 -22q-63 -125 -132 -177.5t-171 -52.5q-106 0 -168 57.5t-62 157.5v664h-106z" />
<glyph unicode="u" horiz-adv-x="1138" d="M33 895v49h385v-694q0 -78 25.5 -112t88.5 -34q78 0 168 91v579q0 66 -25.5 90.5t-101.5 30.5v49h412v-737q0 -66 23.5 -91.5t91.5 -27.5v-47l-127 -14q-170 -18 -271 -54v133q-90 -78 -153.5 -106.5t-142.5 -28.5q-127 0 -200 76t-73 211v516q0 63 -18.5 86t-81.5 35z " />
<glyph unicode="v" horiz-adv-x="1024" d="M43 895v49h512v-49q-33 -4 -37 -4q-72 -6 -72 -49q0 -14 19 -64l162 -416l147 373q23 57 23 92q0 37 -23.5 50.5t-89.5 17.5v49h309v-49q-47 -4 -69.5 -24.5t-49.5 -88.5l-327 -811h-53l-246 607q-14 39 -47 109.5t-58.5 123.5t-27.5 53q-17 23 -72 31z" />
<glyph unicode="w" horiz-adv-x="1478" d="M47 895v49h455v-49q-78 -10 -78 -57q0 -29 48 -156t75 -190l49 -132l139 351l-12 39q-29 100 -45 119.5t-76 25.5v49h479v-49q-57 -4 -77.5 -14.5t-20.5 -35t11.5 -62.5t44 -152.5t69.5 -261.5q41 117 78 210t52 126.5t23.5 61.5t8.5 56q0 35 -20.5 50.5t-78.5 21.5v49 h277v-49q-41 -8 -60.5 -26.5t-41.5 -75.5l-318 -822h-47l-209 635l-256 -635h-49l-303 766q-41 102 -59.5 126t-57.5 32z" />
<glyph unicode="x" horiz-adv-x="1024" d="M25 895v49h512v-49q-96 -2 -97 -39q0 -27 53.5 -107.5t92.5 -127.5q31 45 75 97t60 77.5t16 50.5q0 43 -63 45q-4 0 -41 4v49h344v-49q-90 -14 -143 -80l-207 -258l303 -467q16 -27 61 -41v-49h-493v49q92 6 92 41t-68 131l-86 129q-164 -207 -164 -252q0 -43 103 -49 v-49h-346v49q16 0 28.5 3t23.5 6t24.5 12.5t23.5 17.5t27.5 27.5t30 34t38 46t45 57.5t56 73t67.5 86l-262 403q-31 47 -49 60.5t-57 19.5z" />
<glyph unicode="y" horiz-adv-x="1024" d="M33 -258q0 57 36.5 94t94.5 37q53 0 86 -27.5t33 -72.5q0 -10 -3.5 -24.5t-3.5 -16.5q0 -14 10.5 -24.5t24.5 -10.5q35 0 72 46t63 122l37 108l-245 605q-27 68 -78 177t-56 109q-16 23 -71 31v49h512v-49l-33 -2q-76 -6 -76 -51q0 -16 41 -121l148 -379l139 393 q23 63 22 92q0 37 -23.5 50.5t-88.5 17.5v49h309v-49q-47 -4 -70.5 -26.5t-48.5 -86.5l-305 -813q-78 -207 -113 -262q-80 -127 -215 -127q-88 0 -143 45t-55 117z" />
<glyph unicode="z" horiz-adv-x="909" d="M43 0v51l479 828h-22q-199 0 -265.5 -41t-103.5 -185h-53l14 291h760v-53l-473 -825h59q162 0 242 55t123 207h57l-33 -328h-784z" />
<glyph unicode="{" horiz-adv-x="806" d="M45 535q131 33 175 81t44 156v367q0 166 92.5 226t339.5 65v-25q-123 -27 -170 -82t-47 -172v-350q0 -129 -48 -182.5t-193 -83.5q145 -31 193 -84.5t48 -182.5v-350q0 -117 48 -172t169 -80v-24q-246 4 -339 63t-93 225v367q0 109 -44 157t-175 81z" />
<glyph unicode="|" horiz-adv-x="450" d="M135 -39v1454h180v-1454h-180z" />
<glyph unicode="}" horiz-adv-x="806" d="M111 -334q123 27 170 82t47 172v350q0 127 49 181.5t192 85.5q-145 31 -193 84t-48 182v350q0 115 -48.5 171t-168.5 81v25q240 -4 336 -60.5t96 -228.5v-367q0 -109 44 -157t175 -80q-131 -33 -175 -81t-44 -157v-367q0 -166 -92.5 -226t-339.5 -64v24z" />
<glyph unicode="~" horiz-adv-x="1064" d="M59 506q98 172 254 172q80 0 240 -69.5t201 -69.5q68 0 139 92l113 -99q-70 -96 -125.5 -135t-126.5 -39q-86 0 -219.5 70t-225.5 70q-45 0 -75.5 -18.5t-65.5 -67.5z" />
<glyph unicode="&#xa1;" horiz-adv-x="681" d="M516 -211q0 -96 -46 -150.5t-128 -54.5t-127 54t-45 155q0 63 22.5 127.5t59.5 213t61 386.5h60q25 -227 60.5 -379t59 -222.5t23.5 -129.5zM514 852q0 -70 -51 -121t-121 -51q-72 0 -123 52t-51 123.5t51 121t125 49.5q72 0 121 -50t49 -124z" />
<glyph unicode="&#xa2;" horiz-adv-x="1024" d="M109 457q0 219 135 365.5t340 146.5q57 0 123 -17l90 252h82l-99 -278q129 -70 129 -181q0 -57 -37.5 -94t-97.5 -37q-55 0 -90 41l-168 -471q76 -76 170 -75q121 0 215 114l37 -37q-35 -43 -54.5 -63.5t-71.5 -64.5t-118.5 -65.5t-146.5 -21.5q-47 0 -103 15l-96 -273 h-82l105 297q-262 125 -262 447zM397 561q0 -166 64 -299l196 551v6q0 37 -24.5 61.5t-63.5 24.5q-78 0 -125 -94t-47 -250z" />
<glyph unicode="&#xa3;" horiz-adv-x="1024" d="M43 147q0 188 217 189q47 0 105 -14q-4 88 -84 309h-201v133h164q-29 160 -29 237q0 176 113.5 288t302.5 112q143 0 226 -62.5t83 -169.5q0 -68 -38 -107.5t-101 -39.5q-57 0 -92 35t-35 90v8l4 90v6q0 88 -90 88q-51 0 -83 -35.5t-32 -93.5q0 -90 80 -446h233v-133 h-223q4 -78 4 -111q0 -127 -41 -246q121 -45 199 -45q94 0 138 31t67 115h47q-6 -63 -11 -105.5t-23.5 -105t-45.5 -99t-75 -65.5t-113.5 -29t-119.5 27t-136 102q-98 -127 -230 -127q-86 0 -133 45t-47 129zM109 135q0 -45 31.5 -72.5t82.5 -27.5q57 0 92 32.5t56 108.5 q-74 66 -148 66q-53 0 -83.5 -29t-30.5 -78z" />
<glyph unicode="&#xa4;" horiz-adv-x="1024" d="M-53 244l200 200q-76 111 -75 246q0 137 75 250l-200 201l119 114l196 -196q115 72 250 71.5t250 -71.5l196 196l119 -114l-200 -201q76 -121 75 -250q0 -141 -75 -246l200 -200l-119 -119l-196 201q-119 -76 -250 -76t-250 76l-196 -201zM252 690q0 -115 75.5 -193.5 t184.5 -78.5q106 0 183 80t77 188q0 115 -75.5 196t-184.5 81t-184.5 -79t-75.5 -194z" />
<glyph unicode="&#xa5;" horiz-adv-x="1024" d="M-131 1331v53h616v-53q-92 -4 -124.5 -15t-32.5 -44q0 -31 23.5 -81t90 -175t127.5 -256l31 -60l244 471q16 37 16 72q0 49 -30.5 66.5t-129.5 21.5v53h420v-53q-94 -8 -131 -76l-295 -555h228v-102h-269l-8 -23v-137h277v-102h-277v-100q0 -104 38 -139.5t165 -45.5v-51 h-678v51q131 10 170 45t39 140v100h-277v102h277v117l-23 43h-254v102h203l-266 523q-53 100 -170 108z" />
<glyph unicode="&#xa6;" horiz-adv-x="450" d="M135 -39v567h180v-567h-180zM135 848v567h180v-567h-180z" />
<glyph unicode="&#xa7;" horiz-adv-x="1024" d="M117 600q0 121 65.5 185.5t186.5 64.5h39q-127 111 -166 168t-39 131q0 117 86 191.5t219 74.5q119 0 208 -60.5t89 -142.5q0 -51 -41 -91t-92 -40q-45 0 -84 38t-39 79q0 37 43 78t43 49q0 16 -34 29.5t-77 13.5q-76 0 -123 -39t-47 -102q0 -102 213 -244 q340 -223 340 -459q0 -123 -73.5 -174t-215.5 -55q113 -80 161 -148.5t48 -152.5q0 -115 -95 -189.5t-240 -74.5q-127 0 -217.5 60t-90.5 144q0 57 38 95.5t91.5 38.5t93 -34t39.5 -81q0 -41 -47 -75t-47 -42q0 -23 43 -41t97 -18q162 0 161 145q0 47 -16 78t-59 66l-117 94 q-217 176 -280.5 257t-63.5 183zM270 688q0 -55 26 -93t118 -118q94 -82 139 -108.5t90 -26.5q47 0 78 34t31 85q0 96 -149.5 219t-221.5 123q-47 0 -79 -33t-32 -82z" />
<glyph unicode="&#xa8;" horiz-adv-x="681" d="M-4 1233q0 53 39 92t92 39t93 -40t40 -95q0 -53 -39 -91t-94 -38q-53 0 -92 40t-39 93zM426 1235q0 51 39 90t90 39q55 0 95 -40t40 -95q0 -53 -39 -91t-96 -38q-53 0 -91 39t-38 96z" />
<glyph unicode="&#xa9;" horiz-adv-x="1529" d="M53 686q0 307 206 518t507 211q299 0 505 -210t206 -515q0 -313 -206 -521t-515 -208q-293 0 -498 211t-205 514zM199 686q0 -254 163.5 -436t395.5 -182q242 0 407.5 179t165.5 441q0 258 -165 439.5t-400.5 181.5t-401 -181.5t-165.5 -441.5zM360 696q0 190 126 304 t337 114q82 0 169 -23.5t87 -58.5v-147h-39q-53 182 -219 182q-121 0 -186.5 -94t-65.5 -268.5t65.5 -270.5t186.5 -96q86 0 145.5 43t108.5 143h39l-33 -151q-2 -33 -99 -57.5t-183 -24.5q-201 0 -320 109.5t-119 295.5z" />
<glyph unicode="&#xaa;" horiz-adv-x="614" d="M-2 948q0 78 74.5 125t281.5 101v81q0 57 -23.5 82t-78.5 25q-35 0 -59.5 -13.5t-24.5 -31.5q0 -6 20.5 -30.5t20.5 -41.5q0 -33 -27.5 -52t-70.5 -19q-41 0 -63.5 21.5t-22.5 59.5q0 70 71.5 112t192.5 42q119 0 189.5 -45t70.5 -123v-319q0 -31 22 -31q8 0 25 16 l20 -24q-68 -70 -149 -70q-49 0 -73.5 18.5t-35.5 65.5q-100 -84 -208 -84q-68 0 -110 38t-42 97zM199 981q0 -35 18.5 -58.5t46.5 -23.5q47 0 88 53v178q-153 -45 -153 -149z" />
<glyph unicode="&#xab;" horiz-adv-x="1024" d="M47 461v8l416 336q2 0 17.5 14.5t29.5 22.5t29 8q25 0 24 -23q0 -20 -18.5 -57t-51 -84t-60 -84t-63.5 -82l-44 -55q29 -43 97.5 -127t106 -142.5t37.5 -91.5q0 -31 -24 -30q-27 0 -74 47zM449 461v8l415 336q2 0 17.5 14.5t30 22.5t28.5 8q25 0 25 -23q0 -20 -18.5 -57 t-51.5 -84t-60.5 -84t-63.5 -82l-44 -55q29 -43 97.5 -127t106.5 -142.5t38 -91.5q0 -31 -25 -30q-27 0 -74 47z" />
<glyph unicode="&#xac;" horiz-adv-x="1392" d="M127 541v200h1139v-610h-195v410h-944z" />
<glyph unicode="&#xad;" horiz-adv-x="681" d="M90 350v238h498v-238h-498z" />
<glyph unicode="&#xae;" horiz-adv-x="1529" d="M53 686q0 307 206 518t507 211q299 0 505 -210t206 -515q0 -313 -206 -521t-515 -208q-293 0 -498 211t-205 514zM199 686q0 -254 163.5 -436t395.5 -182q242 0 407.5 179t165.5 441q0 258 -165 439.5t-400.5 181.5t-401 -181.5t-165.5 -441.5zM424 313v37q70 4 82 16.5 t12 73.5v523q0 63 -11 74.5t-83 15.5v37h395q109 0 172.5 -53.5t63.5 -143.5q0 -150 -164 -215l119 -168q88 -121 143 -174v-23h-166q-27 0 -51.5 33t-79.5 136.5t-98 172.5h-76v-215q0 -61 12.5 -73.5t81.5 -16.5v-37h-352zM682 700h72q59 0 93 47.5t34 133.5 q0 164 -125 163h-74v-344z" />
<glyph unicode="&#xaf;" horiz-adv-x="681" d="M2 1157v148h676v-148h-676z" />
<glyph unicode="&#xb0;" horiz-adv-x="819" d="M117 1116q0 123 85 208t207.5 85t207.5 -85t85 -208q0 -125 -85 -209t-211 -84q-119 0 -204 86t-85 207zM201 1116q0 -90 61.5 -154.5t145.5 -64.5q88 0 149 64.5t61 154.5q0 88 -62 153.5t-146 65.5q-86 0 -147.5 -64.5t-61.5 -154.5z" />
<glyph unicode="&#xb1;" horiz-adv-x="1384" d="M127 -90v188h1128v-188h-1128zM129 549v196h467v398h197v-398h464v-196h-464v-371h-197v371h-467z" />
<glyph unicode="&#xb2;" horiz-adv-x="614" d="M0 563v29q229 229 303 331.5t74 190.5q0 66 -45 111t-109 45q-96 0 -155 -111h-50q100 250 293 250q109 0 177.5 -63.5t68.5 -163.5q0 -68 -35 -128.5t-116 -138.5l-203 -188h188q102 0 132 15.5t59 80.5h32l-61 -260h-553z" />
<glyph unicode="&#xb3;" horiz-adv-x="614" d="M6 659q0 57 82 84q59 -6 99 -36.5t70 -57t69 -26.5q57 0 93 36.5t36 96.5q0 90 -59.5 145t-207.5 103v20q94 29 133 64.5t39 97.5q0 57 -36.5 91t-96.5 34q-47 0 -80.5 -22.5t-72.5 -80.5l-41 15q111 186 305 186q102 0 159.5 -44t57.5 -122q0 -55 -23.5 -88t-87.5 -68 q164 -68 164 -219q0 -133 -115.5 -226t-281.5 -93q-94 0 -149.5 29.5t-55.5 80.5z" />
<glyph unicode="&#xb4;" horiz-adv-x="681" d="M176 1081l281 322q51 57 108 57q45 0 72 -24.5t27 -65.5q0 -35 -16.5 -56.5t-65.5 -51.5l-291 -181h-115z" />
<glyph unicode="&#xb5;" horiz-adv-x="1138" d="M68 -264q0 27 33.5 168t33.5 276v764h285v-639q0 -68 32.5 -109.5t84.5 -41.5q66 0 151 55v735h285v-737q0 -39 23.5 -67.5t58.5 -28.5q20 0 43 12v-49q-68 -61 -111 -81t-106 -20q-141 0 -207 107q-86 -106 -203 -106.5t-209 71.5q8 -63 38 -168.5t30 -142.5 q0 -156 -129 -156q-63 0 -98 41t-35 117z" />
<glyph unicode="&#xb6;" horiz-adv-x="1105" d="M0 985q0 205 108.5 302t340.5 97h614v-51q-45 -4 -53 -4q-76 -10 -94.5 -26.5t-18.5 -75.5l-2 -21v-1409l2 -20q2 -61 18.5 -77.5t90.5 -25.5q6 0 47 -4v-51h-351v1714h-102v-1714h-358v51q113 10 138.5 26.5t25.5 80.5l2 20v746q-121 4 -206 47t-126 111.5t-58.5 137 t-17.5 146.5zM184 989q0 -315 224 -395v739q-49 -12 -80 -27.5t-69 -50t-56.5 -101.5t-18.5 -165z" />
<glyph unicode="&#xb7;" horiz-adv-x="512" d="M123 506q0 51 39 90t90 39q55 0 95 -40t40 -95q0 -53 -39 -91t-96 -38q-53 0 -91 39t-38 96z" />
<glyph unicode="&#xb8;" horiz-adv-x="681" d="M139 -410l33 76q82 -29 123 -28q117 0 117 83q0 74 -95 74q-27 0 -57 -8l-22 16l88 197h86l-58 -131q31 10 68 10q84 0 132 -38t48 -105q0 -84 -71.5 -133t-194.5 -49q-95 -1 -197 36z" />
<glyph unicode="&#xb9;" horiz-adv-x="552" d="M29 1233v43l336 133h22v-690q0 -72 26.5 -92.5t116.5 -22.5v-41h-497v41q98 0 127.5 23.5t29.5 99.5v453q0 84 -47 84q-28 0 -114 -31z" />
<glyph unicode="&#xba;" horiz-adv-x="675" d="M37 1110q0 129 86 214t215 85t215 -85t86 -212q0 -131 -86 -215t-219 -84q-127 0 -212 85t-85 212zM236 1102q0 -137 22.5 -192.5t77.5 -55.5q57 0 79.5 53.5t22.5 190.5q0 154 -21.5 211t-78.5 57t-79.5 -57t-22.5 -207z" />
<glyph unicode="&#xbb;" horiz-adv-x="1024" d="M55 819q0 31 23 31q29 0 76 -47l421 -340v-8l-428 -346q-39 -35 -63.5 -35t-24.5 22q0 68 191 301l47 62q-16 25 -85 109.5t-113 151t-44 99.5zM457 819q0 31 24 31q8 0 21.5 -7t22.5 -16l19 -16q9 -8 11 -8l422 -340v-8l-416 -336q-45 -45 -76 -45q-25 0 -24 22 q0 70 188 301l49 62q-16 25 -84.5 109.5t-112.5 151t-44 99.5z" />
<glyph unicode="&#xbc;" horiz-adv-x="1536" d="M57 1233v43l336 133h23v-690q0 -72 26.5 -92.5t116.5 -22.5v-41h-498v41q98 0 128 23.5t30 99.5v453q0 84 -47 84q-29 0 -115 -31zM356 -25l904 1434h114l-899 -1434h-119zM915 178v137q100 150 336 437l80 94h107v-533h84v-135h-84v-178h-193v178h-330zM967 313h280v359 z" />
<glyph unicode="&#xbd;" horiz-adv-x="1536" d="M-14 1233v43l336 133h22v-690q0 -72 26.5 -92.5t116.5 -22.5v-41h-497v41q98 0 127.5 23.5t29.5 99.5v453q0 84 -47 84q-28 0 -114 -31zM270 -25l904 1434h114l-899 -1434h-119zM973 0v29q229 229 303 331.5t74 190.5q0 66 -45 111t-109 45q-96 0 -156 -111h-49 q100 250 293 250q109 0 177.5 -63.5t68.5 -164.5q0 -68 -35 -129t-117 -137l-190 -178v-10h176q102 0 132 15.5t58 80.5h33l-61 -260h-553z" />
<glyph unicode="&#xbe;" horiz-adv-x="1536" d="M47 659q0 57 82 84q59 -6 99 -36.5t70 -57t69 -26.5q57 0 93 36.5t36 96.5q0 90 -59.5 145t-207.5 103v20q94 29 133 64.5t39 97.5q0 57 -36.5 91t-96.5 34q-47 0 -80.5 -22.5t-72.5 -80.5l-41 15q111 186 305 186q102 0 159.5 -44t57.5 -122q0 -53 -22.5 -87t-79.5 -64 v-9q156 -61 155 -215q0 -133 -115.5 -226t-281.5 -93q-94 0 -149.5 29.5t-55.5 80.5zM352 -25l903 1434h115l-899 -1434h-119zM895 178v137q100 150 336 437l80 94h106v-533h84v-135h-84v-178h-192v178h-330zM946 313h281v359z" />
<glyph unicode="&#xbf;" horiz-adv-x="1024" d="M907 -117q0 -129 -108.5 -212t-276.5 -83q-184 0 -296.5 93t-112.5 247q0 106 54 180t193 160q96 59 121 102t25 156h61q4 -61 4 -94q0 -70 -37.5 -142.5t-76.5 -162t-39 -199.5q0 -127 45 -196.5t127 -69.5q55 0 90 22.5t35 59.5q0 25 -38 67.5t-38 95.5q0 59 36 95 t93 36q59 0 99 -43.5t40 -111.5zM709 852q0 -70 -52.5 -121t-122 -51t-121 51t-51.5 122.5t50.5 122t122.5 50.5q74 0 124 -50t50 -124z" />
<glyph unicode="&#xc0;" horiz-adv-x="1478" d="M18 0v51q74 14 108 55t93 185l455 1122h57l457 -1077q76 -180 115.5 -232.5t99.5 -52.5h8v-51h-663v51q43 6 65 6q98 6 98 67.5t-94 278.5h-461l-30 -79q-59 -154 -60 -189q0 -39 39 -58.5t129 -25.5v-51h-416zM387 483h399l-206 498zM344 1751q0 39 28 65.5t69 26.5 q59 0 110 -57l281 -322h-115l-291 181q-82 51 -82 106z" />
<glyph unicode="&#xc1;" horiz-adv-x="1478" d="M18 0v51q74 14 108 55t93 185l455 1122h57l457 -1077q76 -180 115.5 -232.5t99.5 -52.5h8v-51h-663v51q43 6 65 6q98 6 98 67.5t-94 278.5h-461l-30 -79q-59 -154 -60 -189q0 -39 39 -58.5t129 -25.5v-51h-416zM387 483h399l-206 498zM536 1464l281 322q51 57 108 57 q45 0 72 -24.5t27 -65.5q0 -35 -16.5 -56.5t-65.5 -51.5l-291 -181h-115z" />
<glyph unicode="&#xc2;" horiz-adv-x="1478" d="M18 0v51q74 14 108 55t93 185l455 1122h57l457 -1077q76 -180 115.5 -232.5t99.5 -52.5h8v-51h-663v51q43 6 65 6q98 6 98 67.5t-94 278.5h-461l-30 -79q-59 -154 -60 -189q0 -39 39 -58.5t129 -25.5v-51h-416zM387 483h399l-206 498zM358 1480l250 361h188l252 -361 h-117l-229 201l-229 -201h-115z" />
<glyph unicode="&#xc3;" horiz-adv-x="1478" d="M18 0v51q74 14 108 55t93 185l455 1122h57l457 -1077q76 -180 115.5 -232.5t99.5 -52.5h8v-51h-663v51q43 6 65 6q98 6 98 67.5t-94 278.5h-461l-30 -79q-59 -154 -60 -189q0 -39 39 -58.5t129 -25.5v-51h-416zM387 483h399l-206 498zM342 1484q29 133 86.5 194.5 t151.5 61.5q66 0 149 -39l82 -36q53 -25 80 -25q41 0 65.5 22.5t45.5 77.5h88q-70 -260 -240 -260q-63 0 -131 29l-59 27q-102 45 -131 45q-39 0 -67 -27t-34 -70h-86z" />
<glyph unicode="&#xc4;" horiz-adv-x="1478" d="M18 0v51q74 14 108 55t93 185l455 1122h57l457 -1077q76 -180 115.5 -232.5t99.5 -52.5h8v-51h-663v51q43 6 65 6q98 6 98 67.5t-94 278.5h-461l-30 -79q-59 -154 -60 -189q0 -39 39 -58.5t129 -25.5v-51h-416zM387 483h399l-206 498zM354 1606q0 53 39 92t92 39t93 -40 t40 -95q0 -53 -39 -91t-94 -38q-53 0 -92 40t-39 93zM784 1608q0 51 39 90t90 39q55 0 95 -40t40 -95q0 -53 -39 -91t-96 -38q-53 0 -91 39t-38 96z" />
<glyph unicode="&#xc5;" horiz-adv-x="1478" d="M18 0v51q74 14 108 55t93 185l455 1122h57l457 -1077q76 -180 115.5 -232.5t99.5 -52.5h8v-51h-663v51q43 6 65 6q98 6 98 67.5t-94 278.5h-461l-30 -79q-59 -154 -60 -189q0 -39 39 -58.5t129 -25.5v-51h-416zM387 483h399l-206 498zM495 1643q0 80 61.5 140.5 t143.5 60.5t142.5 -60.5t60.5 -144.5t-60.5 -143.5t-144.5 -59.5t-143.5 60.5t-59.5 146.5zM587 1639q0 -45 32 -78t77 -33q47 0 81 32t34 77q0 47 -34 81t-79 34t-78 -34t-33 -79z" />
<glyph unicode="&#xc6;" horiz-adv-x="2048" d="M8 0v51q61 10 96 50t129 212l437 797q72 111 71 154q0 37 -38.5 53t-139.5 22v45h1299v-411h-52q-16 76 -30.5 121t-45 92t-76.5 71.5t-122 40t-184 15.5q-84 0 -112 -12.5t-28 -49.5v-508q180 14 227.5 60.5t90.5 245.5h47v-693h-47q-29 190 -87.5 251t-230.5 71v-498 q0 -66 32 -88t124 -22q258 0 377 125q53 55 98 123.5t58 113.5h47l-84 -432h-1159v51q113 6 146.5 43t33.5 150v377h-389l-205 -385q-31 -55 -31 -93q0 -41 27.5 -60.5t107.5 -27.5l35 -4v-51h-422zM541 702h344v594h-15z" />
<glyph unicode="&#xc7;" horiz-adv-x="1478" d="M100 680q0 315 204 525t509 210q96 0 181 -25.5t142.5 -50t88.5 -24.5q29 0 49 20.5t41 73.5h55v-479h-51q-20 45 -43 85t-70 105.5t-96 111.5t-122 81t-148 35q-184 0 -280.5 -166t-96.5 -484q0 -639 411 -639q135 0 246 65.5t226 186.5l61 -51q-143 -164 -274.5 -230.5 t-311.5 -68.5l-41 -92q31 10 68 10q84 0 132 -38t48 -105q0 -84 -71.5 -133t-194.5 -49q-94 0 -197 36l33 76q86 -29 121 -28q119 0 119 83q0 74 -95 74q-27 0 -57 -8l-22 16l71 162l-6 2q-279 27 -454 225.5t-175 487.5z" />
<glyph unicode="&#xc8;" horiz-adv-x="1366" d="M33 0v51q115 12 147.5 39t32.5 107v991q0 78 -37 108.5t-143 36.5v51h1181v-411h-51q-39 205 -137 273.5t-348 68.5q-80 0 -106.5 -19.5t-26.5 -76.5v-476h8q162 0 231.5 67t92.5 239h53v-693h-53q-18 178 -91 248t-241 70v-496q0 -66 35.5 -90.5t134.5 -24.5 q223 0 339.5 90.5t200.5 272.5h58l-82 -426h-1198zM344 1751q0 39 28 65.5t69 26.5q59 0 110 -57l281 -322h-115l-291 181q-82 51 -82 106z" />
<glyph unicode="&#xc9;" horiz-adv-x="1366" d="M33 0v51q115 12 147.5 39t32.5 107v991q0 78 -37 108.5t-143 36.5v51h1181v-411h-51q-39 205 -137 273.5t-348 68.5q-80 0 -106.5 -19.5t-26.5 -76.5v-476h8q162 0 231.5 67t92.5 239h53v-693h-53q-18 178 -91 248t-241 70v-496q0 -66 35.5 -90.5t134.5 -24.5 q223 0 339.5 90.5t200.5 272.5h58l-82 -426h-1198zM504 1464l281 322q51 57 108 57q45 0 72 -24.5t27 -65.5q0 -35 -16.5 -56.5t-65.5 -51.5l-291 -181h-115z" />
<glyph unicode="&#xca;" horiz-adv-x="1366" d="M33 0v51q115 12 147.5 39t32.5 107v991q0 78 -37 108.5t-143 36.5v51h1181v-411h-51q-39 205 -137 273.5t-348 68.5q-80 0 -106.5 -19.5t-26.5 -76.5v-476h8q162 0 231.5 67t92.5 239h53v-693h-53q-18 178 -91 248t-241 70v-496q0 -66 35.5 -90.5t134.5 -24.5 q223 0 339.5 90.5t200.5 272.5h58l-82 -426h-1198zM326 1480l250 361h188l252 -361h-117l-229 201l-229 -201h-115z" />
<glyph unicode="&#xcb;" horiz-adv-x="1366" d="M33 0v51q115 12 147.5 39t32.5 107v991q0 78 -37 108.5t-143 36.5v51h1181v-411h-51q-39 205 -137 273.5t-348 68.5q-80 0 -106.5 -19.5t-26.5 -76.5v-476h8q162 0 231.5 67t92.5 239h53v-693h-53q-18 178 -91 248t-241 70v-496q0 -66 35.5 -90.5t134.5 -24.5 q223 0 339.5 90.5t200.5 272.5h58l-82 -426h-1198zM326 1608q0 53 39 92t92 39t93 -40t40 -95q0 -53 -39 -91t-94 -38q-53 0 -92 40t-39 93zM756 1610q0 51 39 90t90 39q55 0 95 -40t40 -95q0 -53 -39 -91t-96 -38q-53 0 -91 39t-38 96z" />
<glyph unicode="&#xcc;" horiz-adv-x="796" d="M33 0v51q115 10 152.5 39t37.5 107v991q0 78 -40 107.5t-150 37.5v51h717v-51q-113 -4 -154 -34.5t-41 -110.5v-991q0 -80 39 -109t156 -37v-51h-717zM49 1749q0 39 28 65.5t69 26.5q59 0 110 -57l281 -322h-115l-291 181q-82 51 -82 106z" />
<glyph unicode="&#xcd;" horiz-adv-x="796" d="M33 0v51q115 10 152.5 39t37.5 107v991q0 78 -40 107.5t-150 37.5v51h717v-51q-113 -4 -154 -34.5t-41 -110.5v-991q0 -80 39 -109t156 -37v-51h-717zM227 1464l281 322q51 57 108 57q45 0 72 -24.5t27 -65.5q0 -35 -16.5 -56.5t-65.5 -51.5l-291 -181h-115z" />
<glyph unicode="&#xce;" horiz-adv-x="796" d="M33 0v51q115 10 152.5 39t37.5 107v991q0 78 -40 107.5t-150 37.5v51h717v-51q-113 -4 -154 -34.5t-41 -110.5v-991q0 -80 39 -109t156 -37v-51h-717zM45 1482l250 361h188l252 -361h-117l-229 201l-229 -201h-115z" />
<glyph unicode="&#xcf;" horiz-adv-x="796" d="M33 0v51q115 10 152.5 39t37.5 107v991q0 78 -40 107.5t-150 37.5v51h717v-51q-113 -4 -154 -34.5t-41 -110.5v-991q0 -80 39 -109t156 -37v-51h-717zM45 1626q0 53 39 92t92 39t93 -40t40 -95q0 -53 -39 -91t-94 -38q-53 0 -92 40t-39 93zM475 1628q0 51 39 90t90 39 q55 0 95 -40t40 -95q0 -53 -39 -91t-96 -38q-53 0 -91 39t-38 96z" />
<glyph unicode="&#xd0;" horiz-adv-x="1478" d="M12 668v96h187v432q0 70 -36 98.5t-134 38.5v51h624q354 0 557 -180t203 -497.5t-202.5 -512t-534.5 -194.5h-647v51q88 2 129 35t41 100v482h-187zM530 190q0 -70 25 -94t94 -24q408 0 408 604q0 180 -36 311t-97.5 198.5t-128 98.5t-142.5 31q-78 0 -100.5 -21.5 t-22.5 -74.5v-455h234v-96h-234v-478z" />
<glyph unicode="&#xd1;" horiz-adv-x="1478" d="M33 0v51q113 14 146.5 45t33.5 119v971q-74 88 -108.5 117.5t-65.5 29.5v51h432l715 -878v624q0 109 -39 151t-152 52v51h441v-51q-100 -16 -130 -46t-30 -118v-1206h-57l-916 1114v-823q0 -109 38 -148.5t157 -54.5v-51h-465zM352 1554q29 133 86.5 194.5t151.5 61.5 q66 0 149 -39l82 -36q53 -25 80 -25q41 0 65.5 22.5t45.5 77.5h88q-70 -260 -240 -260q-63 0 -131 29l-59 27q-102 45 -131 45q-39 0 -67 -27t-34 -70h-86z" />
<glyph unicode="&#xd2;" horiz-adv-x="1593" d="M72 686q0 319 205.5 524t527.5 205q309 0 513 -207t204 -520q0 -317 -204 -522t-521.5 -205t-521 204t-203.5 521zM434 668q0 -311 93.5 -475t269.5 -164t269 164.5t93 480.5q0 319 -93 496.5t-263 177.5q-180 0 -274.5 -174t-94.5 -506zM458 1751q0 39 28 65.5t69 26.5 q59 0 110 -57l281 -322h-115l-291 181q-82 51 -82 106z" />
<glyph unicode="&#xd3;" horiz-adv-x="1593" d="M72 686q0 319 205.5 524t527.5 205q309 0 513 -207t204 -520q0 -317 -204 -522t-521.5 -205t-521 204t-203.5 521zM434 668q0 -311 93.5 -475t269.5 -164t269 164.5t93 480.5q0 319 -93 496.5t-263 177.5q-180 0 -274.5 -174t-94.5 -506zM618 1464l281 322q51 57 108 57 q45 0 72 -24.5t27 -65.5q0 -35 -16.5 -56.5t-65.5 -51.5l-291 -181h-115z" />
<glyph unicode="&#xd4;" horiz-adv-x="1593" d="M72 686q0 319 205.5 524t527.5 205q309 0 513 -207t204 -520q0 -317 -204 -522t-521.5 -205t-521 204t-203.5 521zM434 668q0 -311 93.5 -475t269.5 -164t269 164.5t93 480.5q0 319 -93 496.5t-263 177.5q-180 0 -274.5 -174t-94.5 -506zM461 1480l250 361h188l252 -361 h-117l-229 201l-229 -201h-115z" />
<glyph unicode="&#xd5;" horiz-adv-x="1593" d="M72 686q0 319 205.5 524t527.5 205q309 0 513 -207t204 -520q0 -317 -204 -522t-521.5 -205t-521 204t-203.5 521zM434 668q0 -311 93.5 -475t269.5 -164t269 164.5t93 480.5q0 319 -93 496.5t-263 177.5q-180 0 -274.5 -174t-94.5 -506zM426 1489q29 133 86.5 194.5 t151.5 61.5q66 0 149 -39l82 -36q53 -25 80 -25q41 0 65.5 22.5t45.5 77.5h88q-70 -260 -240 -260q-63 0 -131 29l-59 27q-102 45 -131 45q-39 0 -67 -27t-34 -70h-86z" />
<glyph unicode="&#xd6;" horiz-adv-x="1593" d="M72 686q0 319 205.5 524t527.5 205q309 0 513 -207t204 -520q0 -317 -204 -522t-521.5 -205t-521 204t-203.5 521zM434 668q0 -311 93.5 -475t269.5 -164t269 164.5t93 480.5q0 319 -93 496.5t-263 177.5q-180 0 -274.5 -174t-94.5 -506zM436 1616q0 53 39 92t92 39 t93 -40t40 -95q0 -53 -39 -91t-94 -38q-53 0 -92 40t-39 93zM866 1618q0 51 39 90t90 39q55 0 95 -40t40 -95q0 -53 -39 -91t-96 -38q-53 0 -91 39t-38 96z" />
<glyph unicode="&#xd7;" horiz-adv-x="1384" d="M127 104l422 422l-422 422l139 139l426 -423l426 423l139 -139l-421 -422l421 -422l-139 -139l-426 426l-426 -426z" />
<glyph unicode="&#xd8;" horiz-adv-x="1593" d="M72 686q0 317 204.5 523t522.5 206q195 0 372 -96l129 190h103l-160 -235q53 -43 87 -79t85 -108.5t79 -174t28 -224.5q0 -319 -204 -523t-521 -204q-203 0 -383 100l-146 -213h-102l176 258q-39 33 -60.5 54.5t-67.5 79t-71.5 114t-48 145.5t-22.5 187zM434 672 q0 -201 45 -363l586 856q-53 98 -115.5 140.5t-152.5 42.5q-174 0 -268.5 -176t-94.5 -500zM518 213q53 -98 117.5 -141t161.5 -43q178 0 270 165.5t92 483.5q0 223 -53 395z" />
<glyph unicode="&#xd9;" horiz-adv-x="1478" d="M33 1333v51h692v-51q-123 -4 -161 -37.5t-38 -150.5v-684q0 -209 72 -304.5t229 -95.5q182 0 270.5 109t88.5 336v624q0 113 -40 153t-161 50v51h451v-51q-98 -14 -129 -49t-31 -125v-653q0 -545 -528 -545q-229 0 -379 109q-94 68 -131 153.5t-37 237.5v684 q0 111 -29.5 144.5t-138.5 43.5zM430 1751q0 39 28 65.5t69 26.5q59 0 110 -57l281 -322h-115l-291 181q-82 51 -82 106z" />
<glyph unicode="&#xda;" horiz-adv-x="1478" d="M33 1333v51h692v-51q-123 -4 -161 -37.5t-38 -150.5v-684q0 -209 72 -304.5t229 -95.5q182 0 270.5 109t88.5 336v624q0 113 -40 153t-161 50v51h451v-51q-98 -14 -129 -49t-31 -125v-653q0 -545 -528 -545q-229 0 -379 109q-94 68 -131 153.5t-37 237.5v684 q0 111 -29.5 144.5t-138.5 43.5zM631 1464l281 322q51 57 108 57q45 0 72 -24.5t27 -65.5q0 -35 -16.5 -56.5t-65.5 -51.5l-291 -181h-115z" />
<glyph unicode="&#xdb;" horiz-adv-x="1478" d="M33 1333v51h692v-51q-123 -4 -161 -37.5t-38 -150.5v-684q0 -209 72 -304.5t229 -95.5q182 0 270.5 109t88.5 336v624q0 113 -40 153t-161 50v51h451v-51q-98 -14 -129 -49t-31 -125v-653q0 -545 -528 -545q-229 0 -379 109q-94 68 -131 153.5t-37 237.5v684 q0 111 -29.5 144.5t-138.5 43.5zM453 1482l250 361h188l252 -361h-117l-229 201l-229 -201h-115z" />
<glyph unicode="&#xdc;" horiz-adv-x="1478" d="M33 1333v51h692v-51q-123 -4 -161 -37.5t-38 -150.5v-684q0 -209 72 -304.5t229 -95.5q182 0 270.5 109t88.5 336v624q0 113 -40 153t-161 50v51h451v-51q-98 -14 -129 -49t-31 -125v-653q0 -545 -528 -545q-229 0 -379 109q-94 68 -131 153.5t-37 237.5v684 q0 111 -29.5 144.5t-138.5 43.5zM436 1616q0 53 39 92t92 39t93 -40t40 -95q0 -53 -39 -91t-94 -38q-53 0 -92 40t-39 93zM866 1618q0 51 39 90t90 39q55 0 95 -40t40 -95q0 -53 -39 -91t-96 -38q-53 0 -91 39t-38 96z" />
<glyph unicode="&#xdd;" horiz-adv-x="1478" d="M31 1333v51h686v-51l-51 -2q-63 0 -89 -14t-26 -47q0 -20 10 -44t23.5 -46.5t15.5 -30.5l246 -475l227 379q80 131 80 194q0 45 -35 61.5t-137 24.5v51h451v-51q-100 -14 -140 -80l-391 -637v-376q0 -113 31 -145t158 -44v-51h-711v51q125 12 157.5 44t32.5 145v301 l-374 680q-64 106 -164 112zM641 1464l281 322q51 57 108 57q45 0 72 -24.5t27 -65.5q0 -35 -16.5 -56.5t-65.5 -51.5l-291 -181h-115z" />
<glyph unicode="&#xde;" horiz-adv-x="1294" d="M33 0v51q45 8 49 8q72 8 97.5 46t25.5 135v905q0 109 -33 144.5t-139 43.5v51h684v-51q-123 -16 -151.5 -47t-28.5 -143v-25h135q274 0 415.5 -95t141.5 -280q0 -199 -180 -309q-84 -49 -176.5 -63.5t-335.5 -16.5v-114q0 -113 29.5 -142.5t150.5 -46.5v-51h-684z M537 426q201 0 270.5 61.5t69.5 247.5q0 166 -55.5 239t-182.5 73q-102 0 -102 -72v-549z" />
<glyph unicode="&#xdf;" horiz-adv-x="1138" d="M39 0v49q66 10 85 33.5t19 95.5v860q0 164 119 270.5t305 106.5q174 0 291 -90t117 -225q0 -223 -320 -295q2 0 34 -9.5t45.5 -13.5t49 -18t56 -24.5t53.5 -31t52.5 -40t44 -49t37.5 -61.5t22.5 -74t9.5 -87q0 -176 -112.5 -299t-274.5 -123q-47 0 -131 31l28 70l21 -15 q20 -14 45 -14q72 0 98.5 75t26.5 277q0 150 -25.5 230t-66.5 105.5t-117 29.5v70q88 2 115.5 51t27.5 200q0 143 -33.5 208t-111.5 65q-121 0 -121 -158v-1200h-389z" />
<glyph unicode="&#xe0;" horiz-adv-x="1024" d="M51 188q0 63 34 117.5t79 89.5t124 70t134 53.5t145 44.5q23 6 35 10v150q0 94 -41 137t-131 43q-53 0 -91 -21.5t-38 -54.5q0 -10 30.5 -54t30.5 -79q0 -53 -38.5 -86t-100.5 -33q-63 0 -98 36t-35 100q0 115 106.5 186.5t280.5 71.5q186 0 296 -76t110 -205v-534 q0 -51 43 -52q14 0 22 9l21 20l30 -43q-109 -117 -229 -117q-76 0 -114 33t-54 111q-158 -143 -323 -144q-98 0 -163 61.5t-65 155.5zM350 254q0 -61 29 -99t76 -38q70 0 145 88v297q-250 -66 -250 -248zM186 1368q0 39 28 65.5t69 26.5q59 0 110 -57l281 -322h-115 l-291 181q-82 51 -82 106z" />
<glyph unicode="&#xe1;" horiz-adv-x="1024" d="M51 188q0 63 34 117.5t79 89.5t124 70t134 53.5t145 44.5q23 6 35 10v150q0 94 -41 137t-131 43q-53 0 -91 -21.5t-38 -54.5q0 -10 30.5 -54t30.5 -79q0 -53 -38.5 -86t-100.5 -33q-63 0 -98 36t-35 100q0 115 106.5 186.5t280.5 71.5q186 0 296 -76t110 -205v-534 q0 -51 43 -52q14 0 22 9l21 20l30 -43q-109 -117 -229 -117q-76 0 -114 33t-54 111q-158 -143 -323 -144q-98 0 -163 61.5t-65 155.5zM350 254q0 -61 29 -99t76 -38q70 0 145 88v297q-250 -66 -250 -248zM317 1081l281 322q51 57 108 57q45 0 72 -24.5t27 -65.5 q0 -35 -16.5 -56.5t-65.5 -51.5l-291 -181h-115z" />
<glyph unicode="&#xe2;" horiz-adv-x="1024" d="M51 188q0 63 34 117.5t79 89.5t124 70t134 53.5t145 44.5q23 6 35 10v150q0 94 -41 137t-131 43q-53 0 -91 -21.5t-38 -54.5q0 -10 30.5 -54t30.5 -79q0 -53 -38.5 -86t-100.5 -33q-63 0 -98 36t-35 100q0 115 106.5 186.5t280.5 71.5q186 0 296 -76t110 -205v-534 q0 -51 43 -52q14 0 22 9l21 20l30 -43q-109 -117 -229 -117q-76 0 -114 33t-54 111q-158 -143 -323 -144q-98 0 -163 61.5t-65 155.5zM350 254q0 -61 29 -99t76 -38q70 0 145 88v297q-250 -66 -250 -248zM168 1081l250 361h188l252 -361h-117l-229 201l-229 -201h-115z" />
<glyph unicode="&#xe3;" horiz-adv-x="1024" d="M51 188q0 63 34 117.5t79 89.5t124 70t134 53.5t145 44.5q23 6 35 10v150q0 94 -41 137t-131 43q-53 0 -91 -21.5t-38 -54.5q0 -10 30.5 -54t30.5 -79q0 -53 -38.5 -86t-100.5 -33q-63 0 -98 36t-35 100q0 115 106.5 186.5t280.5 71.5q186 0 296 -76t110 -205v-534 q0 -51 43 -52q14 0 22 9l21 20l30 -43q-109 -117 -229 -117q-76 0 -114 33t-54 111q-158 -143 -323 -144q-98 0 -163 61.5t-65 155.5zM350 254q0 -61 29 -99t76 -38q70 0 145 88v297q-250 -66 -250 -248zM139 1124q29 133 86.5 194.5t151.5 61.5q66 0 149 -39l82 -36 q53 -25 80 -25q41 0 65.5 22.5t45.5 77.5h88q-70 -260 -240 -260q-63 0 -131 29l-59 27q-102 45 -131 45q-39 0 -67 -27t-34 -70h-86z" />
<glyph unicode="&#xe4;" horiz-adv-x="1024" d="M51 188q0 63 34 117.5t79 89.5t124 70t134 53.5t145 44.5q23 6 35 10v150q0 94 -41 137t-131 43q-53 0 -91 -21.5t-38 -54.5q0 -10 30.5 -54t30.5 -79q0 -53 -38.5 -86t-100.5 -33q-63 0 -98 36t-35 100q0 115 106.5 186.5t280.5 71.5q186 0 296 -76t110 -205v-534 q0 -51 43 -52q14 0 22 9l21 20l30 -43q-109 -117 -229 -117q-76 0 -114 33t-54 111q-158 -143 -323 -144q-98 0 -163 61.5t-65 155.5zM350 254q0 -61 29 -99t76 -38q70 0 145 88v297q-250 -66 -250 -248zM156 1190q0 53 39 92t92 39t93 -40t40 -95q0 -53 -39 -91t-94 -38 q-53 0 -92 40t-39 93zM586 1192q0 51 39 90t90 39q55 0 95 -40t40 -95q0 -53 -39 -91t-96 -38q-53 0 -91 39t-38 96z" />
<glyph unicode="&#xe5;" horiz-adv-x="1024" d="M51 188q0 63 34 117.5t79 89.5t124 70t134 53.5t145 44.5q23 6 35 10v150q0 94 -41 137t-131 43q-53 0 -91 -21.5t-38 -54.5q0 -10 30.5 -54t30.5 -79q0 -53 -38.5 -86t-100.5 -33q-63 0 -98 36t-35 100q0 115 106.5 186.5t280.5 71.5q186 0 296 -76t110 -205v-534 q0 -51 43 -52q14 0 22 9l21 20l30 -43q-109 -117 -229 -117q-76 0 -114 33t-54 111q-158 -143 -323 -144q-98 0 -163 61.5t-65 155.5zM350 254q0 -61 29 -99t76 -38q70 0 145 88v297q-250 -66 -250 -248zM287 1278q0 80 61.5 140.5t143.5 60.5t142.5 -60.5t60.5 -144.5 t-60.5 -143.5t-144.5 -59.5t-143.5 60.5t-59.5 146.5zM379 1274q0 -45 32 -78t77 -33q47 0 81 32t34 77q0 47 -34 81t-79 34t-78 -34t-33 -79z" />
<glyph unicode="&#xe6;" horiz-adv-x="1478" d="M68 193q0 35 8 64.5t19 54t36 48t44.5 40t57 36t61 30.5t73 28.5t75 25.5t83 26.5t81.5 26.5v164q0 90 -37 128t-123 38q-57 0 -95 -20.5t-38 -51.5q0 -14 30 -50t30 -83q0 -55 -34 -85.5t-95 -30.5q-66 0 -104 35.5t-38 95.5q0 111 105.5 183.5t267.5 72.5 q184 0 291 -105q106 104 260 105q68 0 128 -18.5t121.5 -64.5t97.5 -142.5t36 -235.5h-520v-47q0 -176 55 -256t180 -80q141 0 252 137l43 -31q-90 -137 -186 -193t-242 -56q-109 0 -176 38.5t-125 133.5q-182 -182 -381 -183q-119 0 -180 56.5t-61 165.5zM362 248 q0 -147 117 -148q63 0 127 66v342q-135 -49 -189.5 -107.5t-54.5 -152.5zM889 584h272v67q0 143 -28.5 199.5t-100.5 56.5q-80 0 -111.5 -71.5t-31.5 -251.5z" />
<glyph unicode="&#xe7;" horiz-adv-x="909" d="M51 455q0 223 137.5 368.5t346.5 145.5q135 0 226 -64.5t91 -161.5q0 -59 -37 -94t-102 -35q-113 0 -115 148q0 86 -10 104q-20 39 -76 39q-80 0 -126 -91t-46 -249q0 -209 79 -332.5t212 -123.5q63 0 109 25.5t104 88.5l37 -37q-137 -184 -338 -213l-47 -104 q31 10 67 10q84 0 132 -38t48 -105q0 -84 -71.5 -133t-194.5 -49q-94 0 -196 36l32 76q86 -29 121 -28q119 0 119 83q0 74 -94 74q-27 0 -58 -8l-22 16l76 170q-182 16 -293 148.5t-111 333.5z" />
<glyph unicode="&#xe8;" horiz-adv-x="909" d="M51 467q0 225 118 363.5t310 138.5q350 0 383 -467h-516q2 -55 8 -99.5t21.5 -100.5t41 -93t69.5 -63.5t104 -26.5q66 0 119 30.5t114 106.5l49 -29q-100 -143 -187 -199.5t-212 -56.5q-190 0 -306 136.5t-116 359.5zM336 578h274v30q-2 66 -4 100.5t-10 78.5t-21.5 65.5 t-37 37t-58.5 15.5q-76 0 -107.5 -71.5t-35.5 -255.5zM153 1368q0 39 28 65.5t69 26.5q59 0 110 -57l281 -322h-115l-291 181q-82 51 -82 106z" />
<glyph unicode="&#xe9;" horiz-adv-x="909" d="M51 467q0 225 118 363.5t310 138.5q350 0 383 -467h-516q2 -55 8 -99.5t21.5 -100.5t41 -93t69.5 -63.5t104 -26.5q66 0 119 30.5t114 106.5l49 -29q-100 -143 -187 -199.5t-212 -56.5q-190 0 -306 136.5t-116 359.5zM336 578h274v30q-2 66 -4 100.5t-10 78.5t-21.5 65.5 t-37 37t-58.5 15.5q-76 0 -107.5 -71.5t-35.5 -255.5zM326 1079l281 322q51 57 108 57q45 0 72 -24.5t27 -65.5q0 -35 -16.5 -56.5t-65.5 -51.5l-291 -181h-115z" />
<glyph unicode="&#xea;" horiz-adv-x="909" d="M51 467q0 225 118 363.5t310 138.5q350 0 383 -467h-516q2 -55 8 -99.5t21.5 -100.5t41 -93t69.5 -63.5t104 -26.5q66 0 119 30.5t114 106.5l49 -29q-100 -143 -187 -199.5t-212 -56.5q-190 0 -306 136.5t-116 359.5zM336 578h274v30q-2 66 -4 100.5t-10 78.5t-21.5 65.5 t-37 37t-58.5 15.5q-76 0 -107.5 -71.5t-35.5 -255.5zM139 1032l250 361h188l252 -361h-117l-229 201l-229 -201h-115z" />
<glyph unicode="&#xeb;" horiz-adv-x="909" d="M51 467q0 225 118 363.5t310 138.5q350 0 383 -467h-516q2 -55 8 -99.5t21.5 -100.5t41 -93t69.5 -63.5t104 -26.5q66 0 119 30.5t114 106.5l49 -29q-100 -143 -187 -199.5t-212 -56.5q-190 0 -306 136.5t-116 359.5zM336 578h274v30q-2 66 -4 100.5t-10 78.5t-21.5 65.5 t-37 37t-58.5 15.5q-76 0 -107.5 -71.5t-35.5 -255.5zM123 1184q0 53 39 92t92 39t93 -40t40 -95q0 -53 -39 -91t-94 -38q-53 0 -92 40t-39 93zM553 1186q0 51 39 90t90 39q55 0 95 -40t40 -95q0 -53 -39 -91t-96 -38q-53 0 -91 39t-38 96z" />
<glyph unicode="&#xec;" horiz-adv-x="569" d="M33 0v49q70 16 89 38t19 85v602q0 63 -20.5 85t-87.5 36v49h393v-778q0 -57 21.5 -83t74.5 -34v-49h-489zM-54 1368q0 39 28 65.5t69 26.5q59 0 110 -57l281 -322h-115l-291 181q-82 51 -82 106z" />
<glyph unicode="&#xed;" horiz-adv-x="569" d="M33 0v49q70 16 89 38t19 85v602q0 63 -20.5 85t-87.5 36v49h393v-778q0 -57 21.5 -83t74.5 -34v-49h-489zM106 1081l281 322q51 57 108 57q45 0 72 -24.5t27 -65.5q0 -35 -16.5 -56.5t-65.5 -51.5l-291 -181h-115z" />
<glyph unicode="&#xee;" horiz-adv-x="569" d="M33 0v49q70 16 89 38t19 85v602q0 63 -20.5 85t-87.5 36v49h393v-778q0 -57 21.5 -83t74.5 -34v-49h-489zM-74 1081l250 361h188l252 -361h-117l-229 201l-229 -201h-115z" />
<glyph unicode="&#xef;" horiz-adv-x="569" d="M33 0v49q70 16 89 38t19 85v602q0 63 -20.5 85t-87.5 36v49h393v-778q0 -57 21.5 -83t74.5 -34v-49h-489zM-74 1184q0 53 39 92t92 39t93 -40t40 -95q0 -53 -39 -91t-94 -38q-53 0 -92 40t-39 93zM356 1186q0 51 39 90t90 39q55 0 95 -40t40 -95q0 -53 -39 -91t-96 -38 q-53 0 -91 39t-38 96z" />
<glyph unicode="&#xf0;" horiz-adv-x="1024" d="M51 469q0 213 132 356.5t327 143.5q63 0 104 -18.5t82 -65.5l4 6q-53 162 -176 285l-225 -115l-98 63l239 121q-129 92 -272 119l94 51q180 -18 328 -94l184 94l100 -61l-188 -97q82 -68 140.5 -147.5t86 -143t43 -143.5t17.5 -120.5t2 -102.5q0 -297 -121 -463 t-340 -166q-201 0 -332 141.5t-131 356.5zM352 455q0 -229 34 -324.5t130 -95.5q90 0 124 95t34 347q0 238 -35 333t-123 95q-94 0 -129 -97t-35 -353z" />
<glyph unicode="&#xf1;" horiz-adv-x="1138" d="M43 0v49q70 14 89.5 37t19.5 86v602q0 63 -20.5 87t-88.5 34v49h391v-153q113 178 293 178q127 0 202 -79t75 -210v-514q0 -66 20 -89.5t80 -27.5v-49h-481v49q51 6 73.5 33t22.5 84v496q0 170 -107 169q-57 0 -116.5 -48t-59.5 -70v-547q0 -57 21.5 -83t79.5 -34v-49 h-494zM194 1124q29 133 86.5 194.5t151.5 61.5q66 0 149 -39l82 -36q53 -25 80 -25q41 0 65.5 22.5t45.5 77.5h88q-70 -260 -240 -260q-63 0 -131 29l-59 27q-102 45 -131 45q-39 0 -67 -27t-34 -70h-86z" />
<glyph unicode="&#xf2;" horiz-adv-x="1024" d="M51 475q0 209 134 351.5t329 142.5q199 0 330 -142.5t131 -357.5q0 -213 -131 -355.5t-330 -142.5q-201 0 -332 142.5t-131 361.5zM352 438q0 -225 36 -314t126 -89t125 93t35 329q0 252 -35 350t-123 98q-94 0 -129 -98.5t-35 -368.5zM186 1368q0 39 28 65.5t69 26.5 q59 0 110 -57l281 -322h-115l-291 181q-82 51 -82 106z" />
<glyph unicode="&#xf3;" horiz-adv-x="1024" d="M51 475q0 209 134 351.5t329 142.5q199 0 330 -142.5t131 -357.5q0 -213 -131 -355.5t-330 -142.5q-201 0 -332 142.5t-131 361.5zM352 438q0 -225 36 -314t126 -89t125 93t35 329q0 252 -35 350t-123 98q-94 0 -129 -98.5t-35 -368.5zM350 1081l281 322q51 57 108 57 q45 0 72 -24.5t27 -65.5q0 -35 -16.5 -56.5t-65.5 -51.5l-291 -181h-115z" />
<glyph unicode="&#xf4;" horiz-adv-x="1024" d="M51 475q0 209 134 351.5t329 142.5q199 0 330 -142.5t131 -357.5q0 -213 -131 -355.5t-330 -142.5q-201 0 -332 142.5t-131 361.5zM352 438q0 -225 36 -314t126 -89t125 93t35 329q0 252 -35 350t-123 98q-94 0 -129 -98.5t-35 -368.5zM168 1063l250 361h188l252 -361 h-117l-229 201l-229 -201h-115z" />
<glyph unicode="&#xf5;" horiz-adv-x="1024" d="M51 475q0 209 134 351.5t329 142.5q199 0 330 -142.5t131 -357.5q0 -213 -131 -355.5t-330 -142.5q-201 0 -332 142.5t-131 361.5zM352 438q0 -225 36 -314t126 -89t125 93t35 329q0 252 -35 350t-123 98q-94 0 -129 -98.5t-35 -368.5zM139 1063q29 133 86.5 194.5 t151.5 61.5q66 0 149 -39l82 -36q53 -25 80 -25q41 0 65.5 22.5t45.5 77.5h88q-70 -260 -240 -260q-63 0 -131 29l-59 27q-102 45 -131 45q-39 0 -67 -27t-34 -70h-86z" />
<glyph unicode="&#xf6;" horiz-adv-x="1024" d="M51 475q0 209 134 351.5t329 142.5q199 0 330 -142.5t131 -357.5q0 -213 -131 -355.5t-330 -142.5q-201 0 -332 142.5t-131 361.5zM352 438q0 -225 36 -314t126 -89t125 93t35 329q0 252 -35 350t-123 98q-94 0 -129 -98.5t-35 -368.5zM166 1178q0 53 39 92t92 39t93 -40 t40 -95q0 -53 -39 -91t-94 -38q-53 0 -92 40t-39 93zM596 1180q0 51 39 90t90 39q55 0 95 -40t40 -95q0 -53 -39 -91t-96 -38q-53 0 -91 39t-38 96z" />
<glyph unicode="&#xf7;" horiz-adv-x="1384" d="M127 428v197h1130v-197h-1130zM553 38.5q0 63.5 45 109t108.5 45.5t109.5 -45.5t46 -109t-46 -108.5t-109.5 -45t-108.5 45t-45 108.5zM553 1013.5q0 63.5 45 108.5t108.5 45t109.5 -45t46 -108.5t-46 -108.5t-109.5 -45t-108.5 45t-45 108.5z" />
<glyph unicode="&#xf8;" horiz-adv-x="1024" d="M51 469q0 215 132 357.5t333 142.5q111 0 211 -51l123 206h94l-149 -252q180 -162 180 -403q0 -215 -131 -356.5t-330 -141.5q-115 0 -219 56l-129 -215h-96l155 262q-174 162 -174 395zM352 430q0 -102 2 -143l293 495q-20 66 -50 94.5t-81 28.5q-96 0 -130 -99.5 t-34 -375.5zM375 164q37 -129 139 -129q88 0 124 92t36 322q0 23 -4 215z" />
<glyph unicode="&#xf9;" horiz-adv-x="1138" d="M33 895v49h385v-694q0 -78 25.5 -112t88.5 -34q78 0 168 91v579q0 66 -25.5 90.5t-101.5 30.5v49h412v-737q0 -66 23.5 -91.5t91.5 -27.5v-47l-127 -14q-170 -18 -271 -54v133q-90 -78 -153.5 -106.5t-142.5 -28.5q-127 0 -200 76t-73 211v516q0 63 -18.5 86t-81.5 35z M245 1368q0 39 28 65.5t69 26.5q59 0 110 -57l281 -322h-115l-291 181q-82 51 -82 106z" />
<glyph unicode="&#xfa;" horiz-adv-x="1138" d="M33 895v49h385v-694q0 -78 25.5 -112t88.5 -34q78 0 168 91v579q0 66 -25.5 90.5t-101.5 30.5v49h412v-737q0 -66 23.5 -91.5t91.5 -27.5v-47l-127 -14q-170 -18 -271 -54v133q-90 -78 -153.5 -106.5t-142.5 -28.5q-127 0 -200 76t-73 211v516q0 63 -18.5 86t-81.5 35z M377 1081l281 322q51 57 108 57q45 0 72 -24.5t27 -65.5q0 -35 -16.5 -56.5t-65.5 -51.5l-291 -181h-115z" />
<glyph unicode="&#xfb;" horiz-adv-x="1138" d="M33 895v49h385v-694q0 -78 25.5 -112t88.5 -34q78 0 168 91v579q0 66 -25.5 90.5t-101.5 30.5v49h412v-737q0 -66 23.5 -91.5t91.5 -27.5v-47l-127 -14q-170 -18 -271 -54v133q-90 -78 -153.5 -106.5t-142.5 -28.5q-127 0 -200 76t-73 211v516q0 63 -18.5 86t-81.5 35z M217 1081l250 361h188l252 -361h-117l-229 201l-229 -201h-115z" />
<glyph unicode="&#xfc;" horiz-adv-x="1138" d="M33 895v49h385v-694q0 -78 25.5 -112t88.5 -34q78 0 168 91v579q0 66 -25.5 90.5t-101.5 30.5v49h412v-737q0 -66 23.5 -91.5t91.5 -27.5v-47l-127 -14q-170 -18 -271 -54v133q-90 -78 -153.5 -106.5t-142.5 -28.5q-127 0 -200 76t-73 211v516q0 63 -18.5 86t-81.5 35z M195 1178q0 53 39 92t92 39t93 -40t40 -95q0 -53 -39 -91t-94 -38q-53 0 -92 40t-39 93zM625 1180q0 51 39 90t90 39q55 0 95 -40t40 -95q0 -53 -39 -91t-96 -38q-53 0 -91 39t-38 96z" />
<glyph unicode="&#xfd;" horiz-adv-x="1024" d="M33 -258q0 57 36.5 94t94.5 37q53 0 86 -27.5t33 -72.5q0 -10 -3.5 -24.5t-3.5 -16.5q0 -14 10.5 -24.5t24.5 -10.5q35 0 72 46t63 122l37 108l-245 605q-27 68 -78 177t-56 109q-16 23 -71 31v49h512v-49l-33 -2q-76 -6 -76 -51q0 -16 41 -121l148 -379l139 393 q23 63 22 92q0 37 -23.5 50.5t-88.5 17.5v49h309v-49q-47 -4 -70.5 -26.5t-48.5 -86.5l-305 -813q-78 -207 -113 -262q-80 -127 -215 -127q-88 0 -143 45t-55 117zM348 1081l281 322q51 57 108 57q45 0 72 -24.5t27 -65.5q0 -35 -16.5 -56.5t-65.5 -51.5l-291 -181h-115z " />
<glyph unicode="&#xfe;" horiz-adv-x="1138" d="M39 -371q74 12 94.5 34t20.5 85v1469q0 61 -20.5 82.5t-92.5 35.5v49h397v-583q45 90 103.5 129t150.5 39q170 0 275.5 -133.5t105.5 -346.5q0 -227 -110.5 -371.5t-282.5 -144.5q-68 0 -118 26t-124 97v-289q0 -102 33 -141t127 -43v-43h-559v49zM438 211 q57 -125 162 -125q170 0 170 375q0 391 -156 391q-66 0 -121 -56.5t-55 -86.5v-498z" />
<glyph unicode="&#xff;" horiz-adv-x="1024" d="M33 -258q0 57 36.5 94t94.5 37q53 0 86 -27.5t33 -72.5q0 -10 -3.5 -24.5t-3.5 -16.5q0 -14 10.5 -24.5t24.5 -10.5q35 0 72 46t63 122l37 108l-245 605q-27 68 -78 177t-56 109q-16 23 -71 31v49h512v-49l-33 -2q-76 -6 -76 -51q0 -16 41 -121l148 -379l139 393 q23 63 22 92q0 37 -23.5 50.5t-88.5 17.5v49h309v-49q-47 -4 -70.5 -26.5t-48.5 -86.5l-305 -813q-78 -207 -113 -262q-80 -127 -215 -127q-88 0 -143 45t-55 117zM197 1182q0 53 39 92t92 39t93 -40t40 -95q0 -53 -39 -91t-94 -38q-53 0 -92 40t-39 93zM627 1184 q0 51 39 90t90 39q55 0 95 -40t40 -95q0 -53 -39 -91t-96 -38q-53 0 -91 39t-38 96z" />
<glyph unicode="&#x100;" horiz-adv-x="1478" d="M18 0v51q74 14 108 55t93 185l455 1122h57l457 -1077q76 -180 115.5 -232.5t99.5 -52.5h8v-51h-663v51q43 6 65 6q98 6 98 67.5t-94 278.5h-461l-30 -79q-59 -154 -60 -189q0 -39 39 -58.5t129 -25.5v-51h-416zM387 483h399l-206 498zM401 1583v148h676v-148h-676z" />
<glyph unicode="&#x101;" horiz-adv-x="1024" d="M51 188q0 63 34 117.5t79 89.5t124 70t134 53.5t145 44.5q23 6 35 10v150q0 94 -41 137t-131 43q-53 0 -91 -21.5t-38 -54.5q0 -10 30.5 -54t30.5 -79q0 -53 -38.5 -86t-100.5 -33q-63 0 -98 36t-35 100q0 115 106.5 186.5t280.5 71.5q186 0 296 -76t110 -205v-534 q0 -51 43 -52q14 0 22 9l21 20l30 -43q-109 -117 -229 -117q-76 0 -114 33t-54 111q-158 -143 -323 -144q-98 0 -163 61.5t-65 155.5zM350 254q0 -61 29 -99t76 -38q70 0 145 88v297q-250 -66 -250 -248zM174 1153v148h676v-148h-676z" />
<glyph unicode="&#x102;" horiz-adv-x="1478" d="M18 0v51q74 14 108 55t93 185l455 1122h57l457 -1077q76 -180 115.5 -232.5t99.5 -52.5h8v-51h-663v51q43 6 65 6q98 6 98 67.5t-94 278.5h-461l-30 -79q-59 -154 -60 -189q0 -39 39 -58.5t129 -25.5v-51h-416zM387 483h399l-206 498zM396 1843h90q16 -94 68.5 -136 t150.5 -42q94 0 144.5 41t76.5 137h90q-8 -66 -21.5 -114t-45 -103t-93 -86t-151.5 -31q-289 0 -309 334z" />
<glyph unicode="&#x103;" horiz-adv-x="1024" d="M51 188q0 63 34 117.5t79 89.5t124 70t134 53.5t145 44.5q23 6 35 10v150q0 94 -41 137t-131 43q-53 0 -91 -21.5t-38 -54.5q0 -10 30.5 -54t30.5 -79q0 -53 -38.5 -86t-100.5 -33q-63 0 -98 36t-35 100q0 115 106.5 186.5t280.5 71.5q186 0 296 -76t110 -205v-534 q0 -51 43 -52q14 0 22 9l21 20l30 -43q-109 -117 -229 -117q-76 0 -114 33t-54 111q-158 -143 -323 -144q-98 0 -163 61.5t-65 155.5zM350 254q0 -61 29 -99t76 -38q70 0 145 88v297q-250 -66 -250 -248zM203 1415h90q16 -94 68.5 -136t150.5 -42q94 0 144.5 41t76.5 137h90 q-8 -66 -21.5 -114t-45 -103t-93 -86t-151.5 -31q-289 0 -309 334z" />
<glyph unicode="&#x104;" horiz-adv-x="1478" d="M18 0v51q74 14 108 55t93 185l455 1122h57l457 -1077q76 -180 115.5 -232.5t99.5 -52.5h8v-26v-25h-6q-29 -113 -29 -147q0 -63 33 -97.5t96 -34.5q27 0 49.5 7.5t47 20.5t26.5 13l45 -28q-39 -70 -106.5 -112t-145.5 -42q-94 0 -155.5 47t-61.5 119q0 49 21.5 91 t64.5 95.5t53 67.5h-595v51q43 6 65 6q98 6 98 67.5t-94 278.5h-461l-30 -79q-59 -154 -60 -189q0 -39 39 -58.5t129 -25.5v-51h-416zM387 483h399l-206 498z" />
<glyph unicode="&#x105;" horiz-adv-x="1024" d="M51 188q0 63 34 117.5t79 89.5t124 70t134 53.5t145 44.5q23 6 35 10v150q0 94 -41 137t-131 43q-53 0 -91 -21.5t-38 -54.5q0 -10 30.5 -54t30.5 -79q0 -53 -38.5 -86t-100.5 -33q-63 0 -98 36t-35 100q0 115 106.5 186.5t280.5 71.5q186 0 296 -76t110 -205v-534 q0 -51 43 -52q14 0 22 9l21 20l30 -43q-49 -53 -104 -84t-90 -38t-57.5 -27.5t-22.5 -61.5q0 -37 39 -63.5t94 -26.5q25 0 47.5 7t47 19.5t26.5 14.5l45 -29q-39 -70 -106.5 -111.5t-145.5 -41.5q-94 0 -155.5 47t-61.5 119q0 74 94 198q-31 31 -47 105q-158 -143 -323 -144 q-98 0 -163 61.5t-65 155.5zM350 254q0 -61 29 -99t76 -38q70 0 145 88v297q-250 -66 -250 -248z" />
<glyph unicode="&#x106;" horiz-adv-x="1478" d="M100 682q0 313 204 523t509 210q96 0 181 -25.5t142.5 -50t88.5 -24.5q29 0 49 20.5t41 73.5h55v-479h-51q-20 45 -43 85t-70 105.5t-96 111.5t-122 81t-148 35q-184 0 -280.5 -166t-96.5 -484q0 -639 411 -639q135 0 246 65.5t226 186.5l61 -51l-27 -31q-27 -29 -33 -35 l-37 -37q-30 -30 -46.5 -42.5t-51 -38t-60.5 -37.5t-67 -29.5t-78.5 -27t-85 -15.5t-96.5 -6q-317 0 -521 203t-204 518zM657 1464l281 322q51 57 108 57q45 0 72 -24.5t27 -65.5q0 -35 -16.5 -56.5t-65.5 -51.5l-291 -181h-115z" />
<glyph unicode="&#x107;" horiz-adv-x="909" d="M51 457q0 221 137.5 366.5t346.5 145.5q135 0 226 -64.5t91 -161.5q0 -59 -37 -94t-102 -35q-113 0 -115 148q0 86 -10 104q-20 39 -76 39q-80 0 -126 -91t-46 -249q0 -209 79 -332.5t212 -123.5q63 0 109 25.5t104 88.5l37 -37q-90 -115 -181.5 -165t-210.5 -50 q-190 0 -314 137.5t-124 348.5zM375 1081l281 322q51 57 108 57q45 0 72 -24.5t27 -65.5q0 -35 -16.5 -56.5t-65.5 -51.5l-291 -181h-115z" />
<glyph unicode="&#x108;" horiz-adv-x="1478" d="M100 682q0 313 204 523t509 210q96 0 181 -25.5t142.5 -50t88.5 -24.5q29 0 49 20.5t41 73.5h55v-479h-51q-20 45 -43 85t-70 105.5t-96 111.5t-122 81t-148 35q-184 0 -280.5 -166t-96.5 -484q0 -639 411 -639q135 0 246 65.5t226 186.5l61 -51l-27 -31q-27 -29 -33 -35 l-37 -37q-30 -30 -46.5 -42.5t-51 -38t-60.5 -37.5t-67 -29.5t-78.5 -27t-85 -15.5t-96.5 -6q-317 0 -521 203t-204 518zM469 1482l250 361h188l252 -361h-117l-229 201l-229 -201h-115z" />
<glyph unicode="&#x109;" horiz-adv-x="909" d="M51 457q0 221 137.5 366.5t346.5 145.5q135 0 226 -64.5t91 -161.5q0 -59 -37 -94t-102 -35q-113 0 -115 148q0 86 -10 104q-20 39 -76 39q-80 0 -126 -91t-46 -249q0 -209 79 -332.5t212 -123.5q63 0 109 25.5t104 88.5l37 -37q-90 -115 -181.5 -165t-210.5 -50 q-190 0 -314 137.5t-124 348.5zM162 1046l250 361h188l252 -361h-117l-229 201l-229 -201h-115z" />
<glyph unicode="&#x10a;" horiz-adv-x="1478" d="M100 682q0 313 204 523t509 210q96 0 181 -25.5t142.5 -50t88.5 -24.5q29 0 49 20.5t41 73.5h55v-479h-51q-20 45 -43 85t-70 105.5t-96 111.5t-122 81t-148 35q-184 0 -280.5 -166t-96.5 -484q0 -639 411 -639q135 0 246 65.5t226 186.5l61 -51l-27 -31q-27 -29 -33 -35 l-37 -37q-30 -30 -46.5 -42.5t-51 -38t-60.5 -37.5t-67 -29.5t-78.5 -27t-85 -15.5t-96.5 -6q-317 0 -521 203t-204 518zM703 1622q0 51 39 90t90 39q55 0 95 -40t40 -95q0 -53 -39 -91t-96 -38q-53 0 -91 39t-38 96z" />
<glyph unicode="&#x10b;" horiz-adv-x="909" d="M51 457q0 221 137.5 366.5t346.5 145.5q135 0 226 -64.5t91 -161.5q0 -59 -37 -94t-102 -35q-113 0 -115 148q0 86 -10 104q-20 39 -76 39q-80 0 -126 -91t-46 -249q0 -209 79 -332.5t212 -123.5q63 0 109 25.5t104 88.5l37 -37q-90 -115 -181.5 -165t-210.5 -50 q-190 0 -314 137.5t-124 348.5zM334 1178q0 51 39 90t90 39q55 0 95 -40t40 -95q0 -53 -39 -91t-96 -38q-53 0 -91 39t-38 96z" />
<glyph unicode="&#x10c;" horiz-adv-x="1478" d="M100 682q0 313 204 523t509 210q96 0 181 -25.5t142.5 -50t88.5 -24.5q29 0 49 20.5t41 73.5h55v-479h-51q-20 45 -43 85t-70 105.5t-96 111.5t-122 81t-148 35q-184 0 -280.5 -166t-96.5 -484q0 -639 411 -639q135 0 246 65.5t226 186.5l61 -51l-27 -31q-27 -29 -33 -35 l-37 -37q-30 -30 -46.5 -42.5t-51 -38t-60.5 -37.5t-67 -29.5t-78.5 -27t-85 -15.5t-96.5 -6q-317 0 -521 203t-204 518zM477 1841h115l229 -203l229 203h117l-252 -361h-188z" />
<glyph unicode="&#x10d;" horiz-adv-x="909" d="M51 457q0 221 137.5 366.5t346.5 145.5q135 0 226 -64.5t91 -161.5q0 -59 -37 -94t-102 -35q-113 0 -115 148q0 86 -10 104q-20 39 -76 39q-80 0 -126 -91t-46 -249q0 -209 79 -332.5t212 -123.5q63 0 109 25.5t104 88.5l37 -37q-90 -115 -181.5 -165t-210.5 -50 q-190 0 -314 137.5t-124 348.5zM172 1440h115l229 -203l229 203h117l-252 -361h-188z" />
<glyph unicode="&#x10e;" horiz-adv-x="1478" d="M33 0v51q88 2 129 35t41 100v1010q0 70 -36 98.5t-134 38.5v51h624q354 0 557 -180t203 -497.5t-202.5 -512t-534.5 -194.5h-647zM535 190q0 -70 24.5 -94t93.5 -24q408 0 408 604q0 180 -37 311t-98.5 198.5t-128 98.5t-142.5 31q-121 0 -120 -72v-1053zM397 1843h115 l229 -203l229 203h117l-252 -361h-188z" />
<glyph unicode="&#x10f;" horiz-adv-x="1261" d="M51 453q0 223 111.5 369.5t281.5 146.5q70 0 124.5 -28t119.5 -99v375q0 72 -26.5 91t-129.5 27v49h441v-1177q0 -66 25.5 -90.5t95.5 -28.5v-47l-127 -16q-152 -16 -273 -52v133q-72 -76 -131 -105.5t-141 -29.5q-162 0 -266.5 136.5t-104.5 345.5zM354 469 q0 -383 160 -383q68 0 121 58.5t53 84.5v498q-20 57 -64 92t-96 35q-174 0 -174 -385zM1050 1257q0 61 40 99t101 38q78 0 131.5 -59t53.5 -143q0 -188 -248 -310l-18 -8l-29 47l14 11q160 111 160 200q0 8 -8 8q-2 0 -19.5 -4t-36.5 -4q-66 0 -103.5 34t-37.5 91z" />
<glyph unicode="&#x110;" horiz-adv-x="1478" d="M12 668v96h187v432q0 70 -36 98.5t-134 38.5v51h624q354 0 557 -180t203 -497.5t-202.5 -512t-534.5 -194.5h-647v51q88 2 129 35t41 100v482h-187zM530 190q0 -70 25 -94t94 -24q408 0 408 604q0 180 -36 311t-97.5 198.5t-128 98.5t-142.5 31q-78 0 -100.5 -21.5 t-22.5 -74.5v-455h234v-96h-234v-478z" />
<glyph unicode="&#x111;" horiz-adv-x="1138" d="M51 453q0 223 111.5 369.5t281.5 146.5q70 0 124.5 -28t119.5 -99v274h-188v90h188v11q0 72 -26.5 91t-129.5 27v49h441v-178h121v-90h-121v-909q0 -66 25.5 -90.5t95.5 -28.5v-47l-127 -16q-152 -16 -273 -52v133q-72 -76 -131 -105.5t-141 -29.5q-162 0 -266.5 136.5 t-104.5 345.5zM354 469q0 -383 160 -383q68 0 121 58.5t53 84.5v498q-20 57 -64 92t-96 35q-174 0 -174 -385z" />
<glyph unicode="&#x112;" horiz-adv-x="1366" d="M33 0v51q115 12 147.5 39t32.5 107v991q0 78 -37 108.5t-143 36.5v51h1181v-411h-51q-39 205 -137 273.5t-348 68.5q-80 0 -106.5 -19.5t-26.5 -76.5v-476h8q162 0 231.5 67t92.5 239h53v-693h-53q-18 178 -91 248t-241 70v-496q0 -66 35.5 -90.5t134.5 -24.5 q223 0 339.5 90.5t200.5 272.5h58l-82 -426h-1198zM340 1493v148h676v-148h-676z" />
<glyph unicode="&#x113;" horiz-adv-x="909" d="M51 467q0 225 118 363.5t310 138.5q350 0 383 -467h-516q2 -55 8 -99.5t21.5 -100.5t41 -93t69.5 -63.5t104 -26.5q66 0 119 30.5t114 106.5l49 -29q-100 -143 -187 -199.5t-212 -56.5q-190 0 -306 136.5t-116 359.5zM336 578h274v30q-2 66 -4 100.5t-10 78.5t-21.5 65.5 t-37 37t-58.5 15.5q-76 0 -107.5 -71.5t-35.5 -255.5zM117 1110v148h676v-148h-676z" />
<glyph unicode="&#x114;" horiz-adv-x="1366" d="M33 0v51q115 12 147.5 39t32.5 107v991q0 78 -37 108.5t-143 36.5v51h1181v-411h-51q-39 205 -137 273.5t-348 68.5q-80 0 -106.5 -19.5t-26.5 -76.5v-476h8q162 0 231.5 67t92.5 239h53v-693h-53q-18 178 -91 248t-241 70v-496q0 -66 35.5 -90.5t134.5 -24.5 q223 0 339.5 90.5t200.5 272.5h58l-82 -426h-1198zM363 1821h90q16 -94 68.5 -136t150.5 -42q94 0 144.5 41t76.5 137h90q-8 -66 -21.5 -114t-45 -103t-93 -86t-151.5 -31q-289 0 -309 334z" />
<glyph unicode="&#x115;" horiz-adv-x="909" d="M51 467q0 225 118 363.5t310 138.5q350 0 383 -467h-516q2 -55 8 -99.5t21.5 -100.5t41 -93t69.5 -63.5t104 -26.5q66 0 119 30.5t114 106.5l49 -29q-100 -143 -187 -199.5t-212 -56.5q-190 0 -306 136.5t-116 359.5zM336 578h274v30q-2 66 -4 100.5t-10 78.5t-21.5 65.5 t-37 37t-58.5 15.5q-76 0 -107.5 -71.5t-35.5 -255.5zM152 1380h90q16 -94 68.5 -136t150.5 -42q94 0 144.5 41t76.5 137h90q-8 -66 -21.5 -114t-45 -103t-93 -86t-151.5 -31q-289 0 -309 334z" />
<glyph unicode="&#x116;" horiz-adv-x="1366" d="M33 0v51q115 12 147.5 39t32.5 107v991q0 78 -37 108.5t-143 36.5v51h1181v-411h-51q-39 205 -137 273.5t-348 68.5q-80 0 -106.5 -19.5t-26.5 -76.5v-476h8q162 0 231.5 67t92.5 239h53v-693h-53q-18 178 -91 248t-241 70v-496q0 -66 35.5 -90.5t134.5 -24.5 q223 0 339.5 90.5t200.5 272.5h58l-82 -426h-1198zM551 1665q0 51 39 90t90 39q55 0 95 -40t40 -95q0 -53 -39 -91t-96 -38q-53 0 -91 39t-38 96z" />
<glyph unicode="&#x117;" horiz-adv-x="909" d="M51 467q0 225 118 363.5t310 138.5q350 0 383 -467h-516q2 -55 8 -99.5t21.5 -100.5t41 -93t69.5 -63.5t104 -26.5q66 0 119 30.5t114 106.5l49 -29q-100 -143 -187 -199.5t-212 -56.5q-190 0 -306 136.5t-116 359.5zM336 578h274v30q-2 66 -4 100.5t-10 78.5t-21.5 65.5 t-37 37t-58.5 15.5q-76 0 -107.5 -71.5t-35.5 -255.5zM324 1186q0 51 39 90t90 39q55 0 95 -40t40 -95q0 -53 -39 -91t-96 -38q-53 0 -91 39t-38 96z" />
<glyph unicode="&#x118;" horiz-adv-x="1366" d="M33 0v51q115 12 147.5 39t32.5 107v991q0 78 -37 108.5t-143 36.5v51h1181v-411h-51q-39 205 -137 273.5t-348 68.5q-80 0 -106.5 -19.5t-26.5 -76.5v-476h8q162 0 231.5 67t92.5 239h53v-693h-53q-18 178 -91 248t-241 70v-496q0 -66 35.5 -90.5t134.5 -24.5 q223 0 339.5 90.5t200.5 272.5h58l-70 -358q-31 -143 -31 -164q0 -53 36 -85t93 -32q27 0 49.5 7t47 20.5t26.5 13.5l45 -29q-39 -70 -106.5 -111.5t-145.5 -41.5q-94 0 -155.5 47t-61.5 119q0 43 17.5 80.5t70.5 107.5h-1095z" />
<glyph unicode="&#x119;" horiz-adv-x="909" d="M51 467q0 225 118 363.5t310 138.5q350 0 383 -467h-516q2 -55 8 -99.5t21.5 -100.5t41 -93t69.5 -63.5t104 -26.5q66 0 119 30.5t114 106.5l49 -29q-59 -88 -115.5 -143t-84 -68.5t-44 -33t-16.5 -58.5q0 -137 129 -137q27 0 49.5 7t47 20.5t26.5 13.5l45 -29 q-39 -70 -106.5 -111.5t-145.5 -41.5q-94 0 -155.5 47t-61.5 119q0 68 68 161q-16 -2 -39 -2q-188 0 -303 136.5t-115 359.5zM336 578h274v30q-2 66 -4 100.5t-10 78.5t-21.5 65.5t-37 37t-58.5 15.5q-76 0 -107.5 -71.5t-35.5 -255.5z" />
<glyph unicode="&#x11a;" horiz-adv-x="1366" d="M33 0v51q115 12 147.5 39t32.5 107v991q0 78 -37 108.5t-143 36.5v51h1181v-411h-51q-39 205 -137 273.5t-348 68.5q-80 0 -106.5 -19.5t-26.5 -76.5v-476h8q162 0 231.5 67t92.5 239h53v-693h-53q-18 178 -91 248t-241 70v-496q0 -66 35.5 -90.5t134.5 -24.5 q223 0 339.5 90.5t200.5 272.5h58l-82 -426h-1198zM338 1843h115l229 -203l229 203h117l-252 -361h-188z" />
<glyph unicode="&#x11b;" horiz-adv-x="909" d="M51 467q0 225 118 363.5t310 138.5q350 0 383 -467h-516q2 -55 8 -99.5t21.5 -100.5t41 -93t69.5 -63.5t104 -26.5q66 0 119 30.5t114 106.5l49 -29q-100 -143 -187 -199.5t-212 -56.5q-190 0 -306 136.5t-116 359.5zM336 578h274v30q-2 66 -4 100.5t-10 78.5t-21.5 65.5 t-37 37t-58.5 15.5q-76 0 -107.5 -71.5t-35.5 -255.5zM111 1440h115l229 -203l229 203h117l-252 -361h-188z" />
<glyph unicode="&#x11c;" horiz-adv-x="1593" d="M76 678q0 315 203.5 526t508.5 211q96 0 181.5 -25.5t142.5 -50t88 -24.5q29 0 49.5 20.5t40.5 73.5h56v-479h-52q-53 117 -97 181.5t-110 121.5q-133 115 -272 115q-186 0 -281.5 -167t-95.5 -489q0 -367 133 -536q98 -127 283 -127q102 0 149.5 35.5t47.5 113.5v215 q0 84 -38 109.5t-169 34.5v51h702v-51q-115 -12 -145.5 -45t-30.5 -144v-260q-98 -57 -251.5 -92t-313.5 -35q-322 0 -525.5 200t-203.5 517zM465 1482l250 361h188l252 -361h-117l-229 201l-229 -201h-115z" />
<glyph unicode="&#x11d;" horiz-adv-x="1024" d="M57 -233q0 125 197 153q-98 35 -133 70t-35 98q0 156 244 240q-254 106 -254 311q0 145 116.5 237.5t299.5 92.5q106 0 229 -45h266v-109h-166q82 -82 82 -201q0 -49 -16.5 -97t-54 -96t-111.5 -77t-174 -29l-92 2q-61 0 -100.5 -29.5t-39.5 -76.5q0 -43 41 -57.5 t164 -14.5h133q158 0 247 -66.5t89 -185.5q0 -152 -132 -230.5t-388 -78.5q-195 0 -303.5 50.5t-108.5 138.5zM238 -219q0 -137 274 -137q152 0 233.5 37.5t81.5 109.5q0 102 -163 103h-355q-43 -35 -57 -57.5t-14 -55.5zM356 637q0 -143 31 -203.5t105 -60.5 q72 0 103.5 60.5t31.5 203.5t-32 205.5t-103.5 62.5t-103.5 -62.5t-32 -205.5zM178 1046l250 361h188l252 -361h-117l-229 201l-229 -201h-115z" />
<glyph unicode="&#x11e;" horiz-adv-x="1593" d="M76 678q0 315 203.5 526t508.5 211q96 0 181.5 -25.5t142.5 -50t88 -24.5q29 0 49.5 20.5t40.5 73.5h56v-479h-52q-53 117 -97 181.5t-110 121.5q-133 115 -272 115q-186 0 -281.5 -167t-95.5 -489q0 -367 133 -536q98 -127 283 -127q102 0 149.5 35.5t47.5 113.5v215 q0 84 -38 109.5t-169 34.5v51h702v-51q-115 -12 -145.5 -45t-30.5 -144v-260q-98 -57 -251.5 -92t-313.5 -35q-322 0 -525.5 200t-203.5 517zM486 1843h90q16 -94 68.5 -136t150.5 -42q94 0 144.5 41t76.5 137h90q-8 -66 -21.5 -114t-45 -103t-93 -86t-151.5 -31 q-289 0 -309 334z" />
<glyph unicode="&#x11f;" horiz-adv-x="1024" d="M57 -233q0 125 197 153q-98 35 -133 70t-35 98q0 156 244 240q-254 106 -254 311q0 145 116.5 237.5t299.5 92.5q106 0 229 -45h266v-109h-166q82 -82 82 -201q0 -49 -16.5 -97t-54 -96t-111.5 -77t-174 -29l-92 2q-61 0 -100.5 -29.5t-39.5 -76.5q0 -43 41 -57.5 t164 -14.5h133q158 0 247 -66.5t89 -185.5q0 -152 -132 -230.5t-388 -78.5q-195 0 -303.5 50.5t-108.5 138.5zM238 -219q0 -137 274 -137q152 0 233.5 37.5t81.5 109.5q0 102 -163 103h-355q-43 -35 -57 -57.5t-14 -55.5zM356 637q0 -143 31 -203.5t105 -60.5 q72 0 103.5 60.5t31.5 203.5t-32 205.5t-103.5 62.5t-103.5 -62.5t-32 -205.5zM203 1415h90q16 -94 68.5 -136t150.5 -42q94 0 144.5 41t76.5 137h90q-8 -66 -21.5 -114t-45 -103t-93 -86t-151.5 -31q-289 0 -309 334z" />
<glyph unicode="&#x120;" horiz-adv-x="1593" d="M76 678q0 315 203.5 526t508.5 211q96 0 181.5 -25.5t142.5 -50t88 -24.5q29 0 49.5 20.5t40.5 73.5h56v-479h-52q-53 117 -97 181.5t-110 121.5q-133 115 -272 115q-186 0 -281.5 -167t-95.5 -489q0 -367 133 -536q98 -127 283 -127q102 0 149.5 35.5t47.5 113.5v215 q0 84 -38 109.5t-169 34.5v51h702v-51q-115 -12 -145.5 -45t-30.5 -144v-260q-98 -57 -251.5 -92t-313.5 -35q-322 0 -525.5 200t-203.5 517zM678 1622q0 51 39 90t90 39q55 0 95 -40t40 -95q0 -53 -39 -91t-96 -38q-53 0 -91 39t-38 96z" />
<glyph unicode="&#x121;" horiz-adv-x="1024" d="M57 -233q0 125 197 153q-98 35 -133 70t-35 98q0 156 244 240q-254 106 -254 311q0 145 116.5 237.5t299.5 92.5q106 0 229 -45h266v-109h-166q82 -82 82 -201q0 -49 -16.5 -97t-54 -96t-111.5 -77t-174 -29l-92 2q-61 0 -100.5 -29.5t-39.5 -76.5q0 -43 41 -57.5 t164 -14.5h133q158 0 247 -66.5t89 -185.5q0 -152 -132 -230.5t-388 -78.5q-195 0 -303.5 50.5t-108.5 138.5zM238 -219q0 -137 274 -137q152 0 233.5 37.5t81.5 109.5q0 102 -163 103h-355q-43 -35 -57 -57.5t-14 -55.5zM356 637q0 -143 31 -203.5t105 -60.5 q72 0 103.5 60.5t31.5 203.5t-32 205.5t-103.5 62.5t-103.5 -62.5t-32 -205.5zM391 1182q0 51 39 90t90 39q55 0 95 -40t40 -95q0 -53 -39 -91t-96 -38q-53 0 -91 39t-38 96z" />
<glyph unicode="&#x122;" horiz-adv-x="1593" d="M76 678q0 315 203.5 526t508.5 211q96 0 181.5 -25.5t142.5 -50t88 -24.5q29 0 49.5 20.5t40.5 73.5h56v-479h-52q-53 117 -97 181.5t-110 121.5q-133 115 -272 115q-186 0 -281.5 -167t-95.5 -489q0 -367 133 -536q98 -127 283 -127q102 0 149.5 35.5t47.5 113.5v215 q0 84 -38 109.5t-169 34.5v51h702v-51q-115 -12 -145.5 -45t-30.5 -144v-260q-98 -57 -251.5 -92t-313.5 -35q-322 0 -525.5 200t-203.5 517zM660 -231q0 61 40 99t101 38q78 0 131 -59.5t53 -143.5q0 -188 -248 -309l-18 -8l-29 47l15 10q160 111 159 201q0 8 -8 8 q-2 0 -19.5 -4t-35.5 -4q-66 0 -103.5 34t-37.5 91z" />
<glyph unicode="&#x123;" horiz-adv-x="1024" d="M57 -233q0 125 197 153q-98 35 -133 70t-35 98q0 156 244 240q-254 106 -254 311q0 145 116.5 237.5t299.5 92.5q106 0 229 -45h266v-109h-166q82 -82 82 -201q0 -49 -16.5 -97t-54 -96t-111.5 -77t-174 -29l-92 2q-61 0 -100.5 -29.5t-39.5 -76.5q0 -43 41 -57.5 t164 -14.5h133q158 0 247 -66.5t89 -185.5q0 -152 -132 -230.5t-388 -78.5q-195 0 -303.5 50.5t-108.5 138.5zM238 -219q0 -137 274 -137q152 0 233.5 37.5t81.5 109.5q0 102 -163 103h-355q-43 -35 -57 -57.5t-14 -55.5zM356 637q0 -143 31 -203.5t105 -60.5 q72 0 103.5 60.5t31.5 203.5t-32 205.5t-103.5 62.5t-103.5 -62.5t-32 -205.5zM670 1188q0 -61 -40 -99t-101 -38q-78 0 -131.5 59t-53.5 143q0 188 248 310l18 8l29 -47l-14 -11q-160 -111 -160 -200q0 -8 8 -8q2 0 19.5 4t36.5 4q66 0 103.5 -34t37.5 -91z" />
<glyph unicode="&#x124;" horiz-adv-x="1593" d="M33 0v51q106 14 140 42t34 104v991q0 76 -36 105.5t-138 39.5v51h690v-51q-106 -8 -145 -37.5t-39 -107.5v-424h493v424q0 78 -39 107.5t-145 37.5v51h696v-51q-104 -8 -142 -38.5t-38 -106.5v-991q0 -76 35 -103.5t145 -42.5v-51h-696v51q113 12 148.5 41t35.5 105v471 h-493v-471q0 -76 35.5 -105t148.5 -41v-51h-690zM442 1482l250 361h188l252 -361h-117l-229 201l-229 -201h-115z" />
<glyph unicode="&#x125;" horiz-adv-x="1138" d="M33 0v49q70 14 89 37t19 86v1045q0 63 -19.5 83.5t-88.5 34.5v49h393v-575q80 88 144.5 124t146.5 36q127 0 201.5 -79t74.5 -210v-508q0 -63 22.5 -91t78.5 -32v-49h-482v49q51 6 74 33t23 84v496q0 170 -107 169q-57 0 -116.5 -48t-59.5 -70v-547q0 -57 21.5 -83 t78.5 -34v-49h-493zM219 1482l250 361h188l252 -361h-117l-229 201l-229 -201h-115z" />
<glyph unicode="&#x126;" horiz-adv-x="1593" d="M43 0v51q106 14 140 42t34 104v737h-156v147h156v107q0 76 -36 105.5t-138 39.5v51h690v-51q-106 -8 -145 -37.5t-39 -107.5v-107h493v107q0 78 -38.5 107.5t-145.5 37.5v51h696v-51q-104 -8 -142 -38.5t-38 -106.5v-107h154v-147h-154v-737q0 -76 35 -103.5t145 -42.5 v-51h-696v51q113 12 148.5 41t35.5 105v471h-493v-471q0 -76 36 -105t148 -41v-51h-690zM549 764h493v170h-493v-170z" />
<glyph unicode="&#x127;" horiz-adv-x="1138" d="M27 1034v148h114v35q0 63 -19.5 83.5t-88.5 34.5v49h393v-202h276v-148h-276v-225q80 88 144.5 124t146.5 36q127 0 201.5 -79t74.5 -210v-508q0 -63 22.5 -91t78.5 -32v-49h-482v49q51 6 74 33t23 84v496q0 170 -107 169q-57 0 -116.5 -48t-59.5 -70v-547 q0 -57 21.5 -83t78.5 -34v-49h-493v49q70 14 89 37t19 86v862h-114z" />
<glyph unicode="&#x128;" horiz-adv-x="796" d="M33 0v51q115 10 152.5 39t37.5 107v991q0 78 -40 107.5t-150 37.5v51h717v-51q-113 -4 -154 -34.5t-41 -110.5v-991q0 -80 39 -109t156 -37v-51h-717zM16 1491q29 133 86.5 194.5t151.5 61.5q66 0 149 -39l82 -36q53 -25 80 -25q41 0 65.5 22.5t45.5 77.5h88 q-70 -260 -240 -260q-63 0 -131 29l-59 27q-102 45 -131 45q-39 0 -67 -27t-34 -70h-86z" />
<glyph unicode="&#x129;" horiz-adv-x="569" d="M33 0v49q70 16 89 38t19 85v602q0 63 -20.5 85t-87.5 36v49h393v-778q0 -57 21.5 -83t74.5 -34v-49h-489zM-96 1050q29 133 86.5 194.5t151.5 61.5q66 0 149 -39l82 -36q53 -25 80 -25q41 0 65.5 22.5t45.5 77.5h88q-70 -260 -240 -260q-63 0 -131 29l-59 27 q-102 45 -131 45q-39 0 -67 -27t-34 -70h-86z" />
<glyph unicode="&#x12a;" horiz-adv-x="796" d="M33 0v51q115 10 152.5 39t37.5 107v991q0 78 -40 107.5t-150 37.5v51h717v-51q-113 -4 -154 -34.5t-41 -110.5v-991q0 -80 39 -109t156 -37v-51h-717zM53 1585v148h676v-148h-676z" />
<glyph unicode="&#x12b;" horiz-adv-x="569" d="M33 0v49q70 16 89 38t19 85v602q0 63 -20.5 85t-87.5 36v49h393v-778q0 -57 21.5 -83t74.5 -34v-49h-489zM-57 1114v148h676v-148h-676z" />
<glyph unicode="&#x12c;" horiz-adv-x="796" d="M33 0v51q115 10 152.5 39t37.5 107v991q0 78 -40 107.5t-150 37.5v51h717v-51q-113 -4 -154 -34.5t-41 -110.5v-991q0 -80 39 -109t156 -37v-51h-717zM82 1821h90q16 -94 68.5 -136t150.5 -42q94 0 144.5 41t76.5 137h90q-8 -66 -21.5 -114t-45 -103t-93 -86t-151.5 -31 q-289 0 -309 334z" />
<glyph unicode="&#x12d;" horiz-adv-x="569" d="M33 0v49q70 16 89 38t19 85v602q0 63 -20.5 85t-87.5 36v49h393v-778q0 -57 21.5 -83t74.5 -34v-49h-489zM-32 1380h90q16 -94 68.5 -136t150.5 -42q94 0 144.5 41t76.5 137h90q-8 -66 -21.5 -114t-45 -103t-93 -86t-151.5 -31q-289 0 -309 334z" />
<glyph unicode="&#x12e;" horiz-adv-x="796" d="M41 0v51q115 10 152.5 39t37.5 107v991q0 78 -39.5 107.5t-150.5 37.5v51h717v-51q-113 -4 -154 -34.5t-41 -110.5v-991q0 -80 39 -109t156 -37v-51q-20 -33 -21 -82q0 -131 129 -131q27 0 49.5 7t47 20.5t26.5 13.5l45 -29q-39 -70 -106.5 -111.5t-145.5 -41.5 q-94 0 -155.5 47t-61.5 119q0 43 17.5 79.5t70.5 108.5h-612z" />
<glyph unicode="&#x12f;" horiz-adv-x="569" d="M33 0v49q70 16 89 38t19 85v602q0 63 -20.5 85t-87.5 36v49h393v-778q0 -57 21.5 -83t74.5 -34v-49q-25 -27 -24 -80q0 -133 129 -133q27 0 49 7t47 20.5t27 13.5l45 -29q-39 -70 -106.5 -111.5t-145.5 -41.5q-94 0 -155.5 47t-61.5 119q0 43 17 79.5t71 108.5h-381z M123 1257q0 66 47 112t112.5 46t111.5 -47t46 -113q0 -68 -46 -112.5t-113.5 -44.5t-112.5 44.5t-45 114.5z" />
<glyph unicode="&#x130;" horiz-adv-x="796" d="M33 0v51q115 10 152.5 39t37.5 107v991q0 78 -40 107.5t-150 37.5v51h717v-51q-113 -4 -154 -34.5t-41 -110.5v-991q0 -80 39 -109t156 -37v-51h-717zM262 1665q0 51 39 90t90 39q55 0 95 -40t40 -95q0 -53 -39 -91t-96 -38q-53 0 -91 39t-38 96z" />
<glyph unicode="&#x131;" horiz-adv-x="569" d="M33 0v49q70 16 89 38t19 85v602q0 63 -20.5 85t-87.5 36v49h393v-778q0 -57 21.5 -83t74.5 -34v-49h-489z" />
<glyph unicode="&#x134;" horiz-adv-x="1024" d="M6 74q0 59 43 103t101 44q59 0 104 -46t45 -107q0 -39 -27.5 -75t-27.5 -56q0 -29 25.5 -47.5t66.5 -18.5q70 0 100.5 42t30.5 136v1139q0 82 -41 111.5t-166 33.5v51h721v-51q-115 -8 -148.5 -43t-33.5 -145v-893q0 -219 -112 -334t-327 -115q-152 0 -253 74t-101 197z M289 1482l250 361h188l252 -361h-117l-229 201l-229 -201h-115z" />
<glyph unicode="&#x135;" horiz-adv-x="692" d="M-4 1210l250 361h188l252 -361h-117l-229 201l-229 -201h-115zM-106 -211q0 55 34.5 90t91.5 35q49 0 85 -33t36 -78q0 -27 -23.5 -67.5t-23.5 -52.5q0 -35 66 -35q98 0 98 155v971q0 66 -25.5 90.5t-103.5 30.5v49h414v-940q0 -420 -363 -420q-127 0 -206.5 57.5 t-79.5 147.5z" />
<glyph unicode="&#x136;" horiz-adv-x="1593" d="M33 0v51q111 12 144.5 40t33.5 106v991q0 80 -36 109.5t-142 35.5v51h692v-51q-113 -8 -147.5 -44t-34.5 -144v-438l444 446q47 47 60.5 67.5t13.5 45.5q0 39 -34 50t-140 17v51h592v-51q-150 -12 -259.5 -90t-398.5 -375l625 -774q35 -41 100 -43v-51h-688v51q29 2 66 2 q96 6 96 41q0 29 -49 90l-373 465l-55 -51v-401q0 -76 34.5 -103.5t145.5 -42.5v-51h-690zM545 -219q0 61 40 99t101 38q78 0 131.5 -59t53.5 -143q0 -188 -248 -310l-18 -8l-29 47l14 11q160 111 160 200q0 8 -8 8q-2 0 -19.5 -4t-36.5 -4q-66 0 -103.5 34t-37.5 91z" />
<glyph unicode="&#x137;" horiz-adv-x="1138" d="M371 -219q0 61 40 99t101 38q78 0 131.5 -59t53.5 -143q0 -188 -248 -310l-18 -8l-29 47l14 11q160 111 160 200q0 8 -8 8q-2 0 -19.5 -4t-36.5 -4q-66 0 -103.5 34t-37.5 91zM45 0v49q98 8 98 123v1045q0 111 -98 118v49h383v-882l262 262q43 43 43 78q0 12 -6 21 t-20.5 14.5t-24.5 8.5t-35.5 6t-34.5 5v47h439v-47q-96 -12 -165 -59t-222 -209l397 -549q23 -31 51 -31v-49h-479v49q86 4 86 39q0 20 -49 92l-195 275l-47 -49v-234q0 -72 17.5 -92.5t89.5 -30.5v-49h-490z" />
<glyph unicode="&#x138;" horiz-adv-x="1093" d="M45 0v49q98 8 98 123v600q0 115 -98 123v49h490v-49q-72 -10 -89.5 -30.5t-17.5 -92.5v-237l43 2q31 2 102.5 78.5t77.5 138t57.5 135.5t153.5 74q80 0 112 -28t32 -87q0 -45 -28 -71.5t-69 -26.5q-47 0 -69.5 30.5t-42.5 30.5q-31 0 -54.5 -65.5t-55.5 -144.5t-79 -103 q49 -2 99.5 -24.5t76.5 -63.5l209 -330q18 -31 60 -31v-49h-303l-209 344q-59 94 -92 94h-21v-266q0 -72 17.5 -92.5t89.5 -30.5v-49h-490z" />
<glyph unicode="&#x139;" horiz-adv-x="1366" d="M33 0v51q113 14 144.5 41t31.5 105v991q0 78 -36 108.5t-140 36.5v51h715v-51q-133 -6 -170 -39.5t-37 -148.5v-967q0 -66 34.5 -90.5t129.5 -24.5q59 0 111 8.5t93 20.5t79 36t63.5 40t52 50t41 51.5t33 54t24.5 50t21.5 50.5t17.5 41h59l-83 -465h-1184zM452 1464 l281 322q51 57 108 57q45 0 72 -24.5t27 -65.5q0 -35 -16.5 -56.5t-65.5 -51.5l-291 -181h-115z" />
<glyph unicode="&#x13a;" horiz-adv-x="569" d="M33 0v49q104 8 104 123v1045q0 111 -104 118v49h389v-1212q0 -121 100 -123v-49h-489zM119 1464l281 322q51 57 108 57q45 0 72 -24.5t27 -65.5q0 -35 -16.5 -56.5t-65.5 -51.5l-291 -181h-115z" />
<glyph unicode="&#x13b;" horiz-adv-x="1366" d="M33 0v51q113 14 144.5 41t31.5 105v991q0 78 -36 108.5t-140 36.5v51h715v-51q-133 -6 -170 -39.5t-37 -148.5v-967q0 -66 34.5 -90.5t129.5 -24.5q59 0 111 8.5t93 20.5t79 36t63.5 40t52 50t41 51.5t33 54t24.5 50t21.5 50.5t17.5 41h59l-83 -465h-1184zM545 -219 q0 61 40 99t101 38q78 0 131.5 -59t53.5 -143q0 -188 -248 -310l-18 -8l-29 47l14 11q160 111 160 200q0 8 -8 8q-2 0 -19.5 -4t-36.5 -4q-66 0 -103.5 34t-37.5 91z" />
<glyph unicode="&#x13c;" horiz-adv-x="569" d="M106 -219q0 61 40 99t101 38q78 0 131.5 -59t53.5 -143q0 -188 -248 -310l-18 -8l-29 47l14 11q160 111 160 200q0 8 -8 8q-2 0 -19.5 -4t-36.5 -4q-66 0 -103.5 34t-37.5 91zM33 0v49q104 8 104 123v1045q0 111 -104 118v49h389v-1212q0 -121 100 -123v-49h-489z" />
<glyph unicode="&#x13d;" horiz-adv-x="1366" d="M936 1268q0 61 40 99t101 38q78 0 131.5 -59t53.5 -143q0 -188 -248 -310l-18 -8l-29 47l14 11q160 111 160 200q0 8 -8 8q-2 0 -19.5 -4t-36.5 -4q-66 0 -103.5 34t-37.5 91zM33 0v51q113 14 144.5 41t31.5 105v991q0 78 -36 108.5t-140 36.5v51h715v-51 q-133 -6 -170 -39.5t-37 -148.5v-967q0 -66 34.5 -90.5t129.5 -24.5q59 0 111 8.5t93 20.5t79 36t63.5 40t52 50t41 51.5t33 54t24.5 50t21.5 50.5t17.5 41h59l-83 -465h-1184z" />
<glyph unicode="&#x13e;" horiz-adv-x="815" d="M489 1268q0 61 40 99t101 38q78 0 131.5 -59t53.5 -143q0 -188 -248 -310l-18 -8l-29 47l14 11q160 111 160 200q0 8 -8 8q-2 0 -19.5 -4t-36.5 -4q-66 0 -103.5 34t-37.5 91zM33 0v49q104 8 104 123v1045q0 111 -104 118v49h389v-1212q0 -121 100 -123v-49h-489z" />
<glyph unicode="&#x13f;" horiz-adv-x="1366" d="M33 0v51q113 14 144.5 41t31.5 105v991q0 78 -36 108.5t-140 36.5v51h715v-51q-133 -6 -170 -39.5t-37 -148.5v-967q0 -66 34.5 -90.5t129.5 -24.5q59 0 111 8.5t93 20.5t79 36t63.5 40t52 50t41 51.5t33 54t24.5 50t21.5 50.5t17.5 41h59l-83 -465h-1184zM750 522 q0 51 39 90t90 39q55 0 95 -40t40 -95q0 -53 -39 -91t-96 -38q-53 0 -91 39t-38 96z" />
<glyph unicode="&#x140;" horiz-adv-x="1081" d="M33 0v49q104 8 104 123v1045q0 111 -104 118v49h389v-1212q0 -121 100 -123v-49h-489zM692 506q0 51 39 90t90 39q55 0 95 -40t40 -95q0 -53 -39 -91t-96 -38q-53 0 -91 39t-38 96z" />
<glyph unicode="&#x141;" horiz-adv-x="1366" d="M39 0v51q113 14 144.5 41t31.5 105v389l-166 -101v125l166 101v477q0 78 -36 108.5t-140 36.5v51h715v-51q-133 -6 -170 -39.5t-37 -148.5v-240l252 156v-125l-252 -156v-602q0 -66 34.5 -90.5t129.5 -24.5q59 0 111 8.5t93 20.5t79 35t63.5 41t52.5 50t41 51.5t32.5 55 t26 50t21.5 49.5t16 41h60l-84 -465h-1184z" />
<glyph unicode="&#x142;" horiz-adv-x="569" d="M-45 489v103l182 147v478q0 111 -104 118v49h389v-462l199 163v-102l-199 -164v-647q0 -121 100 -123v-49h-489v49q104 8 104 123v465z" />
<glyph unicode="&#x143;" horiz-adv-x="1478" d="M33 0v51q113 14 146.5 45t33.5 119v971q-74 88 -108.5 117.5t-65.5 29.5v51h432l715 -878v624q0 109 -39 151t-152 52v51h441v-51q-100 -16 -130 -46t-30 -118v-1206h-57l-916 1114v-823q0 -109 38 -148.5t157 -54.5v-51h-465zM573 1464l281 322q51 57 108 57 q45 0 72 -24.5t27 -65.5q0 -35 -16.5 -56.5t-65.5 -51.5l-291 -181h-115z" />
<glyph unicode="&#x144;" horiz-adv-x="1138" d="M43 0v49q70 14 89.5 37t19.5 86v602q0 63 -20.5 87t-88.5 34v49h391v-153q113 178 293 178q127 0 202 -79t75 -210v-514q0 -66 20 -89.5t80 -27.5v-49h-481v49q51 6 73.5 33t22.5 84v496q0 170 -107 169q-57 0 -116.5 -48t-59.5 -70v-547q0 -57 21.5 -83t79.5 -34v-49 h-494zM405 1081l281 322q51 57 108 57q45 0 72 -24.5t27 -65.5q0 -35 -16.5 -56.5t-65.5 -51.5l-291 -181h-115z" />
<glyph unicode="&#x145;" horiz-adv-x="1478" d="M545 -219q0 61 40 99t101 38q78 0 131.5 -59t53.5 -143q0 -188 -248 -310l-18 -8l-29 47l14 11q160 111 160 200q0 8 -8 8q-2 0 -19.5 -4t-36.5 -4q-66 0 -103.5 34t-37.5 91zM33 0v51q113 14 146.5 45t33.5 119v971q-74 88 -108.5 117.5t-65.5 29.5v51h432l715 -878v624 q0 109 -39 151t-152 52v51h441v-51q-100 -16 -130 -46t-30 -118v-1206h-57l-916 1114v-823q0 -109 38 -148.5t157 -54.5v-51h-465z" />
<glyph unicode="&#x146;" horiz-adv-x="1138" d="M393 -219q0 61 40 99t101 38q78 0 131.5 -59t53.5 -143q0 -188 -248 -310l-18 -8l-29 47l14 11q160 111 160 200q0 8 -8 8q-2 0 -19.5 -4t-36.5 -4q-66 0 -103.5 34t-37.5 91zM43 0v49q70 14 89.5 37t19.5 86v602q0 63 -20.5 87t-88.5 34v49h391v-153q113 178 293 178 q127 0 202 -79t75 -210v-514q0 -66 20 -89.5t80 -27.5v-49h-481v49q51 6 73.5 33t22.5 84v496q0 170 -107 169q-57 0 -116.5 -48t-59.5 -70v-547q0 -57 21.5 -83t79.5 -34v-49h-494z" />
<glyph unicode="&#x147;" horiz-adv-x="1478" d="M33 0v51q113 14 146.5 45t33.5 119v971q-74 88 -108.5 117.5t-65.5 29.5v51h432l715 -878v624q0 109 -39 151t-152 52v51h441v-51q-100 -16 -130 -46t-30 -118v-1206h-57l-916 1114v-823q0 -109 38 -148.5t157 -54.5v-51h-465zM395 1843h115l229 -203l229 203h117 l-252 -361h-188z" />
<glyph unicode="&#x148;" horiz-adv-x="1138" d="M43 0v49q70 14 89.5 37t19.5 86v602q0 63 -20.5 87t-88.5 34v49h391v-153q113 178 293 178q127 0 202 -79t75 -210v-514q0 -66 20 -89.5t80 -27.5v-49h-481v49q51 6 73.5 33t22.5 84v496q0 170 -107 169q-57 0 -116.5 -48t-59.5 -70v-547q0 -57 21.5 -83t79.5 -34v-49 h-494zM227 1442h115l229 -203l229 203h117l-252 -361h-188z" />
<glyph unicode="&#x149;" horiz-adv-x="1138" d="M43 0v49q70 14 89.5 37t19.5 86v602q0 63 -20.5 87t-88.5 34v49h391v-153q113 178 293 178q127 0 202 -79t75 -210v-514q0 -66 20 -89.5t80 -27.5v-49h-481v49q51 6 73.5 33t22.5 84v496q0 170 -107 169q-57 0 -116.5 -48t-59.5 -70v-547q0 -57 21.5 -83t79.5 -34v-49 h-494zM43 1409q0 61 40 99t101 38q78 0 131.5 -59t53.5 -143q0 -188 -248 -310l-18 -8l-29 47l14 11q160 111 160 200q0 8 -8 8q-2 0 -19.5 -4t-36.5 -4q-66 0 -103.5 34t-37.5 91z" />
<glyph unicode="&#x14a;" horiz-adv-x="1478" d="M33 0v51q113 14 146.5 45t33.5 119v971q-74 88 -108.5 117.5t-65.5 29.5v51h432l715 -878v624q0 109 -39 151t-152 52v51h441v-51q-100 -16 -130 -46t-30 -118v-1185q0 -94 -3 -149.5t-15.5 -121t-36 -98.5t-67.5 -56.5t-107 -23.5h-5q-152 0 -253 74t-101 196 q0 59 43 103.5t100 44.5q59 0 104.5 -46t45.5 -108q0 -39 -27.5 -74.5t-27.5 -56.5q0 -29 25.5 -47t66.5 -18q76 0 125 44t49 134v219l-889 1077v-823q0 -109 38 -148.5t157 -54.5v-51h-465z" />
<glyph unicode="&#x14b;" horiz-adv-x="1138" d="M43 0v49q70 14 89.5 37t19.5 86v602q0 63 -20.5 87t-88.5 34v49h391v-153q113 178 293 178q127 0 202 -79t75 -210v-676q0 -420 -363 -420q-127 0 -207 57.5t-80 147.5q0 55 35 90t92 35q49 0 85 -33t36 -78q0 -27 -23.5 -67.5t-23.5 -52.5q0 -35 66 -35q98 0 98 155v859 q0 170 -107 169q-57 0 -116.5 -48t-59.5 -70v-547q0 -57 21.5 -83t79.5 -34v-49h-494z" />
<glyph unicode="&#x14c;" horiz-adv-x="1593" d="M72 686q0 319 205.5 524t527.5 205q309 0 513 -207t204 -520q0 -317 -204 -522t-521.5 -205t-521 204t-203.5 521zM434 668q0 -311 93.5 -475t269.5 -164t269 164.5t93 480.5q0 319 -93 496.5t-263 177.5q-180 0 -274.5 -174t-94.5 -506zM459 1491v148h676v-148h-676z " />
<glyph unicode="&#x14d;" horiz-adv-x="1024" d="M51 475q0 209 134 351.5t329 142.5q199 0 330 -142.5t131 -357.5q0 -213 -131 -355.5t-330 -142.5q-201 0 -332 142.5t-131 361.5zM352 438q0 -225 36 -314t126 -89t125 93t35 329q0 252 -35 350t-123 98q-94 0 -129 -98.5t-35 -368.5zM174 1110v148h676v-148h-676z" />
<glyph unicode="&#x14e;" horiz-adv-x="1593" d="M72 686q0 319 205.5 524t527.5 205q309 0 513 -207t204 -520q0 -317 -204 -522t-521.5 -205t-521 204t-203.5 521zM434 668q0 -311 93.5 -475t269.5 -164t269 164.5t93 480.5q0 319 -93 496.5t-263 177.5q-180 0 -274.5 -174t-94.5 -506zM486 1821h90q16 -94 68.5 -136 t150.5 -42q94 0 144.5 41t76.5 137h90q-8 -66 -21.5 -114t-45 -103t-93 -86t-151.5 -31q-289 0 -309 334z" />
<glyph unicode="&#x14f;" horiz-adv-x="1024" d="M51 475q0 209 134 351.5t329 142.5q199 0 330 -142.5t131 -357.5q0 -213 -131 -355.5t-330 -142.5q-201 0 -332 142.5t-131 361.5zM352 438q0 -225 36 -314t126 -89t125 93t35 329q0 252 -35 350t-123 98q-94 0 -129 -98.5t-35 -368.5zM203 1380h90q16 -94 68.5 -136 t150.5 -42q94 0 144.5 41t76.5 137h90q-8 -66 -21.5 -114t-45 -103t-93 -86t-151.5 -31q-289 0 -309 334z" />
<glyph unicode="&#x150;" horiz-adv-x="1593" d="M72 686q0 319 205.5 524t527.5 205q309 0 513 -207t204 -520q0 -317 -204 -522t-521.5 -205t-521 204t-203.5 521zM434 668q0 -311 93.5 -475t269.5 -164t269 164.5t93 480.5q0 319 -93 496.5t-263 177.5q-180 0 -274.5 -174t-94.5 -506zM540 1464l281 322q51 57 108 57 q45 0 72 -24.5t27 -65.5q0 -35 -16.5 -56.5t-65.5 -51.5l-291 -181h-115zM860 1464l281 322q51 57 108 57q45 0 72 -24.5t27 -65.5q0 -35 -16.5 -56.5t-65.5 -51.5l-291 -181h-115z" />
<glyph unicode="&#x151;" horiz-adv-x="1024" d="M51 475q0 209 134 351.5t329 142.5q199 0 330 -142.5t131 -357.5q0 -213 -131 -355.5t-330 -142.5q-201 0 -332 142.5t-131 361.5zM352 438q0 -225 36 -314t126 -89t125 93t35 329q0 252 -35 350t-123 98q-94 0 -129 -98.5t-35 -368.5zM264 1081l281 322q51 57 108 57 q45 0 72 -24.5t27 -65.5q0 -35 -16.5 -56.5t-65.5 -51.5l-291 -181h-115zM584 1081l281 322q51 57 108 57q45 0 72 -24.5t27 -65.5q0 -35 -16.5 -56.5t-65.5 -51.5l-291 -181h-115z" />
<glyph unicode="&#x152;" horiz-adv-x="2048" d="M45 684q0 319 194.5 518t505.5 199q20 0 326 -17h854v-411h-53q-16 94 -38 148.5t-71 103.5t-138 68.5t-228 19.5q-66 0 -89.5 -11.5t-23.5 -41.5v-510q164 4 216 56t93 247h47v-693h-47q-23 182 -85 248t-224 74v-512q0 -59 29.5 -78.5t120.5 -19.5q215 0 323.5 87 t196.5 273h55l-86 -432h-881q-121 0 -206.5 -5t-102.5 -5q-158 0 -282.5 46t-198.5 117.5t-123 167t-66.5 184.5t-17.5 179zM393 655q0 -174 24.5 -293.5t74 -185t112 -93.5t146.5 -28q147 0 182 75t35 304v596q0 184 -36 244.5t-159 60.5q-379 0 -379 -680z" />
<glyph unicode="&#x153;" horiz-adv-x="1478" d="M45 469q0 219 130 359.5t333 140.5q156 0 256 -101q76 57 131 79t133 22q96 0 168 -32t112 -76t65.5 -112.5t33.5 -122t12 -124.5h-510v-41v-17q0 -326 234 -325q72 0 122 28.5t119 108.5l41 -33q-100 -143 -188 -197.5t-217 -54.5q-150 0 -236 99q-115 -98 -282 -99 q-203 0 -330 138.5t-127 359.5zM342 508q0 -266 34 -370.5t120 -104.5q70 0 102.5 65.5t32.5 206.5v332q0 147 -33 209.5t-109 62.5q-84 0 -115.5 -86t-31.5 -315zM909 578h260q-4 102 -4 114q-4 115 -32.5 166t-90.5 51q-133 0 -133 -221v-110z" />
<glyph unicode="&#x154;" horiz-adv-x="1478" d="M33 0v51q121 14 150.5 45t29.5 144v905q0 111 -34 145.5t-146 42.5v51h659q281 0 429.5 -94t148.5 -270q0 -63 -19.5 -116.5t-47 -87.5t-74 -62.5t-86 -45t-95.5 -34.5l412 -584q31 -39 84 -39v-51h-420l-424 641h-55v-401q0 -109 30.5 -141.5t149.5 -47.5v-51h-692z M545 707q219 4 297 63t78 242q0 162 -61.5 232.5t-203.5 70.5q-111 0 -110 -86v-522zM553 1464l281 322q51 57 108 57q45 0 72 -24.5t27 -65.5q0 -35 -16.5 -56.5t-65.5 -51.5l-291 -181h-115z" />
<glyph unicode="&#x155;" horiz-adv-x="909" d="M59 0v49q68 12 89.5 36t21.5 87v602q0 61 -22.5 87t-88.5 34v49h387v-168q72 102 136.5 147.5t140.5 45.5q72 0 119 -45t47 -115q0 -59 -36 -98t-93 -39q-47 0 -83 30.5t-58.5 60.5t-38.5 30q-51 0 -88 -57.5t-37 -137.5v-387q0 -96 27.5 -126t121.5 -36v-49h-545z M293 1081l281 322q51 57 108 57q45 0 72 -24.5t27 -65.5q0 -35 -16.5 -56.5t-65.5 -51.5l-291 -181h-115z" />
<glyph unicode="&#x156;" horiz-adv-x="1478" d="M33 0v51q121 14 150.5 45t29.5 144v905q0 111 -34 145.5t-146 42.5v51h659q281 0 429.5 -94t148.5 -270q0 -63 -19.5 -116.5t-47 -87.5t-74 -62.5t-86 -45t-95.5 -34.5l412 -584q31 -39 84 -39v-51h-420l-424 641h-55v-401q0 -109 30.5 -141.5t149.5 -47.5v-51h-692z M545 707q219 4 297 63t78 242q0 162 -61.5 232.5t-203.5 70.5q-111 0 -110 -86v-522zM545 -219q0 61 40 99t101 38q78 0 131.5 -59t53.5 -143q0 -188 -248 -310l-18 -8l-29 47l14 11q160 111 160 200q0 8 -8 8q-2 0 -19.5 -4t-36.5 -4q-66 0 -103.5 34t-37.5 91z" />
<glyph unicode="&#x157;" horiz-adv-x="909" d="M59 0v49q68 12 89.5 36t21.5 87v602q0 61 -22.5 87t-88.5 34v49h387v-168q72 102 136.5 147.5t140.5 45.5q72 0 119 -45t47 -115q0 -59 -36 -98t-93 -39q-47 0 -83 30.5t-58.5 60.5t-38.5 30q-51 0 -88 -57.5t-37 -137.5v-387q0 -96 27.5 -126t121.5 -36v-49h-545z M192 -219q0 61 40 99t101 38q78 0 131.5 -59t53.5 -143q0 -188 -248 -310l-18 -8l-29 47l14 11q160 111 160 200q0 8 -8 8q-2 0 -19.5 -4t-36.5 -4q-66 0 -103.5 34t-37.5 91z" />
<glyph unicode="&#x158;" horiz-adv-x="1478" d="M33 0v51q121 14 150.5 45t29.5 144v905q0 111 -34 145.5t-146 42.5v51h659q281 0 429.5 -94t148.5 -270q0 -63 -19.5 -116.5t-47 -87.5t-74 -62.5t-86 -45t-95.5 -34.5l412 -584q31 -39 84 -39v-51h-420l-424 641h-55v-401q0 -109 30.5 -141.5t149.5 -47.5v-51h-692z M545 707q219 4 297 63t78 242q0 162 -61.5 232.5t-203.5 70.5q-111 0 -110 -86v-522zM375 1843h115l229 -203l229 203h117l-252 -361h-188z" />
<glyph unicode="&#x159;" horiz-adv-x="909" d="M59 0v49q68 12 89.5 36t21.5 87v602q0 61 -22.5 87t-88.5 34v49h387v-168q72 102 136.5 147.5t140.5 45.5q72 0 119 -45t47 -115q0 -59 -36 -98t-93 -39q-47 0 -83 30.5t-58.5 60.5t-38.5 30q-51 0 -88 -57.5t-37 -137.5v-387q0 -96 27.5 -126t121.5 -36v-49h-545z M111 1442h115l229 -203l229 203h117l-252 -361h-188z" />
<glyph unicode="&#x15a;" horiz-adv-x="1138" d="M72 -39v506h59q106 -438 418 -438q119 0 188.5 63.5t69.5 169.5q0 80 -47 131t-182 115l-138 65q-182 88 -266 189.5t-84 236.5q0 195 120 305.5t329 110.5q98 0 204.5 -33.5t120.5 -33.5q27 0 41.5 15t24.5 54h61v-444h-57q-59 195 -164.5 287t-230.5 92 q-104 0 -165 -55.5t-61 -149.5q0 -74 44 -122t167 -110l301 -149q98 -49 162 -153.5t64 -219.5q0 -193 -140.5 -312.5t-367.5 -119.5q-111 0 -220.5 35t-129.5 35q-45 0 -62 -70h-59zM407 1464l281 322q51 57 108 57q45 0 72 -24.5t27 -65.5q0 -35 -16.5 -56.5t-65.5 -51.5 l-291 -181h-115z" />
<glyph unicode="&#x15b;" horiz-adv-x="796" d="M51 -27v338h58q66 -270 280 -270q70 0 112 37t42 96q0 53 -50.5 94t-122 74t-143 71t-122 103.5t-50.5 153.5q0 129 91.5 214t230.5 85q57 0 133 -22.5t92 -22.5q33 0 49 41h45v-297h-51q-80 233 -250 233q-57 0 -96 -33.5t-39 -85.5q0 -47 36 -85t89 -60.5t114.5 -54 t115 -65.5t89 -94.5t35.5 -139.5q0 -137 -88 -224.5t-227 -87.5q-84 0 -170 30t-98 30q-23 0 -54 -58h-51zM233 1081l281 322q51 57 108 57q45 0 72 -24.5t27 -65.5q0 -35 -16.5 -56.5t-65.5 -51.5l-291 -181h-115z" />
<glyph unicode="&#x15c;" horiz-adv-x="1138" d="M72 -39v506h59q106 -438 418 -438q119 0 188.5 63.5t69.5 169.5q0 80 -47 131t-182 115l-138 65q-182 88 -266 189.5t-84 236.5q0 195 120 305.5t329 110.5q98 0 204.5 -33.5t120.5 -33.5q27 0 41.5 15t24.5 54h61v-444h-57q-59 195 -164.5 287t-230.5 92 q-104 0 -165 -55.5t-61 -149.5q0 -74 44 -122t167 -110l301 -149q98 -49 162 -153.5t64 -219.5q0 -193 -140.5 -312.5t-367.5 -119.5q-111 0 -220.5 35t-129.5 35q-45 0 -62 -70h-59zM215 1482l250 361h188l252 -361h-117l-229 201l-229 -201h-115z" />
<glyph unicode="&#x15d;" horiz-adv-x="796" d="M51 -27v338h58q66 -270 280 -270q70 0 112 37t42 96q0 53 -50.5 94t-122 74t-143 71t-122 103.5t-50.5 153.5q0 129 91.5 214t230.5 85q57 0 133 -22.5t92 -22.5q33 0 49 41h45v-297h-51q-80 233 -250 233q-57 0 -96 -33.5t-39 -85.5q0 -47 36 -85t89 -60.5t114.5 -54 t115 -65.5t89 -94.5t35.5 -139.5q0 -137 -88 -224.5t-227 -87.5q-84 0 -170 30t-98 30q-23 0 -54 -58h-51zM51 1046l250 361h188l252 -361h-117l-229 201l-229 -201h-115z" />
<glyph unicode="&#x15e;" horiz-adv-x="1138" d="M72 -39v506h59q106 -438 418 -438q119 0 188.5 63.5t69.5 169.5q0 80 -47 131t-182 115l-138 65q-182 88 -266 189.5t-84 236.5q0 195 120 305.5t329 110.5q98 0 204.5 -33.5t120.5 -33.5q27 0 41.5 15t24.5 54h61v-444h-57q-59 195 -164.5 287t-230.5 92 q-104 0 -165 -55.5t-61 -149.5q0 -74 44 -122t167 -110l301 -149q98 -49 162 -153.5t64 -219.5q0 -180 -125 -299t-344 -131l-39 -94q31 10 67 10q84 0 132.5 -38t48.5 -105q0 -84 -72 -133t-195 -49q-94 0 -196 36l32 76q66 -29 121 -28q119 0 119 83q0 74 -94 74 q-27 0 -57 -8l-23 16l70 160q-90 4 -186.5 36t-116.5 32q-45 0 -62 -70h-59z" />
<glyph unicode="&#x15f;" horiz-adv-x="796" d="M51 -27v338h58q66 -270 280 -270q70 0 112 37t42 96q0 53 -50.5 94t-122 74t-143 71t-122 103.5t-50.5 153.5q0 129 91.5 214t230.5 85q57 0 133 -22.5t92 -22.5q33 0 49 41h45v-297h-51q-80 233 -250 233q-57 0 -96 -33.5t-39 -85.5q0 -47 36 -85t89 -60.5t114.5 -54 t115 -65.5t89 -94.5t35.5 -139.5q0 -135 -82 -219t-221 -93l-45 -102q31 10 68 10q84 0 132 -38t48 -105q0 -84 -71.5 -133t-194.5 -49q-94 0 -197 36l33 76q82 -29 123 -28q117 0 117 83q0 74 -95 74q-27 0 -57 -8l-23 16l78 174q-59 12 -99 23.5t-51.5 18t-21.5 9.5t-24 3 q-23 0 -54 -58h-51z" />
<glyph unicode="&#x160;" horiz-adv-x="1138" d="M72 -39v506h59q106 -438 418 -438q119 0 188.5 63.5t69.5 169.5q0 80 -47 131t-182 115l-138 65q-182 88 -266 189.5t-84 236.5q0 195 120 305.5t329 110.5q98 0 204.5 -33.5t120.5 -33.5q27 0 41.5 15t24.5 54h61v-444h-57q-59 195 -164.5 287t-230.5 92 q-104 0 -165 -55.5t-61 -149.5q0 -74 44 -122t167 -110l301 -149q98 -49 162 -153.5t64 -219.5q0 -193 -140.5 -312.5t-367.5 -119.5q-111 0 -220.5 35t-129.5 35q-45 0 -62 -70h-59zM223 1843h115l229 -203l229 203h117l-252 -361h-188z" />
<glyph unicode="&#x161;" horiz-adv-x="796" d="M51 -27v338h58q66 -270 280 -270q70 0 112 37t42 96q0 53 -50.5 94t-122 74t-143 71t-122 103.5t-50.5 153.5q0 129 91.5 214t230.5 85q57 0 133 -22.5t92 -22.5q33 0 49 41h45v-297h-51q-80 233 -250 233q-57 0 -96 -33.5t-39 -85.5q0 -47 36 -85t89 -60.5t114.5 -54 t115 -65.5t89 -94.5t35.5 -139.5q0 -137 -88 -224.5t-227 -87.5q-84 0 -170 30t-98 30q-23 0 -54 -58h-51zM55 1440h115l229 -203l229 203h117l-252 -361h-188z" />
<glyph unicode="&#x162;" horiz-adv-x="1366" d="M61 973l7 411h1228l4 -411h-59q-27 182 -116 261t-277 85v-1079q0 -117 33.5 -148t167.5 -41v-51h-328l-57 -131q31 10 65 10q86 0 133 -38t47 -105q0 -84 -71.5 -133t-194.5 -49q-94 0 -197 36l33 76q86 -29 123 -28q119 0 119 83q0 33 -25.5 53.5t-68.5 20.5 q-31 0 -58 -8l-24 16l90 197h-318v51q131 10 165 42t34 147v1079q-190 -6 -279.5 -85t-115.5 -261h-60z" />
<glyph unicode="&#x163;" horiz-adv-x="681" d="M41 854v55q100 84 173 166t167 215h51v-346h193v-90h-193v-616q0 -61 18.5 -89t61.5 -28q61 0 117 106l51 -22q-55 -113 -115.5 -166t-142.5 -62l-60 -133q31 10 68 11q84 0 132 -38t48 -106q0 -84 -71.5 -133t-194.5 -49q-94 0 -197 37l33 76q94 -29 123 -29 q117 0 117 84q0 74 -94 74q-27 0 -58 -9l-22 17l90 198q-88 10 -138.5 67.5t-50.5 145.5v664h-106z" />
<glyph unicode="&#x164;" horiz-adv-x="1366" d="M63 973l7 411h1228l5 -411h-60q-27 182 -116 261t-277 85v-1079q0 -117 34 -148t167 -41v-51h-732v51q131 10 165 42t34 147v1079q-190 -6 -279 -85t-116 -261h-60zM338 1843h115l229 -203l229 203h117l-252 -361h-188z" />
<glyph unicode="&#x165;" horiz-adv-x="919" d="M41 854v55q100 84 173 166t167 215h51v-346h193v-90h-193v-616q0 -61 18.5 -89t61.5 -28q61 0 117 106l51 -22q-63 -125 -132 -177.5t-171 -52.5q-106 0 -168 57.5t-62 157.5v664h-106zM592 1319q0 61 40 99t101 38q78 0 131.5 -59t53.5 -143q0 -188 -248 -310l-18 -8 l-29 47l14 11q160 111 160 200q0 8 -8 8q-2 0 -19.5 -4t-36.5 -4q-66 0 -103.5 34t-37.5 91z" />
<glyph unicode="&#x166;" horiz-adv-x="1366" d="M66 973l6 411h1228l5 -411h-60q-27 182 -116 261t-277 85v-504h170v-147h-172v-428q0 -117 34 -148t167 -41v-51h-732v51h5q131 10 164.5 42t33.5 147v428h-174v147h172v504q-190 -6 -279 -85t-116 -261h-59z" />
<glyph unicode="&#x167;" horiz-adv-x="681" d="M27 477v148h120v229h-106v55q100 84 173 166t167 215h51v-346h193v-90h-193v-229h129v-148h-129v-239q0 -61 18.5 -89t61.5 -28q61 0 117 106l51 -22q-63 -125 -132 -177.5t-171 -52.5q-106 0 -168 57.5t-62 157.5v287h-120z" />
<glyph unicode="&#x168;" horiz-adv-x="1478" d="M33 1333v51h692v-51q-123 -4 -161 -37.5t-38 -150.5v-684q0 -209 72 -304.5t229 -95.5q182 0 270.5 109t88.5 336v624q0 113 -40 153t-161 50v51h451v-51q-98 -14 -129 -49t-31 -125v-653q0 -545 -528 -545q-229 0 -379 109q-94 68 -131 153.5t-37 237.5v684 q0 111 -29.5 144.5t-138.5 43.5zM360 1491q29 133 86.5 194.5t151.5 61.5q66 0 149 -39l82 -36q53 -25 80 -25q41 0 65.5 22.5t45.5 77.5h88q-70 -260 -240 -260q-63 0 -131 29l-59 27q-102 45 -131 45q-39 0 -67 -27t-34 -70h-86z" />
<glyph unicode="&#x169;" horiz-adv-x="1138" d="M33 895v49h385v-694q0 -78 25.5 -112t88.5 -34q78 0 168 91v579q0 66 -25.5 90.5t-101.5 30.5v49h412v-737q0 -66 23.5 -91.5t91.5 -27.5v-47l-127 -14q-170 -18 -271 -54v133q-90 -78 -153.5 -106.5t-142.5 -28.5q-127 0 -200 76t-73 211v516q0 63 -18.5 86t-81.5 35z M192 1050q29 133 86.5 194.5t151.5 61.5q66 0 149 -39l82 -36q53 -25 80 -25q41 0 65.5 22.5t45.5 77.5h88q-70 -260 -240 -260q-63 0 -131 29l-59 27q-102 45 -131 45q-39 0 -67 -27t-34 -70h-86z" />
<glyph unicode="&#x16a;" horiz-adv-x="1478" d="M33 1333v51h692v-51q-123 -4 -161 -37.5t-38 -150.5v-684q0 -209 72 -304.5t229 -95.5q182 0 270.5 109t88.5 336v624q0 113 -40 153t-161 50v51h451v-51q-98 -14 -129 -49t-31 -125v-653q0 -545 -528 -545q-229 0 -379 109q-94 68 -131 153.5t-37 237.5v684 q0 111 -29.5 144.5t-138.5 43.5zM397 1491v148h676v-148h-676z" />
<glyph unicode="&#x16b;" horiz-adv-x="1138" d="M33 895v49h385v-694q0 -78 25.5 -112t88.5 -34q78 0 168 91v579q0 66 -25.5 90.5t-101.5 30.5v49h412v-737q0 -66 23.5 -91.5t91.5 -27.5v-47l-127 -14q-170 -18 -271 -54v133q-90 -78 -153.5 -106.5t-142.5 -28.5q-127 0 -200 76t-73 211v516q0 63 -18.5 86t-81.5 35z M229 1106v148h676v-148h-676z" />
<glyph unicode="&#x16c;" horiz-adv-x="1478" d="M33 1333v51h692v-51q-123 -4 -161 -37.5t-38 -150.5v-684q0 -209 72 -304.5t229 -95.5q182 0 270.5 109t88.5 336v624q0 113 -40 153t-161 50v51h451v-51q-98 -14 -129 -49t-31 -125v-653q0 -545 -528 -545q-229 0 -379 109q-94 68 -131 153.5t-37 237.5v684 q0 111 -29.5 144.5t-138.5 43.5zM424 1821h90q16 -94 68.5 -136t150.5 -42q94 0 144.5 41t76.5 137h90q-8 -66 -21.5 -114t-45 -103t-93 -86t-151.5 -31q-289 0 -309 334z" />
<glyph unicode="&#x16d;" horiz-adv-x="1138" d="M33 895v49h385v-694q0 -78 25.5 -112t88.5 -34q78 0 168 91v579q0 66 -25.5 90.5t-101.5 30.5v49h412v-737q0 -66 23.5 -91.5t91.5 -27.5v-47l-127 -14q-170 -18 -271 -54v133q-90 -78 -153.5 -106.5t-142.5 -28.5q-127 0 -200 76t-73 211v516q0 63 -18.5 86t-81.5 35z M256 1380h90q16 -94 68.5 -136t150.5 -42q94 0 144.5 41t76.5 137h90q-8 -66 -21.5 -114t-45 -103t-93 -86t-151.5 -31q-289 0 -309 334z" />
<glyph unicode="&#x16e;" horiz-adv-x="1478" d="M33 1333v51h692v-51q-123 -4 -161 -37.5t-38 -150.5v-684q0 -209 72 -304.5t229 -95.5q182 0 270.5 109t88.5 336v624q0 113 -40 153t-161 50v51h451v-51q-98 -14 -129 -49t-31 -125v-653q0 -545 -528 -545q-229 0 -379 109q-94 68 -131 153.5t-37 237.5v684 q0 111 -29.5 144.5t-138.5 43.5zM538 1643q0 80 61.5 140.5t143.5 60.5t142.5 -60.5t60.5 -144.5t-60.5 -143.5t-144.5 -59.5t-143.5 60.5t-59.5 146.5zM630 1639q0 -45 32 -78t77 -33q47 0 81 32t34 77q0 47 -34 81t-79 34t-78 -34t-33 -79z" />
<glyph unicode="&#x16f;" horiz-adv-x="1138" d="M33 895v49h385v-694q0 -78 25.5 -112t88.5 -34q78 0 168 91v579q0 66 -25.5 90.5t-101.5 30.5v49h412v-737q0 -66 23.5 -91.5t91.5 -27.5v-47l-127 -14q-170 -18 -271 -54v133q-90 -78 -153.5 -106.5t-142.5 -28.5q-127 0 -200 76t-73 211v516q0 63 -18.5 86t-81.5 35z M364 1270q0 80 61.5 140.5t143.5 60.5t142.5 -60.5t60.5 -144.5t-60.5 -143.5t-144.5 -59.5t-143.5 60.5t-59.5 146.5zM456 1266q0 -45 32 -78t77 -33q47 0 81 32t34 77q0 47 -34 81t-79 34t-78 -34t-33 -79z" />
<glyph unicode="&#x170;" horiz-adv-x="1478" d="M33 1333v51h692v-51q-123 -4 -161 -37.5t-38 -150.5v-684q0 -209 72 -304.5t229 -95.5q182 0 270.5 109t88.5 336v624q0 113 -40 153t-161 50v51h451v-51q-98 -14 -129 -49t-31 -125v-653q0 -545 -528 -545q-229 0 -379 109q-94 68 -131 153.5t-37 237.5v684 q0 111 -29.5 144.5t-138.5 43.5zM503 1462l281 322q51 57 108 57q45 0 72 -24.5t27 -65.5q0 -35 -16.5 -56.5t-65.5 -51.5l-291 -181h-115zM823 1462l281 322q51 57 108 57q45 0 72 -24.5t27 -65.5q0 -35 -16.5 -56.5t-65.5 -51.5l-291 -181h-115z" />
<glyph unicode="&#x171;" horiz-adv-x="1138" d="M33 895v49h385v-694q0 -78 25.5 -112t88.5 -34q78 0 168 91v579q0 66 -25.5 90.5t-101.5 30.5v49h412v-737q0 -66 23.5 -91.5t91.5 -27.5v-47l-127 -14q-170 -18 -271 -54v133q-90 -78 -153.5 -106.5t-142.5 -28.5q-127 0 -200 76t-73 211v516q0 63 -18.5 86t-81.5 35z M210 1081l281 322q51 57 108 57q45 0 72 -24.5t27 -65.5q0 -35 -16.5 -56.5t-65.5 -51.5l-291 -181h-115zM530 1081l281 322q51 57 108 57q45 0 72 -24.5t27 -65.5q0 -35 -16.5 -56.5t-65.5 -51.5l-291 -181h-115z" />
<glyph unicode="&#x172;" horiz-adv-x="1478" d="M33 1333v51h692v-51q-123 -4 -161 -37.5t-38 -150.5v-684q0 -209 72 -304.5t229 -95.5q182 0 270.5 109t88.5 336v624q0 113 -40 153t-161 50v51h451v-51q-98 -14 -129 -49t-31 -125v-653q0 -113 -23.5 -204t-53.5 -138t-53.5 -106.5t-23.5 -116.5q0 -154 131 -154 q25 0 45.5 6t44 18.5t33.5 16.5l45 -29q-39 -70 -106.5 -111.5t-145.5 -41.5q-96 0 -157.5 47t-61.5 119q0 47 24.5 94t94.5 133q-141 -78 -319 -78q-231 0 -381 109q-94 68 -131 153.5t-37 237.5v684q0 111 -29.5 144.5t-138.5 43.5z" />
<glyph unicode="&#x173;" horiz-adv-x="1138" d="M33 895v49h385v-694q0 -78 25.5 -112t88.5 -34q78 0 168 91v579q0 66 -25.5 90.5t-101.5 30.5v49h412v-737q0 -66 23.5 -91.5t91.5 -27.5v-47l-127 -14q-63 -6 -97 -37t-34 -80q0 -59 33.5 -91t95.5 -32q27 0 49 7t47 20.5t27 13.5l45 -29q-39 -70 -106.5 -111.5 t-145.5 -41.5q-94 0 -155.5 46t-61.5 118q0 53 32 110v186q-90 -78 -153.5 -106.5t-142.5 -28.5q-127 0 -200 76t-73 211v516q0 63 -18.5 86t-81.5 35z" />
<glyph unicode="&#x174;" horiz-adv-x="2048" d="M39 1333v51h602v-51q-80 -6 -105.5 -23.5t-25.5 -62.5q0 -23 14 -67l246 -746l242 631l-72 197q-31 66 -147 71v51h639v-51q-12 -2 -27 -2q-68 -4 -94.5 -20.5t-26.5 -53.5q0 -23 29 -114l221 -688l229 702q14 41 15 86q0 47 -30 66.5t-112 23.5v51h373v-51 q-102 -10 -141 -131l-410 -1233h-55l-350 977l-381 -977h-58l-434 1233q-27 76 -51 98.5t-90 32.5zM772 1482l250 361h188l252 -361h-117l-229 201l-229 -201h-115z" />
<glyph unicode="&#x175;" horiz-adv-x="1478" d="M47 895v49h455v-49q-78 -10 -78 -57q0 -29 48 -156t75 -190l49 -132l139 351l-12 39q-29 100 -45 119.5t-76 25.5v49h479v-49q-57 -4 -77.5 -14.5t-20.5 -35t11.5 -62.5t44 -152.5t69.5 -261.5q41 117 78 210t52 126.5t23.5 61.5t8.5 56q0 35 -20.5 50.5t-78.5 21.5v49 h277v-49q-41 -8 -60.5 -26.5t-41.5 -75.5l-318 -822h-47l-209 635l-256 -635h-49l-303 766q-41 102 -59.5 126t-57.5 32zM404 1046l250 361h188l252 -361h-117l-229 201l-229 -201h-115z" />
<glyph unicode="&#x176;" horiz-adv-x="1478" d="M31 1333v51h686v-51l-51 -2q-63 0 -89 -14t-26 -47q0 -20 10 -44t23.5 -46.5t15.5 -30.5l246 -475l227 379q80 131 80 194q0 45 -35 61.5t-137 24.5v51h451v-51q-100 -14 -140 -80l-391 -637v-376q0 -113 31 -145t158 -44v-51h-711v51q125 12 157.5 44t32.5 145v301 l-374 680q-64 106 -164 112zM387 1482l250 361h188l252 -361h-117l-229 201l-229 -201h-115z" />
<glyph unicode="&#x177;" horiz-adv-x="1024" d="M33 -258q0 57 36.5 94t94.5 37q53 0 86 -27.5t33 -72.5q0 -10 -3.5 -24.5t-3.5 -16.5q0 -14 10.5 -24.5t24.5 -10.5q35 0 72 46t63 122l37 108l-245 605q-27 68 -78 177t-56 109q-16 23 -71 31v49h512v-49l-33 -2q-76 -6 -76 -51q0 -16 41 -121l148 -379l139 393 q23 63 22 92q0 37 -23.5 50.5t-88.5 17.5v49h309v-49q-47 -4 -70.5 -26.5t-48.5 -86.5l-305 -813q-78 -207 -113 -262q-80 -127 -215 -127q-88 0 -143 45t-55 117zM164 1046l250 361h188l252 -361h-117l-229 201l-229 -201h-115z" />
<glyph unicode="&#x178;" horiz-adv-x="1478" d="M31 1333v51h686v-51l-51 -2q-63 0 -89 -14t-26 -47q0 -20 10 -44t23.5 -46.5t15.5 -30.5l246 -475l227 379q80 131 80 194q0 45 -35 61.5t-137 24.5v51h451v-51q-100 -14 -140 -80l-391 -637v-376q0 -113 31 -145t158 -44v-51h-711v51q125 12 157.5 44t32.5 145v301 l-374 680q-64 106 -164 112zM453 1663q0 53 39 92t92 39t93 -40t40 -95q0 -53 -39 -91t-94 -38q-53 0 -92 40t-39 93zM883 1665q0 51 39 90t90 39q55 0 95 -40t40 -95q0 -53 -39 -91t-96 -38q-53 0 -91 39t-38 96z" />
<glyph unicode="&#x179;" horiz-adv-x="1366" d="M57 0v33l783 1280q-39 -2 -98.5 -4t-71.5 -2q-229 0 -323.5 -65.5t-168.5 -278.5h-57l43 421h1073v-32l-776 -1280h151q389 0 521 153q55 68 102 234q8 27 10 35h53l-53 -494h-1188zM518 1464l281 322q51 57 108 57q45 0 72 -24.5t27 -65.5q0 -35 -16.5 -56.5 t-65.5 -51.5l-291 -181h-115z" />
<glyph unicode="&#x17a;" horiz-adv-x="909" d="M43 0v51l479 828h-22q-199 0 -265.5 -41t-103.5 -185h-53l14 291h760v-53l-473 -825h59q162 0 242 55t123 207h57l-33 -328h-784zM293 1081l281 322q51 57 108 57q45 0 72 -24.5t27 -65.5q0 -35 -16.5 -56.5t-65.5 -51.5l-291 -181h-115z" />
<glyph unicode="&#x17b;" horiz-adv-x="1366" d="M57 0v33l783 1280q-39 -2 -98.5 -4t-71.5 -2q-229 0 -323.5 -65.5t-168.5 -278.5h-57l43 421h1073v-32l-776 -1280h151q389 0 521 153q55 68 102 234q8 27 10 35h53l-53 -494h-1188zM553 1665q0 51 39 90t90 39q55 0 95 -40t40 -95q0 -53 -39 -91t-96 -38q-53 0 -91 39 t-38 96z" />
<glyph unicode="&#x17c;" horiz-adv-x="909" d="M43 0v51l479 828h-22q-199 0 -265.5 -41t-103.5 -185h-53l14 291h760v-53l-473 -825h59q162 0 242 55t123 207h57l-33 -328h-784zM324 1235q0 51 39 90t90 39q55 0 95 -40t40 -95q0 -53 -39 -91t-96 -38q-53 0 -91 39t-38 96z" />
<glyph unicode="&#x17d;" horiz-adv-x="1366" d="M57 0v33l783 1280q-39 -2 -98.5 -4t-71.5 -2q-229 0 -323.5 -65.5t-168.5 -278.5h-57l43 421h1073v-32l-776 -1280h151q389 0 521 153q55 68 102 234q8 27 10 35h53l-53 -494h-1188zM340 1843h115l229 -203l229 203h117l-252 -361h-188z" />
<glyph unicode="&#x17e;" horiz-adv-x="909" d="M43 0v51l479 828h-22q-199 0 -265.5 -41t-103.5 -185h-53l14 291h760v-53l-473 -825h59q162 0 242 55t123 207h57l-33 -328h-784zM131 1442h115l229 -203l229 203h117l-252 -361h-188z" />
<glyph unicode="&#x17f;" horiz-adv-x="681" d="M29 0v49q70 8 93 32.5t23 90.5v682h-116v90h116q0 90 7.5 154.5t29 128t60.5 102.5t104.5 62.5t157.5 23.5q129 0 211 -57.5t82 -147.5q0 -57 -35 -92t-92 -35q-51 0 -87 33t-36 80q0 27 22.5 67t22.5 50q0 39 -60 39q-53 0 -77.5 -37t-24.5 -121v-983q0 -100 31 -130 t137 -32v-49h-569z" />
<glyph unicode="&#x180;" horiz-adv-x="1138" d="M27 1116v90h120v11q0 61 -20.5 82.5t-91.5 35.5v49h397v-178h189v-90h-189v-262q109 115 250 115q170 0 277.5 -133.5t107.5 -346.5q0 -229 -129 -373.5t-334 -144.5q-139 0 -270 117l-162 -115h-25v1143h-120zM432 199q0 -74 39 -118t102 -44q193 0 193 416 q0 406 -191 405q-96 0 -143 -121v-538z" />
<glyph unicode="&#x181;" horiz-adv-x="1648" d="M0 1143q0 242 385 241h563q256 0 394.5 -85t138.5 -242q0 -117 -74 -187.5t-252 -121.5q395 -84 395 -363q0 -174 -157.5 -279.5t-417.5 -105.5h-660v51q113 12 147 40t34 106v981q0 78 -37 108.5t-144 36.5h-34q-104 0 -163 -51t-59 -154q0 -39 21.5 -64.5t50.5 -25.5 q23 0 58.5 26.5t72.5 26.5q61 0 108.5 -45t47.5 -102t-44 -100t-104 -43q-123 0 -196.5 100t-73.5 252zM823 190q0 -68 29 -96t96 -28q250 0 250 301q0 336 -313 335h-62v-512zM823 764q188 4 254 60.5t66 217.5q0 145 -51.5 213t-157.5 68q-59 0 -85 -22.5t-26 -77.5v-459z " />
<glyph unicode="&#x182;" horiz-adv-x="1327" d="M33 0v51q106 8 139 44t33 145v905q0 41 -2 67.5t-13.5 47t-18.5 30.5t-34.5 19.5t-43 12.5t-60.5 11v51h1110v-411h-49q-37 168 -97 235q-94 106 -372 107q-61 0 -74.5 -26.5t-13.5 -143.5v-340q209 -2 288.5 -10.5t147.5 -34.5q121 -47 188.5 -146.5t67.5 -220.5 q0 -180 -141.5 -286.5t-395.5 -106.5h-659zM537 143q0 -72 102 -71q125 0 181.5 80.5t56.5 250.5q0 86 -20.5 146.5t-47.5 91.5t-79 46t-89 18.5t-104 3.5v-566z" />
<glyph unicode="&#x183;" horiz-adv-x="1138" d="M35 1335v49h16h381h399l15 -311h-53q-18 70 -30.5 101.5t-35 67.5t-58.5 48.5t-92.5 20.5t-144.5 8v-465q109 115 250 115q170 0 277.5 -133.5t107.5 -346.5q0 -229 -129 -373.5t-334 -144.5q-139 0 -270 117l-162 -115h-25v1244q0 61 -20 82.5t-92 35.5zM432 199 q0 -74 39 -118t102 -44q193 0 193 416q0 406 -191 405q-96 0 -143 -121v-538z" />
<glyph unicode="&#x184;" horiz-adv-x="1366" d="M33 0v51q51 4 74.5 9.5t53 19.5t41 43t11.5 74v612q0 35 -35 122t-35 126q0 20 169 184t202 164q27 0 27 -33v-608q86 0 146.5 -3t155.5 -13.5t161.5 -36t131 -65.5t98.5 -107.5t34 -157.5q0 -106 -55.5 -184t-145.5 -119t-183 -59.5t-192 -18.5h-659zM541 190 q0 -66 28.5 -95t94.5 -29q252 0 251 307q0 330 -313 329h-61v-512z" />
<glyph unicode="&#x185;" horiz-adv-x="1138" d="M35 1055q0 23 169 186.5t202 163.5q27 0 26 -33v-518q109 115 250 115q184 0 284.5 -141.5t100.5 -333.5q0 -227 -126 -375t-351 -148q-135 0 -256 117l-162 -115h-25v832q-112 225 -112 250zM432 199q0 -68 37 -115t102 -47q47 0 82 20.5t55.5 61.5t33 80t17.5 96t6 88 t1 80q0 395 -191 395q-96 0 -143 -121v-538z" />
<glyph unicode="&#x186;" horiz-adv-x="1478" d="M1407 694q0 -313 -204 -523t-509 -210q-96 0 -181 25.5t-142.5 50t-88.5 24.5q-29 0 -49 -20.5t-41 -73.5h-55v479h51q20 -45 43 -85t70 -105.5t96 -111.5t122 -81t148 -35q184 0 280.5 166t96.5 484q0 639 -411 639q-135 0 -246 -65.5t-226 -186.5l-61 51l27 31 q27 29 33 35l37 37q30 30 46.5 42.5t51 38t60.5 37.5t67 29.5t78.5 27t85 15.5t96.5 6q317 0 521 -203t204 -518z" />
<glyph unicode="&#x187;" horiz-adv-x="1873" d="M100 682q0 313 204 523t509 210q96 0 181 -25.5t142.5 -50t88.5 -24.5q29 0 49 20.5t41 73.5q0 274 223 274q154 0 245 -68.5t91 -191.5q0 -57 -44 -102t-99 -45q-61 0 -106.5 47t-45.5 109q0 37 28.5 72.5t28.5 58.5q0 29 -25.5 47t-68.5 18q-74 0 -123 -45t-49 -135 v-518h-51q-20 45 -43 85t-70 105.5t-96 111.5t-122 81t-148 35q-184 0 -280.5 -166t-96.5 -484q0 -639 411 -639q135 0 246 65.5t226 186.5l61 -51l-27 -31q-27 -29 -33 -35l-37 -37q-30 -30 -46.5 -42.5t-51 -38t-60.5 -37.5t-67 -29.5t-78.5 -27t-85 -15.5t-96.5 -6 q-317 0 -521 203t-204 518z" />
<glyph unicode="&#x188;" horiz-adv-x="1239" d="M51 457q0 221 137.5 366.5t346.5 145.5q78 0 145 -25q2 268 223 268q154 0 245 -68.5t91 -191.5q0 -57 -44 -102t-99 -45q-61 0 -106.5 47t-45.5 109q0 37 28.5 72.5t28.5 58.5q0 29 -25.5 47t-68.5 18q-74 0 -123 -45t-49 -135q0 -27 58.5 -109t58.5 -125q0 -59 -37 -94 t-102 -35q-113 0 -115 148q0 86 -10 104q-20 39 -76 39q-80 0 -126 -91t-46 -249q0 -209 79 -332.5t212 -123.5q63 0 109 25.5t104 88.5l37 -37q-90 -115 -181.5 -165t-210.5 -50q-190 0 -314 137.5t-124 348.5z" />
<glyph unicode="&#x189;" horiz-adv-x="1478" d="M12 668v96h187v432q0 70 -36 98.5t-134 38.5v51h624q354 0 557 -180t203 -497.5t-202.5 -512t-534.5 -194.5h-647v51q88 2 129 35t41 100v482h-187zM530 190q0 -70 25 -94t94 -24q408 0 408 604q0 180 -36 311t-97.5 198.5t-128 98.5t-142.5 31q-78 0 -100.5 -21.5 t-22.5 -74.5v-455h234v-96h-234v-478z" />
<glyph unicode="&#x18a;" horiz-adv-x="1765" d="M0 1143q0 242 385 241h555q354 0 557 -180t203 -497.5t-203 -512t-534 -194.5h-648v51q88 2 129 35t41 100v1000q0 70 -35.5 98.5t-134.5 38.5h-34q-104 0 -163 -51t-59 -154q0 -39 21.5 -64.5t50.5 -25.5q23 0 58.5 26.5t72.5 26.5q61 0 108.5 -45t47.5 -102t-44 -100 t-104 -43q-123 0 -196.5 99t-73.5 253zM817 190q0 -70 24.5 -94t94.5 -24q408 0 407 604q0 180 -36.5 311t-98 198.5t-128 98.5t-142.5 31q-121 0 -121 -72v-1053z" />
<glyph unicode="&#x18b;" horiz-adv-x="1366" d="M33 436q0 229 121.5 331.5t363.5 102.5h8q129 0 234 -24v373q0 57 -29 76.5t-106 19.5q-115 0 -197 -19.5t-127 -45t-76.5 -79t-42 -89t-26.5 -109.5h-50v411h1162v-51q-106 -6 -143.5 -36.5t-37.5 -108.5v-991q0 -78 34 -106t147 -40v-51h-660q-575 0 -575 436zM385 408 q0 -154 64.5 -248t185.5 -94q68 0 96.5 28.5t28.5 95.5v576q-25 18 -62 18h-4q-141 0 -225 -103t-84 -273z" />
<glyph unicode="&#x18c;" horiz-adv-x="1138" d="M51 453q0 223 111.5 369.5t281.5 146.5q70 0 124.5 -28t119.5 -99v358q0 72 -33.5 95.5t-122 23.5t-144.5 -8t-92 -20.5t-58.5 -48.5t-35 -67.5t-30.5 -101.5h-53l14 311h399h381h60v-1177q0 -66 25.5 -90.5t95.5 -28.5v-47l-127 -16q-152 -16 -273 -52v133 q-72 -76 -131 -105.5t-141 -29.5q-162 0 -266.5 136.5t-104.5 345.5zM354 469q0 -383 160 -383q68 0 121 58.5t53 84.5v498q-20 57 -64 92t-96 35q-174 0 -174 -385z" />
<glyph unicode="&#x18d;" horiz-adv-x="1126" d="M1050 528q0 -176 -110.5 -303t-294.5 -127q-61 0 -154 27l-4 -4q16 -8 82.5 -40t97.5 -48.5t85 -52t80 -65.5t48.5 -75t22.5 -94q0 -100 -87 -158.5t-198 -58.5q-213 0 -346 209l70 28q29 -72 99.5 -119.5t149.5 -47.5q127 0 127 96q0 31 -47 68.5t-118.5 76.5 t-154.5 99.5t-154.5 129t-119 171t-47.5 219.5q0 215 134.5 362.5t359.5 147.5q199 0 339 -127.5t140 -313.5zM722 559q0 354 -157 354q-147 0 -148 -319v-109q0 -332 148 -331q158 0 157 299v106z" />
<glyph unicode="&#x18e;" horiz-adv-x="1366" d="M33 426h57q84 -182 201 -272.5t340 -90.5q98 0 134 25t36 90v496q-168 0 -241 -69.5t-91 -248.5h-53v693h53q23 -172 92.5 -239t231.5 -67h8v476q0 57 -26.5 76.5t-106.5 19.5q-250 0 -348.5 -68.5t-137.5 -273.5h-51v411h1182v-51q-106 -6 -143 -36.5t-37 -108.5v-991 q0 -80 32.5 -107t147.5 -39v-51h-1198z" />
<glyph unicode="&#x18f;" horiz-adv-x="1593" d="M72 657h1087v31q0 115 -15.5 212t-55 198.5t-123.5 160t-205 58.5q-256 0 -484 -252l-61 51q129 147 262 223t309 76q328 0 532 -200.5t204 -526.5q0 -317 -204 -522t-521 -205q-307 0 -510 194.5t-215 501.5zM385 582q10 -98 35.5 -187.5t72 -175.5t125 -138t179 -52 t173 53t109.5 143t54.5 175t23.5 182h-772z" />
<glyph unicode="&#x190;" horiz-adv-x="1292" d="M100 371q0 291 252 362q-184 59 -184 281q0 182 148.5 291.5t369.5 109.5q74 0 178.5 -33.5t130.5 -33.5q49 0 72 61h68v-436h-76q-37 164 -107.5 242.5t-208.5 78.5q-119 0 -182 -64.5t-63 -172.5q0 -141 50 -207t208 -66h125v-118h-119q-307 0 -307 -295 q0 -129 89 -193.5t238 -64.5q207 0 361 231l78 -68q-29 -55 -49.5 -86.5t-63.5 -81t-90 -77t-122 -49t-165 -21.5q-166 0 -302 38t-232.5 133.5t-96.5 238.5z" />
<glyph unicode="&#x191;" horiz-adv-x="1251" d="M-248 74q0 59 43 103t101 44q59 0 104 -46t45 -107q0 -39 -27.5 -75t-27.5 -56q0 -29 25.5 -47.5t66.5 -18.5q70 0 100.5 42t30.5 136v1139q0 80 -37 109.5t-143 35.5v51h1161v-411h-49q-12 55 -18.5 78.5t-23 69.5t-34.5 66.5t-53 50.5t-80 43t-110.5 23.5t-149.5 10.5 q-78 0 -104.5 -19.5t-26.5 -76.5v-476q154 0 219 64.5t94 241.5h51v-693h-51q-20 178 -88 246t-225 72v-422q0 -219 -111.5 -334t-327.5 -115q-152 0 -253 74t-101 197z" />
<glyph unicode="&#x192;" horiz-adv-x="681" d="M-219 -211q0 55 34.5 90t92.5 35q49 0 85 -33t36 -78q0 -27 -23.5 -67.5t-23.5 -52.5q0 -35 65 -35q98 0 98 155v1051h-116v90h116q0 90 7.5 154.5t29 128t60.5 102.5t104.5 62.5t157.5 23.5q129 0 211 -57.5t82 -147.5q0 -57 -35 -92t-92 -35q-51 0 -87 33t-36 80 q0 27 22.5 67t22.5 50q0 39 -60 39q-53 0 -77.5 -37t-24.5 -121v-250h178v-90h-178v-850q0 -420 -362 -420q-127 0 -207 57.5t-80 147.5z" />
<glyph unicode="&#x193;" horiz-adv-x="1849" d="M76 678q0 315 203.5 526t508.5 211q96 0 181.5 -25.5t142.5 -50t88 -24.5q29 0 49.5 20.5t40.5 73.5q0 274 223 274q154 0 245 -68.5t91 -191.5q0 -57 -44 -102t-99 -45q-61 0 -106.5 47t-45.5 109q0 37 29 72.5t29 58.5q0 29 -25.5 47t-68.5 18q-74 0 -123 -45t-49 -135 v-518h-52q-53 117 -97 181.5t-110 121.5q-133 115 -272 115q-186 0 -281.5 -167t-95.5 -489q0 -367 133 -536q98 -127 283 -127q102 0 149.5 35.5t47.5 113.5v215q0 84 -38 109.5t-169 34.5v51h702v-51q-115 -12 -145.5 -45t-30.5 -144v-260q-98 -57 -251.5 -92t-313.5 -35 q-322 0 -525.5 200t-203.5 517z" />
<glyph unicode="&#x194;" horiz-adv-x="1589" d="M33 1331v53h721v-53q-147 -6 -148 -76q0 -41 285 -407q12 14 72.5 79.5t105.5 117t85 115t40 97.5q0 74 -139 74v53h497v-53q-86 -12 -145 -56t-131 -126l-326 -381q285 -356 285 -483q0 -84 -41 -147.5t-107.5 -98.5t-140.5 -52.5t-151 -17.5q-133 0 -213 77t-80 208 q0 135 184 354l-459 623q-73 100 -194 100zM598 246q0 -88 55.5 -137.5t143.5 -49.5q133 0 133 152q0 14 -6 34.5t-14.5 40t-25 46t-27.5 43t-31.5 46.5t-29 41t-28.5 37.5t-23 28.5q-53 -61 -73.5 -87.5t-47 -84t-26.5 -110.5z" />
<glyph unicode="&#x195;" horiz-adv-x="1652" d="M33 0v49q66 10 87 33.5t21 89.5v1045q0 66 -21.5 86t-86.5 32v49h393v-575q135 160 293 160q86 0 143.5 -29t85 -84t37.5 -114.5t10 -141.5q0 -39 -3 -114.5t-3 -112.5q0 -72 7.5 -122t27.5 -96t63 -70t107 -24q137 0 235.5 164t98.5 312q0 47 -36 80.5t-79 50t-79 51.5 t-36 86q0 61 37 105t99 44q178 0 178 -354q0 -100 -26.5 -203.5t-77 -199t-137.5 -155.5t-195 -60q-100 0 -203 30.5t-183.5 105.5t-80.5 179v365q0 170 -113 169q-35 0 -102.5 -44t-67.5 -74v-547q0 -106 100 -117v-49h-493z" />
<glyph unicode="&#x196;" horiz-adv-x="669" d="M33 1335v49h389v-1146q0 -117 80 -117q63 0 116 106l52 -22q-53 -111 -122 -170.5t-179 -59.5q-106 0 -169 55.5t-63 159.5v1027q0 51 -26.5 84.5t-77.5 33.5z" />
<glyph unicode="&#x197;" horiz-adv-x="796" d="M41 0v51q43 4 61.5 7t49 11.5t44 22.5t24.5 41t11 64v444h-178v96h178v451q0 61 -28.5 94t-62.5 40t-99 11v51h717v-51q-49 -2 -77 -6t-58.5 -17.5t-45 -44t-14.5 -77.5v-451h178v-96h-178v-444q0 -39 11.5 -66t24.5 -41t45 -22.5t50.5 -10.5t63.5 -6v-51h-717z" />
<glyph unicode="&#x198;" horiz-adv-x="1816" d="M61 0v51q43 4 60.5 7t46.5 12.5t41 24t21.5 40t9.5 62.5v991q0 86 -42 112.5t-137 32.5v51h693v-51q-111 -8 -147 -43t-36 -145v-438l516 518q160 160 338 159q123 0 236 -72.5t113 -189.5q0 -57 -34 -103t-91 -46q-51 0 -90 34.5t-39 88.5q0 41 26.5 66.5t52 43 t25.5 33.5q0 37 -63.5 56.5t-110.5 19.5q-152 0 -258 -107l-342 -340l625 -774q31 -39 100 -43v-51h-688v51q162 0 162 43q0 23 -61.5 108t-130.5 170t-146.5 177t-83.5 100l-56 -51v-401q0 -45 11.5 -73t43 -42t52 -18.5t74.5 -12.5v-51h-691z" />
<glyph unicode="&#x199;" horiz-adv-x="1138" d="M45 0v49q98 8 98 123v772q0 90 7.5 154.5t29 128t60.5 102.5t104.5 62.5t157.5 23.5q129 0 211 -57.5t82 -147.5q0 -57 -35 -92t-92 -35q-51 0 -87 33t-36 80q0 27 22.5 67t22.5 50q0 39 -60 39q-53 0 -77.5 -37t-24.5 -121v-692l262 262q43 43 43 78q0 12 -6 21 t-20.5 14.5t-24.5 8.5t-35.5 6t-34.5 5v47h439v-47q-96 -12 -165 -59t-222 -209l397 -549q23 -31 51 -31v-49h-479v49q86 4 86 39q0 20 -49 92l-195 275l-47 -49v-234q0 -72 17.5 -92.5t89.5 -30.5v-49h-490z" />
<glyph unicode="&#x19a;" horiz-adv-x="569" d="M33 0v49q49 0 76.5 36t27.5 87v522h-104v97h104v426q0 51 -26.5 84.5t-77.5 33.5v49h389v-593h102v-97h-102v-522q0 -123 100 -123v-49h-489z" />
<glyph unicode="&#x19b;" horiz-adv-x="1013" d="M25 0l413 967l-340 -252v102l348 258q-45 152 -131 152q-63 0 -102 -48.5t-45 -115.5h-59q2 55 12 110.5t31.5 115t63.5 96t101 36.5q35 0 65 -21.5t47 -48t35.5 -75.5t26 -75.5t19.5 -78.5l254 189v-103l-234 -174l191 -727q10 -41 18.5 -64.5t33 -49t58.5 -25.5 q53 0 79 52t26 110h59v-29q0 -51 -6 -99t-21.5 -104.5t-53 -90.5t-91.5 -34q-33 0 -58.5 16.5t-41.5 50.5t-23.5 55.5t-17.5 60.5l-104 403h-5l-215 -559h-333z" />
<glyph unicode="&#x19c;" horiz-adv-x="2048" d="M61 1327v57h568v-57q-68 -4 -92.5 -31.5t-24.5 -103.5v-862q0 -106 29.5 -152.5t97.5 -46.5q61 0 132 56.5t71 82.5v922q0 68 -24.5 98.5t-88.5 36.5v57h559v-57q-66 -4 -90 -32.5t-24 -102.5v-862q0 -106 29.5 -152.5t99.5 -46.5q66 0 133 55.5t67 83.5v922 q0 68 -23.5 97.5t-86.5 37.5v57h573v-57q-80 -14 -105.5 -42t-25.5 -101v-985q0 -74 26.5 -102.5t104.5 -39.5v-57h-457v178q-129 -207 -350 -207q-113 0 -182.5 47.5t-122.5 159.5q-94 -115 -172 -161t-178 -46q-147 0 -235.5 91.5t-88.5 244.5v885q0 76 -24.5 103.5 t-94.5 31.5z" />
<glyph unicode="&#x19d;" horiz-adv-x="1769" d="M0 -195q0 59 43 103.5t100 44.5q59 0 104.5 -46t45.5 -108q0 -39 -27.5 -74.5t-27.5 -56.5q0 -29 25.5 -47t66.5 -18q76 0 125 44t49 134v1405q-74 88 -109 117.5t-65 29.5v51h432l715 -878v624q0 109 -39 151t-152 52v51h440v-51q-100 -16 -129.5 -46t-29.5 -118v-1206 h-58l-915 1114v-1093q0 -92 -3 -150.5t-16.5 -121t-39 -97.5t-70.5 -57.5t-111 -22.5q-152 0 -253 73.5t-101 196.5z" />
<glyph unicode="&#x19e;" horiz-adv-x="1138" d="M43 0v49q70 14 89.5 37t19.5 86v602q0 63 -20.5 87t-88.5 34v49h391v-153q113 178 293 178q127 0 202 -79t75 -210v-954q0 -66 20 -89.5t80 -27.5v-49h-481v49q51 6 73.5 32.5t22.5 84.5v936q0 170 -107 169q-57 0 -116.5 -48t-59.5 -70v-547q0 -57 21.5 -83t79.5 -34 v-49h-494z" />
<glyph unicode="&#x19f;" horiz-adv-x="1593" d="M72 686q0 319 205.5 524t527.5 205q309 0 513 -207t204 -520q0 -317 -204 -522t-521.5 -205t-521 204t-203.5 521zM434 662q0 -309 93.5 -471t269.5 -162q174 0 268 164.5t94 468.5h-725zM436 758h721q0 166 -37 295t-124 212t-214 83q-109 0 -188.5 -83t-118.5 -215 t-39 -292z" />
<glyph unicode="&#x1a0;" horiz-adv-x="1593" d="M72 686q0 319 205.5 524t527.5 205q113 0 211 -27.5t151.5 -59.5t98.5 -59.5t63 -27.5q102 0 151.5 49t49.5 123q0 43 -18.5 68.5t-47.5 25.5q-23 0 -58.5 -28.5t-72.5 -28.5q-61 0 -108 45t-47 107q0 55 45 99t102 44q123 0 191.5 -92t68.5 -244q0 -209 -250 -219 q186 -203 187 -502q0 -317 -204 -522t-521.5 -205t-521 204t-203.5 521zM434 668q0 -311 93.5 -475t269.5 -164t269 164.5t93 480.5q0 319 -93 496.5t-263 177.5q-180 0 -274.5 -174t-94.5 -506z" />
<glyph unicode="&#x1a1;" horiz-adv-x="1126" d="M51 475q0 209 134 351.5t329 142.5q92 0 168 -30t114 -65.5t70.5 -65.5t51.5 -30q61 0 106 48t45 116q0 43 -18.5 68.5t-46.5 25.5q-23 0 -59 -28.5t-73 -28.5q-61 0 -108 45t-47 106q0 55 45 99.5t102 44.5q123 0 191.5 -91t68.5 -245q0 -193 -209 -215q59 -113 60 -254 q0 -213 -131 -355.5t-330 -142.5q-201 0 -332 142.5t-131 361.5zM352 438q0 -225 36 -314t126 -89t125 93t35 329q0 252 -35 350t-123 98q-94 0 -129 -98.5t-35 -368.5z" />
<glyph unicode="&#x1a2;" horiz-adv-x="2441" d="M72 688.5q0 317.5 204.5 522t520.5 204.5q178 0 334.5 -74.5t257.5 -214.5q209 295 522 295q137 0 217 -86t80 -225v-846q0 -125 25.5 -168t136.5 -51v-45h-633v45q96 2 96 131v883q0 74 -35 137.5t-104 63.5q-119 0 -258 -211q86 -160 86 -361q0 -317 -204 -522 t-521.5 -205t-521 205t-203.5 522.5zM434 688q0 -659 362.5 -659t362.5 659q0 104 -13 203.5t-49 210t-113 178.5t-187.5 68t-187.5 -68t-112.5 -178.5t-49 -210t-13.5 -203.5z" />
<glyph unicode="&#x1a3;" horiz-adv-x="1628" d="M51 469q0 207 129 353.5t334 146.5q115 0 214 -53.5t163 -149.5q72 98 145.5 150.5t175.5 52.5q127 0 201 -80t74 -209v-934q0 -61 20.5 -89t81.5 -28v-49h-487v49q59 2 79.5 30t20.5 87v916q0 49 -5 80.5t-31.5 60t-73.5 28.5q-43 0 -100.5 -38.5t-71.5 -77.5 q55 -113 55 -246q0 -207 -128 -352.5t-333 -145.5t-334 144.5t-129 353.5zM352 469q0 -180 41 -307t123 -127q158 0 158 434q0 92 -5 157.5t-20.5 135t-49.5 106.5t-85 37q-162 0 -162 -436z" />
<glyph unicode="&#x1a4;" horiz-adv-x="1533" d="M0 1143q0 242 385 241h590q256 0 396 -97t140 -275q0 -119 -66.5 -209t-189.5 -137q-68 -27 -147.5 -35t-288.5 -10v-381q0 -113 30 -142.5t150 -46.5v-51h-684v51q45 8 50 8q72 8 97 46t25 135v895q0 109 -32.5 144.5t-139.5 43.5h-34q-104 0 -163 -51t-59 -154 q0 -39 21.5 -64.5t50.5 -25.5q23 0 58.5 26.5t72.5 26.5q61 0 108.5 -45t47.5 -102t-44 -100t-104 -43q-123 0 -196.5 100t-73.5 252zM819 692q201 0 270.5 61.5t69.5 247.5q0 166 -55 239t-182 73q-102 0 -103 -72v-549z" />
<glyph unicode="&#x1a5;" horiz-adv-x="1138" d="M39 -371q74 12 94.5 34t20.5 85v1196q0 115 12 191.5t47 145.5t107.5 101.5t187.5 32.5q129 0 211 -57.5t82 -147.5q0 -57 -35 -92t-92 -35q-51 0 -87 33t-36 80q0 27 22.5 67t22.5 50q0 39 -59 39q-53 0 -78 -37t-25 -121v-391q47 88 107.5 127t150.5 39 q170 0 275.5 -133.5t105.5 -346.5q0 -227 -110.5 -371.5t-282.5 -144.5q-68 0 -118 26t-124 97v-289q0 -102 33 -141t127 -43v-43h-559v49zM438 211q49 -125 158 -125q174 0 174 375q0 391 -156 391q-66 0 -121 -56.5t-55 -86.5v-498z" />
<glyph unicode="&#x1a6;" horiz-adv-x="1531" d="M33 0v51q111 18 141.5 47t30.5 142v905q0 109 -34 143.5t-138 44.5v51h684v-51q-125 -18 -152.5 -51t-27.5 -164q82 0 139 -2t135 -10t131 -22.5t111.5 -42t94.5 -67.5t58.5 -98.5t22.5 -134.5q0 -119 -67.5 -205.5t-182.5 -134.5q256 -68 256 -426q0 -131 20.5 -202.5 t79.5 -71.5q31 0 54.5 41t41 81t35.5 40q14 0 24.5 -12.5t10.5 -26.5q0 -80 -85 -152.5t-167 -72.5q-184 0 -278 102t-94 289q0 88 -8.5 146.5t-32 113.5t-73.5 81.5t-130 26.5q-14 0 -47 -2t-49 -2v-114q0 -115 31.5 -144.5t148.5 -44.5v-51h-684zM537 426h22 q178 0 248 65.5t70 243.5q0 154 -49.5 233t-192.5 79q-98 0 -98 -72v-549z" />
<glyph unicode="&#x1a7;" horiz-adv-x="1138" d="M72 393q0 115 63.5 219.5t161.5 153.5l301 149q123 61 167 109.5t44 122.5q0 94 -60.5 149.5t-164.5 55.5q-125 0 -230.5 -92.5t-165.5 -286.5h-57v444h62q10 -39 24 -54t41 -15q14 0 120.5 33.5t205.5 33.5q209 0 328.5 -110.5t119.5 -305.5q0 -135 -84 -236t-266 -190 l-137 -65q-135 -63 -182.5 -114.5t-47.5 -131.5q0 -106 70 -169.5t188 -63.5q311 0 418 438h60v-506h-60q-16 70 -61 70q-20 0 -130 -35t-220 -35q-227 0 -367.5 119.5t-140.5 312.5z" />
<glyph unicode="&#x1a8;" horiz-adv-x="796" d="M51 283q0 94 49.5 161.5t120 103.5t141 66.5t119.5 71.5t49 96q0 51 -38.5 85t-96.5 34q-170 0 -250 -233h-51v297h45q16 -41 49 -41q16 0 92 22.5t134 22.5q139 0 230 -85t91 -214q0 -90 -50 -155.5t-121.5 -103.5t-143.5 -69t-122 -73t-50 -95q0 -59 42 -96t111 -37 q215 0 281 270h57v-338h-51q-31 57 -53 58q-8 0 -97 -30t-171 -30q-139 0 -227.5 87.5t-88.5 224.5z" />
<glyph unicode="&#x1a9;" horiz-adv-x="1331" d="M25 0v68l503 557l-503 661v92h1187l27 -399h-61q-49 330 -381 330h-367l356 -510l-454 -508h569q66 0 111 5t94 23.5t76.5 60.5t31.5 105h58l-51 -485h-1196z" />
<glyph unicode="&#x1aa;" horiz-adv-x="952" d="M0 1122q0 123 85 208t208 85t208 -85t85 -208v-1372q0 -158 100 -158q61 0 62 39q0 12 -23 51t-23 68q0 47 37 79t84 32q57 0 93 -35t36 -92q0 -98 -87 -151.5t-191 -53.5q-119 0 -196 32.5t-113.5 101.5t-50 145.5t-13.5 191.5v829q-125 0 -213 84t-88 209zM84 1122 q0 -88 60.5 -153.5t148.5 -65.5t148.5 65.5t60.5 153.5t-60.5 153.5t-148.5 65.5t-148.5 -65.5t-60.5 -153.5z" />
<glyph unicode="&#x1ab;" horiz-adv-x="681" d="M41 854v55q100 84 173 166t167 215h51v-346h193v-90h-193v-616q0 -61 18.5 -89t61.5 -28q61 0 117 106l51 -22v-221q0 -92 -3 -150.5t-16.5 -121t-39 -97.5t-70.5 -57.5t-111 -22.5q-152 0 -253 74t-101 196q0 59 43 103.5t100 44.5q59 0 104.5 -46t45.5 -108 q0 -39 -27.5 -74.5t-27.5 -56.5q0 -29 25.5 -47t66.5 -18q76 0 125 44t49 134v285q-82 -90 -213 -91q-106 0 -168 57.5t-62 157.5v664h-106z" />
<glyph unicode="&#x1ac;" horiz-adv-x="1366" d="M-98 1143q0 242 385 241h1011l5 -411h-60q-27 182 -116 261t-277 85v-1079q0 -117 34 -148t167 -41v-51h-732v51q131 10 165 42t34 147v1079h-336q-221 0 -221 -201q0 -39 21.5 -64.5t50.5 -25.5q23 0 58.5 26.5t72.5 26.5q61 0 108 -45t47 -102t-44 -100t-103 -43 q-123 0 -196.5 100t-73.5 252z" />
<glyph unicode="&#x1ad;" horiz-adv-x="681" d="M31 854v90h116q0 90 7.5 154.5t29 128t60.5 102.5t104.5 62.5t157.5 23.5q129 0 211 -57.5t82 -147.5q0 -57 -35 -92t-92 -35q-51 0 -87 33t-36 80q0 27 22.5 67t22.5 50q0 39 -59 39q-53 0 -78 -37t-25 -121v-250h193v-90h-193v-616q0 -61 18.5 -89t61.5 -28 q61 0 117 106l51 -22q-63 -125 -132 -177.5t-171 -52.5q-106 0 -168 57.5t-62 157.5v664h-116z" />
<glyph unicode="&#x1ae;" horiz-adv-x="1366" d="M63 973l7 411h1228l5 -411h-60q-27 182 -116 261t-277 85v-1270q0 -94 30.5 -136t100.5 -42q41 0 66.5 18.5t25.5 47.5q0 23 -27.5 57.5t-27.5 73.5q0 61 45 107t104 46q57 0 100.5 -44t43.5 -103q0 -115 -96.5 -193t-258.5 -78q-215 0 -326.5 115t-111.5 334v1067 q-190 -6 -279 -85t-116 -261h-60z" />
<glyph unicode="&#x1af;" horiz-adv-x="1718" d="M33 1333v51h692v-51q-123 -4 -161 -37.5t-38 -150.5v-684q0 -209 72 -304.5t229 -95.5q182 0 270.5 109t88.5 336v624q0 113 -40 153t-161 50v51h498q180 0 180 150q0 72 -66 72q-23 0 -58.5 -29t-72.5 -29q-61 0 -108 45t-47 107q0 55 45 99t102 44q125 0 192.5 -82 t67.5 -231q0 -111 -66.5 -154t-207.5 -43q-168 0 -168 -174v-653q0 -545 -528 -545q-229 0 -379 109q-94 68 -131 153.5t-37 237.5v684q0 111 -29.5 144.5t-138.5 43.5z" />
<glyph unicode="&#x1b0;" horiz-adv-x="1288" d="M33 895v49h385v-694q0 -78 25.5 -112t88.5 -34q78 0 168 91v579q0 66 -25.5 90.5t-101.5 30.5v49h469q90 0 135.5 49t45.5 123q0 43 -18.5 68.5t-47.5 25.5q-23 0 -58.5 -28.5t-72.5 -28.5q-61 0 -108.5 45t-47.5 107q0 55 45.5 99t102.5 44q123 0 196.5 -102.5 t73.5 -253.5q0 -113 -83 -175.5t-220 -62.5v-647q0 -66 23.5 -91.5t91.5 -27.5v-47l-127 -14q-170 -18 -271 -54v133q-90 -78 -153.5 -106.5t-142.5 -28.5q-127 0 -200 76t-73 211v516q0 63 -18.5 86t-81.5 35z" />
<glyph unicode="&#x1b1;" horiz-adv-x="1660" d="M1548 516q0 -143 -62.5 -252t-168 -171.5t-228 -93t-257.5 -30.5q-133 0 -256 30.5t-228.5 93t-169 171t-63.5 252.5q0 205 158.5 336t373.5 161v115h-297q-49 0 -79.5 -5t-58.5 -31.5t-28 -76.5h-49v369h582v-440q-86 -33 -142.5 -114t-77 -168t-20.5 -181 q0 -170 94.5 -306.5t260 -136.5t260 136.5t94.5 306.5q0 152 -56.5 284t-181.5 179v440h582v-369h-49q0 70 -45 91.5t-123 21.5h-295v-115q215 -31 372.5 -161.5t157.5 -335.5z" />
<glyph unicode="&#x1b2;" horiz-adv-x="1402" d="M33 1333v51h692v-51q-121 -4 -160 -36.5t-39 -151.5v-703q0 -381 295 -381q203 0 284 118t81 327v504q0 47 -35 79.5t-77 49t-76.5 52.5t-34.5 87q0 61 36.5 105t98.5 44q178 0 178 -354v-567q0 -545 -518 -545q-264 0 -410.5 122t-146.5 378v684q0 109 -31 143.5 t-137 44.5z" />
<glyph unicode="&#x1b3;" horiz-adv-x="1746" d="M47 1122q0 88 69.5 153.5t157.5 93.5t172 28q297 0 472 -342l192 -381q0 2 21.5 34.5t47 72.5t59.5 95.5t64.5 108.5t57 104.5t42 92.5t15.5 61q0 16 -5 29.5t-12 22t-21.5 15.5t-23.5 10t-27.5 6t-28 4t-30 2t-24.5 1v51h451v-51q-98 -14 -140 -80l-391 -637v-376 q0 -63 7.5 -97t33 -53.5t54 -26t94.5 -12.5v-51h-711v51q119 12 155 42t36 147v301l-293 534q-47 88 -116 155.5t-146 67.5q-29 0 -56.5 -14t-27.5 -41q0 -20 26.5 -37.5t53 -43t26.5 -66.5q0 -53 -39 -88t-90 -35q-57 0 -91 46t-34 103z" />
<glyph unicode="&#x1b4;" horiz-adv-x="1443" d="M33 -260q0 59 36.5 96t98.5 37q39 0 62.5 -9t32.5 -33t11 -42t2 -57q0 -14 10.5 -24.5t24.5 -10.5q18 0 37 11t35 32.5t28.5 43t25 53.5t19.5 52.5t16 49t11 34.5l-245 605q-61 156 -119 262q-18 33 -31.5 41t-54.5 14v49h512v-49q-92 -4 -105 -37q-4 -8 -4 -18 q0 -23 85 -239t104 -259q10 31 35.5 104.5t38 109.5t40 98.5t51 95t61.5 76.5t79 65.5t98 38t123 16.5q100 0 179 -57.5t79 -155.5q0 -53 -38 -86t-91 -33q-47 0 -83 33t-36 80q0 27 24.5 67t24.5 52q0 39 -77 39q-72 0 -130.5 -28t-95.5 -62.5t-71.5 -101t-51 -111.5 t-43 -125t-39.5 -113l-143 -375q-6 -16 -31.5 -86.5t-37 -94.5t-41 -76t-56 -72.5t-72 -40t-100.5 -19.5q-74 0 -131 43t-57 117z" />
<glyph unicode="&#x1b5;" horiz-adv-x="1366" d="M57 0v33l373 608h-151v96h208l353 576q-43 -2 -113 -2t-103.5 -1t-86 -5.5t-80 -12.5t-66.5 -24.5t-62.5 -42t-52 -61.5t-52 -86t-46.5 -115h-57l43 421h1073v-32l-373 -615h144v-96h-201l-348 -571h145q119 0 196 7t154.5 31.5t128 70.5t92.5 124t70 191h53l-53 -494 h-1188z" />
<glyph unicode="&#x1b6;" horiz-adv-x="909" d="M43 0v51l215 373h-154v96h211l207 359q-182 -2 -233 -17q-106 -33 -150 -180q-4 -12 -8 -29h-53l14 291h760v-53l-213 -371h190v-96h-245l-207 -361h74q147 0 233 61.5t119 203.5h57l-33 -328h-784z" />
<glyph unicode="&#x1b7;" horiz-adv-x="1214" d="M57 186v127q121 -117 223.5 -178t233.5 -61q141 0 215 115.5t74 267.5q0 170 -88 237.5t-275 91.5v78l275 449q-23 0 -66 -2q-63 -2 -92 -3t-76 -5.5t-69.5 -11.5t-58 -18t-54 -29.5t-45.5 -43t-45 -59.5t-37.5 -79t-40.5 -99h-57l43 421h995v-32l-315 -521 q395 -92 395 -405q0 -150 -91 -258.5t-220 -155.5t-275 -47q-184 0 -298 47t-251 174z" />
<glyph unicode="&#x1b8;" horiz-adv-x="1339" d="M104 430q0 166 110 263.5t286 137.5l-316 521v32h996l43 -421h-58q-29 84 -56.5 141t-66 96t-69.5 59.5t-90.5 32t-102.5 14.5t-133 5q-43 2 -65 2l274 -449v-78q-186 -25 -274 -92t-88 -237q0 -152 73.5 -267.5t214.5 -115.5q131 0 233.5 61.5t223.5 177.5v-127 q-137 -127 -251 -174t-298 -47q-147 0 -276 48t-219.5 156.5t-90.5 260.5z" />
<glyph unicode="&#x1b9;" horiz-adv-x="1040" d="M61 102q0 174 94.5 303.5t262.5 129.5q43 0 94 -11l-377 361v61h701l145 -414h-51q-25 55 -36 74t-41 37.5t-77 18.5h-295l305 -293l-32 -45q-12 2 -44 11t-55.5 13t-46.5 4q-154 0 -231.5 -90t-77.5 -246q0 -176 84 -286.5t254 -110.5q74 0 108 41q-33 39 -32 90 q0 57 41 99t100 42t100 -42t41 -99q0 -76 -78.5 -123t-158.5 -59t-158 -12q-238 0 -388.5 154t-150.5 392z" />
<glyph unicode="&#x1ba;" horiz-adv-x="1024" d="M76 532l145 414h701v-61l-377 -361l4 -4q39 12 104 12q113 0 191 -62t78 -171q0 -90 -54.5 -159.5t-132.5 -112.5t-155.5 -82t-132 -89.5t-54.5 -109.5q0 -55 53.5 -91t110.5 -36q74 0 109 41q-33 39 -33 90q0 57 42 99t99 42t99 -42t42 -99q0 -74 -75.5 -121t-155.5 -60 t-156 -13q-59 0 -123.5 13t-127 41t-103.5 79t-41 114q0 86 50 150.5t123 104.5t145.5 74t123 77t50.5 96q0 104 -76 105q-82 0 -242 -91l-37 50l305 293h-294q-37 0 -59.5 -6.5t-41 -29t-26 -37t-27.5 -57.5h-51z" />
<glyph unicode="&#x1bb;" horiz-adv-x="1024" d="M35 0v47q20 23 100 107t115 122.5t95.5 108.5t103.5 131.5t77 124.5h-178v96h227q39 96 39 176q0 111 -67.5 187t-175.5 76q-166 0 -250 -185h-58q63 180 173 299t278 119t273.5 -106.5t105.5 -276.5q0 -145 -100 -289h174v-96h-254q-31 -31 -385 -369h309 q152 0 200 23.5t93 136.5h49l-92 -432h-852z" />
<glyph unicode="&#x1bc;" horiz-adv-x="1339" d="M102 1333v51h1102v-411h-49q-43 205 -138 273.5t-315 68.5q-78 0 -94 -14.5t-16 -81.5v-381q111 0 217 -21.5t206.5 -68t162 -135.5t61.5 -207q0 -150 -92 -253.5t-220 -145.5t-274 -42q-184 0 -297.5 47t-251.5 174v127q121 -117 223.5 -178t233.5 -61q141 0 215 98 t74 244q0 152 -107.5 246t-261.5 94h-221v432q0 80 -38 110.5t-120 34.5z" />
<glyph unicode="&#x1bd;" horiz-adv-x="1064" d="M61 -250q0 57 41 99t100.5 42t100.5 -42t41 -99q0 -51 -33 -90q35 -41 109 -41q86 0 143.5 38t83 105.5t34.5 132t9 148.5q0 178 -168 299t-354 123l135 483h660l-89 -260h-569l-45 -166q131 0 249 -20.5t235.5 -68.5t188.5 -146.5t71 -235.5q0 -227 -158 -361t-389 -134 q-78 0 -158 12t-159 59t-79 123z" />
<glyph unicode="&#x1be;" horiz-adv-x="909" d="M41 854v55q100 84 173 166t167 215h51v-346h193v-90h-193v-82q4 -125 107 -170q154 -66 218 -138.5t64 -180.5q0 -137 -88 -224.5t-227 -87.5q-84 0 -170 30t-98 30q-23 0 -54 -58h-51v338h57q66 -270 281 -270q70 0 112 37t42 96q0 53 -49.5 94t-120 72t-140 67.5 t-119 103.5t-49.5 159v184h-106z" />
<glyph unicode="&#x1bf;" horiz-adv-x="1251" d="M39 -371q68 8 91.5 32t23.5 87v1026q0 63 -22.5 88t-88.5 33v49h393v-264q68 115 183.5 200t236.5 85q152 0 241 -110t89 -265q0 -86 -29 -176q-18 -59 -45 -112.5t-52.5 -94.5t-65.5 -80t-68.5 -65.5t-81.5 -56.5t-84 -47t-96.5 -43t-97 -38t-105.5 -39q-14 -6 -23 -8 q6 -86 44 -145.5t116 -61.5v-43h-559v49zM436 -68q106 43 171 76t134.5 85t113.5 125t69 173q14 57 14 98q0 96 -63.5 165t-157.5 69q-188 0 -281 -219v-572z" />
<glyph unicode="&#x1c0;" horiz-adv-x="450" d="M135 -39v1454h180v-1454h-180z" />
<glyph unicode="&#x1c1;" horiz-adv-x="856" d="M541 -39v1454h180v-1454h-180zM135 -39v1454h180v-1454h-180z" />
<glyph unicode="&#x1c2;" horiz-adv-x="1167" d="M68 219v180h424v238h-424v180h424v428h180v-428h428v-180h-428v-238h428v-180h-428v-428h-180v428h-424z" />
<glyph unicode="&#x1c3;" horiz-adv-x="681" d="M166 1210q0 96 46 150.5t128 54.5t127 -54t45 -155q0 -63 -22.5 -127.5t-59.5 -213t-61 -386.5h-60q-25 227 -60.5 379t-59 222.5t-23.5 129.5zM168 147q0 70 51 121t121 51q72 0 123 -52t51 -123.5t-51 -121t-125 -49.5q-72 0 -121 50t-49 124z" />
<glyph unicode="&#x1c4;" horiz-adv-x="2848" d="M1540 0v33l783 1280q-39 -2 -98.5 -4t-71.5 -2q-229 0 -323.5 -65.5t-168.5 -278.5h-57l43 421h1073v-32l-776 -1280h151q389 0 521 153q55 68 102 234q8 27 10 35h53l-53 -494h-1188zM1823 1843h115l229 -203l229 203h117l-252 -361h-188zM33 0v51q88 2 129 35t41 100 v1010q0 70 -36 98.5t-134 38.5v51h624q354 0 557 -180t203 -497.5t-202.5 -512t-534.5 -194.5h-647zM535 190q0 -70 24.5 -94t93.5 -24q408 0 408 604q0 180 -37 311t-98.5 198.5t-128 98.5t-142.5 31q-121 0 -120 -72v-1053z" />
<glyph unicode="&#x1c5;" horiz-adv-x="2392" d="M1526 0v51l479 828h-22q-199 0 -265.5 -41t-103.5 -185h-53l14 291h760v-53l-473 -825h59q162 0 242 55t123 207h57l-33 -328h-784zM1614 1442h115l229 -203l229 203h117l-252 -361h-188zM33 0v51q88 2 129 35t41 100v1010q0 70 -36 98.5t-134 38.5v51h624 q354 0 557 -180t203 -497.5t-202.5 -512t-534.5 -194.5h-647zM535 190q0 -70 24.5 -94t93.5 -24q408 0 408 604q0 180 -37 311t-98.5 198.5t-128 98.5t-142.5 31q-121 0 -120 -72v-1053z" />
<glyph unicode="&#x1c6;" horiz-adv-x="2048" d="M1182 0v51l479 828h-22q-199 0 -265.5 -41t-103.5 -185h-53l14 291h760v-53l-473 -825h59q162 0 242 55t123 207h57l-33 -328h-784zM1270 1442h115l229 -203l229 203h117l-252 -361h-188zM51 453q0 223 111.5 369.5t281.5 146.5q70 0 124.5 -28t119.5 -99v375 q0 72 -26.5 91t-129.5 27v49h441v-1177q0 -66 25.5 -90.5t95.5 -28.5v-47l-127 -16q-152 -16 -273 -52v133q-72 -76 -131 -105.5t-141 -29.5q-162 0 -266.5 136.5t-104.5 345.5zM354 469q0 -383 160 -383q68 0 121 58.5t53 84.5v498q-20 57 -64 92t-96 35q-174 0 -174 -385z " />
<glyph unicode="&#x1c7;" horiz-adv-x="2383" d="M1366 74q0 59 43 103t101 44q59 0 104 -46t45 -107q0 -39 -27.5 -75t-27.5 -56q0 -29 25.5 -47.5t66.5 -18.5q70 0 100.5 42t30.5 136v1139q0 82 -41 111.5t-166 33.5v51h721v-51q-115 -8 -148.5 -43t-33.5 -145v-893q0 -219 -112 -334t-327 -115q-152 0 -253 74 t-101 197zM33 0v51q113 14 144.5 41t31.5 105v991q0 78 -36 108.5t-140 36.5v51h715v-51q-133 -6 -170 -39.5t-37 -148.5v-967q0 -66 34.5 -90.5t129.5 -24.5q59 0 111 8.5t93 20.5t79 36t63.5 40t52 50t41 51.5t33 54t24.5 50t21.5 50.5t17.5 41h59l-83 -465h-1184z" />
<glyph unicode="&#x1c8;" horiz-adv-x="2041" d="M1243 -211q0 55 35 90t92 35q49 0 85 -33t36 -78q0 -27 -23.5 -67.5t-23.5 -52.5q0 -35 66 -35q98 0 98 155v971q0 66 -25.5 90.5t-103.5 30.5v49h413v-940q0 -420 -362 -420q-127 0 -207 57.5t-80 147.5zM1581 1257q0 66 46 112t111.5 46t113 -47t47.5 -112.5 t-47.5 -111.5t-112.5 -46q-70 0 -114 44.5t-44 114.5zM33 0v51q113 14 144.5 41t31.5 105v991q0 78 -36 108.5t-140 36.5v51h715v-51q-133 -6 -170 -39.5t-37 -148.5v-967q0 -66 34.5 -90.5t129.5 -24.5q59 0 111 8.5t93 20.5t79 36t63.5 40t52 50t41 51.5t33 54t24.5 50 t21.5 50.5t17.5 41h59l-83 -465h-1184z" />
<glyph unicode="&#x1c9;" horiz-adv-x="1251" d="M452 -211q0 55 35 90t92 35q49 0 85 -33t36 -78q0 -27 -23.5 -67.5t-23.5 -52.5q0 -35 66 -35q98 0 98 155v971q0 66 -25.5 90.5t-103.5 30.5v49h413v-940q0 -420 -362 -420q-127 0 -207 57.5t-80 147.5zM790 1257q0 66 46 112t111.5 46t113 -47t47.5 -112.5 t-47.5 -111.5t-112.5 -46q-70 0 -114 44.5t-44 114.5zM33 0v49q104 8 104 123v1045q0 111 -104 118v49h389v-1212q0 -121 100 -123v-49h-489z" />
<glyph unicode="&#x1ca;" horiz-adv-x="2502" d="M1485 74q0 59 43 103t101 44q59 0 104 -46t45 -107q0 -39 -27.5 -75t-27.5 -56q0 -29 25.5 -47.5t66.5 -18.5q70 0 100.5 42t30.5 136v1139q0 82 -41 111.5t-166 33.5v51h721v-51q-115 -8 -148.5 -43t-33.5 -145v-893q0 -219 -112 -334t-327 -115q-152 0 -253 74 t-101 197zM33 0v51q113 14 146.5 45t33.5 119v971q-74 88 -108.5 117.5t-65.5 29.5v51h432l715 -878v624q0 109 -39 151t-152 52v51h441v-51q-100 -16 -130 -46t-30 -118v-1206h-57l-916 1114v-823q0 -109 38 -148.5t157 -54.5v-51h-465z" />
<glyph unicode="&#x1cb;" horiz-adv-x="2160" d="M1362 -211q0 55 35 90t92 35q49 0 85 -33t36 -78q0 -27 -23.5 -67.5t-23.5 -52.5q0 -35 66 -35q98 0 98 155v971q0 66 -25.5 90.5t-103.5 30.5v49h413v-940q0 -420 -362 -420q-127 0 -207 57.5t-80 147.5zM1700 1257q0 66 46 112t111.5 46t113 -47t47.5 -112.5 t-47.5 -111.5t-112.5 -46q-70 0 -114 44.5t-44 114.5zM33 0v51q113 14 146.5 45t33.5 119v971q-74 88 -108.5 117.5t-65.5 29.5v51h432l715 -878v624q0 109 -39 151t-152 52v51h441v-51q-100 -16 -130 -46t-30 -118v-1206h-57l-916 1114v-823q0 -109 38 -148.5t157 -54.5 v-51h-465z" />
<glyph unicode="&#x1cc;" horiz-adv-x="1820" d="M1022 -211q0 55 35 90t92 35q49 0 85 -33t36 -78q0 -27 -23.5 -67.5t-23.5 -52.5q0 -35 66 -35q98 0 98 155v971q0 66 -25.5 90.5t-103.5 30.5v49h413v-940q0 -420 -362 -420q-127 0 -207 57.5t-80 147.5zM1360 1257q0 66 46 112t111.5 46t113 -47t47.5 -112.5 t-47.5 -111.5t-112.5 -46q-70 0 -114 44.5t-44 114.5zM43 0v49q70 14 89.5 37t19.5 86v602q0 63 -20.5 87t-88.5 34v49h391v-153q113 178 293 178q127 0 202 -79t75 -210v-514q0 -66 20 -89.5t80 -27.5v-49h-481v49q51 6 73.5 33t22.5 84v496q0 170 -107 169 q-57 0 -116.5 -48t-59.5 -70v-547q0 -57 21.5 -83t79.5 -34v-49h-494z" />
<glyph unicode="&#x1cd;" horiz-adv-x="1478" d="M369 1827h115l229 -203l229 203h117l-252 -361h-188zM18 0v51q74 14 108 55t93 185l455 1122h57l457 -1077q76 -180 115.5 -232.5t99.5 -52.5h8v-51h-663v51q43 6 65 6q98 6 98 67.5t-94 278.5h-461l-30 -79q-59 -154 -60 -189q0 -39 39 -58.5t129 -25.5v-51h-416z M387 483h399l-206 498z" />
<glyph unicode="&#x1ce;" horiz-adv-x="1024" d="M180 1387h115l229 -203l229 203h117l-252 -361h-188zM51 188q0 63 34 117.5t79 89.5t124 70t134 53.5t145 44.5q23 6 35 10v150q0 94 -41 137t-131 43q-53 0 -91 -21.5t-38 -54.5q0 -10 30.5 -54t30.5 -79q0 -53 -38.5 -86t-100.5 -33q-63 0 -98 36t-35 100 q0 115 106.5 186.5t280.5 71.5q186 0 296 -76t110 -205v-534q0 -51 43 -52q14 0 22 9l21 20l30 -43q-109 -117 -229 -117q-76 0 -114 33t-54 111q-158 -143 -323 -144q-98 0 -163 61.5t-65 155.5zM350 254q0 -61 29 -99t76 -38q70 0 145 88v297q-250 -66 -250 -248z" />
<glyph unicode="&#x1cf;" horiz-adv-x="790" d="M45 1827h115l229 -203l229 203h117l-252 -361h-188zM33 0v51q115 10 152.5 39t37.5 107v991q0 78 -40 107.5t-150 37.5v51h717v-51q-113 -4 -154 -34.5t-41 -110.5v-991q0 -80 39 -109t156 -37v-51h-717z" />
<glyph unicode="&#x1d0;" horiz-adv-x="569" d="M-67 1387h115l229 -203l229 203h117l-252 -361h-188zM33 0v49q70 16 89 38t19 85v602q0 63 -20.5 85t-87.5 36v49h393v-778q0 -57 21.5 -83t74.5 -34v-49h-489z" />
<glyph unicode="&#x1d1;" horiz-adv-x="1593" d="M451 1827h115l229 -203l229 203h117l-252 -361h-188zM72 686q0 319 205.5 524t527.5 205q309 0 513 -207t204 -520q0 -317 -204 -522t-521.5 -205t-521 204t-203.5 521zM434 668q0 -311 93.5 -475t269.5 -164t269 164.5t93 480.5q0 319 -93 496.5t-263 177.5 q-180 0 -274.5 -174t-94.5 -506z" />
<glyph unicode="&#x1d2;" horiz-adv-x="1024" d="M168 1387h115l229 -203l229 203h117l-252 -361h-188zM51 475q0 209 134 351.5t329 142.5q199 0 330 -142.5t131 -357.5q0 -213 -131 -355.5t-330 -142.5q-201 0 -332 142.5t-131 361.5zM352 438q0 -225 36 -314t126 -89t125 93t35 329q0 252 -35 350t-123 98 q-94 0 -129 -98.5t-35 -368.5z" />
<glyph unicode="&#x1d3;" horiz-adv-x="1478" d="M389 1827h115l229 -203l229 203h117l-252 -361h-188zM33 1333v51h692v-51q-123 -4 -161 -37.5t-38 -150.5v-684q0 -209 72 -304.5t229 -95.5q182 0 270.5 109t88.5 336v624q0 113 -40 153t-161 50v51h451v-51q-98 -14 -129 -49t-31 -125v-653q0 -545 -528 -545 q-229 0 -379 109q-94 68 -131 153.5t-37 237.5v684q0 111 -29.5 144.5t-138.5 43.5z" />
<glyph unicode="&#x1d4;" horiz-adv-x="1138" d="M221 1387h115l229 -203l229 203h117l-252 -361h-188zM33 895v49h385v-694q0 -78 25.5 -112t88.5 -34q78 0 168 91v579q0 66 -25.5 90.5t-101.5 30.5v49h412v-737q0 -66 23.5 -91.5t91.5 -27.5v-47l-127 -14q-170 -18 -271 -54v133q-90 -78 -153.5 -106.5t-142.5 -28.5 q-127 0 -200 76t-73 211v516q0 63 -18.5 86t-81.5 35z" />
<glyph unicode="&#x1d5;" horiz-adv-x="1478" d="M33 1133v45h692v-45q-123 -4 -161 -32t-38 -128v-582q0 -176 72 -257t229 -81q182 0 270.5 92.5t88.5 284.5v531q0 94 -40 128.5t-161 43.5v45h451v-45q-98 -12 -129 -41t-31 -107v-555q0 -463 -528 -463q-231 0 -379 92q-94 57 -131 131t-37 201v582q0 94 -29.5 122 t-138.5 38zM434 1696v147h676v-147h-676zM436 1423q0 51 40 91t91 40q53 0 93 -39.5t40 -95.5q0 -53 -38.5 -91t-94.5 -38q-53 0 -92 40t-39 93zM866 1425q0 51 39 90t90 39q55 0 95 -39.5t40 -95.5q0 -53 -38.5 -91t-96.5 -38q-53 0 -91 39t-38 96z" />
<glyph unicode="&#x1d6;" horiz-adv-x="1138" d="M203 1427v148h676v-148h-676zM33 895v49h385v-694q0 -78 25.5 -112t88.5 -34q78 0 168 91v579q0 66 -25.5 90.5t-101.5 30.5v49h412v-737q0 -66 23.5 -91.5t91.5 -27.5v-47l-127 -14q-170 -18 -271 -54v133q-90 -78 -153.5 -106.5t-142.5 -28.5q-127 0 -200 76t-73 211 v516q0 63 -18.5 86t-81.5 35zM195 1178q0 53 39 92t92 39t93 -40t40 -95q0 -53 -39 -91t-94 -38q-53 0 -92 40t-39 93zM625 1180q0 51 39 90t90 39q55 0 95 -40t40 -95q0 -53 -39 -91t-96 -38q-53 0 -91 39t-38 96z" />
<glyph unicode="&#x1d7;" horiz-adv-x="1478" d="M33 1133v45h692v-45q-123 -4 -161 -32t-38 -128v-582q0 -176 72 -257t229 -81q182 0 270.5 92.5t88.5 284.5v531q0 94 -40 128.5t-161 43.5v45h451v-45q-98 -12 -129 -41t-31 -107v-555q0 -463 -528 -463q-231 0 -379 92q-94 57 -131 131t-37 201v582q0 94 -29.5 122 t-138.5 38zM436 1360q0 53 40 92t91 39q53 0 93 -40t40 -95q0 -53 -38.5 -91t-94.5 -38q-53 0 -92 40t-39 93zM698 1464l281 322q51 57 108 57q45 0 72 -24.5t27 -65.5q0 -35 -16.5 -56.5t-65.5 -51.5l-291 -181h-115zM866 1362q0 51 39 90t90 39q55 0 95 -40t40 -95 q0 -53 -38.5 -91t-96.5 -38q-53 0 -91 39t-38 96z" />
<glyph unicode="&#x1d8;" horiz-adv-x="1138" d="M438 1425l281 322q51 57 108 57q45 0 72 -24.5t27 -65.5q0 -35 -16.5 -56.5t-65.5 -51.5l-291 -181h-115zM33 895v49h385v-694q0 -78 25.5 -112t88.5 -34q78 0 168 91v579q0 66 -25.5 90.5t-101.5 30.5v49h412v-737q0 -66 23.5 -91.5t91.5 -27.5v-47l-127 -14 q-170 -18 -271 -54v133q-90 -78 -153.5 -106.5t-142.5 -28.5q-127 0 -200 76t-73 211v516q0 63 -18.5 86t-81.5 35zM195 1178q0 53 39 92t92 39t93 -40t40 -95q0 -53 -39 -91t-94 -38q-53 0 -92 40t-39 93zM625 1180q0 51 39 90t90 39q55 0 95 -40t40 -95q0 -53 -39 -91 t-96 -38q-53 0 -91 39t-38 96z" />
<glyph unicode="&#x1d9;" horiz-adv-x="1478" d="M33 1133v45h692v-45q-123 -4 -161 -32t-38 -128v-582q0 -176 72 -257t229 -81q182 0 270.5 92.5t88.5 284.5v531q0 94 -40 128.5t-161 43.5v45h451v-45q-98 -12 -129 -41t-31 -107v-555q0 -463 -528 -463q-231 0 -379 92q-94 57 -131 131t-37 201v582q0 94 -29.5 122 t-138.5 38zM434 1843h115l229 -203l230 203h116l-252 -360h-188zM436 1364q0 53 40 92t91 39q53 0 93 -40t40 -95q0 -53 -38.5 -91t-94.5 -38q-53 0 -92 40t-39 93zM866 1366q0 51 39 90t90 39q55 0 95 -40t40 -95q0 -53 -38.5 -91t-96.5 -38q-53 0 -91 39t-38 96z" />
<glyph unicode="&#x1da;" horiz-adv-x="1138" d="M221 1792h115l229 -203l229 203h117l-252 -361h-188zM33 895v49h385v-694q0 -78 25.5 -112t88.5 -34q78 0 168 91v579q0 66 -25.5 90.5t-101.5 30.5v49h412v-737q0 -66 23.5 -91.5t91.5 -27.5v-47l-127 -14q-170 -18 -271 -54v133q-90 -78 -153.5 -106.5t-142.5 -28.5 q-127 0 -200 76t-73 211v516q0 63 -18.5 86t-81.5 35zM195 1178q0 53 39 92t92 39t93 -40t40 -95q0 -53 -39 -91t-94 -38q-53 0 -92 40t-39 93zM625 1180q0 51 39 90t90 39q55 0 95 -40t40 -95q0 -53 -39 -91t-96 -38q-53 0 -91 39t-38 96z" />
<glyph unicode="&#x1db;" horiz-adv-x="1478" d="M33 1133v45h692v-45q-123 -4 -161 -32t-38 -128v-582q0 -176 72 -257t229 -81q182 0 270.5 92.5t88.5 284.5v531q0 94 -40 128.5t-161 43.5v45h451v-45q-98 -12 -129 -41t-31 -107v-555q0 -463 -528 -463q-231 0 -379 92q-94 57 -131 131t-37 201v582q0 94 -29.5 122 t-138.5 38zM358 1751q0 39 28 65.5t69 26.5q59 0 110 -57l281 -322h-115l-291 181q-82 51 -82 106zM436 1370q0 51 40 91t91 40q53 0 93 -40t40 -95q0 -53 -38.5 -91t-94.5 -38q-53 0 -92 40t-39 93zM866 1372q0 51 39 90t90 39q55 0 95 -40t40 -95q0 -53 -38.5 -91 t-96.5 -38q-53 0 -91 39t-38 96z" />
<glyph unicode="&#x1dc;" horiz-adv-x="1138" d="M180 1718q0 39 28 65.5t69 26.5q59 0 110 -57l281 -322h-115l-291 181q-82 51 -82 106zM33 895v49h385v-694q0 -78 25.5 -112t88.5 -34q78 0 168 91v579q0 66 -25.5 90.5t-101.5 30.5v49h412v-737q0 -66 23.5 -91.5t91.5 -27.5v-47l-127 -14q-170 -18 -271 -54v133 q-90 -78 -153.5 -106.5t-142.5 -28.5q-127 0 -200 76t-73 211v516q0 63 -18.5 86t-81.5 35zM195 1178q0 53 39 92t92 39t93 -40t40 -95q0 -53 -39 -91t-94 -38q-53 0 -92 40t-39 93zM625 1180q0 51 39 90t90 39q55 0 95 -40t40 -95q0 -53 -39 -91t-96 -38q-53 0 -91 39 t-38 96z" />
<glyph unicode="&#x1dd;" horiz-adv-x="909" d="M871 475q0 -225 -118 -363.5t-310 -138.5q-350 0 -383 467h516q-2 55 -8 99.5t-21.5 100.5t-41 93t-69.5 63.5t-104 26.5q-66 0 -119 -30.5t-114 -106.5l-49 29q100 143 187 199.5t212 56.5q190 0 306 -136.5t116 -359.5zM586 364h-274v-30q2 -66 4 -100.5t10 -78.5 t21.5 -65.5t37 -37t58.5 -15.5q76 0 107.5 71.5t35.5 255.5z" />
<glyph unicode="&#x1de;" horiz-adv-x="1478" d="M18 0v51q74 14 108 55t93 185l455 1122h57l457 -1077q76 -180 115.5 -232.5t99.5 -52.5h8v-51h-663v51q43 6 65 6q98 6 98 67.5t-94 278.5h-461l-30 -79q-59 -154 -60 -189q0 -39 39 -58.5t129 -25.5v-51h-416zM387 483h399l-206 498zM354 1524q0 53 39 92t92 39t93 -40 t40 -95q0 -53 -39 -91t-94 -38q-53 0 -92 40t-39 93zM784 1526q0 51 39 90t90 39q55 0 95 -40t40 -95q0 -53 -39 -91t-96 -38q-53 0 -91 39t-38 96zM364 1696v148h676v-148h-676z" />
<glyph unicode="&#x1df;" horiz-adv-x="1024" d="M186 1466v148h676v-148h-676zM51 188q0 63 34 117.5t79 89.5t124 70t134 53.5t145 44.5q23 6 35 10v150q0 94 -41 137t-131 43q-53 0 -91 -21.5t-38 -54.5q0 -10 30.5 -54t30.5 -79q0 -53 -38.5 -86t-100.5 -33q-63 0 -98 36t-35 100q0 115 106.5 186.5t280.5 71.5 q186 0 296 -76t110 -205v-534q0 -51 43 -52q14 0 22 9l21 20l30 -43q-109 -117 -229 -117q-76 0 -114 33t-54 111q-158 -143 -323 -144q-98 0 -163 61.5t-65 155.5zM350 254q0 -61 29 -99t76 -38q70 0 145 88v297q-250 -66 -250 -248zM156 1190q0 53 39 92t92 39t93 -40 t40 -95q0 -53 -39 -91t-94 -38q-53 0 -92 40t-39 93zM586 1192q0 51 39 90t90 39q55 0 95 -40t40 -95q0 -53 -39 -91t-96 -38q-53 0 -91 39t-38 96z" />
<glyph unicode="&#x1e0;" horiz-adv-x="1478" d="M18 0v43q74 12 108 47t93 158l455 952h57l457 -915q78 -154 116.5 -198t98.5 -44h8v-43h-663v43q43 6 65 6q98 6 98 57q0 53 -94 236h-461l-30 -68q-59 -131 -60 -159q0 -33 38 -49.5t130 -22.5v-43h-416zM385 1696v147h676v-147h-676zM387 412h399l-206 422zM584 1448 q0 51 39 90t90 39q55 0 95 -40t40 -95q0 -53 -39 -91t-96 -38q-53 0 -91 39t-38 96z" />
<glyph unicode="&#x1e1;" horiz-adv-x="1024" d="M186 1433v148h676v-148h-676zM393 1182q0 51 39 90t90 39q55 0 95 -40t40 -95q0 -53 -39 -91t-96 -38q-53 0 -91 39t-38 96zM51 188q0 63 34 117.5t79 89.5t124 70t134 53.5t145 44.5q23 6 35 10v150q0 94 -41 137t-131 43q-53 0 -91 -21.5t-38 -54.5q0 -10 30.5 -54 t30.5 -79q0 -53 -38.5 -86t-100.5 -33q-63 0 -98 36t-35 100q0 115 106.5 186.5t280.5 71.5q186 0 296 -76t110 -205v-534q0 -51 43 -52q14 0 22 9l21 20l30 -43q-109 -117 -229 -117q-76 0 -114 33t-54 111q-158 -143 -323 -144q-98 0 -163 61.5t-65 155.5zM350 254 q0 -61 29 -99t76 -38q70 0 145 88v297q-250 -66 -250 -248z" />
<glyph unicode="&#x1e2;" horiz-adv-x="2048" d="M743 1567v148h676v-148h-676zM8 0v51q61 10 96 50t129 212l437 797q72 111 71 154q0 37 -38.5 53t-139.5 22v45h1299v-411h-52q-16 76 -30.5 121t-45 92t-76.5 71.5t-122 40t-184 15.5q-84 0 -112 -12.5t-28 -49.5v-508q180 14 227.5 60.5t90.5 245.5h47v-693h-47 q-29 190 -87.5 251t-230.5 71v-498q0 -66 32 -88t124 -22q258 0 377 125q53 55 98 123.5t58 113.5h47l-84 -432h-1159v51q113 6 146.5 43t33.5 150v377h-389l-205 -385q-31 -55 -31 -93q0 -41 27.5 -60.5t107.5 -27.5l35 -4v-51h-422zM541 702h344v594h-15z" />
<glyph unicode="&#x1e3;" horiz-adv-x="1478" d="M405 1120v148h676v-148h-676zM68 193q0 35 8 64.5t19 54t36 48t44.5 40t57 36t61 30.5t73 28.5t75 25.5t83 26.5t81.5 26.5v164q0 90 -37 128t-123 38q-57 0 -95 -20.5t-38 -51.5q0 -14 30 -50t30 -83q0 -55 -34 -85.5t-95 -30.5q-66 0 -104 35.5t-38 95.5 q0 111 105.5 183.5t267.5 72.5q184 0 291 -105q106 104 260 105q68 0 128 -18.5t121.5 -64.5t97.5 -142.5t36 -235.5h-520v-47q0 -176 55 -256t180 -80q141 0 252 137l43 -31q-90 -137 -186 -193t-242 -56q-109 0 -176 38.5t-125 133.5q-182 -182 -381 -183 q-119 0 -180 56.5t-61 165.5zM362 248q0 -147 117 -148q63 0 127 66v342q-135 -49 -189.5 -107.5t-54.5 -152.5zM889 584h272v67q0 143 -28.5 199.5t-100.5 56.5q-80 0 -111.5 -71.5t-31.5 -251.5z" />
<glyph unicode="&#x1e4;" horiz-adv-x="1593" d="M76 680q0 317 203.5 526t521.5 209q88 0 227 -50t168 -50q63 0 94 94h56v-479h-52q-68 166 -194.5 292t-282.5 126q-379 0 -379 -664q0 -90 8.5 -171t35 -173t68.5 -157.5t115.5 -109.5t172.5 -44q139 0 176 43t37 176h-207v96h207v49q0 41 -12.5 68.5t-26 42t-49 21.5 t-52 8.5t-67.5 3.5v51h702v-51q-106 -10 -141 -44t-35 -137v-12h174v-96h-174v-160q-82 -57 -255 -92t-298 -35q-328 0 -534.5 196.5t-206.5 522.5z" />
<glyph unicode="&#x1e5;" horiz-adv-x="1024" d="M33 -182h37q41 88 176 100v4q-53 18 -83 34.5t-53.5 50.5t-23.5 85q0 84 73.5 146.5t166.5 87.5v4q-111 41 -180.5 121.5t-69.5 191.5q0 158 127 242t293 84q113 0 225 -45h266v-109h-166q82 -82 82 -203q0 -78 -34.5 -136t-81 -87t-110 -46t-102 -20.5t-79.5 -3.5 q-180 0 -181 -106q0 -49 79 -62.5t233 -13.5q57 0 104 -5t97.5 -21.5t84 -42t55 -72.5t21.5 -109q0 -39 -8 -69h43v-97h-90q-113 -143 -471 -143q-74 0 -144.5 8t-150.5 43t-102 92h-33v97zM244 -182h579q-18 76 -159 76h-355q-55 -43 -65 -76zM256 -279q53 -78 231 -77 q248 0 316 77h-547zM356 629q0 -51 3 -84t14.5 -79t41 -69.5t77.5 -23.5q39 0 65.5 19.5t39.5 44t20.5 67.5t8.5 67.5t1 65.5q0 51 -3 85t-14.5 83t-41 74.5t-77 25.5t-78 -25.5t-41 -74.5t-13.5 -82t-3 -86v-8z" />
<glyph unicode="&#x1e6;" horiz-adv-x="1593" d="M467 1839h115l229 -203l229 203h117l-252 -361h-188zM76 678q0 315 203.5 526t508.5 211q96 0 181.5 -25.5t142.5 -50t88 -24.5q29 0 49.5 20.5t40.5 73.5h56v-479h-52q-53 117 -97 181.5t-110 121.5q-133 115 -272 115q-186 0 -281.5 -167t-95.5 -489q0 -367 133 -536 q98 -127 283 -127q102 0 149.5 35.5t47.5 113.5v215q0 84 -38 109.5t-169 34.5v51h702v-51q-115 -12 -145.5 -45t-30.5 -144v-260q-98 -57 -251.5 -92t-313.5 -35q-322 0 -525.5 200t-203.5 517z" />
<glyph unicode="&#x1e7;" horiz-adv-x="1024" d="M178 1387h115l229 -203l229 203h117l-252 -361h-188zM57 -233q0 125 197 153q-98 35 -133 70t-35 98q0 156 244 240q-254 106 -254 311q0 145 116.5 237.5t299.5 92.5q106 0 229 -45h266v-109h-166q82 -82 82 -201q0 -49 -16.5 -97t-54 -96t-111.5 -77t-174 -29l-92 2 q-61 0 -100.5 -29.5t-39.5 -76.5q0 -43 41 -57.5t164 -14.5h133q158 0 247 -66.5t89 -185.5q0 -152 -132 -230.5t-388 -78.5q-195 0 -303.5 50.5t-108.5 138.5zM238 -219q0 -137 274 -137q152 0 233.5 37.5t81.5 109.5q0 102 -163 103h-355q-43 -35 -57 -57.5t-14 -55.5z M356 637q0 -143 31 -203.5t105 -60.5q72 0 103.5 60.5t31.5 203.5t-32 205.5t-103.5 62.5t-103.5 -62.5t-32 -205.5z" />
<glyph unicode="&#x1e8;" horiz-adv-x="1564" d="M445 1841h115l229 -203l229 203h117l-252 -361h-188zM33 0v51q111 12 144.5 40t33.5 106v991q0 80 -36 109.5t-142 35.5v51h692v-51q-113 -8 -147.5 -44t-34.5 -144v-438l444 446q47 47 60.5 67.5t13.5 45.5q0 39 -34 50t-140 17v51h592v-51q-150 -12 -259.5 -90 t-398.5 -375l625 -774q35 -41 100 -43v-51h-688v51q29 2 66 2q96 6 96 41q0 29 -49 90l-373 465l-55 -51v-401q0 -76 34.5 -103.5t145.5 -42.5v-51h-690z" />
<glyph unicode="&#x1e9;" horiz-adv-x="1138" d="M234 1827h115l229 -203l229 203h117l-252 -361h-188zM45 0v49q98 8 98 123v1045q0 111 -98 118v49h383v-882l262 262q43 43 43 78q0 12 -6 21t-20.5 14.5t-24.5 8.5t-35.5 6t-34.5 5v47h439v-47q-96 -12 -165 -59t-222 -209l397 -549q23 -31 51 -31v-49h-479v49 q86 4 86 39q0 20 -49 92l-195 275l-47 -49v-234q0 -72 17.5 -92.5t89.5 -30.5v-49h-490z" />
<glyph unicode="&#x1ea;" horiz-adv-x="1593" d="M72 686q0 319 205.5 524t527.5 205q309 0 513 -207t204 -520q0 -309 -193.5 -512t-497.5 -215q-18 -70 -18 -102q0 -131 129 -131q27 0 49.5 7t47 20.5t26.5 13.5l45 -29q-39 -70 -106.5 -112t-145.5 -42q-94 0 -155.5 47.5t-61.5 118.5q0 39 20.5 83t33 60.5t53.5 67.5 q-299 16 -487.5 217t-188.5 506zM434 668q0 -311 93.5 -475t269.5 -164t269 164.5t93 480.5q0 319 -93 496.5t-263 177.5q-180 0 -274.5 -174t-94.5 -506z" />
<glyph unicode="&#x1eb;" horiz-adv-x="1024" d="M51 475q0 209 134 351.5t329 142.5q199 0 330 -142.5t131 -357.5q0 -203 -119 -342t-303 -154q-20 -78 -21 -112q0 -131 130 -131q27 0 49 7t46.5 20.5t26.5 13.5l45 -29q-39 -70 -106.5 -112t-144.5 -42q-94 0 -156 47.5t-62 118.5q0 20 6.5 43t11.5 38t21.5 40t22.5 33 t27.5 34.5t23.5 30.5q-186 14 -304 154.5t-118 347.5zM352 438q0 -225 36 -314t126 -89t125 93t35 329q0 252 -35 350t-123 98q-94 0 -129 -98.5t-35 -368.5z" />
<glyph unicode="&#x1ec;" horiz-adv-x="1593" d="M459 1565v148h676v-148h-676zM72 686q0 319 205.5 524t527.5 205q309 0 513 -207t204 -520q0 -309 -193.5 -512t-497.5 -215q-18 -70 -18 -102q0 -131 129 -131q27 0 49.5 7t47 20.5t26.5 13.5l45 -29q-39 -70 -106.5 -112t-145.5 -42q-94 0 -155.5 47.5t-61.5 118.5 q0 39 20.5 83t33 60.5t53.5 67.5q-299 16 -487.5 217t-188.5 506zM434 668q0 -311 93.5 -475t269.5 -164t269 164.5t93 480.5q0 319 -93 496.5t-263 177.5q-180 0 -274.5 -174t-94.5 -506z" />
<glyph unicode="&#x1ed;" horiz-adv-x="1024" d="M174 1106v148h676v-148h-676zM51 475q0 209 134 351.5t329 142.5q199 0 330 -142.5t131 -357.5q0 -203 -119 -342t-303 -154q-20 -78 -21 -112q0 -131 130 -131q27 0 49 7t46.5 20.5t26.5 13.5l45 -29q-39 -70 -106.5 -112t-144.5 -42q-94 0 -156 47.5t-62 118.5 q0 20 6.5 43t11.5 38t21.5 40t22.5 33t27.5 34.5t23.5 30.5q-186 14 -304 154.5t-118 347.5zM352 438q0 -225 36 -314t126 -89t125 93t35 329q0 252 -35 350t-123 98q-94 0 -129 -98.5t-35 -368.5z" />
<glyph unicode="&#x1ee;" horiz-adv-x="1214" d="M275 1843h115l229 -203l229 203h117l-252 -361h-188zM57 186v127q121 -117 223.5 -178t233.5 -61q141 0 215 115.5t74 267.5q0 170 -88 237.5t-275 91.5v78l275 449q-23 0 -66 -2q-63 -2 -92 -3t-76 -5.5t-69.5 -11.5t-58 -18t-54 -29.5t-45.5 -43t-45 -59.5t-37.5 -79 t-40.5 -99h-57l43 421h995v-32l-315 -521q395 -92 395 -405q0 -150 -91 -258.5t-220 -155.5t-275 -47q-184 0 -298 47t-251 174z" />
<glyph unicode="&#x1ef;" horiz-adv-x="1028" d="M184 1387h115l229 -203l229 203h117l-252 -361h-188zM29 -250q0 57 41 99t100 42t100 -42t41 -99q0 -51 -32 -90q35 -41 108 -41q170 0 254 110.5t84 286.5q0 156 -78 246t-231 90q-23 0 -46.5 -4t-55 -13t-44.5 -11l-32 45l305 293h-295q-37 0 -59.5 -6.5t-41 -29 t-25.5 -37t-28 -57.5h-51l145 414h701v-61l-377 -361q51 10 94 11q168 0 262.5 -129.5t94.5 -303.5q0 -238 -150.5 -392t-388.5 -154q-78 0 -158 12t-158.5 59t-78.5 123z" />
<glyph unicode="&#x1f0;" horiz-adv-x="692" d="M-106 -211q0 55 34.5 90t91.5 35q49 0 85 -33t36 -78q0 -27 -23.5 -67.5t-23.5 -52.5q0 -35 66 -35q98 0 98 155v971q0 66 -25.5 90.5t-103.5 30.5v49h414v-940q0 -420 -363 -420q-127 0 -206.5 57.5t-79.5 147.5zM29 1428h115l229 -203l229 203h117l-252 -361h-188z" />
<glyph unicode="&#x1f1;" horiz-adv-x="2848" d="M1540 0v33l783 1280q-39 -2 -98.5 -4t-71.5 -2q-229 0 -323.5 -65.5t-168.5 -278.5h-57l43 421h1073v-32l-776 -1280h151q389 0 521 153q55 68 102 234q8 27 10 35h53l-53 -494h-1188zM33 0v51q88 2 129 35t41 100v1010q0 70 -36 98.5t-134 38.5v51h624q354 0 557 -180 t203 -497.5t-202.5 -512t-534.5 -194.5h-647zM535 190q0 -70 24.5 -94t93.5 -24q408 0 408 604q0 180 -37 311t-98.5 198.5t-128 98.5t-142.5 31q-121 0 -120 -72v-1053z" />
<glyph unicode="&#x1f2;" horiz-adv-x="2392" d="M1526 0v51l479 828h-22q-199 0 -265.5 -41t-103.5 -185h-53l14 291h760v-53l-473 -825h59q162 0 242 55t123 207h57l-33 -328h-784zM33 0v51q88 2 129 35t41 100v1010q0 70 -36 98.5t-134 38.5v51h624q354 0 557 -180t203 -497.5t-202.5 -512t-534.5 -194.5h-647z M535 190q0 -70 24.5 -94t93.5 -24q408 0 408 604q0 180 -37 311t-98.5 198.5t-128 98.5t-142.5 31q-121 0 -120 -72v-1053z" />
<glyph unicode="&#x1f3;" horiz-adv-x="2048" d="M1182 0v51l479 828h-22q-199 0 -265.5 -41t-103.5 -185h-53l14 291h760v-53l-473 -825h59q162 0 242 55t123 207h57l-33 -328h-784zM51 453q0 223 111.5 369.5t281.5 146.5q70 0 124.5 -28t119.5 -99v375q0 72 -26.5 91t-129.5 27v49h441v-1177q0 -66 25.5 -90.5 t95.5 -28.5v-47l-127 -16q-152 -16 -273 -52v133q-72 -76 -131 -105.5t-141 -29.5q-162 0 -266.5 136.5t-104.5 345.5zM354 469q0 -383 160 -383q68 0 121 58.5t53 84.5v498q-20 57 -64 92t-96 35q-174 0 -174 -385z" />
<glyph unicode="&#x1f4;" horiz-adv-x="1593" d="M567 1464l281 322q51 57 108 57q45 0 72 -24.5t27 -65.5q0 -35 -16.5 -56.5t-65.5 -51.5l-291 -181h-115zM76 678q0 315 203.5 526t508.5 211q96 0 181.5 -25.5t142.5 -50t88 -24.5q29 0 49.5 20.5t40.5 73.5h56v-479h-52q-53 117 -97 181.5t-110 121.5 q-133 115 -272 115q-186 0 -281.5 -167t-95.5 -489q0 -367 133 -536q98 -127 283 -127q102 0 149.5 35.5t47.5 113.5v215q0 84 -38 109.5t-169 34.5v51h702v-51q-115 -12 -145.5 -45t-30.5 -144v-260q-98 -57 -251.5 -92t-313.5 -35q-322 0 -525.5 200t-203.5 517z" />
<glyph unicode="&#x1f5;" horiz-adv-x="1024" d="M278 1026l281 322q51 57 108 57q45 0 72 -24.5t27 -65.5q0 -35 -16.5 -56.5t-65.5 -51.5l-291 -181h-115zM57 -233q0 125 197 153q-98 35 -133 70t-35 98q0 156 244 240q-254 106 -254 311q0 145 116.5 237.5t299.5 92.5q106 0 229 -45h266v-109h-166q82 -82 82 -201 q0 -49 -16.5 -97t-54 -96t-111.5 -77t-174 -29l-92 2q-61 0 -100.5 -29.5t-39.5 -76.5q0 -43 41 -57.5t164 -14.5h133q158 0 247 -66.5t89 -185.5q0 -152 -132 -230.5t-388 -78.5q-195 0 -303.5 50.5t-108.5 138.5zM238 -219q0 -137 274 -137q152 0 233.5 37.5t81.5 109.5 q0 102 -163 103h-355q-43 -35 -57 -57.5t-14 -55.5zM356 637q0 -143 31 -203.5t105 -60.5q72 0 103.5 60.5t31.5 203.5t-32 205.5t-103.5 62.5t-103.5 -62.5t-32 -205.5z" />
<glyph unicode="&#x1f6;" horiz-adv-x="2037" d="M33 0v51q106 14 140 42t34 104v991q0 76 -36 105.5t-138 39.5v51h690v-51q-106 -8 -145 -37.5t-39 -107.5v-424h493v424q0 78 -39 107.5t-145 37.5v51h696v-51q-104 -8 -142 -38.5t-38 -106.5v-744q0 -96 3 -150t15.5 -113.5t40 -86t74.5 -26.5q90 0 141.5 101t51.5 300 v258q0 35 -3.5 52.5t-7.5 20.5t-10 3q-20 0 -80 -8l-53 -7v74l373 133l47 -37v-471q0 -88 -9.5 -154.5t-39 -137t-79.5 -116.5t-138 -76t-209 -30q-219 0 -334 157t-115 398v140h-493v-471q0 -76 35.5 -105t148.5 -41v-51h-690z" />
<glyph unicode="&#x1f7;" horiz-adv-x="1234" d="M6 1157v53l504 222h35v-111q12 6 56 32.5t65.5 37t60.5 22.5t74 12q111 0 195.5 -31.5t128.5 -80.5t65.5 -97.5t21.5 -91.5q0 -88 -34.5 -175t-85 -153.5t-130 -141t-141 -122t-149.5 -113t-127 -97.5v-76q0 -121 31.5 -153t168.5 -42v-51h-731v51q133 10 166 43t33 150 v811q0 143 -74 143q-25 0 -49 -7t-49 -19.5t-35 -14.5zM545 408q135 133 235.5 350t100.5 381q0 154 -160 153q-35 0 -88 -23.5t-88 -51.5v-809z" />
<glyph unicode="&#x1f8;" horiz-adv-x="1478" d="M491 1751q0 39 28 65.5t69 26.5q59 0 110 -57l281 -322h-115l-291 181q-82 51 -82 106zM33 0v51q113 14 146.5 45t33.5 119v971q-74 88 -108.5 117.5t-65.5 29.5v51h432l715 -878v624q0 109 -39 151t-152 52v51h441v-51q-100 -16 -130 -46t-30 -118v-1206h-57l-916 1114 v-823q0 -109 38 -148.5t157 -54.5v-51h-465z" />
<glyph unicode="&#x1f9;" horiz-adv-x="1138" d="M329 1333q0 39 28 65.5t69 26.5q59 0 110 -57l281 -322h-115l-291 181q-82 51 -82 106zM43 0v49q70 14 89.5 37t19.5 86v602q0 63 -20.5 87t-88.5 34v49h391v-153q113 178 293 178q127 0 202 -79t75 -210v-514q0 -66 20 -89.5t80 -27.5v-49h-481v49q51 6 73.5 33t22.5 84 v496q0 170 -107 169q-57 0 -116.5 -48t-59.5 -70v-547q0 -57 21.5 -83t79.5 -34v-49h-494z" />
<glyph unicode="&#x1fa;" horiz-adv-x="1478" d="M18 0v39q74 10 108 41t93 137l455 844h57l457 -809q76 -135 115.5 -174t99.5 -39h8v-39h-663v39q43 4 65 4q98 4 98 51t-94 209h-461l-30 -61q-59 -113 -60 -140q0 -31 39 -45t129 -18v-39h-416zM387 362h399l-206 373zM471 1464l281 322q51 57 108 57q45 0 71.5 -24.5 t26.5 -65.5q0 -35 -16 -56.5t-65 -51.5l-291 -181h-115zM510 1278q0 80 61.5 140.5t143.5 60.5t142.5 -60.5t60.5 -144.5t-60.5 -143.5t-144.5 -59.5t-143.5 60.5t-59.5 146.5zM602 1274q0 -45 32 -78t77 -33q47 0 80.5 32t33.5 77q0 47 -33.5 80.5t-78.5 33.5t-78 -33.5 t-33 -78.5z" />
<glyph unicode="&#x1fb;" horiz-adv-x="1024" d="M51 188q0 63 34 117.5t79 89.5t124 70t134 53.5t145 44.5q23 6 35 10v150q0 94 -41 137t-131 43q-53 0 -91 -21.5t-38 -54.5q0 -10 30.5 -54t30.5 -79q0 -53 -38.5 -86t-100.5 -33q-63 0 -98 36t-35 100q0 115 106.5 186.5t280.5 71.5q186 0 296 -76t110 -205v-534 q0 -51 43 -52q14 0 22 9l21 20l30 -43q-109 -117 -229 -117q-76 0 -114 33t-54 111q-158 -143 -323 -144q-98 0 -163 61.5t-65 155.5zM350 254q0 -61 29 -99t76 -38q70 0 145 88v297q-250 -66 -250 -248zM287 1235q0 80 61.5 140.5t143.5 60.5t142.5 -60.5t60.5 -144.5 t-60.5 -143.5t-144.5 -59.5t-143.5 60.5t-59.5 146.5zM379 1231q0 -45 32 -78t77 -33q47 0 81 32t34 77q0 47 -34 81t-79 34t-78 -34t-33 -79zM282 1462l281 322q51 57 108 57q45 0 72 -24.5t27 -65.5q0 -35 -16.5 -56.5t-65.5 -51.5l-291 -181h-115z" />
<glyph unicode="&#x1fc;" horiz-adv-x="2048" d="M1018 1464l281 322q51 57 108 57q45 0 72 -24.5t27 -65.5q0 -35 -16.5 -56.5t-65.5 -51.5l-291 -181h-115zM8 0v51q61 10 96 50t129 212l437 797q72 111 71 154q0 37 -38.5 53t-139.5 22v45h1299v-411h-52q-16 76 -30.5 121t-45 92t-76.5 71.5t-122 40t-184 15.5 q-84 0 -112 -12.5t-28 -49.5v-508q180 14 227.5 60.5t90.5 245.5h47v-693h-47q-29 190 -87.5 251t-230.5 71v-498q0 -66 32 -88t124 -22q258 0 377 125q53 55 98 123.5t58 113.5h47l-84 -432h-1159v51q113 6 146.5 43t33.5 150v377h-389l-205 -385q-31 -55 -31 -93 q0 -41 27.5 -60.5t107.5 -27.5l35 -4v-51h-422zM541 702h344v594h-15z" />
<glyph unicode="&#x1fd;" horiz-adv-x="1478" d="M500 1026l281 322q51 57 108 57q45 0 72 -24.5t27 -65.5q0 -35 -16.5 -56.5t-65.5 -51.5l-291 -181h-115zM68 193q0 35 8 64.5t19 54t36 48t44.5 40t57 36t61 30.5t73 28.5t75 25.5t83 26.5t81.5 26.5v164q0 90 -37 128t-123 38q-57 0 -95 -20.5t-38 -51.5q0 -14 30 -50 t30 -83q0 -55 -34 -85.5t-95 -30.5q-66 0 -104 35.5t-38 95.5q0 111 105.5 183.5t267.5 72.5q184 0 291 -105q106 104 260 105q68 0 128 -18.5t121.5 -64.5t97.5 -142.5t36 -235.5h-520v-47q0 -176 55 -256t180 -80q141 0 252 137l43 -31q-90 -137 -186 -193t-242 -56 q-109 0 -176 38.5t-125 133.5q-182 -182 -381 -183q-119 0 -180 56.5t-61 165.5zM362 248q0 -147 117 -148q63 0 127 66v342q-135 -49 -189.5 -107.5t-54.5 -152.5zM889 584h272v67q0 143 -28.5 199.5t-100.5 56.5q-80 0 -111.5 -71.5t-31.5 -251.5z" />
<glyph unicode="&#x1fe;" horiz-adv-x="1593" d="M553 1462l281 322q51 57 108 57q45 0 72 -24.5t27 -65.5q0 -35 -16.5 -56.5t-65.5 -51.5l-291 -181h-115zM72 686q0 317 204.5 523t522.5 206q195 0 372 -96l129 190h103l-160 -235q53 -43 87 -79t85 -108.5t79 -174t28 -224.5q0 -319 -204 -523t-521 -204 q-203 0 -383 100l-146 -213h-102l176 258q-39 33 -60.5 54.5t-67.5 79t-71.5 114t-48 145.5t-22.5 187zM434 672q0 -201 45 -363l586 856q-53 98 -115.5 140.5t-152.5 42.5q-174 0 -268.5 -176t-94.5 -500zM518 213q53 -98 117.5 -141t161.5 -43q178 0 270 165.5t92 483.5 q0 223 -53 395z" />
<glyph unicode="&#x1ff;" horiz-adv-x="1024" d="M270 1206l281 322q51 57 108 57q45 0 72 -24.5t27 -65.5q0 -35 -16.5 -56.5t-65.5 -51.5l-291 -181h-115zM51 469q0 215 132 357.5t333 142.5q111 0 211 -51l123 206h94l-149 -252q180 -162 180 -403q0 -215 -131 -356.5t-330 -141.5q-115 0 -219 56l-129 -215h-96 l155 262q-174 162 -174 395zM352 430q0 -102 2 -143l293 495q-20 66 -50 94.5t-81 28.5q-96 0 -130 -99.5t-34 -375.5zM375 164q37 -129 139 -129q88 0 124 92t36 322q0 23 -4 215z" />
<glyph unicode="&#x200;" horiz-adv-x="1478" d="M491 1743q0 39 28 65.5t69 26.5q59 0 110 -57l281 -322h-115l-291 181q-82 51 -82 106zM131 1743q0 39 28 65.5t69 26.5q59 0 110 -57l281 -322h-115l-291 181q-82 51 -82 106zM18 0v51q74 14 108 55t93 185l455 1122h57l457 -1077q76 -180 115.5 -232.5t99.5 -52.5h8 v-51h-663v51q43 6 65 6q98 6 98 67.5t-94 278.5h-461l-30 -79q-59 -154 -60 -189q0 -39 39 -58.5t129 -25.5v-51h-416zM387 483h399l-206 498z" />
<glyph unicode="&#x201;" horiz-adv-x="1024" d="M264 1360q0 39 28 65.5t69 26.5q59 0 110 -57l281 -322h-115l-291 181q-82 51 -82 106zM-96 1360q0 39 28 65.5t69 26.5q59 0 110 -57l281 -322h-115l-291 181q-82 51 -82 106zM51 188q0 63 34 117.5t79 89.5t124 70t134 53.5t145 44.5q23 6 35 10v150q0 94 -41 137 t-131 43q-53 0 -91 -21.5t-38 -54.5q0 -10 30.5 -54t30.5 -79q0 -53 -38.5 -86t-100.5 -33q-63 0 -98 36t-35 100q0 115 106.5 186.5t280.5 71.5q186 0 296 -76t110 -205v-534q0 -51 43 -52q14 0 22 9l21 20l30 -43q-109 -117 -229 -117q-76 0 -114 33t-54 111 q-158 -143 -323 -144q-98 0 -163 61.5t-65 155.5zM350 254q0 -61 29 -99t76 -38q70 0 145 88v297q-250 -66 -250 -248z" />
<glyph unicode="&#x202;" horiz-adv-x="1478" d="M1011 1425h-90q-16 94 -68.5 136t-150.5 42q-94 0 -144.5 -41t-76.5 -137h-90q8 66 21.5 114t45 103t93 86t151.5 31q289 0 309 -334zM18 0v51q74 14 108 55t93 185l455 1122h57l457 -1077q76 -180 115.5 -232.5t99.5 -52.5h8v-51h-663v51q43 6 65 6q98 6 98 67.5 t-94 278.5h-461l-30 -79q-59 -154 -60 -189q0 -39 39 -58.5t129 -25.5v-51h-416zM387 483h399l-206 498z" />
<glyph unicode="&#x203;" horiz-adv-x="1024" d="M809 1046h-90q-16 94 -68.5 136t-150.5 42q-94 0 -144.5 -41t-76.5 -137h-90q8 66 21.5 114t45 103t93 86t151.5 31q289 0 309 -334zM51 188q0 63 34 117.5t79 89.5t124 70t134 53.5t145 44.5q23 6 35 10v150q0 94 -41 137t-131 43q-53 0 -91 -21.5t-38 -54.5 q0 -10 30.5 -54t30.5 -79q0 -53 -38.5 -86t-100.5 -33q-63 0 -98 36t-35 100q0 115 106.5 186.5t280.5 71.5q186 0 296 -76t110 -205v-534q0 -51 43 -52q14 0 22 9l21 20l30 -43q-109 -117 -229 -117q-76 0 -114 33t-54 111q-158 -143 -323 -144q-98 0 -163 61.5t-65 155.5z M350 254q0 -61 29 -99t76 -38q70 0 145 88v297q-250 -66 -250 -248z" />
<glyph unicode="&#x204;" horiz-adv-x="1366" d="M446 1743q0 39 28 65.5t69 26.5q59 0 110 -57l281 -322h-115l-291 181q-82 51 -82 106zM86 1743q0 39 28 65.5t69 26.5q59 0 110 -57l281 -322h-115l-291 181q-82 51 -82 106zM33 0v51q115 12 147.5 39t32.5 107v991q0 78 -37 108.5t-143 36.5v51h1181v-411h-51 q-39 205 -137 273.5t-348 68.5q-80 0 -106.5 -19.5t-26.5 -76.5v-476h8q162 0 231.5 67t92.5 239h53v-693h-53q-18 178 -91 248t-241 70v-496q0 -66 35.5 -90.5t134.5 -24.5q223 0 339.5 90.5t200.5 272.5h58l-82 -426h-1198z" />
<glyph unicode="&#x205;" horiz-adv-x="909" d="M243 1360q0 39 28 65.5t69 26.5q59 0 110 -57l281 -322h-115l-291 181q-82 51 -82 106zM-117 1360q0 39 28 65.5t69 26.5q59 0 110 -57l281 -322h-115l-291 181q-82 51 -82 106zM51 467q0 225 118 363.5t310 138.5q350 0 383 -467h-516q2 -55 8 -99.5t21.5 -100.5t41 -93 t69.5 -63.5t104 -26.5q66 0 119 30.5t114 106.5l49 -29q-100 -143 -187 -199.5t-212 -56.5q-190 0 -306 136.5t-116 359.5zM336 578h274v30q-2 66 -4 100.5t-10 78.5t-21.5 65.5t-37 37t-58.5 15.5q-76 0 -107.5 -71.5t-35.5 -255.5z" />
<glyph unicode="&#x206;" horiz-adv-x="1366" d="M1011 1429h-90q-16 94 -68.5 136t-150.5 42q-94 0 -144.5 -41t-76.5 -137h-90q8 66 21.5 114t45 103t93 86t151.5 31q289 0 309 -334zM33 0v51q115 12 147.5 39t32.5 107v991q0 78 -37 108.5t-143 36.5v51h1181v-411h-51q-39 205 -137 273.5t-348 68.5 q-80 0 -106.5 -19.5t-26.5 -76.5v-476h8q162 0 231.5 67t92.5 239h53v-693h-53q-18 178 -91 248t-241 70v-496q0 -66 35.5 -90.5t134.5 -24.5q223 0 339.5 90.5t200.5 272.5h58l-82 -426h-1198z" />
<glyph unicode="&#x207;" horiz-adv-x="909" d="M809 1044h-90q-16 94 -68.5 136t-150.5 42q-94 0 -144.5 -41t-76.5 -137h-90q8 66 21.5 114t45 103t93 86t151.5 31q289 0 309 -334zM51 467q0 225 118 363.5t310 138.5q350 0 383 -467h-516q2 -55 8 -99.5t21.5 -100.5t41 -93t69.5 -63.5t104 -26.5q66 0 119 30.5 t114 106.5l49 -29q-100 -143 -187 -199.5t-212 -56.5q-190 0 -306 136.5t-116 359.5zM336 578h274v30q-2 66 -4 100.5t-10 78.5t-21.5 65.5t-37 37t-58.5 15.5q-76 0 -107.5 -71.5t-35.5 -255.5z" />
<glyph unicode="&#x208;" horiz-adv-x="790" d="M231 1743q0 39 28 65.5t69 26.5q59 0 110 -57l281 -322h-115l-291 181q-82 51 -82 106zM-129 1743q0 39 28 65.5t69 26.5q59 0 110 -57l281 -322h-115l-291 181q-82 51 -82 106zM33 0v51q115 10 152.5 39t37.5 107v991q0 78 -40 107.5t-150 37.5v51h717v-51 q-113 -4 -154 -34.5t-41 -110.5v-991q0 -80 39 -109t156 -37v-51h-717z" />
<glyph unicode="&#x209;" horiz-adv-x="569" d="M75 1370q0 39 28 65.5t69 26.5q59 0 110 -57l281 -322h-115l-291 181q-82 51 -82 106zM-285 1370q0 39 28 65.5t69 26.5q59 0 110 -57l281 -322h-115l-291 181q-82 51 -82 106zM33 0v49q70 16 89 38t19 85v602q0 63 -20.5 85t-87.5 36v49h393v-778q0 -57 21.5 -83 t74.5 -34v-49h-489z" />
<glyph unicode="&#x20a;" horiz-adv-x="790" d="M704 1432h-90q-16 94 -68.5 136t-150.5 42q-94 0 -144.5 -41t-76.5 -137h-90q8 66 21.5 114t45 103t93 86t151.5 31q289 0 309 -334zM33 0v51q115 10 152.5 39t37.5 107v991q0 78 -40 107.5t-150 37.5v51h717v-51q-113 -4 -154 -34.5t-41 -110.5v-991q0 -80 39 -109 t156 -37v-51h-717z" />
<glyph unicode="&#x20b;" horiz-adv-x="569" d="M590 1044h-90q-16 94 -68.5 136t-150.5 42q-94 0 -144.5 -41t-76.5 -137h-90q8 66 21.5 114t45 103t93 86t151.5 31q289 0 309 -334zM33 0v49q70 16 89 38t19 85v602q0 63 -20.5 85t-87.5 36v49h393v-778q0 -57 21.5 -83t74.5 -34v-49h-489z" />
<glyph unicode="&#x20c;" horiz-adv-x="1593" d="M591 1743q0 39 28 65.5t69 26.5q59 0 110 -57l281 -322h-115l-291 181q-82 51 -82 106zM231 1743q0 39 28 65.5t69 26.5q59 0 110 -57l281 -322h-115l-291 181q-82 51 -82 106zM72 686q0 319 205.5 524t527.5 205q309 0 513 -207t204 -520q0 -317 -204 -522t-521.5 -205 t-521 204t-203.5 521zM434 668q0 -311 93.5 -475t269.5 -164t269 164.5t93 480.5q0 319 -93 496.5t-263 177.5q-180 0 -274.5 -174t-94.5 -506z" />
<glyph unicode="&#x20d;" horiz-adv-x="1024" d="M288 1360q0 39 28 65.5t69 26.5q59 0 110 -57l281 -322h-115l-291 181q-82 51 -82 106zM-72 1360q0 39 28 65.5t69 26.5q59 0 110 -57l281 -322h-115l-291 181q-82 51 -82 106zM51 475q0 209 134 351.5t329 142.5q199 0 330 -142.5t131 -357.5q0 -213 -131 -355.5 t-330 -142.5q-201 0 -332 142.5t-131 361.5zM352 438q0 -225 36 -314t126 -89t125 93t35 329q0 252 -35 350t-123 98q-94 0 -129 -98.5t-35 -368.5z" />
<glyph unicode="&#x20e;" horiz-adv-x="1593" d="M1114 1423h-90q-16 94 -68.5 136t-150.5 42q-94 0 -144.5 -41t-76.5 -137h-90q8 66 21.5 114t45 103t93 86t151.5 31q289 0 309 -334zM72 686q0 319 205.5 524t527.5 205q309 0 513 -207t204 -520q0 -317 -204 -522t-521.5 -205t-521 204t-203.5 521zM434 668 q0 -311 93.5 -475t269.5 -164t269 164.5t93 480.5q0 319 -93 496.5t-263 177.5q-180 0 -274.5 -174t-94.5 -506z" />
<glyph unicode="&#x20f;" horiz-adv-x="1024" d="M825 1046h-90q-16 94 -68.5 136t-150.5 42q-94 0 -144.5 -41t-76.5 -137h-90q8 66 21.5 114t45 103t93 86t151.5 31q289 0 309 -334zM51 475q0 209 134 351.5t329 142.5q199 0 330 -142.5t131 -357.5q0 -213 -131 -355.5t-330 -142.5q-201 0 -332 142.5t-131 361.5z M352 438q0 -225 36 -314t126 -89t125 93t35 329q0 252 -35 350t-123 98q-94 0 -129 -98.5t-35 -368.5z" />
<glyph unicode="&#x210;" horiz-adv-x="1458" d="M423 1743q0 39 28 65.5t69 26.5q59 0 110 -57l281 -322h-115l-291 181q-82 51 -82 106zM63 1743q0 39 28 65.5t69 26.5q59 0 110 -57l281 -322h-115l-291 181q-82 51 -82 106zM33 0v51q121 14 150.5 45t29.5 144v905q0 111 -34 145.5t-146 42.5v51h659q281 0 429.5 -94 t148.5 -270q0 -63 -19.5 -116.5t-47 -87.5t-74 -62.5t-86 -45t-95.5 -34.5l412 -584q31 -39 84 -39v-51h-420l-424 641h-55v-401q0 -109 30.5 -141.5t149.5 -47.5v-51h-692zM545 707q219 4 297 63t78 242q0 162 -61.5 232.5t-203.5 70.5q-111 0 -110 -86v-522z" />
<glyph unicode="&#x211;" horiz-adv-x="909" d="M323 1370q0 39 28 65.5t69 26.5q59 0 110 -57l281 -322h-115l-291 181q-82 51 -82 106zM-37 1370q0 39 28 65.5t69 26.5q59 0 110 -57l281 -322h-115l-291 181q-82 51 -82 106zM59 0v49q68 12 89.5 36t21.5 87v602q0 61 -22.5 87t-88.5 34v49h387v-168 q72 102 136.5 147.5t140.5 45.5q72 0 119 -45t47 -115q0 -59 -36 -98t-93 -39q-47 0 -83 30.5t-58.5 60.5t-38.5 30q-51 0 -88 -57.5t-37 -137.5v-387q0 -96 27.5 -126t121.5 -36v-49h-545z" />
<glyph unicode="&#x212;" horiz-adv-x="1458" d="M1024 1440h-90q-16 94 -68.5 136t-150.5 42q-94 0 -144.5 -41t-76.5 -137h-90q8 66 21.5 114t45 103t93 86t151.5 31q289 0 309 -334zM33 0v51q121 14 150.5 45t29.5 144v905q0 111 -34 145.5t-146 42.5v51h659q281 0 429.5 -94t148.5 -270q0 -63 -19.5 -116.5t-47 -87.5 t-74 -62.5t-86 -45t-95.5 -34.5l412 -584q31 -39 84 -39v-51h-420l-424 641h-55v-401q0 -109 30.5 -141.5t149.5 -47.5v-51h-692zM545 707q219 4 297 63t78 242q0 162 -61.5 232.5t-203.5 70.5q-111 0 -110 -86v-522z" />
<glyph unicode="&#x213;" horiz-adv-x="909" d="M798 1044h-90q-16 94 -68.5 136t-150.5 42q-94 0 -144.5 -41t-76.5 -137h-90q8 66 21.5 114t45 103t93 86t151.5 31q289 0 309 -334zM59 0v49q68 12 89.5 36t21.5 87v602q0 61 -22.5 87t-88.5 34v49h387v-168q72 102 136.5 147.5t140.5 45.5q72 0 119 -45t47 -115 q0 -59 -36 -98t-93 -39q-47 0 -83 30.5t-58.5 60.5t-38.5 30q-51 0 -88 -57.5t-37 -137.5v-387q0 -96 27.5 -126t121.5 -36v-49h-545z" />
<glyph unicode="&#x214;" horiz-adv-x="1478" d="M518 1743q0 39 28 65.5t69 26.5q59 0 110 -57l281 -322h-115l-291 181q-82 51 -82 106zM158 1743q0 39 28 65.5t69 26.5q59 0 110 -57l281 -322h-115l-291 181q-82 51 -82 106zM33 1333v51h692v-51q-123 -4 -161 -37.5t-38 -150.5v-684q0 -209 72 -304.5t229 -95.5 q182 0 270.5 109t88.5 336v624q0 113 -40 153t-161 50v51h451v-51q-98 -14 -129 -49t-31 -125v-653q0 -545 -528 -545q-229 0 -379 109q-94 68 -131 153.5t-37 237.5v684q0 111 -29.5 144.5t-138.5 43.5z" />
<glyph unicode="&#x215;" horiz-adv-x="1138" d="M286 1360q0 39 28 65.5t69 26.5q59 0 110 -57l281 -322h-115l-291 181q-82 51 -82 106zM-74 1360q0 39 28 65.5t69 26.5q59 0 110 -57l281 -322h-115l-291 181q-82 51 -82 106zM33 895v49h385v-694q0 -78 25.5 -112t88.5 -34q78 0 168 91v579q0 66 -25.5 90.5 t-101.5 30.5v49h412v-737q0 -66 23.5 -91.5t91.5 -27.5v-47l-127 -14q-170 -18 -271 -54v133q-90 -78 -153.5 -106.5t-142.5 -28.5q-127 0 -200 76t-73 211v516q0 63 -18.5 86t-81.5 35z" />
<glyph unicode="&#x216;" horiz-adv-x="1478" d="M1106 1425h-90q-16 94 -68.5 136t-150.5 42q-94 0 -144.5 -41t-76.5 -137h-90q8 66 21.5 114t45 103t93 86t151.5 31q289 0 309 -334zM33 1333v51h692v-51q-123 -4 -161 -37.5t-38 -150.5v-684q0 -209 72 -304.5t229 -95.5q182 0 270.5 109t88.5 336v624q0 113 -40 153 t-161 50v51h451v-51q-98 -14 -129 -49t-31 -125v-653q0 -545 -528 -545q-229 0 -379 109q-94 68 -131 153.5t-37 237.5v684q0 111 -29.5 144.5t-138.5 43.5z" />
<glyph unicode="&#x217;" horiz-adv-x="1138" d="M839 1046h-90q-16 94 -68.5 136t-150.5 42q-94 0 -144.5 -41t-76.5 -137h-90q8 66 21.5 114t45 103t93 86t151.5 31q289 0 309 -334zM33 895v49h385v-694q0 -78 25.5 -112t88.5 -34q78 0 168 91v579q0 66 -25.5 90.5t-101.5 30.5v49h412v-737q0 -66 23.5 -91.5 t91.5 -27.5v-47l-127 -14q-170 -18 -271 -54v133q-90 -78 -153.5 -106.5t-142.5 -28.5q-127 0 -200 76t-73 211v516q0 63 -18.5 86t-81.5 35z" />
<glyph unicode="&#x218;" horiz-adv-x="1138" d="M72 -39v506h59q106 -438 418 -438q119 0 188.5 63.5t69.5 169.5q0 80 -47 131t-182 115l-138 65q-182 88 -266 189.5t-84 236.5q0 195 120 305.5t329 110.5q98 0 204.5 -33.5t120.5 -33.5q27 0 41.5 15t24.5 54h61v-444h-57q-59 195 -164.5 287t-230.5 92 q-104 0 -165 -55.5t-61 -149.5q0 -74 44 -122t167 -110l301 -149q98 -49 162 -153.5t64 -219.5q0 -193 -140.5 -312.5t-367.5 -119.5q-111 0 -220.5 35t-129.5 35q-45 0 -62 -70h-59zM399 -227q0 61 40 99t101 38q78 0 131.5 -59t53.5 -143q0 -188 -248 -310l-18 -8l-29 47 l14 11q160 111 160 200q0 8 -8 8q-2 0 -19.5 -4t-36.5 -4q-66 0 -103.5 34t-37.5 91z" />
<glyph unicode="&#x219;" horiz-adv-x="796" d="M205 -227q0 61 40 99t101 38q78 0 131.5 -59t53.5 -143q0 -188 -248 -310l-18 -8l-29 47l14 11q160 111 160 200q0 8 -8 8q-2 0 -19.5 -4t-36.5 -4q-66 0 -103.5 34t-37.5 91zM51 -27v338h58q66 -270 280 -270q70 0 112 37t42 96q0 53 -50.5 94t-122 74t-143 71 t-122 103.5t-50.5 153.5q0 129 91.5 214t230.5 85q57 0 133 -22.5t92 -22.5q33 0 49 41h45v-297h-51q-80 233 -250 233q-57 0 -96 -33.5t-39 -85.5q0 -47 36 -85t89 -60.5t114.5 -54t115 -65.5t89 -94.5t35.5 -139.5q0 -137 -88 -224.5t-227 -87.5q-84 0 -170 30t-98 30 q-23 0 -54 -58h-51z" />
<glyph unicode="&#x21a;" horiz-adv-x="1366" d="M63 973l7 411h1228l5 -411h-60q-27 182 -116 261t-277 85v-1079q0 -117 34 -148t167 -41v-51h-732v51q131 10 165 42t34 147v1079q-190 -6 -279 -85t-116 -261h-60zM498 -227q0 61 40 99t101 38q78 0 131.5 -59t53.5 -143q0 -188 -248 -310l-18 -8l-29 47l14 11 q160 111 160 200q0 8 -8 8q-2 0 -19.5 -4t-36.5 -4q-66 0 -103.5 34t-37.5 91z" />
<glyph unicode="&#x21b;" horiz-adv-x="681" d="M41 854v55q100 84 173 166t167 215h51v-346h193v-90h-193v-616q0 -61 18.5 -89t61.5 -28q61 0 117 106l51 -22q-63 -125 -132 -177.5t-171 -52.5q-106 0 -168 57.5t-62 157.5v664h-106zM215 -227q0 61 40 99t101 38q78 0 131.5 -59t53.5 -143q0 -188 -248 -310l-18 -8 l-29 47l14 11q160 111 160 200q0 8 -8 8q-2 0 -19.5 -4t-36.5 -4q-66 0 -103.5 34t-37.5 91z" />
<glyph unicode="&#x21c;" horiz-adv-x="950" d="M70 1372v47h61l6 -41q4 -31 6 -43q4 2 30 13.5t41 18.5t46 18.5t56.5 17.5t59.5 11t64 5q141 0 252 -99t111 -237q0 -98 -40 -176t-112 -162q100 -35 157.5 -125t57.5 -174q0 -205 -184 -343t-518 -209l-45 -11l-25 121l47 10q195 47 313.5 145.5t118.5 227.5 q0 193 -51 256q-82 -49 -150.5 -74.5t-189.5 -50.5l-45 -8l-22 111l43 10q203 51 286.5 142t83.5 269q0 170 -41 226.5t-139 56.5q-57 0 -116.5 -70.5t-86.5 -240.5l-6 -39h-61v45q0 20 -4 164.5t-4 187.5z" />
<glyph unicode="&#x21d;" horiz-adv-x="931" d="M70 850v41l88 18l12 -123q119 94 285 95q135 0 239.5 -64.5t104.5 -179.5q0 -78 -20.5 -145.5t-42 -102.5t-60.5 -86q100 -31 160.5 -93.5t60.5 -133.5q0 -205 -183.5 -343.5t-516.5 -209.5l-43 -10l-33 116l49 11q195 47 319.5 149t124.5 227q0 41 -2 63.5t-16 54.5 t-43 63q-160 -102 -334 -123l-45 -4l-16 100l35 14q172 74 246.5 161t74.5 249q0 51 -28.5 115.5t-77.5 64.5q-53 0 -95.5 -16.5t-73 -50t-47 -59t-40.5 -70.5l-19 -35l-61 37l4 36q2 18 2 58q0 18 -4 88t-4 88z" />
<glyph unicode="&#x21e;" horiz-adv-x="1585" d="M442 1827h115l229 -203l229 203h117l-252 -361h-188zM33 0v51q106 14 140 42t34 104v991q0 76 -36 105.5t-138 39.5v51h690v-51q-106 -8 -145 -37.5t-39 -107.5v-424h493v424q0 78 -39 107.5t-145 37.5v51h696v-51q-104 -8 -142 -38.5t-38 -106.5v-991q0 -76 35 -103.5 t145 -42.5v-51h-696v51q113 12 148.5 41t35.5 105v471h-493v-471q0 -76 35.5 -105t148.5 -41v-51h-690z" />
<glyph unicode="&#x21f;" horiz-adv-x="1138" d="M217 1827h115l229 -203l229 203h117l-252 -361h-188zM33 0v49q70 14 89 37t19 86v1045q0 63 -19.5 83.5t-88.5 34.5v49h393v-575q80 88 144.5 124t146.5 36q127 0 201.5 -79t74.5 -210v-508q0 -63 22.5 -91t78.5 -32v-49h-482v49q51 6 74 33t23 84v496q0 170 -107 169 q-57 0 -116.5 -48t-59.5 -70v-547q0 -57 21.5 -83t78.5 -34v-49h-493z" />
<glyph unicode="&#x220;" horiz-adv-x="1497" d="M-16 -18v51q141 12 169.5 47t28.5 164v944q0 78 -40 107.5t-150 37.5v51h522v-139q117 98 209 138t192 40q184 0 282.5 -132t98.5 -363v-1092q0 -121 32 -152.5t169 -41.5v-52h-731v52q133 10 166 42.5t33 149.5v1176q0 141 -27 209.5t-92 68.5q-133 0 -332 -180v-870 q0 -127 29.5 -161t171.5 -44v-51h-731z" />
<glyph unicode="&#x221;" horiz-adv-x="1329" d="M51 453q0 223 111.5 369.5t281.5 146.5q70 0 124.5 -28t119.5 -99v375q0 72 -26.5 91t-129.5 27v49h441v-32v-1315q131 0 223 -75t92 -198q0 -111 -69.5 -196.5t-212.5 -85.5q-80 0 -140.5 36t-93.5 97t-50 123.5t-22 132.5q-63 -23 -130.5 -69t-109.5 -85t-83 -81 t-45 -46l-82 82q27 27 82 79t72.5 67.5t56.5 48.5t66.5 47t70.5 36.5t96 45.5v110q-72 -76 -131 -105.5t-141 -29.5q-162 0 -266.5 136.5t-104.5 345.5zM354 469q0 -383 160 -383q68 0 121 58.5t53 84.5v498q-20 57 -64 92t-96 35q-174 0 -174 -385zM973 -86q0 -313 69 -313 q33 0 59.5 61.5t26.5 101.5q0 72 -42.5 111t-112.5 39z" />
<glyph unicode="&#x222;" horiz-adv-x="1163" d="M72 1077q0 160 107.5 249t289.5 89l16 -31q-76 0 -118.5 -23.5t-42.5 -98.5q0 -47 15 -88t28.5 -66t57.5 -59.5t58.5 -45t80 -47t75.5 -43.5q219 111 219 310q0 76 -59.5 109.5t-139.5 33.5v18h338q29 -18 54.5 -62t25.5 -89q0 -68 -28.5 -125t-84 -99t-116 -73 t-139.5 -59q55 -29 92 -50.5t95 -64.5t94 -84t63.5 -102.5t27.5 -129.5q0 -203 -123.5 -344t-351.5 -141q-102 0 -192 22.5t-168 69.5t-123 132t-45 200q0 137 76.5 222t181.5 118q-139 82 -201.5 159.5t-62.5 192.5zM274 414q0 -111 36 -192t91.5 -118.5t105.5 -54 t95 -16.5q104 0 164.5 61.5t60.5 179.5q0 61 -27.5 116.5t-57 90.5t-97 79t-100.5 61l-111 55l-24 12q-57 -33 -96.5 -106.5t-39.5 -167.5z" />
<glyph unicode="&#x223;" horiz-adv-x="1011" d="M61 1098q0 221 209 317l15 -31q-74 -51 -74 -159q0 -176 381 -351q215 109 215 291q0 88 -47 126t-117 38q-61 0 -117 -18l-12 26l229 150q72 0 146 -55.5t74 -171.5q0 -254 -322 -412q125 -55 209 -158.5t84 -222.5q0 -211 -109.5 -353.5t-300.5 -142.5 q-193 0 -327 92.5t-134 280.5q0 135 87.5 236.5t185.5 150.5q-275 142 -275 367zM236 381q0 -80 21.5 -143.5t53 -100.5t72.5 -61.5t76 -32.5t65 -8q82 0 145.5 71.5t63.5 206.5q0 262 -340 381q-61 -39 -109 -123t-48 -190z" />
<glyph unicode="&#x224;" horiz-adv-x="1366" d="M57 0v33l783 1280q-39 -2 -98.5 -4t-71.5 -2q-229 0 -323.5 -65.5t-168.5 -278.5h-57l43 421h1073v-32l-776 -1280h151q389 0 521 153q55 68 102 234q8 27 10 35h53v-510q0 -92 -3 -150.5t-16 -121t-39 -97.5t-71 -57.5t-110 -22.5q-162 0 -258 78t-96 192q0 59 43 103.5 t100 44.5q59 0 104 -46t45 -108q0 -39 -27.5 -74.5t-27.5 -56.5q0 -29 25.5 -47t66.5 -18q76 0 125 44t49 134v219h-1151z" />
<glyph unicode="&#x225;" horiz-adv-x="909" d="M43 0v51l479 828h-22q-199 0 -265.5 -41t-103.5 -185h-53l14 291h760v-53l-473 -825h59q162 0 242 55t123 207h57v-344q0 -92 -3 -150.5t-16.5 -121t-39 -97.5t-70.5 -57.5t-110 -22.5q-162 0 -258.5 78t-96.5 192q0 59 43 103.5t101 44.5q59 0 104 -46t45 -108 q0 -39 -27.5 -74.5t-27.5 -56.5q0 -29 25.5 -47t66.5 -18q76 0 125 44t49 134v219h-727z" />
<glyph unicode="&#x226;" horiz-adv-x="1478" d="M584 1602q0 51 39 90t90 39q55 0 95 -40t40 -95q0 -53 -39 -91t-96 -38q-53 0 -91 39t-38 96zM18 0v51q74 14 108 55t93 185l455 1122h57l457 -1077q76 -180 115.5 -232.5t99.5 -52.5h8v-51h-663v51q43 6 65 6q98 6 98 67.5t-94 278.5h-461l-30 -79q-59 -154 -60 -189 q0 -39 39 -58.5t129 -25.5v-51h-416zM387 483h399l-206 498z" />
<glyph unicode="&#x227;" horiz-adv-x="1024" d="M393 1182q0 51 39 90t90 39q55 0 95 -40t40 -95q0 -53 -39 -91t-96 -38q-53 0 -91 39t-38 96zM51 188q0 63 34 117.5t79 89.5t124 70t134 53.5t145 44.5q23 6 35 10v150q0 94 -41 137t-131 43q-53 0 -91 -21.5t-38 -54.5q0 -10 30.5 -54t30.5 -79q0 -53 -38.5 -86 t-100.5 -33q-63 0 -98 36t-35 100q0 115 106.5 186.5t280.5 71.5q186 0 296 -76t110 -205v-534q0 -51 43 -52q14 0 22 9l21 20l30 -43q-109 -117 -229 -117q-76 0 -114 33t-54 111q-158 -143 -323 -144q-98 0 -163 61.5t-65 155.5zM350 254q0 -61 29 -99t76 -38q70 0 145 88 v297q-250 -66 -250 -248z" />
<glyph unicode="&#x228;" horiz-adv-x="1366" d="M33 0v51q115 12 147.5 39t32.5 107v991q0 78 -37 108.5t-143 36.5v51h1181v-411h-51q-39 205 -137 273.5t-348 68.5q-80 0 -106.5 -19.5t-26.5 -76.5v-476h8q162 0 231.5 67t92.5 239h53v-693h-53q-18 178 -91 248t-241 70v-496q0 -66 35.5 -90.5t134.5 -24.5 q223 0 339.5 90.5t200.5 272.5h58l-82 -426h-518l-56 -127q31 10 68 10q84 0 132 -38t48 -105q0 -84 -71.5 -133t-194.5 -49q-94 0 -197 36l33 76q82 -29 123 -28q117 0 117 84q0 74 -94 73q-27 0 -58 -8l-22 16l86 193h-594z" />
<glyph unicode="&#x229;" horiz-adv-x="909" d="M51 467q0 225 118 363.5t310 138.5q350 0 383 -467h-516q2 -55 8 -99.5t21.5 -100.5t41 -93t69.5 -63.5t104 -26.5q66 0 119 30.5t114 106.5l49 -29q-94 -133 -176 -190t-190 -66l-53 -121q31 10 67 11q84 0 132 -38t48 -106q0 -84 -71.5 -133t-194.5 -49q-94 0 -196 37 l32 76q82 -29 123 -29q117 0 117 84q0 74 -94 74q-27 0 -58 -8l-22 16l84 188q-168 20 -268.5 153.5t-100.5 340.5zM336 578h274v30q-2 66 -4 100.5t-10 78.5t-21.5 65.5t-37 37t-58.5 15.5q-76 0 -107.5 -71.5t-35.5 -255.5z" />
<glyph unicode="&#x22a;" horiz-adv-x="1593" d="M72 584q0 272 205.5 445t527.5 173q309 0 513 -175t204 -441q0 -270 -204 -444.5t-521.5 -174.5t-521 173.5t-203.5 443.5zM434 567q0 -264 93.5 -403t269.5 -139t269 140t93 408q0 270 -94 421t-262 151q-180 0 -274.5 -147.5t-94.5 -430.5zM459 1437.5q0 53.5 39 92.5 t92 39t93 -40t40 -95q0 -53 -39 -91t-94 -38q-53 0 -92 39.5t-39 93zM459 1696v147h676v-147h-676zM889 1440q0 51 39 90t90 39q55 0 95 -40t40 -95q0 -53 -39 -91t-96 -38q-53 0 -91 39t-38 96z" />
<glyph unicode="&#x22b;" horiz-adv-x="1024" d="M174 1466v148h676v-148h-676zM51 475q0 209 134 351.5t329 142.5q199 0 330 -142.5t131 -357.5q0 -213 -131 -355.5t-330 -142.5q-201 0 -332 142.5t-131 361.5zM352 438q0 -225 36 -314t126 -89t125 93t35 329q0 252 -35 350t-123 98q-94 0 -129 -98.5t-35 -368.5z M166 1178q0 53 39 92t92 39t93 -40t40 -95q0 -53 -39 -91t-94 -38q-53 0 -92 40t-39 93zM596 1180q0 51 39 90t90 39q55 0 95 -40t40 -95q0 -53 -39 -91t-96 -38q-53 0 -91 39t-38 96z" />
</font>
</defs>
</svg>
