<?xml version="1.0" standalone="no"?>
<!DOCTYPE svg PUBLIC "-//W3C//DTD SVG 1.1//EN" "http://www.w3.org/Graphics/SVG/1.1/DTD/svg11.dtd" >
<svg xmlns="http://www.w3.org/2000/svg">
<metadata>
This is a custom SVG webfont generated by Font Squirrel.
Copyright   : Copyleft 2002 2003 2005 2008 2009 Free Software Foundation
Foundry     : GNU
Foundry URL : httpssavannahgnuorgprojectsfreefont
</metadata>
<defs>
<font id="FreeSerifBoldItalic" horiz-adv-x="0" >
<font-face units-per-em="2048" ascent="1638" descent="-410" />
<missing-glyph horiz-adv-x="512" />
<glyph unicode="IJ" horiz-adv-x="1691" d="M-49 0v51q76 10 109.5 39t54.5 109l252 919q20 74 20 125q0 39 -26.5 50.5t-122.5 25.5v51h610v-51q-80 -10 -114 -39t-54 -109l-234 -860q-37 -139 -36 -178q0 -43 30.5 -60.5t116.5 -21.5v-51h-606zM590 4q0 59 38 101t93 42q53 0 91 -37.5t38 -91.5q0 -35 -23.5 -63.5 t-23.5 -46.5q0 -37 55 -37t90 67.5t94 294.5l234 885q23 84 22 125q0 33 -29.5 48.5t-119.5 27.5v51h608v-51q-78 -10 -111.5 -39t-54.5 -109l-262 -981q-53 -201 -157.5 -297t-270.5 -96q-135 0 -223 58.5t-88 148.5z" />
<glyph unicode="ij" horiz-adv-x="1120" d="M14 141q0 80 75 323t75 304q0 66 -96 66h-25v55q240 18 414 57q-178 -651 -185 -680q-12 0 -12 -88q0 -49 47 -49q45 0 143.5 105.5t183.5 262t85 273.5q0 39 -16.5 52.5t-49.5 13.5q-29 0 -43 -2v55q268 23 426 57l-233 -897q-123 -473 -426 -473q-84 0 -150.5 40 t-66.5 118q0 43 29.5 75.5t70.5 32.5t70.5 -29.5t29.5 -70.5q0 -25 -15 -49.5t-15 -28.5q0 -10 17.5 -17t27.5 -7q18 0 35.5 10t32 31.5t24.5 42t20.5 51t15.5 50t12 47.5l9 36l119 457q2 8 7 26.5t7 26.5q-57 -90 -92 -140.5t-103.5 -132.5t-140 -122.5t-147.5 -40.5 q-160 -1 -160 159zM258 1188q0 53 41 94t94 41q57 0 99.5 -41t42.5 -98.5t-42 -96t-99.5 -38.5t-96.5 41t-39 98zM838 1188q0 53 41 94t94 41q57 0 99 -41t42 -98.5t-42 -96t-99.5 -38.5t-96 41t-38.5 98z" />
<glyph unicode="&#xfb00;" horiz-adv-x="1193" d="M-385 -266q0 49 24.5 82.5t71.5 33.5q45 0 77 -27.5t32 -72.5q0 -29 -19.5 -50.5t-19.5 -31.5q0 -18 37 -18q27 0 50 13t40.5 39t30 52.5t22.5 64.5t16.5 63.5t13.5 62.5t9 47l188 842h-153l20 86h156q43 127 80 204.5t99.5 158.5t154.5 119t217 38q154 0 233 -86 q96 76 228 76q86 0 143 -41t57 -123q0 -47 -29.5 -78t-76.5 -31q-43 0 -70.5 30t-27.5 73q0 23 16 51t16 30q0 29 -34 29q-27 0 -52.5 -19.5t-46 -54t-37 -72.5t-32 -88.5t-24.5 -85t-19.5 -77.5t-12.5 -53h189l-19 -86h-184q-123 -586 -176 -756q-111 -365 -279 -457 q-72 -41 -162 -41q-88 0 -143 43t-55 129q0 37 33.5 69t70.5 32q41 0 72 -31t31 -70q0 -23 -16.5 -52.5t-16.5 -31.5q0 -25 33 -24q35 0 58.5 16t45 62.5t36.5 102.5t38.5 161.5t46 213t61.5 283.5t82 351h-307l-192 -789q-45 -180 -155 -322.5t-269 -142.5q-76 0 -138.5 41 t-62.5 113zM453 920h305q45 160 84 237q-39 33 -39 82q0 35 22.5 66.5t22.5 37.5q0 35 -51 35q-190 0 -283 -245q-18 -51 -61 -213z" />
<glyph unicode="&#xfb01;" horiz-adv-x="1142" d="M-385 -260q0 49 27.5 79.5t72.5 30.5t75 -28.5t30 -71.5q0 -27 -19.5 -49.5t-19.5 -32.5q0 -18 35 -18q68 0 101.5 62.5t82.5 279.5l188 842h-153l20 86h156q33 94 57.5 154.5t70.5 137t97 120.5t132 76t180 32q129 0 209.5 -54.5t80.5 -140.5q0 -51 -32.5 -84t-84 -33 t-85 33t-33.5 80q0 31 22.5 63.5t22.5 41.5q0 33 -53 32q-61 0 -108.5 -22.5t-78 -54t-61.5 -100t-48.5 -123t-45.5 -158.5h241q61 0 221 14q4 0 19.5 1t37 3t40.5 2l-152 -588q-43 -162 -43 -194q0 -12 10.5 -22.5t22.5 -10.5q45 0 158 162l45 -27q-104 -160 -177 -219 t-165 -59q-68 0 -107 35.5t-39 99.5q0 39 33 166l141 551h-307l-192 -789q-55 -219 -173 -342t-253 -123q-86 0 -142.5 45t-56.5 115z" />
<glyph unicode="&#xfb02;" horiz-adv-x="1128" d="M-381 -254q0 51 28.5 80t78.5 29q43 0 69.5 -26t26.5 -69q0 -23 -16.5 -50t-16.5 -34q0 -25 45 -24q53 0 86 69.5t84 288.5l189 824h-152l20 86h152q2 4 14.5 48t18.5 61.5t23.5 64.5t31.5 71.5t40 66.5t50.5 66.5t60 55t74.5 47t90.5 29t106.5 12.5q49 0 180 -25l27 -6 l203 25l-310 -1233q-8 -35 -8 -41q0 -14 10.5 -24.5t24.5 -10.5q53 0 156 154l41 -23q-102 -160 -173 -218t-161 -58q-66 0 -107 33.5t-41 84.5q0 31 10 76l162 658h-301l-162 -668q-141 -586 -456 -586q-88 0 -143.5 46t-55.5 120zM453 920h309l61 243q-43 33 -43 80 q0 31 21.5 63.5t21.5 36.5q0 14 -22.5 26.5t-50.5 12.5q-63 0 -113.5 -38.5t-85.5 -114.5t-55 -143.5t-43 -165.5z" />
<glyph unicode="&#xfb03;" horiz-adv-x="1683" d="M-385 -266q0 49 24.5 82.5t71.5 33.5q45 0 77 -27.5t32 -72.5q0 -29 -19.5 -50.5t-19.5 -31.5q0 -18 37 -18q27 0 50 13t40.5 39t30 52.5t22.5 64.5t16.5 63.5t13.5 62.5t9 47l188 842h-153l20 86h156q43 127 80 204.5t99.5 158.5t154.5 119t217 38q164 0 239 -94 q123 94 308 94q102 0 189 -50.5t87 -144.5q0 -51 -32.5 -84t-84.5 -33q-49 0 -83.5 32t-34.5 79q0 35 22.5 66.5t22.5 37.5q0 35 -52 35q-35 0 -66.5 -9t-56 -20.5t-48 -36t-40 -42t-34.5 -53.5l-28 -56q-9 -18 -23.5 -62t-19.5 -59.5t-18.5 -62.5t-15.5 -57h250q63 0 179 9 t139 11l-150 -580q-4 -14 -17.5 -59t-20.5 -79t-7 -60q0 -12 10 -24.5t23 -12.5q49 0 157 162l46 -27q-55 -86 -90 -133t-106 -96t-149 -49q-68 0 -105.5 35.5t-37.5 101.5q0 27 33 164l141 551h-309q-123 -586 -176 -756q-111 -365 -279 -457q-72 -41 -162 -41 q-88 0 -143 43t-55 129q0 37 33.5 69t70.5 32q41 0 72 -31t31 -70q0 -23 -16.5 -52.5t-16.5 -31.5q0 -25 33 -24q35 0 58.5 16t45 62.5t36.5 102.5t38.5 161.5t46 213t61.5 283.5t82 351h-307l-192 -789q-45 -180 -155 -322.5t-269 -142.5q-76 0 -138.5 41t-62.5 113z M453 920h305q55 162 90 231q-45 33 -45 88q0 35 22.5 66.5t22.5 37.5q0 35 -51 35q-190 0 -283 -245q-18 -51 -61 -213z" />
<glyph unicode="&#xfb04;" horiz-adv-x="1675" d="M-385 -266q0 49 24.5 82.5t71.5 33.5q45 0 77 -27.5t32 -72.5q0 -27 -19.5 -49.5t-19.5 -32.5q0 -18 37 -18q27 0 50 13t40.5 39t30 52.5t22.5 64.5t16.5 63.5t13.5 62.5t9 47l188 842h-153l20 86h156q43 127 80 204.5t99.5 158.5t154.5 119t217 38q154 0 233 -86 q113 88 289 88q61 0 193 -31l202 25q-2 -8 -91 -353.5t-157.5 -620t-68.5 -302.5q0 -14 11 -23.5t26 -9.5q53 0 153 154l41 -23q-39 -59 -50 -77.5t-51 -69t-67.5 -69.5t-72.5 -39.5t-92 -20.5q-59 0 -103.5 31.5t-44.5 88.5q0 51 32 189.5t85 335t55 207.5h-301l-162 -668 q-139 -586 -463 -586q-80 0 -136 44t-56 124q0 49 29.5 78t78.5 29q41 0 68 -27t27 -68q0 -25 -16.5 -50t-16.5 -34q0 -25 47 -24q23 0 42 15.5t35.5 44t29 57t23.5 70.5t16.5 66.5t12.5 62.5t9 42l188 824h-307l-192 -789q-45 -180 -155 -322.5t-269 -142.5 q-76 0 -138.5 41t-62.5 113zM453 920h307q49 160 86 233q-43 33 -43 86q0 35 22.5 66.5t22.5 37.5q0 35 -51 35q-190 0 -283 -245q-18 -51 -61 -213zM999 920h310l61 243q-43 31 -43 84q0 27 21.5 59.5t21.5 36.5q0 18 -25.5 28.5t-44.5 10.5q-41 0 -77.5 -19.5t-62 -44 t-51.5 -72.5t-39 -78.5t-30.5 -92t-23 -81t-17.5 -74.5z" />
<glyph unicode=" "  horiz-adv-x="512" />
<glyph unicode="&#x09;" horiz-adv-x="512" />
<glyph unicode="&#xa0;" horiz-adv-x="512" />
<glyph unicode="!" horiz-adv-x="796" d="M137 119q0 66 43 109.5t107 43.5q57 0 103 -47t46 -106.5t-44 -102.5t-107.5 -43t-105.5 41.5t-42 104.5zM342 434q31 156 53.5 307.5t32.5 240.5t21.5 172t20.5 123t27.5 72.5t46 42t72.5 9.5q63 0 102.5 -41t39.5 -109q0 -61 -33 -126.5t-127 -255t-197 -451.5z" />
<glyph unicode="&#x22;" horiz-adv-x="1136" d="M279 815l32 438q4 59 53.5 104.5t106.5 45.5q39 0 66.5 -30t27.5 -70q0 -29 -35 -107l-168 -381h-83zM811 815l33 438q4 59 53 104.5t107 45.5q39 0 66.5 -30t27.5 -70q0 -29 -35 -107l-168 -381h-84z" />
<glyph unicode="#" horiz-adv-x="1024" d="M-68 430l41 150h217l111 274h-197l41 150h215l179 430h157l-176 -430h232l178 430h157l-176 -430h181l-41 -150h-199l-111 -274h179l-41 -150h-199l-174 -430h-160l174 430h-231l-174 -430h-160l174 430h-197zM350 580h232l110 274h-231z" />
<glyph unicode="$" horiz-adv-x="1024" d="M-41 176l86 291l45 -12q4 -166 44 -243t147 -126l151 535q-164 125 -217 199.5t-53 178.5q0 158 115.5 265.5t285.5 107.5q33 0 78 -4l37 133h102l-41 -147q117 -20 242 -101l37 -28l-86 -273l-43 11q2 23 2 61q0 106 -40 165.5t-132 90.5l-121 -440q68 -57 94.5 -82 t73.5 -75t66.5 -84t36 -84t16.5 -103q0 -174 -136.5 -293t-336.5 -119h-47l-58 -205h-106l59 219q-96 23 -157.5 56.5t-143.5 105.5zM365 1110q0 -61 30.5 -108.5t112.5 -108.5l113 407q-10 4 -31 5q-102 0 -163.5 -53.5t-61.5 -141.5zM381 66q84 0 143.5 24.5t87 65.5 t39 80.5t11.5 85.5q0 72 -30 122t-114 117z" />
<glyph unicode="%" horiz-adv-x="1705" d="M80 883q0 190 143.5 349t315.5 159q74 0 157.5 -57.5t196.5 -57.5q184 0 346 141h80l-807 -1433h-115l715 1269q-133 -55 -244 -55q-20 0 -88 10q-2 -268 -129 -437t-307 -169q-115 0 -189.5 79t-74.5 202zM315 799q0 -45 28 -74t71 -29q106 0 201.5 155t95.5 331 q0 37 -10.5 48t-36 18t-46.5 28q-20 16 -34 16q-57 0 -124 -102.5t-106 -218t-39 -172.5zM922 262q0 109 60 225.5t170 199.5t232 83q106 0 173 -65.5t67 -172.5q0 -55 -21.5 -138t-65.5 -180t-135 -165.5t-208 -68.5q-123 0 -197.5 77.5t-74.5 204.5zM1161 182 q0 -47 29 -77.5t74 -30.5q74 0 143.5 77.5t108 183t38.5 191.5q0 61 -31.5 100.5t-76.5 39.5q-74 0 -143.5 -104.5t-105.5 -215.5t-36 -164z" />
<glyph unicode="&#x26;" horiz-adv-x="1593" d="M10 303q0 49 12.5 95t37 84t50 71t67.5 62.5t69.5 49t75 43t68 33t64.5 26.5t48 19q-23 127 -23 189q0 188 105.5 305t273.5 117q123 0 203 -65.5t80 -168.5q0 -203 -373 -352q39 -246 176 -465q88 111 120 166t32 98q0 33 -24.5 50.5t-90.5 27.5v51h434v-51 q-70 -14 -109.5 -40.5t-97 -96.5t-213.5 -279q113 -147 226 -147q76 0 157 82l54 -43q-94 -113 -171 -157t-178 -44q-156 0 -284 127q-188 -129 -393 -129q-176 0 -286 95t-110 247zM283 389q0 -121 74.5 -202t185.5 -81q84 0 198 58q-86 133 -135 250.5t-88 287.5 q-129 -63 -182 -133.5t-53 -179.5zM727 1085q0 -61 23 -196q115 70 161 127q66 80 66 176q0 66 -27.5 101.5t-79.5 35.5q-143 0 -143 -244z" />
<glyph unicode="'" horiz-adv-x="569" d="M262 815l33 438q4 59 53 104.5t107 45.5q39 0 66.5 -30t27.5 -70q0 -29 -35 -107l-168 -381h-84z" />
<glyph unicode="(" horiz-adv-x="681" d="M57 424q0 86 14.5 168t34 148.5t56.5 134t66.5 115.5t78.5 103.5t79 86t84 74.5t75.5 60.5t70 50.5t52.5 38l37 -41q-70 -63 -119 -117.5t-118 -158t-112 -215t-74.5 -281.5t-31.5 -365q0 -178 30.5 -295.5t114.5 -265.5l-47 -31q-156 213 -223.5 396.5t-67.5 394.5z" />
<glyph unicode=")" horiz-adv-x="681" d="M-90 -326q117 109 176 182.5t109 172.5q76 154 121.5 368.5t45.5 419.5q0 174 -31.5 295t-115.5 260l47 31q143 -197 218 -381t75 -410q0 -113 -25.5 -221t-59.5 -188t-96.5 -165t-103.5 -132t-115.5 -111.5t-100 -83t-87.5 -61.5q-16 -12 -22 -17z" />
<glyph unicode="*" horiz-adv-x="1024" d="M133 795q0 104 162 104q72 4 103.5 11.5t80.5 35.5l23 12l-23 13q-51 29 -84 37t-100 10q-92 0 -127 32.5t-35 73.5q0 43 31 77t69 34q37 0 69 -26.5t52.5 -61.5t58.5 -78t83 -70l22 -12v25q0 92 -44 167.5t-44 116.5q0 47 28.5 77t76.5 30q45 0 73.5 -30t28.5 -77 q0 -39 -44 -116.5t-44 -167.5v-25l22 12q57 33 101.5 94.5t78 101.5t83.5 40q39 0 69.5 -34t30.5 -79q0 -41 -37 -72.5t-125 -31.5q-68 -2 -100.5 -10.5t-83.5 -36.5l-23 -13l23 -12q49 -29 80.5 -36t103.5 -11q162 0 162 -104q0 -45 -31 -78t-72 -33q-45 0 -78.5 39 t-78.5 99.5t-103 95.5l-22 12v-25q0 -88 44 -165.5t44 -118.5q0 -47 -28.5 -76t-76.5 -29q-45 0 -73.5 29.5t-28.5 77.5q0 41 44 115.5t44 166.5v25l-22 -12q-59 -35 -104.5 -96.5t-77 -99.5t-78.5 -38q-41 0 -72 33t-31 78z" />
<glyph unicode="+" horiz-adv-x="1167" d="M68 428v180h426v428h180v-428h426v-180h-426v-428h-180v428h-426z" />
<glyph unicode="," horiz-adv-x="512" d="M-123 -324q242 131 242 240q0 29 -22.5 50.5t-49.5 35.5t-49.5 46t-22.5 77q0 66 41 107.5t105 41.5q78 0 126 -55t48 -145q0 -125 -107.5 -247t-283.5 -200z" />
<glyph unicode="-" horiz-adv-x="681" d="M4 340l49 238h502l-47 -238h-504z" />
<glyph unicode="." horiz-adv-x="512" d="M-18 123q0 66 44 109.5t109 43.5q61 0 105.5 -45t44.5 -106q0 -63 -44 -107.5t-110 -44.5q-63 0 -106 43.5t-43 106.5z" />
<glyph unicode="/" horiz-adv-x="569" d="M-131 -37l653 1440h178l-653 -1440h-178z" />
<glyph unicode="0" horiz-adv-x="1024" d="M35 422q0 209 76.5 431t227 384t331.5 162q139 0 223 -134.5t84 -359.5q0 -147 -45 -309t-123 -302t-196.5 -231.5t-250.5 -91.5q-147 0 -237 123t-90 328zM246 166q0 -61 27.5 -98t74.5 -37q63 0 111.5 63.5t99.5 210.5q49 139 128 463t79 424q0 70 -26.5 108.5 t-73.5 38.5q-57 0 -104.5 -67.5t-104.5 -227.5q-72 -199 -141.5 -489.5t-69.5 -388.5z" />
<glyph unicode="1" horiz-adv-x="1024" d="M10 0v47q111 0 166 34t78 118l262 940q8 37 8 49q0 68 -94 67q-59 0 -129 -10l4 47q285 41 553 107l-315 -1147q-25 -90 -25 -111q0 -57 39 -74.5t160 -19.5v-47h-707z" />
<glyph unicode="2" horiz-adv-x="1024" d="M-55 0v49l184 184q289 287 399.5 452t110.5 304q0 106 -50 165.5t-140 59.5q-154 0 -273 -176l-45 25q174 336 444 336q143 0 240.5 -99.5t97.5 -244.5q0 -233 -295 -486l-401 -342h305q119 0 172.5 31t112.5 133h51l-162 -391h-751z" />
<glyph unicode="3" horiz-adv-x="1024" d="M-31 137q0 51 34 83t89 32q51 0 85 -31t49.5 -67.5t49 -67.5t82.5 -31q94 0 160 97.5t66 234.5q0 309 -322 324l8 45q199 41 293 117.5t94 195.5q0 84 -48 134t-130 50q-72 0 -123 -32.5t-114 -120.5l-43 26q96 143 194.5 208t222.5 65q131 0 218.5 -80t87.5 -199 q0 -186 -220 -295l-24 -12q88 -66 123 -133.5t35 -167.5q0 -225 -173.5 -382t-420.5 -157q-125 0 -199 44t-74 120z" />
<glyph unicode="4" horiz-adv-x="1024" d="M-31 307l58 215l874 877h129l-244 -891h142l-56 -201h-139l-86 -307h-262l84 307h-500zM109 508h415l162 573z" />
<glyph unicode="5" horiz-adv-x="1024" d="M-23 135q0 51 34 84t87 33q49 0 85 -31t54.5 -67.5t48 -67.5t68.5 -31q109 0 192 100.5t83 231.5q0 61 -20.5 118.5t-70 116t-148.5 96.5t-240 44l268 608h579l-73 -223h-521l-69 -156q141 -29 200.5 -49t112.5 -55q197 -127 197 -375q0 -227 -173 -383t-425 -156 q-121 0 -195 45t-74 117z" />
<glyph unicode="6" horiz-adv-x="1024" d="M47 399q0 217 108.5 419t303.5 347q125 90 244.5 137.5t326.5 88.5l12 -50q-207 -78 -341 -197.5t-228 -305.5q80 27 127 26q143 0 225 -93t82 -257q0 -227 -146.5 -386t-357.5 -159q-168 0 -262 114.5t-94 315.5zM276 195q0 -160 113 -160q82 0 125 80q51 96 95 265 t44 265q0 137 -139 137q-49 0 -71.5 -22.5t-55.5 -104.5q-111 -274 -111 -460z" />
<glyph unicode="7" horiz-adv-x="1024" d="M106 0l680 1139h-272q-160 0 -223.5 -29t-120.5 -129h-53l178 389h780l-780 -1370h-189z" />
<glyph unicode="8" horiz-adv-x="1024" d="M6 313q0 131 89 223.5t280 159.5v11q-86 90 -119 158.5t-33 156.5q0 162 110.5 269.5t280.5 107.5q147 0 254 -81t107 -212q0 -109 -67.5 -183.5t-225.5 -142.5v-10q176 -193 176 -375t-129 -302t-326 -120q-176 0 -286.5 94t-110.5 246zM205 289q0 -119 54 -186.5 t148.5 -67.5t157 75.5t62.5 190.5q0 80 -34 140.5t-165 215.5q-33 -23 -50.5 -35t-55 -49.5t-59 -72.5t-40 -91.5t-18.5 -119.5zM451 1133q0 -76 39.5 -142.5t144.5 -165.5q88 92 118.5 151.5t30.5 137.5q0 98 -45 157.5t-121 59.5q-74 0 -120.5 -56t-46.5 -142z" />
<glyph unicode="9" horiz-adv-x="1024" d="M-25 31q377 115 568 499q-63 -29 -125 -28q-139 0 -224 94t-85 248q0 233 146 394t357 161q82 0 147.5 -29t104.5 -72t64.5 -101t35 -112.5t9.5 -109.5q0 -217 -110.5 -424t-303.5 -348q-123 -90 -243.5 -137.5t-327.5 -85.5zM362 721q0 -131 136 -131q63 0 89.5 29.5 t67.5 152.5q88 264 88 420q0 141 -100 141q-82 0 -149.5 -111.5t-99.5 -248.5t-32 -252z" />
<glyph unicode=":" horiz-adv-x="681" d="M47 124.5q0 63.5 44 107.5t110 44q61 0 105 -45t44 -106q0 -63 -44 -107.5t-109 -44.5q-63 0 -106.5 44t-43.5 107.5zM238 788.5q0 63.5 44 107.5t109 44q61 0 105.5 -45t44.5 -107q0 -63 -44 -107t-110 -44q-63 0 -106 44t-43 107.5z" />
<glyph unicode=";" horiz-adv-x="681" d="M-51 -326q242 131 241 240q0 29 -22.5 50.5t-49 35.5t-49 46t-22.5 77q0 66 41 107.5t105 41.5q78 0 126 -55t48 -145q0 -125 -106.5 -247t-285.5 -200zM238 788.5q0 63.5 44 107.5t109 44q61 0 105.5 -45t44.5 -107q0 -63 -44 -107t-110 -44q-63 0 -106 44t-43 107.5z " />
<glyph unicode="&#x3c;" horiz-adv-x="1167" d="M63 432v172l1041 457v-197l-789 -346l789 -346v-197z" />
<glyph unicode="=" horiz-adv-x="1167" d="M68 219v180h1032v-180h-1032zM68 637v180h1032v-180h-1032z" />
<glyph unicode="&#x3e;" horiz-adv-x="1167" d="M63 -25v197l789 346l-789 346v197l1041 -457v-172z" />
<glyph unicode="?" horiz-adv-x="1024" d="M162 124.5q0 63.5 44 107.5t109 44q61 0 105.5 -45t44.5 -106q0 -63 -44 -107.5t-110 -44.5q-63 0 -106 44t-43 107.5zM244 1137q0 115 101 189.5t257 74.5q162 0 261.5 -82t99.5 -215q0 -96 -60.5 -178t-197.5 -170l-136 -88q-59 -39 -92 -87.5t-76 -154.5l-59 14 q12 156 145 326l84 104q131 164 131 304q0 76 -37.5 119.5t-103.5 43.5q-49 0 -88 -24.5t-39 -52.5q0 -10 30 -56.5t30 -83.5q0 -49 -37 -85t-88 -36q-53 0 -89 40.5t-36 97.5z" />
<glyph unicode="@" horiz-adv-x="1703" d="M129 672q0 305 222 518t542 213q289 0 486.5 -176t197.5 -434q0 -203 -114.5 -352.5t-268.5 -149.5q-76 0 -131 45t-59 108q-115 -152 -256 -151q-80 0 -135.5 67.5t-55.5 165.5q0 39 11.5 98.5t41 136.5t73.5 141.5t119 108.5t167 44q55 0 84.5 -21.5t62.5 -85.5l23 78 h145l-133 -526q-4 -12 -4 -41q0 -92 76 -92q109 0 184.5 135t75.5 274q0 225 -173 386t-415 161q-254 0 -417 -186.5t-163 -477.5q0 -262 170 -432t435 -170q193 0 405 99l27 -72q-150 -70 -246 -95.5t-207 -25.5q-324 0 -547 205t-223 504zM713 563q0 -80 32.5 -127 t88.5 -47q98 0 172.5 154.5t74.5 294.5q0 119 -94 118q-88 0 -181 -114.5t-93 -278.5z" />
<glyph unicode="A" horiz-adv-x="1366" d="M-137 0v51q55 12 89 40t81 104l762 1204h51l196 -1172q20 -117 45 -142.5t127 -33.5v-51h-622v51q98 10 130 34t32 87q0 4 -31 254h-440l-121 -209q-31 -53 -31 -94q0 -72 133 -72v-51h-401zM330 508h379l-76 498z" />
<glyph unicode="B" horiz-adv-x="1366" d="M-49 0v51q76 10 109.5 40t54.5 108l250 919q23 80 22 117q0 47 -35 62.5t-114 21.5v51h557q483 0 483 -299q0 -74 -33 -133t-70.5 -92t-105.5 -61.5t-96.5 -37t-81.5 -20.5q156 -51 218 -118.5t62 -186.5q0 -197 -161.5 -309.5t-442.5 -112.5h-616zM406 133 q0 -68 116 -67q150 0 243 115.5t93 287.5q0 72 -20.5 117t-67.5 67.5t-93 29.5t-126 9l-135 -499q-10 -46 -10 -60zM567 754q102 4 170 18t126.5 50t86 103.5t27.5 172.5q0 207 -178 207q-49 0 -70.5 -17.5t-36.5 -73.5z" />
<glyph unicode="C" horiz-adv-x="1366" d="M66 494q0 373 246.5 641t588.5 268q109 0 218.5 -30t127.5 -30q41 0 78 60h61l-104 -479l-65 12q6 39 6 72q0 150 -72 236.5t-197 86.5q-162 0 -298 -153.5t-205.5 -358.5t-69.5 -391q0 -168 82 -262t225 -94q66 0 126 17t101 39t84 59.5t61.5 58t47.5 55.5q6 8 10 12 l62 -45q-86 -117 -160 -172q-176 -133 -397 -133q-250 0 -403.5 146.5t-153.5 384.5z" />
<glyph unicode="D" horiz-adv-x="1523" d="M-49 0v51q76 10 109.5 40t54.5 108l247 913q25 98 25 121q0 47 -28.5 60.5t-120.5 25.5v51h593q291 0 454 -148.5t163 -410.5q0 -348 -260 -579.5t-651 -231.5h-586zM408 139q0 -70 110 -69q287 0 449 231q84 119 132 290t48 345q0 371 -338 371q-92 0 -113 -78 l-264 -979q-24 -95 -24 -111z" />
<glyph unicode="E" horiz-adv-x="1372" d="M-49 0v51q80 12 110.5 39t53.5 109l252 919q20 76 20 123q0 27 -17.5 42t-40 20.5t-77.5 13.5q-8 2 -14 2v51h1105l-88 -389l-55 10q0 78 -11 127t-48 96.5t-115 69t-203 21.5q-63 0 -87.5 -18.5t-41.5 -72.5l-125 -456h27q129 0 194.5 16.5t107.5 59.5t91 141l58 -8 l-152 -559l-57 10q8 51 8 90q0 106 -60.5 144t-234.5 40l-115 -428q0 -4 -15 -56t-15 -73q0 -70 124 -69q168 0 293 49t196 117.5t136 175.5l51 -11l-121 -397h-1134z" />
<glyph unicode="F" horiz-adv-x="1343" d="M-49 0v51q80 12 110.5 39t53.5 109l252 919q20 76 20 123q0 39 -27.5 52.5t-101.5 23.5q-14 2 -20 2v51h1091l-88 -389l-55 10q0 78 -13.5 130.5t-50.5 97.5t-110.5 65.5t-188.5 20.5q-61 0 -87.5 -18.5t-41.5 -72.5l-125 -456q201 2 267.5 36.5t138.5 180.5l57 -8 l-151 -559l-58 10q8 51 8 90q0 104 -58 143t-222 41l-111 -411q-31 -92 -30.5 -139.5t30 -66t115.5 -24.5v-51h-604z" />
<glyph unicode="G" horiz-adv-x="1478" d="M43 514q0 236 123 449t326 331q188 109 426 109q115 0 214 -31t113 -31q55 0 86 62h64l-105 -453l-59 8q-4 182 -68.5 276.5t-216.5 94.5q-133 0 -247.5 -90t-185.5 -228.5t-111 -293t-40 -291.5q0 -186 86.5 -285.5t249.5 -99.5q59 0 115.5 17.5t77.5 43.5 q12 18 65.5 201.5t53.5 245.5q0 23 -9.5 36t-37 21t-44 10t-61.5 7v53h588v-53q-82 -6 -107.5 -33t-54.5 -135l-98 -371l-58 -27q-88 -41 -225 -67.5t-254 -26.5q-268 0 -437 153.5t-169 397.5z" />
<glyph unicode="H" horiz-adv-x="1593" d="M-49 0v51q78 10 110.5 39t53.5 109l250 919q23 84 22 119q0 43 -29.5 56.5t-119.5 25.5v51h649v-51q-100 -2 -142.5 -33t-64.5 -115l-111 -407h490l96 354q20 74 21 125q0 39 -27 50.5t-123 25.5v51h610v-51q-78 -10 -109.5 -38t-56.5 -110l-235 -858q-39 -139 -39 -178 q0 -45 33 -62.5t117 -21.5v-51h-650v51q102 6 143.5 35t63.5 113l131 475h-489l-103 -371q-2 -8 -18 -70.5t-16 -93.5q0 -49 26.5 -64.5t122.5 -23.5v-51h-606z" />
<glyph unicode="I" horiz-adv-x="804" d="M-49 0v51q76 10 109.5 39t54.5 109l252 919q20 74 20 125q0 39 -26.5 50.5t-122.5 25.5v51h610v-51q-80 -10 -114 -39t-54 -109l-234 -860q-37 -139 -36 -178q0 -43 30.5 -60.5t116.5 -21.5v-51h-606z" />
<glyph unicode="J" horiz-adv-x="1024" d="M-94 4q0 59 38 101t93 42q53 0 91 -37.5t38 -91.5q0 -35 -23.5 -63.5t-23.5 -46.5q0 -37 55 -37t90 67.5t94 294.5l234 885q23 84 22 125q0 33 -29.5 48.5t-119.5 27.5v51h608v-51q-78 -10 -111.5 -39t-54.5 -109l-262 -981q-53 -201 -157.5 -297t-270.5 -96 q-135 0 -223 58.5t-88 148.5z" />
<glyph unicode="K" horiz-adv-x="1359" d="M-49 0v51q76 10 108.5 39t55.5 109l250 919q23 84 22 119q0 43 -29.5 56.5t-119.5 25.5v51h634v-51q-92 -8 -132 -38t-60 -110l-127 -466q315 270 438 392t123 167q0 43 -72 51q-6 0 -43 4v51h433v-51q-68 -10 -97.5 -24.5t-95.5 -73.5l-442 -406l321 -692 q16 -37 43 -51.5t86 -20.5v-51h-573v51q39 2 55 5t39 8.5t31 15.5t8 26q0 29 -27 89l-231 495l-137 -510q-4 -20 -4 -35q0 -51 27.5 -69.5t107.5 -24.5v-51h-592z" />
<glyph unicode="L" horiz-adv-x="1247" d="M-49 0v51q76 10 109.5 40t54.5 108l252 919q20 74 20 125q0 39 -26.5 50.5t-122.5 25.5v51h649v-51q-102 -6 -143.5 -35t-63.5 -113l-264 -978q-10 -37 -10 -66q0 -61 131 -61q256 0 424 118q59 43 101 90.5t93 133.5l49 -11l-121 -397h-1132z" />
<glyph unicode="M" horiz-adv-x="1835" d="M-59 0v51q84 18 116.5 66.5t89.5 247.5l224 763q23 80 22 119q0 43 -25.5 55.5t-121.5 16.5v51h452l111 -983l635 983h434v-51q-78 -10 -111.5 -39t-54.5 -109l-256 -940q-16 -59 -16 -92q0 -49 28.5 -66.5t118.5 -21.5v-51h-639v51q100 6 141 36t64 112l256 950 l-768 -1174h-57l-138 1145l-206 -755q-39 -143 -39 -189q0 -63 32.5 -88t131.5 -37v-51h-424z" />
<glyph unicode="N" horiz-adv-x="1478" d="M-59 0v51q84 16 116.5 64.5t89.5 249.5l246 841q-29 68 -57.5 86.5t-112.5 26.5v51h400l440 -952l164 588q37 133 37 192t-37 86t-127 35v51h428v-51q-90 -20 -122 -66.5t-87 -246.5l-293 -1037h-57l-527 1125l-202 -729q-37 -137 -37 -193q0 -59 36.5 -86t127.5 -35v-51 h-426z" />
<glyph unicode="O" horiz-adv-x="1478" d="M55 453q0 147 65.5 313t177.5 308.5t276.5 235.5t345.5 93q213 0 354 -134t141 -339q0 -158 -64.5 -328t-175 -312.5t-279.5 -234.5t-357 -92q-217 0 -350.5 135.5t-133.5 354.5zM350 281q0 -115 56.5 -181.5t152.5 -66.5q160 0 297 198q102 152 183 412t81 444 q0 111 -57 178.5t-152 67.5q-193 0 -344 -268q-84 -147 -150.5 -386.5t-66.5 -397.5z" />
<glyph unicode="P" horiz-adv-x="1257" d="M-49 0v51q82 12 111.5 39t52.5 109l252 919q20 76 20 123q0 39 -27.5 52.5t-101.5 23.5q-14 2 -20 2v51h587q213 0 325 -81t112 -236q0 -184 -152 -294t-408 -110q-74 0 -165 10l-111 -407q-20 -76 -20 -121q0 -41 30.5 -58.5t116.5 -21.5v-51h-602zM557 725q70 -4 86 -4 q106 0 168.5 39t103.5 129q47 104 48 229q0 88 -45.5 137.5t-126.5 49.5q-18 0 -32 -2.5t-24 -9.5t-16 -10t-12.5 -16.5t-7.5 -16.5l-6 -18q-5 -15 -5 -18z" />
<glyph unicode="Q" horiz-adv-x="1478" d="M55 432q0 244 123 470t323.5 363.5t418.5 137.5q215 0 355 -135t140 -342q0 -205 -96 -408t-266 -354q-119 -106 -227.5 -146.5t-309.5 -52.5q-94 -90 -94 -96q0 -8 48 -13.5t126 -14.5t129 -25l86 -27q100 -31 170 -31q92 0 159.5 35t157.5 125l43 -39 q-125 -168 -243.5 -236.5t-286.5 -68.5q-109 0 -263.5 48t-228.5 48q-84 0 -233 -57l-29 49l320 266q33 29 39 39q-8 10 -83 38t-134 85q-144 133 -144 342zM350 279q0 -113 56.5 -178.5t152.5 -65.5q160 0 297 198q102 152 183 411t81 443q0 111 -57 178.5t-152 67.5 q-193 0 -344 -268q-84 -150 -150.5 -389t-66.5 -397z" />
<glyph unicode="R" horiz-adv-x="1376" d="M-49 0v51q76 10 109.5 39t54.5 109l252 919q20 70 20 125q0 39 -26.5 50.5t-122.5 25.5v51h565q483 0 483 -293q0 -43 -12 -86t-48 -103.5t-121 -110.5t-212 -75l170 -503q31 -90 61.5 -115t118.5 -33v-51h-414l-219 678h-59l-113 -395q-29 -98 -28 -146 q0 -45 28.5 -62.5t118.5 -23.5v-51h-606zM569 743q186 2 260 52q66 41 107 128t41 187q0 92 -48 143.5t-136 51.5q-47 0 -66.5 -17.5t-34.5 -73.5z" />
<glyph unicode="S" horiz-adv-x="1138" d="M4 -37l74 459l59 -4q25 -385 316 -385q115 0 186.5 74.5t71.5 183.5q0 72 -51.5 140.5t-125 129t-148.5 122.5t-126 146t-51 177q0 170 118.5 283.5t293.5 113.5q70 0 176 -31t129 -31q63 0 90 54h61l-82 -412l-55 8q-20 180 -83.5 260t-186.5 80q-98 0 -155.5 -58.5 t-57.5 -156.5q0 -70 30.5 -116t126.5 -117q188 -143 266 -258t78 -246q0 -190 -126.5 -303t-342.5 -113q-100 0 -211.5 36t-134.5 36q-29 0 -44 -13.5t-33 -58.5h-62z" />
<glyph unicode="T" horiz-adv-x="1251" d="M102 0v51h29q78 0 121 35t65 113l304 1099q-158 -4 -261.5 -71.5t-183.5 -220.5l-51 14l78 350h1128l-74 -393l-55 4q-8 170 -72.5 242.5t-209.5 74.5l-287 -1036q-23 -84 -23 -127q0 -49 31 -64.5t139 -19.5v-51h-678z" />
<glyph unicode="U" horiz-adv-x="1478" d="M137 303q0 113 68 359l114 421q31 113 31 156q0 33 -18.5 48.5t-67.5 23.5q-6 0 -63 8v51h637v-51q-96 -4 -132 -31.5t-61 -116.5l-168 -614q-57 -209 -57 -272q0 -96 66.5 -151.5t183.5 -55.5q168 0 272 123q86 106 162 377l119 428q39 145 39 198t-38 80t-126 35v51 h426v-51q-86 -16 -119 -64.5t-90 -248.5l-135 -467q-2 -6 -16.5 -61.5t-22.5 -79t-28.5 -81t-42 -88t-54.5 -79t-73 -76t-91 -56t-116.5 -42t-141.5 -13.5q-201 0 -329 95t-128 245z" />
<glyph unicode="V" horiz-adv-x="1366" d="M133 1319v51h610v-51q-102 -10 -128.5 -25.5t-26.5 -66.5q0 -20 2 -33l104 -821l389 618q121 188 121 260q0 55 -82 64q-6 0 -51 4v51h393v-51q-86 -29 -121 -82l-804 -1274h-66l-156 1043q-33 219 -60.5 266t-123.5 47z" />
<glyph unicode="W" horiz-adv-x="1820" d="M133 1321v49h567v-51q-74 -10 -99.5 -31.5t-25.5 -77.5q0 -23 3 -32l79 -715l308 637q-2 131 -28 170t-118 51v49h551v-51q-82 -8 -105.5 -29.5t-23.5 -89.5q0 -29 12 -133l68 -604l319 670q31 68 31 94q0 55 -21.5 70.5t-107.5 21.5v51h383v-49q-66 -10 -98.5 -38 t-73.5 -112l-586 -1208h-59l-121 1002l-477 -1002h-59l-160 1186q-14 109 -36 132.5t-122 39.5z" />
<glyph unicode="X" horiz-adv-x="1366" d="M-49 0v51q66 12 148.5 88t324.5 342l139 152l-172 557q-23 72 -58.5 95.5t-127.5 33.5v51h624v-51q-43 -6 -61 -6q-51 -6 -70.5 -22.5t-19.5 -51.5q0 -25 20.5 -99.5t40 -136t21.5 -65.5l22 -76l193 203q143 152 143 201q0 43 -67 49q-4 0 -45 4v51h415v-51 q-57 -8 -97 -32.5t-105 -92.5l-408 -420l152 -485q45 -143 86 -184.5t151 -53.5v-51h-631v51q82 8 111 23.5t29 54.5q0 37 -22.5 115t-54.5 174t-40 123l-275 -303q-61 -68 -61 -105q0 -70 133 -82v-51h-438z" />
<glyph unicode="Y" horiz-adv-x="1251" d="M150 0v51q106 8 144 34t62 114l123 442l-180 549q-27 82 -48.5 100.5t-100.5 28.5v51h579v-51q-84 -2 -113.5 -17.5t-29.5 -58.5q0 -18 4 -37.5t16 -62.5t26.5 -85t47.5 -141.5t63 -195.5l265 381q53 78 53 123q0 53 -27.5 71.5t-109.5 22.5v51h426v-51 q-59 -12 -98.5 -41t-88.5 -100l-389 -547l-106 -391q-16 -63 -17 -93q0 -57 29 -74.5t129 -21.5v-51h-659z" />
<glyph unicode="Z" horiz-adv-x="1251" d="M-23 0v59l889 1239h-159q-168 0 -282 -65.5t-235 -235.5l-57 9l117 364h958v-59l-889 -1239h144q238 0 371 77.5t245 258.5l56 -11l-121 -397h-1037z" />
<glyph unicode="[" horiz-adv-x="681" d="M-76 -326l408 1706h409l-14 -71h-141q-55 0 -69.5 -18.5t-37.5 -110.5l-323 -1385q-2 -4 -2 -8q0 -16 19.5 -28.5t53.5 -12.5h160l-14 -72h-449z" />
<glyph unicode="\" horiz-adv-x="569" d="M-2 1403h174l399 -1440h-172z" />
<glyph unicode="]" horiz-adv-x="681" d="M-115 -322l15 72h139q55 0 69.5 17.5t36.5 107.5l324 1387v6q0 16 -20.5 28.5t-51.5 12.5h-159l14 71h450l-409 -1702h-408z" />
<glyph unicode="^" horiz-adv-x="1167" d="M137 623l365 747h164l364 -747h-182l-264 557l-265 -557h-182z" />
<glyph unicode="_" horiz-adv-x="1024" d="M0 -154h1024v-102h-1024v102z" />
<glyph unicode="`" horiz-adv-x="681" d="M174 1335q0 37 27.5 64.5t64.5 27.5q61 0 115 -69l227 -301h-92l-272 182q-70 47 -70 96z" />
<glyph unicode="a" horiz-adv-x="1024" d="M-43 233q0 156 86 324t218 278.5t255 110.5q66 0 101.5 -34.5t50.5 -112.5l37 121l227 14l-146 -483q-70 -236 -69 -304q0 -31 24.5 -30.5t54 29t93.5 114.5l43 -31q-170 -258 -309 -258q-57 0 -97.5 39t-40.5 96q0 35 29 138q-88 -145 -165 -208t-171 -63 q-100 0 -160.5 71.5t-60.5 188.5zM209 229q0 -47 26.5 -78.5t65.5 -31.5q82 0 161 135t119 282.5t40 227.5q0 43 -24 69.5t-56 26.5q-61 0 -141.5 -113.5t-135.5 -264.5t-55 -253z" />
<glyph unicode="b" horiz-adv-x="1024" d="M-29 96q0 20 41 166l193 670q80 281 80 321q0 35 -27 48.5t-102 13.5v55q242 27 426 62l-185 -672q78 102 141.5 144t141.5 42q100 0 164.5 -70.5t64.5 -183.5q0 -274 -202.5 -496.5t-452.5 -222.5q-100 0 -191.5 40t-91.5 83zM223 96q0 -23 18.5 -39t45.5 -16 q94 0 181 109.5t136 254t49 261.5q0 141 -90 141q-70 0 -137.5 -98.5t-109.5 -227.5t-67.5 -238.5t-25.5 -146.5z" />
<glyph unicode="c" horiz-adv-x="909" d="M-10 283q0 246 183 454.5t400 208.5q100 0 165 -51t65 -133q0 -63 -36 -103.5t-91 -40.5q-51 0 -85 31t-34 76q0 31 21.5 71t21.5 48q0 35 -45 35q-72 0 -132.5 -74t-96 -176.5t-55 -195.5t-19.5 -144q0 -82 42 -133.5t107.5 -51.5t121 41t128.5 144l58 -37 q-90 -129 -152 -180q-115 -98 -254 -98.5t-226 86t-87 223.5z" />
<glyph unicode="d" horiz-adv-x="1024" d="M-43 229q0 156 86 325t218 280.5t253 111.5q80 0 148 -67l38 139q57 205 58 242q0 57 -84 57h-43v55q264 20 428 60l-228 -830q-117 -424 -116 -457q0 -8 7 -16t15 -8q49 0 137 147l46 -32q-84 -135 -157 -197t-149 -62q-57 0 -89.5 34t-32.5 93q0 33 22 138 q-88 -145 -166 -207t-174 -62q-94 0 -155.5 72.5t-61.5 183.5zM211 240q0 -51 23.5 -85t60.5 -34q82 0 164 140t127 287.5t45 209.5q0 45 -22.5 73.5t-59.5 28.5q-80 0 -163 -127t-129 -271t-46 -222z" />
<glyph unicode="e" horiz-adv-x="909" d="M10 274q0 254 184.5 463t405.5 209q94 0 154.5 -50t60.5 -128q0 -43 -18.5 -89t-68.5 -106.5t-162.5 -115t-276.5 -84.5q-12 -61 -13 -101q0 -168 134 -168q63 0 115.5 40t123.5 147l60 -35q-92 -152 -182.5 -217.5t-207.5 -65.5q-133 0 -221 86t-88 215zM303 438 q147 53 235.5 136t88.5 235q0 70 -58 70q-151 -1 -266 -441z" />
<glyph unicode="f" horiz-adv-x="681" d="M-346 -258q0 45 31.5 78t74.5 33q39 0 70 -31t31 -68q0 -29 -16.5 -55.5t-16.5 -32.5q0 -23 37 -22q61 0 96 75q41 86 141 547q82 373 127 568h-149l18 86h150q31 111 65.5 190.5t88 158.5t131 120t178.5 41q92 0 147 -44.5t55 -119.5q0 -47 -29.5 -78t-74.5 -31 q-41 0 -70.5 30t-29.5 70q0 27 16 54.5t16 31.5q0 27 -34 27q-109 0 -187 -305l-37 -145h189l-19 -86h-184q-127 -588 -176 -752q-109 -362 -270 -459q-74 -43 -166.5 -43t-147.5 44t-55 118z" />
<glyph unicode="g" horiz-adv-x="1024" d="M-106 -199q0 25 6 46.5t15 38t25.5 31.5t30 26.5t36 21.5t35.5 15.5t37.5 12.5t33 9t30.5 6l23 6q-127 43 -127 136q0 55 36 90.5t161 107.5q-164 70 -164 225.5t133 264t321 108.5q133 0 226 -67h227v-115h-137q12 -39 12 -86q0 -106 -53 -184t-133 -114t-144.5 -51.5 t-111.5 -15.5q-35 0 -62.5 8.5t-42.5 8.5q-20 0 -38.5 -24.5t-18.5 -49.5q0 -49 104 -78l109 -31q168 -47 236.5 -105t68.5 -151q0 -135 -137 -221t-352 -86q-176 0 -280.5 58.5t-104.5 158.5zM72 -186q0 -70 63.5 -115t163.5 -45q117 0 181.5 38t64.5 103q0 78 -84 117 q-33 14 -123 45t-105 31q-31 0 -96 -54t-65 -120zM309 498q0 -121 88 -121q92 0 154.5 134t62.5 251q0 53 -26.5 87t-65.5 34q-90 0 -151.5 -134t-61.5 -251z" />
<glyph unicode="h" horiz-adv-x="1138" d="M-27 0l316 1161q16 61 16 88q0 68 -84 68q-29 0 -45 -2v55q199 16 426 62l-219 -852q66 92 104.5 143t96 110.5t114 86t119.5 26.5q72 0 114 -41t42 -112q0 -61 -62 -250l-118 -365q-6 -18 -7 -24q0 -10 12.5 -21.5t22.5 -11.5q35 0 154 170l45 -31q-102 -158 -175 -218 t-167 -60q-59 0 -97 32.5t-38 85.5q0 70 26.5 167.5t94.5 295.5q18 51 26 78q23 63 23 68q10 31 10 47t-13.5 29.5t-31.5 13.5q-80 0 -207 -183q-78 -113 -125 -229.5t-125 -386.5h-248z" />
<glyph unicode="i" horiz-adv-x="569" d="M4 111q0 49 27 141l119 440q14 61 14 82q0 33 -27.5 46.5t-93.5 13.5v55q238 18 414 57l-187 -684q-18 -74 -18 -106q0 -12 9 -21.5t22 -9.5q49 0 131 123l28 41l45 -29q-109 -162 -179 -220t-163 -58q-63 0 -102 36t-39 93zM262 1268q0 53 41 94t94 41q57 0 99.5 -41 t42.5 -98.5t-41 -97.5t-101 -40q-57 0 -96 41.5t-39 100.5z" />
<glyph unicode="j" horiz-adv-x="569" d="M-387 -266q0 45 29.5 76.5t70.5 31.5t71 -29.5t30 -70.5q0 -27 -15.5 -49.5t-15.5 -28.5q0 -8 16.5 -16t32.5 -8q43 0 75 57t70 211l189 727q25 102 24 135q0 39 -24.5 51.5t-102.5 12.5v55q279 25 426 57l-233 -897q-123 -473 -428 -473q-96 0 -155.5 44t-59.5 114z M295 1268q0 53 41 94t94 41q57 0 99 -41t42 -98.5t-41 -97.5t-100 -40q-57 0 -96 41.5t-39 100.5z" />
<glyph unicode="k" horiz-adv-x="1024" d="M-47 0l319 1161q16 61 17 86q0 70 -86 70q-27 0 -43 -2v55q199 20 426 62l-252 -943q195 154 265.5 223.5t70.5 108.5q0 25 -22.5 34t-82.5 13v52h424v-52q-70 -8 -121 -36.5t-155 -118.5l-129 -113q57 -299 86.5 -385t72.5 -86q29 0 57.5 29.5t69.5 101.5l45 -22 q-78 -139 -140 -196.5t-138 -57.5q-96 0 -150.5 98t-101.5 358l-80 -55l-102 -385h-250z" />
<glyph unicode="l" horiz-adv-x="569" d="M4 104q0 72 70 324l151 541q70 233 70 290.5t-86 57.5q-20 0 -43 -2v55q221 20 428 62l-297 -1072q-45 -168 -45 -204q0 -12 9 -21.5t22 -9.5q49 0 159 164l45 -29q-106 -162 -178.5 -220t-167.5 -58q-61 0 -99 33.5t-38 88.5z" />
<glyph unicode="m" horiz-adv-x="1593" d="M-29 0l138 487q72 252 71 293q0 53 -94 54h-16v55q260 20 409 55l-131 -407q63 98 102 152t99.5 124t121 101.5t124 31.5t100.5 -37t37 -102q0 -74 -53 -213q129 203 215 277.5t190 74.5q68 0 113 -42t45 -103q0 -84 -47 -219l-92 -273q-43 -127 -43 -151v-4v-4 q0 -10 9 -19.5t23 -9.5q43 0 142 155l45 -26q-90 -152 -162 -210t-166 -58q-137 0 -137 129q0 102 73 313l93 268q14 47 14 62q0 16 -14.5 29.5t-32.5 13.5q-94 0 -229 -238q-55 -94 -85 -176t-122 -383h-246l133 424q92 285 92 326q0 20 -11 33.5t-28 13.5q-20 0 -58 -28 t-73 -67q-86 -104 -153.5 -258.5t-147.5 -443.5h-248z" />
<glyph unicode="n" horiz-adv-x="1138" d="M-12 0l114 418q94 332 95 364q0 29 -22.5 39t-88.5 13v55q188 6 410 55l-131 -405q160 236 247.5 321.5t208.5 85.5q72 0 111 -40t39 -113q0 -72 -53 -236l-74 -223q-51 -154 -51 -178q0 -35 28 -35q27 0 54.5 30.5t89.5 124.5l45 -26q-88 -150 -162 -209t-164 -59 q-63 0 -101 32.5t-38 89.5q0 96 57 269l113 340q10 35 10 43q0 16 -16.5 29.5t-34.5 13.5q-29 0 -70 -30t-72 -71q-94 -123 -158.5 -276.5t-137.5 -421.5h-248z" />
<glyph unicode="o" horiz-adv-x="1024" d="M-6 276q0 258 181 464t407 206q139 0 230 -87t91 -222q0 -260 -177 -462t-407 -202q-141 0 -233 86t-92 217zM238 160q0 -57 26.5 -92t73.5 -35q76 0 141.5 94t102 224t57 244t20.5 173q0 55 -25.5 87t-70.5 32q-90 0 -168 -132t-117.5 -297t-39.5 -298z" />
<glyph unicode="p" horiz-adv-x="1024" d="M-246 -365h13q63 0 89.5 29t51.5 123l205 795q45 170 45 200q0 29 -20.5 38t-90.5 14v55q113 12 395 57l-77 -235q90 127 164.5 181t162.5 54q102 0 161.5 -67.5t59.5 -180.5q0 -266 -180 -495.5t-387 -229.5q-51 0 -139 45l-25 -84q-51 -193 -51 -231q0 -37 28.5 -51 t104.5 -17v-55h-510v55zM231 119q0 -31 24 -52.5t56 -21.5q74 0 141.5 83t110.5 194.5t68.5 216t25.5 157.5q0 47 -23.5 76t-62.5 29q-27 0 -52 -10.5t-45.5 -32t-39 -43t-35 -56t-29 -58t-24.5 -61.5t-18 -55.5t-15.5 -50.5t-9.5 -35q-72 -241 -72 -280z" />
<glyph unicode="q" horiz-adv-x="1024" d="M2 240q0 150 82 314.5t216 278t265 113.5q43 0 71 -11t42 -37t20.5 -45t12.5 -54l30 121h224q-129 -477 -174 -623q-164 -547 -164 -604.5t104 -57.5h29v-55h-547v55q96 4 129 27t55 102l129 437q-80 -125 -149.5 -176.5t-161.5 -51.5q-98 0 -155.5 72t-57.5 195z M258 238q0 -117 80 -117q88 0 169 137t120 282.5t39 219.5q0 51 -24 74.5t-54 23.5q-68 0 -147 -110.5t-131 -258t-52 -251.5z" />
<glyph unicode="r" horiz-adv-x="796" d="M-43 0q209 705 209 782q0 29 -20.5 38t-90.5 14v55q268 23 410 57l-135 -428q121 244 196.5 336t153.5 92q53 0 85 -37t32 -98q0 -66 -35 -107.5t-86 -41.5q-41 0 -79 38.5t-44 38.5q-45 0 -123 -138t-158 -388q-8 -31 -67 -213h-248z" />
<glyph unicode="s" horiz-adv-x="796" d="M-39 -27l45 340l55 -6q43 -272 197 -272q49 0 83 31.5t34 78.5q0 49 -44 115t-95.5 124t-95.5 141t-44 163q0 117 75 187.5t200 70.5q45 0 109.5 -22.5t82.5 -22.5q23 0 33 7t27 36h59l-47 -313l-55 4q-25 127 -68 185.5t-113 58.5q-49 0 -78.5 -30t-29.5 -79 q0 -43 44 -107.5t96 -124t96 -141.5t44 -153q0 -115 -87 -193t-216 -78q-53 0 -115.5 20.5t-76.5 20.5q-45 0 -60 -41h-55z" />
<glyph unicode="t" horiz-adv-x="569" d="M-23 115q0 63 50 231l139 488h-105v71q121 47 207 117t168 195h72l-80 -297h147v-86h-169l-68 -242q-111 -395 -111 -436q0 -10 10.5 -20.5t22.5 -10.5q51 0 156 164l45 -29q-102 -158 -175 -218t-165 -60q-63 0 -103.5 37t-40.5 96z" />
<glyph unicode="u" horiz-adv-x="1138" d="M31 133q0 74 43 221l82 273q29 92 28 149q0 31 -22.5 42t-91.5 16v55q123 4 428 57l-193 -631q-31 -102 -31 -135q0 -51 43 -51q57 0 150 113q88 111 146.5 247t144.5 431h241l-159 -549q-51 -176 -52 -207v-3v-5q0 -35 29 -35q47 0 148 151l43 -26q-154 -264 -330 -264 q-133 0 -133 122q0 76 49 226q-158 -221 -232.5 -284.5t-177.5 -63.5q-153 -1 -153 151z" />
<glyph unicode="v" horiz-adv-x="909" d="M33 834v55q203 29 317 57q33 -125 45.5 -256t18.5 -428q152 172 205 252t53 133q0 23 -45 81t-45 99q0 47 34.5 83t79.5 36q47 0 86 -42t39 -95q0 -137 -137 -335t-457 -501h-53l8 279q2 43 2 84q0 145 -8 242.5t-18.5 147.5t-34 74.5t-39.5 29t-51 4.5z" />
<glyph unicode="w" horiz-adv-x="1366" d="M33 834v55q244 41 317 57q59 -221 68 -563l319 563h56l65 -680q244 287 244 371q0 27 -42 88t-42 98q0 49 34.5 86t80.5 37q49 0 86.5 -38t37.5 -89q0 -256 -557 -846h-55l-47 584l-39 -72q-172 -307 -192 -335l-117 -177h-55q0 43 1 79t2 52.5t1 30.5q0 18 -4 172 q-10 451 -76 510q-18 17 -86 17z" />
<glyph unicode="x" horiz-adv-x="1024" d="M-94 94q0 47 32.5 81t79.5 34q31 0 72 -21.5t53 -21.5q27 0 47.5 17.5t51.5 66.5l90 143l-62 316q-16 76 -40.5 106.5t-73.5 30.5q-29 0 -72 -4v55l342 49q47 -70 92 -282q123 170 187.5 226t136.5 56q47 0 83 -38t36 -89q0 -43 -34 -74.5t-81 -31.5q-23 0 -64 20.5 t-53 20.5q-29 0 -59.5 -26t-51 -52.5t-46 -67.5t-31.5 -49l65 -319q23 -109 76 -109q27 0 52.5 21.5t84.5 99.5l43 -29q-94 -135 -164.5 -192.5t-144.5 -57.5q-82 0 -124 77t-75 241l-49 -80q-88 -147 -139 -192.5t-129 -45.5q-57 0 -94 34t-37 87z" />
<glyph unicode="y" horiz-adv-x="909" d="M-193 -297q0 45 31 79t72 34q45 0 110.5 -36t81.5 -36q55 0 122 86t67 162q0 113 -74 461t-127 378q-18 10 -61 11v55q172 16 305 49q76 -199 135 -567l25 -154q106 205 142 290t36 130q0 25 -17.5 45.5t-39 31.5t-39 38.5t-17.5 66.5q0 47 35 83t82 36q51 0 89 -39 t38 -92q0 -94 -83 -297t-205 -412.5t-283.5 -367.5t-297.5 -158q-53 0 -90 36t-37 87z" />
<glyph unicode="z" horiz-adv-x="796" d="M-88 -2l598 725h-297q-47 0 -74.5 -27.5t-54.5 -97.5l-57 6l88 316h639v-21l-576 -686q84 -37 138.5 -94.5t72 -103.5t43 -80.5t62.5 -34.5q18 0 31.5 9t13.5 23q0 8 -20.5 39t-20.5 56q0 43 30.5 74.5t71.5 31.5q43 0 76 -31.5t33 -74.5q0 -78 -63.5 -132.5 t-158.5 -54.5q-78 0 -161.5 43t-151.5 85t-104 42q-29 0 -107 -57z" />
<glyph unicode="{" horiz-adv-x="712" d="M10 510q137 29 194.5 78t86.5 160l94 366q43 168 152.5 229.5t355.5 61.5l-6 -25q-125 -23 -188.5 -80t-94.5 -174l-92 -350q-35 -131 -97.5 -184t-211.5 -82q115 -31 151.5 -61.5t36.5 -94.5q0 -57 -60.5 -271t-60.5 -282q0 -70 38 -106.5t128 -52.5l-6 -25 q-197 4 -285 40t-88 146q0 82 62.5 295t62.5 269q0 53 -39 85.5t-133 57.5z" />
<glyph unicode="|" horiz-adv-x="450" d="M135 -37v1440h180v-1440h-180z" />
<glyph unicode="}" horiz-adv-x="712" d="M-264 -383l6 25q125 23 188.5 80t94.5 174l92 350q35 131 97 184t212 82q-115 31 -151.5 61.5t-36.5 94.5q0 59 60 276t60 279q0 68 -38.5 104.5t-126.5 52.5l6 25q188 -4 280 -39t92 -141q0 -86 -62.5 -299t-62.5 -271q0 -53 39 -85.5t133 -57.5q-137 -31 -194 -79 t-86 -159l-94 -366q-47 -168 -155.5 -229.5t-352.5 -61.5z" />
<glyph unicode="~" horiz-adv-x="1167" d="M111 506q98 172 247 172q88 0 247 -69.5t200 -69.5q68 0 139 92l113 -99q-72 -96 -127.5 -135t-124.5 -39q-88 0 -219 70t-226 70q-45 0 -74.5 -18.5t-66.5 -67.5z" />
<glyph unicode="&#xa1;" horiz-adv-x="796" d="M658 862q0 -66 -43 -109.5t-107 -43.5q-57 0 -103 47t-46 106.5t44 102.5t107.5 43t105.5 -41.5t42 -104.5zM453 547q-31 -156 -53.5 -307.5t-32.5 -240.5t-21.5 -172t-20.5 -123t-27.5 -72.5t-46 -42t-72.5 -9.5q-63 0 -102.5 41t-39.5 109q0 61 33 126.5t127 255 t197 451.5z" />
<glyph unicode="&#xa2;" horiz-adv-x="1024" d="M86 283q0 248 183.5 455.5t400.5 207.5q20 0 57 -6l84 240h72l-92 -260q109 -59 108 -162q0 -59 -38 -99.5t-95 -40.5q-39 0 -72 23l-188 -535q121 6 242 183l55 -37q-96 -139 -168 -195.5t-174 -76.5l-96 -273h-70l94 266q-145 10 -224 91.5t-79 218.5zM346 301 q0 -133 92 -184l256 729v6q0 27 -45 27q-68 0 -127 -72t-96 -170t-58.5 -190.5t-21.5 -145.5z" />
<glyph unicode="&#xa3;" horiz-adv-x="1024" d="M-66 154q0 80 54.5 129t142.5 49q59 0 125 -29q4 41 39 332h-223l20 123h215q131 641 514 641q96 0 159.5 -53.5t63.5 -133.5q0 -57 -35.5 -98t-88.5 -41q-47 0 -78 30t-31 75q0 25 7 62.5t7 45.5q0 18 -14 30.5t-35 12.5q-92 0 -123 -158l-80 -413h234l-21 -123h-235 q-45 -205 -131 -346l-23 -35q170 -66 256 -66q74 0 112 27t73 102h51q-72 -342 -309 -342q-117 0 -261 125q-78 -123 -200 -123q-82 0 -133.5 49.5t-51.5 127.5zM-4 143q0 -47 31.5 -75.5t83.5 -28.5q88 0 120 145q-63 61 -131 62q-47 0 -75.5 -28t-28.5 -75z" />
<glyph unicode="&#xa4;" horiz-adv-x="1024" d="M-53 188l200 201q-76 111 -75.5 246t75.5 250l-200 200l119 115l196 -196q115 72 250 71.5t250 -71.5l196 196l119 -115l-200 -200q76 -121 75 -250q0 -141 -75 -246l200 -201l-119 -118l-196 200q-119 -76 -250 -75.5t-250 75.5l-196 -200zM252 635q0 -115 75.5 -194 t184.5 -79q106 0 183 80t77 189q0 115 -75.5 195.5t-184.5 80.5t-184.5 -78.5t-75.5 -193.5z" />
<glyph unicode="&#xa5;" horiz-adv-x="1024" d="M68 336l28 102h289l45 160h-291l29 102h256l-162 490q-31 78 -57.5 99.5t-110.5 29.5v51h574v-51q-88 -4 -121 -17.5t-33 -48.5q0 -29 12 -65l164 -483l277 397q53 78 53 123q0 53 -28.5 71.5t-114.5 22.5v51h409v-51q-61 -12 -101 -41t-89 -100l-340 -478h276l-26 -102 h-308l-43 -160h312l-29 -102h-311l-6 -23q-33 -117 -33 -174q0 -49 31.5 -66.5t134.5 -21.5v-51h-660v51q119 8 159 34t64 114l39 137h-288z" />
<glyph unicode="&#xa6;" horiz-adv-x="450" d="M135 -37v531h180v-531h-180zM135 872v531h180v-531h-180z" />
<glyph unicode="&#xa7;" horiz-adv-x="1024" d="M74 -78q0 53 33.5 88t85.5 35q49 0 81.5 -28.5t32.5 -73.5q0 -37 -18.5 -62.5t-35.5 -40t-17 -26.5q0 -23 41.5 -41.5t95.5 -18.5q76 0 126 44t50 112q0 51 -31 101t-139 184l-135 163q-104 125 -105 254q0 106 62.5 182t150.5 76q51 0 101 -12l4 6q-113 125 -113 264 q0 121 89 198t229 77q121 0 199.5 -56.5t78.5 -144.5q0 -53 -34 -89t-85 -36q-45 0 -78.5 33t-33.5 78q0 37 36.5 70.5t36.5 41.5q0 23 -36.5 40.5t-83.5 17.5q-76 0 -125.5 -42t-49.5 -108q0 -88 140 -252l141 -165q123 -145 123 -293q0 -102 -70.5 -176t-169.5 -74 q-29 0 -61 8l-4 -8q121 -152 121 -266.5t-97.5 -194.5t-238.5 -80q-125 0 -211 62.5t-86 152.5zM285 700q0 -82 120.5 -239.5t219.5 -157.5q47 0 83.5 36t36.5 83q0 102 -128 249.5t-218 147.5q-47 0 -80.5 -35t-33.5 -84z" />
<glyph unicode="&#xa8;" horiz-adv-x="681" d="M113 1206q0 55 38.5 95t92.5 40q55 0 95 -39.5t40 -95.5q0 -51 -41 -91t-94 -40q-51 0 -91 40t-40 91zM547 1206q0 55 39 95t92 40q55 0 95 -39.5t40 -95.5q0 -51 -41 -91t-94 -40q-51 0 -91 40t-40 91z" />
<glyph unicode="&#xa9;" horiz-adv-x="1529" d="M61 680q0 303 205 513t500 210t499.5 -209t204.5 -510q0 -307 -204.5 -514t-509.5 -207q-287 0 -491 210t-204 507zM186 682q0 -254 170 -439.5t402 -185.5q246 0 417 182.5t171 444.5q0 254 -171 439.5t-409 185.5t-409 -184.5t-171 -442.5zM369 686q0 188 126 302 t334 114q82 0 166 -23.5t84 -56.5v-145h-35q-41 184 -225 184q-131 0 -203.5 -94.5t-72.5 -266.5q0 -176 73.5 -271t208.5 -95q88 0 147.5 42t104.5 136h37l-35 -147q-4 -23 -24 -29q-115 -49 -244 -49q-207 0 -324.5 106.5t-117.5 292.5z" />
<glyph unicode="&#xaa;" horiz-adv-x="544" d="M33 975q0 147 120.5 287.5t247.5 140.5q76 0 97 -92l22 73l156 9l-94 -287q-45 -133 -45 -182q0 -18 10 -19q6 0 18.5 8.5t24.5 20.5t23.5 24.5t19.5 22.5l8 10l27 -18q-111 -156 -199 -156q-35 0 -62.5 23.5t-27.5 54.5q0 29 22 104q-57 -100 -107 -140t-118 -40 q-63 0 -103 43t-40 113zM193 969q0 -23 14 -40.5t35 -17.5q76 0 140 147.5t64 231.5q0 33 -15 45.5t-30 12.5q-53 0 -130.5 -140.5t-77.5 -238.5z" />
<glyph unicode="&#xab;" horiz-adv-x="1024" d="M25 444v19l348 254q49 35 90 71.5t58.5 49t31.5 12.5q10 0 18.5 -7t8.5 -18q0 -61 -207 -274l-92 -100l81 -170q68 -137 68 -185q0 -12 -9 -21t-22 -9q-4 0 -9 4t-17.5 15t-27.5 27.5t-46 48.5t-64.5 67.5t-90 94t-119.5 121.5zM403 444v19l349 254q49 35 90 71.5 t58.5 49t31.5 12.5q10 0 18 -7t8 -18q0 -61 -206 -274l-93 -100l82 -170q68 -137 68 -185q0 -12 -9 -21t-22 -9q-4 0 -9 4t-17.5 15t-27.5 27.5t-46 48.5t-64.5 67.5t-90.5 94t-120 121.5z" />
<glyph unicode="&#xac;" horiz-adv-x="1241" d="M104 637v180h1033v-596h-181v416h-852z" />
<glyph unicode="&#xad;" horiz-adv-x="681" d="M4 340l49 238h502l-47 -238h-504z" />
<glyph unicode="&#xae;" horiz-adv-x="1529" d="M61 680q0 303 205 513t500 210t499.5 -209t204.5 -510q0 -307 -204.5 -514t-509.5 -207q-287 0 -491 210t-204 507zM186 682q0 -254 170 -439.5t402 -185.5q246 0 417 182.5t171 444.5q0 254 -171 439.5t-409 185.5t-409 -184.5t-171 -442.5zM430 309v33q72 8 84 20.5 t12 77.5v510q0 66 -12 77t-84 20v32h375q111 0 175 -52t64 -142q0 -152 -165 -213l120 -168q92 -125 152 -172v-23h-143q-18 0 -37 14.5t-40.5 46t-42 67.5t-56 97.5t-70.5 114.5h-90v-209q0 -66 12 -78t86 -20v-33h-340zM672 690h84q66 0 102.5 49t36.5 138q0 160 -141 159 h-82v-346z" />
<glyph unicode="&#xaf;" horiz-adv-x="681" d="M104 1133l35 143h666l-33 -143h-668z" />
<glyph unicode="&#xb0;" horiz-adv-x="819" d="M352 1106q0 123 85 208t208 85t208 -85t85 -208q0 -125 -85 -209t-212 -84q-119 0 -204 86t-85 207zM436 1106q0 -90 61.5 -154.5t145.5 -64.5q88 0 149.5 64.5t61.5 154.5q0 88 -62.5 153.5t-146.5 65.5q-86 0 -147.5 -64.5t-61.5 -154.5z" />
<glyph unicode="&#xb1;" horiz-adv-x="1167" d="M68 0v180h1032v-180h-1032zM68 555v180h426v428h180v-428h426v-180h-426v-293h-180v293h-426z" />
<glyph unicode="&#xb2;" horiz-adv-x="614" d="M221 561v33q293 279 365 367q82 104 82 178q0 63 -33 99t-88 36q-80 0 -168 -98l-37 22q109 201 295 201q92 0 156.5 -59.5t64.5 -143.5q0 -74 -43 -139.5t-145 -147.5l-256 -207h182q76 0 110.5 17.5t73.5 75.5h33l-104 -234h-488z" />
<glyph unicode="&#xb3;" horiz-adv-x="614" d="M231 645q0 37 21.5 60.5t54.5 23.5q49 0 89 -59.5t87 -59.5q59 0 101.5 54.5t42.5 134.5q0 178 -205 186l4 29q248 45 248 174q0 49 -31 77.5t-82 28.5q-78 0 -153 -86l-29 27q117 164 272 164q86 0 144.5 -48t58.5 -118q0 -59 -30.5 -94t-131.5 -92q59 -41 83 -81 t24 -100q0 -133 -116 -228t-277 -95q-82 0 -128.5 27.5t-46.5 74.5z" />
<glyph unicode="&#xb4;" horiz-adv-x="681" d="M285 1057l250 268q94 102 143 102q39 0 68.5 -28.5t29.5 -67.5q0 -29 -17.5 -49t-62.5 -47l-311 -178h-100z" />
<glyph unicode="&#xb5;" horiz-adv-x="1179" d="M-123 -299q0 39 9.5 77t23.5 72.5t49 120.5t70 181l227 768h276l-190 -639q-14 -51 -14 -86q0 -51 39 -52q63 0 159.5 137.5t149.5 303.5l104 336h277l-213 -689q-10 -35 -10 -55q0 -29 24 -29q43 0 129 127l43 -32q-51 -70 -78.5 -104t-74 -80t-92.5 -65.5t-97 -19.5 q-55 0 -92 37t-37 92q0 45 23 140q-82 -137 -138.5 -189.5t-128.5 -52.5q-59 0 -127 49q-43 -135 -47 -270q0 -109 -49 -156t-112 -47q-103 0 -103 125z" />
<glyph unicode="&#xb6;" horiz-adv-x="1024" d="M-117 -395l15 51q125 10 152.5 33.5t55.5 138.5q6 20 9 33l174 667q-141 4 -219 64.5t-78 202.5q0 117 45 242.5t110 197.5q127 135 400 135h604l-12 -51q-125 -10 -151.5 -27.5t-49.5 -101.5l-346 -1329q-33 -147 -33 -152q0 -37 103 -49q6 0 47 -4l-15 -51h-350 l444 1714h-112l-445 -1714h-348zM154 807q0 -166 147 -227l193 739q-98 -25 -147.5 -58.5t-94.5 -105.5q-43 -72 -70.5 -169t-27.5 -179z" />
<glyph unicode="&#xb7;" horiz-adv-x="512" d="M256 444q0 59 50 109.5t114 50.5q47 0 77.5 -30.5t30.5 -77.5q0 -66 -54 -112t-112 -46q-45 0 -75.5 30.5t-30.5 75.5z" />
<glyph unicode="&#xb8;" horiz-adv-x="681" d="M-164 -395l45 67q76 -35 137 -34q53 0 84 22.5t31 60.5q0 35 -25.5 54.5t-70.5 19.5q-29 0 -62 -8l-26 25l135 198h90l-92 -137q31 6 53 6q80 0 132 -42t52 -105q0 -76 -72.5 -127t-180.5 -51q-105 0 -230 51z" />
<glyph unicode="&#xb9;" horiz-adv-x="557" d="M211 561v39q39 0 66.5 7t44 15.5t31 36t20.5 45t20.5 65.5t24.5 79q123 365 123 405q0 12 -12.5 28.5t-41.5 16.5q-4 0 -65 -4l-23 -2l4 43q211 33 363 64l-205 -676q-12 -37 -12 -69.5t22.5 -43t98.5 -10.5v-39h-459z" />
<glyph unicode="&#xba;" horiz-adv-x="614" d="M115 1001q0 154 118.5 278t264.5 124q94 0 153.5 -53.5t59.5 -137.5q0 -135 -111 -264t-268 -129q-94 0 -155.5 52t-61.5 130zM281 932q0 -72 57 -72q59 0 110.5 91t74 188.5t22.5 150.5q0 72 -56 72q-61 0 -111 -88t-73.5 -185.5t-23.5 -156.5z" />
<glyph unicode="&#xbb;" horiz-adv-x="1024" d="M25 90q0 61 206 275l93 100l-82 170q-68 141 -68 184q0 12 9.5 21.5t21.5 9.5q8 0 27.5 -20.5t119 -124t228.5 -234.5v-18l-349 -254q-45 -33 -86 -69t-59 -50t-35 -14q-10 0 -18 7t-8 17zM403 90q0 61 207 275l92 100l-81 170q-68 141 -68 184q0 12 9 21.5t22 9.5 q8 0 27.5 -20.5t118.5 -124t228 -234.5v-18l-348 -254q-45 -33 -86 -69t-59.5 -50t-34.5 -14q-10 0 -18.5 7t-8.5 17z" />
<glyph unicode="&#xbc;" horiz-adv-x="1536" d="M76 561v39q39 0 66.5 7t44 15.5t30.5 36t20.5 45t20.5 65.5t25 79q123 356 123 407q0 16 -16.5 29.5t-37.5 13.5q-8 0 -65 -4l-23 -2l4 43q211 33 363 64l-205 -676q-12 -37 -12 -69.5t22.5 -43t98.5 -10.5v-39h-459zM340 -29l891 1428h119l-891 -1428h-119zM842 180 l32 137l570 523h94l-160 -535h92l-34 -125h-90l-58 -180h-176l55 180h-325zM932 305h270l107 348z" />
<glyph unicode="&#xbd;" horiz-adv-x="1536" d="M84 561v39q39 0 66.5 7t44 15.5t31 36t20.5 45t20.5 65.5t24.5 79q123 356 123 407q0 16 -16.5 29.5t-37.5 13.5q-8 0 -65 -4l-23 -2l4 43q211 33 363 64l-205 -676q-12 -37 -12 -69.5t22.5 -43t98.5 -10.5v-39h-459zM350 -29l891 1428h119l-891 -1428h-119zM946 0v33 q293 279 365 366q82 104 82 179q0 63 -33 99t-88 36q-80 0 -168 -99l-37 23q109 201 295 201q92 0 156.5 -59.5t64.5 -143.5q0 -74 -43 -139.5t-145 -147.5l-256 -207h182q76 0 110.5 17.5t73.5 74.5h33l-104 -233h-488z" />
<glyph unicode="&#xbe;" horiz-adv-x="1536" d="M98 645q0 37 21.5 60.5t54.5 23.5q41 0 65 -30l47 -59q24 -30 62 -30q61 0 103.5 54.5t42.5 132.5q0 180 -205 188l4 29q248 45 248 174q0 49 -31 77.5t-82 28.5q-78 0 -154 -86l-28 27q117 164 272 164q86 0 144.5 -48t58.5 -118q0 -59 -31 -93t-131 -93q59 -41 83 -81 t24 -100q0 -133 -115 -228t-277 -95q-82 0 -129 27.5t-47 74.5zM373 -29l891 1428h118l-890 -1428h-119zM874 180l33 137l570 523h94l-160 -535h92l-35 -125h-90l-57 -180h-176l55 180h-326zM965 305h270l106 348z" />
<glyph unicode="&#xbf;" horiz-adv-x="1024" d="M862 856.5q0 -63.5 -44 -107.5t-109 -44q-61 0 -105.5 45t-44.5 106q0 63 44 107.5t110 44.5q63 0 106 -44t43 -107.5zM780 -156q0 -115 -101 -189.5t-257 -74.5q-162 0 -261.5 82t-99.5 215q0 96 60.5 178t197.5 170l136 88q59 39 92 87.5t76 154.5l59 -14 q-12 -156 -145 -326l-84 -104q-131 -164 -131 -304q0 -76 37.5 -119.5t103.5 -43.5q49 0 88 24.5t39 52.5q0 10 -30 56.5t-30 83.5q0 49 37 85t88 36q53 0 89 -40.5t36 -97.5z" />
<glyph unicode="&#xc0;" horiz-adv-x="1366" d="M-137 0v51q55 12 89 40t81 104l762 1204h51l196 -1172q20 -117 45 -142.5t127 -33.5v-51h-622v51q98 10 130 34t32 87q0 4 -31 254h-440l-121 -209q-31 -53 -31 -94q0 -72 133 -72v-51h-401zM330 508h379l-76 498zM524 1751q0 37 27.5 64.5t64.5 27.5q61 0 115 -69 l227 -301h-92l-272 182q-70 47 -70 96z" />
<glyph unicode="&#xc1;" horiz-adv-x="1366" d="M-137 0v51q55 12 89 40t81 104l762 1204h51l196 -1172q20 -117 45 -142.5t127 -33.5v-51h-622v51q98 10 130 34t32 87q0 4 -31 254h-440l-121 -209q-31 -53 -31 -94q0 -72 133 -72v-51h-401zM330 508h379l-76 498zM666 1473l250 268q94 102 143 102q39 0 68.5 -28.5 t29.5 -67.5q0 -29 -17.5 -49t-62.5 -47l-311 -178h-100z" />
<glyph unicode="&#xc2;" horiz-adv-x="1366" d="M-137 0v51q55 12 89 40t81 104l762 1204h51l196 -1172q20 -117 45 -142.5t127 -33.5v-51h-622v51q98 10 130 34t32 87q0 4 -31 254h-440l-121 -209q-31 -53 -31 -94q0 -72 133 -72v-51h-401zM330 508h379l-76 498zM467 1481l328 356h165l177 -356h-105l-180 194 l-268 -194h-117z" />
<glyph unicode="&#xc3;" horiz-adv-x="1366" d="M-137 0v51q55 12 89 40t81 104l762 1204h51l196 -1172q20 -117 45 -142.5t127 -33.5v-51h-622v51q98 10 130 34t32 87q0 4 -31 254h-440l-121 -209q-31 -53 -31 -94q0 -72 133 -72v-51h-401zM330 508h379l-76 498zM506 1487q43 111 121.5 176t166.5 65q66 0 165.5 -43 t125.5 -43q35 0 62.5 19.5t60.5 66.5h84q-61 -127 -130 -185t-161 -58q-47 0 -110 26l-111 47q-41 16 -76 17q-33 0 -59.5 -19.5t-56.5 -68.5h-82z" />
<glyph unicode="&#xc4;" horiz-adv-x="1366" d="M-137 0v51q55 12 89 40t81 104l762 1204h51l196 -1172q20 -117 45 -142.5t127 -33.5v-51h-622v51q98 10 130 34t32 87q0 4 -31 254h-440l-121 -209q-31 -53 -31 -94q0 -72 133 -72v-51h-401zM330 508h379l-76 498zM502 1591q0 55 38.5 95t92.5 40q55 0 95 -39.5t40 -95.5 q0 -51 -41 -91t-94 -40q-51 0 -91 40t-40 91zM936 1591q0 55 39 95t92 40q55 0 95 -39.5t40 -95.5q0 -51 -41 -91t-94 -40q-51 0 -91 40t-40 91z" />
<glyph unicode="&#xc5;" horiz-adv-x="1366" d="M-137 0v51q55 12 89 40t81 104l762 1204h51l196 -1172q20 -117 45 -142.5t127 -33.5v-51h-622v51q98 10 130 34t32 87q0 4 -31 254h-440l-121 -209q-31 -53 -31 -94q0 -72 133 -72v-51h-401zM330 508h379l-76 498zM658 1598q0 98 78.5 172t173.5 74q72 0 117.5 -47.5 t45.5 -116.5q0 -92 -76.5 -168t-175.5 -76q-74 0 -118.5 46t-44.5 116zM750 1616q0 -39 24.5 -63.5t63.5 -24.5q51 0 96 38t45 93q0 39 -25.5 66t-66.5 27q-47 0 -92 -41.5t-45 -94.5z" />
<glyph unicode="&#xc6;" horiz-adv-x="1933" d="M-131 0v51q16 4 22.5 4t17.5 4t14 6.5t13.5 9.5t13.5 12t16.5 19.5t21.5 24.5t26.5 33.5t34.5 44.5l750 967q41 55 41 90q0 29 -34 40t-132 17v47h1206l-92 -389l-49 10l-4 82q-12 231 -332 232q-66 0 -88.5 -12.5t-32.5 -53.5l-133 -481h39q156 0 226.5 42t131.5 175 l53 -8l-149 -559l-51 10l2 22q4 29 4 74q0 100 -51 134t-221 44l-129 -493q-10 -37 -11 -58q0 -76 119 -75q100 0 182 19t136.5 47t105.5 78t81 91t71 107l53 -7l-121 -401h-1079v51q80 12 108.5 38t50.5 108l95 325h-394l-233 -321q-31 -45 -31 -80q0 -33 29 -48.5 t102 -21.5v-51h-399zM461 602h354l189 682h-25z" />
<glyph unicode="&#xc7;" horiz-adv-x="1366" d="M66 494q0 373 246.5 641t588.5 268q109 0 218.5 -30t127.5 -30q41 0 78 60h61l-104 -479l-65 12q6 39 6 72q0 150 -72 236.5t-197 86.5q-162 0 -298 -153.5t-205.5 -358.5t-69.5 -391q0 -168 82 -262t225 -94q66 0 126 17t101 39t84 59.5t61.5 58t47.5 55.5q6 8 10 12 l62 -45q-223 -305 -557 -305q-61 0 -129 12l-70 -102q31 6 53 6q80 0 132.5 -42t52.5 -105q0 -76 -73 -127t-181 -51q-106 0 -230 51l45 67q76 -35 137 -34q53 0 84 22.5t31 60.5q0 35 -25.5 54.5t-70.5 19.5q-29 0 -62 -8l-26 25l125 184q-168 55 -259 185.5t-91 312.5z " />
<glyph unicode="&#xc8;" horiz-adv-x="1366" d="M-49 0v51q80 12 110.5 39t53.5 109l252 919q20 76 20 123q0 27 -17.5 42t-40 20.5t-77.5 13.5q-8 2 -14 2v51h1105l-88 -389l-55 10q0 78 -11 127t-48 96.5t-115 69t-203 21.5q-63 0 -87.5 -18.5t-41.5 -72.5l-125 -456h27q129 0 194.5 16.5t107.5 59.5t91 141l58 -8 l-152 -559l-57 10q8 51 8 90q0 106 -60.5 144t-234.5 40l-115 -428q0 -4 -15 -56t-15 -73q0 -70 124 -69q168 0 293 49t196 117.5t136 175.5l51 -11l-121 -397h-1134zM545 1751q0 37 27.5 64.5t64.5 27.5q61 0 115 -69l227 -301h-92l-272 182q-70 47 -70 96z" />
<glyph unicode="&#xc9;" horiz-adv-x="1366" d="M-49 0v51q80 12 110.5 39t53.5 109l252 919q20 76 20 123q0 27 -17.5 42t-40 20.5t-77.5 13.5q-8 2 -14 2v51h1105l-88 -389l-55 10q0 78 -11 127t-48 96.5t-115 69t-203 21.5q-63 0 -87.5 -18.5t-41.5 -72.5l-125 -456h27q129 0 194.5 16.5t107.5 59.5t91 141l58 -8 l-152 -559l-57 10q8 51 8 90q0 106 -60.5 144t-234.5 40l-115 -428q0 -4 -15 -56t-15 -73q0 -70 124 -69q168 0 293 49t196 117.5t136 175.5l51 -11l-121 -397h-1134zM672 1473l250 268q94 102 143 102q39 0 68.5 -28.5t29.5 -67.5q0 -29 -17.5 -49t-62.5 -47l-311 -178 h-100z" />
<glyph unicode="&#xca;" horiz-adv-x="1366" d="M-49 0v51q80 12 110.5 39t53.5 109l252 919q20 76 20 123q0 27 -17.5 42t-40 20.5t-77.5 13.5q-8 2 -14 2v51h1105l-88 -389l-55 10q0 78 -11 127t-48 96.5t-115 69t-203 21.5q-63 0 -87.5 -18.5t-41.5 -72.5l-125 -456h27q129 0 194.5 16.5t107.5 59.5t91 141l58 -8 l-152 -559l-57 10q8 51 8 90q0 106 -60.5 144t-234.5 40l-115 -428q0 -4 -15 -56t-15 -73q0 -70 124 -69q168 0 293 49t196 117.5t136 175.5l51 -11l-121 -397h-1134zM533 1481l328 356h165l177 -356h-105l-180 194l-268 -194h-117z" />
<glyph unicode="&#xcb;" horiz-adv-x="1366" d="M-49 0v51q80 12 110.5 39t53.5 109l252 919q20 76 20 123q0 27 -17.5 42t-40 20.5t-77.5 13.5q-8 2 -14 2v51h1105l-88 -389l-55 10q0 78 -11 127t-48 96.5t-115 69t-203 21.5q-63 0 -87.5 -18.5t-41.5 -72.5l-125 -456h27q129 0 194.5 16.5t107.5 59.5t91 141l58 -8 l-152 -559l-57 10q8 51 8 90q0 106 -60.5 144t-234.5 40l-115 -428q0 -4 -15 -56t-15 -73q0 -70 124 -69q168 0 293 49t196 117.5t136 175.5l51 -11l-121 -397h-1134zM529 1591q0 55 38.5 95t92.5 40q55 0 95 -39.5t40 -95.5q0 -51 -41 -91t-94 -40q-51 0 -91 40t-40 91z M963 1591q0 55 39 95t92 40q55 0 95 -39.5t40 -95.5q0 -51 -41 -91t-94 -40q-51 0 -91 40t-40 91z" />
<glyph unicode="&#xcc;" horiz-adv-x="796" d="M-49 0v51q76 10 109.5 39t54.5 109l252 919q20 74 20 125q0 39 -26.5 50.5t-122.5 25.5v51h610v-51q-80 -10 -114 -39t-54 -109l-234 -860q-37 -139 -36 -178q0 -43 30.5 -60.5t116.5 -21.5v-51h-606zM315 1751q0 37 27.5 64.5t64.5 27.5q61 0 115 -69l227 -301h-92 l-272 182q-70 47 -70 96z" />
<glyph unicode="&#xcd;" horiz-adv-x="796" d="M-49 0v51q76 10 109.5 39t54.5 109l252 919q20 74 20 125q0 39 -26.5 50.5t-122.5 25.5v51h610v-51q-80 -10 -114 -39t-54 -109l-234 -860q-37 -139 -36 -178q0 -43 30.5 -60.5t116.5 -21.5v-51h-606zM359 1473l250 268q94 102 143 102q39 0 68.5 -28.5t29.5 -67.5 q0 -29 -17.5 -49t-62.5 -47l-311 -178h-100z" />
<glyph unicode="&#xce;" horiz-adv-x="796" d="M-49 0v51q76 10 109.5 39t54.5 109l252 919q20 74 20 125q0 39 -26.5 50.5t-122.5 25.5v51h610v-51q-80 -10 -114 -39t-54 -109l-234 -860q-37 -139 -36 -178q0 -43 30.5 -60.5t116.5 -21.5v-51h-606zM207 1481l328 356h165l177 -356h-105l-180 194l-268 -194h-117z" />
<glyph unicode="&#xcf;" horiz-adv-x="796" d="M-49 0v51q76 10 109.5 39t54.5 109l252 919q20 74 20 125q0 39 -26.5 50.5t-122.5 25.5v51h610v-51q-80 -10 -114 -39t-54 -109l-234 -860q-37 -139 -36 -178q0 -43 30.5 -60.5t116.5 -21.5v-51h-606zM254 1595q0 55 38.5 95t92.5 40q55 0 95 -39.5t40 -95.5 q0 -51 -41 -91t-94 -40q-51 0 -91 40t-40 91zM688 1595q0 55 39 95t92 40q55 0 95 -39.5t40 -95.5q0 -51 -41 -91t-94 -40q-51 0 -91 40t-40 91z" />
<glyph unicode="&#xd0;" horiz-adv-x="1478" d="M-63 0v51q76 10 109.5 40t53.5 108l129 475h-209l25 90h209l94 348q25 96 25 121q0 47 -29 60.5t-121 25.5v51h594q291 0 454 -148.5t163 -410.5q0 -348 -260.5 -579.5t-651.5 -231.5h-585zM393 139q0 -70 111 -69q287 0 448 231q84 119 132.5 290t48.5 345 q0 371 -338 371q-92 0 -113 -78l-125 -465h250l-25 -90h-250l-112 -416q-2 -4 -2 -8q-25 -72 -25 -111z" />
<glyph unicode="&#xd1;" horiz-adv-x="1478" d="M-59 0v51q84 16 116.5 64.5t89.5 249.5l246 841q-29 68 -57.5 86.5t-112.5 26.5v51h400l440 -952l164 588q37 133 37 192t-37 86t-127 35v51h428v-51q-90 -20 -122 -66.5t-87 -246.5l-293 -1037h-57l-527 1125l-202 -729q-37 -137 -37 -193q0 -59 36.5 -86t127.5 -35v-51 h-426zM574 1485q43 111 121.5 176t166.5 65q66 0 165.5 -43t125.5 -43q35 0 62.5 19.5t60.5 66.5h84q-61 -127 -130 -185t-161 -58q-47 0 -110 26l-111 47q-41 16 -76 17q-33 0 -59.5 -19.5t-56.5 -68.5h-82z" />
<glyph unicode="&#xd2;" horiz-adv-x="1478" d="M55 453q0 147 65.5 313t177.5 308.5t276.5 235.5t345.5 93q213 0 354 -134t141 -339q0 -158 -64.5 -328t-175 -312.5t-279.5 -234.5t-357 -92q-217 0 -350.5 135.5t-133.5 354.5zM350 281q0 -115 56.5 -181.5t152.5 -66.5q160 0 297 198q102 152 183 412t81 444 q0 111 -57 178.5t-152 67.5q-193 0 -344 -268q-84 -147 -150.5 -386.5t-66.5 -397.5zM676 1751q0 37 27.5 64.5t64.5 27.5q61 0 115 -69l227 -301h-92l-272 182q-70 47 -70 96z" />
<glyph unicode="&#xd3;" horiz-adv-x="1478" d="M55 453q0 147 65.5 313t177.5 308.5t276.5 235.5t345.5 93q213 0 354 -134t141 -339q0 -158 -64.5 -328t-175 -312.5t-279.5 -234.5t-357 -92q-217 0 -350.5 135.5t-133.5 354.5zM350 281q0 -115 56.5 -181.5t152.5 -66.5q160 0 297 198q102 152 183 412t81 444 q0 111 -57 178.5t-152 67.5q-193 0 -344 -268q-84 -147 -150.5 -386.5t-66.5 -397.5zM787 1473l250 268q94 102 143 102q39 0 68.5 -28.5t29.5 -67.5q0 -29 -17.5 -49t-62.5 -47l-311 -178h-100z" />
<glyph unicode="&#xd4;" horiz-adv-x="1478" d="M55 453q0 147 65.5 313t177.5 308.5t276.5 235.5t345.5 93q213 0 354 -134t141 -339q0 -158 -64.5 -328t-175 -312.5t-279.5 -234.5t-357 -92q-217 0 -350.5 135.5t-133.5 354.5zM350 281q0 -115 56.5 -181.5t152.5 -66.5q160 0 297 198q102 152 183 412t81 444 q0 111 -57 178.5t-152 67.5q-193 0 -344 -268q-84 -147 -150.5 -386.5t-66.5 -397.5zM600 1481l328 356h165l177 -356h-105l-180 194l-268 -194h-117z" />
<glyph unicode="&#xd5;" horiz-adv-x="1478" d="M55 453q0 147 65.5 313t177.5 308.5t276.5 235.5t345.5 93q213 0 354 -134t141 -339q0 -158 -64.5 -328t-175 -312.5t-279.5 -234.5t-357 -92q-217 0 -350.5 135.5t-133.5 354.5zM350 281q0 -115 56.5 -181.5t152.5 -66.5q160 0 297 198q102 152 183 412t81 444 q0 111 -57 178.5t-152 67.5q-193 0 -344 -268q-84 -147 -150.5 -386.5t-66.5 -397.5zM619 1485q43 111 121.5 176t166.5 65q66 0 165.5 -43t125.5 -43q35 0 62.5 19.5t60.5 66.5h84q-61 -127 -130 -185t-161 -58q-47 0 -110 26l-111 47q-41 16 -76 17q-33 0 -59.5 -19.5 t-56.5 -68.5h-82z" />
<glyph unicode="&#xd6;" horiz-adv-x="1478" d="M55 453q0 147 65.5 313t177.5 308.5t276.5 235.5t345.5 93q213 0 354 -134t141 -339q0 -158 -64.5 -328t-175 -312.5t-279.5 -234.5t-357 -92q-217 0 -350.5 135.5t-133.5 354.5zM350 281q0 -115 56.5 -181.5t152.5 -66.5q160 0 297 198q102 152 183 412t81 444 q0 111 -57 178.5t-152 67.5q-193 0 -344 -268q-84 -147 -150.5 -386.5t-66.5 -397.5zM586 1589q0 55 38.5 95t92.5 40q55 0 95 -39.5t40 -95.5q0 -51 -41 -91t-94 -40q-51 0 -91 40t-40 91zM1020 1589q0 55 39 95t92 40q55 0 95 -39.5t40 -95.5q0 -51 -41 -91t-94 -40 q-51 0 -91 40t-40 91z" />
<glyph unicode="&#xd7;" horiz-adv-x="1167" d="M98 160l359 358l-359 359l127 127l359 -361l358 361l127 -127l-360 -359l360 -358l-127 -127l-358 360l-359 -360z" />
<glyph unicode="&#xd8;" horiz-adv-x="1478" d="M55 434q0 242 123 467t325 363.5t417 138.5q82 0 167 -27l109 189h100l-129 -222q248 -147 248 -415q0 -158 -65.5 -327t-177 -311.5t-278.5 -234.5t-349 -92q-88 0 -170 27l-144 -246h-98l162 279q-240 141 -240 411zM350 289q0 -68 23 -131l663 1132q-55 43 -129 43 q-188 0 -338 -266q-88 -158 -153.5 -389t-65.5 -389zM426 78q57 -45 133 -45q106 0 201.5 88t159 218t110.5 278.5t68.5 269.5t21.5 190q0 68 -28 137z" />
<glyph unicode="&#xd9;" horiz-adv-x="1478" d="M137 303q0 113 68 359l114 421q31 113 31 156q0 33 -18.5 48.5t-67.5 23.5q-6 0 -63 8v51h637v-51q-96 -4 -132 -31.5t-61 -116.5l-168 -614q-57 -209 -57 -272q0 -96 66.5 -151.5t183.5 -55.5q168 0 272 123q86 106 162 377l119 428q39 145 39 198t-38 80t-126 35v51 h426v-51q-86 -16 -119 -64.5t-90 -248.5l-135 -467q-2 -6 -16.5 -61.5t-22.5 -79t-28.5 -81t-42 -88t-54.5 -79t-73 -76t-91 -56t-116.5 -42t-141.5 -13.5q-201 0 -329 95t-128 245zM694 1751q0 37 27.5 64.5t64.5 27.5q61 0 115 -69l227 -301h-92l-272 182q-70 47 -70 96z " />
<glyph unicode="&#xda;" horiz-adv-x="1478" d="M137 303q0 113 68 359l114 421q31 113 31 156q0 33 -18.5 48.5t-67.5 23.5q-6 0 -63 8v51h637v-51q-96 -4 -132 -31.5t-61 -116.5l-168 -614q-57 -209 -57 -272q0 -96 66.5 -151.5t183.5 -55.5q168 0 272 123q86 106 162 377l119 428q39 145 39 198t-38 80t-126 35v51 h426v-51q-86 -16 -119 -64.5t-90 -248.5l-135 -467q-2 -6 -16.5 -61.5t-22.5 -79t-28.5 -81t-42 -88t-54.5 -79t-73 -76t-91 -56t-116.5 -42t-141.5 -13.5q-201 0 -329 95t-128 245zM738 1473l250 268q94 102 143 102q39 0 68.5 -28.5t29.5 -67.5q0 -29 -17.5 -49t-62.5 -47 l-311 -178h-100z" />
<glyph unicode="&#xdb;" horiz-adv-x="1478" d="M137 303q0 113 68 359l114 421q31 113 31 156q0 33 -18.5 48.5t-67.5 23.5q-6 0 -63 8v51h637v-51q-96 -4 -132 -31.5t-61 -116.5l-168 -614q-57 -209 -57 -272q0 -96 66.5 -151.5t183.5 -55.5q168 0 272 123q86 106 162 377l119 428q39 145 39 198t-38 80t-126 35v51 h426v-51q-86 -16 -119 -64.5t-90 -248.5l-135 -467q-2 -6 -16.5 -61.5t-22.5 -79t-28.5 -81t-42 -88t-54.5 -79t-73 -76t-91 -56t-116.5 -42t-141.5 -13.5q-201 0 -329 95t-128 245zM604 1481l328 356h165l177 -356h-105l-180 194l-268 -194h-117z" />
<glyph unicode="&#xdc;" horiz-adv-x="1478" d="M137 303q0 113 68 359l114 421q31 113 31 156q0 33 -18.5 48.5t-67.5 23.5q-6 0 -63 8v51h637v-51q-96 -4 -132 -31.5t-61 -116.5l-168 -614q-57 -209 -57 -272q0 -96 66.5 -151.5t183.5 -55.5q168 0 272 123q86 106 162 377l119 428q39 145 39 198t-38 80t-126 35v51 h426v-51q-86 -16 -119 -64.5t-90 -248.5l-135 -467q-2 -6 -16.5 -61.5t-22.5 -79t-28.5 -81t-42 -88t-54.5 -79t-73 -76t-91 -56t-116.5 -42t-141.5 -13.5q-201 0 -329 95t-128 245zM594 1583q0 55 38.5 95t92.5 40q55 0 95 -39.5t40 -95.5q0 -51 -41 -91t-94 -40 q-51 0 -91 40t-40 91zM1028 1583q0 55 39 95t92 40q55 0 95 -39.5t40 -95.5q0 -51 -41 -91t-94 -40q-51 0 -91 40t-40 91z" />
<glyph unicode="&#xdd;" horiz-adv-x="1251" d="M150 0v51q106 8 144 34t62 114l123 442l-180 549q-27 82 -48.5 100.5t-100.5 28.5v51h579v-51q-84 -2 -113.5 -17.5t-29.5 -58.5q0 -18 4 -37.5t16 -62.5t26.5 -85t47.5 -141.5t63 -195.5l265 381q53 78 53 123q0 53 -27.5 71.5t-109.5 22.5v51h426v-51 q-59 -12 -98.5 -41t-88.5 -100l-389 -547l-106 -391q-16 -63 -17 -93q0 -57 29 -74.5t129 -21.5v-51h-659zM617 1473l250 268q94 102 143 102q39 0 68.5 -28.5t29.5 -67.5q0 -29 -17.5 -49t-62.5 -47l-311 -178h-100z" />
<glyph unicode="&#xde;" horiz-adv-x="1247" d="M-55 0v51q80 12 110.5 39t53.5 109l251 919q20 76 21 125q0 57 -86 68q-6 0 -64 8v51h603v-51q-82 -10 -110 -34.5t-58 -113.5l-27 -77h98q213 0 326 -81t113 -237q0 -184 -153 -293.5t-409 -109.5q-74 0 -165 10l-29 -131q-20 -90 -21 -121q0 -41 31 -58.5t117 -21.5 v-51h-602zM469 449q78 -4 86 -5q109 0 171 39t103 129q47 104 48 230q0 88 -45.5 137t-126.5 49q-53 0 -72 -20.5t-31 -59.5q0 -6 -2 -10z" />
<glyph unicode="&#xdf;" horiz-adv-x="1024" d="M-410 -252q0 49 29 79t76 30q45 0 71.5 -25t26.5 -68q0 -39 -17.5 -57t-17.5 -31q0 -23 33 -22q57 0 96 59.5t80 245.5l189 866q135 618 514 619q131 0 215 -76t84 -192q0 -72 -31 -130.5t-90.5 -100.5t-115.5 -69.5t-136 -58.5q295 -63 295 -293q0 -213 -136.5 -375.5 t-314.5 -162.5q-88 0 -149 45l41 71q39 -47 96 -47q61 0 113.5 100.5t78 229.5t25.5 238q0 90 -37 121.5t-114 41.5l14 76h33q4 0 9 -2t11 -2q63 0 121.5 116t58.5 286q0 123 -96 122q-70 0 -119 -79.5t-88 -260.5l-186 -833q-139 -618 -463 -619q-88 0 -143.5 44t-55.5 114 z" />
<glyph unicode="&#xe0;" horiz-adv-x="1024" d="M-43 233q0 156 86 324t218 278.5t255 110.5q66 0 101.5 -34.5t50.5 -112.5l37 121l227 14l-146 -483q-70 -236 -69 -304q0 -31 24.5 -30.5t54 29t93.5 114.5l43 -31q-170 -258 -309 -258q-57 0 -97.5 39t-40.5 96q0 35 29 138q-88 -145 -165 -208t-171 -63 q-100 0 -160.5 71.5t-60.5 188.5zM209 229q0 -47 26.5 -78.5t65.5 -31.5q82 0 161 135t119 282.5t40 227.5q0 43 -24 69.5t-56 26.5q-61 0 -141.5 -113.5t-135.5 -264.5t-55 -253zM344 1335q0 37 27.5 64.5t64.5 27.5q61 0 115 -69l227 -301h-92l-272 182q-70 47 -70 96z " />
<glyph unicode="&#xe1;" horiz-adv-x="1024" d="M-43 233q0 156 86 324t218 278.5t255 110.5q66 0 101.5 -34.5t50.5 -112.5l37 121l227 14l-146 -483q-70 -236 -69 -304q0 -31 24.5 -30.5t54 29t93.5 114.5l43 -31q-170 -258 -309 -258q-57 0 -97.5 39t-40.5 96q0 35 29 138q-88 -145 -165 -208t-171 -63 q-100 0 -160.5 71.5t-60.5 188.5zM209 229q0 -47 26.5 -78.5t65.5 -31.5q82 0 161 135t119 282.5t40 227.5q0 43 -24 69.5t-56 26.5q-61 0 -141.5 -113.5t-135.5 -264.5t-55 -253zM457 1057l250 268q94 102 143 102q39 0 68.5 -28.5t29.5 -67.5q0 -29 -17.5 -49t-62.5 -47 l-311 -178h-100z" />
<glyph unicode="&#xe2;" horiz-adv-x="1024" d="M-43 233q0 156 86 324t218 278.5t255 110.5q66 0 101.5 -34.5t50.5 -112.5l37 121l227 14l-146 -483q-70 -236 -69 -304q0 -31 24.5 -30.5t54 29t93.5 114.5l43 -31q-170 -258 -309 -258q-57 0 -97.5 39t-40.5 96q0 35 29 138q-88 -145 -165 -208t-171 -63 q-100 0 -160.5 71.5t-60.5 188.5zM209 229q0 -47 26.5 -78.5t65.5 -31.5q82 0 161 135t119 282.5t40 227.5q0 43 -24 69.5t-56 26.5q-61 0 -141.5 -113.5t-135.5 -264.5t-55 -253zM254 1057l328 356h165l177 -356h-105l-180 194l-268 -194h-117z" />
<glyph unicode="&#xe3;" horiz-adv-x="1024" d="M-43 233q0 156 86 324t218 278.5t255 110.5q66 0 101.5 -34.5t50.5 -112.5l37 121l227 14l-146 -483q-70 -236 -69 -304q0 -31 24.5 -30.5t54 29t93.5 114.5l43 -31q-170 -258 -309 -258q-57 0 -97.5 39t-40.5 96q0 35 29 138q-88 -145 -165 -208t-171 -63 q-100 0 -160.5 71.5t-60.5 188.5zM209 229q0 -47 26.5 -78.5t65.5 -31.5q82 0 161 135t119 282.5t40 227.5q0 43 -24 69.5t-56 26.5q-61 0 -141.5 -113.5t-135.5 -264.5t-55 -253zM228 1045q43 111 121.5 176t166.5 65q66 0 165.5 -43t125.5 -43q35 0 62.5 19.5t60.5 66.5 h84q-61 -127 -130 -185t-161 -58q-47 0 -110 26l-111 47q-41 16 -76 17q-33 0 -59.5 -19.5t-56.5 -68.5h-82z" />
<glyph unicode="&#xe4;" horiz-adv-x="1024" d="M-43 233q0 156 86 324t218 278.5t255 110.5q66 0 101.5 -34.5t50.5 -112.5l37 121l227 14l-146 -483q-70 -236 -69 -304q0 -31 24.5 -30.5t54 29t93.5 114.5l43 -31q-170 -258 -309 -258q-57 0 -97.5 39t-40.5 96q0 35 29 138q-88 -145 -165 -208t-171 -63 q-100 0 -160.5 71.5t-60.5 188.5zM209 229q0 -47 26.5 -78.5t65.5 -31.5q82 0 161 135t119 282.5t40 227.5q0 43 -24 69.5t-56 26.5q-61 0 -141.5 -113.5t-135.5 -264.5t-55 -253zM265 1163q0 55 38.5 95t92.5 40q55 0 95 -39.5t40 -95.5q0 -51 -41 -91t-94 -40 q-51 0 -91 40t-40 91zM699 1163q0 55 39 95t92 40q55 0 95 -39.5t40 -95.5q0 -51 -41 -91t-94 -40q-51 0 -91 40t-40 91z" />
<glyph unicode="&#xe5;" horiz-adv-x="1024" d="M-43 233q0 156 86 324t218 278.5t255 110.5q66 0 101.5 -34.5t50.5 -112.5l37 121l227 14l-146 -483q-70 -236 -69 -304q0 -31 24.5 -30.5t54 29t93.5 114.5l43 -31q-170 -258 -309 -258q-57 0 -97.5 39t-40.5 96q0 35 29 138q-88 -145 -165 -208t-171 -63 q-100 0 -160.5 71.5t-60.5 188.5zM209 229q0 -47 26.5 -78.5t65.5 -31.5q82 0 161 135t119 282.5t40 227.5q0 43 -24 69.5t-56 26.5q-61 0 -141.5 -113.5t-135.5 -264.5t-55 -253zM379 1208q0 98 78.5 172t173.5 74q72 0 117.5 -47.5t45.5 -116.5q0 -92 -76.5 -168 t-175.5 -76q-74 0 -118.5 46t-44.5 116zM471 1226q0 -39 24.5 -63.5t63.5 -24.5q51 0 96 38t45 93q0 39 -25.5 66t-66.5 27q-47 0 -92 -41.5t-45 -94.5z" />
<glyph unicode="&#xe6;" horiz-adv-x="1478" d="M-10 217q0 162 87 334t220 283.5t258 111.5q66 0 102.5 -29.5t63.5 -105.5l37 119l211 10l-41 -133q66 76 118 104.5t128 28.5q96 0 150 -47t54 -131q0 -127 -121.5 -224.5t-345.5 -148.5l-80 -18q-10 -51 -10 -97q0 -78 37 -125t100 -47q147 0 252 183l58 -35 q-135 -276 -398 -277q-131 0 -199.5 63.5t-92.5 205.5q-86 -141 -169 -204t-186 -63q-100 0 -166.5 69t-66.5 173zM248 244q0 -55 26.5 -90t71.5 -35q90 0 173 132t123 274.5t40 217.5q0 49 -27.5 82t-70.5 33q-88 0 -170 -129t-124 -269t-42 -216zM846 438 q123 18 235.5 117.5t112.5 239.5q0 84 -68 84q-150 0 -270 -406z" />
<glyph unicode="&#xe7;" horiz-adv-x="909" d="M-49 -395l45 67q76 -35 137 -34q53 0 84 22.5t31 60.5q0 35 -25.5 54.5t-70.5 19.5q-29 0 -62 -8l-27 25l123 180q-94 33 -145 109.5t-51 181.5q0 246 183 454.5t400 208.5q102 0 166 -51t64 -133q0 -63 -36 -103.5t-91 -40.5q-51 0 -85 31t-34 76q0 31 21.5 71t21.5 48 q0 35 -45 35q-72 0 -132.5 -74t-96 -176.5t-55 -195.5t-19.5 -144q0 -82 42 -133.5t107.5 -51.5t121 41t128.5 144l58 -37q-90 -127 -144 -174q-119 -104 -262 -105q-23 0 -37 2l-69 -102q31 6 53 6q80 0 132 -42t52 -105q0 -76 -72.5 -127t-181.5 -51q-104 0 -229 51z" />
<glyph unicode="&#xe8;" horiz-adv-x="909" d="M311 1335q0 37 27.5 64.5t64.5 27.5q61 0 115 -69l227 -301h-92l-272 182q-70 47 -70 96zM10 274q0 254 184.5 463t405.5 209q94 0 154.5 -50t60.5 -128q0 -43 -18.5 -89t-68.5 -106.5t-162.5 -115t-276.5 -84.5q-12 -61 -13 -101q0 -168 134 -168q63 0 115.5 40 t123.5 147l60 -35q-92 -152 -182.5 -217.5t-207.5 -65.5q-133 0 -221 86t-88 215zM303 438q147 53 235.5 136t88.5 235q0 70 -58 70q-151 -1 -266 -441z" />
<glyph unicode="&#xe9;" horiz-adv-x="909" d="M10 274q0 254 184.5 463t405.5 209q94 0 154.5 -50t60.5 -128q0 -43 -18.5 -89t-68.5 -106.5t-162.5 -115t-276.5 -84.5q-12 -61 -13 -101q0 -168 134 -168q63 0 115.5 40t123.5 147l60 -35q-92 -152 -182.5 -217.5t-207.5 -65.5q-133 0 -221 86t-88 215zM303 438 q147 53 235.5 136t88.5 235q0 70 -58 70q-151 -1 -266 -441zM400 1057l250 268q94 102 143 102q39 0 68.5 -28.5t29.5 -67.5q0 -29 -17.5 -49t-62.5 -47l-311 -178h-100z" />
<glyph unicode="&#xea;" horiz-adv-x="909" d="M10 274q0 254 184.5 463t405.5 209q94 0 154.5 -50t60.5 -128q0 -43 -18.5 -89t-68.5 -106.5t-162.5 -115t-276.5 -84.5q-12 -61 -13 -101q0 -168 134 -168q63 0 115.5 40t123.5 147l60 -35q-92 -152 -182.5 -217.5t-207.5 -65.5q-133 0 -221 86t-88 215zM303 438 q147 53 235.5 136t88.5 235q0 70 -58 70q-151 -1 -266 -441zM197 1057l328 356h165l177 -356h-105l-180 194l-268 -194h-117z" />
<glyph unicode="&#xeb;" horiz-adv-x="909" d="M10 274q0 254 184.5 463t405.5 209q94 0 154.5 -50t60.5 -128q0 -43 -18.5 -89t-68.5 -106.5t-162.5 -115t-276.5 -84.5q-12 -61 -13 -101q0 -168 134 -168q63 0 115.5 40t123.5 147l60 -35q-92 -152 -182.5 -217.5t-207.5 -65.5q-133 0 -221 86t-88 215zM303 438 q147 53 235.5 136t88.5 235q0 70 -58 70q-151 -1 -266 -441zM207 1155q0 55 38.5 95t92.5 40q55 0 95 -39.5t40 -95.5q0 -51 -41 -91t-94 -40q-51 0 -91 40t-40 91zM641 1155q0 55 39 95t92 40q55 0 95 -39.5t40 -95.5q0 -51 -41 -91t-94 -40q-51 0 -91 40t-40 91z" />
<glyph unicode="&#xec;" horiz-adv-x="569" d="M4 111q0 49 27 141l119 440q14 61 14 82q0 33 -27.5 46.5t-93.5 13.5v55q238 18 414 57l-187 -684q-18 -74 -18 -106q0 -12 9 -21.5t22 -9.5q49 0 131 123l28 41l45 -29q-109 -162 -179 -220t-163 -58q-63 0 -102 36t-39 93zM98 1335q0 37 27.5 64.5t64.5 27.5 q61 0 115 -69l227 -301h-92l-272 182q-70 47 -70 96z" />
<glyph unicode="&#xed;" horiz-adv-x="569" d="M4 111q0 49 27 141l119 440q14 61 14 82q0 33 -27.5 46.5t-93.5 13.5v55q238 18 414 57l-187 -684q-18 -74 -18 -106q0 -12 9 -21.5t22 -9.5q49 0 131 123l28 41l45 -29q-109 -162 -179 -220t-163 -58q-63 0 -102 36t-39 93zM230 1057l250 268q94 102 143 102 q39 0 68.5 -28.5t29.5 -67.5q0 -29 -17.5 -49t-62.5 -47l-311 -178h-100z" />
<glyph unicode="&#xee;" horiz-adv-x="569" d="M4 111q0 49 27 141l119 440q14 61 14 82q0 33 -27.5 46.5t-93.5 13.5v55q238 18 414 57l-187 -684q-18 -74 -18 -106q0 -12 9 -21.5t22 -9.5q49 0 131 123l28 41l45 -29q-109 -162 -179 -220t-163 -58q-63 0 -102 36t-39 93zM-4 1057l328 356h165l177 -356h-105l-180 194 l-268 -194h-117z" />
<glyph unicode="&#xef;" horiz-adv-x="569" d="M4 111q0 49 27 141l119 440q14 61 14 82q0 33 -27.5 46.5t-93.5 13.5v55q238 18 414 57l-187 -684q-18 -74 -18 -106q0 -12 9 -21.5t22 -9.5q49 0 131 123l28 41l45 -29q-109 -162 -179 -220t-163 -58q-63 0 -102 36t-39 93zM35 1167q0 55 38.5 95t92.5 40q55 0 95 -39.5 t40 -95.5q0 -51 -41 -91t-94 -40q-51 0 -91 40t-40 91zM469 1167q0 55 39 95t92 40q55 0 95 -39.5t40 -95.5q0 -51 -41 -91t-94 -40q-51 0 -91 40t-40 91z" />
<glyph unicode="&#xf0;" horiz-adv-x="1024" d="M-6 274q0 166 81 323t212 253t270 96q88 0 145 -86l5 8q-12 160 -127 308l-244 -127l-68 63l250 131q-119 113 -237 133l90 56q145 -20 270 -123l219 116l70 -65l-219 -115q102 -121 147 -233.5t45 -249.5q0 -322 -174 -555.5t-412 -233.5q-139 0 -231 86t-92 215z M238 176q0 -143 100 -143q76 0 141.5 94t102 224t57 244t20.5 173q0 55 -25.5 87t-68.5 32q-88 0 -167 -129t-119.5 -292t-40.5 -290z" />
<glyph unicode="&#xf1;" horiz-adv-x="1138" d="M-12 0l114 418q94 332 95 364q0 29 -22.5 39t-88.5 13v55q188 6 410 55l-131 -405q160 236 247.5 321.5t208.5 85.5q72 0 111 -40t39 -113q0 -72 -53 -236l-74 -223q-51 -154 -51 -178q0 -35 28 -35q27 0 54.5 30.5t89.5 124.5l45 -26q-88 -150 -162 -209t-164 -59 q-63 0 -101 32.5t-38 89.5q0 96 57 269l113 340q10 35 10 43q0 16 -16.5 29.5t-34.5 13.5q-29 0 -70 -30t-72 -71q-94 -123 -158.5 -276.5t-137.5 -421.5h-248zM299 1051q43 111 121.5 176t166.5 65q66 0 165.5 -43t125.5 -43q35 0 62.5 19.5t60.5 66.5h84 q-61 -127 -130 -185t-161 -58q-47 0 -110 26l-111 47q-41 16 -76 17q-33 0 -59.5 -19.5t-56.5 -68.5h-82z" />
<glyph unicode="&#xf2;" horiz-adv-x="1024" d="M-6 276q0 258 181 464t407 206q139 0 230 -87t91 -222q0 -260 -177 -462t-407 -202q-141 0 -233 86t-92 217zM238 160q0 -57 26.5 -92t73.5 -35q76 0 141.5 94t102 224t57 244t20.5 173q0 55 -25.5 87t-70.5 32q-90 0 -168 -132t-117.5 -297t-39.5 -298zM344 1335 q0 37 27.5 64.5t64.5 27.5q61 0 115 -69l227 -301h-92l-272 182q-70 47 -70 96z" />
<glyph unicode="&#xf3;" horiz-adv-x="1024" d="M-6 276q0 258 181 464t407 206q139 0 230 -87t91 -222q0 -260 -177 -462t-407 -202q-141 0 -233 86t-92 217zM238 160q0 -57 26.5 -92t73.5 -35q76 0 141.5 94t102 224t57 244t20.5 173q0 55 -25.5 87t-70.5 32q-90 0 -168 -132t-117.5 -297t-39.5 -298zM457 1057 l250 268q94 102 143 102q39 0 68.5 -28.5t29.5 -67.5q0 -29 -17.5 -49t-62.5 -47l-311 -178h-100z" />
<glyph unicode="&#xf4;" horiz-adv-x="1024" d="M-6 276q0 258 181 464t407 206q139 0 230 -87t91 -222q0 -260 -177 -462t-407 -202q-141 0 -233 86t-92 217zM238 160q0 -57 26.5 -92t73.5 -35q76 0 141.5 94t102 224t57 244t20.5 173q0 55 -25.5 87t-70.5 32q-90 0 -168 -132t-117.5 -297t-39.5 -298zM254 1057 l328 356h165l177 -356h-105l-180 194l-268 -194h-117z" />
<glyph unicode="&#xf5;" horiz-adv-x="1024" d="M-6 276q0 258 181 464t407 206q139 0 230 -87t91 -222q0 -260 -177 -462t-407 -202q-141 0 -233 86t-92 217zM238 160q0 -57 26.5 -92t73.5 -35q76 0 141.5 94t102 224t57 244t20.5 173q0 55 -25.5 87t-70.5 32q-90 0 -168 -132t-117.5 -297t-39.5 -298zM228 1047 q43 111 121.5 176t166.5 65q66 0 165.5 -43t125.5 -43q35 0 62.5 19.5t60.5 66.5h84q-61 -127 -130 -185t-161 -58q-47 0 -110 26l-111 47q-41 16 -76 17q-33 0 -59.5 -19.5t-56.5 -68.5h-82z" />
<glyph unicode="&#xf6;" horiz-adv-x="1024" d="M-6 276q0 258 181 464t407 206q139 0 230 -87t91 -222q0 -260 -177 -462t-407 -202q-141 0 -233 86t-92 217zM238 160q0 -57 26.5 -92t73.5 -35q76 0 141.5 94t102 224t57 244t20.5 173q0 55 -25.5 87t-70.5 32q-90 0 -168 -132t-117.5 -297t-39.5 -298zM254 1167 q0 55 38.5 95t92.5 40q55 0 95 -39.5t40 -95.5q0 -51 -41 -91t-94 -40q-51 0 -91 40t-40 91zM688 1167q0 55 39 95t92 40q55 0 95 -39.5t40 -95.5q0 -51 -41 -91t-94 -40q-51 0 -91 40t-40 91z" />
<glyph unicode="&#xf7;" horiz-adv-x="1167" d="M68 428v180h1032v-180h-1032zM432 92.5q0 63.5 44 107.5t110 44q61 0 105 -45t44 -107q0 -63 -45 -107t-108.5 -44t-106.5 44t-43 107.5zM432 944.5q0 63.5 44 107.5t110 44q61 0 105 -45t44 -107q0 -63 -44 -107t-109 -44q-63 0 -106.5 44t-43.5 107.5z" />
<glyph unicode="&#xf8;" horiz-adv-x="1024" d="M-6 274q0 262 181 467t411 205q41 0 86 -12l121 213h75l-133 -238q168 -82 168 -272q0 -258 -177 -461t-404 -203q-49 0 -105 17l-131 -234h-82l148 258q-158 90 -158 260zM238 160l391 698q-29 29 -66 29q-76 0 -142.5 -90t-103 -214t-58 -234.5t-21.5 -172.5v-16z M262 70q31 -37 76 -37q72 0 136.5 90t102 214t60 240.5t22.5 184.5q0 6 -2 10z" />
<glyph unicode="&#xf9;" horiz-adv-x="1138" d="M31 133q0 74 43 221l82 273q29 92 28 149q0 31 -22.5 42t-91.5 16v55q123 4 428 57l-193 -631q-31 -102 -31 -135q0 -51 43 -51q57 0 150 113q88 111 146.5 247t144.5 431h241l-159 -549q-51 -176 -52 -207v-3v-5q0 -35 29 -35q47 0 148 151l43 -26q-154 -264 -330 -264 q-133 0 -133 122q0 76 49 226q-158 -221 -232.5 -284.5t-177.5 -63.5q-153 -1 -153 151zM401 1335q0 37 27.5 64.5t64.5 27.5q61 0 115 -69l227 -301h-92l-272 182q-70 47 -70 96z" />
<glyph unicode="&#xfa;" horiz-adv-x="1138" d="M31 133q0 74 43 221l82 273q29 92 28 149q0 31 -22.5 42t-91.5 16v55q123 4 428 57l-193 -631q-31 -102 -31 -135q0 -51 43 -51q57 0 150 113q88 111 146.5 247t144.5 431h241l-159 -549q-51 -176 -52 -207v-3v-5q0 -35 29 -35q47 0 148 151l43 -26q-154 -264 -330 -264 q-133 0 -133 122q0 76 49 226q-158 -221 -232.5 -284.5t-177.5 -63.5q-153 -1 -153 151zM514 1057l250 268q94 102 143 102q39 0 68.5 -28.5t29.5 -67.5q0 -29 -17.5 -49t-62.5 -47l-311 -178h-100z" />
<glyph unicode="&#xfb;" horiz-adv-x="1138" d="M31 133q0 74 43 221l82 273q29 92 28 149q0 31 -22.5 42t-91.5 16v55q123 4 428 57l-193 -631q-31 -102 -31 -135q0 -51 43 -51q57 0 150 113q88 111 146.5 247t144.5 431h241l-159 -549q-51 -176 -52 -207v-3v-5q0 -35 29 -35q47 0 148 151l43 -26q-154 -264 -330 -264 q-133 0 -133 122q0 76 49 226q-158 -221 -232.5 -284.5t-177.5 -63.5q-153 -1 -153 151zM303 1057l328 356h165l177 -356h-105l-180 194l-268 -194h-117z" />
<glyph unicode="&#xfc;" horiz-adv-x="1138" d="M31 133q0 74 43 221l82 273q29 92 28 149q0 31 -22.5 42t-91.5 16v55q123 4 428 57l-193 -631q-31 -102 -31 -135q0 -51 43 -51q57 0 150 113q88 111 146.5 247t144.5 431h241l-159 -549q-51 -176 -52 -207v-3v-5q0 -35 29 -35q47 0 148 151l43 -26q-154 -264 -330 -264 q-133 0 -133 122q0 76 49 226q-158 -221 -232.5 -284.5t-177.5 -63.5q-153 -1 -153 151zM312 1161q0 55 38.5 95t92.5 40q55 0 95 -39.5t40 -95.5q0 -51 -41 -91t-94 -40q-51 0 -91 40t-40 91zM746 1161q0 55 39 95t92 40q55 0 95 -39.5t40 -95.5q0 -51 -41 -91t-94 -40 q-51 0 -91 40t-40 91z" />
<glyph unicode="&#xfd;" horiz-adv-x="909" d="M-193 -297q0 45 31 79t72 34q45 0 110.5 -36t81.5 -36q55 0 122 86t67 162q0 113 -74 461t-127 378q-18 10 -61 11v55q172 16 305 49q76 -199 135 -567l25 -154q106 205 142 290t36 130q0 25 -17.5 45.5t-39 31.5t-39 38.5t-17.5 66.5q0 47 35 83t82 36q51 0 89 -39 t38 -92q0 -94 -83 -297t-205 -412.5t-283.5 -367.5t-297.5 -158q-53 0 -90 36t-37 87zM400 1057l250 268q94 102 143 102q39 0 68.5 -28.5t29.5 -67.5q0 -29 -17.5 -49t-62.5 -47l-311 -178h-100z" />
<glyph unicode="&#xfe;" horiz-adv-x="1024" d="M-246 -365h10q68 0 94.5 32t55.5 143l332 1290q35 133 35 153q0 35 -27 48.5t-102 13.5v55q244 27 421 62l-194 -697l6 -6q78 115 149.5 166t159.5 51q100 0 159.5 -67.5t59.5 -180.5q0 -266 -180 -495.5t-387 -229.5q-51 0 -139 45l-6 -26l-17 -58q-53 -190 -53 -233 q0 -37 27.5 -50t105.5 -16v-55h-510v55zM231 119q0 -31 24 -52.5t56 -21.5q74 0 141.5 83t110.5 194.5t68.5 216t25.5 157.5q0 47 -23.5 76t-62.5 29q-27 0 -52 -10.5t-45.5 -32t-39 -43t-35 -56t-29 -58t-24.5 -61.5t-18 -55.5t-15.5 -50.5t-9.5 -35q-72 -241 -72 -280z " />
<glyph unicode="&#xff;" horiz-adv-x="909" d="M-193 -297q0 45 31 79t72 34q45 0 110.5 -36t81.5 -36q55 0 122 86t67 162q0 113 -74 461t-127 378q-18 10 -61 11v55q172 16 305 49q76 -199 135 -567l25 -154q106 205 142 290t36 130q0 25 -17.5 45.5t-39 31.5t-39 38.5t-17.5 66.5q0 47 35 83t82 36q51 0 89 -39 t38 -92q0 -94 -83 -297t-205 -412.5t-283.5 -367.5t-297.5 -158q-53 0 -90 36t-37 87zM197 1161q0 55 38.5 95t92.5 40q55 0 95 -39.5t40 -95.5q0 -51 -41 -91t-94 -40q-51 0 -91 40t-40 91zM631 1161q0 55 39 95t92 40q55 0 95 -39.5t40 -95.5q0 -51 -41 -91t-94 -40 q-51 0 -91 40t-40 91z" />
<glyph unicode="&#x100;" horiz-adv-x="1366" d="M-137 0v51q55 12 89 40t81 104l762 1204h51l196 -1172q20 -117 45 -142.5t127 -33.5v-51h-622v51q98 10 130 34t32 87q0 4 -31 254h-440l-121 -209q-31 -53 -31 -94q0 -72 133 -72v-51h-401zM330 508h379l-76 498zM507 1563l35 143h666l-33 -143h-668z" />
<glyph unicode="&#x101;" horiz-adv-x="1024" d="M-43 233q0 156 86 324t218 278.5t255 110.5q66 0 101.5 -34.5t50.5 -112.5l37 121l227 14l-146 -483q-70 -236 -69 -304q0 -31 24.5 -30.5t54 29t93.5 114.5l43 -31q-170 -258 -309 -258q-57 0 -97.5 39t-40.5 96q0 35 29 138q-88 -145 -165 -208t-171 -63 q-100 0 -160.5 71.5t-60.5 188.5zM209 229q0 -47 26.5 -78.5t65.5 -31.5q82 0 161 135t119 282.5t40 227.5q0 43 -24 69.5t-56 26.5q-61 0 -141.5 -113.5t-135.5 -264.5t-55 -253zM276 1092l35 143h666l-33 -143h-668z" />
<glyph unicode="&#x102;" horiz-adv-x="1366" d="M-137 0v51q55 12 89 40t81 104l762 1204h51l196 -1172q20 -117 45 -142.5t127 -33.5v-51h-622v51q98 10 130 34t32 87q0 4 -31 254h-440l-121 -209q-31 -53 -31 -94q0 -72 133 -72v-51h-401zM330 508h379l-76 498zM536 1792v27h88q18 -184 209 -185q100 0 162 42t109 143 h80q-29 -160 -123.5 -246t-243.5 -86q-281 0 -281 305z" />
<glyph unicode="&#x103;" horiz-adv-x="1024" d="M-43 233q0 156 86 324t218 278.5t255 110.5q66 0 101.5 -34.5t50.5 -112.5l37 121l227 14l-146 -483q-70 -236 -69 -304q0 -31 24.5 -30.5t54 29t93.5 114.5l43 -31q-170 -258 -309 -258q-57 0 -97.5 39t-40.5 96q0 35 29 138q-88 -145 -165 -208t-171 -63 q-100 0 -160.5 71.5t-60.5 188.5zM209 229q0 -47 26.5 -78.5t65.5 -31.5q82 0 161 135t119 282.5t40 227.5q0 43 -24 69.5t-56 26.5q-61 0 -141.5 -113.5t-135.5 -264.5t-55 -253zM315 1362v27h88q18 -184 209 -185q100 0 162 42t109 143h80q-29 -160 -123.5 -246 t-243.5 -86q-281 0 -281 305z" />
<glyph unicode="&#x104;" horiz-adv-x="1366" d="M-137 0v51q55 12 89 40t81 104l762 1204h51l196 -1172q20 -117 45 -142.5t127 -33.5v-51q-18 -43 -18 -80q0 -133 129 -133q27 0 49.5 7t47 20.5t26.5 13.5l45 -29q-39 -70 -106.5 -111.5t-145.5 -41.5q-94 0 -155.5 47t-61.5 118.5t88 188.5h-520v51q98 10 130 34t32 87 q0 4 -31 254h-440l-121 -209q-31 -53 -31 -94q0 -72 133 -72v-51h-401zM330 508h379l-76 498z" />
<glyph unicode="&#x105;" horiz-adv-x="1024" d="M-43 233q0 156 86 324t218 278.5t255 110.5q66 0 101.5 -34.5t50.5 -112.5l37 121l227 14l-146 -483q-70 -236 -69 -304q0 -31 24.5 -30.5t54 29t93.5 114.5l43 -31q-53 -80 -100.5 -136t-65.5 -72.5t-28.5 -40t-10.5 -64.5q0 -129 129 -129q27 0 49.5 7t47 20.5 t26.5 13.5l45 -29q-39 -70 -106.5 -111.5t-145.5 -41.5q-94 0 -155.5 47t-61.5 119q0 66 66 159q-63 6 -99.5 42t-36.5 93q0 33 29 138q-88 -145 -165 -208t-171 -63q-100 0 -160.5 71.5t-60.5 188.5zM209 229q0 -47 26.5 -78.5t65.5 -31.5q82 0 161 135t119 282.5t40 227.5 q0 43 -24 69.5t-56 26.5q-61 0 -141.5 -113.5t-135.5 -264.5t-55 -253z" />
<glyph unicode="&#x106;" horiz-adv-x="1366" d="M66 494q0 373 246.5 641t588.5 268q109 0 218.5 -30t127.5 -30q41 0 78 60h61l-104 -479l-65 12q6 39 6 72q0 150 -72 236.5t-197 86.5q-162 0 -298 -153.5t-205.5 -358.5t-69.5 -391q0 -168 82 -262t225 -94q66 0 126 17t101 39t84 59.5t61.5 58t47.5 55.5q6 8 10 12 l62 -45q-86 -117 -160 -172q-176 -133 -397 -133q-250 0 -403.5 146.5t-153.5 384.5zM748 1473l250 268q94 102 143 102q39 0 68.5 -28.5t29.5 -67.5q0 -29 -17.5 -49t-62.5 -47l-311 -178h-100z" />
<glyph unicode="&#x107;" horiz-adv-x="909" d="M-10 283q0 246 183 454.5t400 208.5q100 0 165 -51t65 -133q0 -63 -36 -103.5t-91 -40.5q-51 0 -85 31t-34 76q0 31 21.5 71t21.5 48q0 35 -45 35q-72 0 -132.5 -74t-96 -176.5t-55 -195.5t-19.5 -144q0 -82 42 -133.5t107.5 -51.5t121 41t128.5 144l58 -37 q-90 -129 -152 -180q-115 -98 -254 -98.5t-226 86t-87 223.5zM418 1057l250 268q94 102 143 102q39 0 68.5 -28.5t29.5 -67.5q0 -29 -17.5 -49t-62.5 -47l-311 -178h-100z" />
<glyph unicode="&#x108;" horiz-adv-x="1366" d="M66 494q0 373 246.5 641t588.5 268q109 0 218.5 -30t127.5 -30q41 0 78 60h61l-104 -479l-65 12q6 39 6 72q0 150 -72 236.5t-197 86.5q-162 0 -298 -153.5t-205.5 -358.5t-69.5 -391q0 -168 82 -262t225 -94q66 0 126 17t101 39t84 59.5t61.5 58t47.5 55.5q6 8 10 12 l62 -45q-86 -117 -160 -172q-176 -133 -397 -133q-250 0 -403.5 146.5t-153.5 384.5zM588 1473l328 356h165l177 -356h-105l-180 194l-268 -194h-117z" />
<glyph unicode="&#x109;" horiz-adv-x="909" d="M-10 283q0 246 183 454.5t400 208.5q100 0 165 -51t65 -133q0 -63 -36 -103.5t-91 -40.5q-51 0 -85 31t-34 76q0 31 21.5 71t21.5 48q0 35 -45 35q-72 0 -132.5 -74t-96 -176.5t-55 -195.5t-19.5 -144q0 -82 42 -133.5t107.5 -51.5t121 41t128.5 144l58 -37 q-90 -129 -152 -180q-115 -98 -254 -98.5t-226 86t-87 223.5zM229 1049l328 356h165l177 -356h-105l-180 194l-268 -194h-117z" />
<glyph unicode="&#x10a;" horiz-adv-x="1366" d="M66 494q0 373 246.5 641t588.5 268q109 0 218.5 -30t127.5 -30q41 0 78 60h61l-104 -479l-65 12q6 39 6 72q0 150 -72 236.5t-197 86.5q-162 0 -298 -153.5t-205.5 -358.5t-69.5 -391q0 -168 82 -262t225 -94q66 0 126 17t101 39t84 59.5t61.5 58t47.5 55.5q6 8 10 12 l62 -45q-86 -117 -160 -172q-176 -133 -397 -133q-250 0 -403.5 146.5t-153.5 384.5zM870 1579q0 59 49 109t113 50q49 0 79.5 -30.5t30.5 -77.5q0 -66 -54 -112t-112 -46q-47 0 -76.5 31t-29.5 76z" />
<glyph unicode="&#x10b;" horiz-adv-x="909" d="M-10 283q0 246 183 454.5t400 208.5q100 0 165 -51t65 -133q0 -63 -36 -103.5t-91 -40.5q-51 0 -85 31t-34 76q0 31 21.5 71t21.5 48q0 35 -45 35q-72 0 -132.5 -74t-96 -176.5t-55 -195.5t-19.5 -144q0 -82 42 -133.5t107.5 -51.5t121 41t128.5 144l58 -37 q-90 -129 -152 -180q-115 -98 -254 -98.5t-226 86t-87 223.5zM496 1145q0 59 49 109t113 50q49 0 79.5 -30.5t30.5 -77.5q0 -66 -54 -112t-112 -46q-47 0 -76.5 31t-29.5 76z" />
<glyph unicode="&#x10c;" horiz-adv-x="1366" d="M66 494q0 373 246.5 641t588.5 268q109 0 218.5 -30t127.5 -30q41 0 78 60h61l-104 -479l-65 12q6 39 6 72q0 150 -72 236.5t-197 86.5q-162 0 -298 -153.5t-205.5 -358.5t-69.5 -391q0 -168 82 -262t225 -94q66 0 126 17t101 39t84 59.5t61.5 58t47.5 55.5q6 8 10 12 l62 -45q-86 -117 -160 -172q-176 -133 -397 -133q-250 0 -403.5 146.5t-153.5 384.5zM629 1843h102l187 -199l276 199h115l-332 -356h-168z" />
<glyph unicode="&#x10d;" horiz-adv-x="909" d="M-10 283q0 246 183 454.5t400 208.5q100 0 165 -51t65 -133q0 -63 -36 -103.5t-91 -40.5q-51 0 -85 31t-34 76q0 31 21.5 71t21.5 48q0 35 -45 35q-72 0 -132.5 -74t-96 -176.5t-55 -195.5t-19.5 -144q0 -82 42 -133.5t107.5 -51.5t121 41t128.5 144l58 -37 q-90 -129 -152 -180q-115 -98 -254 -98.5t-226 86t-87 223.5zM279 1413h102l187 -199l276 199h115l-332 -356h-168z" />
<glyph unicode="&#x10e;" horiz-adv-x="1478" d="M-49 0v51q76 10 109.5 40t54.5 108l247 913q25 98 25 121q0 47 -28.5 60.5t-120.5 25.5v51h593q291 0 454 -148.5t163 -410.5q0 -348 -260 -579.5t-651 -231.5h-586zM408 139q0 -70 110 -69q287 0 449 231q84 119 132 290t48 345q0 371 -338 371q-92 0 -113 -78 l-264 -979q-24 -95 -24 -111zM606 1843h102l187 -199l276 199h115l-332 -356h-168z" />
<glyph unicode="&#x10f;" horiz-adv-x="1261" d="M1038 921l17 11q182 111 203 200v2q0 6 -9 6q-2 0 -19 -4t-36 -4q-57 0 -88 25.5t-31 68.5q0 68 51.5 118t122.5 50q66 0 106 -43t40 -112q0 -102 -86 -196.5t-232 -160.5l-20 -8zM-43 229q0 156 86 325t218 280.5t253 111.5q80 0 148 -67l38 139q57 205 58 242 q0 57 -84 57h-43v55q264 20 428 60l-228 -830q-117 -424 -116 -457q0 -8 7 -16t15 -8q49 0 137 147l46 -32q-84 -135 -157 -197t-149 -62q-57 0 -89.5 34t-32.5 93q0 33 22 138q-88 -145 -166 -207t-174 -62q-94 0 -155.5 72.5t-61.5 183.5zM211 240q0 -51 23.5 -85 t60.5 -34q82 0 164 140t127 287.5t45 209.5q0 45 -22.5 73.5t-59.5 28.5q-80 0 -163 -127t-129 -271t-46 -222z" />
<glyph unicode="&#x110;" horiz-adv-x="1478" d="M-63 0v51q76 10 109.5 40t53.5 108l129 475h-209l25 90h209l94 348q25 96 25 121q0 47 -29 60.5t-121 25.5v51h594q291 0 454 -148.5t163 -410.5q0 -348 -260.5 -579.5t-651.5 -231.5h-585zM393 139q0 -70 111 -69q287 0 448 231q84 119 132.5 290t48.5 345 q0 371 -338 371q-92 0 -113 -78l-125 -465h250l-25 -90h-250l-112 -416q-2 -4 -2 -8q-25 -72 -25 -111z" />
<glyph unicode="&#x111;" horiz-adv-x="1024" d="M-43 229q0 156 86 325t218 280.5t253 111.5q80 0 148 -67l45 172h-285l18 63h283q35 127 35 146q0 57 -84 57h-43v55q264 20 428 60l-88 -318h135l-16 -63h-136l-123 -449q-117 -424 -116 -457q0 -8 7 -16t15 -8q49 0 137 147l46 -32q-84 -135 -157 -197t-149 -62 q-57 0 -89.5 34t-32.5 93q0 33 22 138q-88 -145 -166 -207t-174 -62q-94 0 -155.5 72.5t-61.5 183.5zM211 240q0 -51 23.5 -85t60.5 -34q82 0 164 140t127 287.5t45 209.5q0 45 -22.5 73.5t-59.5 28.5q-80 0 -163 -127t-129 -271t-46 -222z" />
<glyph unicode="&#x112;" horiz-adv-x="1366" d="M-47 0v51q80 12 110.5 39t53.5 109l252 919q20 76 20 123q0 27 -17.5 42t-40 20.5t-77.5 13.5q-8 2 -14 2v51h1105l-88 -389l-55 10q0 78 -11 127t-48 96.5t-115 69t-203 21.5q-63 0 -87.5 -18.5t-41.5 -72.5l-125 -456h27q129 0 194.5 16.5t107.5 59.5t91 141l58 -8 l-152 -559l-57 10q8 51 8 90q0 106 -60.5 144t-234.5 40l-115 -428q0 -4 -15 -56t-15 -73q0 -70 124 -69q168 0 293 49t196 117.5t136 175.5l51 -11l-121 -397h-1134zM493 1563l35 143h666l-33 -143h-668z" />
<glyph unicode="&#x113;" horiz-adv-x="909" d="M10 274q0 254 184.5 463t405.5 209q94 0 154.5 -50t60.5 -128q0 -43 -18.5 -89t-68.5 -106.5t-162.5 -115t-276.5 -84.5q-12 -61 -13 -101q0 -168 134 -168q63 0 115.5 40t123.5 147l60 -35q-92 -152 -182.5 -217.5t-207.5 -65.5q-133 0 -221 86t-88 215zM303 438 q147 53 235.5 136t88.5 235q0 70 -58 70q-151 -1 -266 -441zM219 1094l35 143h666l-33 -143h-668z" />
<glyph unicode="&#x114;" horiz-adv-x="1366" d="M-49 0v51q80 12 110.5 39t53.5 109l252 919q20 76 20 123q0 27 -17.5 42t-40 20.5t-77.5 13.5q-8 2 -14 2v51h1105l-88 -389l-55 10q0 78 -11 127t-48 96.5t-115 69t-203 21.5q-63 0 -87.5 -18.5t-41.5 -72.5l-125 -456h27q129 0 194.5 16.5t107.5 59.5t91 141l58 -8 l-152 -559l-57 10q8 51 8 90q0 106 -60.5 144t-234.5 40l-115 -428q0 -4 -15 -56t-15 -73q0 -70 124 -69q168 0 293 49t196 117.5t136 175.5l51 -11l-121 -397h-1134zM651 1778v27h88q18 -184 209 -185q100 0 162 42t109 143h80q-29 -160 -123.5 -246t-243.5 -86 q-281 0 -281 305z" />
<glyph unicode="&#x115;" horiz-adv-x="909" d="M10 274q0 254 184.5 463t405.5 209q94 0 154.5 -50t60.5 -128q0 -43 -18.5 -89t-68.5 -106.5t-162.5 -115t-276.5 -84.5q-12 -61 -13 -101q0 -168 134 -168q63 0 115.5 40t123.5 147l60 -35q-92 -152 -182.5 -217.5t-207.5 -65.5q-133 0 -221 86t-88 215zM303 438 q147 53 235.5 136t88.5 235q0 70 -58 70q-151 -1 -266 -441zM342 1354v27h88q18 -184 209 -185q100 0 162 42t109 143h80q-29 -160 -123.5 -246t-243.5 -86q-281 0 -281 305z" />
<glyph unicode="&#x116;" horiz-adv-x="1366" d="M-49 0v51q80 12 110.5 39t53.5 109l252 919q20 76 20 123q0 27 -17.5 42t-40 20.5t-77.5 13.5q-8 2 -14 2v51h1105l-88 -389l-55 10q0 78 -11 127t-48 96.5t-115 69t-203 21.5q-63 0 -87.5 -18.5t-41.5 -72.5l-125 -456h27q129 0 194.5 16.5t107.5 59.5t91 141l58 -8 l-152 -559l-57 10q8 51 8 90q0 106 -60.5 144t-234.5 40l-115 -428q0 -4 -15 -56t-15 -73q0 -70 124 -69q168 0 293 49t196 117.5t136 175.5l51 -11l-121 -397h-1134zM823 1612q0 59 49 109t113 50q49 0 79.5 -30.5t30.5 -77.5q0 -66 -54 -112t-112 -46q-47 0 -76.5 31 t-29.5 76z" />
<glyph unicode="&#x117;" horiz-adv-x="909" d="M10 274q0 254 184.5 463t405.5 209q94 0 154.5 -50t60.5 -128q0 -43 -18.5 -89t-68.5 -106.5t-162.5 -115t-276.5 -84.5q-12 -61 -13 -101q0 -168 134 -168q63 0 115.5 40t123.5 147l60 -35q-92 -152 -182.5 -217.5t-207.5 -65.5q-133 0 -221 86t-88 215zM303 438 q147 53 235.5 136t88.5 235q0 70 -58 70q-151 -1 -266 -441zM518 1141q0 59 49 109t113 50q49 0 79.5 -30.5t30.5 -77.5q0 -66 -54 -112t-112 -46q-47 0 -76.5 31t-29.5 76z" />
<glyph unicode="&#x118;" horiz-adv-x="1366" d="M-55 0v51q80 12 110.5 39t53.5 109l251 919q20 76 21 123q0 27 -17.5 42t-40 20.5t-77.5 13.5q-8 2 -15 2v51h1106l-88 -389l-55 10q0 78 -11.5 127t-48 96.5t-114.5 69t-203 21.5q-63 0 -87.5 -18.5t-41.5 -72.5l-125 -456h27q129 0 194.5 16.5t107.5 59.5t91 141l57 -8 l-151 -559l-58 10q8 51 9 90q0 106 -60.5 144t-234.5 40l-115 -428q-31 -123 -31 -129q0 -70 125 -69q168 0 293 49t195.5 117.5t136.5 175.5l51 -11l-96 -313q-35 -113 -35 -168q0 -129 129 -129q27 0 49.5 7t47 20.5t26.5 13.5l45 -29q-39 -70 -106.5 -111.5t-145.5 -41.5 q-94 0 -155.5 47t-61.5 118.5t88 188.5h-1040z" />
<glyph unicode="&#x119;" horiz-adv-x="909" d="M10 274q0 254 184.5 463t405.5 209q94 0 154.5 -50t60.5 -128q0 -43 -18.5 -89t-68.5 -106.5t-162.5 -115t-276.5 -84.5q-12 -61 -13 -101q0 -168 134 -168q63 0 115.5 40t123.5 147l60 -35q-39 -63 -80 -118.5t-58.5 -78t-29 -55.5t-11.5 -80q0 -137 129 -137 q27 0 49.5 7t47 20.5t26.5 13.5l45 -29q-39 -70 -106.5 -111.5t-145.5 -41.5q-94 0 -155.5 47t-61.5 119q0 70 84 182q-68 -20 -123 -21q-133 0 -221 86t-88 215zM303 438q147 53 235.5 136t88.5 235q0 70 -58 70q-151 -1 -266 -441z" />
<glyph unicode="&#x11a;" horiz-adv-x="1366" d="M-49 0v51q80 12 110.5 39t53.5 109l252 919q20 76 20 123q0 27 -17.5 42t-40 20.5t-77.5 13.5q-8 2 -14 2v51h1105l-88 -389l-55 10q0 78 -11 127t-48 96.5t-115 69t-203 21.5q-63 0 -87.5 -18.5t-41.5 -72.5l-125 -456h27q129 0 194.5 16.5t107.5 59.5t91 141l58 -8 l-152 -559l-57 10q8 51 8 90q0 106 -60.5 144t-234.5 40l-115 -428q0 -4 -15 -56t-15 -73q0 -70 124 -69q168 0 293 49t196 117.5t136 175.5l51 -11l-121 -397h-1134zM510 1843h102l187 -199l276 199h115l-332 -356h-168z" />
<glyph unicode="&#x11b;" horiz-adv-x="909" d="M10 274q0 254 184.5 463t405.5 209q94 0 154.5 -50t60.5 -128q0 -43 -18.5 -89t-68.5 -106.5t-162.5 -115t-276.5 -84.5q-12 -61 -13 -101q0 -168 134 -168q63 0 115.5 40t123.5 147l60 -35q-92 -152 -182.5 -217.5t-207.5 -65.5q-133 0 -221 86t-88 215zM303 438 q147 53 235.5 136t88.5 235q0 70 -58 70q-151 -1 -266 -441zM277 1413h102l187 -199l276 199h115l-332 -356h-168z" />
<glyph unicode="&#x11c;" horiz-adv-x="1478" d="M43 514q0 236 123 449t326 331q188 109 426 109q115 0 214 -31t113 -31q55 0 86 62h64l-105 -453l-59 8q-4 182 -68.5 276.5t-216.5 94.5q-133 0 -247.5 -90t-185.5 -228.5t-111 -293t-40 -291.5q0 -186 86.5 -285.5t249.5 -99.5q59 0 115.5 17.5t77.5 43.5 q12 18 65.5 201.5t53.5 245.5q0 23 -9.5 36t-37 21t-44 10t-61.5 7v53h588v-53q-82 -6 -107.5 -33t-54.5 -135l-98 -371l-58 -27q-88 -41 -225 -67.5t-254 -26.5q-268 0 -437 153.5t-169 397.5zM657 1473l328 356h165l177 -356h-105l-180 194l-268 -194h-117z" />
<glyph unicode="&#x11d;" horiz-adv-x="1024" d="M-106 -199q0 25 6 46.5t15 38t25.5 31.5t30 26.5t36 21.5t35.5 15.5t37.5 12.5t33 9t30.5 6l23 6q-127 43 -127 136q0 55 36 90.5t161 107.5q-164 70 -164 225.5t133 264t321 108.5q133 0 226 -67h227v-115h-137q12 -39 12 -86q0 -106 -53 -184t-133 -114t-144.5 -51.5 t-111.5 -15.5q-35 0 -62.5 8.5t-42.5 8.5q-20 0 -38.5 -24.5t-18.5 -49.5q0 -49 104 -78l109 -31q168 -47 236.5 -105t68.5 -151q0 -135 -137 -221t-352 -86q-176 0 -280.5 58.5t-104.5 158.5zM72 -186q0 -70 63.5 -115t163.5 -45q117 0 181.5 38t64.5 103q0 78 -84 117 q-33 14 -123 45t-105 31q-31 0 -96 -54t-65 -120zM309 498q0 -121 88 -121q92 0 154.5 134t62.5 251q0 53 -26.5 87t-65.5 34q-90 0 -151.5 -134t-61.5 -251zM309 1049l328 356h165l177 -356h-105l-180 194l-268 -194h-117z" />
<glyph unicode="&#x11e;" horiz-adv-x="1478" d="M43 514q0 236 123 449t326 331q188 109 426 109q115 0 214 -31t113 -31q55 0 86 62h64l-105 -453l-59 8q-4 182 -68.5 276.5t-216.5 94.5q-133 0 -247.5 -90t-185.5 -228.5t-111 -293t-40 -291.5q0 -186 86.5 -285.5t249.5 -99.5q59 0 115.5 17.5t77.5 43.5 q12 18 65.5 201.5t53.5 245.5q0 23 -9.5 36t-37 21t-44 10t-61.5 7v53h588v-53q-82 -6 -107.5 -33t-54.5 -135l-98 -371l-58 -27q-88 -41 -225 -67.5t-254 -26.5q-268 0 -437 153.5t-169 397.5zM624 1792v27h88q18 -184 209 -185q100 0 162 42t109 143h80 q-29 -160 -123.5 -246t-243.5 -86q-281 0 -281 305z" />
<glyph unicode="&#x11f;" horiz-adv-x="1024" d="M-106 -199q0 25 6 46.5t15 38t25.5 31.5t30 26.5t36 21.5t35.5 15.5t37.5 12.5t33 9t30.5 6l23 6q-127 43 -127 136q0 55 36 90.5t161 107.5q-164 70 -164 225.5t133 264t321 108.5q133 0 226 -67h227v-115h-137q12 -39 12 -86q0 -106 -53 -184t-133 -114t-144.5 -51.5 t-111.5 -15.5q-35 0 -62.5 8.5t-42.5 8.5q-20 0 -38.5 -24.5t-18.5 -49.5q0 -49 104 -78l109 -31q168 -47 236.5 -105t68.5 -151q0 -135 -137 -221t-352 -86q-176 0 -280.5 58.5t-104.5 158.5zM72 -186q0 -70 63.5 -115t163.5 -45q117 0 181.5 38t64.5 103q0 78 -84 117 q-33 14 -123 45t-105 31q-31 0 -96 -54t-65 -120zM309 498q0 -121 88 -121q92 0 154.5 134t62.5 251q0 53 -26.5 87t-65.5 34q-90 0 -151.5 -134t-61.5 -251zM317 1362v27h88q18 -184 209 -185q100 0 162 42t109 143h80q-29 -160 -123.5 -246t-243.5 -86q-281 0 -281 305z " />
<glyph unicode="&#x120;" horiz-adv-x="1478" d="M43 514q0 236 123 449t326 331q188 109 426 109q115 0 214 -31t113 -31q55 0 86 62h64l-105 -453l-59 8q-4 182 -68.5 276.5t-216.5 94.5q-133 0 -247.5 -90t-185.5 -228.5t-111 -293t-40 -291.5q0 -186 86.5 -285.5t249.5 -99.5q59 0 115.5 17.5t77.5 43.5 q12 18 65.5 201.5t53.5 245.5q0 23 -9.5 36t-37 21t-44 10t-61.5 7v53h588v-53q-82 -6 -107.5 -33t-54.5 -135l-98 -371l-58 -27q-88 -41 -225 -67.5t-254 -26.5q-268 0 -437 153.5t-169 397.5zM848 1579q0 59 49 109t113 50q49 0 79.5 -30.5t30.5 -77.5q0 -66 -54 -112 t-112 -46q-47 0 -76.5 31t-29.5 76z" />
<glyph unicode="&#x121;" horiz-adv-x="1024" d="M-106 -199q0 25 6 46.5t15 38t25.5 31.5t30 26.5t36 21.5t35.5 15.5t37.5 12.5t33 9t30.5 6l23 6q-127 43 -127 136q0 55 36 90.5t161 107.5q-164 70 -164 225.5t133 264t321 108.5q133 0 226 -67h227v-115h-137q12 -39 12 -86q0 -106 -53 -184t-133 -114t-144.5 -51.5 t-111.5 -15.5q-35 0 -62.5 8.5t-42.5 8.5q-20 0 -38.5 -24.5t-18.5 -49.5q0 -49 104 -78l109 -31q168 -47 236.5 -105t68.5 -151q0 -135 -137 -221t-352 -86q-176 0 -280.5 58.5t-104.5 158.5zM72 -186q0 -70 63.5 -115t163.5 -45q117 0 181.5 38t64.5 103q0 78 -84 117 q-33 14 -123 45t-105 31q-31 0 -96 -54t-65 -120zM309 498q0 -121 88 -121q92 0 154.5 134t62.5 251q0 53 -26.5 87t-65.5 34q-90 0 -151.5 -134t-61.5 -251zM473 1135q0 59 49 109t113 50q49 0 79.5 -30.5t30.5 -77.5q0 -66 -54 -112t-112 -46q-47 0 -76.5 31t-29.5 76z " />
<glyph unicode="&#x122;" horiz-adv-x="1478" d="M348 -561l17 11q182 111 203 200v2q0 6 -9 6q-2 0 -19 -4t-36 -4q-57 0 -88 25.5t-31 68.5q0 68 51.5 118t122.5 50q66 0 106 -43t40 -112q0 -102 -86 -196.5t-232 -160.5l-20 -8zM43 514q0 236 123 449t326 331q188 109 426 109q115 0 214 -31t113 -31q55 0 86 62h64 l-105 -453l-59 8q-4 182 -68.5 276.5t-216.5 94.5q-133 0 -247.5 -90t-185.5 -228.5t-111 -293t-40 -291.5q0 -186 86.5 -285.5t249.5 -99.5q59 0 115.5 17.5t77.5 43.5q12 18 65.5 201.5t53.5 245.5q0 23 -9.5 36t-37 21t-44 10t-61.5 7v53h588v-53q-82 -6 -107.5 -33 t-54.5 -135l-98 -371l-58 -27q-88 -41 -225 -67.5t-254 -26.5q-268 0 -437 153.5t-169 397.5z" />
<glyph unicode="&#x123;" horiz-adv-x="1024" d="M-106 -199q0 25 6 46.5t15 38t25.5 31.5t30 26.5t36 21.5t35.5 15.5t37.5 12.5t33 9t30.5 6l23 6q-127 43 -127 136q0 55 36 90.5t161 107.5q-164 70 -164 225.5t133 264t321 108.5q133 0 226 -67h227v-115h-137q12 -39 12 -86q0 -106 -53 -184t-133 -114t-144.5 -51.5 t-111.5 -15.5q-35 0 -62.5 8.5t-42.5 8.5q-20 0 -38.5 -24.5t-18.5 -49.5q0 -49 104 -78l109 -31q168 -47 236.5 -105t68.5 -151q0 -135 -137 -221t-352 -86q-176 0 -280.5 58.5t-104.5 158.5zM72 -186q0 -70 63.5 -115t163.5 -45q117 0 181.5 38t64.5 103q0 78 -84 117 q-33 14 -123 45t-105 31q-31 0 -96 -54t-65 -120zM309 498q0 -121 88 -121q92 0 154.5 134t62.5 251q0 53 -26.5 87t-65.5 34q-90 0 -151.5 -134t-61.5 -251zM799 1481l-17 -11q-182 -111 -203 -200v-2q0 -6 9 -6q2 0 19 4t36 4q57 0 88 -25.5t31 -68.5q0 -68 -51.5 -118 t-122.5 -50q-66 0 -106 43t-40 112q0 102 86 196.5t232 160.5l20 8z" />
<glyph unicode="&#x124;" horiz-adv-x="1593" d="M-49 0v51q78 10 110.5 39t53.5 109l250 919q23 84 22 119q0 43 -29.5 56.5t-119.5 25.5v51h649v-51q-100 -2 -142.5 -33t-64.5 -115l-111 -407h490l96 354q20 74 21 125q0 39 -27 50.5t-123 25.5v51h610v-51q-78 -10 -109.5 -38t-56.5 -110l-235 -858q-39 -139 -39 -178 q0 -45 33 -62.5t117 -21.5v-51h-650v51q102 6 143.5 35t63.5 113l131 475h-489l-103 -371q-2 -8 -18 -70.5t-16 -93.5q0 -49 26.5 -64.5t122.5 -23.5v-51h-606zM672 1473l328 356h165l177 -356h-105l-180 194l-268 -194h-117z" />
<glyph unicode="&#x125;" horiz-adv-x="1138" d="M-27 0l316 1161q16 61 16 88q0 68 -84 68q-29 0 -45 -2v55q199 16 426 62l-219 -852q66 92 104.5 143t96 110.5t114 86t119.5 26.5q72 0 114 -41t42 -112q0 -61 -62 -250l-118 -365q-6 -18 -7 -24q0 -10 12.5 -21.5t22.5 -11.5q35 0 154 170l45 -31q-102 -158 -175 -218 t-167 -60q-59 0 -97 32.5t-38 85.5q0 70 26.5 167.5t94.5 295.5q18 51 26 78q23 63 23 68q10 31 10 47t-13.5 29.5t-31.5 13.5q-80 0 -207 -183q-78 -113 -125 -229.5t-125 -386.5h-248zM422 1485l328 356h165l177 -356h-105l-180 194l-268 -194h-117z" />
<glyph unicode="&#x126;" horiz-adv-x="1593" d="M-49 0v51q78 10 110.5 39t53.5 109l213 780h-156l41 143h154q20 86 20 115q0 43 -29.5 56.5t-119.5 25.5v51h649v-51q-100 -2 -141 -33t-66 -115l-14 -49h491q18 82 18.5 121t-26.5 50.5t-123 25.5v51h610v-51q-78 -10 -109.5 -38t-56.5 -110l-14 -49h158l-39 -143h-158 l-182 -666q-39 -139 -39 -178q0 -45 33 -62.5t117 -21.5v-51h-650v51q102 6 143.5 35t63.5 113l131 475h-489l-103 -371q-2 -8 -18 -70.5t-16 -93.5q0 -49 26.5 -64.5t122.5 -23.5v-51h-606zM569 764h490l59 215h-491z" />
<glyph unicode="&#x127;" horiz-adv-x="1138" d="M-27 0l279 1024h-189l35 143h193q14 66 14 82q0 68 -84 68q-29 0 -45 -2v55q199 16 426 62l-67 -265h229l-33 -143h-233l-115 -444q66 92 104.5 143t96 110.5t114 86t119.5 26.5q72 0 114 -41t42 -112q0 -63 -62 -250l-118 -365q-6 -18 -7 -24q0 -10 12.5 -21.5 t22.5 -11.5q35 0 154 170l45 -31q-102 -158 -175 -218t-167 -60q-59 0 -97 32.5t-38 85.5q0 70 26.5 167.5t94.5 295.5q18 51 26 78q23 63 23 68q10 31 10 47t-13.5 29.5t-31.5 13.5q-80 0 -207 -183q-78 -113 -125 -229.5t-125 -386.5h-248z" />
<glyph unicode="&#x128;" horiz-adv-x="796" d="M-49 0v51q76 10 109.5 39t54.5 109l252 919q20 74 20 125q0 39 -26.5 50.5t-122.5 25.5v51h610v-51q-80 -10 -114 -39t-54 -109l-234 -860q-37 -139 -36 -178q0 -43 30.5 -60.5t116.5 -21.5v-51h-606zM260 1475q43 111 121.5 176t166.5 65q66 0 165.5 -43t125.5 -43 q35 0 62.5 19.5t60.5 66.5h84q-61 -127 -130 -185t-161 -58q-47 0 -110 26l-111 47q-41 16 -76 17q-33 0 -59.5 -19.5t-56.5 -68.5h-82z" />
<glyph unicode="&#x129;" horiz-adv-x="569" d="M4 111q0 49 27 141l119 440q14 61 14 82q0 33 -27.5 46.5t-93.5 13.5v55q238 18 414 57l-187 -684q-18 -74 -18 -106q0 -12 9 -21.5t22 -9.5q49 0 131 123l28 41l45 -29q-109 -162 -179 -220t-163 -58q-63 0 -102 36t-39 93zM80 1051q43 111 121.5 176t166.5 65 q66 0 165.5 -43t125.5 -43q35 0 62.5 19.5t60.5 66.5h84q-61 -127 -130 -185t-161 -58q-47 0 -110 26l-111 47q-41 16 -76 17q-33 0 -59.5 -19.5t-56.5 -68.5h-82z" />
<glyph unicode="&#x12a;" horiz-adv-x="796" d="M-49 0v51q76 10 109.5 39t54.5 109l252 919q20 74 20 125q0 39 -26.5 50.5t-122.5 25.5v51h610v-51q-80 -10 -114 -39t-54 -109l-234 -860q-37 -139 -36 -178q0 -43 30.5 -60.5t116.5 -21.5v-51h-606zM260 1563l35 143h666l-33 -143h-668z" />
<glyph unicode="&#x12b;" horiz-adv-x="569" d="M4 111q0 49 27 141l119 440q14 61 14 82q0 33 -27.5 46.5t-93.5 13.5v55q238 18 414 57l-187 -684q-18 -74 -18 -106q0 -12 9 -21.5t22 -9.5q49 0 131 123l28 41l45 -29q-109 -162 -179 -220t-163 -58q-63 0 -102 36t-39 93zM43 1084l35 143h666l-33 -143h-668z" />
<glyph unicode="&#x12c;" horiz-adv-x="796" d="M-49 0v51q76 10 109.5 39t54.5 109l252 919q20 74 20 125q0 39 -26.5 50.5t-122.5 25.5v51h610v-51q-80 -10 -114 -39t-54 -109l-234 -860q-37 -139 -36 -178q0 -43 30.5 -60.5t116.5 -21.5v-51h-606zM381 1778v27h88q18 -184 209 -185q100 0 162 42t109 143h80 q-29 -160 -123.5 -246t-243.5 -86q-281 0 -281 305z" />
<glyph unicode="&#x12d;" horiz-adv-x="569" d="M4 111q0 49 27 141l119 440q14 61 14 82q0 33 -27.5 46.5t-93.5 13.5v55q238 18 414 57l-187 -684q-18 -74 -18 -106q0 -12 9 -21.5t22 -9.5q49 0 131 123l28 41l45 -29q-109 -162 -179 -220t-163 -58q-63 0 -102 36t-39 93zM161 1354v27h88q18 -184 209 -185 q100 0 162 42t109 143h80q-29 -160 -123.5 -246t-243.5 -86q-281 0 -281 305z" />
<glyph unicode="&#x12e;" horiz-adv-x="796" d="M-66 0v51q76 10 110 39t54 109l252 919q20 74 21 125q0 39 -27 50.5t-123 25.5v51h610v-51q-80 -10 -113.5 -39t-53.5 -109l-234 -860q-37 -139 -37 -178q0 -43 31 -60.5t117 -21.5v-51q-41 -35 -41 -92q0 -55 34.5 -88t94.5 -33q27 0 49 7t43.5 19.5t30.5 14.5l45 -29 q-39 -70 -106.5 -111.5t-145.5 -41.5q-94 0 -155.5 47t-61.5 118.5t88 188.5h-482z" />
<glyph unicode="&#x12f;" horiz-adv-x="569" d="M4 111q0 49 27 141l119 440q14 61 14 82q0 33 -27.5 46.5t-93.5 13.5v55q238 18 414 57l-187 -684q-18 -74 -18 -106q0 -12 9 -21.5t22 -9.5q49 0 131 123l28 41l45 -29q-57 -88 -117.5 -154.5t-79 -97.5t-18.5 -90q0 -131 129 -131q27 0 49.5 7t47 20.5t26.5 13.5 l45 -29q-39 -70 -106.5 -111.5t-145.5 -41.5q-94 0 -155.5 47t-61.5 119q0 68 76 172q-14 -2 -35 -2q-59 0 -98 36t-39 93zM262 1268q0 53 41 94t94 41q57 0 99.5 -41t42.5 -98.5t-41 -97.5t-101 -40q-57 0 -96 41.5t-39 100.5z" />
<glyph unicode="&#x130;" horiz-adv-x="796" d="M-49 0v51q76 10 109.5 39t54.5 109l252 919q20 74 20 125q0 39 -26.5 50.5t-122.5 25.5v51h610v-51q-80 -10 -114 -39t-54 -109l-234 -860q-37 -139 -36 -178q0 -43 30.5 -60.5t116.5 -21.5v-51h-606zM510 1612q0 59 49 109t113 50q49 0 79.5 -30.5t30.5 -77.5 q0 -66 -54 -112t-112 -46q-47 0 -76.5 31t-29.5 76z" />
<glyph unicode="&#x131;" horiz-adv-x="569" d="M4 111q0 49 27 141l119 440q14 61 14 82q0 33 -27.5 46.5t-93.5 13.5v55q238 18 414 57l-187 -684q-18 -74 -18 -106q0 -12 9 -21.5t22 -9.5q49 0 131 123l28 41l45 -29q-109 -162 -179 -220t-163 -58q-63 0 -102 36t-39 93z" />
<glyph unicode="&#x134;" horiz-adv-x="1024" d="M-94 4q0 59 38 101t93 42q53 0 91 -37.5t38 -91.5q0 -35 -23.5 -63.5t-23.5 -46.5q0 -37 55 -37t90 67.5t94 294.5l234 885q23 84 22 125q0 33 -29.5 48.5t-119.5 27.5v51h608v-51q-78 -10 -111.5 -39t-54.5 -109l-262 -981q-53 -201 -157.5 -297t-270.5 -96 q-135 0 -223 58.5t-88 148.5zM377 1473l328 356h165l177 -356h-105l-180 194l-268 -194h-117z" />
<glyph unicode="&#x135;" horiz-adv-x="569" d="M39 1182l328 356h165l177 -356h-105l-180 194l-268 -194h-117zM-387 -266q0 45 29.5 76.5t70.5 31.5t71 -29.5t30 -70.5q0 -27 -15.5 -49.5t-15.5 -28.5q0 -8 16.5 -16t32.5 -8q43 0 75 57t70 211l189 727q25 102 24 135q0 39 -24.5 51.5t-102.5 12.5v55q279 25 426 57 l-233 -897q-123 -473 -428 -473q-96 0 -155.5 44t-59.5 114z" />
<glyph unicode="&#x136;" horiz-adv-x="1366" d="M-49 0v51q76 10 108.5 39t55.5 109l250 919q23 84 22 119q0 43 -29.5 56.5t-119.5 25.5v51h634v-51q-92 -8 -132 -38t-60 -110l-127 -466q315 270 438 392t123 167q0 43 -72 51q-6 0 -43 4v51h433v-51q-68 -10 -97.5 -24.5t-95.5 -73.5l-442 -406l321 -692 q16 -37 43 -51.5t86 -20.5v-51h-573v51q39 2 55 5t39 8.5t31 15.5t8 26q0 29 -27 89l-231 495l-137 -510q-4 -20 -4 -35q0 -51 27.5 -69.5t107.5 -24.5v-51h-592zM280 -561l17 11q182 111 203 200v2q0 6 -9 6q-2 0 -19 -4t-36 -4q-57 0 -88 25.5t-31 68.5q0 68 51.5 118 t122.5 50q66 0 106 -43t40 -112q0 -102 -86 -196.5t-232 -160.5l-20 -8z" />
<glyph unicode="&#x137;" horiz-adv-x="1024" d="M133 -561l17 11q182 111 203 200v2q0 6 -9 6q-2 0 -19 -4t-36 -4q-57 0 -88 25.5t-31 68.5q0 68 51.5 118t122.5 50q66 0 106 -43t40 -112q0 -102 -86 -196.5t-232 -160.5l-20 -8zM-47 0l319 1161q16 61 17 86q0 70 -86 70q-27 0 -43 -2v55q199 20 426 62l-252 -943 q195 154 265.5 223.5t70.5 108.5q0 25 -22.5 34t-82.5 13v52h424v-52q-70 -8 -121 -36.5t-155 -118.5l-129 -113q57 -299 86.5 -385t72.5 -86q29 0 57.5 29.5t69.5 101.5l45 -22q-78 -139 -140 -196.5t-138 -57.5q-96 0 -150.5 98t-101.5 358l-80 -55l-102 -385h-250z" />
<glyph unicode="&#x138;" horiz-adv-x="1093" d="M-12 0l188 672q23 84 23 98q0 37 -24.5 49t-88.5 15v55q182 6 406 55l-115 -409h43q45 0 109.5 71.5t111.5 147.5q133 209 287 209q80 0 102.5 -29t22.5 -94q0 -45 -36 -73t-85 -28q-29 0 -46.5 11.5t-21.5 24.5t-14 24.5t-29 11.5q-25 0 -57.5 -41t-60 -93t-70.5 -106.5 t-86 -72.5q49 -2 93 -24.5t58 -63.5l119 -330q12 -31 51 -31l-12 -49h-303l-115 344q-25 94 -67 94h-21l-119 -438h-243z" />
<glyph unicode="&#x139;" horiz-adv-x="1251" d="M-49 0v51q76 10 109.5 40t54.5 108l252 919q20 74 20 125q0 39 -26.5 50.5t-122.5 25.5v51h649v-51q-102 -6 -143.5 -35t-63.5 -113l-264 -978q-10 -37 -10 -66q0 -61 131 -61q256 0 424 118q59 43 101 90.5t93 133.5l49 -11l-121 -397h-1132zM566 1473l250 268 q94 102 143 102q39 0 68.5 -28.5t29.5 -67.5q0 -29 -17.5 -49t-62.5 -47l-311 -178h-100z" />
<glyph unicode="&#x13a;" horiz-adv-x="569" d="M4 104q0 72 70 324l151 541q70 233 70 290.5t-86 57.5q-20 0 -43 -2v55q221 20 428 62l-297 -1072q-45 -168 -45 -204q0 -12 9 -21.5t22 -9.5q49 0 159 164l45 -29q-106 -162 -178.5 -220t-167.5 -58q-61 0 -99 33.5t-38 88.5zM312 1473l250 268q94 102 143 102 q39 0 68.5 -28.5t29.5 -67.5q0 -29 -17.5 -49t-62.5 -47l-311 -178h-100z" />
<glyph unicode="&#x13b;" horiz-adv-x="1251" d="M190 -561l17 11q182 111 203 200v2q0 6 -9 6q-2 0 -19 -4t-36 -4q-57 0 -88 25.5t-31 68.5q0 68 51.5 118t122.5 50q66 0 106 -43t40 -112q0 -102 -86 -196.5t-232 -160.5l-20 -8zM-49 0v51q76 10 109.5 40t54.5 108l252 919q20 74 20 125q0 39 -26.5 50.5t-122.5 25.5 v51h649v-51q-102 -6 -143.5 -35t-63.5 -113l-264 -978q-10 -37 -10 -66q0 -61 131 -61q256 0 424 118q59 43 101 90.5t93 133.5l49 -11l-121 -397h-1132z" />
<glyph unicode="&#x13c;" horiz-adv-x="569" d="M-125 -561l17 11q182 111 203 200v2q0 6 -9 6q-2 0 -19 -4t-36 -4q-57 0 -88 25.5t-31 68.5q0 68 51.5 118t122.5 50q66 0 106 -43t40 -112q0 -102 -86 -196.5t-232 -160.5l-20 -8zM4 104q0 72 70 324l151 541q70 233 70 290.5t-86 57.5q-20 0 -43 -2v55q221 20 428 62 l-297 -1072q-45 -168 -45 -204q0 -12 9 -21.5t22 -9.5q49 0 159 164l45 -29q-106 -162 -178.5 -220t-167.5 -58q-61 0 -99 33.5t-38 88.5z" />
<glyph unicode="&#x13d;" horiz-adv-x="1306" d="M956 950l17 11q182 111 203 200v2q0 6 -9 6q-2 0 -19 -4t-36 -4q-57 0 -88 25.5t-31 68.5q0 68 51.5 118t122.5 50q66 0 106 -43t40 -112q0 -102 -86 -196.5t-232 -160.5l-20 -8zM-49 0v51q76 10 109.5 40t54.5 108l252 919q20 74 20 125q0 39 -26.5 50.5t-122.5 25.5v51 h649v-51q-102 -6 -143.5 -35t-63.5 -113l-264 -978q-10 -37 -10 -66q0 -61 131 -61q256 0 424 118q59 43 101 90.5t93 133.5l49 -11l-121 -397h-1132z" />
<glyph unicode="&#x13e;" horiz-adv-x="868" d="M4 104q0 72 70 324l151 541q70 233 70 290.5t-86 57.5q-20 0 -43 -2v55q221 20 428 62l-297 -1072q-45 -168 -45 -204q0 -12 9 -21.5t22 -9.5q49 0 159 164l45 -29q-106 -162 -178.5 -220t-167.5 -58q-61 0 -99 33.5t-38 88.5zM675 950l17 11q182 111 203 200v2q0 6 -9 6 q-2 0 -19 -4t-36 -4q-57 0 -88 25.5t-31 68.5q0 68 51.5 118t122.5 50q66 0 106 -43t40 -112q0 -102 -86 -196.5t-232 -160.5l-20 -8z" />
<glyph unicode="&#x13f;" horiz-adv-x="1251" d="M-49 0v51q76 10 109.5 40t54.5 108l252 919q20 74 20 125q0 39 -26.5 50.5t-122.5 25.5v51h649v-51q-102 -6 -143.5 -35t-63.5 -113l-264 -978q-10 -37 -10 -66q0 -61 131 -61q256 0 424 118q59 43 101 90.5t93 133.5l49 -11l-121 -397h-1132zM805 522q0 59 50 109.5 t114 50.5q47 0 77.5 -30.5t30.5 -77.5q0 -66 -54 -112t-112 -46q-45 0 -75.5 30.5t-30.5 75.5z" />
<glyph unicode="&#x140;" horiz-adv-x="868" d="M4 104q0 72 70 324l151 541q70 233 70 290.5t-86 57.5q-20 0 -43 -2v55q221 20 428 62l-297 -1072q-45 -168 -45 -204q0 -12 9 -21.5t22 -9.5q49 0 159 164l45 -29q-106 -162 -178.5 -220t-167.5 -58q-61 0 -99 33.5t-38 88.5zM569 444q0 59 50 109.5t114 50.5 q47 0 77.5 -30.5t30.5 -77.5q0 -66 -54 -112t-112 -46q-45 0 -75.5 30.5t-30.5 75.5z" />
<glyph unicode="&#x141;" horiz-adv-x="1251" d="M-45 0v51q78 10 110.5 39t53.5 109l102 370l-213 -114l45 143l205 109l113 411q20 74 20 125q0 39 -26.5 50.5t-122.5 25.5v51h649v-51q-102 -6 -143 -35t-64 -113l-90 -331l307 166l-43 -144l-303 -170l-135 -499q-10 -37 -10 -66q0 -61 131 -61q256 0 424 118 q59 43 101 90.5t93 133.5l49 -11l-121 -397h-1132z" />
<glyph unicode="&#x142;" horiz-adv-x="569" d="M-27 545l39 143l160 88q123 434 123 484q0 57 -86 57q-20 0 -43 -2v55q197 18 428 62l-154 -558l176 97l-38 -140l-177 -96l-104 -375q-45 -164 -45 -204q0 -12 9 -21.5t22 -9.5q27 0 62.5 36t96.5 128l45 -29q-106 -162 -177.5 -220t-166.5 -58q-63 0 -101 33.5 t-38 93.5q0 70 127 524z" />
<glyph unicode="&#x143;" horiz-adv-x="1478" d="M-59 0v51q84 16 116.5 64.5t89.5 249.5l246 841q-29 68 -57.5 86.5t-112.5 26.5v51h400l440 -952l164 588q37 133 37 192t-37 86t-127 35v51h428v-51q-90 -20 -122 -66.5t-87 -246.5l-293 -1037h-57l-527 1125l-202 -729q-37 -137 -37 -193q0 -59 36.5 -86t127.5 -35v-51 h-426zM762 1473l250 268q94 102 143 102q39 0 68.5 -28.5t29.5 -67.5q0 -29 -17.5 -49t-62.5 -47l-311 -178h-100z" />
<glyph unicode="&#x144;" horiz-adv-x="1138" d="M-12 0l114 418q94 332 95 364q0 29 -22.5 39t-88.5 13v55q188 6 410 55l-131 -405q160 236 247.5 321.5t208.5 85.5q72 0 111 -40t39 -113q0 -72 -53 -236l-74 -223q-51 -154 -51 -178q0 -35 28 -35q27 0 54.5 30.5t89.5 124.5l45 -26q-88 -150 -162 -209t-164 -59 q-63 0 -101 32.5t-38 89.5q0 96 57 269l113 340q10 35 10 43q0 16 -16.5 29.5t-34.5 13.5q-29 0 -70 -30t-72 -71q-94 -123 -158.5 -276.5t-137.5 -421.5h-248zM514 1057l250 268q94 102 143 102q39 0 68.5 -28.5t29.5 -67.5q0 -29 -17.5 -49t-62.5 -47l-311 -178h-100z" />
<glyph unicode="&#x145;" horiz-adv-x="1478" d="M260 -561l17 11q182 111 203 200v2q0 6 -9 6q-2 0 -19 -4t-36 -4q-57 0 -88 25.5t-31 68.5q0 68 51.5 118t122.5 50q66 0 106 -43t40 -112q0 -102 -86 -196.5t-232 -160.5l-20 -8zM-59 0v51q84 16 116.5 64.5t89.5 249.5l246 841q-29 68 -57.5 86.5t-112.5 26.5v51h400 l440 -952l164 588q37 133 37 192t-37 86t-127 35v51h428v-51q-90 -20 -122 -66.5t-87 -246.5l-293 -1037h-57l-527 1125l-202 -729q-37 -137 -37 -193q0 -59 36.5 -86t127.5 -35v-51h-426z" />
<glyph unicode="&#x146;" horiz-adv-x="1138" d="M133 -561l17 11q182 111 203 200v2q0 6 -9 6q-2 0 -19 -4t-36 -4q-57 0 -88 25.5t-31 68.5q0 68 51.5 118t122.5 50q66 0 106 -43t40 -112q0 -102 -86 -196.5t-232 -160.5l-20 -8zM-12 0l114 418q94 332 95 364q0 29 -22.5 39t-88.5 13v55q188 6 410 55l-131 -405 q160 236 247.5 321.5t208.5 85.5q72 0 111 -40t39 -113q0 -72 -53 -236l-74 -223q-51 -154 -51 -178q0 -35 28 -35q27 0 54.5 30.5t89.5 124.5l45 -26q-88 -150 -162 -209t-164 -59q-63 0 -101 32.5t-38 89.5q0 96 57 269l113 340q10 35 10 43q0 16 -16.5 29.5t-34.5 13.5 q-29 0 -70 -30t-72 -71q-94 -123 -158.5 -276.5t-137.5 -421.5h-248z" />
<glyph unicode="&#x147;" horiz-adv-x="1478" d="M-59 0v51q84 16 116.5 64.5t89.5 249.5l246 841q-29 68 -57.5 86.5t-112.5 26.5v51h400l440 -952l164 588q37 133 37 192t-37 86t-127 35v51h428v-51q-90 -20 -122 -66.5t-87 -246.5l-293 -1037h-57l-527 1125l-202 -729q-37 -137 -37 -193q0 -59 36.5 -86t127.5 -35v-51 h-426zM639 1843h102l187 -199l276 199h115l-332 -356h-168z" />
<glyph unicode="&#x148;" horiz-adv-x="1138" d="M-12 0l114 418q94 332 95 364q0 29 -22.5 39t-88.5 13v55q188 6 410 55l-131 -405q160 236 247.5 321.5t208.5 85.5q72 0 111 -40t39 -113q0 -72 -53 -236l-74 -223q-51 -154 -51 -178q0 -35 28 -35q27 0 54.5 30.5t89.5 124.5l45 -26q-88 -150 -162 -209t-164 -59 q-63 0 -101 32.5t-38 89.5q0 96 57 269l113 340q10 35 10 43q0 16 -16.5 29.5t-34.5 13.5q-29 0 -70 -30t-72 -71q-94 -123 -158.5 -276.5t-137.5 -421.5h-248zM391 1413h102l187 -199l276 199h115l-332 -356h-168z" />
<glyph unicode="&#x149;" horiz-adv-x="1138" d="M-12 0l114 418q94 332 95 364q0 29 -22.5 39t-88.5 13v55q188 6 410 55l-131 -405q160 236 247.5 321.5t208.5 85.5q72 0 111 -40t39 -113q0 -72 -53 -236l-74 -223q-51 -154 -51 -178q0 -35 28 -35q27 0 54.5 30.5t89.5 124.5l45 -26q-88 -150 -162 -209t-164 -59 q-63 0 -101 32.5t-38 89.5q0 96 57 269l113 340q10 35 10 43q0 16 -16.5 29.5t-34.5 13.5q-29 0 -70 -30t-72 -71q-94 -123 -158.5 -276.5t-137.5 -421.5h-248zM192 1085l17 11q182 111 203 200v2q0 6 -9 6q-2 0 -19 -4t-36 -4q-57 0 -88 25.5t-31 68.5q0 68 51.5 118 t122.5 50q66 0 106 -43t40 -112q0 -102 -86 -196.5t-232 -160.5l-20 -8z" />
<glyph unicode="&#x14a;" horiz-adv-x="1478" d="M-55 0v51q37 8 65.5 27.5t46 38t33.5 54.5t23.5 57.5t19.5 68.5t19 68l245 841q-29 68 -60.5 87.5t-109.5 25.5v51h400l440 -952l164 588q37 133 37 188q0 49 -25.5 76.5t-56.5 36t-82 12.5v51h428v-51q-39 -10 -68.5 -28.5t-47 -36t-34 -53.5t-22.5 -55.5t-18.5 -69.5 t-18.5 -70l-309 -1102q-41 -143 -142.5 -235.5t-242.5 -92.5q-86 0 -151.5 39t-65.5 119q0 43 29.5 75.5t70.5 32.5t70.5 -29.5t29.5 -70.5q0 -25 -15 -49.5t-15 -28.5q0 -10 17 -17t28 -7q240 0 329 362l-510 1092l-202 -729q-37 -133 -37 -189q0 -49 25.5 -76.5t56 -36 t82.5 -12.5v-51h-426z" />
<glyph unicode="&#x14b;" horiz-adv-x="1120" d="M-12 0q4 16 62.5 219t102.5 366t44 195q0 53 -95 54h-16v55q160 0 410 55l-123 -381l6 -4q6 10 38 57.5t44 65.5t46 62t53.5 64.5t54 52.5t63.5 46.5t64.5 26.5t72.5 12q156 0 156 -162q0 -29 -6.5 -59.5t-19.5 -76.5t-15 -56l-142 -543q-123 -473 -426 -473 q-84 0 -150.5 40t-66.5 118q0 43 30 75.5t71 32.5t70.5 -29.5t29.5 -70.5q0 -25 -15.5 -49.5t-15.5 -28.5q0 -10 17.5 -17t27.5 -7q18 0 36 10t32 31.5t24.5 42t20.5 51t15.5 50t12.5 47.5l9 36l188 727q27 113 27 119q0 18 -16.5 31.5t-34.5 13.5q-72 0 -148.5 -101.5 t-137 -253t-96.5 -259t-56 -185.5h-248z" />
<glyph unicode="&#x14c;" horiz-adv-x="1478" d="M55 453q0 147 65.5 313t177.5 308.5t276.5 235.5t345.5 93q213 0 354 -134t141 -339q0 -158 -64.5 -328t-175 -312.5t-279.5 -234.5t-357 -92q-217 0 -350.5 135.5t-133.5 354.5zM350 281q0 -115 56.5 -181.5t152.5 -66.5q160 0 297 198q102 152 183 412t81 444 q0 111 -57 178.5t-152 67.5q-193 0 -344 -268q-84 -147 -150.5 -386.5t-66.5 -397.5zM585 1498l35 143h666l-33 -143h-668z" />
<glyph unicode="&#x14d;" horiz-adv-x="1024" d="M-6 276q0 258 181 464t407 206q139 0 230 -87t91 -222q0 -260 -177 -462t-407 -202q-141 0 -233 86t-92 217zM238 160q0 -57 26.5 -92t73.5 -35q76 0 141.5 94t102 224t57 244t20.5 173q0 55 -25.5 87t-70.5 32q-90 0 -168 -132t-117.5 -297t-39.5 -298zM276 1092l35 143 h666l-33 -143h-668z" />
<glyph unicode="&#x14e;" horiz-adv-x="1478" d="M55 453q0 147 65.5 313t177.5 308.5t276.5 235.5t345.5 93q213 0 354 -134t141 -339q0 -158 -64.5 -328t-175 -312.5t-279.5 -234.5t-357 -92q-217 0 -350.5 135.5t-133.5 354.5zM350 281q0 -115 56.5 -181.5t152.5 -66.5q160 0 297 198q102 152 183 412t81 444 q0 111 -57 178.5t-152 67.5q-193 0 -344 -268q-84 -147 -150.5 -386.5t-66.5 -397.5zM702 1778v27h88q18 -184 209 -185q100 0 162 42t109 143h80q-29 -160 -123.5 -246t-243.5 -86q-281 0 -281 305z" />
<glyph unicode="&#x14f;" horiz-adv-x="1024" d="M-6 276q0 258 181 464t407 206q139 0 230 -87t91 -222q0 -260 -177 -462t-407 -202q-141 0 -233 86t-92 217zM238 160q0 -57 26.5 -92t73.5 -35q76 0 141.5 94t102 224t57 244t20.5 173q0 55 -25.5 87t-70.5 32q-90 0 -168 -132t-117.5 -297t-39.5 -298zM378 1354v27h88 q18 -184 209 -185q100 0 162 42t109 143h80q-29 -160 -123.5 -246t-243.5 -86q-281 0 -281 305z" />
<glyph unicode="&#x150;" horiz-adv-x="1478" d="M55 453q0 147 65.5 313t177.5 308.5t276.5 235.5t345.5 93q213 0 354 -134t141 -339q0 -158 -64.5 -328t-175 -312.5t-279.5 -234.5t-357 -92q-217 0 -350.5 135.5t-133.5 354.5zM350 281q0 -115 56.5 -181.5t152.5 -66.5q160 0 297 198q102 152 183 412t81 444 q0 111 -57 178.5t-152 67.5q-193 0 -344 -268q-84 -147 -150.5 -386.5t-66.5 -397.5zM678 1473l250 268q94 102 144 102q39 0 68.5 -28.5t29.5 -67.5q0 -29 -17.5 -49t-62.5 -47l-311 -178h-101zM1065 1473l250 268q94 102 144 102q39 0 68.5 -28.5t29.5 -67.5 q0 -29 -17.5 -49t-62.5 -47l-311 -178h-101z" />
<glyph unicode="&#x151;" horiz-adv-x="1024" d="M-6 276q0 258 181 464t407 206q139 0 230 -87t91 -222q0 -260 -177 -462t-407 -202q-141 0 -233 86t-92 217zM238 160q0 -57 26.5 -92t73.5 -35q76 0 141.5 94t102 224t57 244t20.5 173q0 55 -25.5 87t-70.5 32q-90 0 -168 -132t-117.5 -297t-39.5 -298zM336 1057 l250 268q94 102 144 102q39 0 68.5 -28.5t29.5 -67.5q0 -29 -17.5 -49t-62.5 -47l-311 -178h-101zM723 1057l250 268q94 102 144 102q39 0 68.5 -28.5t29.5 -67.5q0 -29 -17.5 -49t-62.5 -47l-311 -178h-101z" />
<glyph unicode="&#x152;" horiz-adv-x="1933" d="M47 457q0 217 108.5 428t288.5 348q115 84 227.5 118.5t278.5 34.5q25 0 143.5 -8t157.5 -8h686l-94 -391l-51 12q4 57 4 76q0 238 -338 238q-53 0 -72.5 -16.5t-35.5 -80.5l-125 -450h61q133 0 206 47t120 164l55 -6l-147 -557l-56 10q2 18 2 39q6 53 7 84 q0 37 -14.5 62.5t-32 39.5t-60.5 24.5t-69.5 13.5t-90.5 9l-131 -502q-8 -37 -8 -51q0 -70 150 -69q180 0 299.5 77.5t226.5 264.5l55 -11l-123 -397h-663q-20 -2 -49 -2h-45l-316 -14l-41 -2q-125 0 -221 32.5t-150.5 80.5t-87 116t-44 125.5t-11.5 120.5zM336 324 q0 -125 67.5 -200t180.5 -75q88 0 138 46t81 157l221 801q25 92 25 139q0 129 -150 129q-178 0 -324 -205q-96 -139 -167.5 -375.5t-71.5 -416.5z" />
<glyph unicode="&#x153;" horiz-adv-x="1478" d="M12 295q0 141 74 289.5t217 255t311 106.5q82 0 136.5 -28.5t101.5 -98.5q90 72 154.5 99.5t144.5 27.5q106 0 167.5 -50t61.5 -136q0 -143 -178 -258q-70 -45 -133 -67.5t-221 -57.5q-16 -76 -17 -115q0 -160 138 -160q72 0 123 39t118 144l58 -31q-25 -47 -44.5 -78 t-67.5 -86t-117.5 -86t-155.5 -31q-129 0 -240 117q-129 -117 -303 -117q-145 0 -236.5 89.5t-91.5 232.5zM254 199q0 -166 108 -166q70 0 134.5 88t104.5 208t64.5 232.5t24.5 173.5q0 152 -112 152q-72 0 -137.5 -88t-103.5 -209t-60.5 -228.5t-22.5 -162.5zM862 446 q172 51 255 146.5t83 210.5q0 37 -20.5 59.5t-55.5 22.5q-37 0 -69.5 -29t-68.5 -103.5t-57.5 -128t-66.5 -178.5z" />
<glyph unicode="&#x154;" horiz-adv-x="1366" d="M-49 0v51q76 10 109.5 39t54.5 109l252 919q20 70 20 125q0 39 -26.5 50.5t-122.5 25.5v51h565q483 0 483 -293q0 -43 -12 -86t-48 -103.5t-121 -110.5t-212 -75l170 -503q31 -90 61.5 -115t118.5 -33v-51h-414l-219 678h-59l-113 -395q-29 -98 -28 -146 q0 -45 28.5 -62.5t118.5 -23.5v-51h-606zM569 743q186 2 260 52q66 41 107 128t41 187q0 92 -48 143.5t-136 51.5q-47 0 -66.5 -17.5t-34.5 -73.5zM637 1473l250 268q94 102 143 102q39 0 68.5 -28.5t29.5 -67.5q0 -29 -17.5 -49t-62.5 -47l-311 -178h-100z" />
<glyph unicode="&#x155;" horiz-adv-x="796" d="M-43 0q209 705 209 782q0 29 -20.5 38t-90.5 14v55q268 23 410 57l-135 -428q121 244 196.5 336t153.5 92q53 0 85 -37t32 -98q0 -66 -35 -107.5t-86 -41.5q-41 0 -79 38.5t-44 38.5q-45 0 -123 -138t-158 -388q-8 -31 -67 -213h-248zM342 1057l250 268q94 102 143 102 q39 0 68.5 -28.5t29.5 -67.5q0 -29 -17.5 -49t-62.5 -47l-311 -178h-100z" />
<glyph unicode="&#x156;" horiz-adv-x="1366" d="M251 -561l17 11q182 111 203 200v2q0 6 -9 6q-2 0 -19 -4t-36 -4q-57 0 -88 25.5t-31 68.5q0 68 51.5 118t122.5 50q66 0 106 -43t40 -112q0 -102 -86 -196.5t-232 -160.5l-20 -8zM-49 0v51q76 10 109.5 39t54.5 109l252 919q20 70 20 125q0 39 -26.5 50.5t-122.5 25.5 v51h565q483 0 483 -293q0 -43 -12 -86t-48 -103.5t-121 -110.5t-212 -75l170 -503q31 -90 61.5 -115t118.5 -33v-51h-414l-219 678h-59l-113 -395q-29 -98 -28 -146q0 -45 28.5 -62.5t118.5 -23.5v-51h-606zM569 743q186 2 260 52q66 41 107 128t41 187q0 92 -48 143.5 t-136 51.5q-47 0 -66.5 -17.5t-34.5 -73.5z" />
<glyph unicode="&#x157;" horiz-adv-x="796" d="M-95 -561l17 11q182 111 203 200v2q0 6 -9 6q-2 0 -19 -4t-36 -4q-57 0 -88 25.5t-31 68.5q0 68 51.5 118t122.5 50q66 0 106 -43t40 -112q0 -102 -86 -196.5t-232 -160.5l-20 -8zM-43 0q209 705 209 782q0 29 -20.5 38t-90.5 14v55q268 23 410 57l-135 -428 q121 244 196.5 336t153.5 92q53 0 85 -37t32 -98q0 -66 -35 -107.5t-86 -41.5q-41 0 -79 38.5t-44 38.5q-45 0 -123 -138t-158 -388q-8 -31 -67 -213h-248z" />
<glyph unicode="&#x158;" horiz-adv-x="1366" d="M-49 0v51q76 10 109.5 39t54.5 109l252 919q20 70 20 125q0 39 -26.5 50.5t-122.5 25.5v51h565q483 0 483 -293q0 -43 -12 -86t-48 -103.5t-121 -110.5t-212 -75l170 -503q31 -90 61.5 -115t118.5 -33v-51h-414l-219 678h-59l-113 -395q-29 -98 -28 -146 q0 -45 28.5 -62.5t118.5 -23.5v-51h-606zM569 743q186 2 260 52q66 41 107 128t41 187q0 92 -48 143.5t-136 51.5q-47 0 -66.5 -17.5t-34.5 -73.5zM516 1843h102l187 -199l276 199h115l-332 -356h-168z" />
<glyph unicode="&#x159;" horiz-adv-x="796" d="M-43 0q209 705 209 782q0 29 -20.5 38t-90.5 14v55q268 23 410 57l-135 -428q121 244 196.5 336t153.5 92q53 0 85 -37t32 -98q0 -66 -35 -107.5t-86 -41.5q-41 0 -79 38.5t-44 38.5q-45 0 -123 -138t-158 -388q-8 -31 -67 -213h-248zM219 1413h102l187 -199l276 199h115 l-332 -356h-168z" />
<glyph unicode="&#x15a;" horiz-adv-x="1138" d="M4 -51l74 459l59 -4q25 -385 316 -385q115 0 186.5 74.5t71.5 183.5q0 72 -51.5 140.5t-125 129t-148.5 122.5t-126 146t-51 177q0 170 118.5 283.5t293.5 113.5q70 0 176 -31t129 -31q63 0 90 54h61l-82 -412l-55 8q-20 180 -83.5 260t-186.5 80q-98 0 -155.5 -58.5 t-57.5 -156.5q0 -70 30.5 -116t126.5 -117q188 -143 266 -258t78 -246q0 -190 -126.5 -303t-342.5 -113q-100 0 -211.5 36t-134.5 36q-29 0 -44 -13.5t-33 -58.5h-62zM514 1473l250 268q94 102 143 102q39 0 68.5 -28.5t29.5 -67.5q0 -29 -17.5 -49t-62.5 -47l-311 -178 h-100z" />
<glyph unicode="&#x15b;" horiz-adv-x="796" d="M-39 -27l45 340l55 -6q43 -272 197 -272q49 0 83 31.5t34 78.5q0 49 -44 115t-95.5 124t-95.5 141t-44 163q0 117 75 187.5t200 70.5q45 0 109.5 -22.5t82.5 -22.5q23 0 33 7t27 36h59l-47 -313l-55 4q-25 127 -68 185.5t-113 58.5q-49 0 -78.5 -30t-29.5 -79 q0 -43 44 -107.5t96 -124t96 -141.5t44 -153q0 -115 -87 -193t-216 -78q-53 0 -115.5 20.5t-76.5 20.5q-45 0 -60 -41h-55zM342 1057l250 268q94 102 143 102q39 0 68.5 -28.5t29.5 -67.5q0 -29 -17.5 -49t-62.5 -47l-311 -178h-100z" />
<glyph unicode="&#x15c;" horiz-adv-x="1138" d="M4 -37l74 459l59 -4q25 -385 316 -385q115 0 186.5 74.5t71.5 183.5q0 72 -51.5 140.5t-125 129t-148.5 122.5t-126 146t-51 177q0 170 118.5 283.5t293.5 113.5q70 0 176 -31t129 -31q63 0 90 54h61l-82 -412l-55 8q-20 180 -83.5 260t-186.5 80q-98 0 -155.5 -58.5 t-57.5 -156.5q0 -70 30.5 -116t126.5 -117q188 -143 266 -258t78 -246q0 -190 -126.5 -303t-342.5 -113q-100 0 -211.5 36t-134.5 36q-29 0 -44 -13.5t-33 -58.5h-62zM463 1473l328 356h165l177 -356h-105l-180 194l-268 -194h-117z" />
<glyph unicode="&#x15d;" horiz-adv-x="796" d="M-39 -27l45 340l55 -6q43 -272 197 -272q49 0 83 31.5t34 78.5q0 49 -44 115t-95.5 124t-95.5 141t-44 163q0 117 75 187.5t200 70.5q45 0 109.5 -22.5t82.5 -22.5q23 0 33 7t27 36h59l-47 -313l-55 4q-25 127 -68 185.5t-113 58.5q-49 0 -78.5 -30t-29.5 -79 q0 -43 44 -107.5t96 -124t96 -141.5t44 -153q0 -115 -87 -193t-216 -78q-53 0 -115.5 20.5t-76.5 20.5q-45 0 -60 -41h-55zM160 1049l328 356h165l177 -356h-105l-180 194l-268 -194h-117z" />
<glyph unicode="&#x15e;" horiz-adv-x="1138" d="M4 -37l74 459l59 -4q25 -385 316 -385q115 0 186.5 74.5t71.5 183.5q0 72 -51.5 140.5t-125 129t-148.5 122.5t-126 146t-51 177q0 170 118.5 283.5t293.5 113.5q70 0 176 -31t129 -31q63 0 90 54h61l-82 -412l-55 8q-20 180 -83.5 260t-186.5 80q-98 0 -155.5 -58.5 t-57.5 -156.5q0 -70 30.5 -116t126.5 -117q188 -143 266 -258t78 -246q0 -193 -128 -304.5t-347 -111.5q-39 0 -69 4l-62 -94q31 6 51 6q82 0 134.5 -42t52.5 -105q0 -76 -73 -127t-181 -51q-106 0 -230 51l46 67q76 -35 137 -34q53 0 83.5 22.5t30.5 60.5q0 35 -25.5 54.5 t-70.5 19.5q-31 0 -61 -8l-27 25l115 170q-176 53 -191 53q-29 0 -44 -13.5t-33 -58.5h-62z" />
<glyph unicode="&#x15f;" horiz-adv-x="796" d="M-82 -395l45 67q76 -35 137 -34q53 0 84 22.5t31 60.5q0 35 -25.5 54.5t-70.5 19.5q-29 0 -62 -8l-26 25l123 182q-12 4 -15 4q-43 16 -63 16q-45 0 -60 -41h-55l45 340l55 -6q43 -272 197 -272q49 0 83 31.5t34 78.5q0 49 -44 115t-95.5 124t-95.5 141t-44 163 q0 117 75 187.5t200 70.5q45 0 109.5 -22.5t82.5 -22.5q23 0 33 7t27 36h59l-47 -313l-55 4q-25 127 -68 185.5t-113 58.5q-49 0 -78.5 -30t-29.5 -79q0 -43 44 -107.5t96 -124t96 -141.5t44 -153q0 -115 -87 -193t-212 -78q-23 0 -39 2l-69 -102q31 6 53 6q80 0 132 -42 t52 -105q0 -76 -72.5 -127t-181.5 -51q-104 0 -229 51z" />
<glyph unicode="&#x160;" horiz-adv-x="1138" d="M4 -37l74 459l59 -4q25 -385 316 -385q115 0 186.5 74.5t71.5 183.5q0 72 -51.5 140.5t-125 129t-148.5 122.5t-126 146t-51 177q0 170 118.5 283.5t293.5 113.5q70 0 176 -31t129 -31q63 0 90 54h61l-82 -412l-55 8q-20 180 -83.5 260t-186.5 80q-98 0 -155.5 -58.5 t-57.5 -156.5q0 -70 30.5 -116t126.5 -117q188 -143 266 -258t78 -246q0 -190 -126.5 -303t-342.5 -113q-100 0 -211.5 36t-134.5 36q-29 0 -44 -13.5t-33 -58.5h-62zM391 1837h102l187 -199l276 199h115l-332 -356h-168z" />
<glyph unicode="&#x161;" horiz-adv-x="796" d="M-39 -27l45 340l55 -6q43 -272 197 -272q49 0 83 31.5t34 78.5q0 49 -44 115t-95.5 124t-95.5 141t-44 163q0 117 75 187.5t200 70.5q45 0 109.5 -22.5t82.5 -22.5q23 0 33 7t27 36h59l-47 -313l-55 4q-25 127 -68 185.5t-113 58.5q-49 0 -78.5 -30t-29.5 -79 q0 -43 44 -107.5t96 -124t96 -141.5t44 -153q0 -115 -87 -193t-216 -78q-53 0 -115.5 20.5t-76.5 20.5q-45 0 -60 -41h-55zM219 1413h102l187 -199l276 199h115l-332 -356h-168z" />
<glyph unicode="&#x162;" horiz-adv-x="1251" d="M74 -403l45 67q76 -35 137 -35q53 0 84 22.5t31 61.5q0 35 -26 54.5t-71 19.5q-29 0 -61 -8l-27 24l133 197h-217v51h29q78 0 121 35t65 113l304 1099q-158 -4 -261.5 -71.5t-183.5 -220.5l-51 14l78 350h1128l-74 -393l-55 4q-8 170 -72.5 242.5t-209.5 74.5l-287 -1036 q-23 -84 -23 -127q0 -49 31 -64.5t139 -19.5v-51h-370l-91 -135q31 6 54 6q80 0 132 -42t52 -105q0 -76 -72.5 -127.5t-181.5 -51.5q-104 1 -229 52z" />
<glyph unicode="&#x163;" horiz-adv-x="569" d="M-23 115q0 63 50 231l139 488h-105v71q121 47 207 117t168 195h72l-80 -297h147v-86h-169l-68 -242q-111 -395 -111 -436q0 -10 10.5 -20.5t22.5 -10.5q51 0 156 164l45 -29q-102 -158 -175 -218t-165 -60q-63 0 -103.5 37t-40.5 96zM-238 -424l45 67q76 -35 137 -34 q53 0 84 22.5t31 60.5q0 35 -25.5 54.5t-70.5 19.5q-29 0 -62 -8l-26 25l135 198h90l-92 -137q31 6 53 6q80 0 132 -42t52 -105q0 -76 -72.5 -127t-180.5 -51q-105 0 -230 51z" />
<glyph unicode="&#x164;" horiz-adv-x="1251" d="M102 0v51h29q78 0 121 35t65 113l304 1099q-158 -4 -261.5 -71.5t-183.5 -220.5l-51 14l78 350h1128l-74 -393l-55 4q-8 170 -72.5 242.5t-209.5 74.5l-287 -1036q-23 -84 -23 -127q0 -49 31 -64.5t139 -19.5v-51h-678zM549 1843h102l187 -199l276 199h115l-332 -356 h-168z" />
<glyph unicode="&#x165;" horiz-adv-x="630" d="M622 950l17 11q182 111 203 200v2q0 6 -9 6q-2 0 -19 -4t-36 -4q-57 0 -88 25.5t-31 68.5q0 68 51.5 118t122.5 50q66 0 106 -43t40 -112q0 -102 -86 -196.5t-232 -160.5l-20 -8zM-23 115q0 63 50 231l139 488h-105v71q121 47 207 117t168 195h72l-80 -297h147v-86h-169 l-68 -242q-111 -395 -111 -436q0 -10 10.5 -20.5t22.5 -10.5q51 0 156 164l45 -29q-102 -158 -175 -218t-165 -60q-63 0 -103.5 37t-40.5 96z" />
<glyph unicode="&#x166;" horiz-adv-x="1251" d="M102 0v51h29q78 0 121 35t65 113l142 510h-185l35 143h189l123 446q-158 -4 -261.5 -71.5t-183.5 -220.5l-51 14l78 350h1128l-74 -393l-55 4q-8 170 -72.5 242.5t-209.5 74.5l-123 -446h178l-33 -143h-186l-123 -447q-23 -84 -23 -127q0 -49 31 -64.5t139 -19.5v-51 h-678z" />
<glyph unicode="&#x167;" horiz-adv-x="569" d="M-31 516l29 143h119l49 175h-105v71q121 47 207 117t168 195h72l-80 -297h147v-86h-169l-50 -175h189l-27 -143h-203q-88 -303 -88 -360q0 -10 10.5 -20.5t22.5 -10.5q51 0 156 164l45 -29q-102 -158 -175 -218t-165 -60q-63 0 -103.5 36.5t-40.5 96.5q0 63 50 231 l49 170h-107z" />
<glyph unicode="&#x168;" horiz-adv-x="1478" d="M137 303q0 113 68 359l114 421q31 113 31 156q0 33 -18.5 48.5t-67.5 23.5q-6 0 -63 8v51h637v-51q-96 -4 -132 -31.5t-61 -116.5l-168 -614q-57 -209 -57 -272q0 -96 66.5 -151.5t183.5 -55.5q168 0 272 123q86 106 162 377l119 428q39 145 39 198t-38 80t-126 35v51 h426v-51q-86 -16 -119 -64.5t-90 -248.5l-135 -467q-2 -6 -16.5 -61.5t-22.5 -79t-28.5 -81t-42 -88t-54.5 -79t-73 -76t-91 -56t-116.5 -42t-141.5 -13.5q-201 0 -329 95t-128 245zM592 1475q43 111 121.5 176t166.5 65q66 0 165.5 -43t125.5 -43q35 0 62.5 19.5t60.5 66.5 h84q-61 -127 -130 -185t-161 -58q-47 0 -110 26l-111 47q-41 16 -76 17q-33 0 -59.5 -19.5t-56.5 -68.5h-82z" />
<glyph unicode="&#x169;" horiz-adv-x="1138" d="M31 133q0 74 43 221l82 273q29 92 28 149q0 31 -22.5 42t-91.5 16v55q123 4 428 57l-193 -631q-31 -102 -31 -135q0 -51 43 -51q57 0 150 113q88 111 146.5 247t144.5 431h241l-159 -549q-51 -176 -52 -207v-3v-5q0 -35 29 -35q47 0 148 151l43 -26q-154 -264 -330 -264 q-133 0 -133 122q0 76 49 226q-158 -221 -232.5 -284.5t-177.5 -63.5q-153 -1 -153 151zM293 1051q43 111 121.5 176t166.5 65q66 0 165.5 -43t125.5 -43q35 0 62.5 19.5t60.5 66.5h84q-61 -127 -130 -185t-161 -58q-47 0 -110 26l-111 47q-41 16 -76 17q-33 0 -59.5 -19.5 t-56.5 -68.5h-82z" />
<glyph unicode="&#x16a;" horiz-adv-x="1478" d="M137 303q0 113 68 359l114 421q31 113 31 156q0 33 -18.5 48.5t-67.5 23.5q-6 0 -63 8v51h637v-51q-96 -4 -132 -31.5t-61 -116.5l-168 -614q-57 -209 -57 -272q0 -96 66.5 -151.5t183.5 -55.5q168 0 272 123q86 106 162 377l119 428q39 145 39 198t-38 80t-126 35v51 h426v-51q-86 -16 -119 -64.5t-90 -248.5l-135 -467q-2 -6 -16.5 -61.5t-22.5 -79t-28.5 -81t-42 -88t-54.5 -79t-73 -76t-91 -56t-116.5 -42t-141.5 -13.5q-201 0 -329 95t-128 245zM585 1563l35 143h666l-33 -143h-668z" />
<glyph unicode="&#x16b;" horiz-adv-x="1138" d="M31 133q0 74 43 221l82 273q29 92 28 149q0 31 -22.5 42t-91.5 16v55q123 4 428 57l-193 -631q-31 -102 -31 -135q0 -51 43 -51q57 0 150 113q88 111 146.5 247t144.5 431h241l-159 -549q-51 -176 -52 -207v-3v-5q0 -35 29 -35q47 0 148 151l43 -26q-154 -264 -330 -264 q-133 0 -133 122q0 76 49 226q-158 -221 -232.5 -284.5t-177.5 -63.5q-153 -1 -153 151zM333 1094l35 143h666l-33 -143h-668z" />
<glyph unicode="&#x16c;" horiz-adv-x="1478" d="M137 303q0 113 68 359l114 421q31 113 31 156q0 33 -18.5 48.5t-67.5 23.5q-6 0 -63 8v51h637v-51q-96 -4 -132 -31.5t-61 -116.5l-168 -614q-57 -209 -57 -272q0 -96 66.5 -151.5t183.5 -55.5q168 0 272 123q86 106 162 377l119 428q39 145 39 198t-38 80t-126 35v51 h426v-51q-86 -16 -119 -64.5t-90 -248.5l-135 -467q-2 -6 -16.5 -61.5t-22.5 -79t-28.5 -81t-42 -88t-54.5 -79t-73 -76t-91 -56t-116.5 -42t-141.5 -13.5q-201 0 -329 95t-128 245zM665 1778v27h88q18 -184 209 -185q100 0 162 42t109 143h80q-29 -160 -123.5 -246 t-243.5 -86q-281 0 -281 305z" />
<glyph unicode="&#x16d;" horiz-adv-x="1138" d="M31 133q0 74 43 221l82 273q29 92 28 149q0 31 -22.5 42t-91.5 16v55q123 4 428 57l-193 -631q-31 -102 -31 -135q0 -51 43 -51q57 0 150 113q88 111 146.5 247t144.5 431h241l-159 -549q-51 -176 -52 -207v-3v-5q0 -35 29 -35q47 0 148 151l43 -26q-154 -264 -330 -264 q-133 0 -133 122q0 76 49 226q-158 -221 -232.5 -284.5t-177.5 -63.5q-153 -1 -153 151zM438 1354v27h88q18 -184 209 -185q100 0 162 42t109 143h80q-29 -160 -123.5 -246t-243.5 -86q-281 0 -281 305z" />
<glyph unicode="&#x16e;" horiz-adv-x="1478" d="M137 303q0 113 68 359l114 421q31 113 31 156q0 33 -18.5 48.5t-67.5 23.5q-6 0 -63 8v51h637v-51q-96 -4 -132 -31.5t-61 -116.5l-168 -614q-57 -209 -57 -272q0 -96 66.5 -151.5t183.5 -55.5q168 0 272 123q86 106 162 377l119 428q39 145 39 198t-38 80t-126 35v51 h426v-51q-86 -16 -119 -64.5t-90 -248.5l-135 -467q-2 -6 -16.5 -61.5t-22.5 -79t-28.5 -81t-42 -88t-54.5 -79t-73 -76t-91 -56t-116.5 -42t-141.5 -13.5q-201 0 -329 95t-128 245zM785 1598q0 98 78.5 172t173.5 74q72 0 117.5 -47.5t45.5 -116.5q0 -92 -76.5 -168 t-175.5 -76q-74 0 -118.5 46t-44.5 116zM877 1616q0 -39 24.5 -63.5t63.5 -24.5q51 0 96 38t45 93q0 39 -25.5 66t-66.5 27q-47 0 -92 -41.5t-45 -94.5z" />
<glyph unicode="&#x16f;" horiz-adv-x="1138" d="M31 133q0 74 43 221l82 273q29 92 28 149q0 31 -22.5 42t-91.5 16v55q123 4 428 57l-193 -631q-31 -102 -31 -135q0 -51 43 -51q57 0 150 113q88 111 146.5 247t144.5 431h241l-159 -549q-51 -176 -52 -207v-3v-5q0 -35 29 -35q47 0 148 151l43 -26q-154 -264 -330 -264 q-133 0 -133 122q0 76 49 226q-158 -221 -232.5 -284.5t-177.5 -63.5q-153 -1 -153 151zM451 1239q0 98 78.5 172t173.5 74q72 0 117.5 -47.5t45.5 -116.5q0 -92 -76.5 -168t-175.5 -76q-74 0 -118.5 46t-44.5 116zM543 1257q0 -39 24.5 -63.5t63.5 -24.5q51 0 96 38t45 93 q0 39 -25.5 66t-66.5 27q-47 0 -92 -41.5t-45 -94.5z" />
<glyph unicode="&#x170;" horiz-adv-x="1478" d="M137 303q0 113 68 359l114 421q31 113 31 156q0 33 -18.5 48.5t-67.5 23.5q-6 0 -63 8v51h637v-51q-96 -4 -132 -31.5t-61 -116.5l-168 -614q-57 -209 -57 -272q0 -96 66.5 -151.5t183.5 -55.5q168 0 272 123q86 106 162 377l119 428q39 145 39 198t-38 80t-126 35v51 h426v-51q-86 -16 -119 -64.5t-90 -248.5l-135 -467q-2 -6 -16.5 -61.5t-22.5 -79t-28.5 -81t-42 -88t-54.5 -79t-73 -76t-91 -56t-116.5 -42t-141.5 -13.5q-201 0 -329 95t-128 245zM671 1473l250 268q94 102 144 102q39 0 68.5 -28.5t29.5 -67.5q0 -29 -17.5 -49t-62.5 -47 l-311 -178h-101zM1058 1473l250 268q94 102 144 102q39 0 68.5 -28.5t29.5 -67.5q0 -29 -17.5 -49t-62.5 -47l-311 -178h-101z" />
<glyph unicode="&#x171;" horiz-adv-x="1138" d="M31 133q0 74 43 221l82 273q29 92 28 149q0 31 -22.5 42t-91.5 16v55q123 4 428 57l-193 -631q-31 -102 -31 -135q0 -51 43 -51q57 0 150 113q88 111 146.5 247t144.5 431h241l-159 -549q-51 -176 -52 -207v-3v-5q0 -35 29 -35q47 0 148 151l43 -26q-154 -264 -330 -264 q-133 0 -133 122q0 76 49 226q-158 -221 -232.5 -284.5t-177.5 -63.5q-153 -1 -153 151zM370 1057l250 268q94 102 144 102q39 0 68.5 -28.5t29.5 -67.5q0 -29 -17.5 -49t-62.5 -47l-311 -178h-101zM757 1057l250 268q94 102 144 102q39 0 68.5 -28.5t29.5 -67.5 q0 -29 -17.5 -49t-62.5 -47l-311 -178h-101z" />
<glyph unicode="&#x172;" horiz-adv-x="1478" d="M137 303q0 113 68 359l114 421q31 113 31 156q0 33 -18.5 48.5t-67.5 23.5q-6 0 -63 8v51h637v-51q-96 -4 -132 -31.5t-61 -116.5l-168 -614q-57 -209 -57 -272q0 -96 66.5 -151.5t183.5 -55.5q168 0 272 123q86 106 162 377l119 428q39 145 39 198t-38 80t-126 35v51 h426v-51q-86 -16 -119 -64.5t-90 -248.5l-135 -467q-14 -45 -25.5 -82t-22 -68t-16.5 -51.5t-15 -39.5l-13.5 -28.5t-12.5 -24t-11 -18.5t-13.5 -19t-12.5 -20l-41 -61q-59 -90 -59 -213q0 -127 129 -127q27 0 46.5 5t45 19.5t33.5 16.5l45 -29q-39 -70 -106.5 -111.5 t-145.5 -41.5q-96 0 -157.5 47t-61.5 119q0 45 22.5 90t88.5 125q-127 -63 -285 -64q-201 0 -328 95t-127 245z" />
<glyph unicode="&#x173;" horiz-adv-x="1138" d="M31 133q0 74 43 221l82 273q29 92 28 149q0 31 -22.5 42t-91.5 16v55q123 4 428 57l-193 -631q-31 -102 -31 -135q0 -51 43 -51q57 0 150 113q88 111 146.5 247t144.5 431h241l-159 -549q-51 -195 -52 -215q0 -35 29 -35q47 0 148 151l43 -26q-33 -57 -82 -121 t-66.5 -103.5t-17.5 -105.5q0 -129 129 -129q27 0 49 7t47 20.5t27 13.5l45 -29q-39 -70 -106.5 -111.5t-145.5 -41.5q-94 0 -155.5 47t-61.5 119q0 70 82 180q-41 -10 -74 -10q-133 0 -133 122q0 76 49 226q-158 -221 -232.5 -284.5t-177.5 -63.5q-153 -1 -153 151z" />
<glyph unicode="&#x174;" horiz-adv-x="1820" d="M133 1321v49h567v-51q-74 -10 -99.5 -31.5t-25.5 -77.5q0 -23 3 -32l79 -715l308 637q-2 131 -28 170t-118 51v49h551v-51q-82 -8 -105.5 -29.5t-23.5 -89.5q0 -29 12 -133l68 -604l319 670q31 68 31 94q0 55 -21.5 70.5t-107.5 21.5v51h383v-49q-66 -10 -98.5 -38 t-73.5 -112l-586 -1208h-59l-121 1002l-477 -1002h-59l-160 1186q-14 109 -36 132.5t-122 39.5zM729 1473l328 356h165l177 -356h-105l-180 194l-268 -194h-117z" />
<glyph unicode="&#x175;" horiz-adv-x="1366" d="M33 834v55q244 41 317 57q59 -221 68 -563l319 563h56l65 -680q244 287 244 371q0 27 -42 88t-42 98q0 49 34.5 86t80.5 37q49 0 86.5 -38t37.5 -89q0 -256 -557 -846h-55l-47 584l-39 -72q-172 -307 -192 -335l-117 -177h-55q0 43 1 79t2 52.5t1 30.5q0 18 -4 172 q-10 451 -76 510q-18 17 -86 17zM365 1049l328 356h165l177 -356h-105l-180 194l-268 -194h-117z" />
<glyph unicode="&#x176;" horiz-adv-x="1251" d="M150 0v51q106 8 144 34t62 114l123 442l-180 549q-27 82 -48.5 100.5t-100.5 28.5v51h579v-51q-84 -2 -113.5 -17.5t-29.5 -58.5q0 -18 4 -37.5t16 -62.5t26.5 -85t47.5 -141.5t63 -195.5l265 381q53 78 53 123q0 53 -27.5 71.5t-109.5 22.5v51h426v-51 q-59 -12 -98.5 -41t-88.5 -100l-389 -547l-106 -391q-16 -63 -17 -93q0 -57 29 -74.5t129 -21.5v-51h-659zM451 1473l328 356h165l177 -356h-105l-180 194l-268 -194h-117z" />
<glyph unicode="&#x177;" horiz-adv-x="909" d="M-193 -297q0 45 31 79t72 34q45 0 110.5 -36t81.5 -36q55 0 122 86t67 162q0 113 -74 461t-127 378q-18 10 -61 11v55q172 16 305 49q76 -199 135 -567l25 -154q106 205 142 290t36 130q0 25 -17.5 45.5t-39 31.5t-39 38.5t-17.5 66.5q0 47 35 83t82 36q51 0 89 -39 t38 -92q0 -94 -83 -297t-205 -412.5t-283.5 -367.5t-297.5 -158q-53 0 -90 36t-37 87zM133 1049l328 356h165l177 -356h-105l-180 194l-268 -194h-117z" />
<glyph unicode="&#x178;" horiz-adv-x="1251" d="M150 0v51q106 8 144 34t62 114l123 442l-180 549q-27 82 -48.5 100.5t-100.5 28.5v51h579v-51q-84 -2 -113.5 -17.5t-29.5 -58.5q0 -18 4 -37.5t16 -62.5t26.5 -85t47.5 -141.5t63 -195.5l265 381q53 78 53 123q0 53 -27.5 71.5t-109.5 22.5v51h426v-51 q-59 -12 -98.5 -41t-88.5 -100l-389 -547l-106 -391q-16 -63 -17 -93q0 -57 29 -74.5t129 -21.5v-51h-659zM475 1630q0 55 38.5 95t92.5 40q55 0 95 -39.5t40 -95.5q0 -51 -41 -91t-94 -40q-51 0 -91 40t-40 91zM909 1630q0 55 39 95t92 40q55 0 95 -39.5t40 -95.5 q0 -51 -41 -91t-94 -40q-51 0 -91 40t-40 91z" />
<glyph unicode="&#x179;" horiz-adv-x="1251" d="M-23 0v59l889 1239h-159q-168 0 -282 -65.5t-235 -235.5l-57 9l117 364h958v-59l-889 -1239h144q238 0 371 77.5t245 258.5l56 -11l-121 -397h-1037zM570 1473l250 268q94 102 143 102q39 0 68.5 -28.5t29.5 -67.5q0 -29 -17.5 -49t-62.5 -47l-311 -178h-100z" />
<glyph unicode="&#x17a;" horiz-adv-x="796" d="M-88 -2l598 725h-297q-47 0 -74.5 -27.5t-54.5 -97.5l-57 6l88 316h639v-21l-576 -686q84 -37 138.5 -94.5t72 -103.5t43 -80.5t62.5 -34.5q18 0 31.5 9t13.5 23q0 8 -20.5 39t-20.5 56q0 43 30.5 74.5t71.5 31.5q43 0 76 -31.5t33 -74.5q0 -78 -63.5 -132.5 t-158.5 -54.5q-78 0 -161.5 43t-151.5 85t-104 42q-29 0 -107 -57zM342 1057l250 268q94 102 143 102q39 0 68.5 -28.5t29.5 -67.5q0 -29 -17.5 -49t-62.5 -47l-311 -178h-100z" />
<glyph unicode="&#x17b;" horiz-adv-x="1251" d="M-23 0v59l889 1239h-159q-168 0 -282 -65.5t-235 -235.5l-57 9l117 364h958v-59l-889 -1239h144q238 0 371 77.5t245 258.5l56 -11l-121 -397h-1037zM703 1612q0 59 49 109t113 50q49 0 79.5 -30.5t30.5 -77.5q0 -66 -54 -112t-112 -46q-47 0 -76.5 31t-29.5 76z" />
<glyph unicode="&#x17c;" horiz-adv-x="796" d="M-88 -2l598 725h-297q-47 0 -74.5 -27.5t-54.5 -97.5l-57 6l88 316h639v-21l-576 -686q84 -37 138.5 -94.5t72 -103.5t43 -80.5t62.5 -34.5q18 0 31.5 9t13.5 23q0 8 -20.5 39t-20.5 56q0 43 30.5 74.5t71.5 31.5q43 0 76 -31.5t33 -74.5q0 -78 -63.5 -132.5 t-158.5 -54.5q-78 0 -161.5 43t-151.5 85t-104 42q-29 0 -107 -57zM373 1137q0 59 49 109t113 50q49 0 79.5 -30.5t30.5 -77.5q0 -66 -54 -112t-112 -46q-47 0 -76.5 31t-29.5 76z" />
<glyph unicode="&#x17d;" horiz-adv-x="1251" d="M-23 0v59l889 1239h-159q-168 0 -282 -65.5t-235 -235.5l-57 9l117 364h958v-59l-889 -1239h144q238 0 371 77.5t245 258.5l56 -11l-121 -397h-1037zM449 1837h102l187 -199l276 199h115l-332 -356h-168z" />
<glyph unicode="&#x17e;" horiz-adv-x="796" d="M-88 -2l598 725h-297q-47 0 -74.5 -27.5t-54.5 -97.5l-57 6l88 316h639v-21l-576 -686q84 -37 138.5 -94.5t72 -103.5t43 -80.5t62.5 -34.5q18 0 31.5 9t13.5 23q0 8 -20.5 39t-20.5 56q0 43 30.5 74.5t71.5 31.5q43 0 76 -31.5t33 -74.5q0 -78 -63.5 -132.5 t-158.5 -54.5q-78 0 -161.5 43t-151.5 85t-104 42q-29 0 -107 -57zM189 1413h102l187 -199l276 199h115l-332 -356h-168z" />
<glyph unicode="&#x17f;" horiz-adv-x="681" d="M-346 -258q0 45 31.5 78t74.5 33q39 0 70 -31t31 -68q0 -29 -16.5 -55.5t-16.5 -32.5q0 -23 37 -22q61 0 96 75q41 86 141 547q82 373 127 568h-149l18 86h150q31 111 65.5 190.5t88 158.5t131 120t178.5 41q92 0 147 -44.5t55 -119.5q0 -47 -29.5 -78t-74.5 -31 q-41 0 -70.5 30t-29.5 70q0 27 16 54.5t16 31.5q0 27 -34 27q-115 0 -187 -305l-233 -1004q-33 -106 -63.5 -175.5t-81 -147.5t-122 -118t-164 -40t-147.5 44t-55 118z" />
<glyph unicode="&#x180;" horiz-adv-x="1024" d="M-29 96q0 25 59.5 238t135.5 471t80 274h-174l24 90h172q16 55 17 78q0 70 -95 70q-6 0 -18 -1t-16 -1v55q254 29 426 62l-72 -263h176l-24 -90h-177l-84 -305l5 -4q127 176 278 176q106 0 165.5 -74.5t59.5 -183.5q0 -260 -198.5 -487.5t-454.5 -227.5q-70 0 -177.5 34 t-107.5 89zM223 104q0 -63 66 -63q104 0 192 121t130 262t42 244q0 139 -94 139q-78 0 -161 -151.5t-129 -315.5t-46 -236z" />
<glyph unicode="&#x181;" horiz-adv-x="1740" d="M209 991q0 106 57.5 184t150.5 118t188 58.5t192 18.5h372q86 0 161 -11t153 -40t124 -91.5t46 -152.5q0 -80 -32 -141.5t-91.5 -100t-118.5 -61t-139 -43.5v-4q131 -41 202.5 -107.5t71.5 -191.5q0 -119 -54 -206t-145.5 -133t-191.5 -66.5t-213 -20.5h-616v51 q76 10 109.5 41t53.5 107l302 1106q-86 0 -153 -8.5t-142.5 -31t-130 -72.5t-78.5 -126q-2 -6 -2 -16q0 -20 14 -35q8 0 26.5 6t26.5 6q45 0 74 -28.5t29 -73.5q0 -41 -31 -69t-72 -28q-61 0 -102 49.5t-41 112.5zM780 129q0 -63 125 -63q152 0 240 119.5t88 275.5 q0 76 -21.5 124t-69.5 69.5t-93 28.5t-123 9q-6 -23 -48 -163t-70 -248.5t-28 -151.5zM942 754q100 4 169 18t127 51t86 106.5t28 174.5q0 201 -185 201q-47 0 -66.5 -20.5t-33.5 -70.5z" />
<glyph unicode="&#x182;" horiz-adv-x="1366" d="M-49 0v51q76 10 108.5 39t55.5 109l252 919q20 74 20 125q0 39 -26.5 50.5t-106.5 23.5q-10 2 -16 2v51h1120l-88 -389h-56q0 193 -82.5 258.5t-287.5 65.5q-127 0 -154 -101l-100 -377q358 0 489 -69.5t131 -253.5q0 -164 -104.5 -282t-259 -170t-334.5 -52h-561z M403 133q0 -68 101 -67q160 0 258 136t98 330q0 233 -225 234h-62l-159 -576q-11 -32 -11 -57z" />
<glyph unicode="&#x183;" horiz-adv-x="1177" d="M125 96q0 20 41 166l192 670q80 281 80 321q0 35 -26.5 48.5t-102.5 13.5v55h805l-100 -315l-62 -8q16 78 17 114q0 137 -158 137h-111l-149 -538q78 102 141.5 144t141.5 42q100 0 164.5 -70.5t64.5 -183.5q0 -274 -203 -496.5t-452 -222.5q-100 0 -191.5 40t-91.5 83z M377 96q0 -23 18.5 -39t44.5 -16q94 0 181.5 109.5t136.5 254t49 261.5q0 141 -90 141q-70 0 -137.5 -98.5t-109.5 -227.5t-67.5 -238.5t-25.5 -146.5z" />
<glyph unicode="&#x184;" horiz-adv-x="1290" d="M-49 0v51q76 10 109.5 41t54.5 107l161 596q-2 6 -27.5 62t-45 104.5t-19.5 58.5q0 18 25 35q6 4 143 94t252 163.5t125 76.5q4 -4 4 -15q0 -18 -166 -620q61 0 107.5 -2t113 -9.5t115.5 -19.5t102.5 -36.5t87 -58.5t56 -85t22.5 -117q0 -119 -54 -206t-145 -133 t-191.5 -66.5t-213.5 -20.5h-616zM406 129q0 -63 124 -63q152 0 240 119.5t88 275.5q0 76 -21.5 124t-69.5 69.5t-93 28.5t-123 9q-6 -23 -48 -163t-69.5 -248.5t-27.5 -151.5z" />
<glyph unicode="&#x185;" horiz-adv-x="1024" d="M-29 96q0 25 43 179.5t101.5 354t60.5 204.5q-2 6 -26.5 61t-44 102t-19.5 58q0 23 226.5 202t256.5 183q6 -2 6 -17q0 -10 -38.5 -153.5t-86 -315.5t-49.5 -180l5 -4q127 176 278 176q106 0 165.5 -74.5t59.5 -183.5q0 -260 -198.5 -487.5t-454.5 -227.5 q-70 0 -177.5 34t-107.5 89zM223 104q0 -63 66 -63q104 0 192 121t130 262t42 244q0 139 -94 139q-78 0 -161 -151.5t-129 -315.5t-46 -236z" />
<glyph unicode="&#x186;" horiz-adv-x="1478" d="M-43 -33l121 479h51q88 -418 375 -417q131 0 237.5 84t168 202.5t104.5 260t58 247t15 168.5q0 98 -28.5 167t-75.5 100.5t-93 45t-99 13.5q-137 0 -262.5 -64.5t-272.5 -187.5l-49 51q182 158 326.5 228.5t330.5 70.5q264 0 417 -143.5t153 -380.5q0 -158 -69 -321.5 t-186.5 -300t-293.5 -222.5t-373 -86q-90 0 -173 25.5t-136 50t-76 24.5q-53 0 -115 -94h-55z" />
<glyph unicode="&#x187;" horiz-adv-x="1902" d="M66 492q0 174 63.5 338.5t172 291.5t266 204t335.5 77q147 0 268 -68.5t164 -199.5q115 274 379 274q86 0 154.5 -40t68.5 -120q0 -70 -48 -120t-117 -50q-41 0 -68 22.5t-27 63.5q0 39 41 89.5t41 56.5q0 39 -69.5 39t-123 -26t-86 -62.5t-59 -98t-38 -108.5t-25.5 -117 q-8 -39 -45 -39q-33 0 -33 43q0 12 3 33.5t3 28.5q0 145 -104.5 235t-251.5 90q-129 0 -238.5 -97t-174 -239.5t-100.5 -290t-36 -264.5q0 -158 73.5 -262t221.5 -104q141 0 242.5 59t199.5 182l62 -45q-96 -143 -241.5 -224t-315.5 -81q-244 0 -400.5 143.5t-156.5 385.5z " />
<glyph unicode="&#x188;" horiz-adv-x="1339" d="M-10 289q0 143 78.5 295.5t216 257t282.5 104.5q139 0 203 -82q111 256 371 256q86 0 154.5 -40t68.5 -119q0 -70 -48 -120t-118 -50q-41 0 -67.5 22.5t-26.5 63.5q0 39 41 89t41 56q0 39 -70 39q-117 0 -207 -88t-106 -207q-8 -72 -35 -110t-94 -38q-47 0 -82 30t-35 77 q0 31 21.5 70t21.5 49q0 35 -47 35q-63 0 -122.5 -70t-96.5 -166t-59.5 -189.5t-22.5 -150.5q0 -82 36 -140.5t113 -58.5q125 0 250 185l58 -37q-96 -139 -185.5 -209t-228.5 -70q-137 0 -221 89.5t-84 226.5z" />
<glyph unicode="&#x189;" horiz-adv-x="1478" d="M-63 0v51q76 10 109.5 40t53.5 108l129 475h-209l25 90h209l94 348q25 96 25 121q0 47 -29 60.5t-121 25.5v51h594q291 0 454 -148.5t163 -410.5q0 -348 -260.5 -579.5t-651.5 -231.5h-585zM393 139q0 -70 111 -69q287 0 448 231q84 119 132.5 290t48.5 345 q0 371 -338 371q-92 0 -113 -78l-125 -465h250l-25 -90h-250l-112 -416q-2 -4 -2 -8q-25 -72 -25 -111z" />
<glyph unicode="&#x18a;" horiz-adv-x="1769" d="M80 991q0 106 57.5 184t150.5 118t188 58.5t192 18.5h409q285 0 451 -145.5t166 -423.5q0 -244 -130 -430.5t-335 -278.5t-447 -92h-585v51q76 10 109.5 41t53.5 107l302 1106q-88 0 -155 -7.5t-142.5 -30t-129 -73.5t-77.5 -127q-2 -6 -2 -16q0 -20 14 -35q10 0 26.5 6 t26.5 6q45 0 74 -28.5t29 -73.5q0 -41 -31 -69t-72 -28q-61 0 -102 49.5t-41 112.5zM653 141q0 -33 21.5 -49t43 -19t56.5 -3q129 0 234.5 53t175 140t118 201t70 230.5t21.5 233.5q0 379 -332 379q-51 0 -79 -15.5t-40 -62.5l-262 -971q-27 -101 -27 -117z" />
<glyph unicode="&#x18b;" horiz-adv-x="1400" d="M94 283q0 109 79 234.5t144 170.5q61 41 116.5 65.5t199 49t348.5 24.5l125 377q10 31 10 45q0 51 -110 51q-94 0 -171 -11t-133.5 -38.5t-95.5 -49t-73.5 -65.5t-47 -61.5t-37 -65.5t-26.5 -51h-49l135 412h1175l-30 -51q-106 -6 -153.5 -37t-74.5 -108l-319 -977 q-12 -37 -12 -60q0 -41 35.5 -58.5t121.5 -27.5l-30 -51h-660q-217 0 -342 77t-125 206zM430 221q0 -156 178 -155q68 0 107 28.5t59 95.5l187 576h-62q-133 0 -244.5 -95.5t-168 -219.5t-56.5 -230z" />
<glyph unicode="&#x18c;" horiz-adv-x="1024" d="M-43 229q0 156 86 325t218 280.5t253 111.5q80 0 148 -67l112 419h-143q-51 0 -93 -19t-65.5 -40.5t-48.5 -65t-33 -62.5t-24 -64l-58 8l88 315h639v-20l-205 -748q-117 -424 -116 -457q0 -8 7 -16t15 -8q49 0 137 147l46 -32q-84 -135 -157 -197t-149 -62 q-57 0 -89.5 34t-32.5 93q0 33 22 138q-88 -145 -166 -207t-174 -62q-94 0 -155.5 72.5t-61.5 183.5zM211 240q0 -51 23.5 -85t60.5 -34q82 0 164 140t127 287.5t45 209.5q0 45 -22.5 73.5t-59.5 28.5q-80 0 -163 -127t-129 -271t-46 -222z" />
<glyph unicode="&#x18d;" horiz-adv-x="1118" d="M1118 611q0 -199 -160.5 -369t-367.5 -170q-66 0 -148 29l-4 -4q14 -8 77.5 -44t91.5 -55.5t71 -55.5t61.5 -76t18.5 -87q0 -119 -106.5 -195.5t-237.5 -76.5q-213 0 -289 207l78 28q8 -74 65 -120.5t135 -46.5q59 0 106.5 28.5t47.5 81.5q0 29 -47 70t-113.5 89 t-133.5 108.5t-114 151.5t-47 196q0 246 192.5 445.5t448.5 199.5q162 0 268.5 -91t106.5 -243zM821 748q0 139 -98 139q-66 0 -124 -77.5t-92 -184t-54.5 -207t-20.5 -157.5q0 -131 92 -131q72 0 131.5 74.5t94 180t53 204t18.5 159.5z" />
<glyph unicode="&#x18e;" horiz-adv-x="1372" d="M-59 0l118 397l58 11q0 -78 16.5 -134.5t59.5 -106.5t129 -75.5t213 -25.5q45 0 79.5 11t54 24.5t35 39t21.5 42t13 45t12 36.5l141 428q-197 -4 -287 -56t-164 -218l-63 -10l184 559l62 8q-4 -45 -5 -74q0 -88 53.5 -115.5t213.5 -27.5h26l150 456q10 31 10 48 q0 25 -19.5 34t-64.5 9q-125 0 -216 -21.5t-155.5 -69t-105.5 -96.5t-88 -127l-62 -10l146 389h1106l-31 -51q-12 -2 -40 -5l-37 -4q-9 -1 -30.5 -6.5t-29.5 -10.5t-23.5 -15t-25 -23.5t-21.5 -33t-22.5 -45t-20.5 -58.5l-301 -919q-16 -55 -16 -82q0 -29 20.5 -43.5 t71.5 -22.5l-31 -51h-1134z" />
<glyph unicode="&#x18f;" horiz-adv-x="1478" d="M141 238q0 123 64.5 222t163 161.5t226.5 106.5t242.5 63.5t225.5 25.5q6 55 6 113q0 158 -73.5 262t-221.5 104q-141 0 -243.5 -60t-198.5 -181l-62 45q94 143 240.5 224t316.5 81q244 0 400.5 -143.5t156.5 -384.5q0 -395 -261 -655.5t-654 -260.5q-137 0 -232.5 71 t-95.5 206zM418 166q0 -129 82 -129q111 0 211 73.5t166.5 186.5t110.5 228.5t63 219.5q-254 -27 -443.5 -182t-189.5 -397z" />
<glyph unicode="&#x190;" horiz-adv-x="1292" d="M10 281q0 133 89 269t263 183q-127 47 -126 180q0 49 14 107q47 182 225 288.5t393 106.5q72 0 169.5 -33.5t121.5 -33.5q49 0 88 61h68l-109 -436h-76v22q0 152 -52 225.5t-183 73.5q-147 0 -236.5 -104.5t-89.5 -259.5q0 -74 47.5 -110t163.5 -36h125l-31 -118h-118 q-174 0 -281.5 -107.5t-107.5 -257.5q0 -94 72.5 -141t199.5 -47q207 0 418 231l61 -68q-43 -55 -71.5 -86.5t-84 -81t-108.5 -77t-134 -49t-171 -21.5q-145 0 -262 29.5t-197 104.5t-80 186z" />
<glyph unicode="&#x191;" horiz-adv-x="1574" d="M-96 -266q0 43 29.5 75.5t70.5 32.5t70.5 -29.5t29.5 -70.5q0 -25 -15 -49.5t-15 -28.5q0 -10 17.5 -17t27.5 -7q18 0 35.5 10t32 31.5t24.5 42t20.5 51t15.5 50t12 47.5l9 36l330 1210q20 70 20 115q0 20 -7 35.5t-16 23.5t-27.5 13.5t-30 6.5t-35 3t-33.5 4v51h1092 l-88 -389l-56 10q0 184 -85 249t-285 65q-55 0 -81 -18.5t-40 -72.5l-125 -456q188 0 256.5 33.5t148.5 183.5l58 -8l-152 -559l-57 10q8 53 8 82q0 53 -15.5 90t-37 57.5t-63.5 30.5t-74.5 12t-90.5 2l-174 -643q-55 -199 -178 -336t-309 -137q-84 0 -150.5 40t-66.5 118z " />
<glyph unicode="&#x192;" horiz-adv-x="681" d="M-346 -248q0 37 33.5 69t70.5 32q41 0 72 -31t31 -70q0 -23 -16.5 -52.5t-16.5 -31.5q0 -25 33 -24.5t57.5 16.5t45 62.5t36.5 102.5t39.5 161.5t46.5 213t61.5 285t81.5 349.5h-149l18 86h150q129 510 465 510q86 0 143 -41t57 -123q0 -47 -29.5 -78t-76.5 -31 q-43 0 -70.5 30t-27.5 73q0 23 16 51t16 30q0 29 -34 29q-27 0 -52.5 -19.5t-46 -54t-37 -72.5t-32 -88.5t-24.5 -85t-19.5 -77.5t-12.5 -53h189l-19 -86h-184q-123 -586 -176 -756q-111 -365 -279 -457q-72 -41 -161 -41q-88 0 -143.5 43t-55.5 129z" />
<glyph unicode="&#x193;" horiz-adv-x="1902" d="M43 518q0 356 254 620.5t608 264.5q147 0 267 -68.5t163 -199.5q115 274 379 274q86 0 154.5 -40t68.5 -120q0 -70 -48 -120t-117 -50q-41 0 -68 22.5t-27 63.5q0 39 41 89.5t41 56.5q0 39 -69.5 39t-123 -26t-86 -62.5t-59 -98t-38 -108.5t-25.5 -117q-8 -39 -45 -39 q-33 0 -33 43q0 12 3 34.5t3 29.5q0 143 -100.5 233t-245.5 90q-139 0 -254 -98t-182.5 -244.5t-104.5 -298t-37 -276.5q0 -166 85 -268.5t245 -102.5q156 0 207 74q14 23 62.5 205t48.5 217q0 20 -8.5 35.5t-15.5 23.5t-28.5 13t-29.5 7t-37 4.5t-33 2.5v53h588v-53 q-82 -6 -108.5 -36t-49.5 -116q-2 -10 -4 -16l-98 -371q-254 -121 -527 -121q-266 0 -441 147.5t-175 407.5z" />
<glyph unicode="&#x194;" horiz-adv-x="1466" d="M205 1319v51h624v-51q-6 0 -32.5 -2t-36.5 -3t-30.5 -7.5t-29 -14.5t-15.5 -23.5t-7 -36t21.5 -95t50 -166.5t32.5 -109l43 43q41 41 86 89t94.5 102.5t81 99.5t31.5 63.5t-6 29.5t-22.5 16.5t-23.5 7.5t-32.5 4t-27.5 2v51h415v-51q-61 -10 -105 -40t-97 -85l-406 -418 q6 -23 36 -114t45 -143t30.5 -127t15.5 -124q0 -313 -442 -313q-104 0 -171 52t-67 153q0 186 303 473l-172 557q-23 74 -62.5 97.5t-123.5 31.5zM356 188q0 -66 47.5 -97.5t116.5 -31.5q74 0 116 40t42 116q0 31 -11.5 80t-20.5 80t-31.5 95.5t-24.5 70.5 q-10 -12 -67.5 -72.5t-83 -92.5t-54.5 -86.5t-29 -101.5z" />
<glyph unicode="&#x195;" horiz-adv-x="1525" d="M-27 0l316 1161q16 57 16 86q0 70 -90 70q-6 0 -19.5 -1t-19.5 -1v55q213 18 426 62l-217 -840l4 -2q45 68 81 114t94.5 110.5t122 98t126.5 33.5q160 0 160 -166q0 -84 -79 -296t-79 -306q0 -27 32 -40t62 -13q96 0 179 47t136.5 113.5t91.5 141.5t54 129t16 77 q0 39 -65.5 98.5t-65.5 97.5q0 45 33 81t78 36q123 0 123 -133q0 -47 -15.5 -122t-47 -171t-90 -190t-132.5 -175t-185.5 -130.5t-240.5 -49.5q-76 0 -141.5 46.5t-65.5 119.5q0 100 76 309t76 302q0 47 -47 47q-86 0 -248 -250q-88 -135 -207 -549h-248z" />
<glyph unicode="&#x196;" horiz-adv-x="569" d="M4 119q0 90 145.5 587.5t145.5 548.5q0 61 -90 62q-8 0 -21.5 -1t-17.5 -1v55q186 16 428 62l-297 -1072q-45 -154 -45 -204q0 -12 10 -21.5t21 -9.5q53 0 159 164l45 -29q-39 -59 -53 -79.5t-53 -70t-68.5 -70t-74.5 -39.5t-95 -19q-139 0 -139 137z" />
<glyph unicode="&#x197;" horiz-adv-x="796" d="M-66 0v51q76 10 109 40t55 108l131 475h-161l32 90h154q6 25 40 131t55.5 195.5t21.5 142.5q0 25 -8.5 41t-27 23.5t-31.5 11.5t-43 6t-40 4v51h610v-51q-80 -10 -113.5 -40t-53.5 -108l-111 -407h158l-31 -90h-152q0 -2 -41 -134t-67.5 -241t-26.5 -160q0 -31 12.5 -49 t39 -26.5t43 -9.5t53.5 -3v-51h-607z" />
<glyph unicode="&#x198;" horiz-adv-x="1697" d="M-43 0v51q78 10 110.5 40t53.5 108l250 919q23 76 22 111q0 25 -7 41t-27.5 25.5t-32 12.5t-44 6t-38.5 5v51h635v-51q-86 -6 -128 -37t-65 -111l-123 -452l10 -2l437 395q170 156 258 205q96 53 178 53q92 0 154.5 -37t62.5 -121q0 -41 -29.5 -73.5t-70.5 -32.5 t-70 29.5t-29 70.5q0 27 14.5 50.5t14.5 27.5q0 10 -16.5 18.5t-28.5 8.5q-35 0 -76 -15.5t-90 -53.5t-73.5 -57.5t-80.5 -70.5l-55 -51l-270 -248l321 -692q18 -39 48 -52.5t81 -19.5v-51h-573v51q8 2 30.5 3t37 3t32 8.5t25.5 18.5t8 31q0 37 -248 551l-16 4 q-6 -20 -45 -153.5t-64.5 -236t-25.5 -143.5q0 -37 24.5 -56.5t46 -23.5t64.5 -6v-51h-592z" />
<glyph unicode="&#x199;" horiz-adv-x="1024" d="M-47 0l264 956q129 473 426 474q84 0 150.5 -40t66.5 -118q0 -43 -29.5 -76t-70.5 -33t-71 30t-30 71q0 25 15.5 49t15.5 28q0 10 -17.5 17.5t-27.5 7.5q-18 0 -35.5 -10t-32 -31.5t-24.5 -42t-20.5 -51.5t-15.5 -50.5t-12 -47t-9 -35.5l-160 -598l4 -4q330 256 330 321 q0 51 -105 51v52h424v-52q-47 -6 -91 -24.5t-90 -52t-76 -57t-80 -71t-68 -63.5q2 -6 8 -45t13 -77t17.5 -90t23.5 -95t28.5 -81t34 -60.5t36.5 -22.5q53 0 125 131l45 -22q-31 -55 -50 -86t-56 -77t-79 -68.5t-91 -22.5q-41 0 -76 18t-61.5 62.5t-43 74t-32.5 97t-19.5 87 t-15.5 85.5q-4 23 -6 32l-80 -55l-102 -385h-250z" />
<glyph unicode="&#x19a;" horiz-adv-x="569" d="M-27 684l25 90h174q123 436 123 481q0 61 -90 62q-8 0 -21.5 -1t-17.5 -1v55q186 16 428 62l-182 -658h176l-25 -90h-176q-2 -4 -20.5 -66.5t-35 -122t-36 -131t-31.5 -128t-12 -80.5q0 -12 10 -21.5t21 -9.5q53 0 159 164l45 -29q-39 -59 -53 -79.5t-53 -70t-68.5 -70 t-74.5 -39.5t-95 -19q-139 0 -139 137q0 72 141 565h-172z" />
<glyph unicode="&#x19b;" horiz-adv-x="1013" d="M25 0q16 25 196 291t345 509.5t167 243.5l-383 -235l27 102l350 217q-8 123 -86 123q-66 0 -116 -49t-74 -117h-60q23 80 57.5 156t102 142.5t143.5 66.5q111 0 111 -205v-69l381 235l-27 -102l-354 -219q0 -129 -1 -388.5t-1 -388.5v-8q0 -133 74 -133q51 0 90 52 t57 114h59q-96 -365 -266 -365q-33 0 -54.5 17.5t-28.5 52.5t-9 57.5t-2 59.5l4 411h-4l-365 -571h-333z" />
<glyph unicode="&#x19c;" horiz-adv-x="1746" d="M84 135q0 49 22 125l250 885q12 39 13 80q0 37 -23.5 55t-47.5 21.5t-62 3.5v51h544v-51q-31 -2 -49 -7.5t-29.5 -21.5t-16.5 -30.5t-15 -49.5q0 -2 -78 -265t-146.5 -503t-68.5 -256q0 -49 39 -49q82 0 202.5 258t202.5 528.5t82 341.5q0 45 -61 54v51h461v-51 q-31 -2 -48.5 -7.5t-30 -24t-16.5 -29.5t-14 -48q0 -2 -78 -265t-146.5 -503t-68.5 -256q0 -49 39 -49q86 0 206 257t199.5 526.5t79.5 344.5q0 45 -61 54v51h537v-51q-84 -2 -124 -28t-63 -103l-270 -963q-14 -47 -14 -82t25.5 -53.5t50 -21.5t63.5 -3v-51h-51 q-293 0 -451 -35l92 305q-168 -297 -368 -297q-74 0 -128.5 34t-54.5 104q0 68 29 168q-172 -305 -387 -306q-78 0 -122 43t-44 119z" />
<glyph unicode="&#x19d;" horiz-adv-x="1882" d="M-109 -266q0 43 30 75.5t71 32.5t70.5 -29.5t29.5 -70.5q0 -25 -15.5 -49.5t-15.5 -28.5q0 -10 17.5 -17t27.5 -7q109 0 193 85t117 195l377 1286q-29 68 -61 87.5t-109 25.5v51h399l440 -952l164 588q37 133 37 188q0 49 -25.5 76.5t-56.5 36t-82 12.5v51h428v-51 q-39 -10 -68.5 -28.5t-47 -36t-34 -54.5t-22.5 -56.5t-18.5 -69.5t-18.5 -68l-293 -1037h-57l-526 1125l-348 -1190q-43 -143 -143.5 -235.5t-241.5 -92.5q-86 0 -152 39t-66 119z" />
<glyph unicode="&#x19e;" horiz-adv-x="1138" d="M-12 0q4 16 62.5 219t102.5 366t44 195q0 53 -95 54h-16v55q160 0 410 55l-123 -381l6 -4q6 10 38 57.5t44 65.5t46 62t53.5 64.5t54 52.5t63.5 46.5t64.5 26.5t72.5 12q156 0 156 -162q0 -82 -72 -289.5t-143.5 -440t-71.5 -373.5q0 -43 19.5 -82t58.5 -39q23 0 22 22 q0 6 -2 18.5t-2 16.5q0 45 27 72.5t72 27.5t74.5 -30.5t29.5 -77.5q0 -55 -48 -93t-104 -38q-150 0 -229.5 124t-79.5 281q0 68 9.5 143.5t20.5 134t36.5 148.5t39 134t46.5 143.5t43 130.5q8 20 8 37q0 18 -16.5 31.5t-34.5 13.5q-72 0 -148.5 -101.5t-137 -253t-96.5 -259 t-56 -185.5h-248z" />
<glyph unicode="&#x19f;" horiz-adv-x="1478" d="M55 424q0 170 67.5 345t180.5 315.5t276.5 229.5t340.5 89q221 0 358 -136.5t137 -357.5q0 -166 -71.5 -337t-188.5 -305t-279.5 -219t-332.5 -85q-205 0 -346.5 129t-141.5 332zM350 307q0 -274 213 -274q94 0 178 67.5t144.5 178t97.5 203.5t66 192h-635 q-64 -238 -64 -367zM442 764h631q47 193 47 313q0 113 -52 184.5t-163 71.5q-88 0 -168 -58t-137 -154.5t-93 -181.5t-65 -175z" />
<glyph unicode="&#x1a0;" horiz-adv-x="1859" d="M55 424q0 170 67.5 345t180.5 315.5t276.5 229.5t340.5 89q293 0 440 -260q43 -78 137 -78q66 0 134.5 44t68.5 105q0 41 -51 41q-10 0 -31 -5t-33 -5q-37 0 -64.5 21.5t-27.5 58.5q0 66 52 113t118 47q70 0 113 -54.5t43 -123.5q0 -123 -106.5 -221.5t-231.5 -98.5 q-33 0 -74 10q8 -39 8 -88q0 -166 -71.5 -337t-188.5 -305t-279.5 -219t-332.5 -85q-205 0 -346.5 129t-141.5 332zM350 307q0 -274 213 -274q123 0 232.5 123t177 297t107.5 344t40 280q0 113 -52 184.5t-163 71.5q-121 0 -230.5 -120.5t-177 -290.5t-107.5 -337t-40 -278z " />
<glyph unicode="&#x1a1;" horiz-adv-x="1310" d="M-6 279q0 156 76.5 309t215 255.5t296.5 102.5q66 0 122 -24.5t89.5 -54t74.5 -54.5t80 -25q66 0 134.5 44.5t68.5 105.5q0 41 -51 41q-10 0 -30.5 -5t-33.5 -5q-37 0 -64.5 21.5t-27.5 58.5q0 66 52.5 112.5t117.5 46.5q70 0 113 -54t43 -124q0 -121 -106.5 -221 t-229.5 -100q-14 0 -39 4q8 -35 8 -82q0 -154 -75.5 -305.5t-212 -252t-293.5 -100.5q-137 0 -232.5 84.5t-95.5 221.5zM238 176q0 -143 106 -143q70 0 132.5 90t100 214t60 239.5t22.5 179.5q0 131 -98 131q-74 0 -138.5 -87t-103 -208t-60 -234.5t-21.5 -181.5z" />
<glyph unicode="&#x1a2;" horiz-adv-x="2076" d="M55 424q0 170 67.5 345t180.5 315.5t276.5 229.5t340.5 89q141 0 260.5 -67.5t185.5 -190.5q80 94 205 165.5t237 71.5q78 0 155 -44t77 -117q0 -49 -23 -125l-250 -885q-12 -39 -12 -80q0 -37 23.5 -55.5t47 -21.5t62.5 -3v-51h-545v51q39 0 61.5 15.5t30 32t19.5 61.5 q283 942 283 993q0 84 -111 84q-57 0 -123.5 -54.5t-109.5 -113.5q23 -70 22 -160q0 -166 -71.5 -337t-188.5 -305t-279.5 -219t-332.5 -85q-205 0 -346.5 129t-141.5 332zM350 307q0 -274 213 -274q123 0 232.5 123t177 297t107.5 344t40 280q0 113 -52 184.5t-163 71.5 q-121 0 -230.5 -120.5t-177 -290.5t-107.5 -337t-40 -278z" />
<glyph unicode="&#x1a3;" horiz-adv-x="1593" d="M-6 279q0 156 76.5 309t215 255.5t296.5 102.5q139 0 230 -87t91 -226q41 63 72 105t81 96.5t106.5 83t117.5 28.5q76 0 119 -43t43 -119q0 -94 -91 -330.5t-91 -301.5q0 -31 34 -31q10 0 23.5 10t26 22.5t27.5 33t24.5 33.5t23 33.5t15.5 22.5l45 -26q-45 -78 -81 -127 t-101.5 -95t-139.5 -46q-143 0 -143 133q0 100 90 346t90 289q0 47 -49 47q-59 0 -141 -104.5t-113 -178.5q-10 -25 -25.5 -81t-27.5 -85q-76 -162 -213.5 -268.5t-302.5 -106.5q-137 0 -232.5 84.5t-95.5 221.5zM238 176q0 -143 106 -143q70 0 132.5 90t100 214t60 239.5 t22.5 179.5q0 131 -98 131q-74 0 -138.5 -87t-103 -208t-60 -234.5t-21.5 -181.5z" />
<glyph unicode="&#x1a4;" horiz-adv-x="1550" d="M125 991q0 106 57.5 184t150.5 118t188 58.5t192 18.5h403q436 0 436 -321q0 -195 -163.5 -297.5t-370.5 -102.5q-84 0 -191 10q-2 -10 -43 -142t-64.5 -229.5t-23.5 -148.5q0 -31 12.5 -49t39 -26.5t43 -9.5t53.5 -3v-51h-602v51q80 14 111.5 41t52.5 107l251 919 q20 70 21 115q0 23 -2 35t-13.5 23.5t-31.5 11.5q-119 0 -210 -32t-135 -77t-64.5 -82t-20.5 -61q0 -10 6 -22.5t12 -12.5q8 0 28.5 6t31.5 6q41 0 66.5 -30.5t25.5 -71.5t-31 -69t-72 -28q-61 0 -102 49.5t-41 112.5zM848 725q53 -4 78 -4q168 0 247.5 105.5t79.5 281.5 q0 197 -174 197q-49 0 -67.5 -20.5t-32.5 -70.5z" />
<glyph unicode="&#x1a5;" horiz-adv-x="1024" d="M-246 -365h8q66 0 93.5 27t46.5 100l307 1194q123 473 426 474q84 0 150.5 -40t66.5 -118q0 -43 -29.5 -76t-70.5 -33t-71 30t-30 71q0 25 15.5 49t15.5 28q0 10 -17.5 17.5t-27.5 7.5q-18 0 -35.5 -10t-32 -31.5t-24.5 -42t-20.5 -51.5t-15.5 -50.5t-12.5 -47 t-9.5 -35.5l-86 -324l5 -4q131 176 280 176q115 0 171 -69.5t56 -188.5q0 -145 -73.5 -309t-207.5 -285t-284 -121q-55 0 -141 45q-6 -29 -27.5 -95t-35 -121.5t-13.5 -96.5q0 -70 125 -70h8v-55h-510v55zM231 125q0 -37 22.5 -58.5t59.5 -21.5q90 0 174 132t127 281.5 t43 237.5q0 41 -21.5 73t-60.5 32q-57 0 -109 -52.5t-85 -117.5q-29 -59 -89.5 -259t-60.5 -247z" />
<glyph unicode="&#x1a6;" horiz-adv-x="1251" d="M-55 0v51q80 14 111.5 41t52.5 107l251 919q20 70 21 115q0 43 -38 59.5t-112 26.5v51h603l-3 -51q-59 -10 -97 -43t-53 -67.5t-42 -114.5q98 0 168 -5.5t143.5 -25t118.5 -53t75 -94t30 -144.5q0 -133 -83 -226t-219 -138q98 -33 147.5 -94.5t49.5 -161.5 q0 -59 -24.5 -175t-24.5 -176q0 -100 67 -100q37 0 91.5 81t74.5 81q27 0 27 -23q0 -82 -108.5 -161.5t-192.5 -79.5q-139 0 -221 64.5t-82 199.5q0 55 23.5 163.5t23.5 166.5q0 113 -70.5 151.5t-203.5 38.5q-4 -14 -18.5 -71.5t-23 -98.5t-8.5 -74q0 -31 12.5 -49 t39 -26.5t43 -9.5t53.5 -3v-51h-602zM469 449q53 -4 78 -5q168 0 247.5 105.5t79.5 281.5q0 197 -174 197q-49 0 -67.5 -20.5t-32.5 -69.5z" />
<glyph unicode="&#x1a7;" horiz-adv-x="1138" d="M78 211q0 113 47 211t120.5 167.5t164 132t181.5 117t164.5 108.5t121 122t47.5 143q0 119 -144 119q-139 0 -235 -94t-172 -246l-58 -8l80 412h62q6 -53 69 -54q53 0 160 31t162 31q129 0 210 -61.5t81 -184.5q0 -102 -46 -190t-120 -152.5t-162 -123t-177 -113 t-163 -110.5t-120 -129t-46 -155q0 -152 172 -151q160 0 280 109.5t191 275.5l62 4l-107 -459h-61q0 37 -9.5 54.5t-44.5 17.5q-43 0 -164.5 -36t-193.5 -36q-150 0 -251 56.5t-101 191.5z" />
<glyph unicode="&#x1a8;" horiz-adv-x="796" d="M16 164q0 80 47.5 158.5t115 141t135 120t114.5 116t47 107.5q0 72 -80 72q-82 0 -146.5 -74t-107.5 -170l-59 -4l51 313h60q8 -43 45 -43q35 0 101.5 22.5t104.5 22.5q90 0 150.5 -43t60.5 -129q0 -84 -48 -166t-116.5 -146.5t-136 -122.5t-116 -116.5t-48.5 -105.5 q0 -39 25 -60.5t64 -21.5q90 0 162.5 83t115.5 189l57 6l-59 -340h-55q0 16 -14.5 28.5t-32.5 12.5q-33 0 -98.5 -20.5t-102.5 -20.5q-96 0 -166 49.5t-70 141.5z" />
<glyph unicode="&#x1a9;" horiz-adv-x="1495" d="M-57 0l18 68l643 553l-330 657l23 92h1180l-76 -397h-62q4 45 4 65q0 262 -299 262h-442l248 -555l-526 -456h565q94 0 154.5 10t120 55t83.5 129h58l-175 -483h-1187z" />
<glyph unicode="&#x1aa;" horiz-adv-x="931" d="M270 1278q0 123 85 208t208 85t208 -85t85 -208q0 -35 -3 -60.5t-10 -62.5t-28.5 -126t-48.5 -200.5t-80 -339t-115 -493.5q-4 -16 -17 -73.5t-19.5 -86.5t-12.5 -74t-6 -81q0 -43 19.5 -82t58.5 -39q23 0 22 22q0 6 -2 18.5t-2 16.5q0 45 27 72.5t72 27.5t74.5 -30.5 t29.5 -77.5q0 -55 -48 -93t-103 -38q-113 0 -192 75.5t-109.5 175t-30.5 208.5q0 145 44 359t81 340t106 349q-123 0 -208 85t-85 208zM354 1278q0 -88 60.5 -153.5t148.5 -65.5t148.5 65.5t60.5 153.5t-60.5 153.5t-148.5 65.5t-148.5 -65.5t-60.5 -153.5z" />
<glyph unicode="&#x1ab;" horiz-adv-x="714" d="M-186 -272q0 53 38.5 92t92 39t92.5 -39t39 -92q0 -84 -78 -119q16 -18 63 -19q131 0 243 91.5t145 218.5l57 217q-113 -135 -236 -135q-68 0 -107.5 35.5t-39.5 101.5q0 47 37 188.5t92 324.5t59 202h-104v71q231 88 375 312h71l-80 -297h148v-86h-170 q-2 -8 -56.5 -191.5t-88 -314.5t-33.5 -172q0 -10 10 -20.5t20 -10.5q51 0 158 164l45 -29l-92 -362q-39 -154 -177 -261.5t-296 -107.5q-227 0 -227 199z" />
<glyph unicode="&#x1ac;" horiz-adv-x="1251" d="M102 0v51h41q135 0 174 148q18 72 161 585.5t145 518.5q-129 -6 -220.5 -40t-131.5 -78t-55 -77t-15 -57q0 -20 14 -35q16 0 35.5 6t30.5 6q39 0 64.5 -31.5t25.5 -70.5q0 -41 -31 -69t-72 -28q-61 0 -102 49.5t-41 112.5q0 106 57.5 184t150.5 118t188 58.5t192 18.5 h618l-74 -393l-55 4q-4 162 -67.5 236.5t-214.5 80.5l-287 -1036q-23 -86 -23 -123q0 -86 170 -88v-51h-678z" />
<glyph unicode="&#x1ad;" horiz-adv-x="610" d="M-23 119q0 47 37 188.5t91.5 321.5t60.5 205h-105v71q98 41 144 72q125 453 418 453q84 0 150.5 -40t66.5 -118q0 -43 -30 -76t-71 -33t-70.5 30t-29.5 71q0 25 15.5 49t15.5 28q0 10 -17.5 17.5t-27.5 7.5q-33 0 -63 -38t-52.5 -101.5t-36.5 -117.5t-28.5 -118.5 t-16.5 -70.5h147v-86h-169q-2 -8 -56.5 -191.5t-88.5 -314.5t-34 -172q0 -10 10.5 -20.5t20.5 -10.5q51 0 158 164l45 -29q-41 -63 -64.5 -97t-68.5 -84t-95.5 -73.5t-107.5 -23.5q-68 0 -108 35.5t-40 101.5z" />
<glyph unicode="&#x1ae;" horiz-adv-x="1251" d="M125 1020l78 350h1128l-74 -393l-55 4q-4 162 -67.5 236.5t-214.5 80.5l-287 -1036q-121 -432 -121 -581q0 -43 19.5 -82t60.5 -39q23 0 22 28q0 6 -2 19.5t-2 17.5q0 41 29 66.5t70 25.5q45 0 74.5 -30.5t29.5 -77.5q0 -55 -48 -93t-103 -38q-88 0 -155 44t-103.5 116.5 t-55 150.5t-18.5 158q0 137 36.5 345t64.5 319.5t107.5 396t82.5 290.5q-297 0 -445 -292z" />
<glyph unicode="&#x1af;" horiz-adv-x="1847" d="M137 315q0 111 106.5 492t106.5 426q0 20 -7 35.5t-16.5 23.5t-27.5 13.5t-29.5 6.5t-35 3t-33.5 4v51h637v-51q-90 -4 -129 -33t-64 -115l-168 -614q-2 -6 -18.5 -63.5t-20.5 -78t-11 -62.5t-7 -74q0 -100 72.5 -150.5t179.5 -50.5q82 0 149.5 32.5t108.5 75.5t77.5 120 t54 130t42.5 142q2 6 49 160.5t78 277.5t31 186q0 109 -164 117v51h342v-51q-31 -6 -46.5 -43t-15.5 -74q0 -61 40 -99t102 -38q66 0 134 44t68 105q0 41 -51 41q-10 0 -30.5 -5t-32.5 -5q-37 0 -64.5 21.5t-27.5 58.5q0 66 52 113t118 47q70 0 112.5 -54.5t42.5 -123.5 q0 -123 -106.5 -221.5t-231.5 -98.5q-117 0 -170 84l-153 -532q-35 -117 -61.5 -190t-74 -154.5t-104.5 -126.5t-147.5 -75t-206.5 -30q-180 0 -314.5 90t-134.5 262z" />
<glyph unicode="&#x1b0;" horiz-adv-x="1462" d="M31 141q0 102 76.5 319.5t76.5 313.5q0 10 -3 19.5t-8 15.5t-14 10t-15.5 6t-19.5 4t-18.5 2t-19.5 1.5t-16 1.5v55q80 4 223 27.5t205 29.5l-193 -631q-31 -96 -31 -137q0 -49 48 -49q51 0 122.5 86t110.5 158q96 178 203 547h241q2 -59 42 -95.5t100 -36.5 q66 0 134 44.5t68 105.5q0 41 -51 41q-10 0 -30.5 -5t-32.5 -5q-37 0 -64.5 21.5t-27.5 58.5q0 66 52 112.5t118 46.5q70 0 112.5 -54t42.5 -124q0 -123 -106.5 -221t-231.5 -98q-106 0 -163 75q-172 -561 -173 -626q0 -39 31 -39q49 0 146 151l43 -26q-145 -264 -326 -264 q-137 0 -137 114q0 88 45 219l-4 2q-8 -10 -41 -58t-48.5 -66.5t-48 -60.5t-57 -61.5t-59.5 -44t-71 -34.5t-73 -10q-84 0 -120.5 38.5t-36.5 120.5z" />
<glyph unicode="&#x1b1;" horiz-adv-x="1660" d="M43 373q0 248 199.5 425t455.5 214l27 110h-283q-57 0 -86.5 -5t-59.5 -29.5t-42 -73.5h-47l92 356h557l-111 -426q-152 -53 -249 -255t-97 -382q0 -121 54.5 -197.5t169.5 -76.5q109 0 200.5 69.5t147 175t85 219t29.5 214.5q0 184 -116 233l108 426h557l-92 -356h-47 q6 18 6 41q0 68 -112 67h-310l-26 -110q164 -25 278.5 -130.5t114.5 -263.5q0 -201 -135 -354t-322.5 -225t-380.5 -72q-102 0 -197.5 21.5t-180.5 66.5t-136 127t-51 191z" />
<glyph unicode="&#x1b2;" horiz-adv-x="1388" d="M137 315q0 111 106.5 492t106.5 426q0 20 -7 34.5t-16.5 22.5t-27.5 14.5t-29.5 7.5t-36 3t-32.5 4v51h637v-51q-90 -4 -129 -33t-64 -115l-168 -614q-2 -6 -18.5 -63.5t-20.5 -78t-11 -62.5t-7 -74q0 -100 72.5 -150.5t179.5 -50.5q70 0 127 19.5t99 60.5t72.5 82 t57.5 107.5t41 111.5t35 119q2 8 50 167.5t80 287.5t32 190q0 88 -70 88q-12 0 -15 -7.5t-3 -39.5q0 -37 -30 -63.5t-67 -26.5q-45 0 -73.5 27.5t-28.5 72.5q0 57 47 95t107 38q90 0 150 -56.5t60 -144.5q0 -115 -100 -448q-12 -41 -31.5 -115t-32 -117t-34 -109.5 t-38.5 -106.5t-47 -93t-60.5 -86t-73.5 -68.5t-91.5 -55t-112 -32t-136.5 -12.5q-180 0 -314.5 90t-134.5 262z" />
<glyph unicode="&#x1b3;" horiz-adv-x="1251" d="M-33 1221q0 84 73 122.5t163 38.5q53 0 101 -12t85 -28.5t73 -51.5t60.5 -61.5t53 -76.5t43 -80t37 -90t31.5 -87t29.5 -91.5t26.5 -82.5l265 381q2 4 8 12q45 68 45 121q0 84 -137 84v51h426v-51q-100 -18 -187 -141l-389 -547q-6 -20 -43 -139t-58.5 -209t-21.5 -142 q0 -41 24.5 -61.5t50.5 -23.5t71 -5h12v-51h-659v51q100 8 141 34t65 114l123 442l-137 422q-2 4 -9 28.5t-12.5 39t-15.5 42t-18 44t-20.5 39t-25 35t-27.5 21.5t-32 9q-14 0 -31.5 -7t-17.5 -20q0 -10 17.5 -32.5t17.5 -42.5q0 -41 -25.5 -75t-66.5 -34q-45 0 -77 32 t-32 79z" />
<glyph unicode="&#x1b4;" horiz-adv-x="1189" d="M-193 -297q0 47 32 80t77 33q39 0 101.5 -36t86.5 -36q59 0 123 91t64 153q0 47 -5 100t-17.5 118.5t-20.5 104.5t-26.5 119t-22.5 100q-2 12 -12.5 68.5t-19.5 87.5t-26.5 73t-45 62.5t-66.5 20.5v55q172 14 305 49q25 -63 45 -130.5t38.5 -155t28 -135.5t26.5 -157.5 t22 -136.5h4q25 43 87 184.5t114.5 247t136.5 196.5t170 91q61 0 104 -48t43 -111q0 -51 -34 -99.5t-81 -48.5q-43 0 -66.5 31t-26.5 67.5t-10 67.5t-24 31q-27 0 -79 -93.5t-114.5 -233.5t-152.5 -303t-183 -303t-214 -233.5t-240 -93.5q-49 0 -85 37t-36 86z" />
<glyph unicode="&#x1b5;" horiz-adv-x="1251" d="M-23 0v59l441 615h-209l41 90h233l383 534h-159q-176 0 -291 -72.5t-226 -228.5l-57 9l117 364h958v-59l-393 -547h197l-37 -90h-223l-433 -602h164q408 0 596 336l56 -11l-121 -397h-1037z" />
<glyph unicode="&#x1b6;" horiz-adv-x="796" d="M-88 -2l346 420h-176l24 90h226l178 215h-297q-84 0 -129 -125l-57 6l88 316h639v-21l-328 -391h168l-25 -90h-219l-172 -205q76 -29 129 -85t74.5 -105.5t50.5 -86t64 -36.5q14 0 28.5 8t14.5 22q0 10 -20.5 39t-20.5 62q0 41 30.5 71.5t69.5 30.5q45 0 78 -31.5 t33 -78.5q0 -82 -68 -132.5t-151.5 -50.5t-164.5 43t-145.5 85t-107.5 42q-12 0 -23.5 -3t-24 -10t-20.5 -12t-22.5 -16.5t-18.5 -15.5z" />
<glyph unicode="&#x1b7;" horiz-adv-x="1267" d="M31 305q0 68 44 116t111 48q53 0 92 -38t39 -91t-40.5 -103.5t-40.5 -68.5q0 -61 65.5 -90t134.5 -29q127 0 218 75t130 182.5t39 232.5q0 115 -56 162t-173 47v67l465 483h-160q-176 0 -290.5 -72.5t-225.5 -228.5l-57 9l116 364h959v-59l-500 -535q256 -74 256 -317 q0 -158 -101.5 -274.5t-242.5 -169t-293 -52.5q-102 0 -210.5 36t-193.5 118t-85 188z" />
<glyph unicode="&#x1b8;" horiz-adv-x="1257" d="M61 242q0 190 160 338.5t359 195.5l-179 535l37 59h959l-105 -364l-61 -9q-16 164 -91 232.5t-245 68.5h-160l174 -483l-43 -67q-104 0 -189 -47.5t-133 -114t-82 -144t-45 -134t-11 -89.5q0 -170 198 -170q57 0 186.5 41t129.5 84q0 8 -31 59.5t-31 92.5q0 59 42 101 t101.5 42t101.5 -42t42 -101q0 -104 -134 -192.5t-287 -129.5t-255 -41q-74 0 -140.5 13.5t-129 43t-100.5 87t-38 135.5z" />
<glyph unicode="&#x1b9;" horiz-adv-x="944" d="M-154 -27q0 207 132.5 384.5t332.5 177.5q41 0 92 -11l-299 361l15 35h786l-51 -316l-53 -4q2 10 2 31q0 92 -82 92h-387l293 -354l-27 -45q-12 2 -42 11t-53.5 13t-43.5 4q-188 0 -294 -136t-106 -331q0 -129 70 -197.5t199 -68.5q66 0 207 80q-51 31 -52 90 q0 43 30 72.5t73 29.5t72.5 -29.5t29.5 -72.5q0 -88 -153.5 -160.5t-255.5 -72.5q-199 0 -317 110t-118 307z" />
<glyph unicode="&#x1ba;" horiz-adv-x="911" d="M-147 -233q0 74 37.5 138t110.5 114.5t134.5 84t153.5 75.5t127 61q63 31 63 98q0 33 -22.5 52.5t-55.5 19.5q-88 0 -262 -91l-26 50l450 354h-303q-84 0 -113.5 -21.5t-64.5 -103.5h-59l94 322h755v-35l-471 -375l2 -4q61 31 105 31q80 0 130 -53.5t50 -133.5 q0 -90 -67.5 -165.5t-163 -128t-190.5 -99.5t-162.5 -103.5t-67.5 -117.5q0 -47 75.5 -82t129.5 -35q14 0 26.5 9.5t12.5 21.5q0 10 -20.5 38.5t-20.5 61.5q0 41 30.5 72t69.5 31q45 0 78 -33t33 -78q0 -82 -68 -132t-152 -50q-55 0 -113.5 9t-122 29.5t-103 65t-39.5 103.5 z" />
<glyph unicode="&#x1bb;" horiz-adv-x="1024" d="M-55 0v49q29 29 115.5 115t128.5 129t110 114.5t121 136t100 130.5h-180l33 90h205q61 119 61 217q0 102 -46 167.5t-144 65.5q-156 0 -273 -176l-45 25q72 150 184.5 243t264.5 93q141 0 237 -101.5t96 -242.5q0 -145 -110 -291h180l-31 -90h-223q-55 -55 -126 -118.5 t-122 -106.5t-137 -115t-127 -107h305q117 0 173.5 32t111.5 132h51l-162 -391h-751z" />
<glyph unicode="&#x1bc;" horiz-adv-x="1257" d="M31 305q0 68 44 116t111 48q53 0 92 -38t39 -91t-40.5 -103.5t-40.5 -68.5q0 -61 65.5 -90t134.5 -29q186 0 286.5 146.5t100.5 343.5q0 115 -56 162t-173 47h-336q4 18 42 138t59.5 207t21.5 140q0 20 -7 34.5t-16.5 22.5t-28 14.5t-29.5 7.5t-35.5 3t-33.5 4v51h1074 l-88 -389l-56 10q10 45 10 80q0 233 -364 234q-55 0 -78.5 -18.5t-40.5 -72.5l-113 -397q86 0 157 -6t154 -28.5t139 -59.5t94 -104.5t38 -159.5q0 -158 -101.5 -274.5t-242.5 -169t-293 -52.5q-102 0 -210.5 36t-193.5 118t-85 188z" />
<glyph unicode="&#x1bd;" horiz-adv-x="1024" d="M-115 -322q0 55 33 89t88 34q51 0 87 -30.5t52.5 -67.5t46 -67.5t68.5 -30.5q117 0 197 103.5t80 223.5q0 184 -142.5 281.5t-337.5 97.5l269 609h579l-74 -224h-520l-69 -155q115 -25 195.5 -53.5t157.5 -81t117 -137.5t40 -201q0 -242 -178.5 -393.5t-423.5 -151.5 q-90 0 -177.5 37.5t-87.5 117.5z" />
<glyph unicode="&#x1be;" horiz-adv-x="796" d="M-39 -27l45 340l55 -6q12 -104 59.5 -188t137.5 -84q49 0 83 31.5t34 80.5q0 53 -44 119t-95.5 121t-95.5 138t-44 165q0 61 29 144h-105v71q231 88 375 312h72l-80 -297h148v-86h-170q-16 -74 -17 -111q0 -53 35 -114.5t77 -107.5t76.5 -115t34.5 -138q0 -125 -89 -200 t-218 -75q-35 0 -96.5 20.5t-91.5 20.5q-16 0 -34.5 -12t-25.5 -29h-55z" />
<glyph unicode="&#x1bf;" horiz-adv-x="1032" d="M-238 -365h9q68 0 92 26t47 101q45 156 150.5 560.5t105.5 455.5q0 55 -94 56h-17v55q287 35 396 57l-70 -211l6 -6q145 217 322 217q96 0 156.5 -52t60.5 -149q0 -115 -47.5 -221t-117 -185t-175 -157t-191.5 -127t-196 -102q-59 -213 -60 -248q0 -70 125 -70h8v-55 h-510v55zM221 41q190 123 321.5 293t131.5 364q0 102 -90 103q-45 0 -87 -32t-76 -92.5t-60.5 -122.5t-50 -148.5t-38 -141.5t-31 -132t-20.5 -91z" />
<glyph unicode="&#x1c0;" horiz-adv-x="450" d="M135 -37v1440h180v-1440h-180z" />
<glyph unicode="&#x1c1;" horiz-adv-x="856" d="M127.137 -37l306.035 1440h180l-306.035 -1440h-180zM533.137 -37l306.035 1440h180l-306.035 -1440h-180z" />
<glyph unicode="&#x1c2;" horiz-adv-x="1167" d="M115 219l37 180h423l52 238h-424l39 180h424l90 428h180l-90 -428h428l-39 -180h-428l-51 -238h428l-37 -180h-428l-92 -428h-181l93 428h-424z" />
<glyph unicode="&#x1c3;" horiz-adv-x="681" d="M137 119q0 66 43 109.5t107 43.5q57 0 103 -47t46 -106.5t-44 -102.5t-107.5 -43t-105.5 41.5t-42 104.5zM342 434q31 156 53.5 307.5t32.5 240.5t21.5 172t20.5 123t27.5 72.5t46 42t72.5 9.5q63 0 102.5 -41t39.5 -109q0 -61 -33 -126.5t-127 -255t-197 -451.5z" />
<glyph unicode="&#x1c4;" horiz-adv-x="2775" d="M1501 0v59l889 1239h-159q-168 0 -282 -65.5t-235 -235.5l-57 9l117 364h958v-59l-889 -1239h144q238 0 371 77.5t245 258.5l56 -11l-121 -397h-1037zM1973 1837h102l187 -199l276 199h115l-332 -356h-168zM-49 0v51q76 10 109.5 40t54.5 108l247 913q25 98 25 121 q0 47 -28.5 60.5t-120.5 25.5v51h593q291 0 454 -148.5t163 -410.5q0 -348 -260 -579.5t-651 -231.5h-586zM408 139q0 -70 110 -69q287 0 449 231q84 119 132 290t48 345q0 371 -338 371q-92 0 -113 -78l-264 -979q-24 -95 -24 -111z" />
<glyph unicode="&#x1c5;" horiz-adv-x="2320" d="M1436 -2l598 725h-297q-47 0 -74.5 -27.5t-54.5 -97.5l-57 6l88 316h639v-21l-576 -686q84 -37 138.5 -94.5t72 -103.5t43 -80.5t62.5 -34.5q18 0 31.5 9t13.5 23q0 8 -20.5 39t-20.5 56q0 43 30.5 74.5t71.5 31.5q43 0 76 -31.5t33 -74.5q0 -78 -63.5 -132.5 t-158.5 -54.5q-78 0 -161.5 43t-151.5 85t-104 42q-29 0 -107 -57zM1713 1413h102l187 -199l276 199h115l-332 -356h-168zM-49 0v51q76 10 109.5 40t54.5 108l247 913q25 98 25 121q0 47 -28.5 60.5t-120.5 25.5v51h593q291 0 454 -148.5t163 -410.5q0 -348 -260 -579.5 t-651 -231.5h-586zM408 139q0 -70 110 -69q287 0 449 231q84 119 132 290t48 345q0 371 -338 371q-92 0 -113 -78l-264 -979q-24 -95 -24 -111z" />
<glyph unicode="&#x1c6;" horiz-adv-x="1820" d="M936 -2l598 725h-297q-47 0 -74.5 -27.5t-54.5 -97.5l-57 6l88 316h639v-21l-576 -686q84 -37 138.5 -94.5t72 -103.5t43 -80.5t62.5 -34.5q18 0 31.5 9t13.5 23q0 8 -20.5 39t-20.5 56q0 43 30.5 74.5t71.5 31.5q43 0 76 -31.5t33 -74.5q0 -78 -63.5 -132.5 t-158.5 -54.5q-78 0 -161.5 43t-151.5 85t-104 42q-29 0 -107 -57zM1213 1413h102l187 -199l276 199h115l-332 -356h-168zM-43 229q0 156 86 325t218 280.5t253 111.5q80 0 148 -67l38 139q57 205 58 242q0 57 -84 57h-43v55q264 20 428 60l-228 -830q-117 -424 -116 -457 q0 -8 7 -16t15 -8q49 0 137 147l46 -32q-84 -135 -157 -197t-149 -62q-57 0 -89.5 34t-32.5 93q0 33 22 138q-88 -145 -166 -207t-174 -62q-94 0 -155.5 72.5t-61.5 183.5zM211 240q0 -51 23.5 -85t60.5 -34q82 0 164 140t127 287.5t45 209.5q0 45 -22.5 73.5t-59.5 28.5 q-80 0 -163 -127t-129 -271t-46 -222z" />
<glyph unicode="&#x1c7;" horiz-adv-x="2271" d="M1153 4q0 59 38 101t93 42q53 0 91 -37.5t38 -91.5q0 -35 -23.5 -63.5t-23.5 -46.5q0 -37 55 -37t90 67.5t94 294.5l234 885q23 84 22 125q0 33 -29.5 48.5t-119.5 27.5v51h608v-51q-78 -10 -111.5 -39t-54.5 -109l-262 -981q-53 -201 -157.5 -297t-270.5 -96 q-135 0 -223 58.5t-88 148.5zM-49 0v51q76 10 109.5 40t54.5 108l252 919q20 74 20 125q0 39 -26.5 50.5t-122.5 25.5v51h649v-51q-102 -6 -143.5 -35t-63.5 -113l-264 -978q-10 -37 -10 -66q0 -61 131 -61q256 0 424 118q59 43 101 90.5t93 133.5l49 -11l-121 -397h-1132z " />
<glyph unicode="&#x1c8;" horiz-adv-x="1816" d="M860 -266q0 45 29.5 76.5t70.5 31.5t71 -29.5t30 -70.5q0 -27 -15.5 -49.5t-15.5 -28.5q0 -8 16.5 -16t32.5 -8q43 0 75 57t70 211l189 727q25 102 24 135q0 39 -24.5 51.5t-102.5 12.5v55q279 25 426 57l-233 -897q-123 -473 -428 -473q-96 0 -155.5 44t-59.5 114z M1542 1268q0 53 41 94t94 41q57 0 99 -41t42 -98.5t-41 -97.5t-100 -40q-57 0 -96 41.5t-39 100.5zM-49 0v51q76 10 109.5 40t54.5 108l252 919q20 74 20 125q0 39 -26.5 50.5t-122.5 25.5v51h649v-51q-102 -6 -143.5 -35t-63.5 -113l-264 -978q-10 -37 -10 -66 q0 -61 131 -61q256 0 424 118q59 43 101 90.5t93 133.5l49 -11l-121 -397h-1132z" />
<glyph unicode="&#x1c9;" horiz-adv-x="1138" d="M182 -266q0 45 29.5 76.5t70.5 31.5t71 -29.5t30 -70.5q0 -27 -15.5 -49.5t-15.5 -28.5q0 -8 16.5 -16t32.5 -8q43 0 75 57t70 211l189 727q25 102 24 135q0 39 -24.5 51.5t-102.5 12.5v55q279 25 426 57l-233 -897q-123 -473 -428 -473q-96 0 -155.5 44t-59.5 114z M864 1268q0 53 41 94t94 41q57 0 99 -41t42 -98.5t-41 -97.5t-100 -40q-57 0 -96 41.5t-39 100.5zM4 104q0 72 70 324l151 541q70 233 70 290.5t-86 57.5q-20 0 -43 -2v55q221 20 428 62l-297 -1072q-45 -168 -45 -204q0 -12 9 -21.5t22 -9.5q49 0 159 164l45 -29 q-106 -162 -178.5 -220t-167.5 -58q-61 0 -99 33.5t-38 88.5z" />
<glyph unicode="&#x1ca;" horiz-adv-x="2502" d="M1385 4q0 59 38 101t93 42q53 0 91 -37.5t38 -91.5q0 -35 -23.5 -63.5t-23.5 -46.5q0 -37 55 -37t90 67.5t94 294.5l234 885q23 84 22 125q0 33 -29.5 48.5t-119.5 27.5v51h608v-51q-78 -10 -111.5 -39t-54.5 -109l-262 -981q-53 -201 -157.5 -297t-270.5 -96 q-135 0 -223 58.5t-88 148.5zM-59 0v51q84 16 116.5 64.5t89.5 249.5l246 841q-29 68 -57.5 86.5t-112.5 26.5v51h400l440 -952l164 588q37 133 37 192t-37 86t-127 35v51h428v-51q-90 -20 -122 -66.5t-87 -246.5l-293 -1037h-57l-527 1125l-202 -729q-37 -137 -37 -193 q0 -59 36.5 -86t127.5 -35v-51h-426z" />
<glyph unicode="&#x1cb;" horiz-adv-x="2048" d="M1092 -266q0 45 29.5 76.5t70.5 31.5t71 -29.5t30 -70.5q0 -27 -15.5 -49.5t-15.5 -28.5q0 -8 16.5 -16t32.5 -8q43 0 75 57t70 211l189 727q25 102 24 135q0 39 -24.5 51.5t-102.5 12.5v55q279 25 426 57l-233 -897q-123 -473 -428 -473q-96 0 -155.5 44t-59.5 114z M1774 1268q0 53 41 94t94 41q57 0 99 -41t42 -98.5t-41 -97.5t-100 -40q-57 0 -96 41.5t-39 100.5zM-59 0v51q84 16 116.5 64.5t89.5 249.5l246 841q-29 68 -57.5 86.5t-112.5 26.5v51h400l440 -952l164 588q37 133 37 192t-37 86t-127 35v51h428v-51q-90 -20 -122 -66.5 t-87 -246.5l-293 -1037h-57l-527 1125l-202 -729q-37 -137 -37 -193q0 -59 36.5 -86t127.5 -35v-51h-426z" />
<glyph unicode="&#x1cc;" horiz-adv-x="1708" d="M752 -266q0 45 29.5 76.5t70.5 31.5t71 -29.5t30 -70.5q0 -27 -15.5 -49.5t-15.5 -28.5q0 -8 16.5 -16t32.5 -8q43 0 75 57t70 211l189 727q25 102 24 135q0 39 -24.5 51.5t-102.5 12.5v55q279 25 426 57l-233 -897q-123 -473 -428 -473q-96 0 -155.5 44t-59.5 114z M1434 1268q0 53 41 94t94 41q57 0 99 -41t42 -98.5t-41 -97.5t-100 -40q-57 0 -96 41.5t-39 100.5zM-12 0l114 418q94 332 95 364q0 29 -22.5 39t-88.5 13v55q188 6 410 55l-131 -405q160 236 247.5 321.5t208.5 85.5q72 0 111 -40t39 -113q0 -72 -53 -236l-74 -223 q-51 -154 -51 -178q0 -35 28 -35q27 0 54.5 30.5t89.5 124.5l45 -26q-88 -150 -162 -209t-164 -59q-63 0 -101 32.5t-38 89.5q0 96 57 269l113 340q10 35 10 43q0 16 -16.5 29.5t-34.5 13.5q-29 0 -70 -30t-72 -71q-94 -123 -158.5 -276.5t-137.5 -421.5h-248z" />
<glyph unicode="&#x1cd;" horiz-adv-x="1366" d="M553 1843h102l187 -199l276 199h115l-332 -356h-168zM-137 0v51q55 12 89 40t81 104l762 1204h51l196 -1172q20 -117 45 -142.5t127 -33.5v-51h-622v51q98 10 130 34t32 87q0 4 -31 254h-440l-121 -209q-31 -53 -31 -94q0 -72 133 -72v-51h-401zM330 508h379l-76 498z " />
<glyph unicode="&#x1ce;" horiz-adv-x="1024" d="M420 1384h102l187 -199l276 199h115l-332 -356h-168zM-43 233q0 156 86 324t218 278.5t255 110.5q66 0 101.5 -34.5t50.5 -112.5l37 121l227 14l-146 -483q-70 -236 -69 -304q0 -31 24.5 -30.5t54 29t93.5 114.5l43 -31q-170 -258 -309 -258q-57 0 -97.5 39t-40.5 96 q0 35 29 138q-88 -145 -165 -208t-171 -63q-100 0 -160.5 71.5t-60.5 188.5zM209 229q0 -47 26.5 -78.5t65.5 -31.5q82 0 161 135t119 282.5t40 227.5q0 43 -24 69.5t-56 26.5q-61 0 -141.5 -113.5t-135.5 -264.5t-55 -253z" />
<glyph unicode="&#x1cf;" horiz-adv-x="804" d="M365 1808h102l187 -199l276 199h115l-332 -356h-168zM-49 0v51q76 10 109.5 39t54.5 109l252 919q20 74 20 125q0 39 -26.5 50.5t-122.5 25.5v51h610v-51q-80 -10 -114 -39t-54 -109l-234 -860q-37 -139 -36 -178q0 -43 30.5 -60.5t116.5 -21.5v-51h-606z" />
<glyph unicode="&#x1d0;" horiz-adv-x="569" d="M148 1384h102l187 -199l276 199h115l-332 -356h-168zM4 111q0 49 27 141l119 440q14 61 14 82q0 33 -27.5 46.5t-93.5 13.5v55q238 18 414 57l-187 -684q-18 -74 -18 -106q0 -12 9 -21.5t22 -9.5q49 0 131 123l28 41l45 -29q-109 -162 -179 -220t-163 -58q-63 0 -102 36 t-39 93z" />
<glyph unicode="&#x1d1;" horiz-adv-x="1478" d="M703 1808h102l187 -199l276 199h115l-332 -356h-168zM55 453q0 147 65.5 313t177.5 308.5t276.5 235.5t345.5 93q213 0 354 -134t141 -339q0 -158 -64.5 -328t-175 -312.5t-279.5 -234.5t-357 -92q-217 0 -350.5 135.5t-133.5 354.5zM350 281q0 -115 56.5 -181.5 t152.5 -66.5q160 0 297 198q102 152 183 412t81 444q0 111 -57 178.5t-152 67.5q-193 0 -344 -268q-84 -147 -150.5 -386.5t-66.5 -397.5z" />
<glyph unicode="&#x1d2;" horiz-adv-x="1024" d="M363 1384h102l187 -199l276 199h115l-332 -356h-168zM-6 276q0 258 181 464t407 206q139 0 230 -87t91 -222q0 -260 -177 -462t-407 -202q-141 0 -233 86t-92 217zM238 160q0 -57 26.5 -92t73.5 -35q76 0 141.5 94t102 224t57 244t20.5 173q0 55 -25.5 87t-70.5 32 q-90 0 -168 -132t-117.5 -297t-39.5 -298z" />
<glyph unicode="&#x1d3;" horiz-adv-x="1478" d="M649 1808h102l187 -199l276 199h115l-332 -356h-168zM137 303q0 113 68 359l114 421q31 113 31 156q0 33 -18.5 48.5t-67.5 23.5q-6 0 -63 8v51h637v-51q-96 -4 -132 -31.5t-61 -116.5l-168 -614q-57 -209 -57 -272q0 -96 66.5 -151.5t183.5 -55.5q168 0 272 123 q86 106 162 377l119 428q39 145 39 198t-38 80t-126 35v51h426v-51q-86 -16 -119 -64.5t-90 -248.5l-135 -467q-2 -6 -16.5 -61.5t-22.5 -79t-28.5 -81t-42 -88t-54.5 -79t-73 -76t-91 -56t-116.5 -42t-141.5 -13.5q-201 0 -329 95t-128 245z" />
<glyph unicode="&#x1d4;" horiz-adv-x="1138" d="M422 1384h102l187 -199l276 199h115l-332 -356h-168zM31 133q0 74 43 221l82 273q29 92 28 149q0 31 -22.5 42t-91.5 16v55q123 4 428 57l-193 -631q-31 -102 -31 -135q0 -51 43 -51q57 0 150 113q88 111 146.5 247t144.5 431h241l-159 -549q-51 -176 -52 -207v-3v-5 q0 -35 29 -35q47 0 148 151l43 -26q-154 -264 -330 -264q-133 0 -133 122q0 76 49 226q-158 -221 -232.5 -284.5t-177.5 -63.5q-153 -1 -153 151z" />
<glyph unicode="&#x1d5;" horiz-adv-x="1478" d="M137 258q0 96 68 305l114 359q31 96 31 131q0 29 -18.5 42t-67.5 19q-4 0 -13 1t-23.5 3t-26.5 2v45h637v-45q-96 -4 -132 -26.5t-61 -98.5l-168 -522q-57 -176 -57 -231q0 -82 66.5 -129t183.5 -47q168 0 272 104q88 94 162 322l119 362q39 123 39 170q0 45 -38 67.5 t-126 28.5v45h426v-45q-86 -14 -119 -55t-90 -211l-135 -395q-2 -6 -16.5 -52.5t-22.5 -67t-28.5 -68.5t-42 -74.5t-54.5 -67.5t-73 -64.5t-91 -48t-116.5 -36t-141.5 -11.5q-203 0 -330 80t-127 209zM594 1391q0 55 39 95t92 40q55 0 95 -40t40 -95q0 -51 -41 -91t-94 -40 t-92 40t-39 91zM666 1640l34 144h666l-33 -144h-667zM1028 1391q0 55 39 95t92 40q55 0 95 -40t40 -95q0 -51 -41 -91t-94 -40t-92 40t-39 91z" />
<glyph unicode="&#x1d6;" horiz-adv-x="1138" d="M405 1420l35 143h666l-33 -143h-668zM31 133q0 74 43 221l82 273q29 92 28 149q0 31 -22.5 42t-91.5 16v55q123 4 428 57l-193 -631q-31 -102 -31 -135q0 -51 43 -51q57 0 150 113q88 111 146.5 247t144.5 431h241l-159 -549q-51 -176 -52 -207v-3v-5q0 -35 29 -35 q47 0 148 151l43 -26q-154 -264 -330 -264q-133 0 -133 122q0 76 49 226q-158 -221 -232.5 -284.5t-177.5 -63.5q-153 -1 -153 151zM312 1161q0 55 38.5 95t92.5 40q55 0 95 -39.5t40 -95.5q0 -51 -41 -91t-94 -40q-51 0 -91 40t-40 91zM746 1161q0 55 39 95t92 40 q55 0 95 -39.5t40 -95.5q0 -51 -41 -91t-94 -40q-51 0 -91 40t-40 91z" />
<glyph unicode="&#x1d7;" horiz-adv-x="1478" d="M137 258q0 96 68 305l114 359q31 96 31 131q0 29 -18.5 42t-67.5 19q-4 0 -13 1t-23.5 3t-26.5 2v45h637v-45q-96 -4 -132 -26.5t-61 -98.5l-168 -522q-57 -176 -57 -231q0 -82 66.5 -129t183.5 -47q168 0 272 104q88 94 162 322l119 362q39 123 39 170q0 45 -38 67.5 t-126 28.5v45h426v-45q-86 -14 -119 -55t-90 -211l-135 -395q-2 -6 -16.5 -52.5t-22.5 -67t-28.5 -68.5t-42 -74.5t-54.5 -67.5t-73 -64.5t-91 -48t-116.5 -36t-141.5 -11.5q-203 0 -330 80t-127 209zM594 1337q0 55 39 95.5t92 40.5q55 0 95 -40t40 -96q0 -51 -41 -91 t-94 -40t-92 40t-39 91zM868 1473l250 268q94 102 144 102q39 0 68.5 -28.5t29.5 -67.5q0 -29 -17.5 -49.5t-62.5 -46.5l-311 -178h-101zM1028 1337q0 55 39 95.5t92 40.5q55 0 95 -40t40 -96q0 -51 -41 -91t-94 -40t-92 40t-39 91z" />
<glyph unicode="&#x1d8;" horiz-adv-x="1138" d="M574 1368l250 268q94 102 143 102q39 0 68.5 -28.5t29.5 -67.5q0 -29 -17.5 -49t-62.5 -47l-311 -178h-100zM31 133q0 74 43 221l82 273q29 92 28 149q0 31 -22.5 42t-91.5 16v55q123 4 428 57l-193 -631q-31 -102 -31 -135q0 -51 43 -51q57 0 150 113q88 111 146.5 247 t144.5 431h241l-159 -549q-51 -176 -52 -207v-3v-5q0 -35 29 -35q47 0 148 151l43 -26q-154 -264 -330 -264q-133 0 -133 122q0 76 49 226q-158 -221 -232.5 -284.5t-177.5 -63.5q-153 -1 -153 151zM312 1161q0 55 38.5 95t92.5 40q55 0 95 -39.5t40 -95.5q0 -51 -41 -91 t-94 -40q-51 0 -91 40t-40 91zM746 1161q0 55 39 95t92 40q55 0 95 -39.5t40 -95.5q0 -51 -41 -91t-94 -40q-51 0 -91 40t-40 91z" />
<glyph unicode="&#x1d9;" horiz-adv-x="1478" d="M137 258q0 96 68 305l114 359q31 96 31 131q0 29 -18.5 42t-67.5 19q-4 0 -13 1t-23.5 3t-26.5 2v45h637v-45q-96 -4 -132 -26.5t-61 -98.5l-168 -522q-57 -176 -57 -231q0 -82 66.5 -129t183.5 -47q168 0 272 104q88 94 162 322l119 362q39 123 39 170q0 45 -38 67.5 t-126 28.5v45h426v-45q-86 -14 -119 -55t-90 -211l-135 -395q-2 -6 -16.5 -52.5t-22.5 -67t-28.5 -68.5t-42 -74.5t-54.5 -67.5t-73 -64.5t-91 -48t-116.5 -36t-141.5 -11.5q-203 0 -330 80t-127 209zM594 1360q0 55 39 95t92 40q55 0 95 -40t40 -95q0 -51 -41 -91t-94 -40 t-92 39t-39 92zM684 1843h102l187 -198l276 198h115l-332 -356h-168zM1028 1360q0 55 39 95t92 40q55 0 95 -40t40 -95q0 -51 -41 -91t-94 -40t-92 39t-39 92z" />
<glyph unicode="&#x1da;" horiz-adv-x="1138" d="M461 1726h102l187 -199l276 199h115l-332 -356h-168zM31 133q0 74 43 221l82 273q29 92 28 149q0 31 -22.5 42t-91.5 16v55q123 4 428 57l-193 -631q-31 -102 -31 -135q0 -51 43 -51q57 0 150 113q88 111 146.5 247t144.5 431h241l-159 -549q-51 -176 -52 -207v-3v-5 q0 -35 29 -35q47 0 148 151l43 -26q-154 -264 -330 -264q-133 0 -133 122q0 76 49 226q-158 -221 -232.5 -284.5t-177.5 -63.5q-153 -1 -153 151zM312 1161q0 55 38.5 95t92.5 40q55 0 95 -39.5t40 -95.5q0 -51 -41 -91t-94 -40q-51 0 -91 40t-40 91zM746 1161q0 55 39 95 t92 40q55 0 95 -39.5t40 -95.5q0 -51 -41 -91t-94 -40q-51 0 -91 40t-40 91z" />
<glyph unicode="&#x1db;" horiz-adv-x="1478" d="M137 258q0 96 68 305l114 359q31 96 31 131q0 29 -18.5 42t-67.5 19q-4 0 -13 1t-23.5 3t-26.5 2v45h637v-45q-96 -4 -132 -26.5t-61 -98.5l-168 -522q-57 -176 -57 -231q0 -82 66.5 -129t183.5 -47q168 0 272 104q88 94 162 322l119 362q39 123 39 170q0 45 -38 67.5 t-126 28.5v45h426v-45q-86 -14 -119 -55t-90 -211l-135 -395q-2 -6 -16.5 -52.5t-22.5 -67t-28.5 -68.5t-42 -74.5t-54.5 -67.5t-73 -64.5t-91 -48t-116.5 -36t-141.5 -11.5q-203 0 -330 80t-127 209zM584 1751q0 37 27.5 64.5t64.5 27.5q61 0 115 -69l227 -301h-92 l-273 182q-69 47 -69 96zM594 1352q0 55 39 95t92 40q55 0 95 -40t40 -95q0 -51 -41 -91t-94 -40t-92 39t-39 92zM1028 1352q0 55 39 95t92 40q55 0 95 -40t40 -95q0 -51 -41 -91t-94 -40t-92 39t-39 92z" />
<glyph unicode="&#x1dc;" horiz-adv-x="1138" d="M473 1652q0 37 27.5 64.5t64.5 27.5q61 0 115 -69l227 -301h-92l-272 182q-70 47 -70 96zM31 133q0 74 43 221l82 273q29 92 28 149q0 31 -22.5 42t-91.5 16v55q123 4 428 57l-193 -631q-31 -102 -31 -135q0 -51 43 -51q57 0 150 113q88 111 146.5 247t144.5 431h241 l-159 -549q-51 -176 -52 -207v-3v-5q0 -35 29 -35q47 0 148 151l43 -26q-154 -264 -330 -264q-133 0 -133 122q0 76 49 226q-158 -221 -232.5 -284.5t-177.5 -63.5q-153 -1 -153 151zM312 1161q0 55 38.5 95t92.5 40q55 0 95 -39.5t40 -95.5q0 -51 -41 -91t-94 -40 q-51 0 -91 40t-40 91zM746 1161q0 55 39 95t92 40q55 0 95 -39.5t40 -95.5q0 -51 -41 -91t-94 -40q-51 0 -91 40t-40 91z" />
<glyph unicode="&#x1dd;" horiz-adv-x="909" d="M815 646q0 -254 -184.5 -463t-405.5 -209q-94 0 -154.5 50t-60.5 128q0 43 18.5 89t68.5 106.5t162.5 115t276.5 84.5q12 61 13 101q0 168 -134 168q-63 0 -115.5 -40t-123.5 -147l-60 35q92 152 182.5 217.5t207.5 65.5q133 0 221 -86t88 -215zM522 482 q-147 -53 -235.5 -136t-88.5 -235q0 -70 58 -70q151 1 266 441z" />
<glyph unicode="&#x1de;" horiz-adv-x="1366" d="M-137 0v51q55 12 89 40t81 104l762 1204h51l196 -1172q20 -117 45 -142.5t127 -33.5v-51h-622v51q98 10 130 34t32 87q0 4 -31 254h-440l-121 -209q-31 -53 -31 -94q0 -72 133 -72v-51h-401zM330 508h379l-76 498zM494 1534q0 55 38.5 95t92.5 40q55 0 95 -39.5t40 -95.5 q0 -51 -41 -91t-94 -40q-51 0 -91 40t-40 91zM928 1534q0 55 39 95t92 40q55 0 95 -39.5t40 -95.5q0 -51 -41 -91t-94 -40q-51 0 -91 40t-40 91zM553 1700l35 143h666l-33 -143h-668z" />
<glyph unicode="&#x1df;" horiz-adv-x="1024" d="M362 1420l35 143h666l-33 -143h-668zM-43 233q0 156 86 324t218 278.5t255 110.5q66 0 101.5 -34.5t50.5 -112.5l37 121l227 14l-146 -483q-70 -236 -69 -304q0 -31 24.5 -30.5t54 29t93.5 114.5l43 -31q-170 -258 -309 -258q-57 0 -97.5 39t-40.5 96q0 35 29 138 q-88 -145 -165 -208t-171 -63q-100 0 -160.5 71.5t-60.5 188.5zM209 229q0 -47 26.5 -78.5t65.5 -31.5q82 0 161 135t119 282.5t40 227.5q0 43 -24 69.5t-56 26.5q-61 0 -141.5 -113.5t-135.5 -264.5t-55 -253zM265 1163q0 55 38.5 95t92.5 40q55 0 95 -39.5t40 -95.5 q0 -51 -41 -91t-94 -40q-51 0 -91 40t-40 91zM699 1163q0 55 39 95t92 40q55 0 95 -39.5t40 -95.5q0 -51 -41 -91t-94 -40q-51 0 -91 40t-40 91z" />
<glyph unicode="&#x1e0;" horiz-adv-x="1366" d="M-137 0v43q55 10 89 34.5t81 88.5l762 1024h51l196 -997q20 -98 45 -120t127 -30v-43h-622v43q98 8 130 28.5t32 73.5q0 2 -31 217h-440l-121 -178q-31 -43 -31 -80q0 -61 133 -61v-43h-401zM330 432h379l-76 422zM582 1700l34 143h666l-33 -143h-667zM729 1423 q0 59 49 109.5t113 50.5q49 0 79.5 -30.5t30.5 -77.5q0 -66 -54 -112t-111 -46q-45 0 -76 30.5t-31 75.5z" />
<glyph unicode="&#x1e1;" horiz-adv-x="1024" d="M387 1377l35 143h666l-33 -143h-668zM545 1135q0 59 49 109t113 50q49 0 79.5 -30.5t30.5 -77.5q0 -66 -54 -112t-112 -46q-47 0 -76.5 31t-29.5 76zM-43 233q0 156 86 324t218 278.5t255 110.5q66 0 101.5 -34.5t50.5 -112.5l37 121l227 14l-146 -483q-70 -236 -69 -304 q0 -31 24.5 -30.5t54 29t93.5 114.5l43 -31q-170 -258 -309 -258q-57 0 -97.5 39t-40.5 96q0 35 29 138q-88 -145 -165 -208t-171 -63q-100 0 -160.5 71.5t-60.5 188.5zM209 229q0 -47 26.5 -78.5t65.5 -31.5q82 0 161 135t119 282.5t40 227.5q0 43 -24 69.5t-56 26.5 q-61 0 -141.5 -113.5t-135.5 -264.5t-55 -253z" />
<glyph unicode="&#x1e2;" horiz-adv-x="1933" d="M809 1481l35 143h666l-33 -143h-668zM-131 0v51q16 4 22.5 4t17.5 4t14 6.5t13.5 9.5t13.5 12t16.5 19.5t21.5 24.5t26.5 33.5t34.5 44.5l750 967q41 55 41 90q0 29 -34 40t-132 17v47h1206l-92 -389l-49 10l-4 82q-12 231 -332 232q-66 0 -88.5 -12.5t-32.5 -53.5 l-133 -481h39q156 0 226.5 42t131.5 175l53 -8l-149 -559l-51 10l2 22q4 29 4 74q0 100 -51 134t-221 44l-129 -493q-10 -37 -11 -58q0 -76 119 -75q100 0 182 19t136.5 47t105.5 78t81 91t71 107l53 -7l-121 -401h-1079v51q80 12 108.5 38t50.5 108l95 325h-394l-233 -321 q-31 -45 -31 -80q0 -33 29 -48.5t102 -21.5v-51h-399zM461 602h354l189 682h-25z" />
<glyph unicode="&#x1e3;" horiz-adv-x="1478" d="M514 1029l35 143h666l-33 -143h-668zM-10 217q0 162 87 334t220 283.5t258 111.5q66 0 102.5 -29.5t63.5 -105.5l37 119l211 10l-41 -133q66 76 118 104.5t128 28.5q96 0 150 -47t54 -131q0 -127 -121.5 -224.5t-345.5 -148.5l-80 -18q-10 -51 -10 -97q0 -78 37 -125 t100 -47q147 0 252 183l58 -35q-135 -276 -398 -277q-131 0 -199.5 63.5t-92.5 205.5q-86 -141 -169 -204t-186 -63q-100 0 -166.5 69t-66.5 173zM248 244q0 -55 26.5 -90t71.5 -35q90 0 173 132t123 274.5t40 217.5q0 49 -27.5 82t-70.5 33q-88 0 -170 -129t-124 -269 t-42 -216zM846 438q123 18 235.5 117.5t112.5 239.5q0 84 -68 84q-150 0 -270 -406z" />
<glyph unicode="&#x1e4;" horiz-adv-x="1478" d="M43 518q0 356 254 620.5t608 264.5q129 0 226.5 -31t113.5 -31q61 0 86 62h64l-105 -453l-59 8q0 371 -293 371q-139 0 -254 -98t-182.5 -244.5t-103.5 -298t-36 -276.5q0 -166 85 -268.5t245 -102.5q47 0 82 4t60.5 19.5t40 24.5t29 41t19.5 47.5t18 63.5t20 70h-170 l32 90h160q27 96 27 136q0 14 -3 25t-9.5 19.5t-12.5 14.5t-17.5 10t-18.5 7t-22.5 4t-22.5 2.5t-24.5 2.5t-21.5 1v53h588v-53q-37 -2 -62.5 -12.5t-41 -20.5t-27.5 -37t-17.5 -41t-14.5 -54t-13 -57h164l-31 -90h-158l-59 -227q-254 -121 -527 -121q-266 0 -441 147.5 t-175 407.5z" />
<glyph unicode="&#x1e5;" horiz-adv-x="1024" d="M-213 -225l25 90h94q14 35 40.5 60.5t67.5 43t70 25.5t76 18v4q-121 41 -121 131q0 23 6 42.5t19.5 37t25.5 29.5t36 27.5t35 22.5t38.5 22.5t36.5 19.5q-76 29 -120 91.5t-44 140.5q0 111 72.5 197.5t175 127.5t210.5 41q137 0 222 -67h227v-115h-137q12 -43 12 -88 q0 -168 -138 -265.5t-313 -97.5q-18 0 -49.5 8.5t-48.5 8.5q-18 0 -36.5 -24.5t-18.5 -45.5q0 -31 59.5 -57.5t171.5 -61.5q23 -6 35 -10q117 -37 185.5 -88t68.5 -137q0 -12 -4 -41h100l-24 -90h-105q-59 -102 -190 -146.5t-277 -44.5q-53 0 -109.5 9.5t-115.5 29t-101 59 t-48 93.5h-109zM78 -225q20 -61 82.5 -91t134.5 -30q227 0 248 121h-465zM82 -135h440q-43 55 -291 123q-116 -47 -149 -123zM309 508q0 -131 90 -131q63 0 115.5 73.5t76 158.5t23.5 147q0 51 -23.5 89t-70.5 38q-90 0 -150.5 -134.5t-60.5 -240.5z" />
<glyph unicode="&#x1e6;" horiz-adv-x="1478" d="M744 1808h102l187 -199l276 199h115l-332 -356h-168zM43 514q0 236 123 449t326 331q188 109 426 109q115 0 214 -31t113 -31q55 0 86 62h64l-105 -453l-59 8q-4 182 -68.5 276.5t-216.5 94.5q-133 0 -247.5 -90t-185.5 -228.5t-111 -293t-40 -291.5q0 -186 86.5 -285.5 t249.5 -99.5q59 0 115.5 17.5t77.5 43.5q12 18 65.5 201.5t53.5 245.5q0 23 -9.5 36t-37 21t-44 10t-61.5 7v53h588v-53q-82 -6 -107.5 -33t-54.5 -135l-98 -371l-58 -27q-88 -41 -225 -67.5t-254 -26.5q-268 0 -437 153.5t-169 397.5z" />
<glyph unicode="&#x1e7;" horiz-adv-x="1024" d="M395 1384h102l187 -199l276 199h115l-332 -356h-168zM-106 -199q0 25 6 46.5t15 38t25.5 31.5t30 26.5t36 21.5t35.5 15.5t37.5 12.5t33 9t30.5 6l23 6q-127 43 -127 136q0 55 36 90.5t161 107.5q-164 70 -164 225.5t133 264t321 108.5q133 0 226 -67h227v-115h-137 q12 -39 12 -86q0 -106 -53 -184t-133 -114t-144.5 -51.5t-111.5 -15.5q-35 0 -62.5 8.5t-42.5 8.5q-20 0 -38.5 -24.5t-18.5 -49.5q0 -49 104 -78l109 -31q168 -47 236.5 -105t68.5 -151q0 -135 -137 -221t-352 -86q-176 0 -280.5 58.5t-104.5 158.5zM72 -186 q0 -70 63.5 -115t163.5 -45q117 0 181.5 38t64.5 103q0 78 -84 117q-33 14 -123 45t-105 31q-31 0 -96 -54t-65 -120zM309 498q0 -121 88 -121q92 0 154.5 134t62.5 251q0 53 -26.5 87t-65.5 34q-90 0 -151.5 -134t-61.5 -251z" />
<glyph unicode="&#x1e8;" horiz-adv-x="1359" d="M711 1808h102l187 -199l276 199h115l-332 -356h-168zM-49 0v51q76 10 108.5 39t55.5 109l250 919q23 84 22 119q0 43 -29.5 56.5t-119.5 25.5v51h634v-51q-92 -8 -132 -38t-60 -110l-127 -466q315 270 438 392t123 167q0 43 -72 51q-6 0 -43 4v51h433v-51 q-68 -10 -97.5 -24.5t-95.5 -73.5l-442 -406l321 -692q16 -37 43 -51.5t86 -20.5v-51h-573v51q39 2 55 5t39 8.5t31 15.5t8 26q0 29 -27 89l-231 495l-137 -510q-4 -20 -4 -35q0 -51 27.5 -69.5t107.5 -24.5v-51h-592z" />
<glyph unicode="&#x1e9;" horiz-adv-x="1024" d="M490 1833h102l187 -199l276 199h115l-332 -356h-168zM-47 0l319 1161q16 61 17 86q0 70 -86 70q-27 0 -43 -2v55q199 20 426 62l-252 -943q195 154 265.5 223.5t70.5 108.5q0 25 -22.5 34t-82.5 13v52h424v-52q-70 -8 -121 -36.5t-155 -118.5l-129 -113 q57 -299 86.5 -385t72.5 -86q29 0 57.5 29.5t69.5 101.5l45 -22q-78 -139 -140 -196.5t-138 -57.5q-96 0 -150.5 98t-101.5 358l-80 -55l-102 -385h-250z" />
<glyph unicode="&#x1ea;" horiz-adv-x="1478" d="M55 453q0 147 65.5 313t177.5 308.5t276.5 235.5t345.5 93q213 0 354 -134t141 -339q0 -121 -38 -252t-110.5 -254t-171 -222.5t-231.5 -164t-276 -72.5q-20 -78 -21 -112q0 -131 129 -132q27 0 49.5 7.5t47 20.5t26.5 13l45 -28q-39 -70 -106.5 -112t-145.5 -42 q-94 0 -155.5 47t-61.5 119q0 39 22.5 85t38 66.5t52.5 65.5q-205 10 -329 144.5t-124 345.5zM350 281q0 -115 56.5 -181.5t152.5 -66.5q160 0 297 198q102 152 183 412t81 444q0 111 -57 178.5t-152 67.5q-190 0 -344 -268q-84 -147 -150.5 -387.5t-66.5 -396.5z" />
<glyph unicode="&#x1eb;" horiz-adv-x="1024" d="M-6 276q0 258 181 464t407 206q139 0 230 -87t91 -222q0 -162 -75.5 -311.5t-201.5 -243.5t-268 -107q-20 -78 -20 -112q0 -131 129 -131q27 0 49.5 7t47 20.5t26.5 13.5l45 -29q-39 -70 -106.5 -112t-145.5 -42q-94 0 -155.5 47.5t-61.5 118.5q0 39 22.5 86t38 66.5 t52.5 66.5q-125 12 -205 96t-80 205zM238 160q0 -57 26.5 -92t73.5 -35q76 0 141.5 94t102 224t57 244t20.5 173q0 55 -25.5 87t-70.5 32q-90 0 -168 -132t-117.5 -297t-39.5 -298z" />
<glyph unicode="&#x1ec;" horiz-adv-x="1478" d="M614 1479l35 143h666l-33 -143h-668zM55 453q0 147 65.5 313t177.5 308.5t276.5 235.5t345.5 93q213 0 354 -134t141 -339q0 -121 -38 -252t-110.5 -254t-171 -222.5t-231.5 -164t-276 -72.5q-20 -78 -21 -112q0 -131 129 -132q27 0 49.5 7.5t47 20.5t26.5 13l45 -28 q-39 -70 -106.5 -112t-145.5 -42q-94 0 -155.5 47t-61.5 119q0 39 22.5 85t38 66.5t52.5 65.5q-205 10 -329 144.5t-124 345.5zM350 281q0 -115 56.5 -181.5t152.5 -66.5q160 0 297 198q102 152 183 412t81 444q0 111 -57 178.5t-152 67.5q-190 0 -344 -268 q-84 -147 -150.5 -387.5t-66.5 -396.5z" />
<glyph unicode="&#x1ed;" horiz-adv-x="1024" d="M274 1100l35 143h666l-33 -143h-668zM-6 276q0 258 181 464t407 206q139 0 230 -87t91 -222q0 -162 -75.5 -311.5t-201.5 -243.5t-268 -107q-20 -78 -20 -112q0 -131 129 -131q27 0 49.5 7t47 20.5t26.5 13.5l45 -29q-39 -70 -106.5 -112t-145.5 -42q-94 0 -155.5 47.5 t-61.5 118.5q0 39 22.5 86t38 66.5t52.5 66.5q-125 12 -205 96t-80 205zM238 160q0 -57 26.5 -92t73.5 -35q76 0 141.5 94t102 224t57 244t20.5 173q0 55 -25.5 87t-70.5 32q-90 0 -168 -132t-117.5 -297t-39.5 -298z" />
<glyph unicode="&#x1ee;" horiz-adv-x="1267" d="M666 1837h102l187 -199l276 199h115l-332 -356h-168zM31 305q0 68 44 116t111 48q53 0 92 -38t39 -91t-40.5 -103.5t-40.5 -68.5q0 -61 65.5 -90t134.5 -29q127 0 218 75t130 182.5t39 232.5q0 115 -56 162t-173 47v67l465 483h-160q-176 0 -290.5 -72.5t-225.5 -228.5 l-57 9l116 364h959v-59l-500 -535q256 -74 256 -317q0 -158 -101.5 -274.5t-242.5 -169t-293 -52.5q-102 0 -210.5 36t-193.5 118t-85 188z" />
<glyph unicode="&#x1ef;" horiz-adv-x="1050" d="M275 1384h102l187 -199l276 199h115l-332 -356h-168zM-182 -236q0 51 38 89t89 38t89 -37.5t38 -89.5q0 -76 -64 -108q66 -37 105 -37q193 0 317.5 154.5t124.5 353.5q0 225 -248 225q-23 0 -47 -4t-57 -13t-47 -11l-23 45q373 297 451 354h-371q-84 0 -129 -125l-57 6 l88 316h786v-35l-459 -361q51 10 97 11q131 0 201.5 -85t70.5 -221q0 -270 -202.5 -471.5t-473.5 -201.5q-94 0 -205.5 60t-111.5 148z" />
<glyph unicode="&#x1f0;" horiz-adv-x="569" d="M-387 -266q0 45 29.5 76.5t70.5 31.5t71 -29.5t30 -70.5q0 -27 -15.5 -49.5t-15.5 -28.5q0 -8 16.5 -16t32.5 -8q43 0 75 57t70 211l189 727q25 102 24 135q0 39 -24.5 51.5t-102.5 12.5v55q279 25 426 57l-233 -897q-123 -473 -428 -473q-96 0 -155.5 44t-59.5 114z M94 1384h102l187 -199l276 199h115l-332 -356h-168z" />
<glyph unicode="&#x1f1;" horiz-adv-x="2775" d="M1501 0v59l889 1239h-159q-168 0 -282 -65.5t-235 -235.5l-57 9l117 364h958v-59l-889 -1239h144q238 0 371 77.5t245 258.5l56 -11l-121 -397h-1037zM-49 0v51q76 10 109.5 40t54.5 108l247 913q25 98 25 121q0 47 -28.5 60.5t-120.5 25.5v51h593q291 0 454 -148.5 t163 -410.5q0 -348 -260 -579.5t-651 -231.5h-586zM408 139q0 -70 110 -69q287 0 449 231q84 119 132 290t48 345q0 371 -338 371q-92 0 -113 -78l-264 -979q-24 -95 -24 -111z" />
<glyph unicode="&#x1f2;" horiz-adv-x="2320" d="M1436 -2l598 725h-297q-47 0 -74.5 -27.5t-54.5 -97.5l-57 6l88 316h639v-21l-576 -686q84 -37 138.5 -94.5t72 -103.5t43 -80.5t62.5 -34.5q18 0 31.5 9t13.5 23q0 8 -20.5 39t-20.5 56q0 43 30.5 74.5t71.5 31.5q43 0 76 -31.5t33 -74.5q0 -78 -63.5 -132.5 t-158.5 -54.5q-78 0 -161.5 43t-151.5 85t-104 42q-29 0 -107 -57zM-49 0v51q76 10 109.5 40t54.5 108l247 913q25 98 25 121q0 47 -28.5 60.5t-120.5 25.5v51h593q291 0 454 -148.5t163 -410.5q0 -348 -260 -579.5t-651 -231.5h-586zM408 139q0 -70 110 -69q287 0 449 231 q84 119 132 290t48 345q0 371 -338 371q-92 0 -113 -78l-264 -979q-24 -95 -24 -111z" />
<glyph unicode="&#x1f3;" horiz-adv-x="1820" d="M936 -2l598 725h-297q-47 0 -74.5 -27.5t-54.5 -97.5l-57 6l88 316h639v-21l-576 -686q84 -37 138.5 -94.5t72 -103.5t43 -80.5t62.5 -34.5q18 0 31.5 9t13.5 23q0 8 -20.5 39t-20.5 56q0 43 30.5 74.5t71.5 31.5q43 0 76 -31.5t33 -74.5q0 -78 -63.5 -132.5 t-158.5 -54.5q-78 0 -161.5 43t-151.5 85t-104 42q-29 0 -107 -57zM-43 229q0 156 86 325t218 280.5t253 111.5q80 0 148 -67l38 139q57 205 58 242q0 57 -84 57h-43v55q264 20 428 60l-228 -830q-117 -424 -116 -457q0 -8 7 -16t15 -8q49 0 137 147l46 -32 q-84 -135 -157 -197t-149 -62q-57 0 -89.5 34t-32.5 93q0 33 22 138q-88 -145 -166 -207t-174 -62q-94 0 -155.5 72.5t-61.5 183.5zM211 240q0 -51 23.5 -85t60.5 -34q82 0 164 140t127 287.5t45 209.5q0 45 -22.5 73.5t-59.5 28.5q-80 0 -163 -127t-129 -271t-46 -222z" />
<glyph unicode="&#x1f4;" horiz-adv-x="1478" d="M779 1452l250 268q94 102 143 102q39 0 68.5 -28.5t29.5 -67.5q0 -29 -17.5 -49t-62.5 -47l-311 -178h-100zM43 514q0 236 123 449t326 331q188 109 426 109q115 0 214 -31t113 -31q55 0 86 62h64l-105 -453l-59 8q-4 182 -68.5 276.5t-216.5 94.5q-133 0 -247.5 -90 t-185.5 -228.5t-111 -293t-40 -291.5q0 -186 86.5 -285.5t249.5 -99.5q59 0 115.5 17.5t77.5 43.5q12 18 65.5 201.5t53.5 245.5q0 23 -9.5 36t-37 21t-44 10t-61.5 7v53h588v-53q-82 -6 -107.5 -33t-54.5 -135l-98 -371l-58 -27q-88 -41 -225 -67.5t-254 -26.5 q-268 0 -437 153.5t-169 397.5z" />
<glyph unicode="&#x1f5;" horiz-adv-x="1024" d="M430 1028l250 268q94 102 143 102q39 0 68.5 -28.5t29.5 -67.5q0 -29 -17.5 -49t-62.5 -47l-311 -178h-100zM-106 -199q0 25 6 46.5t15 38t25.5 31.5t30 26.5t36 21.5t35.5 15.5t37.5 12.5t33 9t30.5 6l23 6q-127 43 -127 136q0 55 36 90.5t161 107.5q-164 70 -164 225.5 t133 264t321 108.5q133 0 226 -67h227v-115h-137q12 -39 12 -86q0 -106 -53 -184t-133 -114t-144.5 -51.5t-111.5 -15.5q-35 0 -62.5 8.5t-42.5 8.5q-20 0 -38.5 -24.5t-18.5 -49.5q0 -49 104 -78l109 -31q168 -47 236.5 -105t68.5 -151q0 -135 -137 -221t-352 -86 q-176 0 -280.5 58.5t-104.5 158.5zM72 -186q0 -70 63.5 -115t163.5 -45q117 0 181.5 38t64.5 103q0 78 -84 117q-33 14 -123 45t-105 31q-31 0 -96 -54t-65 -120zM309 498q0 -121 88 -121q92 0 154.5 134t62.5 251q0 53 -26.5 87t-65.5 34q-90 0 -151.5 -134t-61.5 -251z " />
</font>
</defs>
</svg>
