<?xml version="1.0" standalone="no"?>
<!DOCTYPE svg PUBLIC "-//W3C//DTD SVG 1.1//EN" "http://www.w3.org/Graphics/SVG/1.1/DTD/svg11.dtd" >
<svg xmlns="http://www.w3.org/2000/svg">
<metadata>
This is a custom SVG webfont generated by Font Squirrel.
Copyright   : Copyright 2003 2009 B Jackowski and J M Nowacki on behalf of TeX users groups This work is released under the GUST Font License   see httptugorgfontslicensesGUSTFONTLICENSEtxt for details
</metadata>
<defs>
<font id="LatinModernSans10Oblique" horiz-adv-x="1024" >
<font-face units-per-em="2048" ascent="1651" descent="-397" />
<missing-glyph horiz-adv-x="681" />
<glyph unicode="IJ" horiz-adv-x="1478" d="M193 0l303 1421h182l-303 -1421h-182zM606 41l62 154q39 -55 103.5 -85t133.5 -30q84 0 145.5 29.5t90 75.5t40 74t15.5 52l238 1110h176l-238 -1116q-37 -168 -153.5 -259t-280.5 -91q-174 0 -332 86z" />
<glyph unicode="ij" horiz-adv-x="987" d="M166 0l192 909h154l-193 -909h-153zM242 -350l57 125q53 -63 143 -64q160 0 193 150l221 1048h154l-219 -1030q-29 -137 -123.5 -218t-196.5 -81q-125 0 -229 70zM397 1159l39 182h182l-38 -182h-183zM881 1159l39 182h182l-39 -182h-182z" />
<glyph unicode="fk" horiz-adv-x="1622" d="M207 0l168 791h-152l25 118h151l41 187q33 152 132.5 250t213.5 98q51 0 119 -23l-31 -137q-47 35 -114 35q-49 0 -95.5 -37t-64.5 -125l-53 -248h248l-25 -118h-242l-168 -791h-153zM786 0l304 1421h147l-201 -938l506 426h184l-417 -352l270 -557h-168l-221 459 l-201 -170l-61 -289h-142z" />
<glyph unicode="&#xfb00;" horiz-adv-x="1193" d="M207 0l168 791h-152l25 118h151l41 185q33 152 151 251t263 99q70 0 160 -23l-31 -137q-72 35 -158 35q-27 0 -54.5 -5t-65 -20.5t-66.5 -51.5t-39 -89l-53 -244h231l-24 -118h-226l-168 -791h-153zM774 0l234 1094q33 152 150.5 251t262.5 99q70 0 160 -23l-31 -137 q-72 35 -157 35q-27 0 -54.5 -5t-65.5 -20.5t-66.5 -51.5t-39.5 -89l-53 -244h232l-25 -118h-225l-168 -791h-154z" />
<glyph unicode="&#xfb01;" horiz-adv-x="1097" d="M207 0l168 791h-152l25 118h151l41 187q33 152 132.5 250t213.5 98q51 0 119 -23l-31 -139q-51 37 -114 37q-49 0 -95.5 -37t-64.5 -125l-53 -248h248l-25 -118h-242l-168 -791h-153zM774 0l193 909h153l-192 -909h-154zM1032 1253l37 170h170l-37 -170h-170z" />
<glyph unicode="&#xfb02;" horiz-adv-x="1097" d="M207 0l168 791h-152l25 118h151l41 187q33 152 132.5 250t213.5 98q51 0 119 -23l-31 -137q-47 35 -114 35q-49 0 -95.5 -37t-64.5 -125l-53 -248h248l-25 -118h-242l-168 -791h-153zM774 0l303 1421h154l-303 -1421h-154z" />
<glyph unicode="&#xfb04;" horiz-adv-x="1667" d="M207 0l168 791h-152l25 118h151l41 185q33 154 140.5 252t238.5 98q74 0 137 -23l-30 -137q-59 35 -135 35q-33 0 -66 -9.5t-72 -49t-53 -105.5l-53 -246h248l-25 -118h-242l-168 -791h-153zM776 0l234 1096q33 152 132 250t214 98q51 0 119 -23l-31 -137q-47 35 -115 35 q-49 0 -95 -37t-65 -125l-53 -248h248l-25 -118h-241l-168 -791h-154zM1343 0l304 1421h153l-303 -1421h-154z" />
<glyph unicode=" "  horiz-adv-x="681" />
<glyph unicode="&#x09;" horiz-adv-x="681" />
<glyph unicode="&#xa0;" horiz-adv-x="681" />
<glyph unicode="!" horiz-adv-x="653" d="M242 0l37 170h170l-37 -170h-170zM334 358l18 88l193 975h170l-226 -975l-18 -88h-137z" />
<glyph unicode="&#x22;" horiz-adv-x="888" d="M391 881l125 585h160l-125 -585h-160zM711 881l125 585h159l-125 -585h-159z" />
<glyph unicode="#" horiz-adv-x="1705" d="M180 307q8 41 78 41h348l156 328h-434q-20 0 -32.5 1t-23 11t-6.5 29q10 41 78 41h461l293 614q27 49 57 49q16 0 25.5 -12t5.5 -29q-6 -27 -17 -37l-280 -585h385l293 614q27 49 57 49q16 0 25.5 -12t5.5 -29q-6 -27 -17 -37l-280 -585h325q20 0 31.5 -1t21 -11.5 t5.5 -28.5q-8 -41 -78 -41h-348l-156 -328h434q20 0 32.5 -1t23 -11t6.5 -29q-8 -41 -76 -41h-461l-295 -614q-23 -49 -55 -49q-16 0 -26.5 12t-6.5 29q6 27 17 37l282 585h-385l-295 -614q-23 -49 -55 -49q-16 0 -26.5 12t-6.5 29q6 27 17 37l282 585h-325q-20 0 -31.5 1 t-22 11.5t-6.5 28.5zM690 348h385l156 328h-385z" />
<glyph unicode="$" d="M115 119l55 139q117 -127 305 -147l117 548q-80 20 -136.5 59.5t-82 82.5t-35.5 94t-8 87t8 69q29 133 140.5 246.5t279.5 142.5l20 96h119l-18 -94q152 -10 278 -113l-53 -135q-106 102 -254 117l-105 -494q156 -33 216.5 -154.5t29.5 -263.5q-31 -152 -149.5 -271.5 t-274.5 -143.5l-20 -99h-119l21 95q-187 18 -334 139zM494 1077q-16 -72 16.5 -138.5t122.5 -90.5l98 459q-92 -20 -156.5 -85t-80.5 -145zM596 117q96 27 159.5 99.5t82.5 156.5q18 90 -19 162.5t-114 95.5z" />
<glyph unicode="%" horiz-adv-x="1705" d="M344 -74l23 37l1218 1540q27 33 49 33q16 0 26.5 -12.5t6.5 -28.5q-4 -14 -25 -37l-1216 -1540q-23 -33 -49 -33q-16 0 -25.5 12.5t-7.5 28.5zM354 1124q37 176 147.5 294t225.5 118q113 0 172 -118t21 -296q-37 -174 -145.5 -292.5t-221.5 -118.5t-175.5 117.5 t-23.5 295.5zM489 985q0 -57 9.5 -85t29 -44t29.5 -18t23 -2q59 0 116.5 84t83.5 204q25 113 2.5 200t-82.5 87q-12 0 -25 -3t-38 -20.5t-46.5 -46t-45 -85t-39.5 -134.5q-17 -80 -17 -137zM1085 299q37 176 149 294t226 118q111 0 170.5 -118t22.5 -296 q-37 -174 -146.5 -293t-222.5 -119t-174.5 118t-24.5 296zM1223 159.5q0 -57.5 9 -85t27.5 -44t28.5 -18.5t23 -2q59 0 117.5 85t82.5 204q27 113 4.5 200t-81.5 87q-12 0 -25.5 -3t-38 -20.5t-46 -46.5t-45.5 -85t-40 -134q-16 -80 -16 -137.5z" />
<glyph unicode="&#x26;" horiz-adv-x="1552" d="M150 299q27 127 141 227q6 6 178 133q14 10 55 41l23 23q2 6 -2 20q-18 178 12 318q37 170 139.5 287.5t229.5 117.5q117 0 170 -98t26 -223q-20 -96 -116.5 -198.5t-286.5 -244.5q59 -223 223 -452q135 92 262 252q117 141 207 327l119 -36q-201 -406 -508 -631 q90 -76 197 -76q119 0 243 37l-28 -137q-131 -31 -246 -31q-174 0 -303 119q-238 -119 -434 -119q-160 0 -246 101.5t-55 242.5zM313 313q-18 -88 24 -157.5t144 -69.5q152 0 318 78q-16 20 -53 77.5t-90.5 163t-80.5 193.5q-4 -2 -45 -32.5t-76.5 -56.5t-35.5 -28 q-85 -66 -105 -168zM687 965.5q-1 -29.5 1 -66.5t8 -72q129 98 199 173t86 147q2 31 6 74t-18.5 81.5t-71.5 38.5q-55 0 -112.5 -53t-79.5 -158l-5 -16q-2 -18 -5 -37.5t-5 -50.5t-3 -60.5z" />
<glyph unicode="'" horiz-adv-x="569" d="M391 881l125 585h160l-125 -585h-160z" />
<glyph unicode="(" horiz-adv-x="796" d="M270 512q74 334 222 586q68 115 153.5 215t127.5 136t108 87h125q-217 -178 -359 -428q-145 -258 -217 -596q-41 -188 -46 -352t10.5 -265.5t54 -194.5t63.5 -130t59 -82h-125q-317 358 -176 1024z" />
<glyph unicode=")" horiz-adv-x="796" d="M6 -512q221 182 359 428q145 258 217 596q41 188 46 352t-10.5 265.5t-54.5 194.5t-63.5 130t-59.5 82h125q317 -358 176 -1024q-66 -324 -221 -586q-68 -115 -153.5 -215t-127.5 -136t-108 -87h-125z" />
<glyph unicode="*" d="M322 893q6 27 19 39t48 29l248 120q-61 37 -115.5 70t-77 46t-26.5 17q-25 18 -17 56q6 35 33 54t51.5 19t51.5 -22l170 -141q2 16 20 135t25 149q6 35 31.5 53.5t54.5 18.5q25 0 44 -17.5t11 -54.5q-14 -76 -78 -284l227 137q43 27 64 26q25 0 43 -19t12 -54 q-6 -27 -19.5 -39t-47.5 -29l-250 -121q59 -37 115 -70l77 -46q20 -12 27 -17q25 -18 18 -55q-6 -35 -33.5 -54.5t-52.5 -19.5q-23 0 -59 33l-162 131q-29 -217 -45 -285q-6 -35 -31.5 -53t-54.5 -18q-25 0 -43 17.5t-12 53.5q6 31 40 150t38 135l-226 -137q-43 -27 -65 -27 q-25 0 -42 19.5t-11 54.5z" />
<glyph unicode="+" horiz-adv-x="1593" d="M223 512q8 41 76 41h573l123 573q14 68 55.5 68t26.5 -68l-123 -573h572q20 0 31.5 -1t21.5 -11.5t6 -28.5q-8 -41 -76 -41h-571l-123 -573q-14 -68 -55 -68t-27 68l123 573h-573q-20 0 -31.5 1t-22 11.5t-6.5 28.5z" />
<glyph unicode="," horiz-adv-x="569" d="M143 -256l107 256h-51l37 170h170l-37 -168l-142 -258h-84z" />
<glyph unicode="-" horiz-adv-x="681" d="M106 395l25 119h543l-25 -119h-543z" />
<glyph unicode="." horiz-adv-x="569" d="M199 0l37 170h170l-37 -170h-170z" />
<glyph unicode="/" d="M14 -471q2 10 19 37l1108 1929q20 41 51 41q16 0 26.5 -12.5t6.5 -28.5q-2 -10 -19 -37l-1108 -1929q-20 -41 -51 -41q-16 0 -26.5 12.5t-6.5 28.5z" />
<glyph unicode="0" d="M199 207q-31 164 28 461q66 309 181 483q160 238 399 238q90 0 171 -48.5t116 -154.5q55 -182 -17 -518q-63 -309 -184 -488q-72 -106 -176.5 -165.5t-216.5 -59.5q-102 0 -187 58.5t-114 193.5zM346 305q6 -109 54.5 -167t127.5 -58q166 0 275 219q66 133 121 393 q55 264 41 379q-33 193 -187 193q-164 0 -272 -207q-61 -117 -113 -365q-55 -258 -47 -387z" />
<glyph unicode="1" d="M195 0l24 119h256l227 1065q-117 -45 -278 -49l25 118q270 10 417 136h41l-270 -1270h256l-25 -119h-673z" />
<glyph unicode="2" d="M102 0l29 131l307 254l189 145q98 82 147 127t105.5 125t72.5 162q29 127 -31.5 220t-197.5 93q-125 0 -204 -83.5t-148 -233.5q-6 12 -14.5 26.5t-13.5 22.5t-5 10q-2 4 -29 54q168 336 469 336q197 0 289 -129.5t53 -311.5q-16 -80 -68.5 -156.5t-93 -114.5 t-118.5 -104q-25 -18 -109 -79.5t-108 -79.5l-342 -271h223q12 0 36.5 1t37.5 1h372l-30 -145h-818z" />
<glyph unicode="3" d="M121 168l49 123q45 -100 141.5 -155.5t206.5 -55.5q115 0 202 84t111 207q14 39 9.5 89t-19 95t-64.5 77t-128 32h-146l27 124q156 12 164 15q96 20 172 99t96 175q18 92 -31 142.5t-135 50.5q-98 0 -198.5 -57.5t-165.5 -159.5l-50 110q86 106 204 166t237 60 q154 0 244 -90.5t63 -221.5q-23 -102 -100.5 -197.5t-202.5 -154.5q109 -35 172 -130t35 -226q-35 -166 -185.5 -290t-332.5 -124q-254 0 -375 213z" />
<glyph unicode="4" d="M131 350l27 125l702 868h187l-185 -868h203l-27 -125h-202l-74 -350h-162l74 350h-543zM317 475h396l166 778q-16 -76 -201 -319.5t-361 -458.5z" />
<glyph unicode="5" d="M113 156l92 114q29 -84 104.5 -137t175.5 -53q16 0 37 2t70 20.5t89 50t83 101.5t63 166q35 170 -9 250t-128 80q-160 0 -264 -162h-135l160 755h686l-27 -131h-539l-90 -421q113 84 238 83q160 0 245 -134t44 -324q-41 -193 -202 -327t-345 -134q-121 0 -211 55.5 t-137 145.5z" />
<glyph unicode="6" d="M190.5 363.5q-6.5 123.5 34.5 295.5q70 322 275 526t428 204q113 0 209 -41l-27 -121q-98 43 -205 43q-147 0 -279 -128t-202 -366q172 170 381 170q143 0 206.5 -144.5t20.5 -346.5q-27 -119 -73 -200t-134 -161q-152 -139 -321 -139q-57 0 -107.5 17.5t-101.5 63.5 t-74.5 125t-30 202.5zM349 323.5q-1 -49.5 9.5 -86t29 -75.5t55 -60.5t87.5 -21.5q131 0 232 127q70 86 102 248q35 154 4 239q-41 127 -170 127q-121 0 -212 -96t-115 -219q-6 -16 -15 -57q-4 -29 -5 -52.5t-2 -73z" />
<glyph unicode="7" d="M307 -23q143 686 746 1223h-248q-12 0 -38 -1t-38 -1h-389l31 145h850l-27 -133q-88 -80 -180 -186t-200.5 -263t-199 -361.5t-135.5 -422.5h-172z" />
<glyph unicode="8" d="M164 369q29 127 129 222t227 136q-117 41 -161 126t-25 177q31 145 168 252t305 107q164 0 257 -106.5t62 -252.5q-18 -92 -99 -177t-218 -126q109 -39 171 -133t34 -225q-35 -166 -184.5 -290t-329.5 -124q-176 0 -273.5 123t-62.5 291zM330 371q-29 -139 28.5 -215 t169.5 -76q106 0 198.5 74.5t121.5 216.5q31 145 -31.5 219t-165.5 74q-98 0 -193 -73t-128 -220zM477.5 1030.5q-22.5 -106.5 31.5 -174.5t171 -68q113 0 197 67t106 175q23 102 -30.5 171t-172.5 69q-113 0 -196.5 -66.5t-106 -173z" />
<glyph unicode="9" d="M158 49l86 109q78 -78 194 -78q131 0 256 126t191 361q-174 -170 -383 -170q-143 0 -207 144.5t-21 347.5q45 219 211 362q160 137 328 138q57 0 107.5 -17.5t97.5 -66t72.5 -124t25.5 -203.5t-35 -292q-68 -324 -265.5 -527.5t-405.5 -203.5q-143 0 -252 94zM438 645 q43 -123 170 -123q117 0 210 94.5t120 225.5q8 29 8 49q8 49 10 103.5t-6 122t-50 110.5t-112 43q-125 0 -229 -117q-78 -88 -117 -264q-33 -162 -4 -244z" />
<glyph unicode=":" horiz-adv-x="569" d="M199 0l37 170h170l-37 -170h-170zM356 739l35 170h170l-35 -170h-170z" />
<glyph unicode=";" horiz-adv-x="569" d="M143 -256l107 256h-51l37 170h170l-37 -168l-142 -258h-84zM356 739l35 170h170l-35 -170h-170z" />
<glyph unicode="&#x3c;" horiz-adv-x="1593" d="M279 512q6 27 49 45l1247 535q31 14 41 14q16 0 26.5 -12.5t6.5 -28.5q-6 -25 -50 -45l-1183 -508l966 -508q35 -18 31 -45q-4 -16 -19.5 -28.5t-31.5 -12.5q-10 0 -33 14l-1022 535q-32 18 -28 45z" />
<glyph unicode="=" horiz-adv-x="1593" d="M180 307q8 41 78 41h1223q20 0 32.5 -1t22.5 -11t6 -29q-8 -41 -76 -41h-1226q-20 0 -31.5 1t-22 11.5t-6.5 28.5zM266 717q10 41 78 41h1227q20 0 31.5 -1t20.5 -11.5t5 -28.5q-8 -41 -78 -41h-1222q-20 0 -32.5 1t-23 11.5t-6.5 28.5z" />
<glyph unicode="&#x3e;" horiz-adv-x="1593" d="M162 -41q6 27 47 45l1184 508l-967 508q-35 18 -29 45q8 41 49 41q10 0 33 -14l1022 -535q35 -18 29 -45q-4 -29 -49 -45l-1248 -535q-31 -14 -40 -14q-16 0 -25.5 12.5t-5.5 28.5z" />
<glyph unicode="?" horiz-adv-x="966" d="M369 0l37 170h169l-36 -170h-170zM399 1335q180 109 367 109q209 0 279.5 -95.5t44.5 -222.5q-31 -150 -170 -245q-121 -88 -198 -195.5t-99 -216.5l-25 -111h-137l14 66q74 350 350 549q86 66 105 155q12 61 0 102.5t-47 59t-67 23.5t-77 6q-174 0 -321 -113z" />
<glyph unicode="@" horiz-adv-x="1366" d="M266.5 710.5q65.5 307.5 313 520.5t520.5 213q459 0 307 -703q-29 -133 -89.5 -235.5t-132 -155.5t-138 -78.5t-123.5 -25.5q-154 0 -239 134t-42 331q41 197 182.5 331t294.5 134q90 0 162 -52q-29 195 -211 195q-207 0 -401.5 -174t-249.5 -434q-53 -252 62.5 -430.5 t340.5 -178.5q150 0 312 64q18 8 53 8h98q-84 -76 -214 -136.5t-281 -60.5q-279 0 -434.5 213t-90 520.5zM796.5 710.5q-30.5 -143.5 14.5 -241.5t137 -98t180.5 98t119 241.5t-15.5 242t-138.5 98.5t-179.5 -98.5t-117.5 -242z" />
<glyph unicode="A" horiz-adv-x="1366" d="M57 0l838 1421h180l232 -1421h-189l-67 418h-596l-246 -418h-152zM522 532h508l-74 527q-23 172 -20 215h-2q-23 -57 -199 -371q-84 -145 -106.5 -184.5t-106.5 -186.5z" />
<glyph unicode="B" horiz-adv-x="1366" d="M199 0l303 1421h485q215 0 340 -106q100 -85 100 -195q0 -27 -6 -55q-25 -113 -139.5 -199t-269.5 -123q162 -27 254 -127q72 -78 71 -174q0 -28 -6 -57q-33 -154 -204 -269.5t-388 -115.5h-540zM393 115h314q166 0 300 78.5t158 193.5q5 24 6 46q0 91 -88 159 q-109 84 -274 84h-297zM539 801h237q199 0 331 81t153 181q4 18 4 36q0 79 -85 137q-103 71 -274 71h-258z" />
<glyph unicode="C" horiz-adv-x="1308" d="M287 711q66 303 303 520q242 215 512 215q111 0 190 -16q88 -16 178 -58l-63 -168q-74 59 -154 86q-74 25 -180 25q-195 0 -375 -176q-176 -180 -229 -428q-18 -85 -18 -162q0 -147 67 -264q104 -176 299 -176q135 0 213 24q80 23 209 100l-16 -141q-137 -74 -215 -92 q-82 -23 -217 -23q-272 0 -422 216q-102 149 -102 339q0 86 20 179z" />
<glyph unicode="D" horiz-adv-x="1478" d="M197 0l303 1421h536q262 0 401 -212q94 -144 93 -327q0 -87 -21 -184q-61 -291 -287.5 -494.5t-486.5 -203.5h-538zM397 115h314q217 0 392 162.5t230 420.5q20 95 21 178q0 151 -68 261q-104 170 -321 170h-314z" />
<glyph unicode="E" horiz-adv-x="1222" d="M193 0l301 1415h913l-29 -133h-374q-12 0 -37 1t-37 1h-283l-102 -485h676l-27 -125h-676l-112 -531h428q12 0 36.5 1t36.5 1h258l-30 -145h-942z" />
<glyph unicode="F" horiz-adv-x="1165" d="M193 0l301 1415h884l-28 -133h-361q-12 0 -36.5 1t-37.5 1h-268l-108 -514h618l-27 -125h-618l-137 -645h-182z" />
<glyph unicode="G" horiz-adv-x="1366" d="M287 711q66 303 303 520q242 215 512 215q117 0 209 -23q100 -29 182 -80l-66 -167q-74 76 -157 106q-80 33 -197 33q-195 0 -375 -176q-176 -180 -229 -428q-18 -85 -18 -162q0 -147 67 -264q104 -176 299 -176q141 0 281 43l71 337h-270l27 125h430l-115 -536 q-225 -100 -450 -101q-131 0 -242 57.5t-180 158.5q-102 149 -102 339q0 86 20 179z" />
<glyph unicode="H" horiz-adv-x="1449" d="M193 0l303 1421h182l-133 -620h698l133 620h183l-304 -1421h-182l144 676h-699l-143 -676h-182z" />
<glyph unicode="I" horiz-adv-x="569" d="M193 0l303 1421h182l-303 -1421h-182z" />
<glyph unicode="J" horiz-adv-x="966" d="M94 41l62 154q39 -55 103.5 -85t133.5 -30q84 0 145.5 29.5t90 75.5t40 74t15.5 52l238 1110h176l-238 -1116q-37 -168 -153.5 -259t-280.5 -91q-174 0 -332 86z" />
<glyph unicode="K" horiz-adv-x="1421" d="M197 0l303 1421h174l-162 -759l905 759h191l-670 -561l395 -860h-188l-344 745l-332 -280l-98 -465h-174z" />
<glyph unicode="L" horiz-adv-x="1110" d="M193 0l303 1421h182l-275 -1290h101l547 4l-29 -135h-829z" />
<glyph unicode="M" horiz-adv-x="1792" d="M205 0l303 1421h231l31 -178l141 -848q18 -133 23 -205h2q47 104 303 537l416 694h233l-303 -1421h-160l271 1270l-2 2q-4 -8 -140 -254l-153 -260l-424 -713h-150l-135 797q-57 356 -55 428h-2l-270 -1270h-160z" />
<glyph unicode="N" horiz-adv-x="1449" d="M197 0l303 1421h254l288 -995l78 -281h2l273 1276h159l-303 -1421h-254l-290 995l-78 281h-2l-271 -1276h-159z" />
<glyph unicode="O" horiz-adv-x="1507" d="M264 707q70 317 304.5 538t496.5 221q258 0 400 -221q97 -150 97 -344q0 -92 -22 -194q-66 -317 -302.5 -534.5t-496.5 -217.5q-256 0 -400 216q-98 147 -98 342q-1 92 21 194zM455 737q-24 -112 -24 -208q0 -149 57 -260q95 -181 284 -181q184 0 358.5 180.5 t235.5 468.5q21 97 21 181q0 146 -64 251q-100 166 -287 166q-182 0 -354 -165t-227 -433z" />
<glyph unicode="P" horiz-adv-x="1308" d="M197 0l303 1421h510q207 0 319 -123q86 -94 86 -214q0 -37 -8 -76q-37 -172 -203 -294t-358 -122h-342l-125 -592h-182zM524 711h289q170 0 285.5 85t142.5 212q7 35 8 65q0 89 -61 151q-82 83 -248 83h-289z" />
<glyph unicode="Q" horiz-adv-x="1507" d="M264 707q70 317 304.5 538t496.5 221q258 0 400 -221q97 -150 97 -344q0 -92 -22 -194q-37 -178 -144.5 -347.5t-289.5 -291.5l174 -324h-211l-123 248q-100 -37 -205 -37q-256 0 -400 216q-98 147 -98 342q-1 92 21 194zM440 707q-21 -101 -21 -188q0 -152 64 -261 q100 -172 289 -172q27 0 56.5 4t45.5 8l17 6l-146 293h183l116 -215q254 195 320 525q22 104 22 194q0 149 -61 258q-98 176 -289 176q-186 0 -361.5 -176t-234.5 -452z" />
<glyph unicode="R" horiz-adv-x="1323" d="M197 0l303 1421h493q217 0 342 -113q99 -90 99 -206q0 -30 -7 -62q-27 -125 -142.5 -225t-285.5 -147l265 -668h-183l-247 649h-324l-137 -649h-176zM537 774h294q174 0 290 76t141 190q6 26 5 50q0 81 -65 140q-84 77 -256 77h-295z" />
<glyph unicode="S" horiz-adv-x="1138" d="M111 96l65 166q162 -166 406 -166q133 0 233 82t123 189q6 30 6 58q0 78 -51 132q-35 37 -70 52.5t-161 47.5q-102 27 -161 54.5t-106 91.5q-63 86 -63 186q0 36 8 74q35 160 189.5 281.5t359.5 121.5t354 -102l-65 -164q-131 131 -320 131q-135 0 -232.5 -73.5 t-117.5 -170.5q-5 -27 -5 -51q0 -68 42 -110q37 -37 69.5 -52.5t124.5 -37.5q147 -39 206 -68t110 -100q59 -84 59 -190q0 -44 -10 -91q-37 -174 -194.5 -303t-356.5 -129q-247 0 -442 141z" />
<glyph unicode="T" horiz-adv-x="1394" d="M344 1276l29 133h1245l-29 -133h-274q-12 0 -36 1t-36 1h-182l-273 -1278h-182l273 1278h-185q-12 0 -37.5 -1t-38.5 -1h-274z" />
<glyph unicode="U" horiz-adv-x="1409" d="M295 477l201 944h182l-203 -946q-14 -68 -14 -124q0 -107 50 -176q77 -105 214 -105q139 0 264 106.5t166 298.5l203 946h160l-201 -944q-47 -221 -228.5 -371.5t-390.5 -150.5q-211 0 -331 150q-86 107 -86 250q0 58 14 122z" />
<glyph unicode="V" horiz-adv-x="1366" d="M332 1421h190l158 -917q49 -293 47 -357h2q47 113 328 574l422 700h159l-862 -1421h-188z" />
<glyph unicode="W" horiz-adv-x="1933" d="M332 1421h176l43 -577l22 -342q7 -225 8 -308q0 -33 -1 -42h2q33 109 290 630l322 639h166l51 -698q28 -350 28 -499q0 -50 -3 -77h2q37 115 297 631l323 643h148l-719 -1421h-178l-62 821q-18 247 -18 377q0 43 2 74h-2q-29 -88 -262 -561l-357 -711h-166z" />
<glyph unicode="X" horiz-adv-x="1366" d="M29 0l710 750l-379 671h213l283 -534l500 534h196l-637 -671l420 -750h-213l-321 627l-576 -627h-196z" />
<glyph unicode="Y" horiz-adv-x="1366" d="M309 1421h215l279 -594q2 -2 49 -116l166 194l45 53l418 463h180l-770 -854l-121 -567h-176l121 569z" />
<glyph unicode="Z" horiz-adv-x="1251" d="M115 0l18 88l1047 1208h-279q-12 0 -37.5 -1t-38.5 -1h-409l28 127h994l-19 -84l-1044 -1206h65l539 4h197l-29 -135h-1032z" />
<glyph unicode="[" horiz-adv-x="591" d="M100 -512l435 2048h335l-26 -125h-189l-381 -1798h189l-27 -125h-336z" />
<glyph unicode="\" d="M432 1495q10 41 49 41q29 0 37 -45l287 -1925l2 -37q-8 -41 -49 -41q-31 0 -35 45l-289 1925z" />
<glyph unicode="]" horiz-adv-x="591" d="M-63 -512l26 125h189l380 1798h-188l27 125h336l-435 -2048h-335z" />
<glyph unicode="^" horiz-adv-x="1138" d="M244 1196l649 328l510 -328l-35 -45l-502 252l-610 -252z" />
<glyph unicode="_" horiz-adv-x="1366" d="M-72 -336l35 160h1366l-35 -160h-1366z" />
<glyph unicode="`" d="M526 1421h160l199 -342h-125z" />
<glyph unicode="a" horiz-adv-x="985" d="M156 155q-2 17 -3 31q0 25 7 45q29 129 204 198t420 73l19 88q10 42 9 77q0 56 -24 94q-39 62 -114 62q-164 0 -330 -102l16 135q172 88 340 88q143 0 220 -99q53 -69 52 -165q0 -41 -9 -88l-125 -592h-154l16 74q-145 -96 -360 -97q-63 0 -106.5 28t-57.5 67t-20 83z M307 236q-2 -12 -2 -24q0 -45 39 -74q49 -36 127 -36q96 0 168 39q78 39 96 129l27 127q-424 -20 -455 -161z" />
<glyph unicode="b" horiz-adv-x="1058" d="M168 0l303 1421h154l-131 -610q174 121 356 121q141 0 207 -140q40 -85 39 -190q0 -69 -17 -145q-43 -203 -184 -341.5t-297 -138.5q-150 0 -250 117l-20 -94h-160zM377 233q43 -131 172 -131q113 0 223.5 87t147.5 268q14 66 14 120q0 90 -41 144q-66 86 -174 86 q-139 0 -246 -121z" />
<glyph unicode="c" horiz-adv-x="909" d="M170 455q41 193 196.5 341t358.5 148q94 0 155.5 -18.5t141.5 -69.5l-53 -133q-70 53 -128.5 71.5t-142.5 18.5q-150 0 -244 -107.5t-124 -248.5q-11 -53 -11 -100q0 -87 37 -150q57 -98 185 -98q178 0 344 110l-17 -137q-174 -104 -356 -105q-188 0 -286 142 q-68 99 -68 225q0 53 12 111z" />
<glyph unicode="d" horiz-adv-x="1058" d="M170 455q43 199 178 338t287 139q162 0 274 -113l129 602h154l-303 -1421h-160l23 106q-160 -129 -330 -129q-147 0 -221 139q-47 87 -47 199q0 66 16 140zM330 453q-13 -64 -14 -117q0 -91 41 -147q65 -87 175 -87q84 0 164 58q80 61 95 125l86 409q-53 113 -175 113 q-113 0 -223 -86t-149 -268z" />
<glyph unicode="e" horiz-adv-x="909" d="M170 463q41 199 192.5 340t321.5 141q184 0 250 -149q30 -69 30 -167q0 -80 -20 -179h-633q-8 -43 -7 -83q0 -96 46 -165q66 -98 189 -99q170 0 335 115l-16 -133q-172 -106 -348 -107q-184 0 -284 142q-69 99 -69 227q0 56 13 117zM344 561h506q2 20 1 39q0 102 -47 156 q-56 63 -147 63q-88 0 -176 -71.5t-137 -186.5z" />
<glyph unicode="f" horiz-adv-x="626" d="M207 0l168 791h-152l25 118h151l41 185q33 152 151 251t263 99q70 0 160 -23l-31 -137q-72 35 -158 35q-27 0 -54.5 -5t-65 -20.5t-66.5 -51.5t-39 -89l-53 -244h231l-24 -118h-226l-168 -791h-153z" />
<glyph unicode="g" d="M27 -145q10 51 52 109.5t124 101.5q-27 44 -28 98q0 27 7 57q18 90 97 174q-33 60 -33 130q0 35 8 73q29 139 146.5 236.5t250.5 97.5q115 0 180 -66q166 66 338 66l-6 -129q-82 6 -119 6q-25 0 -78 -4t-75 -4l-8 2q33 -60 32 -131q0 -35 -8 -74q-29 -137 -145.5 -235.5 t-253.5 -98.5q-104 0 -172 60q-31 -31 -39 -74q-4 -17 -4 -32q0 -77 100 -77h180q57 0 103.5 -6t126.5 -28.5t116 -87.5q23 -41 22 -95q0 -31 -7 -67q-25 -117 -174.5 -198t-339.5 -81q-188 0 -303 81q-94 67 -95 156q1 20 5 40zM170 -143v-2q-2 -10 -2 -21q0 -56 69 -94 q81 -45 209 -45q127 0 228.5 45t116.5 113q3 13 2 25q0 32 -20 55q-28 32 -82 43.5t-83.5 14.5t-64.5 3h-185q-53 0 -92 -18.5t-57.5 -45t-27.5 -44t-11 -29.5zM397 598q-9 -40 -8 -73q0 -60 29 -93q45 -51 117 -51q76 0 140 53t89 164q9 40 9 73q0 57 -28 91 q-43 53 -118 53q-70 0 -137.5 -51t-92.5 -166z" />
<glyph unicode="h" horiz-adv-x="1058" d="M166 0l303 1421h154l-138 -637q147 147 324 148q224 0 224 -208q0 -51 -13 -114l-129 -610h-160l127 596q9 40 9 73q0 138 -162 138q-106 0 -177 -92t-96 -213l-106 -502h-160z" />
<glyph unicode="i" horiz-adv-x="489" d="M166 0l192 909h154l-193 -909h-153zM399 1159l39 182h183l-39 -182h-183z" />
<glyph unicode="j" horiz-adv-x="546" d="M-199 -350l70 125q51 -63 137 -64q20 0 42 4t52.5 17.5t55 46.5t35.5 80l223 1050h153l-219 -1030q-29 -137 -123 -218t-196 -81q-126 0 -230 70zM440 1159l39 182h183l-39 -182h-183z" />
<glyph unicode="k" horiz-adv-x="1001" d="M172 0l303 1421h148l-201 -938l506 426h184l-418 -352l271 -557h-168l-222 459l-200 -170l-62 -289h-141z" />
<glyph unicode="l" horiz-adv-x="489" d="M166 0l303 1421h154l-304 -1421h-153z" />
<glyph unicode="m" horiz-adv-x="1626" d="M166 0l196 922h148l-33 -148q154 158 334 158q203 0 225 -168q152 168 342 168q225 0 226 -205q0 -52 -15 -117l-129 -610h-160l127 596q9 44 10 73q0 27 -10 60q-10 37 -49 57.5t-106 20.5q-104 0 -175 -92t-98 -213l-106 -502h-160l127 596q9 44 9 73q0 27 -9 60 q-10 37 -49 57.5t-106 20.5q-104 0 -175 -92t-98 -213l-106 -502h-160z" />
<glyph unicode="n" horiz-adv-x="1058" d="M166 0l196 922h148l-31 -146q18 23 51 50.5t115 66.5t164 39q224 0 224 -208q0 -51 -13 -114l-129 -610h-160l127 596q9 40 9 73q0 138 -162 138q-106 0 -177 -92t-96 -213l-106 -502h-160z" />
<glyph unicode="o" d="M158 451q43 203 204.5 348t350.5 145q184 0 285 -144q71 -101 72 -233q0 -56 -13 -116q-43 -199 -204 -336.5t-347 -137.5q-182 0 -287 137q-74 96 -74 225q0 53 13 112zM322 471q-13 -63 -14 -115q0 -93 42 -153q66 -94 182 -94q121 0 226.5 95t142.5 267q13 60 13 110 q0 92 -44 149q-68 89 -186 89q-115 0 -220 -88t-142 -260z" />
<glyph unicode="p" horiz-adv-x="1058" d="M84 -397l276 1306h154l-20 -100q170 123 362 123q143 0 204 -141q36 -84 36 -187q0 -69 -17 -147q-43 -205 -184 -342.5t-295 -137.5q-152 0 -252 117l-104 -491h-160zM385 270q-3 -14 -3 -27q0 -23 9 -44q49 -96 156 -97q119 0 230.5 100.5t142.5 254.5q10 48 10 91 q0 84 -39 151q-59 101 -176 102q-137 0 -242 -119z" />
<glyph unicode="q" horiz-adv-x="1058" d="M170 453q43 205 185.5 342t297.5 137q72 0 132.5 -32t83 -58.5t34.5 -48.5l31 139h153l-282 -1329h-160l107 499q-164 -125 -336 -125q-145 0 -216 140q-45 88 -45 199q0 65 15 137zM330 453q-10 -49 -11 -93q0 -86 39 -154q59 -103 177 -104q125 0 227 117q25 25 35 68 l61 286q4 21 4 42q0 55 -27 110q-38 76 -135 76q-117 0 -227 -98t-143 -250z" />
<glyph unicode="r" horiz-adv-x="700" d="M168 0l197 922h143l-41 -187q172 195 401 197l-30 -137q-152 -4 -272 -103.5t-152 -253.5l-92 -438h-154z" />
<glyph unicode="s" horiz-adv-x="784" d="M72 68l53 139q133 -100 297 -101q193 0 223 142q3 16 3 29q0 21 -7 37q-12 28 -43 43.5t-54.5 22.5t-60.5 15q-68 14 -93 20.5t-55 20t-56 35.5q-73 66 -73 156q0 24 5 49q14 63 45 112.5t74 77t82 45t85 23.5t66.5 8t44.5 2q152 0 281 -65l-53 -134q-113 78 -275 78 q-174 0 -201 -127q-8 -37 2.5 -61.5t41 -39.5t56 -23.5t77.5 -18.5q84 -16 128 -34.5t89 -67.5l8 -13q6 -10 13 -24.5t14.5 -39t8.5 -51t-5 -61.5q-31 -145 -146 -219q-100 -66 -250 -66q-161 1 -325 91z" />
<glyph unicode="t" horiz-adv-x="739" d="M207 791l24 118h179l55 260h141l-55 -260h289l-25 -118h-289l-108 -512q-9 -43 -9 -76q0 -95 76 -94q102 0 199 67l8 -121q-168 -78 -315 -78q-128 0 -128 154q0 49 13 113l117 547h-172z" />
<glyph unicode="u" horiz-adv-x="1058" d="M213 223l145 686h160l-143 -678q-7 -32 -7 -56q0 -33 13 -52q23 -33 123 -33q104 0 188 58.5t107 166.5l125 594h159l-192 -909h-154l21 98q-164 -121 -379 -121q-121 0 -156 63q-20 37 -20 93q0 40 10 90z" />
<glyph unicode="v" horiz-adv-x="944" d="M221 909h160l86 -530q29 -162 29 -250v-20h2q39 102 202 374l252 426h154l-545 -909h-180z" />
<glyph unicode="w" horiz-adv-x="1398" d="M221 909h156l33 -354q19 -254 19 -372q0 -45 -3 -70h2q35 115 186 411l199 385h143l41 -436q18 -209 19 -308q0 -33 -2 -54h2q25 68 172 364l223 434h150l-474 -909h-180l-41 508q-10 113 -10 196q0 52 4 91h-2q-27 -98 -170 -373l-217 -422h-162z" />
<glyph unicode="x" horiz-adv-x="944" d="M0 0l498 469l-293 440h170l211 -338l346 338h168l-467 -440l309 -469h-170l-225 385l-379 -385h-168z" />
<glyph unicode="y" horiz-adv-x="944" d="M2 -403l16 133q74 -33 154 -33q20 0 32.5 4t42 31.5t66.5 83.5l113 184l-205 909h162l57 -256q72 -329 73 -483q0 -30 -3 -53h2q37 141 440 792h154l-678 -1095q-88 -141 -152.5 -187.5t-130.5 -46.5q-73 1 -143 17z" />
<glyph unicode="z" horiz-adv-x="890" d="M57 0l19 84l696 707h-160q-12 0 -36.5 -1.5t-36.5 -1.5h-285l25 121h733l-17 -80l-694 -704h174q12 0 37 1t37 1h301l-27 -127h-766z" />
<glyph unicode="{" d="M256 500q2 4 0 12q4 23 33 23q131 8 233 92q47 41 63.5 85t49.5 197l80 375q27 109 156.5 180.5t287.5 71.5q16 0 22.5 -1t11.5 -6t3 -16q-4 -18 -22 -22q-68 -4 -121.5 -21.5t-74 -32t-52.5 -40.5q-41 -37 -58.5 -80t-42.5 -164l-80 -369q-8 -35 -17 -59.5t-39 -69.5 t-91 -81.5t-152 -61.5q195 -57 193 -211q0 -12 -35 -186l-65 -308q-16 -80 -15 -98q2 -66 55.5 -118t163.5 -58q12 -2 16.5 -3t8.5 -5t2 -14q-4 -23 -45 -23q-172 0 -268 78q-61 51 -68.5 115.5t17.5 148.5l86 406q16 72 -0.5 124t-55.5 77.5t-75.5 37.5t-75.5 14 q-10 2 -13.5 2.5t-10.5 2.5t-5 6z" />
<glyph unicode="|" horiz-adv-x="569" d="M150 -444l405 1912q14 68 55 68t27 -68l-406 -1912q-14 -68 -54.5 -68t-26.5 68z" />
<glyph unicode="}" d="M43 -489q4 18 25 22q66 4 119 21.5t73.5 32t52.5 40.5q43 35 58.5 77t44.5 167l78 369q8 35 17 59.5t39 69.5t91 81.5t152 61.5q-195 57 -193 211q0 12 35 186l65 308q16 74 15 98q-2 66 -54.5 118t-162.5 58q-10 2 -13.5 2t-10.5 2t-5 6t0 12q4 23 45 23q172 0 268 -78 q61 -51 68.5 -115.5t-16.5 -148.5l-86 -406q-14 -72 1 -124t54 -77.5t75.5 -37.5t75.5 -14q10 -2 13.5 -2.5t10.5 -2.5t5 -6t0 -12q-4 -23 -33 -23q-131 -8 -233 -92q-47 -41 -63.5 -85t-49.5 -197l-80 -375q-25 -109 -155.5 -180.5t-288.5 -71.5q-14 0 -20.5 1t-12.5 6.5 t-4 15.5z" />
<glyph unicode="~" horiz-adv-x="1138" d="M92 430l129 90q49 35 131 72q92 37 158 37q88 0 190 -70q43 -29 63.5 -40t57.5 -23.5t76 -12.5q141 0 344 146l23 -35l-131 -90q-49 -35 -132 -72q-88 -37 -157 -37q-84 0 -191 70q-113 76 -196 76q-139 0 -344 -146z" />
<glyph unicode="&#xa0;" />
<glyph unicode="&#xa1;" horiz-adv-x="653" d="M158 -397l223 975l18 88h138l-19 -88l-190 -975h-170zM424 854l35 170h170l-35 -170h-170z" />
<glyph unicode="&#xa2;" horiz-adv-x="909" d="M170 455q37 170 164 309t299 172l22 104h131l-20 -96q74 -2 129 -21.5t127 -66.5l-53 -133q-106 82 -232 90l-149 -702q158 14 297 108l-17 -137q-154 -90 -307 -102l-24 -111h-131l26 117q-152 31 -224.5 164t-37.5 305zM330 457q-27 -125 9 -215t122 -121l143 678 q-109 -31 -179 -129t-95 -213z" />
<glyph unicode="&#xa3;" horiz-adv-x="1366" d="M172 86q264 252 326 438q23 61 22 121h-246l29 131h203l-17 117q-2 203 154 365.5t354 162.5q166 0 255 -121.5t53 -293.5h-160q23 104 -29.5 180t-152.5 76q-123 0 -218.5 -102.5t-93.5 -231.5q0 -29 25 -152h309l-29 -131h-274q-6 -72 -31 -141q-45 -143 -176 -305 q104 0 322 -56q92 -29 172 -28q59 0 104 56t60 132h159q-29 -141 -131 -244.5t-227 -103.5q-88 0 -209 33q-109 29 -171 41t-148.5 6t-131.5 -51z" />
<glyph unicode="&#xa4;" horiz-adv-x="1593" d="M316.5 66.5q11.5 17.5 39.5 39.5l185 154q-68 111 -37 252t143 254l-119 152q-39 49 -4 77q39 31 74 -18l121 -154q131 90 272 90q137 0 232 -90l184 152q57 47 82 18q14 -18 3 -35.5t-40 -39.5l-184 -152q68 -109 37 -254t-142 -252l119 -154q37 -47 2 -75.5t-72 18.5 l-120 152q-131 -90 -273 -90q-139 0 -233 90l-185 -152q-57 -47 -82 -18q-14 18 -2.5 35.5zM586 512q-29 -133 46 -226t206 -93t243.5 93t141 226t-45 226t-204.5 93q-133 0 -246.5 -94t-140.5 -225z" />
<glyph unicode="&#xa5;" horiz-adv-x="1366" d="M293 305l26 131h367l29 133l-21 41h-338l29 131h248l-324 680h215l279 -594q12 -25 37 -86h39l139 164l45 53l418 463h180l-612 -680h247l-28 -131h-340l-37 -43l-29 -131h369l-27 -131h-368l-66 -305h-176l65 305h-366z" />
<glyph unicode="&#xa6;" horiz-adv-x="569" d="M150 -444l161 766q18 66 56 65q20 0 27 -21.5t-1 -43.5l-162 -766q-14 -68 -54.5 -68t-26.5 68zM393 702l162 766q14 68 55 68t27 -68l-162 -766q-6 -27 -20.5 -46t-34.5 -19q-39 -1 -27 65z" />
<glyph unicode="&#xa7;" horiz-adv-x="1081" d="M135 -84h160q-18 -88 36 -147.5t148 -59.5t174 63.5t99 153.5q27 125 -152 219l-186 95q-115 59 -177.5 156.5t-35.5 217.5q18 86 74.5 163t138.5 128q-49 90 -27 193q33 152 169 256t294 104t251 -101.5t62 -248.5h-159q18 88 -36.5 147.5t-148.5 59.5t-174 -63.5 t-98 -153.5q-27 -125 151 -219l187 -95q117 -59 178 -156.5t37 -217.5q-41 -182 -215 -293q49 -90 26 -191q-33 -152 -169 -256t-293.5 -104t-251 101.5t-62.5 248.5zM360 614q-29 -137 150 -229l186 -94q61 -33 105 -72q109 63 139 191q29 135 -152 229l-186 94 q-59 33 -104 70q-111 -62 -138 -189z" />
<glyph unicode="&#xa8;" d="M528 1169l35 164h164l-35 -164h-164zM827 1169l35 164h164l-35 -164h-164z" />
<glyph unicode="&#xa9;" horiz-adv-x="1421" d="M151.5 711q63.5 295 315.5 502.5t547 207.5t458.5 -207.5t100 -502.5t-315 -503t-546.5 -208t-459 208t-100.5 503zM229 711q-57 -262 89.5 -447.5t408.5 -185.5t486.5 185.5t281.5 447.5q55 262 -91.5 447t-408.5 185t-486.5 -185t-279.5 -447zM485 711 q41 195 190.5 336t332.5 141q123 0 225 -47l-39 -105q-96 68 -205 68q-131 0 -242.5 -116t-146.5 -277q-35 -156 25.5 -275t199.5 -119q127 0 256 80l-10 -90q-78 -43 -132 -57t-132 -14q-184 0 -273.5 141t-48.5 334z" />
<glyph unicode="&#xaa;" horiz-adv-x="761" d="M283 969q18 90 164.5 138t351.5 50l12 62q18 76 -16.5 119.5t-98.5 43.5q-139 0 -274 -71l10 94q139 61 283 61q121 0 187.5 -68.5t43.5 -176.5l-88 -414h-129l10 51q-119 -68 -299 -67q-100 0 -135.5 58.5t-21.5 119.5zM287 684q12 45 75 45h349q27 0 43 -13.5t12 -31.5 q-4 -20 -26.5 -33.5t-49.5 -13.5h-348q-29 0 -44 13.5t-11 33.5zM406 971q-8 -43 33.5 -67.5t107.5 -24.5q84 0 139 26q68 29 78 90l20 90q-360 -18 -378 -114z" />
<glyph unicode="&#xab;" d="M324 449l309 450h125l-275 -450l84 -449h-125zM666 449l309 450h125l-275 -450l84 -449h-125z" />
<glyph unicode="&#xac;" horiz-adv-x="1593" d="M266 716.5q4 16.5 19.5 29t31.5 12.5h1280q16 0 25.5 -12.5t5.5 -28.5l-86 -410q-8 -41 -49 -41q-16 0 -26.5 12.5t-6.5 28.5l78 369h-1239q-16 0 -26.5 12t-6.5 28.5z" />
<glyph unicode="&#xad;" horiz-adv-x="681" d="M106 395l25 119h543l-25 -119h-543z" />
<glyph unicode="&#xae;" horiz-adv-x="1421" d="M151.5 711q63.5 295 315.5 502.5t547 207.5t458.5 -207.5t100 -502.5t-315 -503t-546.5 -208t-459 208t-100.5 503zM229 711q-57 -262 89.5 -447.5t408.5 -185.5t486.5 185.5t281.5 447.5q55 262 -91.5 447t-408.5 185t-486.5 -185t-279.5 -447zM461 264l190 895h312 q137 0 217 -71.5t57 -167.5q-14 -78 -89 -142.5t-179 -93.5l164 -420h-115l-154 408h-205l-88 -408h-110zM676 752h186q111 0 183.5 48t87.5 120q16 70 -37.5 117.5t-161.5 47.5h-186z" />
<glyph unicode="&#xaf;" d="M395 1186l29 131h739l-28 -131h-740z" />
<glyph unicode="&#xb0;" horiz-adv-x="768" d="M342 1139q25 117 126 199.5t220 82.5q117 0 181.5 -83t39.5 -199q-25 -119 -125 -202t-217 -83q-119 0 -184.5 83t-40.5 202zM424 1139q-18 -84 29 -143.5t131 -59.5t154.5 59.5t88.5 143.5q18 82 -27.5 141t-129.5 59t-156 -58t-90 -142z" />
<glyph unicode="&#xb1;" horiz-adv-x="1593" d="M123 41q10 41 78 41h573l119 559h-574q-20 0 -31.5 1t-21.5 11.5t-6 28.5q8 41 76 41h573l123 573q14 68 55 68t27 -68l-123 -573h572q20 0 31.5 -1t21.5 -11.5t6 -28.5q-8 -41 -76 -41h-571l-119 -559h571q20 0 31.5 -1t21 -11.5t5.5 -28.5q-8 -41 -76 -41h-1227 q-20 0 -31.5 1t-21.5 11.5t-6 28.5z" />
<glyph unicode="&#xb2;" horiz-adv-x="724" d="M209 635l16 78l215 151l133 88q72 53 103 77t70.5 73t50.5 98q16 78 -29 133.5t-145 55.5q-90 0 -144.5 -50.5t-101.5 -140.5q-16 27 -25 35q-2 2 -4 5t-7 11t-11 17q113 201 329 200q141 0 211 -76.5t48 -187.5q-10 -49 -47 -95t-62 -65.5t-84 -62.5q-10 -6 -71.5 -45 t-80.5 -51q-186 -129 -239 -162h160h53h268l-18 -86h-588z" />
<glyph unicode="&#xb3;" horiz-adv-x="735" d="M217 735l33 74q35 -59 105.5 -93t150.5 -34q84 0 143.5 50t75.5 124q8 23 3 53.5t-16.5 58t-49 46t-93.5 18.5h-104l16 76l119 8q70 12 122 59.5t64.5 104.5t-25.5 87t-99 30q-72 0 -142.5 -35t-116.5 -96l-38 65q129 135 313 135q111 0 178.5 -53t50.5 -133 q-12 -61 -66.5 -117.5t-142.5 -93.5q78 -23 126 -79t32 -134q-23 -100 -127 -175t-235 -75q-185 0 -277 129z" />
<glyph unicode="&#xb4;" d="M598 1079l346 342h160l-381 -342h-125z" />
<glyph unicode="&#xb5;" horiz-adv-x="1058" d="M82 -397l276 1306h160l-143 -673q-8 -45 -8 -78t32.5 -50.5t104.5 -17.5q102 0 186 56.5t109 172.5l125 590h159l-192 -909h-154l21 98q-160 -121 -379 -121q-37 0 -57 5l-80 -379h-160z" />
<glyph unicode="&#xb6;" horiz-adv-x="1251" d="M315 948q41 195 221.5 334t393.5 139h497q20 0 31.5 -1t21 -11t5.5 -29q-8 -41 -76 -41h-102l-355 -1669q-14 -68 -55 -67.5t-27 67.5l355 1669h-144l-354 -1669q-14 -68 -55 -67.5t-27 67.5l170 801q-141 6 -262 55t-196 159.5t-42 262.5z" />
<glyph unicode="&#xb7;" horiz-adv-x="1593" d="M844 627l37 170h170l-37 -170h-170z" />
<glyph unicode="&#xb8;" horiz-adv-x="909" d="M213 -393l225 344h125l-209 -344h-141z" />
<glyph unicode="&#xb9;" horiz-adv-x="755" d="M274 635l15 70h184l135 638q-76 -25 -198 -28l16 71q195 6 297 80h29l-162 -761h184l-14 -70h-486z" />
<glyph unicode="&#xba;" horiz-adv-x="858" d="M262 684q4 18 26.5 31.5t49.5 13.5h493q27 0 43.5 -13.5t12.5 -31.5q-4 -20 -26.5 -33.5t-49.5 -13.5h-494q-27 0 -43 13.5t-12 33.5zM289 1122q31 141 163 242.5t289 101.5q154 0 244 -100t59 -244q-29 -139 -160.5 -235t-287.5 -96q-154 0 -245 95t-62 236zM428 1137 q-27 -123 31.5 -188.5t156.5 -65.5q102 0 186.5 66.5t110.5 187.5q25 119 -33.5 181t-158.5 62q-94 0 -181 -62t-112 -181z" />
<glyph unicode="&#xbb;" d="M115 0l276 449l-86 450h125l121 -450l-311 -449h-125zM457 0l276 449l-86 450h125l121 -450l-311 -449h-125z" />
<glyph unicode="&#xbc;" horiz-adv-x="1613" d="M274 635l15 70h184l135 638q-76 -25 -198 -28l16 71q195 6 297 80h29l-162 -761h184l-14 -70h-486zM438 41l1104 1339h96l-1103 -1339h-97zM874 211l17 74l483 522h133l-110 -522h145l-16 -74h-146l-45 -211h-116l45 211h-390zM1006 285h284l99 467q-16 -70 -383 -467z " />
<glyph unicode="&#xbd;" horiz-adv-x="1613" d="M274 635l15 70h184l135 638q-76 -25 -198 -28l16 71q195 6 297 80h29l-162 -761h184l-14 -70h-486zM356 41l1104 1339h96l-1103 -1339h-97zM893 0l16 78l215 153l133 86q68 49 103 77t72.5 76t48.5 97q16 76 -30 131.5t-144 55.5q-90 0 -145.5 -51.5t-100.5 -139.5 q-18 35 -25 37q0 2 -2 5t-8 10.5t-12 15.5q117 203 332 203q141 0 210.5 -77t45.5 -188q-10 -49 -45 -94t-65 -68.5t-83 -62.5q-16 -12 -75.5 -49t-76.5 -47l-239 -162h162q8 0 25.5 1t25.5 1h268l-18 -88h-588z" />
<glyph unicode="&#xbe;" horiz-adv-x="1613" d="M279 735l32 74q35 -61 106.5 -94t151.5 -33q82 0 141.5 50t75.5 124q12 63 -18.5 119.5t-134.5 56.5h-107l17 76l119 8q70 12 122 59.5t64 104.5t-25 87t-100 30q-72 0 -142.5 -35t-115.5 -96l-37 65q125 135 311 135q111 0 178.5 -53t51.5 -133q-29 -135 -209 -211 q78 -23 126 -79t32 -134q-23 -100 -127.5 -175t-235.5 -75q-184 0 -276 129zM438 41l1104 1339h96l-1103 -1339h-97zM874 211l17 74l483 522h133l-110 -522h145l-16 -74h-146l-45 -211h-116l45 211h-390zM1006 285h284l99 467q-16 -70 -383 -467z" />
<glyph unicode="&#xbf;" horiz-adv-x="966" d="M92 -102q31 145 154 245q207 172 256 406l24 117h138l-15 -66q-70 -336 -301 -545q-76 -63 -96 -161q-20 -100 13.5 -144.5t129.5 -44.5q188 0 369 113l20 -129q-209 -109 -417 -109q-178 0 -241 89.5t-34 228.5zM551 854l35 170h170l-35 -170h-170z" />
<glyph unicode="&#xc0;" horiz-adv-x="1366" d="M57 0l838 1421h180l232 -1421h-189l-67 418h-596l-246 -418h-152zM522 532h508l-74 527q-23 172 -20 215h-2q-23 -57 -199 -371q-84 -145 -106.5 -184.5t-106.5 -186.5zM668 1778h227l305 -250h-182z" />
<glyph unicode="&#xc1;" horiz-adv-x="1366" d="M57 0l838 1421h180l232 -1421h-189l-67 418h-596l-246 -418h-152zM522 532h508l-74 527q-23 172 -20 215h-2q-23 -57 -199 -371q-84 -145 -106.5 -184.5t-106.5 -186.5zM811 1528l412 250h227l-457 -250h-182z" />
<glyph unicode="&#xc2;" horiz-adv-x="1366" d="M57 0l838 1421h180l232 -1421h-189l-67 418h-596l-246 -418h-152zM522 532h508l-74 527q-23 172 -20 215h-2q-23 -57 -199 -371q-84 -145 -106.5 -184.5t-106.5 -186.5zM682 1507l317 275h123l199 -275h-121l-156 199l-241 -199h-121z" />
<glyph unicode="&#xc3;" horiz-adv-x="1366" d="M57 0l838 1421h180l232 -1421h-189l-67 418h-596l-246 -418h-152zM522 532h508l-74 527q-23 172 -20 215h-2q-23 -57 -199 -371q-84 -145 -106.5 -184.5t-106.5 -186.5zM662 1507q27 113 101.5 178.5t151.5 65.5q55 0 119 -51q82 -68 131 -68q76 0 107 119h125 q-27 -113 -101.5 -178.5t-152.5 -65.5q-55 0 -119 52q-82 68 -131 67q-76 0 -107 -119h-124z" />
<glyph unicode="&#xc4;" horiz-adv-x="1366" d="M57 0l838 1421h180l232 -1421h-189l-67 418h-596l-246 -418h-152zM522 532h508l-74 527q-23 172 -20 215h-2q-23 -57 -199 -371q-84 -145 -106.5 -184.5t-106.5 -186.5zM741 1507l35 164h164l-35 -164h-164zM1098 1507l35 164h163l-34 -164h-164z" />
<glyph unicode="&#xc5;" horiz-adv-x="1366" d="M57 0l838 1421h180l232 -1421h-189l-67 418h-596l-246 -418h-152zM522 532h508l-74 527q-23 172 -20 215h-2q-23 -57 -199 -371q-84 -145 -106.5 -184.5t-106.5 -186.5zM793 1595q16 68 92 119t172 51t150.5 -50t39.5 -124q-14 -68 -90 -119t-174 -51q-96 0 -150 50 t-40 124zM918 1593q-8 -35 13 -53t37.5 -20t35.5 -2q102 0 118 75q8 35 -13.5 53.5t-37.5 20.5t-35 2q-102 0 -118 -76z" />
<glyph unicode="&#xc6;" horiz-adv-x="1763" d="M57 0l885 1421h1008l-29 -133h-313q-12 0 -37 1t-37 1h-221l-105 -489h553l-26 -125h-553l-113 -533h348q12 0 37 1t37 1h215l-31 -145h-817l96 455h-460l-283 -455h-154zM565 569h414l154 721h-119z" />
<glyph unicode="&#xc7;" horiz-adv-x="1308" d="M289 711q63 309 301.5 532t527.5 223q186 0 361 -71l-66 -166q-145 106 -323 106q-209 0 -387.5 -184t-231.5 -440q-29 -162 -6.5 -301.5t120 -231.5t244.5 -92q113 0 199 24.5t209 100.5l-18 -141q-125 -68 -210 -91.5t-210 -23.5q-193 0 -326 106.5t-180 278.5t-4 371z M446 -438l224 344h125l-207 -344h-142z" />
<glyph unicode="&#xc8;" horiz-adv-x="1222" d="M193 0l301 1415h913l-29 -133h-374q-12 0 -37 1t-37 1h-283l-102 -485h676l-27 -125h-676l-112 -531h428q12 0 36.5 1t36.5 1h258l-30 -145h-942zM598 1778h227l305 -250h-182z" />
<glyph unicode="&#xc9;" horiz-adv-x="1222" d="M193 0l301 1415h913l-29 -133h-374q-12 0 -37 1t-37 1h-283l-102 -485h676l-27 -125h-676l-112 -531h428q12 0 36.5 1t36.5 1h258l-30 -145h-942zM741 1528l412 250h227l-456 -250h-183z" />
<glyph unicode="&#xca;" horiz-adv-x="1222" d="M193 0l301 1415h913l-29 -133h-374q-12 0 -37 1t-37 1h-283l-102 -485h676l-27 -125h-676l-112 -531h428q12 0 36.5 1t36.5 1h258l-30 -145h-942zM612 1507l318 275h123l198 -275h-121l-155 199l-242 -199h-121z" />
<glyph unicode="&#xcb;" horiz-adv-x="1222" d="M193 0l301 1415h913l-29 -133h-374q-12 0 -37 1t-37 1h-283l-102 -485h676l-27 -125h-676l-112 -531h428q12 0 36.5 1t36.5 1h258l-30 -145h-942zM672 1507l35 164h163l-34 -164h-164zM1028 1507l35 164h164l-35 -164h-164z" />
<glyph unicode="&#xcc;" horiz-adv-x="569" d="M166 1778h227l305 -250h-182zM193 0l303 1421h182l-303 -1421h-182z" />
<glyph unicode="&#xcd;" horiz-adv-x="569" d="M193 0l303 1421h182l-303 -1421h-182zM516 1528l412 250h227l-457 -250h-182z" />
<glyph unicode="&#xce;" horiz-adv-x="569" d="M193 0l303 1421h182l-303 -1421h-182zM285 1507l317 275h123l199 -275h-121l-156 199l-241 -199h-121z" />
<glyph unicode="&#xcf;" horiz-adv-x="569" d="M193 0l303 1421h182l-303 -1421h-182zM344 1507l35 164h164l-35 -164h-164zM700 1507l35 164h164l-35 -164h-164z" />
<glyph unicode="&#xd0;" horiz-adv-x="1478" d="M174 645l29 131h159l138 645h536q262 0 400.5 -212t72.5 -511q-61 -291 -287.5 -494.5t-486.5 -203.5h-538l137 645h-160zM397 115h314q217 0 392 162.5t230 420.5q57 268 -47 438.5t-321 170.5h-314l-112 -531h206l-28 -131h-207z" />
<glyph unicode="&#xd1;" horiz-adv-x="1449" d="M197 0l303 1421h254l288 -995l78 -281h2l273 1276h159l-303 -1421h-254l-290 995l-78 281h-2l-271 -1276h-159zM705 1507q27 113 101.5 178.5t151.5 65.5q55 0 119 -51q82 -68 131 -68q76 0 107 119h125q-27 -113 -101.5 -178.5t-152.5 -65.5q-55 0 -119 52 q-82 68 -131 67q-76 0 -107 -119h-124z" />
<glyph unicode="&#xd2;" horiz-adv-x="1507" d="M264 707q70 317 304.5 538t496.5 221q258 0 400.5 -221t74.5 -538q-66 -317 -302.5 -534.5t-496.5 -217.5q-256 0 -400.5 216.5t-76.5 535.5zM455 737q-61 -287 34 -468t283 -181q184 0 358.5 180.5t235.5 468.5q57 266 -43 432t-287 166q-182 0 -354 -165t-227 -433z M739 1778h228l305 -250h-182z" />
<glyph unicode="&#xd3;" horiz-adv-x="1507" d="M264 707q70 317 304.5 538t496.5 221q258 0 400.5 -221t74.5 -538q-66 -317 -302.5 -534.5t-496.5 -217.5q-256 0 -400.5 216.5t-76.5 535.5zM455 737q-61 -287 34 -468t283 -181q184 0 358.5 180.5t235.5 468.5q57 266 -43 432t-287 166q-182 0 -354 -165t-227 -433z M883 1528l411 250h228l-457 -250h-182z" />
<glyph unicode="&#xd4;" horiz-adv-x="1507" d="M264 707q70 317 304.5 538t496.5 221q258 0 400.5 -221t74.5 -538q-66 -317 -302.5 -534.5t-496.5 -217.5q-256 0 -400.5 216.5t-76.5 535.5zM455 737q-61 -287 34 -468t283 -181q184 0 358.5 180.5t235.5 468.5q57 266 -43 432t-287 166q-182 0 -354 -165t-227 -433z M754 1507l317 275h123l199 -275h-121l-156 199l-242 -199h-120z" />
<glyph unicode="&#xd5;" horiz-adv-x="1507" d="M264 707q70 317 304.5 538t496.5 221q258 0 400.5 -221t74.5 -538q-66 -317 -302.5 -534.5t-496.5 -217.5q-256 0 -400.5 216.5t-76.5 535.5zM455 737q-61 -287 34 -468t283 -181q184 0 358.5 180.5t235.5 468.5q57 266 -43 432t-287 166q-182 0 -354 -165t-227 -433z M733 1507q27 113 101.5 178.5t152.5 65.5q55 0 119 -51q82 -68 131 -68q76 0 106 119h125q-27 -113 -101.5 -178.5t-152.5 -65.5q-55 0 -118 52q-82 68 -131 67q-76 0 -107 -119h-125z" />
<glyph unicode="&#xd6;" horiz-adv-x="1507" d="M264 707q70 317 304.5 538t496.5 221q258 0 400.5 -221t74.5 -538q-66 -317 -302.5 -534.5t-496.5 -217.5q-256 0 -400.5 216.5t-76.5 535.5zM455 737q-61 -287 34 -468t283 -181q184 0 358.5 180.5t235.5 468.5q57 266 -43 432t-287 166q-182 0 -354 -165t-227 -433z M813 1507l35 164h164l-35 -164h-164zM1169 1507l35 164h164l-35 -164h-164z" />
<glyph unicode="&#xd7;" horiz-adv-x="1593" d="M316.5 66.5q11.5 17.5 39.5 39.5l492 406l-320 406q-39 49 -4 77q39 31 74 -18l320 -406l489 404q57 47 82 18q14 -18 3 -35.5t-40 -39.5l-489 -406l319 -406q37 -47 2 -75.5t-72 18.5l-319 406l-492 -406q-57 -47 -82 -18q-14 18 -2.5 35.5z" />
<glyph unicode="&#xd8;" horiz-adv-x="1593" d="M256 -68l143 185q-209 227 -135 590q68 315 315.5 537t528.5 222q152 0 295 -84l135 172l100 -65l-147 -184q86 -86 132 -243t3 -355q-68 -315 -314.5 -533.5t-527.5 -218.5q-160 0 -295 84l-135 -172zM438 707q-59 -287 60 -467l815 1028q-109 74 -234 73 q-205 0 -392.5 -171.5t-248.5 -462.5zM582 152q104 -72 231 -72q205 0 391.5 168t247.5 459q63 295 -59 473z" />
<glyph unicode="&#xd9;" horiz-adv-x="1409" d="M295 477l201 944h182l-203 -946q-41 -195 36 -300t214 -105q139 0 264 106.5t166 298.5l203 946h160l-201 -944q-47 -221 -228.5 -371.5t-390.5 -150.5q-211 0 -331.5 150.5t-71.5 371.5zM690 1778h228l305 -250h-183z" />
<glyph unicode="&#xda;" horiz-adv-x="1409" d="M295 477l201 944h182l-203 -946q-41 -195 36 -300t214 -105q139 0 264 106.5t166 298.5l203 946h160l-201 -944q-47 -221 -228.5 -371.5t-390.5 -150.5q-211 0 -331.5 150.5t-71.5 371.5zM834 1528l411 250h228l-457 -250h-182z" />
<glyph unicode="&#xdb;" horiz-adv-x="1409" d="M295 477l201 944h182l-203 -946q-41 -195 36 -300t214 -105q139 0 264 106.5t166 298.5l203 946h160l-201 -944q-47 -221 -228.5 -371.5t-390.5 -150.5q-211 0 -331.5 150.5t-71.5 371.5zM705 1507l317 275h123l198 -275h-120l-156 199l-242 -199h-120z" />
<glyph unicode="&#xdc;" horiz-adv-x="1409" d="M295 477l201 944h182l-203 -946q-41 -195 36 -300t214 -105q139 0 264 106.5t166 298.5l203 946h160l-201 -944q-47 -221 -228.5 -371.5t-390.5 -150.5q-211 0 -331.5 150.5t-71.5 371.5zM764 1507l35 164h164l-35 -164h-164zM1120 1507l35 164h164l-35 -164h-164z" />
<glyph unicode="&#xdd;" horiz-adv-x="1366" d="M309 1421h215l279 -594q2 -2 49 -116l166 194l45 53l418 463h180l-770 -854l-121 -567h-176l121 569zM811 1528l412 250h227l-457 -250h-182z" />
<glyph unicode="&#xde;" horiz-adv-x="1193" d="M199 0l303 1421h170l-56 -260h269q205 0 298 -121.5t58 -273.5q-31 -147 -172 -272t-369 -125h-254l-77 -369h-170zM471 483h197q98 0 176 30t124 75t72.5 90t34.5 86q25 111 -53 197t-248 86h-182z" />
<glyph unicode="&#xdf;" horiz-adv-x="985" d="M168 0l240 1130q31 147 156.5 230.5t260.5 83.5q143 0 228.5 -87t58.5 -214q-18 -84 -86 -165t-176 -136q113 -80 147.5 -210t6.5 -265q-35 -166 -165 -278t-278 -112q-18 0 -37.5 2.5t-36.5 5.5l-32 6q-16 3 -28.5 7t-22 8t-13.5 7t-4 5l12 23l56 92q61 -31 131 -31 q88 0 161.5 71t98.5 194q35 170 -28.5 291.5t-215.5 125.5l27 125q135 2 220 73t105 163q16 76 -26.5 125t-130.5 49q-25 0 -51.5 -5t-66.5 -22.5t-72 -59.5t-46 -104l-239 -1128h-154z" />
<glyph unicode="&#xe0;" horiz-adv-x="985" d="M156 155q-6 44 4 76q29 129 204 198t420 73l19 88q25 109 -14 171t-115 62q-164 0 -330 -102l16 135q172 88 340 88q143 0 219 -99.5t44 -252.5l-125 -592h-154l16 74q-145 -96 -360 -97q-63 0 -106.5 28t-57.5 67t-20 83zM307 236q-12 -61 37 -97.5t127 -36.5 q96 0 168 39q78 39 96 129l27 127q-424 -20 -455 -161zM506 1421h160l198 -342h-125z" />
<glyph unicode="&#xe1;" horiz-adv-x="985" d="M156 155q-6 44 4 76q29 129 204 198t420 73l19 88q25 109 -14 171t-115 62q-164 0 -330 -102l16 135q172 88 340 88q143 0 219 -99.5t44 -252.5l-125 -592h-154l16 74q-145 -96 -360 -97q-63 0 -106.5 28t-57.5 67t-20 83zM307 236q-12 -61 37 -97.5t127 -36.5 q96 0 168 39q78 39 96 129l27 127q-424 -20 -455 -161zM578 1079l346 342h159l-381 -342h-124z" />
<glyph unicode="&#xe2;" horiz-adv-x="985" d="M156 155q-6 44 4 76q29 129 204 198t420 73l19 88q25 109 -14 171t-115 62q-164 0 -330 -102l16 135q172 88 340 88q143 0 219 -99.5t44 -252.5l-125 -592h-154l16 74q-145 -96 -360 -97q-63 0 -106.5 28t-57.5 67t-20 83zM307 236q-12 -61 37 -97.5t127 -36.5 q96 0 168 39q78 39 96 129l27 127q-424 -20 -455 -161zM403 1075l330 352h123l182 -352h-120l-144 252l-250 -252h-121z" />
<glyph unicode="&#xe3;" horiz-adv-x="985" d="M156 155q-6 44 4 76q29 129 204 198t420 73l19 88q25 109 -14 171t-115 62q-164 0 -330 -102l16 135q172 88 340 88q143 0 219 -99.5t44 -252.5l-125 -592h-154l16 74q-145 -96 -360 -97q-63 0 -106.5 28t-57.5 67t-20 83zM307 236q-12 -61 37 -97.5t127 -36.5 q96 0 168 39q78 39 96 129l27 127q-424 -20 -455 -161zM391 1128q27 113 100.5 178.5t151.5 65.5q57 0 121 -51q82 -68 131 -68q76 0 104 119h125q-27 -113 -100.5 -178.5t-151.5 -65.5q-53 0 -120 52q-82 68 -131 67q-76 0 -105 -119h-125z" />
<glyph unicode="&#xe4;" horiz-adv-x="985" d="M156 155q-6 44 4 76q29 129 204 198t420 73l19 88q25 109 -14 171t-115 62q-164 0 -330 -102l16 135q172 88 340 88q143 0 219 -99.5t44 -252.5l-125 -592h-154l16 74q-145 -96 -360 -97q-63 0 -106.5 28t-57.5 67t-20 83zM307 236q-12 -61 37 -97.5t127 -36.5 q96 0 168 39q78 39 96 129l27 127q-424 -20 -455 -161zM508 1169l35 164h164l-35 -164h-164zM807 1169l35 164h164l-35 -164h-164z" />
<glyph unicode="&#xe5;" horiz-adv-x="985" d="M156 155q-6 44 4 76q29 129 204 198t420 73l19 88q25 109 -14 171t-115 62q-164 0 -330 -102l16 135q172 88 340 88q143 0 219 -99.5t44 -252.5l-125 -592h-154l16 74q-145 -96 -360 -97q-63 0 -106.5 28t-57.5 67t-20 83zM307 236q-12 -61 37 -97.5t127 -36.5 q96 0 168 39q78 39 96 129l27 127q-424 -20 -455 -161zM526 1233q14 68 90 119t175 51q96 0 150 -50t40 -124q-16 -68 -92 -119t-172 -51t-150.5 50t-40.5 124zM651 1231q-8 -35 13.5 -53.5t38 -20.5t34.5 -2q102 0 119 76q8 35 -13.5 53.5t-38 20.5t-34.5 2 q-103 0 -119 -76z" />
<glyph unicode="&#xe6;" horiz-adv-x="1478" d="M140 165q-5 44 5 68q53 244 623 273l16 84q23 111 -16 172t-113 61q-166 0 -331 -102l16 135q172 88 340 88q88 0 156.5 -42t99.5 -116q162 158 344 158q70 0 121 -24.5t77.5 -59.5t41 -89t17.5 -96t-2 -98.5t-9 -76.5l-10 -51h-601q-27 -158 40 -252.5t182 -94.5 q158 0 307 115l-17 -133q-154 -106 -319 -107q-199 0 -301 158q-45 -53 -118 -88t-152.5 -48t-125.5 -17.5t-85 -4.5q-70 0 -114 31t-55.5 72t-16.5 85zM293 236q-10 -57 35 -95.5t127 -38.5q27 0 53.5 3.5t78.5 15.5t89 48t49 91q4 16 20 131q-70 0 -151.5 -8t-184 -46 t-116.5 -101zM948 561h469q6 80 -8 135.5t-43 80t-55.5 33.5t-55.5 9q-84 0 -170 -70.5t-137 -187.5z" />
<glyph unicode="&#xe7;" horiz-adv-x="909" d="M170 455q41 193 196.5 341t358.5 148q94 0 155.5 -18.5t141.5 -69.5l-53 -133q-70 53 -128.5 71.5t-142.5 18.5q-150 0 -244 -107.5t-124 -248.5q-31 -152 26.5 -250t184.5 -98q178 0 344 110l-17 -137q-174 -104 -356 -105q-188 0 -285.5 141.5t-56.5 336.5zM227 -438 l224 344h124l-206 -344h-142z" />
<glyph unicode="&#xe8;" horiz-adv-x="909" d="M170 463q41 199 192.5 340t321.5 141q184 0 250 -149q55 -125 10 -346h-633q-27 -150 39 -248.5t189 -98.5q170 0 335 115l-16 -133q-172 -106 -348 -107q-184 0 -283.5 141.5t-56.5 344.5zM344 561h506q10 131 -46 194.5t-147 63.5q-88 0 -176 -71.5t-137 -186.5z M469 1421h160l198 -342h-125z" />
<glyph unicode="&#xe9;" horiz-adv-x="909" d="M170 463q41 199 192.5 340t321.5 141q184 0 250 -149q55 -125 10 -346h-633q-27 -150 39 -248.5t189 -98.5q170 0 335 115l-16 -133q-172 -106 -348 -107q-184 0 -283.5 141.5t-56.5 344.5zM344 561h506q10 131 -46 194.5t-147 63.5q-88 0 -176 -71.5t-137 -186.5z M541 1079l346 342h160l-381 -342h-125z" />
<glyph unicode="&#xea;" horiz-adv-x="909" d="M170 463q41 199 192.5 340t321.5 141q184 0 250 -149q55 -125 10 -346h-633q-27 -150 39 -248.5t189 -98.5q170 0 335 115l-16 -133q-172 -106 -348 -107q-184 0 -283.5 141.5t-56.5 344.5zM344 561h506q10 131 -46 194.5t-147 63.5q-88 0 -176 -71.5t-137 -186.5z M367 1075l329 352h123l182 -352h-120l-144 252l-250 -252h-120z" />
<glyph unicode="&#xeb;" horiz-adv-x="909" d="M170 463q41 199 192.5 340t321.5 141q184 0 250 -149q55 -125 10 -346h-633q-27 -150 39 -248.5t189 -98.5q170 0 335 115l-16 -133q-172 -106 -348 -107q-184 0 -283.5 141.5t-56.5 344.5zM344 561h506q10 131 -46 194.5t-147 63.5q-88 0 -176 -71.5t-137 -186.5z M471 1169l35 164h164l-35 -164h-164zM770 1169l35 164h164l-35 -164h-164z" />
<glyph unicode="&#xec;" horiz-adv-x="489" d="M166 0l192 909h154l-193 -909h-153zM190 1421h160l199 -342h-125z" />
<glyph unicode="&#xed;" horiz-adv-x="489" d="M166 0l192 909h154l-193 -909h-153zM395 1079l346 342h160l-381 -342h-125z" />
<glyph unicode="&#xee;" horiz-adv-x="489" d="M156 1075l329 352h123l183 -352h-121l-144 252l-250 -252h-120zM166 0l192 909h154l-193 -909h-153z" />
<glyph unicode="&#xef;" horiz-adv-x="489" d="M166 0l192 909h154l-193 -909h-153zM260 1169l35 164h164l-35 -164h-164zM559 1169l35 164h164l-35 -164h-164z" />
<glyph unicode="&#xf0;" d="M158 451q43 203 205.5 348t349.5 145q111 0 192 -55q-39 178 -166 311l-184 -125l-53 94l155 105q-88 61 -178 98l84 107q115 -35 223 -117l181 119l51 -95l-148 -98q141 -152 197 -356q53 -201 -2 -436q-12 -63 -26.5 -109.5t-59.5 -121.5t-115 -138 q-164 -150 -358 -150q-182 0 -286.5 137.5t-61.5 336.5zM322 471q-37 -170 26.5 -266t186.5 -96q125 0 228 100t136 252q31 152 -27.5 255t-187.5 103q-115 0 -220 -88t-142 -260z" />
<glyph unicode="&#xf1;" horiz-adv-x="1058" d="M166 0l196 922h148l-31 -146q18 23 51 50.5t115 66.5t164 39q279 0 211 -322l-129 -610h-160l127 596q47 211 -153 211q-106 0 -177 -92t-96 -213l-106 -502h-160zM428 1128q27 113 100.5 178.5t151.5 65.5q57 0 121 -51q82 -68 131 -68q76 0 104 119h125 q-27 -113 -100.5 -178.5t-151.5 -65.5q-53 0 -121 52q-82 68 -131 67q-76 0 -104 -119h-125z" />
<glyph unicode="&#xf2;" d="M158 451q43 203 204.5 348t350.5 145q184 0 285.5 -144.5t58.5 -348.5q-43 -199 -204 -336.5t-347 -137.5q-182 0 -286.5 136.5t-61.5 337.5zM322 471q-37 -174 28.5 -268t181.5 -94q121 0 226.5 95t142.5 267q37 170 -30.5 259t-186.5 89q-115 0 -220 -88t-142 -260z M526 1421h160l199 -342h-125z" />
<glyph unicode="&#xf3;" d="M158 451q43 203 204.5 348t350.5 145q184 0 285.5 -144.5t58.5 -348.5q-43 -199 -204 -336.5t-347 -137.5q-182 0 -286.5 136.5t-61.5 337.5zM322 471q-37 -174 28.5 -268t181.5 -94q121 0 226.5 95t142.5 267q37 170 -30.5 259t-186.5 89q-115 0 -220 -88t-142 -260z M598 1079l346 342h160l-381 -342h-125z" />
<glyph unicode="&#xf4;" d="M158 451q43 203 204.5 348t350.5 145q184 0 285.5 -144.5t58.5 -348.5q-43 -199 -204 -336.5t-347 -137.5q-182 0 -286.5 136.5t-61.5 337.5zM322 471q-37 -174 28.5 -268t181.5 -94q121 0 226.5 95t142.5 267q37 170 -30.5 259t-186.5 89q-115 0 -220 -88t-142 -260z M424 1075l330 352h123l182 -352h-121l-143 252l-250 -252h-121z" />
<glyph unicode="&#xf5;" d="M158 451q43 203 204.5 348t350.5 145q184 0 285.5 -144.5t58.5 -348.5q-43 -199 -204 -336.5t-347 -137.5q-182 0 -286.5 136.5t-61.5 337.5zM322 471q-37 -174 28.5 -268t181.5 -94q121 0 226.5 95t142.5 267q37 170 -30.5 259t-186.5 89q-115 0 -220 -88t-142 -260z M412 1128q27 113 100.5 178.5t151.5 65.5q57 0 120 -51q82 -68 131 -68q76 0 105 119h125q-27 -113 -100.5 -178.5t-151.5 -65.5q-53 0 -121 52q-82 68 -131 67q-76 0 -104 -119h-125z" />
<glyph unicode="&#xf6;" d="M158 451q43 203 204.5 348t350.5 145q184 0 285.5 -144.5t58.5 -348.5q-43 -199 -204 -336.5t-347 -137.5q-182 0 -286.5 136.5t-61.5 337.5zM322 471q-37 -174 28.5 -268t181.5 -94q121 0 226.5 95t142.5 267q37 170 -30.5 259t-186.5 89q-115 0 -220 -88t-142 -260z M528 1169l35 164h164l-35 -164h-164zM827 1169l35 164h164l-35 -164h-164z" />
<glyph unicode="&#xf7;" horiz-adv-x="1593" d="M223 512q8 41 76 41h1227q20 0 31.5 -1t21.5 -11.5t6 -28.5q-8 -41 -78 -41h-1222q-20 0 -32.5 1t-23 11.5t-6.5 28.5zM748 174l36 170h170l-36 -170h-170zM854 678l37 170h170l-37 -170h-170z" />
<glyph unicode="&#xf8;" d="M53 -168l195 252q-131 158 -86 367q43 203 204.5 348t346.5 145q90 0 172 -41l182 238l96 -62l-192 -248q131 -147 82 -380q-43 -199 -204 -336.5t-343 -137.5q-90 0 -168 39l-191 -245zM315 451q-35 -145 23 -248l459 590q-47 27 -111 26q-123 0 -228.5 -97t-142.5 -271 zM424 125q43 -23 108 -23q121 0 225.5 90.5t141.5 258.5q33 160 -20 260z" />
<glyph unicode="&#xf9;" horiz-adv-x="1058" d="M213 223l145 686h160l-143 -678q-16 -76 6 -108.5t123 -32.5q104 0 188 58.5t107 166.5l125 594h159l-192 -909h-154l21 98q-164 -121 -379 -121q-121 0 -156 62.5t-10 183.5zM543 1421h159l199 -342h-125z" />
<glyph unicode="&#xfa;" horiz-adv-x="1058" d="M213 223l145 686h160l-143 -678q-16 -76 6 -108.5t123 -32.5q104 0 188 58.5t107 166.5l125 594h159l-192 -909h-154l21 98q-164 -121 -379 -121q-121 0 -156 62.5t-10 183.5zM614 1079l347 342h159l-381 -342h-125z" />
<glyph unicode="&#xfb;" horiz-adv-x="1058" d="M213 223l145 686h160l-143 -678q-16 -76 6 -108.5t123 -32.5q104 0 188 58.5t107 166.5l125 594h159l-192 -909h-154l21 98q-164 -121 -379 -121q-121 0 -156 62.5t-10 183.5zM440 1075l330 352h123l182 -352h-121l-143 252l-250 -252h-121z" />
<glyph unicode="&#xfc;" horiz-adv-x="1058" d="M213 223l145 686h160l-143 -678q-16 -76 6 -108.5t123 -32.5q104 0 188 58.5t107 166.5l125 594h159l-192 -909h-154l21 98q-164 -121 -379 -121q-121 0 -156 62.5t-10 183.5zM545 1169l35 164h163l-34 -164h-164zM844 1169l35 164h163l-34 -164h-164z" />
<glyph unicode="&#xfd;" horiz-adv-x="944" d="M2 -403l16 133q74 -33 154 -33q20 0 32.5 4t42 31.5t66.5 83.5l113 184l-205 909h162l57 -256q86 -391 70 -536h2q37 141 440 792h154l-678 -1095q-88 -141 -152.5 -187.5t-130.5 -46.5q-73 1 -143 17zM559 1079l346 342h160l-381 -342h-125z" />
<glyph unicode="&#xfe;" horiz-adv-x="1058" d="M84 -397l387 1818h154l-131 -612q170 123 362 123q143 0 203.5 -141.5t19.5 -333.5q-43 -205 -184 -342.5t-295 -137.5q-152 0 -252 117l-104 -491h-160zM385 270q-8 -39 6 -71q49 -96 156 -97q119 0 230.5 100.5t142.5 254.5q31 141 -29 242.5t-176 101.5 q-137 0 -242 -119z" />
<glyph unicode="&#xff;" horiz-adv-x="944" d="M2 -403l16 133q74 -33 154 -33q20 0 32.5 4t42 31.5t66.5 83.5l113 184l-205 909h162l57 -256q86 -391 70 -536h2q37 141 440 792h154l-678 -1095q-88 -141 -152.5 -187.5t-130.5 -46.5q-73 1 -143 17zM489 1169l35 164h164l-35 -164h-164zM788 1169l35 164h164l-35 -164 h-164z" />
<glyph unicode="&#x100;" horiz-adv-x="1366" d="M57 0l838 1421h180l232 -1421h-189l-67 418h-596l-246 -418h-152zM522 532h508l-74 527q-23 172 -20 215h-2q-23 -57 -199 -371q-84 -145 -106.5 -184.5t-106.5 -186.5zM643 1548l27 131h739l-27 -131h-739z" />
<glyph unicode="&#x101;" horiz-adv-x="985" d="M156 155q-6 44 4 76q29 129 204 198t420 73l19 88q25 109 -14 171t-115 62q-164 0 -330 -102l16 135q172 88 340 88q143 0 219 -99.5t44 -252.5l-125 -592h-154l16 74q-145 -96 -360 -97q-63 0 -106.5 28t-57.5 67t-20 83zM307 236q-12 -61 37 -97.5t127 -36.5 q96 0 168 39q78 39 96 129l27 127q-424 -20 -455 -161zM375 1186l28 131h740l-29 -131h-739z" />
<glyph unicode="&#x102;" horiz-adv-x="1366" d="M57 0l838 1421h180l232 -1421h-189l-67 418h-596l-246 -418h-152zM522 532h508l-74 527q-23 172 -20 215h-2q-23 -57 -199 -371q-84 -145 -106.5 -184.5t-106.5 -186.5zM739 1892h125q-18 -104 36 -165.5t138 -61.5q82 0 162 60.5t105 166.5h125q-37 -158 -161 -261 t-263 -103q-137 0 -217.5 102t-49.5 262z" />
<glyph unicode="&#x103;" horiz-adv-x="985" d="M156 155q-6 44 4 76q29 129 204 198t420 73l19 88q25 109 -14 171t-115 62q-164 0 -330 -102l16 135q172 88 340 88q143 0 219 -99.5t44 -252.5l-125 -592h-154l16 74q-145 -96 -360 -97q-63 0 -106.5 28t-57.5 67t-20 83zM307 236q-12 -61 37 -97.5t127 -36.5 q96 0 168 39q78 39 96 129l27 127q-424 -20 -455 -161zM453 1434h125q-20 -104 34 -166t138 -62q82 0 161.5 60.5t106.5 167.5h125q-37 -158 -161 -261.5t-263 -103.5q-137 0 -217 102.5t-49 262.5z" />
<glyph unicode="&#x104;" horiz-adv-x="1366" d="M57 0l838 1421h180l232 -1421h-60q-203 -102 -223 -213q-6 -43 17.5 -58.5t74.5 -19.5q59 -2 144 29l2 -121q-119 -51 -211 -51q-96 0 -138.5 51t-27.5 123q12 76 77.5 145.5t155.5 114.5l-67 418h-596l-246 -418h-152zM522 532h508l-74 527q-23 172 -20 215h-2 q-23 -57 -199 -371q-84 -145 -106.5 -184.5t-106.5 -186.5z" />
<glyph unicode="&#x105;" horiz-adv-x="985" d="M156 155q-6 44 4 76q29 129 204 198t420 73l19 88q25 109 -14 171t-115 62q-164 0 -330 -102l16 135q172 88 340 88q143 0 219 -99.5t44 -252.5l-125 -592h-23q-205 -102 -225 -213q-6 -43 17.5 -58.5t74.5 -19.5q59 -2 143 29l2 -121q-119 -51 -211 -51q-96 0 -138 51 t-27 123q12 76 77.5 145.5t155.5 114.5l16 74q-145 -96 -360 -97q-63 0 -106.5 28t-57.5 67t-20 83zM307 236q-12 -61 37 -97.5t127 -36.5q96 0 168 39q78 39 96 129l27 127q-424 -20 -455 -161z" />
<glyph unicode="&#x106;" horiz-adv-x="1308" d="M286.5 711q65.5 303 303.5 520q242 215 512 215q111 0 190 -16q88 -16 178 -58l-63 -168q-74 59 -154 86q-74 25 -180 25q-195 0 -375 -176q-176 -180 -229 -428t49 -426q104 -176 299 -176q135 0 213 24q80 23 209 100l-16 -141q-137 -74 -215 -92q-82 -23 -217 -23 q-272 0 -422 216q-148 215 -82.5 518zM848 1528l412 250h227l-457 -250h-182z" />
<glyph unicode="&#x107;" horiz-adv-x="909" d="M170 455q41 193 196.5 341t358.5 148q94 0 155.5 -18.5t141.5 -69.5l-53 -133q-70 53 -128.5 71.5t-142.5 18.5q-150 0 -244 -107.5t-124 -248.5q-31 -152 26.5 -250t184.5 -98q178 0 344 110l-17 -137q-174 -104 -356 -105q-188 0 -285.5 141.5t-56.5 336.5zM586 1079 l346 342h160l-381 -342h-125z" />
<glyph unicode="&#x108;" horiz-adv-x="1308" d="M286.5 711q65.5 303 303.5 520q242 215 512 215q111 0 190 -16q88 -16 178 -58l-63 -168q-74 59 -154 86q-74 25 -180 25q-195 0 -375 -176q-176 -180 -229 -428t49 -426q104 -176 299 -176q135 0 213 24q80 23 209 100l-16 -141q-137 -74 -215 -92q-82 -23 -217 -23 q-272 0 -422 216q-148 215 -82.5 518zM719 1507l317 275h123l199 -275h-121l-156 199l-241 -199h-121z" />
<glyph unicode="&#x109;" horiz-adv-x="909" d="M170 455q41 193 196.5 341t358.5 148q94 0 155.5 -18.5t141.5 -69.5l-53 -133q-70 53 -128.5 71.5t-142.5 18.5q-150 0 -244 -107.5t-124 -248.5q-31 -152 26.5 -250t184.5 -98q178 0 344 110l-17 -137q-174 -104 -356 -105q-188 0 -285.5 141.5t-56.5 336.5zM412 1075 l329 352h123l183 -352h-121l-144 252l-250 -252h-120z" />
<glyph unicode="&#x10a;" horiz-adv-x="1308" d="M286.5 711q65.5 303 303.5 520q242 215 512 215q111 0 190 -16q88 -16 178 -58l-63 -168q-74 59 -154 86q-74 25 -180 25q-195 0 -375 -176q-176 -180 -229 -428t49 -426q104 -176 299 -176q135 0 213 24q80 23 209 100l-16 -141q-137 -74 -215 -92q-82 -23 -217 -23 q-272 0 -422 216q-148 215 -82.5 518zM946 1507l39 183h182l-39 -183h-182z" />
<glyph unicode="&#x10b;" horiz-adv-x="909" d="M170 455q41 193 196.5 341t358.5 148q94 0 155.5 -18.5t141.5 -69.5l-53 -133q-70 53 -128.5 71.5t-142.5 18.5q-150 0 -244 -107.5t-124 -248.5q-31 -152 26.5 -250t184.5 -98q178 0 344 110l-17 -137q-174 -104 -356 -105q-188 0 -285.5 141.5t-56.5 336.5zM653 1159 l39 182h182l-38 -182h-183z" />
<glyph unicode="&#x10c;" horiz-adv-x="1308" d="M286.5 711q65.5 303 303.5 520q242 215 512 215q111 0 190 -16q88 -16 178 -58l-63 -168q-74 59 -154 86q-74 25 -180 25q-195 0 -375 -176q-176 -180 -229 -428t49 -426q104 -176 299 -176q135 0 213 24q80 23 209 100l-16 -141q-137 -74 -215 -92q-82 -23 -217 -23 q-272 0 -422 216q-148 215 -82.5 518zM778 1782h121l156 -199l241 199h121l-317 -275h-123z" />
<glyph unicode="&#x10d;" horiz-adv-x="909" d="M170 455q41 193 196.5 341t358.5 148q94 0 155.5 -18.5t141.5 -69.5l-53 -133q-70 53 -128.5 71.5t-142.5 18.5q-150 0 -244 -107.5t-124 -248.5q-31 -152 26.5 -250t184.5 -98q178 0 344 110l-17 -137q-174 -104 -356 -105q-188 0 -285.5 141.5t-56.5 336.5zM485 1427 h121l144 -251l249 251h121l-329 -352h-123z" />
<glyph unicode="&#x10e;" horiz-adv-x="1478" d="M197 0l303 1421h536q262 0 400.5 -212t72.5 -511q-61 -291 -287.5 -494.5t-486.5 -203.5h-538zM397 115h314q217 0 392 162.5t230 420.5q57 268 -47 438.5t-321 170.5h-314zM590 1782h121l155 -199l242 199h121l-318 -275h-123z" />
<glyph unicode="&#x10f;" horiz-adv-x="1058" d="M170 455q43 199 178 338t287 139q162 0 274 -113l129 602h154l-303 -1421h-160l23 106q-160 -129 -330 -129q-147 0 -221 138.5t-31 339.5zM330 453q-37 -176 27.5 -263.5t174.5 -87.5q84 0 164 58q80 61 95 125l86 409q-53 113 -175 113q-113 0 -223 -86t-149 -268z M1186 1038l94 230h-45l33 153h151l-33 -151l-124 -232h-76z" />
<glyph unicode="&#x110;" horiz-adv-x="1478" d="M174 645l29 131h159l138 645h536q262 0 400.5 -212t72.5 -511q-61 -291 -287.5 -494.5t-486.5 -203.5h-538l137 645h-160zM397 115h314q217 0 392 162.5t230 420.5q57 268 -47 438.5t-321 170.5h-314l-112 -531h206l-28 -131h-207z" />
<glyph unicode="&#x111;" horiz-adv-x="1058" d="M170 455q43 199 178 338t287 139q162 0 274 -113l60 281h-312l29 131h311l41 190h154l-41 -190h160l-29 -131h-160l-233 -1100h-160l23 106q-160 -129 -330 -129q-147 0 -221 138.5t-31 339.5zM330 453q-37 -176 27.5 -263.5t174.5 -87.5q84 0 164 58q80 61 95 125 l86 409q-53 113 -175 113q-113 0 -223 -86t-149 -268z" />
<glyph unicode="&#x112;" horiz-adv-x="1222" d="M193 0l301 1415h913l-29 -133h-374q-12 0 -37 1t-37 1h-283l-102 -485h676l-27 -125h-676l-112 -531h428q12 0 36.5 1t36.5 1h258l-30 -145h-942zM573 1548l27 131h739l-26 -131h-740z" />
<glyph unicode="&#x113;" horiz-adv-x="909" d="M170 463q41 199 192.5 340t321.5 141q184 0 250 -149q55 -125 10 -346h-633q-27 -150 39 -248.5t189 -98.5q170 0 335 115l-16 -133q-172 -106 -348 -107q-184 0 -283.5 141.5t-56.5 344.5zM338 1186l29 131h739l-29 -131h-739zM344 561h506q10 131 -46 194.5t-147 63.5 q-88 0 -176 -71.5t-137 -186.5z" />
<glyph unicode="&#x114;" horiz-adv-x="1222" d="M193 0l301 1415h913l-29 -133h-374q-12 0 -37 1t-37 1h-283l-102 -485h676l-27 -125h-676l-112 -531h428q12 0 36.5 1t36.5 1h258l-30 -145h-942zM670 1892h125q-18 -104 36 -165.5t138 -61.5q82 0 161.5 60.5t104.5 166.5h125q-37 -158 -161 -261t-263 -103 q-137 0 -217 102t-49 262z" />
<glyph unicode="&#x115;" horiz-adv-x="909" d="M170 463q41 199 192.5 340t321.5 141q184 0 250 -149q55 -125 10 -346h-633q-27 -150 39 -248.5t189 -98.5q170 0 335 115l-16 -133q-172 -106 -348 -107q-184 0 -283.5 141.5t-56.5 344.5zM344 561h506q10 131 -46 194.5t-147 63.5q-88 0 -176 -71.5t-137 -186.5z M416 1434h125q-20 -104 34 -166t138 -62q82 0 161.5 60.5t106.5 167.5h125q-37 -158 -161 -261.5t-263 -103.5q-137 0 -217 102.5t-49 262.5z" />
<glyph unicode="&#x116;" horiz-adv-x="1222" d="M193 0l301 1415h913l-29 -133h-374q-12 0 -37 1t-37 1h-283l-102 -485h676l-27 -125h-676l-112 -531h428q12 0 36.5 1t36.5 1h258l-30 -145h-942zM840 1507l39 183h182l-39 -183h-182z" />
<glyph unicode="&#x117;" horiz-adv-x="909" d="M170 463q41 199 192.5 340t321.5 141q184 0 250 -149q55 -125 10 -346h-633q-27 -150 39 -248.5t189 -98.5q170 0 335 115l-16 -133q-172 -106 -348 -107q-184 0 -283.5 141.5t-56.5 344.5zM344 561h506q10 131 -46 194.5t-147 63.5q-88 0 -176 -71.5t-137 -186.5z M608 1159l39 182h182l-38 -182h-183z" />
<glyph unicode="&#x118;" horiz-adv-x="1222" d="M193 0l301 1415h913l-29 -133h-374q-12 0 -37 1t-37 1h-283l-102 -485h676l-27 -125h-676l-112 -531h428q12 0 36.5 1t36.5 1h258l-30 -145h-93q-207 -104 -227 -213q-6 -43 17.5 -58.5t74.5 -19.5q59 -2 144 29l2 -121q-119 -51 -211 -51q-96 0 -138 51t-28 123 q10 72 77.5 139.5t155.5 120.5h-716z" />
<glyph unicode="&#x119;" horiz-adv-x="909" d="M170 463q41 199 192.5 340t321.5 141q184 0 250 -149q55 -125 10 -346h-633q-27 -150 39 -248.5t189 -98.5q170 0 335 115l-16 -133q-76 -47 -170 -78q-209 -104 -229 -219q-6 -43 17.5 -58.5t74.5 -19.5q59 -2 143 29l2 -121q-119 -51 -211 -51q-96 0 -138 51t-28 123 q8 66 61.5 129t129.5 108q-184 0 -283.5 141.5t-56.5 344.5zM344 561h506q10 131 -46 194.5t-147 63.5q-88 0 -176 -71.5t-137 -186.5z" />
<glyph unicode="&#x11a;" horiz-adv-x="1222" d="M193 0l301 1415h913l-29 -133h-374q-12 0 -37 1t-37 1h-283l-102 -485h676l-27 -125h-676l-112 -531h428q12 0 36.5 1t36.5 1h258l-30 -145h-942zM672 1782h121l155 -199l242 199h121l-318 -275h-123z" />
<glyph unicode="&#x11b;" horiz-adv-x="909" d="M170 463q41 199 192.5 340t321.5 141q184 0 250 -149q55 -125 10 -346h-633q-27 -150 39 -248.5t189 -98.5q170 0 335 115l-16 -133q-172 -106 -348 -107q-184 0 -283.5 141.5t-56.5 344.5zM344 561h506q10 131 -46 194.5t-147 63.5q-88 0 -176 -71.5t-137 -186.5z M440 1427h121l144 -251l249 251h121l-330 -352h-122z" />
<glyph unicode="&#x11c;" horiz-adv-x="1366" d="M286.5 711q65.5 303 303.5 520q242 215 512 215q117 0 209 -23q100 -29 182 -80l-66 -167q-74 76 -157 106q-80 33 -197 33q-195 0 -375 -176q-176 -180 -229 -428t49 -426q104 -176 299 -176q141 0 281 43l71 337h-270l27 125h430l-115 -536q-225 -100 -450 -101 q-131 0 -242 57.5t-180 158.5q-148 215 -82.5 518zM682 1507l317 275h123l199 -275h-121l-156 199l-241 -199h-121z" />
<glyph unicode="&#x11d;" d="M27 -145q10 51 52 109.5t124 101.5q-41 66 -21 155q18 90 97 174q-49 90 -25 203q29 139 146.5 236.5t250.5 97.5q115 0 180 -66q166 66 338 66l-6 -129q-82 6 -119 6q-25 0 -78 -4t-75 -4l-8 2q49 -90 24 -205q-29 -137 -145.5 -235.5t-253.5 -98.5q-104 0 -172 60 q-31 -31 -39 -74q-23 -109 96 -109h180q57 0 103.5 -6t126.5 -28.5t115.5 -87t15.5 -162.5q-25 -117 -174.5 -198t-339.5 -81q-188 0 -303 81t-90 196zM170 -143v-2q-14 -70 66.5 -115t209.5 -45q127 0 228.5 45t116.5 113q10 49 -18 80.5t-82 43t-83.5 14.5t-64.5 3h-185 q-53 0 -92 -18.5t-57.5 -45t-27.5 -44t-11 -29.5zM352 1075l330 352h123l182 -352h-121l-143 252l-250 -252h-121zM397.5 598q-24.5 -115 20.5 -166t117 -51q76 0 140 53t88.5 164t-18.5 164t-118 53q-70 0 -137.5 -51t-92 -166z" />
<glyph unicode="&#x11e;" horiz-adv-x="1366" d="M286.5 711q65.5 303 303.5 520q242 215 512 215q117 0 209 -23q100 -29 182 -80l-66 -167q-74 76 -157 106q-80 33 -197 33q-195 0 -375 -176q-176 -180 -229 -428t49 -426q104 -176 299 -176q141 0 281 43l71 337h-270l27 125h430l-115 -536q-225 -100 -450 -101 q-131 0 -242 57.5t-180 158.5q-148 215 -82.5 518zM739 1892h125q-18 -104 36 -165.5t138 -61.5q82 0 162 60.5t105 166.5h125q-37 -158 -161 -261t-263 -103q-137 0 -217.5 102t-49.5 262z" />
<glyph unicode="&#x11f;" d="M27 -145q10 51 52 109.5t124 101.5q-41 66 -21 155q18 90 97 174q-49 90 -25 203q29 139 146.5 236.5t250.5 97.5q115 0 180 -66q166 66 338 66l-6 -129q-82 6 -119 6q-25 0 -78 -4t-75 -4l-8 2q49 -90 24 -205q-29 -137 -145.5 -235.5t-253.5 -98.5q-104 0 -172 60 q-31 -31 -39 -74q-23 -109 96 -109h180q57 0 103.5 -6t126.5 -28.5t115.5 -87t15.5 -162.5q-25 -117 -174.5 -198t-339.5 -81q-188 0 -303 81t-90 196zM170 -143v-2q-14 -70 66.5 -115t209.5 -45q127 0 228.5 45t116.5 113q10 49 -18 80.5t-82 43t-83.5 14.5t-64.5 3h-185 q-53 0 -92 -18.5t-57.5 -45t-27.5 -44t-11 -29.5zM397.5 598q-24.5 -115 20.5 -166t117 -51q76 0 140 53t88.5 164t-18.5 164t-118 53q-70 0 -137.5 -51t-92 -166zM401 1434h125q-20 -104 34 -166t138 -62q82 0 162 60.5t107 167.5h125q-37 -158 -161 -261.5t-263 -103.5 q-137 0 -217.5 102.5t-49.5 262.5z" />
<glyph unicode="&#x120;" horiz-adv-x="1366" d="M286.5 711q65.5 303 303.5 520q242 215 512 215q117 0 209 -23q100 -29 182 -80l-66 -167q-74 76 -157 106q-80 33 -197 33q-195 0 -375 -176q-176 -180 -229 -428t49 -426q104 -176 299 -176q141 0 281 43l71 337h-270l27 125h430l-115 -536q-225 -100 -450 -101 q-131 0 -242 57.5t-180 158.5q-148 215 -82.5 518zM911 1507l39 183h183l-39 -183h-183z" />
<glyph unicode="&#x121;" d="M27 -145q10 51 52 109.5t124 101.5q-41 66 -21 155q18 90 97 174q-49 90 -25 203q29 139 146.5 236.5t250.5 97.5q115 0 180 -66q166 66 338 66l-6 -129q-82 6 -119 6q-25 0 -78 -4t-75 -4l-8 2q49 -90 24 -205q-29 -137 -145.5 -235.5t-253.5 -98.5q-104 0 -172 60 q-31 -31 -39 -74q-23 -109 96 -109h180q57 0 103.5 -6t126.5 -28.5t115.5 -87t15.5 -162.5q-25 -117 -174.5 -198t-339.5 -81q-188 0 -303 81t-90 196zM170 -143v-2q-14 -70 66.5 -115t209.5 -45q127 0 228.5 45t116.5 113q10 49 -18 80.5t-82 43t-83.5 14.5t-64.5 3h-185 q-53 0 -92 -18.5t-57.5 -45t-27.5 -44t-11 -29.5zM397.5 598q-24.5 -115 20.5 -166t117 -51q76 0 140 53t88.5 164t-18.5 164t-118 53q-70 0 -137.5 -51t-92 -166zM594 1159l39 182h182l-39 -182h-182z" />
<glyph unicode="&#x122;" horiz-adv-x="1366" d="M286.5 711q65.5 303 303.5 520q242 215 512 215q117 0 209 -23q100 -29 182 -80l-66 -167q-74 76 -157 106q-80 33 -197 33q-195 0 -375 -176q-176 -180 -229 -428t49 -426q104 -176 299 -176q141 0 281 43l71 337h-270l27 125h430l-115 -536q-225 -100 -450 -101 q-131 0 -242 57.5t-180 158.5q-148 215 -82.5 518zM489 -545l95 230h-45l32 153h152l-33 -151l-125 -232h-76z" />
<glyph unicode="&#x123;" d="M27 -145q10 51 52 109.5t124 101.5q-41 66 -21 155q18 90 97 174q-49 90 -25 203q29 139 146.5 236.5t250.5 97.5q115 0 180 -66q166 66 338 66l-6 -129q-82 6 -119 6q-25 0 -78 -4t-75 -4l-8 2q49 -90 24 -205q-29 -137 -145.5 -235.5t-253.5 -98.5q-104 0 -172 60 q-31 -31 -39 -74q-23 -109 96 -109h180q57 0 103.5 -6t126.5 -28.5t115.5 -87t15.5 -162.5q-25 -117 -174.5 -198t-339.5 -81q-188 0 -303 81t-90 196zM170 -143v-2q-14 -70 66.5 -115t209.5 -45q127 0 228.5 45t116.5 113q10 49 -18 80.5t-82 43t-83.5 14.5t-64.5 3h-185 q-53 0 -92 -18.5t-57.5 -45t-27.5 -44t-11 -29.5zM397.5 598q-24.5 -115 20.5 -166t117 -51q76 0 140 53t88.5 164t-18.5 164t-118 53q-70 0 -137.5 -51t-92 -166zM600 1106l33 151l125 232h76l-95 -229h45l-32 -154h-152z" />
<glyph unicode="&#x124;" horiz-adv-x="1449" d="M193 0l303 1421h182l-133 -620h698l133 620h183l-304 -1421h-182l144 676h-699l-143 -676h-182zM725 1507l317 275h123l199 -275h-121l-156 199l-241 -199h-121z" />
<glyph unicode="&#x125;" horiz-adv-x="1058" d="M166 0l303 1421h154l-138 -637q147 147 324 148q279 0 211 -322l-129 -610h-160l127 596q47 211 -153 211q-106 0 -177 -92t-96 -213l-106 -502h-160zM528 1507l318 275h123l198 -275h-120l-156 199l-242 -199h-121z" />
<glyph unicode="&#x126;" horiz-adv-x="1449" d="M193 0l213 1001h-107l29 132h106l62 288h182l-62 -288h699l61 288h183l-62 -288h107l-29 -132h-107l-213 -1001h-182l144 676h-699l-143 -676h-182zM545 801h698l43 200h-698z" />
<glyph unicode="&#x127;" horiz-adv-x="1058" d="M166 0l233 1100h-159l28 131h160l41 190h154l-41 -190h209l-29 -131h-209l-68 -316q147 147 324 148q279 0 211 -322l-129 -610h-160l127 596q47 211 -153 211q-106 0 -177 -92t-96 -213l-106 -502h-160z" />
<glyph unicode="&#x128;" horiz-adv-x="569" d="M193 0l303 1421h182l-303 -1421h-182zM264 1507q27 113 101.5 178.5t152.5 65.5q55 0 119 -51q82 -68 131 -68q76 0 106 119h125q-27 -113 -101.5 -178.5t-152.5 -65.5q-55 0 -118 52q-82 68 -131 67q-76 0 -107 -119h-125z" />
<glyph unicode="&#x129;" horiz-adv-x="489" d="M143 1128q27 113 100.5 178.5t151.5 65.5q57 0 121 -51q82 -68 131 -68q76 0 105 119h125q-27 -113 -101 -178.5t-151 -65.5q-53 0 -121 52q-82 68 -131 67q-76 0 -105 -119h-125zM166 0l192 909h154l-193 -909h-153z" />
<glyph unicode="&#x12a;" horiz-adv-x="569" d="M193 0l303 1421h182l-303 -1421h-182zM246 1548l26 131h740l-27 -131h-739z" />
<glyph unicode="&#x12b;" horiz-adv-x="489" d="M127 1186l29 131h739l-29 -131h-739zM166 0l192 909h154l-193 -909h-153z" />
<glyph unicode="&#x12c;" horiz-adv-x="569" d="M193 0l303 1421h182l-303 -1421h-182zM342 1892h125q-18 -104 36 -165.5t138 -61.5q82 0 162 60.5t104 166.5h125q-37 -158 -160.5 -261t-263.5 -103q-137 0 -217 102t-49 262z" />
<glyph unicode="&#x12d;" horiz-adv-x="489" d="M166 0l192 909h154l-193 -909h-153zM205 1434h125q-20 -104 34 -166t138 -62q82 0 161.5 60.5t106.5 167.5h125q-37 -158 -161 -261.5t-263 -103.5q-137 0 -217 102.5t-49 262.5z" />
<glyph unicode="&#x12e;" horiz-adv-x="569" d="M10 -260q12 76 78 145.5t156 114.5h-51l303 1421h182l-303 -1421q-205 -102 -225 -213q-6 -43 17 -58.5t75 -19.5q59 -2 143 29l2 -121q-119 -51 -211 -51q-96 0 -138 51t-28 123z" />
<glyph unicode="&#x12f;" horiz-adv-x="489" d="M-45 -260q12 76 77.5 145.5t155.5 114.5h-22l192 909h154l-193 -909q-205 -102 -225 -213q-6 -43 17.5 -58.5t74.5 -19.5q59 -2 144 29l2 -121q-119 -51 -211 -51q-96 0 -138 51t-28 123zM410 1210l39 183h182l-39 -183h-182z" />
<glyph unicode="&#x130;" horiz-adv-x="569" d="M193 0l303 1421h182l-303 -1421h-182zM512 1507l39 183h182l-39 -183h-182z" />
<glyph unicode="&#x131;" horiz-adv-x="489" d="M166 0l192 909h154l-193 -909h-153z" />
<glyph unicode="&#x134;" horiz-adv-x="966" d="M94 41l62 154q39 -55 103.5 -85t133.5 -30q84 0 145.5 29.5t90 75.5t40 74t15.5 52l238 1110h176l-238 -1116q-37 -168 -153.5 -259t-280.5 -91q-174 0 -332 86zM707 1507l317 275h123l199 -275h-121l-156 199l-242 -199h-120z" />
<glyph unicode="&#x135;" horiz-adv-x="546" d="M-199 -350l70 125q51 -63 137 -64q20 0 42 4t52.5 17.5t55 46.5t35.5 80l223 1050h153l-219 -1030q-29 -137 -123 -218t-196 -81q-126 0 -230 70zM199 1075l329 352h123l183 -352h-121l-144 252l-250 -252h-120z" />
<glyph unicode="&#x136;" horiz-adv-x="1421" d="M197 0l303 1421h174l-162 -759l905 759h191l-670 -561l395 -860h-188l-344 745l-332 -280l-98 -465h-174zM518 -545l94 230h-45l33 153h152l-33 -151l-125 -232h-76z" />
<glyph unicode="&#x137;" horiz-adv-x="1001" d="M172 0l303 1421h148l-201 -938l506 426h184l-418 -352l271 -557h-168l-222 459l-200 -170l-62 -289h-141zM307 -545l94 230h-45l33 153h152l-33 -151l-125 -232h-76z" />
<glyph unicode="&#x139;" horiz-adv-x="1110" d="M193 0l303 1421h182l-275 -1290h101l547 4l-29 -135h-829zM516 1528l412 250h227l-457 -250h-182z" />
<glyph unicode="&#x13a;" horiz-adv-x="489" d="M166 0l303 1421h154l-304 -1421h-153zM489 1528l412 250h227l-456 -250h-183z" />
<glyph unicode="&#x13b;" horiz-adv-x="1110" d="M193 0l303 1421h182l-275 -1290h101l547 4l-29 -135h-829zM362 -545l95 230h-45l32 153h152l-33 -151l-125 -232h-76z" />
<glyph unicode="&#x13c;" horiz-adv-x="489" d="M51 -545l94 230h-45l33 153h152l-33 -151l-125 -232h-76zM166 0l303 1421h154l-304 -1421h-153z" />
<glyph unicode="&#x13d;" horiz-adv-x="1110" d="M193 0l303 1421h182l-275 -1290h101l547 4l-29 -135h-829zM711 1038l94 230h-45l33 153h151l-33 -151l-125 -232h-75z" />
<glyph unicode="&#x13e;" horiz-adv-x="489" d="M166 0l303 1421h154l-304 -1421h-153zM616 1038l95 230h-45l32 153h152l-33 -151l-125 -232h-76z" />
<glyph unicode="&#x13f;" horiz-adv-x="1110" d="M193 0l303 1421h182l-275 -1290h101l547 4l-29 -135h-829zM887 664l39 182h182l-39 -182h-182z" />
<glyph unicode="&#x140;" horiz-adv-x="589" d="M166 0l303 1421h154l-304 -1421h-153zM586 664l39 182h182l-39 -182h-182z" />
<glyph unicode="&#x141;" horiz-adv-x="1280" d="M287 569l243 174l146 678h182l-113 -524l314 225l59 -92l-405 -287l-129 -612h100l547 4l-29 -135h-829l125 592l-154 -111z" />
<glyph unicode="&#x142;" horiz-adv-x="663" d="M203 578l237 176l144 667h153l-114 -536l165 123l62 -90l-262 -191l-154 -727h-153l125 592l-146 -107z" />
<glyph unicode="&#x143;" horiz-adv-x="1449" d="M197 0l303 1421h254l288 -995l78 -281h2l273 1276h159l-303 -1421h-254l-290 995l-78 281h-2l-271 -1276h-159zM854 1528l412 250h227l-457 -250h-182z" />
<glyph unicode="&#x144;" horiz-adv-x="1058" d="M166 0l196 922h148l-31 -146q18 23 51 50.5t115 66.5t164 39q279 0 211 -322l-129 -610h-160l127 596q47 211 -153 211q-106 0 -177 -92t-96 -213l-106 -502h-160zM614 1079l347 342h159l-381 -342h-125z" />
<glyph unicode="&#x145;" horiz-adv-x="1449" d="M197 0l303 1421h254l288 -995l78 -281h2l273 1276h159l-303 -1421h-254l-290 995l-78 281h-2l-271 -1276h-159zM532 -545l95 230h-45l32 153h152l-33 -151l-125 -232h-76z" />
<glyph unicode="&#x146;" horiz-adv-x="1058" d="M166 0l196 922h148l-31 -146q18 23 51 50.5t115 66.5t164 39q279 0 211 -322l-129 -610h-160l127 596q47 211 -153 211q-106 0 -177 -92t-96 -213l-106 -502h-160zM336 -545l94 230h-45l33 153h151l-32 -151l-125 -232h-76z" />
<glyph unicode="&#x147;" horiz-adv-x="1449" d="M197 0l303 1421h254l288 -995l78 -281h2l273 1276h159l-303 -1421h-254l-290 995l-78 281h-2l-271 -1276h-159zM784 1782h121l156 -199l242 199h120l-317 -275h-123z" />
<glyph unicode="&#x148;" horiz-adv-x="1058" d="M166 0l196 922h148l-31 -146q18 23 51 50.5t115 66.5t164 39q279 0 211 -322l-129 -610h-160l127 596q47 211 -153 211q-106 0 -177 -92t-96 -213l-106 -502h-160zM514 1427h121l143 -251l250 251h121l-330 -352h-123z" />
<glyph unicode="&#x14a;" horiz-adv-x="1449" d="M193 0l303 1421h182l-31 -137q213 182 463 182q117 0 193.5 -64.5t106.5 -174t29 -240.5t-32 -276q-43 -197 -123 -363t-211 -279.5t-285 -113.5l35 160q86 0 155 50t116 144t76.5 186.5t56 215.5t36 215t2 186t-54.5 144.5t-133 50.5q-154 0 -293 -99.5t-206 -251.5 l-203 -956h-182z" />
<glyph unicode="&#x14b;" horiz-adv-x="1058" d="M166 0l196 922h148l-31 -146q18 23 51 50.5t115 66.5t164 39q279 0 211 -322l-129 -610q-37 -174 -147.5 -301t-251.5 -127l26 131q150 0 213 297l127 596q47 211 -153 211q-106 0 -177 -92t-96 -213l-106 -502h-160z" />
<glyph unicode="&#x14c;" horiz-adv-x="1507" d="M264 707q70 317 304.5 538t496.5 221q258 0 400.5 -221t74.5 -538q-66 -317 -302.5 -534.5t-496.5 -217.5q-256 0 -400.5 216.5t-76.5 535.5zM455 737q-61 -287 34 -468t283 -181q184 0 358.5 180.5t235.5 468.5q57 266 -43 432t-287 166q-182 0 -354 -165t-227 -433z M715 1548l26 131h740l-27 -131h-739z" />
<glyph unicode="&#x14d;" d="M158 451q43 203 204.5 348t350.5 145q184 0 285.5 -144.5t58.5 -348.5q-43 -199 -204 -336.5t-347 -137.5q-182 0 -286.5 136.5t-61.5 337.5zM322 471q-37 -174 28.5 -268t181.5 -94q121 0 226.5 95t142.5 267q37 170 -30.5 259t-186.5 89q-115 0 -220 -88t-142 -260z M395 1186l29 131h739l-28 -131h-740z" />
<glyph unicode="&#x14e;" horiz-adv-x="1507" d="M264 707q70 317 304.5 538t496.5 221q258 0 400.5 -221t74.5 -538q-66 -317 -302.5 -534.5t-496.5 -217.5q-256 0 -400.5 216.5t-76.5 535.5zM455 737q-61 -287 34 -468t283 -181q184 0 358.5 180.5t235.5 468.5q57 266 -43 432t-287 166q-182 0 -354 -165t-227 -433z M811 1892h125q-18 -104 36 -165.5t138 -61.5q82 0 162 60.5t104 166.5h125q-37 -158 -160.5 -261t-263.5 -103q-137 0 -217 102t-49 262z" />
<glyph unicode="&#x14f;" d="M158 451q43 203 204.5 348t350.5 145q184 0 285.5 -144.5t58.5 -348.5q-43 -199 -204 -336.5t-347 -137.5q-182 0 -286.5 136.5t-61.5 337.5zM322 471q-37 -174 28.5 -268t181.5 -94q121 0 226.5 95t142.5 267q37 170 -30.5 259t-186.5 89q-115 0 -220 -88t-142 -260z M473 1434h125q-20 -104 34 -166t138 -62q82 0 162 60.5t106 167.5h125q-37 -158 -160.5 -261.5t-263.5 -103.5q-137 0 -217 102.5t-49 262.5z" />
<glyph unicode="&#x150;" horiz-adv-x="1507" d="M264 707q70 317 304.5 538t496.5 221q258 0 400.5 -221t74.5 -538q-66 -317 -302.5 -534.5t-496.5 -217.5q-256 0 -400.5 216.5t-76.5 535.5zM455 737q-61 -287 34 -468t283 -181q184 0 358.5 180.5t235.5 468.5q57 266 -43 432t-287 166q-182 0 -354 -165t-227 -433z M786 1528l203 342h160l-238 -342h-125zM1128 1528l203 342h160l-238 -342h-125z" />
<glyph unicode="&#x151;" d="M158 451q43 203 204.5 348t350.5 145q184 0 285.5 -144.5t58.5 -348.5q-43 -199 -204 -336.5t-347 -137.5q-182 0 -286.5 136.5t-61.5 337.5zM322 471q-37 -174 28.5 -268t181.5 -94q121 0 226.5 95t142.5 267q37 170 -30.5 259t-186.5 89q-115 0 -220 -88t-142 -260z M451 1079l202 342h160l-238 -342h-124zM793 1079l202 342h160l-237 -342h-125z" />
<glyph unicode="&#x152;" horiz-adv-x="1990" d="M206.5 706.5q67.5 319.5 317.5 539.5t520 220q59 0 162 -22q96 -23 160 -23h811l-29 -133h-372q-12 0 -37 1t-37 1h-283l-104 -489h674l-27 -125h-674l-112 -533h428q12 0 36.5 1t36.5 1h256l-30 -145h-840q-59 0 -170 -23q-113 -23 -170 -22q-268 0 -426 216 t-90.5 535.5zM391 737q-59 -272 47.5 -464.5t321.5 -192.5q119 0 170 44t86 144q20 59 102 443q78 362 84 436q8 104 -23.5 149t-150.5 45q-215 0 -399.5 -176t-237.5 -428z" />
<glyph unicode="&#x153;" horiz-adv-x="1593" d="M160 461q43 201 200.5 342t333.5 141q219 0 314 -203q70 84 173 143.5t214 59.5q104 0 165.5 -50t77 -133t12.5 -158t-20 -154h-602q-27 -156 39 -251.5t184 -95.5q158 0 308 115l-17 -133q-154 -106 -321 -107q-115 0 -202 57.5t-126 149.5q-186 -207 -404 -207 q-176 0 -274 140.5t-55 343.5zM309 471q-37 -174 26.5 -271.5t180.5 -97.5q115 0 217.5 95.5t138.5 273.5q37 172 -27.5 260t-176.5 88q-117 0 -220.5 -91t-138.5 -257zM1061 561h471q10 129 -35 193.5t-129 64.5q-86 0 -173 -72.5t-134 -185.5z" />
<glyph unicode="&#x154;" horiz-adv-x="1323" d="M197 0l303 1421h493q217 0 342 -113.5t92 -267.5q-27 -125 -142.5 -225t-285.5 -147l265 -668h-183l-247 649h-324l-137 -649h-176zM537 774h294q174 0 290 76t141 190q25 113 -59.5 190t-256.5 77h-295zM791 1528l411 250h228l-457 -250h-182z" />
<glyph unicode="&#x155;" horiz-adv-x="700" d="M168 0l197 922h143l-41 -187q172 195 401 197l-30 -137q-152 -4 -272 -103.5t-152 -253.5l-92 -438h-154zM397 1079l346 342h160l-381 -342h-125z" />
<glyph unicode="&#x156;" horiz-adv-x="1323" d="M197 0l303 1421h493q217 0 342 -113.5t92 -267.5q-27 -125 -142.5 -225t-285.5 -147l265 -668h-183l-247 649h-324l-137 -649h-176zM469 -545l94 230h-45l33 153h151l-32 -151l-125 -232h-76zM537 774h294q174 0 290 76t141 190q25 113 -59.5 190t-256.5 77h-295z" />
<glyph unicode="&#x157;" horiz-adv-x="700" d="M53 -545l94 230h-45l33 153h152l-33 -151l-125 -232h-76zM168 0l197 922h143l-41 -187q172 195 401 197l-30 -137q-152 -4 -272 -103.5t-152 -253.5l-92 -438h-154z" />
<glyph unicode="&#x158;" horiz-adv-x="1323" d="M197 0l303 1421h493q217 0 342 -113.5t92 -267.5q-27 -125 -142.5 -225t-285.5 -147l265 -668h-183l-247 649h-324l-137 -649h-176zM537 774h294q174 0 290 76t141 190q25 113 -59.5 190t-256.5 77h-295zM721 1782h121l155 -199l242 199h121l-318 -275h-122z" />
<glyph unicode="&#x159;" horiz-adv-x="700" d="M168 0l197 922h143l-41 -187q172 195 401 197l-30 -137q-152 -4 -272 -103.5t-152 -253.5l-92 -438h-154zM336 1427h121l143 -251l250 251h121l-330 -352h-123z" />
<glyph unicode="&#x15a;" horiz-adv-x="1138" d="M111 96l65 166q162 -166 406 -166q133 0 233 82t123 189q25 117 -45 190q-35 37 -70 52.5t-161 47.5q-102 27 -161 54.5t-106 91.5q-86 117 -55 260q35 160 189.5 281.5t359.5 121.5t354 -102l-65 -164q-131 131 -320 131q-135 0 -232.5 -73.5t-117.5 -170.5 q-20 -104 37 -161q37 -37 69.5 -52.5t124.5 -37.5q147 -39 206 -68t110 -100q84 -119 49 -281q-37 -174 -194.5 -303t-356.5 -129q-247 0 -442 141zM698 1528l412 250h227l-456 -250h-183z" />
<glyph unicode="&#x15b;" horiz-adv-x="784" d="M72 68l53 139q133 -100 297 -101q193 0 223 142q8 39 -4 66.5t-43 43t-54.5 22.5t-60.5 15q-68 14 -93 20.5t-55 20t-56 35.5q-92 84 -68 205q14 63 45 112.5t74 77t82 45t85 23.5t66.5 8t44.5 2q152 0 281 -65l-53 -134q-113 78 -275 78q-174 0 -201 -127 q-8 -37 2.5 -61.5t41 -39.5t56 -23.5t77.5 -18.5q84 -16 128 -34.5t89 -67.5l8 -13q6 -10 13 -24.5t14.5 -39t8.5 -51t-5 -61.5q-31 -145 -146 -219q-100 -66 -250 -66q-161 1 -325 91zM479 1079l346 342h160l-381 -342h-125z" />
<glyph unicode="&#x15c;" horiz-adv-x="1138" d="M111 96l65 166q162 -166 406 -166q133 0 233 82t123 189q25 117 -45 190q-35 37 -70 52.5t-161 47.5q-102 27 -161 54.5t-106 91.5q-86 117 -55 260q35 160 189.5 281.5t359.5 121.5t354 -102l-65 -164q-131 131 -320 131q-135 0 -232.5 -73.5t-117.5 -170.5 q-20 -104 37 -161q37 -37 69.5 -52.5t124.5 -37.5q147 -39 206 -68t110 -100q84 -119 49 -281q-37 -174 -194.5 -303t-356.5 -129q-247 0 -442 141zM569 1507l318 275h123l198 -275h-121l-155 199l-242 -199h-121z" />
<glyph unicode="&#x15d;" horiz-adv-x="784" d="M72 68l53 139q133 -100 297 -101q193 0 223 142q8 39 -4 66.5t-43 43t-54.5 22.5t-60.5 15q-68 14 -93 20.5t-55 20t-56 35.5q-92 84 -68 205q14 63 45 112.5t74 77t82 45t85 23.5t66.5 8t44.5 2q152 0 281 -65l-53 -134q-113 78 -275 78q-174 0 -201 -127 q-8 -37 2.5 -61.5t41 -39.5t56 -23.5t77.5 -18.5q84 -16 128 -34.5t89 -67.5l8 -13q6 -10 13 -24.5t14.5 -39t8.5 -51t-5 -61.5q-31 -145 -146 -219q-100 -66 -250 -66q-161 1 -325 91zM305 1075l330 352h123l182 -352h-121l-143 252l-250 -252h-121z" />
<glyph unicode="&#x15e;" horiz-adv-x="1138" d="M111 96l65 166q162 -166 406 -166q133 0 233 82t123 189q25 117 -45 190q-35 37 -70 52.5t-161 47.5q-102 27 -161 54.5t-106 91.5q-86 117 -55 260q35 160 189.5 281.5t359.5 121.5t354 -102l-65 -164q-131 131 -320 131q-135 0 -232.5 -73.5t-117.5 -170.5 q-20 -104 37 -161q37 -37 69.5 -52.5t124.5 -37.5q147 -39 206 -68t110 -100q84 -119 49 -281q-37 -174 -194.5 -303t-356.5 -129q-247 0 -442 141zM295 -438l223 344h125l-207 -344h-141z" />
<glyph unicode="&#x15f;" horiz-adv-x="784" d="M72 68l53 139q133 -100 297 -101q193 0 223 142q8 39 -4 66.5t-43 43t-54.5 22.5t-60.5 15q-68 14 -93 20.5t-55 20t-56 35.5q-92 84 -68 205q14 63 45 112.5t74 77t82 45t85 23.5t66.5 8t44.5 2q152 0 281 -65l-53 -134q-113 78 -275 78q-174 0 -201 -127 q-8 -37 2.5 -61.5t41 -39.5t56 -23.5t77.5 -18.5q84 -16 128 -34.5t89 -67.5l8 -13q6 -10 13 -24.5t14.5 -39t8.5 -51t-5 -61.5q-31 -145 -146 -219q-100 -66 -250 -66q-161 1 -325 91zM119 -438l223 344h125l-207 -344h-141z" />
<glyph unicode="&#x160;" horiz-adv-x="1138" d="M111 96l65 166q162 -166 406 -166q133 0 233 82t123 189q25 117 -45 190q-35 37 -70 52.5t-161 47.5q-102 27 -161 54.5t-106 91.5q-86 117 -55 260q35 160 189.5 281.5t359.5 121.5t354 -102l-65 -164q-131 131 -320 131q-135 0 -232.5 -73.5t-117.5 -170.5 q-20 -104 37 -161q37 -37 69.5 -52.5t124.5 -37.5q147 -39 206 -68t110 -100q84 -119 49 -281q-37 -174 -194.5 -303t-356.5 -129q-247 0 -442 141zM629 1782h121l155 -199l242 199h121l-318 -275h-123z" />
<glyph unicode="&#x161;" horiz-adv-x="784" d="M72 68l53 139q133 -100 297 -101q193 0 223 142q8 39 -4 66.5t-43 43t-54.5 22.5t-60.5 15q-68 14 -93 20.5t-55 20t-56 35.5q-92 84 -68 205q14 63 45 112.5t74 77t82 45t85 23.5t66.5 8t44.5 2q152 0 281 -65l-53 -134q-113 78 -275 78q-174 0 -201 -127 q-8 -37 2.5 -61.5t41 -39.5t56 -23.5t77.5 -18.5q84 -16 128 -34.5t89 -67.5l8 -13q6 -10 13 -24.5t14.5 -39t8.5 -51t-5 -61.5q-31 -145 -146 -219q-100 -66 -250 -66q-161 1 -325 91zM379 1427h121l143 -251l250 251h121l-330 -352h-123z" />
<glyph unicode="&#x162;" horiz-adv-x="1394" d="M344 1276l29 133h1245l-29 -133h-274q-12 0 -36 1t-36 1h-182l-273 -1278h-182l273 1278h-185q-12 0 -37.5 -1t-38.5 -1h-274zM399 -393l226 344h125l-209 -344h-142z" />
<glyph unicode="&#x163;" horiz-adv-x="739" d="M137 -393l225 344h125l-208 -344h-142zM207 791l24 118h179l55 260h141l-55 -260h289l-25 -118h-289l-108 -512q-35 -170 67.5 -170t198.5 67l8 -121q-168 -78 -315 -78q-168 0 -115 267l117 547h-172z" />
<glyph unicode="&#x164;" horiz-adv-x="1394" d="M344 1276l29 133h1245l-29 -133h-274q-12 0 -36 1t-36 1h-182l-273 -1278h-182l273 1278h-185q-12 0 -37.5 -1t-38.5 -1h-274zM756 1782h121l155 -199l242 199h121l-318 -275h-123z" />
<glyph unicode="&#x165;" horiz-adv-x="739" d="M207 791l24 118h179l55 260h141l-55 -260h289l-25 -118h-289l-108 -512q-35 -170 67.5 -170t198.5 67l8 -121q-168 -78 -315 -78q-168 0 -115 267l117 547h-172zM643 985l94 229h-45l33 154h152l-33 -151l-125 -232h-76z" />
<glyph unicode="&#x168;" horiz-adv-x="1409" d="M295 477l201 944h182l-203 -946q-41 -195 36 -300t214 -105q139 0 264 106.5t166 298.5l203 946h160l-201 -944q-47 -221 -228.5 -371.5t-390.5 -150.5q-211 0 -331.5 150.5t-71.5 371.5zM684 1507q27 113 101.5 178.5t152.5 65.5q55 0 119 -51q82 -68 131 -68 q76 0 106 119h125q-27 -113 -101.5 -178.5t-152.5 -65.5q-55 0 -118 52q-82 68 -132 67q-76 0 -106 -119h-125z" />
<glyph unicode="&#x169;" horiz-adv-x="1058" d="M213 223l145 686h160l-143 -678q-16 -76 6 -108.5t123 -32.5q104 0 188 58.5t107 166.5l125 594h159l-192 -909h-154l21 98q-164 -121 -379 -121q-121 0 -156 62.5t-10 183.5zM428 1128q27 113 100.5 178.5t151.5 65.5q57 0 121 -51q82 -68 131 -68q76 0 104 119h125 q-27 -113 -100.5 -178.5t-151.5 -65.5q-53 0 -121 52q-82 68 -131 67q-76 0 -104 -119h-125z" />
<glyph unicode="&#x16a;" horiz-adv-x="1409" d="M295 477l201 944h182l-203 -946q-41 -195 36 -300t214 -105q139 0 264 106.5t166 298.5l203 946h160l-201 -944q-47 -221 -228.5 -371.5t-390.5 -150.5q-211 0 -331.5 150.5t-71.5 371.5zM666 1548l26 131h740l-27 -131h-739z" />
<glyph unicode="&#x16b;" horiz-adv-x="1058" d="M213 223l145 686h160l-143 -678q-16 -76 6 -108.5t123 -32.5q104 0 188 58.5t107 166.5l125 594h159l-192 -909h-154l21 98q-164 -121 -379 -121q-121 0 -156 62.5t-10 183.5zM412 1186l28 131h740l-29 -131h-739z" />
<glyph unicode="&#x16c;" horiz-adv-x="1409" d="M295 477l201 944h182l-203 -946q-41 -195 36 -300t214 -105q139 0 264 106.5t166 298.5l203 946h160l-201 -944q-47 -221 -228.5 -371.5t-390.5 -150.5q-211 0 -331.5 150.5t-71.5 371.5zM762 1892h125q-18 -104 36 -165.5t138 -61.5q82 0 162 60.5t104 166.5h125 q-37 -158 -161 -261t-263 -103q-137 0 -217 102t-49 262z" />
<glyph unicode="&#x16d;" horiz-adv-x="1058" d="M213 223l145 686h160l-143 -678q-16 -76 6 -108.5t123 -32.5q104 0 188 58.5t107 166.5l125 594h159l-192 -909h-154l21 98q-164 -121 -379 -121q-121 0 -156 62.5t-10 183.5zM489 1434h125q-20 -104 34 -166t138 -62q82 0 162 60.5t107 167.5h125q-37 -158 -161 -261.5 t-263 -103.5q-137 0 -217.5 102.5t-49.5 262.5z" />
<glyph unicode="&#x16e;" horiz-adv-x="1409" d="M295 477l201 944h182l-203 -946q-41 -195 36 -300t214 -105q139 0 264 106.5t166 298.5l203 946h160l-201 -944q-47 -221 -228.5 -371.5t-390.5 -150.5q-211 0 -331.5 150.5t-71.5 371.5zM813 1595q16 68 92 119t172.5 51t150.5 -50t40 -124q-14 -68 -90 -119t-174 -51 q-96 0 -150.5 50t-40.5 124zM938 1593q-8 -35 13.5 -53t38 -20t34.5 -2q102 0 119 75q8 35 -13.5 53.5t-38 20.5t-34.5 2q-103 0 -119 -76z" />
<glyph unicode="&#x16f;" horiz-adv-x="1058" d="M213 223l145 686h160l-143 -678q-16 -76 6 -108.5t123 -32.5q104 0 188 58.5t107 166.5l125 594h159l-192 -909h-154l21 98q-164 -121 -379 -121q-121 0 -156 62.5t-10 183.5zM563 1233q14 68 90 119t174 51q96 0 150.5 -50t40.5 -124q-16 -68 -92 -119t-172.5 -51 t-150.5 50t-40 124zM688 1231q-8 -35 13.5 -53.5t38 -20.5t34.5 -2q102 0 119 76q8 35 -13.5 53.5t-38 20.5t-34.5 2q-103 0 -119 -76z" />
<glyph unicode="&#x170;" horiz-adv-x="1409" d="M295 477l201 944h182l-203 -946q-41 -195 36 -300t214 -105q139 0 264 106.5t166 298.5l203 946h160l-201 -944q-47 -221 -228.5 -371.5t-390.5 -150.5q-211 0 -331.5 150.5t-71.5 371.5zM737 1528l203 342h160l-238 -342h-125zM1079 1528l203 342h160l-238 -342h-125z " />
<glyph unicode="&#x171;" horiz-adv-x="1058" d="M213 223l145 686h160l-143 -678q-16 -76 6 -108.5t123 -32.5q104 0 188 58.5t107 166.5l125 594h159l-192 -909h-154l21 98q-164 -121 -379 -121q-121 0 -156 62.5t-10 183.5zM467 1079l203 342h159l-237 -342h-125zM809 1079l203 342h159l-237 -342h-125z" />
<glyph unicode="&#x172;" horiz-adv-x="1409" d="M295 477l201 944h182l-203 -946q-41 -195 36 -300t214 -105q139 0 264 106.5t166 298.5l203 946h160l-201 -944q-43 -197 -194.5 -341t-340.5 -175q-137 -82 -155 -174q-6 -43 17.5 -58.5t74.5 -19.5q59 -2 143 29l2 -121q-119 -51 -211 -51q-96 0 -138 51t-28 123 q20 119 164 217q-193 18 -297 165.5t-59 354.5z" />
<glyph unicode="&#x173;" horiz-adv-x="1058" d="M213 223l145 686h160l-143 -678q-16 -76 6 -108.5t123 -32.5q104 0 188 58.5t107 166.5l125 594h159l-192 -909q-205 -102 -225 -213q-6 -43 17.5 -58.5t74.5 -19.5q59 -2 143 29l2 -121q-119 -51 -211 -51q-96 0 -138 51t-28 123q12 76 78 145.5t156 114.5h-23l21 98 q-164 -121 -379 -121q-121 0 -156 62.5t-10 183.5z" />
<glyph unicode="&#x174;" horiz-adv-x="1933" d="M332 1421h176l43 -577l22 -342q10 -315 7 -350h2q33 109 290 630l322 639h166l51 -698q37 -467 25 -576h2q37 115 297 631l323 643h148l-719 -1421h-178l-62 821q-25 330 -16 451h-2q-29 -88 -262 -561l-357 -711h-166zM967 1507l317 275h123l199 -275h-121l-156 199 l-242 -199h-120z" />
<glyph unicode="&#x175;" horiz-adv-x="1398" d="M221 909h156l33 -354q27 -352 16 -442h2q35 115 186 411l199 385h143l41 -436q25 -279 17 -362h2q25 68 172 364l223 434h150l-474 -909h-180l-41 508q-16 184 -6 287h-2q-27 -98 -170 -373l-217 -422h-162zM612 1075l330 352h123l182 -352h-121l-143 252l-250 -252h-121 z" />
<glyph unicode="&#x176;" horiz-adv-x="1366" d="M309 1421h215l279 -594q2 -2 49 -116l166 194l45 53l418 463h180l-770 -854l-121 -567h-176l121 569zM682 1507l317 275h123l199 -275h-121l-156 199l-241 -199h-121z" />
<glyph unicode="&#x177;" horiz-adv-x="944" d="M2 -403l16 133q74 -33 154 -33q20 0 32.5 4t42 31.5t66.5 83.5l113 184l-205 909h162l57 -256q86 -391 70 -536h2q37 141 440 792h154l-678 -1095q-88 -141 -152.5 -187.5t-130.5 -46.5q-73 1 -143 17zM385 1075l330 352h123l182 -352h-121l-143 252l-250 -252h-121z" />
<glyph unicode="&#x178;" horiz-adv-x="1366" d="M309 1421h215l279 -594q2 -2 49 -116l166 194l45 53l418 463h180l-770 -854l-121 -567h-176l121 569zM741 1507l35 164h164l-35 -164h-164zM1098 1507l35 164h163l-34 -164h-164z" />
<glyph unicode="&#x179;" horiz-adv-x="1251" d="M115 0l18 88l1047 1208h-279q-12 0 -37.5 -1t-38.5 -1h-409l28 127h994l-19 -84l-1044 -1206h65l539 4h197l-29 -135h-1032zM756 1528l411 250h228l-457 -250h-182z" />
<glyph unicode="&#x17a;" horiz-adv-x="890" d="M57 0l19 84l696 707h-160q-12 0 -36.5 -1.5t-36.5 -1.5h-285l25 121h733l-17 -80l-694 -704h174q12 0 37 1t37 1h301l-27 -127h-766zM530 1079l347 342h159l-381 -342h-125z" />
<glyph unicode="&#x17b;" horiz-adv-x="1251" d="M115 0l18 88l1047 1208h-279q-12 0 -37.5 -1t-38.5 -1h-409l28 127h994l-19 -84l-1044 -1206h65l539 4h197l-29 -135h-1032zM854 1507l39 183h182l-39 -183h-182z" />
<glyph unicode="&#x17c;" horiz-adv-x="890" d="M57 0l19 84l696 707h-160q-12 0 -36.5 -1.5t-36.5 -1.5h-285l25 121h733l-17 -80l-694 -704h174q12 0 37 1t37 1h301l-27 -127h-766zM598 1159l39 182h182l-39 -182h-182z" />
<glyph unicode="&#x17d;" horiz-adv-x="1251" d="M115 0l18 88l1047 1208h-279q-12 0 -37.5 -1t-38.5 -1h-409l28 127h994l-19 -84l-1044 -1206h65l539 4h197l-29 -135h-1032zM686 1782h121l156 -199l241 199h121l-317 -275h-123z" />
<glyph unicode="&#x17e;" horiz-adv-x="890" d="M57 0l19 84l696 707h-160q-12 0 -36.5 -1.5t-36.5 -1.5h-285l25 121h733l-17 -80l-694 -704h174q12 0 37 1t37 1h301l-27 -127h-766zM430 1427h121l143 -251l250 251h121l-330 -352h-123z" />
<glyph unicode="&#x17f;" horiz-adv-x="585" d="M166 0l233 1094q33 152 151 251t263 99q70 0 160 -23l-31 -137q-72 35 -158 35q-39 0 -75.5 -8t-82.5 -48t-61 -110l-246 -1153h-153z" />
<glyph unicode="&#x18e;" horiz-adv-x="1222" d="M193 0l30 145h258q12 0 37 -1t37 -1h428l113 531h-676l26 125h676l103 485h-283q-12 0 -36.5 -1t-37.5 -1h-374l28 133h914l-301 -1415h-942z" />
<glyph unicode="&#x192;" horiz-adv-x="626" d="M207 0l168 791h-152l25 118h151l41 185q33 152 151 251t263 99q70 0 160 -23l-31 -137q-72 35 -158 35q-27 0 -54.5 -5t-65 -20.5t-66.5 -51.5t-39 -89l-53 -244h231l-24 -118h-226l-168 -791h-153z" />
<glyph unicode="&#x1a0;" horiz-adv-x="1507" d="M262 705q70 317 303 538q233 223 498 223q170 0 299 -102l76 57h-45l-4 2l34 168l4 2h166l2 -2l-34 -168l-2 -2l-152 -100q35 -35 59 -78q143 -221 74 -538q-66 -307 -301 -531q-233 -219 -498 -219q-129 0 -234.5 58.5t-168.5 160.5q-142 218 -76 531zM453 739 q-59 -274 32 -463q41 -86 115 -137t170 -51q193 0 367 188q170 188 229 463q51 254 -41 424q-43 80 -119 127t-170 47q-195 0 -362 -174q-170 -174 -221 -424z" />
<glyph unicode="&#x1a1;" d="M158 449q43 207 204 350q162 145 349 145q143 0 241 -94l80 59h-45v2l35 168l2 2h166l2 -2l-35 -168l-164 -108l4 -4q100 -143 58 -350q-41 -193 -203 -334q-164 -137 -346 -138q-184 0 -289 138q-102 139 -59 334zM322 473q-35 -160 24 -262q55 -102 186 -102 q133 0 232 102q98 96 135 262q33 156 -27 248q-59 98 -188 98q-131 0 -229 -98q-102 -96 -133 -248z" />
<glyph unicode="&#x1af;" horiz-adv-x="1406" d="M293 473l203 948h182l-203 -948q-39 -178 29 -291q70 -115 217 -114q150 0 274 114q121 117 158 291l203 948h157l-14 -65l94 65h-45l-2 2l35 168l2 2h166l2 -2l-35 -168v-2l-235 -147l-170 -801q-45 -215 -226 -367q-178 -152 -389 -151.5t-329 151.5q-119 150 -74 367z " />
<glyph unicode="&#x1b0;" horiz-adv-x="1114" d="M211 225l145 684h160l-145 -684q-16 -78 12 -106q33 -29 133 -29q96 0 178 61.5t101 147.5l129 610h159l-12 -65l92 65h-47v2l35 168l2 2h168l2 -2l-35 -168l-235 -149l-162 -762h-154l21 98q-156 -121 -385 -121q-113 0 -150 60q-39 63 -12 188z" />
<glyph unicode="&#x1cd;" horiz-adv-x="1366" d="M57 0l838 1421h180l232 -1421h-189l-67 418h-596l-246 -418h-152zM522 532h508l-74 527q-23 172 -20 215h-2q-23 -57 -199 -371q-84 -145 -106.5 -184.5t-106.5 -186.5zM741 1782h121l156 -199l242 199h120l-317 -275h-123z" />
<glyph unicode="&#x1ce;" horiz-adv-x="985" d="M156 155q-6 44 4 76q29 129 204 198t420 73l19 88q25 109 -14 171t-115 62q-164 0 -330 -102l16 135q172 88 340 88q143 0 219 -99.5t44 -252.5l-125 -592h-154l16 74q-145 -96 -360 -97q-63 0 -106.5 28t-57.5 67t-20 83zM307 236q-12 -61 37 -97.5t127 -36.5 q96 0 168 39q78 39 96 129l27 127q-424 -20 -455 -161zM477 1427h121l143 -251l250 251h121l-330 -352h-123z" />
<glyph unicode="&#x1cf;" horiz-adv-x="569" d="M193 0l303 1421h182l-303 -1421h-182zM344 1782h121l156 -199l241 199h121l-317 -275h-123z" />
<glyph unicode="&#x1d0;" horiz-adv-x="489" d="M166 0l192 909h154l-193 -909h-153zM229 1427h121l144 -251l249 251h121l-329 -352h-123z" />
<glyph unicode="&#x1d1;" horiz-adv-x="1507" d="M264 707q70 317 304.5 538t496.5 221q258 0 400.5 -221t74.5 -538q-66 -317 -302.5 -534.5t-496.5 -217.5q-256 0 -400.5 216.5t-76.5 535.5zM455 737q-61 -287 34 -468t283 -181q184 0 358.5 180.5t235.5 468.5q57 266 -43 432t-287 166q-182 0 -354 -165t-227 -433z M813 1782h121l156 -199l241 199h121l-317 -275h-123z" />
<glyph unicode="&#x1d2;" d="M158 451q43 203 204.5 348t350.5 145q184 0 285.5 -144.5t58.5 -348.5q-43 -199 -204 -336.5t-347 -137.5q-182 0 -286.5 136.5t-61.5 337.5zM322 471q-37 -174 28.5 -268t181.5 -94q121 0 226.5 95t142.5 267q37 170 -30.5 259t-186.5 89q-115 0 -220 -88t-142 -260z M498 1427h120l144 -251l250 251h121l-330 -352h-123z" />
<glyph unicode="&#x1d3;" horiz-adv-x="1409" d="M295 477l201 944h182l-203 -946q-41 -195 36 -300t214 -105q139 0 264 106.5t166 298.5l203 946h160l-201 -944q-47 -221 -228.5 -371.5t-390.5 -150.5q-211 0 -331.5 150.5t-71.5 371.5zM764 1782h121l155 -199l242 199h121l-318 -275h-122z" />
<glyph unicode="&#x1d4;" horiz-adv-x="1058" d="M213 223l145 686h160l-143 -678q-16 -76 6 -108.5t123 -32.5q104 0 188 58.5t107 166.5l125 594h159l-192 -909h-154l21 98q-164 -121 -379 -121q-121 0 -156 62.5t-10 183.5zM514 1427h121l143 -251l250 251h121l-330 -352h-123z" />
<glyph unicode="&#x1d7;" horiz-adv-x="1409" d="M295 477l201 944h182l-203 -946q-41 -195 36 -300t214 -105q139 0 264 106.5t166 298.5l203 946h160l-201 -944q-47 -221 -228.5 -371.5t-390.5 -150.5q-211 0 -331.5 150.5t-71.5 371.5zM764 1507l35 164h164l-35 -164h-164zM887 1778l411 250h228l-457 -250h-182z M1120 1507l35 164h164l-35 -164h-164z" />
<glyph unicode="&#x1d8;" horiz-adv-x="1058" d="M213 223l145 686h160l-143 -678q-16 -76 6 -108.5t123 -32.5q104 0 188 58.5t107 166.5l125 594h159l-192 -909h-154l21 98q-164 -121 -379 -121q-121 0 -156 62.5t-10 183.5zM545 1169l35 164h163l-34 -164h-164zM641 1448l412 250h227l-457 -250h-182zM844 1169l35 164 h163l-34 -164h-164z" />
<glyph unicode="&#x1d9;" horiz-adv-x="1409" d="M295 477l201 944h182l-203 -946q-41 -195 36 -300t214 -105q139 0 264 106.5t166 298.5l203 946h160l-201 -944q-47 -221 -228.5 -371.5t-390.5 -150.5q-211 0 -331.5 150.5t-71.5 371.5zM764 1507l35 164h164l-35 -164h-164zM817 2032h121l156 -199l241 199h121 l-317 -275h-123zM1120 1507l35 164h164l-35 -164h-164z" />
<glyph unicode="&#x1da;" horiz-adv-x="1058" d="M213 223l145 686h160l-143 -678q-16 -76 6 -108.5t123 -32.5q104 0 188 58.5t107 166.5l125 594h159l-192 -909h-154l21 98q-164 -121 -379 -121q-121 0 -156 62.5t-10 183.5zM545 1169l35 164h163l-34 -164h-164zM571 1702h121l156 -199l242 199h120l-317 -275h-123z M844 1169l35 164h163l-34 -164h-164z" />
<glyph unicode="&#x1db;" horiz-adv-x="1409" d="M295 477l201 944h182l-203 -946q-41 -195 36 -300t214 -105q139 0 264 106.5t166 298.5l203 946h160l-201 -944q-47 -221 -228.5 -371.5t-390.5 -150.5q-211 0 -331.5 150.5t-71.5 371.5zM743 2028h228l305 -250h-182zM764 1507l35 164h164l-35 -164h-164zM1120 1507 l35 164h164l-35 -164h-164z" />
<glyph unicode="&#x1dc;" horiz-adv-x="1058" d="M213 223l145 686h160l-143 -678q-16 -76 6 -108.5t123 -32.5q104 0 188 58.5t107 166.5l125 594h159l-192 -909h-154l21 98q-164 -121 -379 -121q-121 0 -156 62.5t-10 183.5zM498 1698h227l305 -250h-182zM545 1169l35 164h163l-34 -164h-164zM844 1169l35 164h163 l-34 -164h-164z" />
<glyph unicode="&#x1dd;" horiz-adv-x="909" d="M172 473h633q27 150 -39 248t-188 98q-172 0 -336 -114l16 133q172 106 348 106q184 0 283.5 -141t56.5 -344q-43 -199 -193.5 -340.5t-320.5 -141.5q-184 0 -252 150q-53 125 -8 346zM264 360q-8 -131 48.5 -194.5t146.5 -63.5q88 0 175 72t136 186h-506z" />
<glyph unicode="&#x1e6;" horiz-adv-x="1366" d="M286.5 711q65.5 303 303.5 520q242 215 512 215q117 0 209 -23q100 -29 182 -80l-66 -167q-74 76 -157 106q-80 33 -197 33q-195 0 -375 -176q-176 -180 -229 -428t49 -426q104 -176 299 -176q141 0 281 43l71 337h-270l27 125h430l-115 -536q-225 -100 -450 -101 q-131 0 -242 57.5t-180 158.5q-148 215 -82.5 518zM741 1782h121l156 -199l242 199h120l-317 -275h-123z" />
<glyph unicode="&#x1e7;" d="M27 -145q10 51 52 109.5t124 101.5q-41 66 -21 155q18 90 97 174q-49 90 -25 203q29 139 146.5 236.5t250.5 97.5q115 0 180 -66q166 66 338 66l-6 -129q-82 6 -119 6q-25 0 -78 -4t-75 -4l-8 2q49 -90 24 -205q-29 -137 -145.5 -235.5t-253.5 -98.5q-104 0 -172 60 q-31 -31 -39 -74q-23 -109 96 -109h180q57 0 103.5 -6t126.5 -28.5t115.5 -87t15.5 -162.5q-25 -117 -174.5 -198t-339.5 -81q-188 0 -303 81t-90 196zM170 -143v-2q-14 -70 66.5 -115t209.5 -45q127 0 228.5 45t116.5 113q10 49 -18 80.5t-82 43t-83.5 14.5t-64.5 3h-185 q-53 0 -92 -18.5t-57.5 -45t-27.5 -44t-11 -29.5zM397.5 598q-24.5 -115 20.5 -166t117 -51q76 0 140 53t88.5 164t-18.5 164t-118 53q-70 0 -137.5 -51t-92 -166zM426 1427h121l143 -251l250 251h121l-330 -352h-123z" />
<glyph unicode="&#x1ea;" horiz-adv-x="1507" d="M264 707q70 317 304.5 538t496.5 221q258 0 400.5 -221t74.5 -538q-59 -287 -261 -495t-439 -249q-141 -84 -158 -176q-6 -43 17.5 -58.5t74.5 -19.5q59 -2 144 29l2 -121q-119 -51 -211 -51q-96 0 -138.5 51t-27.5 123q18 117 159 217q-242 18 -373 231.5t-65 518.5z M455 737q-61 -287 34 -468t283 -181q184 0 358.5 180.5t235.5 468.5q57 266 -43 432t-287 166q-182 0 -354 -165t-227 -433z" />
<glyph unicode="&#x1eb;" d="M158 451q43 203 204.5 348t350.5 145q184 0 285.5 -144.5t58.5 -348.5q-35 -164 -155 -289t-273 -168q-193 -98 -213 -207q-6 -43 17.5 -58.5t74.5 -19.5q59 -2 143 29l2 -121q-119 -51 -211 -51q-96 0 -138 51t-28 123q10 66 63.5 129t131.5 111q-170 14 -262 147.5 t-51 323.5zM322 471q-37 -174 28.5 -268t181.5 -94q121 0 226.5 95t142.5 267q37 170 -30.5 259t-186.5 89q-115 0 -220 -88t-142 -260z" />
<glyph unicode="&#x1f0;" horiz-adv-x="546" d="M-199 -350l70 125q51 -63 137 -64q20 0 42 4t52.5 17.5t55 46.5t35.5 80l223 1050h153l-219 -1030q-29 -137 -123 -218t-196 -81q-126 0 -230 70zM272 1427h121l144 -251l249 251h121l-329 -352h-123z" />
<glyph unicode="&#x1f4;" horiz-adv-x="1366" d="M286.5 711q65.5 303 303.5 520q242 215 512 215q117 0 209 -23q100 -29 182 -80l-66 -167q-74 76 -157 106q-80 33 -197 33q-195 0 -375 -176q-176 -180 -229 -428t49 -426q104 -176 299 -176q141 0 281 43l71 337h-270l27 125h430l-115 -536q-225 -100 -450 -101 q-131 0 -242 57.5t-180 158.5q-148 215 -82.5 518zM811 1528l412 250h227l-457 -250h-182z" />
<glyph unicode="&#x1f5;" d="M27 -145q10 51 52 109.5t124 101.5q-41 66 -21 155q18 90 97 174q-49 90 -25 203q29 139 146.5 236.5t250.5 97.5q115 0 180 -66q166 66 338 66l-6 -129q-82 6 -119 6q-25 0 -78 -4t-75 -4l-8 2q49 -90 24 -205q-29 -137 -145.5 -235.5t-253.5 -98.5q-104 0 -172 60 q-31 -31 -39 -74q-23 -109 96 -109h180q57 0 103.5 -6t126.5 -28.5t115.5 -87t15.5 -162.5q-25 -117 -174.5 -198t-339.5 -81q-188 0 -303 81t-90 196zM170 -143v-2q-14 -70 66.5 -115t209.5 -45q127 0 228.5 45t116.5 113q10 49 -18 80.5t-82 43t-83.5 14.5t-64.5 3h-185 q-53 0 -92 -18.5t-57.5 -45t-27.5 -44t-11 -29.5zM397.5 598q-24.5 -115 20.5 -166t117 -51q76 0 140 53t88.5 164t-18.5 164t-118 53q-70 0 -137.5 -51t-92 -166zM526 1079l346 342h160l-381 -342h-125z" />
<glyph unicode="&#x1fa;" horiz-adv-x="1366" d="M57 0l838 1421h180l232 -1421h-189l-67 418h-596l-246 -418h-152zM522 532h508l-74 527q-23 172 -20 215h-2q-23 -57 -199 -371q-84 -145 -106.5 -184.5t-106.5 -186.5zM780 1837l410 250h227l-454 -250h-183zM793 1595q16 68 92 119t172 51t150.5 -50t39.5 -124 q-14 -68 -90 -119t-174 -51q-96 0 -150 50t-40 124zM918 1593q-8 -35 13 -53t37.5 -20t35.5 -2q102 0 118 75q8 35 -13.5 53.5t-37.5 20.5t-35 2q-102 0 -118 -76z" />
<glyph unicode="&#x1fb;" horiz-adv-x="985" d="M156 155q-6 44 4 76q29 129 204 198t420 73l19 88q25 109 -14 171t-115 62q-164 0 -330 -102l16 135q172 88 340 88q143 0 219 -99.5t44 -252.5l-125 -592h-154l16 74q-145 -96 -360 -97q-63 0 -106.5 28t-57.5 67t-20 83zM307 236q-12 -61 37 -97.5t127 -36.5 q96 0 168 39q78 39 96 129l27 127q-424 -20 -455 -161zM512 1475l412 249h227l-457 -249h-182zM526 1233q14 68 90 119t175 51q96 0 150 -50t40 -124q-16 -68 -92 -119t-172 -51t-150.5 50t-40.5 124zM651 1231q-8 -35 13.5 -53.5t38 -20.5t34.5 -2q102 0 119 76 q8 35 -13.5 53.5t-38 20.5t-34.5 2q-103 0 -119 -76z" />
<glyph unicode="&#x1fc;" horiz-adv-x="1763" d="M57 0l885 1421h1008l-29 -133h-313q-12 0 -37 1t-37 1h-221l-105 -489h553l-26 -125h-553l-113 -533h348q12 0 37 1t37 1h215l-31 -145h-817l96 455h-460l-283 -455h-154zM565 569h414l154 721h-119zM1012 1528l411 250h228l-457 -250h-182z" />
<glyph unicode="&#x1fd;" horiz-adv-x="1478" d="M140 165q-5 44 5 68q53 244 623 273l16 84q23 111 -16 172t-113 61q-166 0 -331 -102l16 135q172 88 340 88q88 0 156.5 -42t99.5 -116q162 158 344 158q70 0 121 -24.5t77.5 -59.5t41 -89t17.5 -96t-2 -98.5t-9 -76.5l-10 -51h-601q-27 -158 40 -252.5t182 -94.5 q158 0 307 115l-17 -133q-154 -106 -319 -107q-199 0 -301 158q-45 -53 -118 -88t-152.5 -48t-125.5 -17.5t-85 -4.5q-70 0 -114 31t-55.5 72t-16.5 85zM293 236q-10 -57 35 -95.5t127 -38.5q27 0 53.5 3.5t78.5 15.5t89 48t49 91q4 16 20 131q-70 0 -151.5 -8t-184 -46 t-116.5 -101zM825 1079l346 342h160l-381 -342h-125zM948 561h469q6 80 -8 135.5t-43 80t-55.5 33.5t-55.5 9q-84 0 -170 -70.5t-137 -187.5z" />
<glyph unicode="&#x1fe;" horiz-adv-x="1593" d="M256 -68l143 185q-209 227 -135 590q68 315 315.5 537t528.5 222q152 0 295 -84l135 172l100 -65l-147 -184q86 -86 132 -243t3 -355q-68 -315 -314.5 -533.5t-527.5 -218.5q-160 0 -295 84l-135 -172zM438 707q-59 -287 60 -467l815 1028q-109 74 -234 73 q-205 0 -392.5 -171.5t-248.5 -462.5zM582 152q104 -72 231 -72q205 0 391.5 168t247.5 459q63 295 -59 473zM926 1528l411 250h228l-457 -250h-182z" />
<glyph unicode="&#x1ff;" d="M53 -168l195 252q-131 158 -86 367q43 203 204.5 348t346.5 145q90 0 172 -41l182 238l96 -62l-192 -248q131 -147 82 -380q-43 -199 -204 -336.5t-343 -137.5q-90 0 -168 39l-191 -245zM315 451q-35 -145 23 -248l459 590q-47 27 -111 26q-123 0 -228.5 -97t-142.5 -271 zM424 125q43 -23 108 -23q121 0 225.5 90.5t141.5 258.5q33 160 -20 260zM598 1079l346 342h160l-381 -342h-125z" />
<glyph unicode="&#x200;" horiz-adv-x="1366" d="M57 0l838 1421h180l232 -1421h-189l-67 418h-596l-246 -418h-152zM522 532h508l-74 527q-23 172 -20 215h-2q-23 -57 -199 -371q-84 -145 -106.5 -184.5t-106.5 -186.5zM684 1870h160l55 -342h-125zM1026 1870h160l55 -342h-125z" />
<glyph unicode="&#x201;" horiz-adv-x="985" d="M156 155q-6 44 4 76q29 129 204 198t420 73l19 88q25 109 -14 171t-115 62q-164 0 -330 -102l16 135q172 88 340 88q143 0 219 -99.5t44 -252.5l-125 -592h-154l16 74q-145 -96 -360 -97q-63 0 -106.5 28t-57.5 67t-20 83zM307 236q-12 -61 37 -97.5t127 -36.5 q96 0 168 39q78 39 96 129l27 127q-424 -20 -455 -161zM455 1421h159l56 -342h-125zM797 1421h159l56 -342h-125z" />
<glyph unicode="&#x204;" horiz-adv-x="1222" d="M193 0l301 1415h913l-29 -133h-374q-12 0 -37 1t-37 1h-283l-102 -485h676l-27 -125h-676l-112 -531h428q12 0 36.5 1t36.5 1h258l-30 -145h-942zM670 1870h159l56 -342h-125zM1012 1870h159l56 -342h-125z" />
<glyph unicode="&#x205;" horiz-adv-x="909" d="M170 463q41 199 192.5 340t321.5 141q184 0 250 -149q55 -125 10 -346h-633q-27 -150 39 -248.5t189 -98.5q170 0 335 115l-16 -133q-172 -106 -348 -107q-184 0 -283.5 141.5t-56.5 344.5zM344 561h506q10 131 -46 194.5t-147 63.5q-88 0 -176 -71.5t-137 -186.5z M418 1421h160l55 -342h-125zM760 1421h160l55 -342h-125z" />
<glyph unicode="&#x208;" horiz-adv-x="569" d="M193 0l303 1421h182l-303 -1421h-182zM342 1870h160l55 -342h-125zM684 1870h160l55 -342h-125z" />
<glyph unicode="&#x209;" horiz-adv-x="489" d="M166 0l192 909h154l-193 -909h-153zM207 1421h160l55 -342h-125zM549 1421h160l55 -342h-125z" />
<glyph unicode="&#x20c;" horiz-adv-x="1507" d="M264 707q70 317 304.5 538t496.5 221q258 0 400.5 -221t74.5 -538q-66 -317 -302.5 -534.5t-496.5 -217.5q-256 0 -400.5 216.5t-76.5 535.5zM455 737q-61 -287 34 -468t283 -181q184 0 358.5 180.5t235.5 468.5q57 266 -43 432t-287 166q-182 0 -354 -165t-227 -433z M811 1870h160l55 -342h-125zM1153 1870h160l55 -342h-125z" />
<glyph unicode="&#x20d;" d="M158 451q43 203 204.5 348t350.5 145q184 0 285.5 -144.5t58.5 -348.5q-43 -199 -204 -336.5t-347 -137.5q-182 0 -286.5 136.5t-61.5 337.5zM322 471q-37 -174 28.5 -268t181.5 -94q121 0 226.5 95t142.5 267q37 170 -30.5 259t-186.5 89q-115 0 -220 -88t-142 -260z M475 1421h160l55 -342h-125zM817 1421h160l55 -342h-125z" />
<glyph unicode="&#x210;" horiz-adv-x="1323" d="M197 0l303 1421h493q217 0 342 -113.5t92 -267.5q-27 -125 -142.5 -225t-285.5 -147l265 -668h-183l-247 649h-324l-137 -649h-176zM537 774h294q174 0 290 76t141 190q25 113 -59.5 190t-256.5 77h-295zM662 1870h159l56 -342h-125zM1004 1870h159l56 -342h-125z" />
<glyph unicode="&#x211;" horiz-adv-x="700" d="M168 0l197 922h143l-41 -187q172 195 401 197l-30 -137q-152 -4 -272 -103.5t-152 -253.5l-92 -438h-154zM313 1421h160l55 -342h-125zM655 1421h160l55 -342h-125z" />
<glyph unicode="&#x214;" horiz-adv-x="1409" d="M295 477l201 944h182l-203 -946q-41 -195 36 -300t214 -105q139 0 264 106.5t166 298.5l203 946h160l-201 -944q-47 -221 -228.5 -371.5t-390.5 -150.5q-211 0 -331.5 150.5t-71.5 371.5zM762 1870h160l55 -342h-125zM1104 1870h160l55 -342h-125z" />
<glyph unicode="&#x215;" horiz-adv-x="1058" d="M213 223l145 686h160l-143 -678q-16 -76 6 -108.5t123 -32.5q104 0 188 58.5t107 166.5l125 594h159l-192 -909h-154l21 98q-164 -121 -379 -121q-121 0 -156 62.5t-10 183.5zM492 1421h159l56 -342h-125zM834 1421h159l56 -342h-125z" />
<glyph unicode="&#x218;" horiz-adv-x="1138" d="M111 96l65 166q162 -166 406 -166q133 0 233 82t123 189q25 117 -45 190q-35 37 -70 52.5t-161 47.5q-102 27 -161 54.5t-106 91.5q-86 117 -55 260q35 160 189.5 281.5t359.5 121.5t354 -102l-65 -164q-131 131 -320 131q-135 0 -232.5 -73.5t-117.5 -170.5 q-20 -104 37 -161q37 -37 69.5 -52.5t124.5 -37.5q147 -39 206 -68t110 -100q84 -119 49 -281q-37 -174 -194.5 -303t-356.5 -129q-247 0 -442 141zM377 -545l94 230h-45l33 153h151l-32 -151l-125 -232h-76z" />
<glyph unicode="&#x219;" horiz-adv-x="784" d="M72 68l53 139q133 -100 297 -101q193 0 223 142q8 39 -4 66.5t-43 43t-54.5 22.5t-60.5 15q-68 14 -93 20.5t-55 20t-56 35.5q-92 84 -68 205q14 63 45 112.5t74 77t82 45t85 23.5t66.5 8t44.5 2q152 0 281 -65l-53 -134q-113 78 -275 78q-174 0 -201 -127 q-8 -37 2.5 -61.5t41 -39.5t56 -23.5t77.5 -18.5q84 -16 128 -34.5t89 -67.5l8 -13q6 -10 13 -24.5t14.5 -39t8.5 -51t-5 -61.5q-31 -145 -146 -219q-100 -66 -250 -66q-161 1 -325 91zM201 -545l94 230h-45l33 153h151l-33 -151l-125 -232h-75z" />
<glyph unicode="&#x21a;" horiz-adv-x="1394" d="M344 1276l29 133h1245l-29 -133h-274q-12 0 -36 1t-36 1h-182l-273 -1278h-182l273 1278h-185q-12 0 -37.5 -1t-38.5 -1h-274zM504 -545l94 230h-45l33 153h151l-32 -151l-125 -232h-76z" />
<glyph unicode="&#x21b;" horiz-adv-x="739" d="M178 -545l94 230h-45l33 153h152l-33 -151l-125 -232h-76zM207 791l24 118h179l55 260h141l-55 -260h289l-25 -118h-289l-108 -512q-35 -170 67.5 -170t198.5 67l8 -121q-168 -78 -315 -78q-168 0 -115 267l117 547h-172z" />
<glyph unicode="&#x237;" horiz-adv-x="546" d="M-199 -350l70 125q51 -63 137 -64q20 0 42 4t52.5 17.5t55 46.5t35.5 80l223 1050h153l-219 -1030q-29 -137 -123 -218t-196 -81q-126 0 -230 70z" />
<glyph unicode="&#x258;" horiz-adv-x="909" d="M98 84l41 133q113 -115 287 -115q123 0 230.5 98.5t144.5 248.5h-633q45 219 154 346q133 150 315 149q170 0 260 -141t49 -340q-43 -203 -201.5 -344.5t-343.5 -141.5q-178 1 -303 107zM307 561h506q0 115 -57.5 186.5t-145.5 71.5q-90 0 -173 -63.5t-130 -194.5z" />
<glyph unicode="&#x259;" horiz-adv-x="909" d="M172 473h633q27 150 -39 248t-188 98q-172 0 -336 -114l16 133q172 106 348 106q184 0 283.5 -141t56.5 -344q-43 -199 -193.5 -340.5t-320.5 -141.5q-184 0 -252 150q-53 125 -8 346zM264 360q-8 -131 48.5 -194.5t146.5 -63.5q88 0 175 72t136 186h-506z" />
<glyph unicode="&#x2be;" horiz-adv-x="813" d="M264 662v6l39 94q2 8 10 8q6 0 9 -2q78 -61 186 -61q102 0 166.5 73.5t87.5 171.5q23 102 -16 169t-125 67q-123 0 -240 -78q-2 -2 -6 -2q-8 0 -13 14l13 99q0 4 6 8q129 78 262 78q141 0 214 -106.5t42 -252.5q-29 -143 -143.5 -251.5t-266.5 -108.5q-123 0 -219 63 q-6 7 -6 11z" />
<glyph unicode="&#x2bf;" horiz-adv-x="813" d="M315 946q31 143 147 252t265 109q121 0 219 -64q2 -2 6 -10l-2 -6l-37 -94q-2 -8 -10 -9q-6 0 -8 2q-82 61 -188 62q-102 0 -167 -75t-85 -171q-23 -102 16 -168.5t123 -66.5q123 0 240 77q4 2 8 2q10 0 10 -14l-10 -98q0 -2 -6 -8q-133 -78 -263 -78q-141 0 -215 106.5 t-43 251.5z" />
<glyph unicode="&#x2c6;" d="M424 1075l330 352h123l182 -352h-121l-143 252l-250 -252h-121z" />
<glyph unicode="&#x2c7;" d="M498 1427h120l144 -251l250 251h121l-330 -352h-123z" />
<glyph unicode="&#x2d8;" d="M473 1434h125q-20 -104 34 -166t138 -62q82 0 162 60.5t106 167.5h125q-37 -158 -160.5 -261.5t-263.5 -103.5q-137 0 -217 102.5t-49 262.5z" />
<glyph unicode="&#x2d9;" horiz-adv-x="569" d="M438 1159l39 182h182l-38 -182h-183z" />
<glyph unicode="&#x2da;" horiz-adv-x="1511" d="M788 1233q14 68 90 119t175 51q96 0 150 -50t40 -124q-16 -68 -92 -119t-172 -51t-150.5 50t-40.5 124zM913 1231q-8 -35 13.5 -53.5t38 -20.5t34.5 -2q102 0 119 76q8 35 -13.5 53.5t-37.5 20.5t-35 2q-103 0 -119 -76z" />
<glyph unicode="&#x2db;" d="M256 -260q12 76 77.5 145.5t155.5 114.5h132q-205 -102 -226 -213q-6 -43 17.5 -58.5t74.5 -19.5q59 -2 144 29l2 -121q-119 -51 -211 -51q-96 0 -138 51t-28 123z" />
<glyph unicode="&#x2dc;" d="M412 1128q27 113 100.5 178.5t151.5 65.5q57 0 120 -51q82 -68 131 -68q76 0 105 119h125q-27 -113 -100.5 -178.5t-151.5 -65.5q-53 0 -121 52q-82 68 -131 67q-76 0 -104 -119h-125z" />
<glyph unicode="&#x2dd;" d="M451 1079l202 342h160l-238 -342h-124zM793 1079l202 342h160l-237 -342h-125z" />
<glyph unicode="&#x300;" horiz-adv-x="0" d="M-477 1421h160l198 -342h-125z" />
<glyph unicode="&#x301;" horiz-adv-x="0" d="M-406 1079l347 342h159l-381 -342h-125z" />
<glyph unicode="&#x302;" horiz-adv-x="0" d="M-580 1075l330 352h123l182 -352h-121l-143 252l-250 -252h-121z" />
<glyph unicode="&#x303;" horiz-adv-x="0" d="M-592 1128q27 113 100.5 178.5t151.5 65.5q57 0 121 -51q82 -68 131 -68q76 0 104 119h125q-27 -113 -100.5 -178.5t-151.5 -65.5q-53 0 -120 52q-82 68 -131 67q-76 0 -105 -119h-125z" />
<glyph unicode="&#x304;" horiz-adv-x="0" d="M-608 1186l28 131h740l-29 -131h-739z" />
<glyph unicode="&#x306;" horiz-adv-x="0" d="M-530 1434h124q-20 -104 34.5 -166t138.5 -62q82 0 161.5 60.5t106.5 167.5h125q-37 -158 -161 -261.5t-263 -103.5q-137 0 -217 102.5t-49 262.5z" />
<glyph unicode="&#x307;" horiz-adv-x="0" d="M-338 1159l39 182h182l-39 -182h-182z" />
<glyph unicode="&#x308;" horiz-adv-x="0" d="M-475 1169l35 164h164l-35 -164h-164zM-176 1169l35 164h164l-35 -164h-164z" />
<glyph unicode="&#x309;" horiz-adv-x="0" d="M-397 1382q88 88 204 88q104 0 148 -40q47 -39 31 -119q-14 -68 -78 -103l-31 -18q-63 -35 -92 -59.5t-35 -59.5l-8 -39l-2 -2h-53l-2 2l8 39q31 137 153 197q31 16 37 43q10 43 -12 61q-25 18 -82 19q-100 0 -170 -91h-2h-2z" />
<glyph unicode="&#x30a;" horiz-adv-x="0" d="M-459 1233q14 68 90 119t174 51q96 0 150.5 -50t40.5 -124q-16 -68 -92 -119t-172.5 -51t-150.5 50t-40 124zM-334 1231q-8 -35 13.5 -53.5t38 -20.5t34.5 -2q102 0 119 76q8 35 -13.5 53.5t-38 20.5t-34.5 2q-103 0 -119 -76z" />
<glyph unicode="&#x30b;" horiz-adv-x="0" d="M-553 1079l203 342h160l-238 -342h-125zM-211 1079l203 342h160l-238 -342h-125z" />
<glyph unicode="&#x30c;" horiz-adv-x="0" d="M-506 1427h121l143 -251l250 251h121l-330 -352h-123z" />
<glyph unicode="&#x30f;" horiz-adv-x="0" d="M-528 1421h159l56 -342h-125zM-186 1421h159l56 -342h-125z" />
<glyph unicode="&#x311;" horiz-adv-x="0" d="M-608 1069q37 158 160.5 261.5t263.5 103.5q137 0 217 -102.5t49 -262.5h-125q18 104 -35 165.5t-137 61.5q-82 0 -162 -60t-106 -167h-125z" />
<glyph unicode="&#x323;" horiz-adv-x="0" d="M-672 -410l39 183h182l-38 -183h-183z" />
<glyph unicode="&#x326;" horiz-adv-x="0" d="M-684 -545l94 230h-45l33 153h151l-32 -151l-125 -232h-76z" />
<glyph unicode="&#x32e;" horiz-adv-x="0" d="M-864 -135h125q-18 -104 35 -165.5t137 -61.5q82 0 161.5 60t106.5 167h125q-37 -158 -161 -261.5t-263 -103.5q-137 0 -217 102.5t-49 262.5z" />
<glyph unicode="&#x32f;" horiz-adv-x="0" d="M-942 -500q37 158 161 261.5t263 103.5q137 0 217 -102.5t49 -262.5h-125q18 104 -35 166t-137 62q-82 0 -162 -60.5t-106 -167.5h-125z" />
<glyph unicode="&#x330;" horiz-adv-x="0" d="M-924 -438q27 113 100.5 178t151.5 65q55 0 119 -51q82 -68 131 -67q78 0 107 118h125q-27 -113 -101 -178t-151 -65q-57 0 -121 51q-82 68 -131 68q-76 0 -105 -119h-125z" />
<glyph unicode="&#x331;" horiz-adv-x="0" d="M-942 -383l29 131h739l-29 -131h-739z" />
<glyph unicode="&#x332;" horiz-adv-x="0" d="M-942 -383l29 131h739l-29 -131h-739z" />
<glyph unicode="&#x391;" horiz-adv-x="1366" d="M57 0l838 1421h180l232 -1421h-189l-67 418h-596l-246 -418h-152zM522 532h508l-74 527q-23 172 -20 215h-2q-23 -57 -199 -371q-84 -145 -106.5 -184.5t-106.5 -186.5z" />
<glyph unicode="&#x392;" horiz-adv-x="1366" d="M199 0l303 1421h485q215 0 340 -106.5t94 -249.5q-25 -113 -139.5 -199t-269.5 -123q162 -27 254 -127t65 -231q-33 -154 -204 -269.5t-388 -115.5h-540zM393 115h314q166 0 300 78.5t158 193.5q27 121 -81.5 205t-274.5 84h-297zM539 801h237q199 0 331 81t153 181 q23 102 -81 173t-274 71h-258z" />
<glyph unicode="&#x393;" horiz-adv-x="1110" d="M193 0l301 1415h829l-29 -133h-331q-12 0 -37 1t-37 1h-242l-272 -1284h-182z" />
<glyph unicode="&#x394;" horiz-adv-x="1705" d="M86 0l977 1421h184l371 -1421h-1532zM360 170h1012l-203 801q-63 256 -67 309q-47 -90 -318 -485z" />
<glyph unicode="&#x395;" horiz-adv-x="1222" d="M193 0l301 1415h913l-29 -133h-374q-12 0 -37 1t-37 1h-283l-102 -485h676l-27 -125h-676l-112 -531h428q12 0 36.5 1t36.5 1h258l-30 -145h-942z" />
<glyph unicode="&#x396;" horiz-adv-x="1251" d="M115 0l18 88l1047 1208h-279q-12 0 -37.5 -1t-38.5 -1h-409l28 127h994l-19 -84l-1044 -1206h65l539 4h197l-29 -135h-1032z" />
<glyph unicode="&#x397;" horiz-adv-x="1449" d="M193 0l303 1421h182l-133 -620h698l133 620h183l-304 -1421h-182l144 676h-699l-143 -676h-182z" />
<glyph unicode="&#x398;" horiz-adv-x="1593" d="M264 707q68 315 315.5 537t528.5 222q279 0 432.5 -221t85.5 -538q-68 -315 -314.5 -533.5t-527.5 -218.5q-276 0 -432 217.5t-88 534.5zM434 707q-57 -274 56.5 -449.5t324.5 -175.5q205 0 394.5 174t246.5 451q59 274 -53.5 454t-323.5 180q-207 0 -396.5 -179 t-248.5 -455zM535 627l36 170h789l-37 -170h-788z" />
<glyph unicode="&#x399;" horiz-adv-x="569" d="M193 0l303 1421h182l-303 -1421h-182z" />
<glyph unicode="&#x39a;" horiz-adv-x="1421" d="M197 0l303 1421h174l-162 -759l905 759h191l-670 -561l395 -860h-188l-344 745l-332 -280l-98 -465h-174z" />
<glyph unicode="&#x39b;" horiz-adv-x="1251" d="M57 0l781 1421h180l174 -1421h-193l-73 623l-35 327q-23 233 -17 322h-2q-8 -31 -36.5 -93.5t-65.5 -133t-78 -149.5t-73.5 -140.5t-57.5 -104.5l-22 -45l-330 -606h-152z" />
<glyph unicode="&#x39c;" horiz-adv-x="1792" d="M205 0l303 1421h231l31 -178l141 -848q18 -133 23 -205h2q47 104 303 537l416 694h233l-303 -1421h-160l271 1270l-2 2q-4 -8 -140 -254l-153 -260l-424 -713h-150l-135 797q-57 356 -55 428h-2l-270 -1270h-160z" />
<glyph unicode="&#x39d;" horiz-adv-x="1449" d="M197 0l303 1421h254l288 -995l78 -281h2l273 1276h159l-303 -1421h-254l-290 995l-78 281h-2l-271 -1276h-159z" />
<glyph unicode="&#x39e;" horiz-adv-x="1366" d="M86 0l33 154h262l334 -2l334 2h262l-33 -154h-1192zM362 1255l33 154h1172l-33 -154h-256l-328 2l-332 -2h-256zM367 657l32 152h910l-33 -152h-909z" />
<glyph unicode="&#x39f;" horiz-adv-x="1507" d="M264 707q70 317 304.5 538t496.5 221q258 0 400.5 -221t74.5 -538q-66 -317 -302.5 -534.5t-496.5 -217.5q-256 0 -400.5 216.5t-76.5 535.5zM455 737q-61 -287 34 -468t283 -181q184 0 358.5 180.5t235.5 468.5q57 266 -43 432t-287 166q-182 0 -354 -165t-227 -433z " />
<glyph unicode="&#x3a0;" horiz-adv-x="1449" d="M193 0l301 1415h1062l-301 -1415h-182l275 1290h-699l-274 -1290h-182z" />
<glyph unicode="&#x3a1;" horiz-adv-x="1308" d="M197 0l303 1421h510q207 0 319.5 -122.5t77.5 -290.5q-37 -172 -203 -294t-358 -122h-342l-125 -592h-182zM524 711h289q170 0 285.5 85t142.5 212q29 133 -53 216t-248 83h-289z" />
<glyph unicode="&#x3a3;" horiz-adv-x="1478" d="M115 0l618 686l-344 604l29 131h1247l-29 -133h-528q-12 0 -36.5 1t-37.5 1h-413l331 -579l-514 -570h389q12 0 37 1t37 1h492l-31 -143h-1247z" />
<glyph unicode="&#x3a4;" horiz-adv-x="1394" d="M344 1276l29 133h1245l-29 -133h-274q-12 0 -36 1t-36 1h-182l-273 -1278h-182l273 1278h-185q-12 0 -37.5 -1t-38.5 -1h-274z" />
<glyph unicode="&#x3a5;" horiz-adv-x="1593" d="M356 1137q35 147 151 238t243 91q289 0 260 -454h2q158 455 452 454q127 0 205 -91t49 -238h-159q16 86 -19 139t-108 53q-121 0 -217.5 -118.5t-161.5 -432.5l-166 -778h-182l165 778q49 213 36 336t-57 169t-124 46q-74 0 -131 -54t-78 -138h-160z" />
<glyph unicode="&#x3a6;" horiz-adv-x="1478" d="M266 711q39 184 223.5 326.5t413.5 164.5l47 219h170l-47 -217q240 -27 359.5 -170t81 -323.5t-219 -323.5t-430.5 -170l-47 -217h-170l47 219q-219 23 -343 164.5t-85 327.5zM442 711q-31 -141 45 -242.5t234 -124.5l156 733q-166 -23 -286 -124t-149 -242zM889 342 q178 23 298 126t150 243q29 137 -47 240.5t-243 127.5z" />
<glyph unicode="&#x3a7;" horiz-adv-x="1366" d="M29 0l710 750l-379 671h213l283 -534l500 534h196l-637 -671l420 -750h-213l-321 627l-576 -627h-196z" />
<glyph unicode="&#x3a8;" horiz-adv-x="1593" d="M354 1130l27 125h149q96 0 112.5 -80.5t-32.5 -310.5q-100 -440 168 -516l230 1073h170l-230 -1073q63 14 117.5 46t91.5 67t70 87t51 91t36.5 97.5t26 87t17.5 77.5q25 121 52.5 195.5t59 107.5t58 42t65.5 9h150l-27 -125q-143 -10 -194 -258q-14 -63 -28.5 -115 t-61 -152.5t-105.5 -170t-165.5 -134t-239.5 -81.5l-48 -219h-169l47 219q-127 18 -206 83t-105.5 157t-27.5 181t19 187q14 63 19.5 108.5t1.5 92.5t-29 73.5t-70 28.5z" />
<glyph unicode="&#x3a9;" horiz-adv-x="1478" d="M90 0l31 145h174q12 0 36.5 -1t37.5 -1h108q-4 111 -76 306q-27 68 -40 106.5t-29.5 96t-22.5 99.5t-5 94t11 101q47 215 260 367.5t476 152.5q260 0 409.5 -152.5t102.5 -367.5q-16 -80 -63.5 -169t-90.5 -147.5t-117 -148.5q-176 -219 -231 -338h108q12 0 37 1t37 1 h174l-31 -145h-501q25 113 80 212t163 255q74 106 112 165.5t81 147.5t59 164q37 172 -65.5 284.5t-292.5 112.5q-186 0 -336.5 -112.5t-187.5 -284.5q-12 -61 -13.5 -122.5t11 -133.5t24.5 -118t35 -128q72 -264 37 -442h-502z" />
<glyph unicode="&#xe3f;" horiz-adv-x="1366" d="M199 0l303 1421h401l27 131h131l-29 -133q197 -12 307.5 -115.5t81.5 -238.5q-25 -113 -139.5 -199t-269.5 -123q162 -27 254 -127t65 -231q-33 -154 -204 -269.5t-388 -115.5h-8l-29 -131h-131l29 131h-401zM393 115h232l118 561h-231zM539 801h231l109 506h-232z M756 117q154 12 271.5 89t137.5 181q23 109 -62 188.5t-229 96.5zM903 811q150 25 245 97.5t112 154.5q18 84 -52.5 149.5t-199.5 85.5z" />
<glyph unicode="&#x1e0c;" horiz-adv-x="1478" d="M197 0l303 1421h536q262 0 400.5 -212t72.5 -511q-61 -291 -287.5 -494.5t-486.5 -203.5h-538zM350 -410l39 183h182l-39 -183h-182zM397 115h314q217 0 392 162.5t230 420.5q57 268 -47 438.5t-321 170.5h-314z" />
<glyph unicode="&#x1e0d;" horiz-adv-x="1058" d="M170 455q43 199 178 338t287 139q162 0 274 -113l129 602h154l-303 -1421h-160l23 106q-160 -129 -330 -129q-147 0 -221 138.5t-31 339.5zM330 453q-37 -176 27.5 -263.5t174.5 -87.5q84 0 164 58q80 61 95 125l86 409q-53 113 -175 113q-113 0 -223 -86t-149 -268z M348 -410l39 183h182l-39 -183h-182z" />
<glyph unicode="&#x1e0e;" horiz-adv-x="1478" d="M80 -383l29 131h739l-29 -131h-739zM197 0l303 1421h536q262 0 400.5 -212t72.5 -511q-61 -291 -287.5 -494.5t-486.5 -203.5h-538zM397 115h314q217 0 392 162.5t230 420.5q57 268 -47 438.5t-321 170.5h-314z" />
<glyph unicode="&#x1e0f;" horiz-adv-x="1058" d="M78 -383l28 131h740l-29 -131h-739zM170 455q43 199 178 338t287 139q162 0 274 -113l129 602h154l-303 -1421h-160l23 106q-160 -129 -330 -129q-147 0 -221 138.5t-31 339.5zM330 453q-37 -176 27.5 -263.5t174.5 -87.5q84 0 164 58q80 61 95 125l86 409 q-53 113 -175 113q-113 0 -223 -86t-149 -268z" />
<glyph unicode="&#x1e24;" horiz-adv-x="1449" d="M193 0l303 1421h182l-133 -620h698l133 620h183l-304 -1421h-182l144 676h-699l-143 -676h-182zM545 -410l39 183h182l-39 -183h-182z" />
<glyph unicode="&#x1e25;" horiz-adv-x="1058" d="M166 0l303 1421h154l-138 -637q147 147 324 148q279 0 211 -322l-129 -610h-160l127 596q47 211 -153 211q-106 0 -177 -92t-96 -213l-106 -502h-160zM348 -410l39 183h182l-39 -183h-182z" />
<glyph unicode="&#x1e26;" horiz-adv-x="1449" d="M193 0l303 1421h182l-133 -620h698l133 620h183l-304 -1421h-182l144 676h-699l-143 -676h-182zM784 1507l35 164h164l-35 -164h-164zM1141 1507l35 164h163l-34 -164h-164z" />
<glyph unicode="&#x1e27;" horiz-adv-x="1058" d="M166 0l303 1421h154l-138 -637q147 147 324 148q279 0 211 -322l-129 -610h-160l127 596q47 211 -153 211q-106 0 -177 -92t-96 -213l-106 -502h-160zM588 1507l35 164h163l-34 -164h-164zM944 1507l35 164h164l-35 -164h-164z" />
<glyph unicode="&#x1e2a;" horiz-adv-x="1449" d="M193 0l303 1421h182l-133 -620h698l133 620h183l-304 -1421h-182l144 676h-699l-143 -676h-182zM352 -135h125q-18 -104 35 -165.5t137 -61.5q82 0 162 60t107 167h124q-37 -158 -160.5 -261.5t-263.5 -103.5q-137 0 -217 102.5t-49 262.5z" />
<glyph unicode="&#x1e2b;" horiz-adv-x="1058" d="M156 -135h125q-18 -104 35 -165.5t137 -61.5q82 0 161.5 60t106.5 167h125q-37 -158 -161 -261.5t-263 -103.5q-137 0 -217 102.5t-49 262.5zM166 0l303 1421h154l-138 -637q147 147 324 148q279 0 211 -322l-129 -610h-160l127 596q47 211 -153 211q-106 0 -177 -92 t-96 -213l-106 -502h-160z" />
<glyph unicode="&#x1e2e;" horiz-adv-x="569" d="M193 0l303 1421h182l-303 -1421h-182zM344 1507l35 164h164l-35 -164h-164zM467 1778l412 250h227l-457 -250h-182zM700 1507l35 164h164l-35 -164h-164z" />
<glyph unicode="&#x1e2f;" horiz-adv-x="489" d="M166 0l192 909h154l-193 -909h-153zM260 1169l35 164h164l-35 -164h-164zM356 1448l412 250h227l-456 -250h-183zM559 1169l35 164h164l-35 -164h-164z" />
<glyph unicode="&#x1e36;" horiz-adv-x="1110" d="M193 0l303 1421h182l-275 -1290h101l547 4l-29 -135h-829zM375 -410l39 183h182l-39 -183h-182z" />
<glyph unicode="&#x1e37;" horiz-adv-x="489" d="M66 -410l38 183h183l-39 -183h-182zM166 0l303 1421h154l-304 -1421h-153z" />
<glyph unicode="&#x1e38;" horiz-adv-x="1110" d="M193 0l303 1421h182l-275 -1290h101l547 4l-29 -135h-829zM246 1548l26 131h740l-27 -131h-739zM375 -410l39 183h182l-39 -183h-182z" />
<glyph unicode="&#x1e39;" horiz-adv-x="489" d="M66 -410l38 183h183l-39 -183h-182zM166 0l303 1421h154l-304 -1421h-153zM229 1548l27 131h739l-26 -131h-740z" />
<glyph unicode="&#x1e42;" horiz-adv-x="1792" d="M205 0l303 1421h231l31 -178l141 -848q18 -133 23 -205h2q47 104 303 537l416 694h233l-303 -1421h-160l271 1270l-2 2q-4 -8 -140 -254l-153 -260l-424 -713h-150l-135 797q-57 356 -55 428h-2l-270 -1270h-160zM717 -410l39 183h182l-39 -183h-182z" />
<glyph unicode="&#x1e43;" horiz-adv-x="1626" d="M166 0l196 922h148l-33 -148q154 158 334 158q203 0 225 -168q152 168 342 168q283 0 211 -322l-129 -610h-160l127 596q8 39 9.5 67.5t-9 65.5t-49.5 57.5t-106 20.5q-104 0 -175 -92t-98 -213l-106 -502h-160l127 596q8 39 9 67.5t-9 65.5t-49 57.5t-106 20.5 q-104 0 -175 -92t-98 -213l-106 -502h-160zM633 -410l39 183h182l-39 -183h-182z" />
<glyph unicode="&#x1e44;" horiz-adv-x="1449" d="M197 0l303 1421h254l288 -995l78 -281h2l273 1276h159l-303 -1421h-254l-290 995l-78 281h-2l-271 -1276h-159zM952 1507l39 183h183l-39 -183h-183z" />
<glyph unicode="&#x1e45;" horiz-adv-x="1058" d="M166 0l196 922h148l-31 -146q18 23 51 50.5t115 66.5t164 39q279 0 211 -322l-129 -610h-160l127 596q47 211 -153 211q-106 0 -177 -92t-96 -213l-106 -502h-160zM682 1159l39 182h182l-39 -182h-182z" />
<glyph unicode="&#x1e46;" horiz-adv-x="1449" d="M197 0l303 1421h254l288 -995l78 -281h2l273 1276h159l-303 -1421h-254l-290 995l-78 281h-2l-271 -1276h-159zM545 -410l39 183h182l-39 -183h-182z" />
<glyph unicode="&#x1e47;" horiz-adv-x="1058" d="M166 0l196 922h148l-31 -146q18 23 51 50.5t115 66.5t164 39q279 0 211 -322l-129 -610h-160l127 596q47 211 -153 211q-106 0 -177 -92t-96 -213l-106 -502h-160zM348 -410l39 183h182l-39 -183h-182z" />
<glyph unicode="&#x1e58;" horiz-adv-x="1323" d="M197 0l303 1421h493q217 0 342 -113.5t92 -267.5q-27 -125 -142.5 -225t-285.5 -147l265 -668h-183l-247 649h-324l-137 -649h-176zM537 774h294q174 0 290 76t141 190q25 113 -59.5 190t-256.5 77h-295zM889 1507l39 183h182l-39 -183h-182z" />
<glyph unicode="&#x1e59;" horiz-adv-x="700" d="M168 0l197 922h143l-41 -187q172 195 401 197l-30 -137q-152 -4 -272 -103.5t-152 -253.5l-92 -438h-154zM504 1159l39 182h182l-39 -182h-182z" />
<glyph unicode="&#x1e5a;" horiz-adv-x="1323" d="M197 0l303 1421h493q217 0 342 -113.5t92 -267.5q-27 -125 -142.5 -225t-285.5 -147l265 -668h-183l-247 649h-324l-137 -649h-176zM481 -410l39 183h182l-38 -183h-183zM537 774h294q174 0 290 76t141 190q25 113 -59.5 190t-256.5 77h-295z" />
<glyph unicode="&#x1e5b;" horiz-adv-x="700" d="M66 -410l38 183h183l-39 -183h-182zM168 0l197 922h143l-41 -187q172 195 401 197l-30 -137q-152 -4 -272 -103.5t-152 -253.5l-92 -438h-154z" />
<glyph unicode="&#x1e5c;" horiz-adv-x="1323" d="M197 0l303 1421h493q217 0 342 -113.5t92 -267.5q-27 -125 -142.5 -225t-285.5 -147l265 -668h-183l-247 649h-324l-137 -649h-176zM481 -410l39 183h182l-38 -183h-183zM537 774h294q174 0 290 76t141 190q25 113 -59.5 190t-256.5 77h-295zM623 1548l26 131h740 l-27 -131h-739z" />
<glyph unicode="&#x1e5d;" horiz-adv-x="700" d="M66 -410l38 183h183l-39 -183h-182zM168 0l197 922h143l-41 -187q172 195 401 197l-30 -137q-152 -4 -272 -103.5t-152 -253.5l-92 -438h-154zM233 1186l29 131h739l-28 -131h-740z" />
<glyph unicode="&#x1e62;" horiz-adv-x="1138" d="M111 96l65 166q162 -166 406 -166q133 0 233 82t123 189q25 117 -45 190q-35 37 -70 52.5t-161 47.5q-102 27 -161 54.5t-106 91.5q-86 117 -55 260q35 160 189.5 281.5t359.5 121.5t354 -102l-65 -164q-131 131 -320 131q-135 0 -232.5 -73.5t-117.5 -170.5 q-20 -104 37 -161q37 -37 69.5 -52.5t124.5 -37.5q147 -39 206 -68t110 -100q84 -119 49 -281q-37 -174 -194.5 -303t-356.5 -129q-247 0 -442 141zM389 -410l39 183h182l-39 -183h-182z" />
<glyph unicode="&#x1e63;" horiz-adv-x="784" d="M72 68l53 139q133 -100 297 -101q193 0 223 142q8 39 -4 66.5t-43 43t-54.5 22.5t-60.5 15q-68 14 -93 20.5t-55 20t-56 35.5q-92 84 -68 205q14 63 45 112.5t74 77t82 45t85 23.5t66.5 8t44.5 2q152 0 281 -65l-53 -134q-113 78 -275 78q-174 0 -201 -127 q-8 -37 2.5 -61.5t41 -39.5t56 -23.5t77.5 -18.5q84 -16 128 -34.5t89 -67.5l8 -13q6 -10 13 -24.5t14.5 -39t8.5 -51t-5 -61.5q-31 -145 -146 -219q-100 -66 -250 -66q-161 1 -325 91zM213 -410l39 183h182l-39 -183h-182z" />
<glyph unicode="&#x1e6c;" horiz-adv-x="1394" d="M344 1276l29 133h1245l-29 -133h-274q-12 0 -36 1t-36 1h-182l-273 -1278h-182l273 1278h-185q-12 0 -37.5 -1t-38.5 -1h-274zM516 -410l39 183h182l-39 -183h-182z" />
<glyph unicode="&#x1e6d;" horiz-adv-x="739" d="M190 -410l39 183h183l-39 -183h-183zM207 791l24 118h179l55 260h141l-55 -260h289l-25 -118h-289l-108 -512q-35 -170 67.5 -170t198.5 67l8 -121q-168 -78 -315 -78q-168 0 -115 267l117 547h-172z" />
<glyph unicode="&#x1e6e;" horiz-adv-x="1394" d="M246 -383l28 131h740l-29 -131h-739zM344 1276l29 133h1245l-29 -133h-274q-12 0 -36 1t-36 1h-182l-273 -1278h-182l273 1278h-185q-12 0 -37.5 -1t-38.5 -1h-274z" />
<glyph unicode="&#x1e6f;" horiz-adv-x="739" d="M-80 -383l29 131h739l-29 -131h-739zM207 791l24 118h179l55 260h141l-55 -260h289l-25 -118h-289l-108 -512q-35 -170 67.5 -170t198.5 67l8 -121q-168 -78 -315 -78q-168 0 -115 267l117 547h-172z" />
<glyph unicode="&#x1e80;" horiz-adv-x="1933" d="M332 1421h176l43 -577l22 -342q10 -315 7 -350h2q33 109 290 630l322 639h166l51 -698q37 -467 25 -576h2q37 115 297 631l323 643h148l-719 -1421h-178l-62 821q-25 330 -16 451h-2q-29 -88 -262 -561l-357 -711h-166zM952 1778h228l305 -250h-182z" />
<glyph unicode="&#x1e81;" horiz-adv-x="1398" d="M221 909h156l33 -354q27 -352 16 -442h2q35 115 186 411l199 385h143l41 -436q25 -279 17 -362h2q25 68 172 364l223 434h150l-474 -909h-180l-41 508q-16 184 -6 287h-2q-27 -98 -170 -373l-217 -422h-162zM715 1421h159l199 -342h-125z" />
<glyph unicode="&#x1e82;" horiz-adv-x="1933" d="M332 1421h176l43 -577l22 -342q10 -315 7 -350h2q33 109 290 630l322 639h166l51 -698q37 -467 25 -576h2q37 115 297 631l323 643h148l-719 -1421h-178l-62 821q-25 330 -16 451h-2q-29 -88 -262 -561l-357 -711h-166zM1096 1528l411 250h228l-457 -250h-182z" />
<glyph unicode="&#x1e83;" horiz-adv-x="1398" d="M221 909h156l33 -354q27 -352 16 -442h2q35 115 186 411l199 385h143l41 -436q25 -279 17 -362h2q25 68 172 364l223 434h150l-474 -909h-180l-41 508q-16 184 -6 287h-2q-27 -98 -170 -373l-217 -422h-162zM786 1079l347 342h159l-381 -342h-125z" />
<glyph unicode="&#x1e84;" horiz-adv-x="1933" d="M332 1421h176l43 -577l22 -342q10 -315 7 -350h2q33 109 290 630l322 639h166l51 -698q37 -467 25 -576h2q37 115 297 631l323 643h148l-719 -1421h-178l-62 821q-25 330 -16 451h-2q-29 -88 -262 -561l-357 -711h-166zM1026 1507l35 164h164l-35 -164h-164zM1382 1507 l35 164h164l-35 -164h-164z" />
<glyph unicode="&#x1e85;" horiz-adv-x="1398" d="M221 909h156l33 -354q27 -352 16 -442h2q35 115 186 411l199 385h143l41 -436q25 -279 17 -362h2q25 68 172 364l223 434h150l-474 -909h-180l-41 508q-16 184 -6 287h-2q-27 -98 -170 -373l-217 -422h-162zM717 1169l35 164h163l-34 -164h-164zM1016 1169l35 164h163 l-34 -164h-164z" />
<glyph unicode="&#x1e92;" horiz-adv-x="1251" d="M115 0l18 88l1047 1208h-279q-12 0 -37.5 -1t-38.5 -1h-409l28 127h994l-19 -84l-1044 -1206h65l539 4h197l-29 -135h-1032zM446 -410l39 183h183l-39 -183h-183z" />
<glyph unicode="&#x1e93;" horiz-adv-x="890" d="M57 0l19 84l696 707h-160q-12 0 -36.5 -1.5t-36.5 -1.5h-285l25 121h733l-17 -80l-694 -704h174q12 0 37 1t37 1h301l-27 -127h-766zM264 -410l39 183h182l-39 -183h-182z" />
<glyph unicode="&#x1e97;" horiz-adv-x="739" d="M207 791l24 118h179l55 260h141l-55 -260h289l-25 -118h-289l-108 -512q-35 -170 67.5 -170t198.5 67l8 -121q-168 -78 -315 -78q-168 0 -115 267l117 547h-172zM293 1255l35 164h164l-35 -164h-164zM649 1255l35 164h164l-35 -164h-164z" />
<glyph unicode="&#x1ea0;" horiz-adv-x="1366" d="M57 0l838 1421h180l232 -1421h-189l-67 418h-596l-246 -418h-152zM502 -410l39 183h182l-39 -183h-182zM522 532h508l-74 527q-23 172 -20 215h-2q-23 -57 -199 -371q-84 -145 -106.5 -184.5t-106.5 -186.5z" />
<glyph unicode="&#x1ea1;" horiz-adv-x="985" d="M156 155q-6 44 4 76q29 129 204 198t420 73l19 88q25 109 -14 171t-115 62q-164 0 -330 -102l16 135q172 88 340 88q143 0 219 -99.5t44 -252.5l-125 -592h-154l16 74q-145 -96 -360 -97q-63 0 -106.5 28t-57.5 67t-20 83zM307 236q-12 -61 37 -97.5t127 -36.5 q96 0 168 39q78 39 96 129l27 127q-424 -20 -455 -161zM311 -410l39 183h182l-38 -183h-183z" />
<glyph unicode="&#x1ea2;" horiz-adv-x="1366" d="M57 0l838 1421h180l232 -1421h-189l-67 418h-596l-246 -418h-152zM522 532h508l-74 527q-23 172 -20 215h-2q-23 -57 -199 -371q-84 -145 -106.5 -184.5t-106.5 -186.5zM879 1860q88 88 202 88q102 0 150 -41q45 -39 29 -119q-12 -66 -76 -102l-31 -19q-63 -35 -92 -59.5 t-35 -59.5l-8 -39l-4 -2h-53v2l8 39q27 137 151 197q35 18 37 43q10 43 -10 61q-27 18 -82 19q-102 0 -172 -90h-2h-2z" />
<glyph unicode="&#x1ea3;" horiz-adv-x="985" d="M156 155q-6 44 4 76q29 129 204 198t420 73l19 88q25 109 -14 171t-115 62q-164 0 -330 -102l16 135q172 88 340 88q143 0 219 -99.5t44 -252.5l-125 -592h-154l16 74q-145 -96 -360 -97q-63 0 -106.5 28t-57.5 67t-20 83zM307 236q-12 -61 37 -97.5t127 -36.5 q96 0 168 39q78 39 96 129l27 127q-424 -20 -455 -161zM586 1382q88 88 205 88q104 0 147 -40q47 -39 31 -119q-14 -68 -78 -103l-31 -18q-63 -35 -92 -59.5t-35 -59.5l-8 -39l-2 -2h-53l-2 2l8 39q31 137 153 197q31 16 37 43q10 43 -12 61q-25 18 -82 19q-100 0 -170 -91 h-2h-2z" />
<glyph unicode="&#x1ea4;" horiz-adv-x="1366" d="M57 0l838 1421h180l232 -1421h-189l-67 418h-596l-246 -418h-152zM522 532h508l-74 527q-23 172 -20 215h-2q-23 -57 -199 -371q-84 -145 -106.5 -184.5t-106.5 -186.5zM682 1507l317 275h123l199 -275h-121l-156 199l-241 -199h-121zM782 1853l412 250h227l-456 -250 h-183z" />
<glyph unicode="&#x1ea5;" horiz-adv-x="985" d="M156 155q-6 44 4 76q29 129 204 198t420 73l19 88q25 109 -14 171t-115 62q-164 0 -330 -102l16 135q172 88 340 88q143 0 219 -99.5t44 -252.5l-125 -592h-154l16 74q-145 -96 -360 -97q-63 0 -106.5 28t-57.5 67t-20 83zM307 236q-12 -61 37 -97.5t127 -36.5 q96 0 168 39q78 39 96 129l27 127q-424 -20 -455 -161zM401 1075l316 275h123l200 -275h-120l-158 199l-240 -199h-121zM502 1421l409 250h228l-455 -250h-182z" />
<glyph unicode="&#x1ea6;" horiz-adv-x="1366" d="M57 0l838 1421h180l232 -1421h-189l-67 418h-596l-246 -418h-152zM522 532h508l-74 527q-23 172 -20 215h-2q-23 -57 -199 -371q-84 -145 -106.5 -184.5t-106.5 -186.5zM682 1507l317 275h123l199 -275h-121l-156 199l-241 -199h-121zM836 2103l350 -250h182l-305 250 h-227z" />
<glyph unicode="&#x1ea7;" horiz-adv-x="985" d="M156 155q-6 44 4 76q29 129 204 198t420 73l19 88q25 109 -14 171t-115 62q-164 0 -330 -102l16 135q172 88 340 88q143 0 219 -99.5t44 -252.5l-125 -592h-154l16 74q-145 -96 -360 -97q-63 0 -106.5 28t-57.5 67t-20 83zM307 236q-12 -61 37 -97.5t127 -36.5 q96 0 168 39q78 39 96 129l27 127q-424 -20 -455 -161zM401 1075l316 275h123l200 -275h-120l-158 199l-240 -199h-121zM553 1671l352 -250h182l-307 250h-227z" />
<glyph unicode="&#x1ea8;" horiz-adv-x="1366" d="M57 0l838 1421h180l232 -1421h-189l-67 418h-596l-246 -418h-152zM522 532h508l-74 527q-23 172 -20 215h-2q-23 -57 -199 -371q-84 -145 -106.5 -184.5t-106.5 -186.5zM682 1507l317 275h123l199 -275h-121l-156 199l-241 -199h-121zM1143 2165q84 88 203 88 q104 0 147 -41q47 -39 31 -119q-14 -68 -78 -102l-29 -19q-63 -33 -92 -57.5t-37 -61.5l-8 -38l-2 -3h-53l-2 3l8 38q31 137 153 197q31 16 37 43q10 43 -12 61q-25 18 -82 19q-100 0 -170 -90h-2h-2z" />
<glyph unicode="&#x1ea9;" horiz-adv-x="985" d="M156 155q-6 44 4 76q29 129 204 198t420 73l19 88q25 109 -14 171t-115 62q-164 0 -330 -102l16 135q172 88 340 88q143 0 219 -99.5t44 -252.5l-125 -592h-154l16 74q-145 -96 -360 -97q-63 0 -106.5 28t-57.5 67t-20 83zM307 236q-12 -61 37 -97.5t127 -36.5 q96 0 168 39q78 39 96 129l27 127q-424 -20 -455 -161zM401 1075l316 275h123l200 -275h-120l-158 199l-240 -199h-121zM860 1733q88 88 203 88q102 0 149 -41q45 -39 29 -119q-12 -66 -76 -102l-30 -19q-63 -35 -92 -59.5t-35 -59.5l-11 -39l-2 -2h-53l-2 2l10 39 q27 137 152 197q35 18 37 43q10 41 -11 61q-27 18 -81 19q-102 0 -173 -90h-2h-2z" />
<glyph unicode="&#x1eaa;" horiz-adv-x="1366" d="M57 0l838 1421h180l232 -1421h-189l-67 418h-596l-246 -418h-152zM522 532h508l-74 527q-23 172 -20 215h-2q-23 -57 -199 -371q-84 -145 -106.5 -184.5t-106.5 -186.5zM682 1507l317 275h123l199 -275h-121l-156 199l-241 -199h-121zM743 1894q27 113 102 178.5 t152 65.5q55 0 119 -51q82 -68 131 -68q78 0 107 119h125q-27 -113 -101.5 -178.5t-152.5 -65.5q-55 0 -119 52q-82 68 -131 67q-76 0 -107 -119h-125z" />
<glyph unicode="&#x1eab;" horiz-adv-x="985" d="M156 155q-6 44 4 76q29 129 204 198t420 73l19 88q25 109 -14 171t-115 62q-164 0 -330 -102l16 135q172 88 340 88q143 0 219 -99.5t44 -252.5l-125 -592h-154l16 74q-145 -96 -360 -97q-63 0 -106.5 28t-57.5 67t-20 83zM307 236q-12 -61 37 -97.5t127 -36.5 q96 0 168 39q78 39 96 129l27 127q-424 -20 -455 -161zM401 1075l316 275h123l200 -275h-120l-158 199l-240 -199h-121zM463 1462q27 113 100.5 178.5t151.5 65.5q57 0 121 -51q82 -68 131 -68q76 0 104 119h125q-27 -113 -100.5 -178.5t-151.5 -65.5q-57 0 -121 51 q-82 68 -131 68q-76 0 -104 -119h-125z" />
<glyph unicode="&#x1eac;" horiz-adv-x="1366" d="M57 0l838 1421h180l232 -1421h-189l-67 418h-596l-246 -418h-152zM502 -410l39 183h182l-39 -183h-182zM522 532h508l-74 527q-23 172 -20 215h-2q-23 -57 -199 -371q-84 -145 -106.5 -184.5t-106.5 -186.5zM682 1507l317 275h123l199 -275h-121l-156 199l-241 -199h-121 z" />
<glyph unicode="&#x1ead;" horiz-adv-x="985" d="M156 155q-6 44 4 76q29 129 204 198t420 73l19 88q25 109 -14 171t-115 62q-164 0 -330 -102l16 135q172 88 340 88q143 0 219 -99.5t44 -252.5l-125 -592h-154l16 74q-145 -96 -360 -97q-63 0 -106.5 28t-57.5 67t-20 83zM307 236q-12 -61 37 -97.5t127 -36.5 q96 0 168 39q78 39 96 129l27 127q-424 -20 -455 -161zM311 -410l39 183h182l-38 -183h-183zM403 1075l330 352h123l182 -352h-120l-144 252l-250 -252h-121z" />
<glyph unicode="&#x1eae;" horiz-adv-x="1366" d="M57 0l838 1421h180l232 -1421h-189l-67 418h-596l-246 -418h-152zM522 532h508l-74 527q-23 172 -20 215h-2q-23 -57 -199 -371q-84 -145 -106.5 -184.5t-106.5 -186.5zM739 1892h125q-18 -104 36 -165.5t138 -61.5q82 0 162 60.5t105 166.5h125q-37 -158 -161 -261 t-263 -103q-137 0 -217.5 102t-49.5 262zM809 1964l412 250h227l-457 -250h-182z" />
<glyph unicode="&#x1eaf;" horiz-adv-x="985" d="M156 155q-6 44 4 76q29 129 204 198t420 73l19 88q25 109 -14 171t-115 62q-164 0 -330 -102l16 135q172 88 340 88q143 0 219 -99.5t44 -252.5l-125 -592h-154l16 74q-145 -96 -360 -97q-63 0 -106.5 28t-57.5 67t-20 83zM307 236q-12 -61 37 -97.5t127 -36.5 q96 0 168 39q78 39 96 129l27 127q-424 -20 -455 -161zM453 1434h125q-20 -104 34 -166t138 -62q82 0 161.5 60.5t106.5 167.5h125q-37 -158 -161 -261.5t-263 -103.5q-137 0 -217 102.5t-49 262.5zM520 1505l412 250h227l-457 -250h-182z" />
<glyph unicode="&#x1eb0;" horiz-adv-x="1366" d="M57 0l838 1421h180l232 -1421h-189l-67 418h-596l-246 -418h-152zM522 532h508l-74 527q-23 172 -20 215h-2q-23 -57 -199 -371q-84 -145 -106.5 -184.5t-106.5 -186.5zM739 1892h125q-18 -104 36 -165.5t138 -61.5q82 0 162 60.5t105 166.5h125q-37 -158 -161 -261 t-263 -103q-137 0 -217.5 102t-49.5 262zM862 2214l350 -250h183l-305 250h-228z" />
<glyph unicode="&#x1eb1;" horiz-adv-x="985" d="M156 155q-6 44 4 76q29 129 204 198t420 73l19 88q25 109 -14 171t-115 62q-164 0 -330 -102l16 135q172 88 340 88q143 0 219 -99.5t44 -252.5l-125 -592h-154l16 74q-145 -96 -360 -97q-63 0 -106.5 28t-57.5 67t-20 83zM307 236q-12 -61 37 -97.5t127 -36.5 q96 0 168 39q78 39 96 129l27 127q-424 -20 -455 -161zM453 1434h125q-20 -104 34 -166t138 -62q82 0 161.5 60.5t106.5 167.5h125q-37 -158 -161 -261.5t-263 -103.5q-137 0 -217 102.5t-49 262.5zM573 1755l351 -250h182l-305 250h-228z" />
<glyph unicode="&#x1eb2;" horiz-adv-x="1366" d="M57 0l838 1421h180l232 -1421h-189l-67 418h-596l-246 -418h-152zM522 532h508l-74 527q-23 172 -20 215h-2q-23 -57 -199 -371q-84 -145 -106.5 -184.5t-106.5 -186.5zM739 1892h125q-18 -104 36 -165.5t138 -61.5q82 0 162 60.5t105 166.5h125q-37 -158 -161 -261 t-263 -103q-137 0 -217.5 102t-49.5 262zM969 2275q88 88 202 88q102 0 150 -41q45 -39 31 -118q-16 -68 -78 -103l-31 -18q-63 -35 -92 -59.5t-35 -59.5l-8 -39l-4 -2h-53v2l8 39q27 137 151 197q33 18 39 43q6 45 -12 61q-27 18 -82 19q-102 0 -170 -91h-2h-2z" />
<glyph unicode="&#x1eb3;" horiz-adv-x="985" d="M156 155q-6 44 4 76q29 129 204 198t420 73l19 88q25 109 -14 171t-115 62q-164 0 -330 -102l16 135q172 88 340 88q143 0 219 -99.5t44 -252.5l-125 -592h-154l16 74q-145 -96 -360 -97q-63 0 -106.5 28t-57.5 67t-20 83zM307 236q-12 -61 37 -97.5t127 -36.5 q96 0 168 39q78 39 96 129l27 127q-424 -20 -455 -161zM453 1434h125q-20 -104 34 -166t138 -62q82 0 161.5 60.5t106.5 167.5h125q-37 -158 -161 -261.5t-263 -103.5q-137 0 -217 102.5t-49 262.5zM682 1817q84 88 203 88q104 0 147 -41q47 -39 31 -119q-14 -68 -78 -103 l-29 -18q-63 -33 -91.5 -57.5t-37.5 -61.5l-8 -39l-2 -2h-53l-2 2l8 39q31 137 154 197q31 16 37 43q10 43 -13 61q-25 18 -82 19q-100 0 -170 -90h-2h-2z" />
<glyph unicode="&#x1eb4;" horiz-adv-x="1366" d="M57 0l838 1421h180l232 -1421h-189l-67 418h-596l-246 -418h-152zM522 532h508l-74 527q-23 172 -20 215h-2q-23 -57 -199 -371q-84 -145 -106.5 -184.5t-106.5 -186.5zM739 1892h125q-18 -104 36 -165.5t138 -61.5q82 0 162 60.5t105 166.5h125q-37 -158 -161 -261 t-263 -103q-137 0 -217.5 102t-49.5 262zM768 2005q27 113 100.5 178.5t151.5 65.5q57 0 121 -51q82 -68 131 -68q76 0 104 119h125q-27 -113 -100.5 -178.5t-151.5 -65.5q-53 0 -121 51q-82 68 -131 68q-76 0 -104 -119h-125z" />
<glyph unicode="&#x1eb5;" horiz-adv-x="985" d="M156 155q-6 44 4 76q29 129 204 198t420 73l19 88q25 109 -14 171t-115 62q-164 0 -330 -102l16 135q172 88 340 88q143 0 219 -99.5t44 -252.5l-125 -592h-154l16 74q-145 -96 -360 -97q-63 0 -106.5 28t-57.5 67t-20 83zM307 236q-12 -61 37 -97.5t127 -36.5 q96 0 168 39q78 39 96 129l27 127q-424 -20 -455 -161zM453 1434h125q-20 -104 34 -166t138 -62q82 0 161.5 60.5t106.5 167.5h125q-37 -158 -161 -261.5t-263 -103.5q-137 0 -217 102.5t-49 262.5zM479 1546q27 113 101.5 178.5t152.5 65.5q55 0 119 -51q82 -68 131 -68 q78 0 107 119h124q-27 -113 -101.5 -178.5t-151.5 -65.5q-55 0 -119 51q-82 68 -131 68q-76 0 -107 -119h-125z" />
<glyph unicode="&#x1eb6;" horiz-adv-x="1366" d="M57 0l838 1421h180l232 -1421h-189l-67 418h-596l-246 -418h-152zM502 -410l39 183h182l-39 -183h-182zM522 532h508l-74 527q-23 172 -20 215h-2q-23 -57 -199 -371q-84 -145 -106.5 -184.5t-106.5 -186.5zM739 1892h125q-18 -104 36 -165.5t138 -61.5q82 0 162 60.5 t105 166.5h125q-37 -158 -161 -261t-263 -103q-137 0 -217.5 102t-49.5 262z" />
<glyph unicode="&#x1eb7;" horiz-adv-x="985" d="M156 155q-6 44 4 76q29 129 204 198t420 73l19 88q25 109 -14 171t-115 62q-164 0 -330 -102l16 135q172 88 340 88q143 0 219 -99.5t44 -252.5l-125 -592h-154l16 74q-145 -96 -360 -97q-63 0 -106.5 28t-57.5 67t-20 83zM307 236q-12 -61 37 -97.5t127 -36.5 q96 0 168 39q78 39 96 129l27 127q-424 -20 -455 -161zM311 -410l39 183h182l-38 -183h-183zM453 1434h125q-20 -104 34 -166t138 -62q82 0 161.5 60.5t106.5 167.5h125q-37 -158 -161 -261.5t-263 -103.5q-137 0 -217 102.5t-49 262.5z" />
<glyph unicode="&#x1eb8;" horiz-adv-x="1222" d="M193 0l301 1415h913l-29 -133h-374q-12 0 -37 1t-37 1h-283l-102 -485h676l-27 -125h-676l-112 -531h428q12 0 36.5 1t36.5 1h258l-30 -145h-942zM432 -410l39 183h182l-39 -183h-182z" />
<glyph unicode="&#x1eb9;" horiz-adv-x="909" d="M170 463q41 199 192.5 340t321.5 141q184 0 250 -149q55 -125 10 -346h-633q-27 -150 39 -248.5t189 -98.5q170 0 335 115l-16 -133q-172 -106 -348 -107q-184 0 -283.5 141.5t-56.5 344.5zM274 -410l39 183h183l-39 -183h-183zM344 561h506q10 131 -46 194.5t-147 63.5 q-88 0 -176 -71.5t-137 -186.5z" />
<glyph unicode="&#x1eba;" horiz-adv-x="1222" d="M193 0l301 1415h913l-29 -133h-374q-12 0 -37 1t-37 1h-283l-102 -485h676l-27 -125h-676l-112 -531h428q12 0 36.5 1t36.5 1h258l-30 -145h-942zM809 1860q88 88 203 88q102 0 149 -41q45 -39 29 -119q-12 -66 -76 -102l-31 -19q-63 -35 -91.5 -59.5t-35.5 -59.5l-8 -39 l-4 -2h-53v2l8 39q27 137 152 197q35 18 36 43q10 43 -10 61q-27 18 -82 19q-102 0 -172 -90h-2h-2z" />
<glyph unicode="&#x1ebb;" horiz-adv-x="909" d="M170 463q41 199 192.5 340t321.5 141q184 0 250 -149q55 -125 10 -346h-633q-27 -150 39 -248.5t189 -98.5q170 0 335 115l-16 -133q-172 -106 -348 -107q-184 0 -283.5 141.5t-56.5 344.5zM344 561h506q10 131 -46 194.5t-147 63.5q-88 0 -176 -71.5t-137 -186.5z M549 1382q88 88 205 88q104 0 147 -40q47 -39 31 -119q-14 -68 -78 -103l-31 -18q-63 -35 -92 -59.5t-35 -59.5l-8 -39l-2 -2h-53l-2 2l8 39q31 137 154 197q31 16 36 43q10 43 -12 61q-25 18 -82 19q-100 0 -170 -91h-2h-2z" />
<glyph unicode="&#x1ebc;" horiz-adv-x="1222" d="M193 0l301 1415h913l-29 -133h-374q-12 0 -37 1t-37 1h-283l-102 -485h676l-27 -125h-676l-112 -531h428q12 0 36.5 1t36.5 1h258l-30 -145h-942zM592 1507q27 113 101.5 178.5t152.5 65.5q55 0 119 -51q82 -68 131 -68q76 0 106 119h125q-27 -113 -101.5 -178.5 t-152.5 -65.5q-55 0 -119 52q-82 68 -131 67q-76 0 -106 -119h-125z" />
<glyph unicode="&#x1ebd;" horiz-adv-x="909" d="M170 463q41 199 192.5 340t321.5 141q184 0 250 -149q55 -125 10 -346h-633q-27 -150 39 -248.5t189 -98.5q170 0 335 115l-16 -133q-172 -106 -348 -107q-184 0 -283.5 141.5t-56.5 344.5zM344 561h506q10 131 -46 194.5t-147 63.5q-88 0 -176 -71.5t-137 -186.5z M354 1128q27 113 100.5 178.5t151.5 65.5q57 0 121 -51q82 -68 131 -68q76 0 105 119h124q-27 -113 -100.5 -178.5t-150.5 -65.5q-53 0 -121 52q-82 68 -131 67q-76 0 -105 -119h-125z" />
<glyph unicode="&#x1ebe;" horiz-adv-x="1222" d="M193 0l301 1415h913l-29 -133h-374q-12 0 -37 1t-37 1h-283l-102 -485h676l-27 -125h-676l-112 -531h428q12 0 36.5 1t36.5 1h258l-30 -145h-942zM612 1507l318 275h123l198 -275h-121l-155 199l-242 -199h-121zM713 1853l411 250h228l-457 -250h-182z" />
<glyph unicode="&#x1ebf;" horiz-adv-x="909" d="M170 463q41 199 192.5 340t321.5 141q184 0 250 -149q55 -125 10 -346h-633q-27 -150 39 -248.5t189 -98.5q170 0 335 115l-16 -133q-172 -106 -348 -107q-184 0 -283.5 141.5t-56.5 344.5zM344 561h506q10 131 -46 194.5t-147 63.5q-88 0 -176 -71.5t-137 -186.5z M365 1075l315 275h123l201 -275h-121l-158 199l-240 -199h-120zM465 1421l409 250h228l-455 -250h-182z" />
<glyph unicode="&#x1ec0;" horiz-adv-x="1222" d="M193 0l301 1415h913l-29 -133h-374q-12 0 -37 1t-37 1h-283l-102 -485h676l-27 -125h-676l-112 -531h428q12 0 36.5 1t36.5 1h258l-30 -145h-942zM612 1507l318 275h123l198 -275h-121l-155 199l-242 -199h-121zM766 2103l350 -250h182l-305 250h-227z" />
<glyph unicode="&#x1ec1;" horiz-adv-x="909" d="M170 463q41 199 192.5 340t321.5 141q184 0 250 -149q55 -125 10 -346h-633q-27 -150 39 -248.5t189 -98.5q170 0 335 115l-16 -133q-172 -106 -348 -107q-184 0 -283.5 141.5t-56.5 344.5zM344 561h506q10 131 -46 194.5t-147 63.5q-88 0 -176 -71.5t-137 -186.5z M365 1075l315 275h123l201 -275h-121l-158 199l-240 -199h-120zM516 1671l352 -250h183l-308 250h-227z" />
<glyph unicode="&#x1ec2;" horiz-adv-x="1222" d="M193 0l301 1415h913l-29 -133h-374q-12 0 -37 1t-37 1h-283l-102 -485h676l-27 -125h-676l-112 -531h428q12 0 36.5 1t36.5 1h258l-30 -145h-942zM612 1507l318 275h123l198 -275h-121l-155 199l-242 -199h-121zM1073 2165q84 88 203 88q104 0 147 -41q47 -39 31 -119 q-14 -68 -78 -102l-28 -19q-63 -33 -92 -57.5t-37 -61.5l-9 -38l-2 -3h-53l-2 3l8 38q31 137 154 197q31 16 37 43q10 43 -13 61q-25 18 -82 19q-100 0 -170 -90h-2h-2z" />
<glyph unicode="&#x1ec3;" horiz-adv-x="909" d="M170 463q41 199 192.5 340t321.5 141q184 0 250 -149q55 -125 10 -346h-633q-27 -150 39 -248.5t189 -98.5q170 0 335 115l-16 -133q-172 -106 -348 -107q-184 0 -283.5 141.5t-56.5 344.5zM344 561h506q10 131 -46 194.5t-147 63.5q-88 0 -176 -71.5t-137 -186.5z M365 1075l315 275h123l201 -275h-121l-158 199l-240 -199h-120zM823 1733q88 88 203 88q102 0 150 -41q45 -39 28 -119q-12 -66 -76 -102l-30 -19q-63 -35 -92 -59.5t-35 -59.5l-10 -39l-3 -2h-53l-2 2l10 39q27 137 152 197q35 18 37 43q10 41 -10 61q-27 18 -82 19 q-102 0 -172 -90h-2h-2z" />
<glyph unicode="&#x1ec4;" horiz-adv-x="1222" d="M193 0l301 1415h913l-29 -133h-374q-12 0 -37 1t-37 1h-283l-102 -485h676l-27 -125h-676l-112 -531h428q12 0 36.5 1t36.5 1h258l-30 -145h-942zM612 1507l318 275h123l198 -275h-121l-155 199l-242 -199h-121zM674 1894q27 113 101.5 178.5t152.5 65.5q55 0 119 -51 q82 -68 131 -68q78 0 106 119h125q-27 -113 -101.5 -178.5t-152.5 -65.5q-55 0 -119 52q-82 68 -131 67q-76 0 -106 -119h-125z" />
<glyph unicode="&#x1ec5;" horiz-adv-x="909" d="M170 463q41 199 192.5 340t321.5 141q184 0 250 -149q55 -125 10 -346h-633q-27 -150 39 -248.5t189 -98.5q170 0 335 115l-16 -133q-172 -106 -348 -107q-184 0 -283.5 141.5t-56.5 344.5zM344 561h506q10 131 -46 194.5t-147 63.5q-88 0 -176 -71.5t-137 -186.5z M365 1075l315 275h123l201 -275h-121l-158 199l-240 -199h-120zM426 1462q27 113 100.5 178.5t151.5 65.5q57 0 121 -51q82 -68 131 -68q76 0 104 119h125q-27 -113 -100.5 -178.5t-151.5 -65.5q-57 0 -121 51q-82 68 -131 68q-76 0 -104 -119h-125z" />
<glyph unicode="&#x1ec6;" horiz-adv-x="1222" d="M193 0l301 1415h913l-29 -133h-374q-12 0 -37 1t-37 1h-283l-102 -485h676l-27 -125h-676l-112 -531h428q12 0 36.5 1t36.5 1h258l-30 -145h-942zM432 -410l39 183h182l-39 -183h-182zM612 1507l318 275h123l198 -275h-121l-155 199l-242 -199h-121z" />
<glyph unicode="&#x1ec7;" horiz-adv-x="909" d="M170 463q41 199 192.5 340t321.5 141q184 0 250 -149q55 -125 10 -346h-633q-27 -150 39 -248.5t189 -98.5q170 0 335 115l-16 -133q-172 -106 -348 -107q-184 0 -283.5 141.5t-56.5 344.5zM274 -410l39 183h183l-39 -183h-183zM344 561h506q10 131 -46 194.5t-147 63.5 q-88 0 -176 -71.5t-137 -186.5zM367 1075l329 352h123l182 -352h-120l-144 252l-250 -252h-120z" />
<glyph unicode="&#x1ec8;" horiz-adv-x="569" d="M193 0l303 1421h182l-303 -1421h-182zM481 1860q88 88 203 88q102 0 150 -41q45 -39 28 -119q-12 -66 -76 -102l-30 -19q-63 -35 -92 -59.5t-35 -59.5l-8 -39l-5 -2h-53v2l8 39q27 137 152 197q35 18 37 43q10 43 -10 61q-27 18 -82 19q-102 0 -172 -90h-2h-2z" />
<glyph unicode="&#x1ec9;" horiz-adv-x="489" d="M166 0l192 909h154l-193 -909h-153zM338 1382q88 88 205 88q104 0 147 -40q47 -39 31 -119q-14 -68 -78 -103l-31 -18q-63 -35 -91.5 -59.5t-35.5 -59.5l-8 -39l-2 -2h-53l-2 2l8 39q31 137 154 197q31 16 36 43q10 43 -12 61q-25 18 -82 19q-100 0 -170 -91h-2h-2z" />
<glyph unicode="&#x1eca;" horiz-adv-x="569" d="M104 -410l39 183h183l-39 -183h-183zM193 0l303 1421h182l-303 -1421h-182z" />
<glyph unicode="&#x1ecb;" horiz-adv-x="489" d="M66 -410l38 183h183l-39 -183h-182zM166 0l192 909h154l-193 -909h-153zM399 1159l39 182h183l-39 -182h-183z" />
<glyph unicode="&#x1ecc;" horiz-adv-x="1507" d="M264 707q70 317 304.5 538t496.5 221q258 0 400.5 -221t74.5 -538q-66 -317 -302.5 -534.5t-496.5 -217.5q-256 0 -400.5 216.5t-76.5 535.5zM455 737q-61 -287 34 -468t283 -181q184 0 358.5 180.5t235.5 468.5q57 266 -43 432t-287 166q-182 0 -354 -165t-227 -433z M573 -410l39 183h183l-39 -183h-183z" />
<glyph unicode="&#x1ecd;" d="M158 451q43 203 204.5 348t350.5 145q184 0 285.5 -144.5t58.5 -348.5q-43 -199 -204 -336.5t-347 -137.5q-182 0 -286.5 136.5t-61.5 337.5zM322 471q-37 -174 28.5 -268t181.5 -94q121 0 226.5 95t142.5 267q37 170 -30.5 259t-186.5 89q-115 0 -220 -88t-142 -260z M332 -410l39 183h182l-39 -183h-182z" />
<glyph unicode="&#x1ece;" horiz-adv-x="1507" d="M264 707q70 317 304.5 538t496.5 221q258 0 400.5 -221t74.5 -538q-66 -317 -302.5 -534.5t-496.5 -217.5q-256 0 -400.5 216.5t-76.5 535.5zM455 737q-61 -287 34 -468t283 -181q184 0 358.5 180.5t235.5 468.5q57 266 -43 432t-287 166q-182 0 -354 -165t-227 -433z M950 1860q88 88 203 88q102 0 150 -41q45 -39 28 -119q-12 -66 -76 -102l-30 -19q-63 -35 -92 -59.5t-35 -59.5l-8 -39l-5 -2h-53v2l8 39q27 137 152 197q35 18 37 43q10 43 -10 61q-27 18 -82 19q-102 0 -172 -90h-2h-2z" />
<glyph unicode="&#x1ecf;" d="M158 451q43 203 204.5 348t350.5 145q184 0 285.5 -144.5t58.5 -348.5q-43 -199 -204 -336.5t-347 -137.5q-182 0 -286.5 136.5t-61.5 337.5zM322 471q-37 -174 28.5 -268t181.5 -94q121 0 226.5 95t142.5 267q37 170 -30.5 259t-186.5 89q-115 0 -220 -88t-142 -260z M606 1382q88 88 205 88q104 0 147 -40q47 -39 31 -119q-14 -68 -78 -103l-30 -18q-63 -35 -92 -59.5t-35 -59.5l-9 -39l-2 -2h-53l-2 2l8 39q31 137 154 197q31 16 37 43q10 43 -13 61q-25 18 -81 19q-100 0 -170 -91h-2h-3z" />
<glyph unicode="&#x1ed0;" horiz-adv-x="1507" d="M264 707q70 317 304.5 538t496.5 221q258 0 400.5 -221t74.5 -538q-66 -317 -302.5 -534.5t-496.5 -217.5q-256 0 -400.5 216.5t-76.5 535.5zM455 737q-61 -287 34 -468t283 -181q184 0 358.5 180.5t235.5 468.5q57 266 -43 432t-287 166q-182 0 -354 -165t-227 -433z M754 1507l317 275h123l199 -275h-121l-156 199l-242 -199h-120zM854 1853l412 250h227l-457 -250h-182z" />
<glyph unicode="&#x1ed1;" d="M158 451q43 203 204.5 348t350.5 145q184 0 285.5 -144.5t58.5 -348.5q-43 -199 -204 -336.5t-347 -137.5q-182 0 -286.5 136.5t-61.5 337.5zM322 471q-37 -174 28.5 -268t181.5 -94q121 0 226.5 95t142.5 267q37 170 -30.5 259t-186.5 89q-115 0 -220 -88t-142 -260z M422 1075l315 275h123l201 -275h-121l-158 199l-239 -199h-121zM522 1421l410 250h227l-454 -250h-183z" />
<glyph unicode="&#x1ed2;" horiz-adv-x="1507" d="M264 707q70 317 304.5 538t496.5 221q258 0 400.5 -221t74.5 -538q-66 -317 -302.5 -534.5t-496.5 -217.5q-256 0 -400.5 216.5t-76.5 535.5zM455 737q-61 -287 34 -468t283 -181q184 0 358.5 180.5t235.5 468.5q57 266 -43 432t-287 166q-182 0 -354 -165t-227 -433z M754 1507l317 275h123l199 -275h-121l-156 199l-242 -199h-120zM907 2103l350 -250h183l-305 250h-228z" />
<glyph unicode="&#x1ed3;" d="M158 451q43 203 204.5 348t350.5 145q184 0 285.5 -144.5t58.5 -348.5q-43 -199 -204 -336.5t-347 -137.5q-182 0 -286.5 136.5t-61.5 337.5zM322 471q-37 -174 28.5 -268t181.5 -94q121 0 226.5 95t142.5 267q37 170 -30.5 259t-186.5 89q-115 0 -220 -88t-142 -260z M422 1075l315 275h123l201 -275h-121l-158 199l-239 -199h-121zM573 1671l353 -250h182l-307 250h-228z" />
<glyph unicode="&#x1ed4;" horiz-adv-x="1507" d="M264 707q70 317 304.5 538t496.5 221q258 0 400.5 -221t74.5 -538q-66 -317 -302.5 -534.5t-496.5 -217.5q-256 0 -400.5 216.5t-76.5 535.5zM455 737q-61 -287 34 -468t283 -181q184 0 358.5 180.5t235.5 468.5q57 266 -43 432t-287 166q-182 0 -354 -165t-227 -433z M754 1507l317 275h123l199 -275h-121l-156 199l-242 -199h-120zM1214 2165q84 88 203 88q104 0 148 -41q47 -39 30 -119q-14 -68 -77 -102l-29 -19q-63 -33 -92 -57.5t-37 -61.5l-8 -38l-2 -3h-54l-2 3l9 38q31 137 153 197q31 16 37 43q10 43 -12 61q-25 18 -82 19 q-100 0 -170 -90h-2h-2z" />
<glyph unicode="&#x1ed5;" d="M158 451q43 203 204.5 348t350.5 145q184 0 285.5 -144.5t58.5 -348.5q-43 -199 -204 -336.5t-347 -137.5q-182 0 -286.5 136.5t-61.5 337.5zM322 471q-37 -174 28.5 -268t181.5 -94q121 0 226.5 95t142.5 267q37 170 -30.5 259t-186.5 89q-115 0 -220 -88t-142 -260z M422 1075l315 275h123l201 -275h-121l-158 199l-239 -199h-121zM881 1733q88 88 202 88q102 0 150 -41q45 -39 29 -119q-12 -66 -76 -102l-31 -19q-63 -35 -92 -59.5t-35 -59.5l-10 -39l-2 -2h-53l-2 2l10 39q27 137 151 197q35 18 37 43q10 41 -10 61q-27 18 -82 19 q-102 0 -172 -90h-2h-2z" />
<glyph unicode="&#x1ed6;" horiz-adv-x="1507" d="M264 707q70 317 304.5 538t496.5 221q258 0 400.5 -221t74.5 -538q-66 -317 -302.5 -534.5t-496.5 -217.5q-256 0 -400.5 216.5t-76.5 535.5zM455 737q-61 -287 34 -468t283 -181q184 0 358.5 180.5t235.5 468.5q57 266 -43 432t-287 166q-182 0 -354 -165t-227 -433z M754 1507l317 275h123l199 -275h-121l-156 199l-242 -199h-120zM815 1894q27 113 101.5 178.5t152.5 65.5q55 0 119 -51q82 -68 131 -68q78 0 106 119h125q-27 -113 -101.5 -178.5t-152.5 -65.5q-55 0 -118 52q-82 68 -131 67q-76 0 -107 -119h-125z" />
<glyph unicode="&#x1ed7;" d="M158 451q43 203 204.5 348t350.5 145q184 0 285.5 -144.5t58.5 -348.5q-43 -199 -204 -336.5t-347 -137.5q-182 0 -286.5 136.5t-61.5 337.5zM322 471q-37 -174 28.5 -268t181.5 -94q121 0 226.5 95t142.5 267q37 170 -30.5 259t-186.5 89q-115 0 -220 -88t-142 -260z M422 1075l315 275h123l201 -275h-121l-158 199l-239 -199h-121zM483 1462q27 113 100.5 178.5t151.5 65.5q57 0 121 -51q82 -68 131 -68q76 0 105 119h125q-27 -113 -101 -178.5t-151 -65.5q-57 0 -121 51q-82 68 -131 68q-76 0 -105 -119h-125z" />
<glyph unicode="&#x1ed8;" horiz-adv-x="1507" d="M264 707q70 317 304.5 538t496.5 221q258 0 400.5 -221t74.5 -538q-66 -317 -302.5 -534.5t-496.5 -217.5q-256 0 -400.5 216.5t-76.5 535.5zM455 737q-61 -287 34 -468t283 -181q184 0 358.5 180.5t235.5 468.5q57 266 -43 432t-287 166q-182 0 -354 -165t-227 -433z M573 -410l39 183h183l-39 -183h-183zM754 1507l317 275h123l199 -275h-121l-156 199l-242 -199h-120z" />
<glyph unicode="&#x1ed9;" d="M158 451q43 203 204.5 348t350.5 145q184 0 285.5 -144.5t58.5 -348.5q-43 -199 -204 -336.5t-347 -137.5q-182 0 -286.5 136.5t-61.5 337.5zM322 471q-37 -174 28.5 -268t181.5 -94q121 0 226.5 95t142.5 267q37 170 -30.5 259t-186.5 89q-115 0 -220 -88t-142 -260z M332 -410l39 183h182l-39 -183h-182zM424 1075l330 352h123l182 -352h-121l-143 252l-250 -252h-121z" />
<glyph unicode="&#x1eda;" horiz-adv-x="1507" d="M262 705q70 317 303 538q233 223 498 223q170 0 299 -102l76 57h-45l-4 2l34 168l4 2h166l2 -2l-34 -168l-2 -2l-152 -100q35 -35 59 -78q143 -221 74 -538q-66 -307 -301 -531q-233 -219 -498 -219q-129 0 -234.5 58.5t-168.5 160.5q-142 218 -76 531zM453 739 q-59 -274 32 -463q41 -86 115 -137t170 -51q193 0 367 188q170 188 229 463q51 254 -41 424q-43 80 -119 127t-170 47q-195 0 -362 -174q-170 -174 -221 -424zM825 1528l412 250h227l-456 -250h-183z" />
<glyph unicode="&#x1edb;" d="M158 449q43 207 204 350q162 145 349 145q143 0 241 -94l80 59h-45v2l35 168l2 2h166l2 -2l-35 -168l-164 -108l4 -4q100 -143 58 -350q-41 -193 -203 -334q-164 -137 -346 -138q-184 0 -289 138q-102 139 -59 334zM322 473q-35 -160 24 -262q55 -102 186 -102 q133 0 232 102q98 96 135 262q33 156 -27 248q-59 98 -188 98q-131 0 -229 -98q-102 -96 -133 -248zM541 1079l346 342h160l-381 -342h-125z" />
<glyph unicode="&#x1edc;" horiz-adv-x="1507" d="M262 705q70 317 303 538q233 223 498 223q170 0 299 -102l76 57h-45l-4 2l34 168l4 2h166l2 -2l-34 -168l-2 -2l-152 -100q35 -35 59 -78q143 -221 74 -538q-66 -307 -301 -531q-233 -219 -498 -219q-129 0 -234.5 58.5t-168.5 160.5q-142 218 -76 531zM453 739 q-59 -274 32 -463q41 -86 115 -137t170 -51q193 0 367 188q170 188 229 463q51 254 -41 424q-43 80 -119 127t-170 47q-195 0 -362 -174q-170 -174 -221 -424zM739 1778h228l305 -250h-182z" />
<glyph unicode="&#x1edd;" d="M158 449q43 207 204 350q162 145 349 145q143 0 241 -94l80 59h-45v2l35 168l2 2h166l2 -2l-35 -168l-164 -108l4 -4q100 -143 58 -350q-41 -193 -203 -334q-164 -137 -346 -138q-184 0 -289 138q-102 139 -59 334zM322 473q-35 -160 24 -262q55 -102 186 -102 q133 0 232 102q98 96 135 262q33 156 -27 248q-59 98 -188 98q-131 0 -229 -98q-102 -96 -133 -248zM526 1421h160l199 -342h-125z" />
<glyph unicode="&#x1ede;" horiz-adv-x="1507" d="M262 705q70 317 303 538q233 223 498 223q170 0 299 -102l76 57h-45l-4 2l34 168l4 2h166l2 -2l-34 -168l-2 -2l-152 -100q35 -35 59 -78q143 -221 74 -538q-66 -307 -301 -531q-233 -219 -498 -219q-129 0 -234.5 58.5t-168.5 160.5q-142 218 -76 531zM453 739 q-59 -274 32 -463q41 -86 115 -137t170 -51q193 0 367 188q170 188 229 463q51 254 -41 424q-43 80 -119 127t-170 47q-195 0 -362 -174q-170 -174 -221 -424zM950 1860q88 88 203 88q102 0 150 -41q45 -39 28 -119q-12 -66 -76 -102l-30 -19q-63 -35 -92 -59.5t-35 -59.5 l-8 -39l-5 -2h-53v2l8 39q27 137 152 197q35 18 37 43q10 43 -10 61q-27 18 -82 19q-102 0 -172 -90h-2h-2z" />
<glyph unicode="&#x1edf;" d="M158 449q43 207 204 350q162 145 349 145q143 0 241 -94l80 59h-45v2l35 168l2 2h166l2 -2l-35 -168l-164 -108l4 -4q100 -143 58 -350q-41 -193 -203 -334q-164 -137 -346 -138q-184 0 -289 138q-102 139 -59 334zM322 473q-35 -160 24 -262q55 -102 186 -102 q133 0 232 102q98 96 135 262q33 156 -27 248q-59 98 -188 98q-131 0 -229 -98q-102 -96 -133 -248zM606 1382q88 88 205 88q104 0 147 -40q47 -39 31 -119q-14 -68 -78 -103l-30 -18q-63 -35 -92 -59.5t-35 -59.5l-9 -39l-2 -2h-53l-2 2l8 39q31 137 154 197q31 16 37 43 q10 43 -13 61q-25 18 -81 19q-100 0 -170 -91h-2h-3z" />
<glyph unicode="&#x1ee0;" horiz-adv-x="1507" d="M262 705q70 317 303 538q233 223 498 223q170 0 299 -102l76 57h-45l-4 2l34 168l4 2h166l2 -2l-34 -168l-2 -2l-152 -100q35 -35 59 -78q143 -221 74 -538q-66 -307 -301 -531q-233 -219 -498 -219q-129 0 -234.5 58.5t-168.5 160.5q-142 218 -76 531zM453 739 q-59 -274 32 -463q41 -86 115 -137t170 -51q193 0 367 188q170 188 229 463q51 254 -41 424q-43 80 -119 127t-170 47q-195 0 -362 -174q-170 -174 -221 -424zM733 1507q27 113 101.5 178.5t152.5 65.5q55 0 119 -51q82 -68 131 -68q76 0 106 119h125 q-27 -113 -101.5 -178.5t-152.5 -65.5q-55 0 -118 52q-82 68 -131 67q-76 0 -107 -119h-125z" />
<glyph unicode="&#x1ee1;" d="M158 449q43 207 204 350q162 145 349 145q143 0 241 -94l80 59h-45v2l35 168l2 2h166l2 -2l-35 -168l-164 -108l4 -4q100 -143 58 -350q-41 -193 -203 -334q-164 -137 -346 -138q-184 0 -289 138q-102 139 -59 334zM322 473q-35 -160 24 -262q55 -102 186 -102 q133 0 232 102q98 96 135 262q33 156 -27 248q-59 98 -188 98q-131 0 -229 -98q-102 -96 -133 -248zM412 1128q27 113 100.5 178.5t151.5 65.5q57 0 120 -51q82 -68 131 -68q76 0 105 119h125q-27 -113 -100.5 -178.5t-151.5 -65.5q-53 0 -121 52q-82 68 -131 67 q-76 0 -104 -119h-125z" />
<glyph unicode="&#x1ee2;" horiz-adv-x="1507" d="M262 705q70 317 303 538q233 223 498 223q170 0 299 -102l76 57h-45l-4 2l34 168l4 2h166l2 -2l-34 -168l-2 -2l-152 -100q35 -35 59 -78q143 -221 74 -538q-66 -307 -301 -531q-233 -219 -498 -219q-129 0 -234.5 58.5t-168.5 160.5q-142 218 -76 531zM453 739 q-59 -274 32 -463q41 -86 115 -137t170 -51q193 0 367 188q170 188 229 463q51 254 -41 424q-43 80 -119 127t-170 47q-195 0 -362 -174q-170 -174 -221 -424zM573 -410l39 183h183l-39 -183h-183z" />
<glyph unicode="&#x1ee3;" d="M158 449q43 207 204 350q162 145 349 145q143 0 241 -94l80 59h-45v2l35 168l2 2h166l2 -2l-35 -168l-164 -108l4 -4q100 -143 58 -350q-41 -193 -203 -334q-164 -137 -346 -138q-184 0 -289 138q-102 139 -59 334zM322 473q-35 -160 24 -262q55 -102 186 -102 q133 0 232 102q98 96 135 262q33 156 -27 248q-59 98 -188 98q-131 0 -229 -98q-102 -96 -133 -248zM332 -410l39 183h182l-39 -183h-182z" />
<glyph unicode="&#x1ee4;" horiz-adv-x="1409" d="M295 477l201 944h182l-203 -946q-41 -195 36 -300t214 -105q139 0 264 106.5t166 298.5l203 946h160l-201 -944q-47 -221 -228.5 -371.5t-390.5 -150.5q-211 0 -331.5 150.5t-71.5 371.5zM524 -410l39 183h182l-38 -183h-183z" />
<glyph unicode="&#x1ee5;" horiz-adv-x="1058" d="M213 223l145 686h160l-143 -678q-16 -76 6 -108.5t123 -32.5q104 0 188 58.5t107 166.5l125 594h159l-192 -909h-154l21 98q-164 -121 -379 -121q-121 0 -156 62.5t-10 183.5zM348 -410l39 183h182l-39 -183h-182z" />
<glyph unicode="&#x1ee6;" horiz-adv-x="1409" d="M295 477l201 944h182l-203 -946q-41 -195 36 -300t214 -105q139 0 264 106.5t166 298.5l203 946h160l-201 -944q-47 -221 -228.5 -371.5t-390.5 -150.5q-211 0 -331.5 150.5t-71.5 371.5zM901 1860q88 88 203 88q102 0 149 -41q45 -39 29 -119q-12 -66 -76 -102l-30 -19 q-63 -35 -92 -59.5t-35 -59.5l-9 -39l-4 -2h-53v2l8 39q27 137 152 197q35 18 37 43q10 43 -11 61q-27 18 -82 19q-102 0 -172 -90h-2h-2z" />
<glyph unicode="&#x1ee7;" horiz-adv-x="1058" d="M213 223l145 686h160l-143 -678q-16 -76 6 -108.5t123 -32.5q104 0 188 58.5t107 166.5l125 594h159l-192 -909h-154l21 98q-164 -121 -379 -121q-121 0 -156 62.5t-10 183.5zM623 1382q88 88 204 88q104 0 148 -40q47 -39 31 -119q-14 -68 -78 -103l-31 -18 q-63 -35 -92 -59.5t-35 -59.5l-8 -39l-2 -2h-53l-2 2l8 39q31 137 153 197q31 16 37 43q10 43 -12 61q-25 18 -82 19q-100 0 -170 -91h-2h-2z" />
<glyph unicode="&#x1ee8;" horiz-adv-x="1406" d="M293 473l203 948h182l-203 -948q-39 -178 29 -291q70 -115 217 -114q150 0 274 114q121 117 158 291l203 948h157l-14 -65l94 65h-45l-2 2l35 168l2 2h166l2 -2l-35 -168v-2l-235 -147l-170 -801q-45 -215 -226 -367q-178 -152 -389 -151.5t-329 151.5q-119 150 -74 367z M776 1528l412 250h227l-457 -250h-182z" />
<glyph unicode="&#x1ee9;" horiz-adv-x="1114" d="M211 225l145 684h160l-145 -684q-16 -78 12 -106q33 -29 133 -29q96 0 178 61.5t101 147.5l129 610h159l-12 -65l92 65h-47v2l35 168l2 2h168l2 -2l-35 -168l-235 -149l-162 -762h-154l21 98q-156 -121 -385 -121q-113 0 -150 60q-39 63 -12 188zM557 1079l346 342h160 l-381 -342h-125z" />
<glyph unicode="&#x1eea;" horiz-adv-x="1406" d="M293 473l203 948h182l-203 -948q-39 -178 29 -291q70 -115 217 -114q150 0 274 114q121 117 158 291l203 948h157l-14 -65l94 65h-45l-2 2l35 168l2 2h166l2 -2l-35 -168v-2l-235 -147l-170 -801q-45 -215 -226 -367q-178 -152 -389 -151.5t-329 151.5q-119 150 -74 367z M690 1778h228l305 -250h-183z" />
<glyph unicode="&#x1eeb;" horiz-adv-x="1114" d="M211 225l145 684h160l-145 -684q-16 -78 12 -106q33 -29 133 -29q96 0 178 61.5t101 147.5l129 610h159l-12 -65l92 65h-47v2l35 168l2 2h168l2 -2l-35 -168l-235 -149l-162 -762h-154l21 98q-156 -121 -385 -121q-113 0 -150 60q-39 63 -12 188zM543 1421h159l199 -342 h-125z" />
<glyph unicode="&#x1eec;" horiz-adv-x="1406" d="M293 473l203 948h182l-203 -948q-39 -178 29 -291q70 -115 217 -114q150 0 274 114q121 117 158 291l203 948h157l-14 -65l94 65h-45l-2 2l35 168l2 2h166l2 -2l-35 -168v-2l-235 -147l-170 -801q-45 -215 -226 -367q-178 -152 -389 -151.5t-329 151.5q-119 150 -74 367z M901 1860q88 88 203 88q102 0 149 -41q45 -39 29 -119q-12 -66 -76 -102l-30 -19q-63 -35 -92 -59.5t-35 -59.5l-9 -39l-4 -2h-53v2l8 39q27 137 152 197q35 18 37 43q10 43 -11 61q-27 18 -82 19q-102 0 -172 -90h-2h-2z" />
<glyph unicode="&#x1eed;" horiz-adv-x="1114" d="M211 225l145 684h160l-145 -684q-16 -78 12 -106q33 -29 133 -29q96 0 178 61.5t101 147.5l129 610h159l-12 -65l92 65h-47v2l35 168l2 2h168l2 -2l-35 -168l-235 -149l-162 -762h-154l21 98q-156 -121 -385 -121q-113 0 -150 60q-39 63 -12 188zM623 1382q88 88 204 88 q104 0 148 -40q47 -39 31 -119q-14 -68 -78 -103l-31 -18q-63 -35 -92 -59.5t-35 -59.5l-8 -39l-2 -2h-53l-2 2l8 39q31 137 153 197q31 16 37 43q10 43 -12 61q-25 18 -82 19q-100 0 -170 -91h-2h-2z" />
<glyph unicode="&#x1eee;" horiz-adv-x="1406" d="M293 473l203 948h182l-203 -948q-39 -178 29 -291q70 -115 217 -114q150 0 274 114q121 117 158 291l203 948h157l-14 -65l94 65h-45l-2 2l35 168l2 2h166l2 -2l-35 -168v-2l-235 -147l-170 -801q-45 -215 -226 -367q-178 -152 -389 -151.5t-329 151.5q-119 150 -74 367z M684 1507q27 113 101.5 178.5t152.5 65.5q55 0 119 -51q82 -68 131 -68q76 0 106 119h125q-27 -113 -101.5 -178.5t-152.5 -65.5q-55 0 -118 52q-82 68 -132 67q-76 0 -106 -119h-125z" />
<glyph unicode="&#x1eef;" horiz-adv-x="1114" d="M211 225l145 684h160l-145 -684q-16 -78 12 -106q33 -29 133 -29q96 0 178 61.5t101 147.5l129 610h159l-12 -65l92 65h-47v2l35 168l2 2h168l2 -2l-35 -168l-235 -149l-162 -762h-154l21 98q-156 -121 -385 -121q-113 0 -150 60q-39 63 -12 188zM428 1128 q27 113 100.5 178.5t151.5 65.5q57 0 121 -51q82 -68 131 -68q76 0 104 119h125q-27 -113 -100.5 -178.5t-151.5 -65.5q-53 0 -121 52q-82 68 -131 67q-76 0 -104 -119h-125z" />
<glyph unicode="&#x1ef0;" horiz-adv-x="1406" d="M293 473l203 948h182l-203 -948q-39 -178 29 -291q70 -115 217 -114q150 0 274 114q121 117 158 291l203 948h157l-14 -65l94 65h-45l-2 2l35 168l2 2h166l2 -2l-35 -168v-2l-235 -147l-170 -801q-45 -215 -226 -367q-178 -152 -389 -151.5t-329 151.5q-119 150 -74 367z M524 -410l39 183h182l-38 -183h-183z" />
<glyph unicode="&#x1ef1;" horiz-adv-x="1114" d="M211 225l145 684h160l-145 -684q-16 -78 12 -106q33 -29 133 -29q96 0 178 61.5t101 147.5l129 610h159l-12 -65l92 65h-47v2l35 168l2 2h168l2 -2l-35 -168l-235 -149l-162 -762h-154l21 98q-156 -121 -385 -121q-113 0 -150 60q-39 63 -12 188zM377 -410l39 183h182 l-39 -183h-182z" />
<glyph unicode="&#x1ef2;" horiz-adv-x="1366" d="M309 1421h215l279 -594q2 -2 49 -116l166 194l45 53l418 463h180l-770 -854l-121 -567h-176l121 569zM668 1778h227l305 -250h-182z" />
<glyph unicode="&#x1ef3;" horiz-adv-x="944" d="M2 -403l16 133q74 -33 154 -33q20 0 32.5 4t42 31.5t66.5 83.5l113 184l-205 909h162l57 -256q86 -391 70 -536h2q37 141 440 792h154l-678 -1095q-88 -141 -152.5 -187.5t-130.5 -46.5q-73 1 -143 17zM487 1421h160l199 -342h-125z" />
<glyph unicode="&#x1ef4;" horiz-adv-x="1366" d="M309 1421h215l279 -594q2 -2 49 -116l166 194l45 53l418 463h180l-770 -854l-121 -567h-176l121 569zM502 -410l39 183h182l-39 -183h-182z" />
<glyph unicode="&#x1ef5;" horiz-adv-x="944" d="M2 -403l16 133q74 -33 154 -33q20 0 32.5 4t42 31.5t66.5 83.5l113 184l-205 909h162l57 -256q86 -391 70 -536h2q37 141 440 792h154l-678 -1095q-88 -141 -152.5 -187.5t-130.5 -46.5q-73 1 -143 17zM528 -410l39 183h183l-39 -183h-183z" />
<glyph unicode="&#x1ef6;" horiz-adv-x="1366" d="M309 1421h215l279 -594q2 -2 49 -116l166 194l45 53l418 463h180l-770 -854l-121 -567h-176l121 569zM879 1860q88 88 202 88q102 0 150 -41q45 -39 29 -119q-12 -66 -76 -102l-31 -19q-63 -35 -92 -59.5t-35 -59.5l-8 -39l-4 -2h-53v2l8 39q27 137 151 197q35 18 37 43 q10 43 -10 61q-27 18 -82 19q-102 0 -172 -90h-2h-2z" />
<glyph unicode="&#x1ef7;" horiz-adv-x="944" d="M2 -403l16 133q74 -33 154 -33q20 0 32.5 4t42 31.5t66.5 83.5l113 184l-205 909h162l57 -256q86 -391 70 -536h2q37 141 440 792h154l-678 -1095q-88 -141 -152.5 -187.5t-130.5 -46.5q-73 1 -143 17zM567 1382q88 88 205 88q104 0 148 -40q47 -39 30 -119 q-14 -68 -78 -103l-30 -18q-63 -35 -92 -59.5t-35 -59.5l-8 -39l-2 -2h-54l-2 2l8 39q31 137 154 197q31 16 37 43q10 43 -12 61q-25 18 -82 19q-100 0 -170 -91h-2h-2z" />
<glyph unicode="&#x1ef8;" horiz-adv-x="1366" d="M309 1421h215l279 -594q2 -2 49 -116l166 194l45 53l418 463h180l-770 -854l-121 -567h-176l121 569zM662 1507q27 113 101.5 178.5t151.5 65.5q55 0 119 -51q82 -68 131 -68q76 0 107 119h125q-27 -113 -101.5 -178.5t-152.5 -65.5q-55 0 -119 52q-82 68 -131 67 q-76 0 -107 -119h-124z" />
<glyph unicode="&#x1ef9;" horiz-adv-x="944" d="M2 -403l16 133q74 -33 154 -33q20 0 32.5 4t42 31.5t66.5 83.5l113 184l-205 909h162l57 -256q86 -391 70 -536h2q37 141 440 792h154l-678 -1095q-88 -141 -152.5 -187.5t-130.5 -46.5q-73 1 -143 17zM373 1128q27 113 100.5 178.5t151.5 65.5q57 0 120 -51 q82 -68 132 -68q76 0 104 119h125q-27 -113 -100.5 -178.5t-151.5 -65.5q-53 0 -121 52q-82 68 -131 67q-76 0 -104 -119h-125z" />
<glyph unicode="&#x2000;" horiz-adv-x="1181" />
<glyph unicode="&#x2001;" horiz-adv-x="2363" />
<glyph unicode="&#x2002;" horiz-adv-x="1181" />
<glyph unicode="&#x2003;" horiz-adv-x="2363" />
<glyph unicode="&#x2004;" horiz-adv-x="786" />
<glyph unicode="&#x2005;" horiz-adv-x="589" />
<glyph unicode="&#x2006;" horiz-adv-x="393" />
<glyph unicode="&#x2007;" horiz-adv-x="393" />
<glyph unicode="&#x2008;" horiz-adv-x="294" />
<glyph unicode="&#x2009;" horiz-adv-x="471" />
<glyph unicode="&#x200a;" horiz-adv-x="131" />
<glyph unicode="&#x2010;" horiz-adv-x="681" d="M154 395l24 119h543l-25 -119h-542z" />
<glyph unicode="&#x2011;" horiz-adv-x="681" d="M154 395l24 119h543l-25 -119h-542z" />
<glyph unicode="&#x2012;" horiz-adv-x="681" d="M106 395l25 119h543l-25 -119h-543z" />
<glyph unicode="&#x2013;" d="M106 500l27 125h1022l-27 -125h-1022z" />
<glyph unicode="&#x2014;" horiz-adv-x="2048" d="M106 500l27 125h2046l-27 -125h-2046z" />
<glyph unicode="&#x2016;" horiz-adv-x="815" d="M150 -444l405 1912q14 68 55 68t27 -68l-406 -1912q-14 -68 -54.5 -68t-26.5 68zM395 -444l406 1912q14 68 55 68t27 -68l-406 -1912q-14 -68 -55 -68t-27 68z" />
<glyph unicode="&#x2018;" horiz-adv-x="569" d="M410 995l36 168l142 258h84l-107 -256h51l-36 -170h-170z" />
<glyph unicode="&#x2019;" horiz-adv-x="569" d="M410 995l106 256h-51l37 170h170l-37 -168l-141 -258h-84z" />
<glyph unicode="&#x201a;" horiz-adv-x="569" d="M145 -254l105 256h-51l37 170h170l-37 -168l-140 -258h-84z" />
<glyph unicode="&#x201c;" horiz-adv-x="966" d="M410 995l36 168l142 258h84l-107 -256h51l-36 -170h-170zM807 995l37 168l141 258h84l-106 -256h51l-37 -170h-170z" />
<glyph unicode="&#x201d;" horiz-adv-x="966" d="M412 995l106 256h-51l37 170h170l-37 -168l-141 -258h-84zM809 995l106 256h-51l37 170h170l-37 -168l-141 -258h-84z" />
<glyph unicode="&#x201e;" horiz-adv-x="966" d="M147 -254l105 256h-51l37 170h170l-37 -168l-140 -258h-84zM545 -254l104 256h-51l37 170h170l-37 -168l-139 -258h-84z" />
<glyph unicode="&#x2020;" horiz-adv-x="909" d="M303 883q14 68 90 67q49 0 135 -28q61 -16 99 -21q12 78 22 219q6 147 25 240q18 84 87.5 84t49.5 -84q-8 -37 -70 -227q-51 -133 -75 -232q35 4 102 21q104 29 152 28q76 0 59 -69q-14 -68 -90 -68q-49 0 -135 29q-61 16 -99 20q-10 -92 -10 -145q-2 -152 -29 -271 q-47 -223 -131 -536q-51 -201 -90 -316q-6 -14 -7 -17t-5 -10t-10 -8t-15 -1q-25 0 -18 41q59 473 139 847q31 133 88 273q31 76 49 143q-35 -4 -102 -20q-104 -29 -152 -29q-75 0 -59 70z" />
<glyph unicode="&#x2021;" horiz-adv-x="909" d="M125 45q4 25 26.5 46.5t57.5 21.5q49 0 110 -19q84 -25 130 -28q14 104 10 147q4 160 18 217q16 80 86 80q68 0 51 -80q-10 -53 -59 -172q-51 -131 -68 -192q49 4 117 24q92 23 146 23q31 0 44 -19.5t9 -48.5q-18 -68 -84 -68q-47 0 -111 19q-86 25 -129 29 q-12 -74 -12 -148q-4 -160 -16 -217q-16 -80 -89 -80q-68 0 -49 80q10 53 60 172q63 176 67 193q-47 -6 -135 -27q-61 -20 -125 -21q-35 0 -48 20.5t-7 47.5zM324 979q14 68 90 68q49 0 135 -29q61 -16 98 -21q6 47 15 195q0 115 14 172q16 80 84 80q66 0 53 -80 q-12 -55 -72 -207q-39 -92 -55 -160q35 4 102 21q104 29 152 29q76 0 59 -70q-14 -68 -90 -68q-49 0 -135 29q-61 16 -98 20q-6 -47 -14 -194q0 -115 -15 -172q-16 -80 -86 -80q-68 0 -51 80q12 55 72 207q39 92 55 159q-35 -4 -102 -20q-104 -29 -152 -29q-75 0 -59 70z " />
<glyph unicode="&#x2022;" horiz-adv-x="1593" d="M557 248l125 586h586l-125 -586h-586z" />
<glyph unicode="&#x2026;" horiz-adv-x="1282" d="M201 0l37 170h170l-37 -170h-170zM557 0l37 170h170l-37 -170h-170zM913 0l37 170h170l-37 -170h-170z" />
<glyph unicode="&#x202f;" horiz-adv-x="471" />
<glyph unicode="&#x2030;" horiz-adv-x="2363" d="M279 -74l22 37l1219 1540q27 33 49 33q16 0 26.5 -12.5t6.5 -28.5q-4 -14 -25 -37l-1217 -1540q-23 -33 -49 -33q-16 0 -25 12.5t-7 28.5zM369 1124q37 176 147.5 294t224.5 118q113 0 172.5 -118t20.5 -296q-37 -174 -145.5 -292.5t-221 -118.5t-175 117.5t-23.5 295.5z M504 985q0 -57 9 -85t28.5 -44t30 -18t22.5 -2q59 0 116.5 84t84.5 204q25 113 2 200t-82 87q-12 0 -25.5 -3t-38 -20.5t-46 -46t-45 -85t-40.5 -134.5q-16 -80 -16 -137zM1020 299q37 176 148.5 294t226.5 118q111 0 170 -118t22 -296q-37 -174 -146.5 -293t-222 -119 t-174 118t-24.5 296zM1157 159.5q0 -57.5 9.5 -85t27.5 -44t28.5 -18.5t22.5 -2q59 0 117.5 85t83.5 204q27 113 4 200t-82 87q-12 0 -25.5 -3t-38 -20.5t-46 -46.5t-45 -85t-39.5 -134q-17 -80 -17 -137.5zM1731 299q37 176 148.5 294t225.5 118q111 0 170.5 -118 t22.5 -296q-37 -174 -146.5 -293t-222 -119t-174 118t-24.5 296zM1868 159.5q0 -57.5 9 -85t27.5 -44t29 -18.5t22.5 -2q59 0 117.5 85t83.5 204q27 113 4 200t-82 87q-12 0 -25.5 -3t-38 -20.5t-46 -46.5t-45 -85t-40.5 -134q-16 -80 -16 -137.5z" />
<glyph unicode="&#x2031;" horiz-adv-x="3012" d="M264 -74l23 37l1218 1540q27 33 49 33q16 0 26.5 -12.5t6.5 -28.5q-4 -14 -24 -37l-1217 -1540q-23 -33 -49 -33q-16 0 -25.5 12.5t-7.5 28.5zM354 1124q37 176 147.5 294t225.5 118q113 0 172 -118t21 -296q-37 -174 -145.5 -292.5t-221.5 -118.5t-175.5 117.5 t-23.5 295.5zM489 985q0 -57 9.5 -85t29 -44t29.5 -18t23 -2q59 0 116.5 84t83.5 204q25 113 2.5 200t-82.5 87q-12 0 -25 -3t-38 -20.5t-46.5 -46t-45 -85t-39.5 -134.5q-17 -80 -17 -137zM1006 299q37 176 148.5 294t225.5 118q111 0 170.5 -118t22.5 -296 q-37 -174 -146.5 -293t-222 -119t-174 118t-24.5 296zM1143 159.5q0 -57.5 9 -85t27.5 -44t29 -18.5t22.5 -2q59 0 117.5 85t83.5 204q27 113 4 200t-82 87q-12 0 -25.5 -3t-38 -20.5t-46 -46.5t-45 -85t-40.5 -134q-16 -80 -16 -137.5zM1716 299q37 176 148.5 294 t226.5 118q111 0 170 -118t23 -296q-37 -174 -146.5 -293t-222.5 -119t-174.5 118t-24.5 296zM1853 159.5q0 -57.5 9.5 -85t28 -44t28.5 -18.5t23 -2q59 0 117.5 85t82.5 204q27 113 4.5 200t-82.5 87q-12 0 -25.5 -3t-38 -20.5t-46 -46.5t-45 -85t-39.5 -134 q-17 -80 -17 -137.5zM2427 299q37 176 148.5 294t226.5 118q111 0 170 -118t22 -296q-37 -174 -146.5 -293t-222 -119t-174 118t-24.5 296zM2564 159.5q0 -57.5 9.5 -85t27.5 -44t28.5 -18.5t22.5 -2q59 0 117.5 85t83.5 204q27 113 4 200t-82 87q-12 0 -25.5 -3t-38 -20.5 t-46 -46.5t-45 -85t-40.5 -134q-16 -80 -16 -137.5z" />
<glyph unicode="&#x2039;" horiz-adv-x="681" d="M324 449l309 450h125l-275 -450l84 -449h-125z" />
<glyph unicode="&#x203a;" horiz-adv-x="681" d="M115 0l276 449l-86 450h125l121 -450l-311 -449h-125z" />
<glyph unicode="&#x203b;" horiz-adv-x="1593" d="M316.5 66.5q11.5 17.5 39.5 39.5l492 406l-320 406q-39 49 -4 77q39 31 74 -18l320 -406l489 404q57 47 82 18q14 -18 3 -35.5t-40 -39.5l-489 -406l319 -406q37 -47 2 -75.5t-72 18.5l-319 406l-492 -406q-57 -47 -82 -18q-14 18 -2.5 35.5zM410 512q6 31 31.5 51.5 t56 20.5t46 -20.5t9.5 -51.5q-6 -29 -30.5 -50.5t-55.5 -21.5q-29 0 -46 21.5t-11 50.5zM743 90q6 29 33 50.5t55.5 21.5t45 -21.5t10.5 -50.5q-6 -31 -32 -51.5t-54.5 -20.5t-46 20.5t-11.5 51.5zM924 936q6 29 32.5 50.5t55 21.5t45 -21.5t10.5 -50.5t-31.5 -50.5 t-54.5 -21.5t-46 21.5t-11 50.5zM1255 512q6 31 32 51.5t56.5 20.5t46 -20.5t9.5 -51.5q-6 -29 -31 -50.5t-55 -21.5q-29 0 -46.5 21.5t-11.5 50.5z" />
<glyph unicode="&#x203d;" horiz-adv-x="966" d="M373 1335q170 90 350 107l8 45h135l-10 -47q137 -18 184 -104.5t23 -209.5q-31 -145 -154 -245q-203 -170 -256 -406l-24 -117h-137l14 66q23 98 47 164l143 727q-158 -16 -305 -109zM399 0l37 170h170l-37 -170h-170zM733 895q47 51 76 74q74 66 94 161q33 156 -76 183z " />
<glyph unicode="&#x203f;" horiz-adv-x="1222" d="M133 -143h160q-4 -37 20.5 -62.5t70.5 -38t89 -17.5t88 -5q96 0 191.5 27.5t115.5 95.5h160q-16 -68 -73.5 -120t-134.5 -80t-152.5 -41t-145.5 -13q-66 0 -134.5 13t-133 41t-99 80t-22.5 120z" />
<glyph unicode="&#x2040;" horiz-adv-x="1222" d="M412 1163q14 68 71.5 120t135 80t153.5 41t146 13q66 0 134 -13t132.5 -41t99.5 -80t23 -120h-160q6 47 -43 77t-106.5 38t-120.5 8q-96 0 -191.5 -27.5t-114.5 -95.5h-159z" />
<glyph unicode="&#x2044;" horiz-adv-x="1142" d="M123 41l1104 1339h94l-1104 -1339h-94z" />
<glyph unicode="&#x2045;" horiz-adv-x="739" d="M96 -240l92 435q27 129 142.5 223t240.5 94l2 4q-47 0 -108 27q-186 82 -141 299q12 45 16 67l74 344q18 96 57 144q119 141 487 141l-26 -125q-14 0 -46 1t-48 1q-229 0 -260 -141l-78 -367q-2 -16 -17 -65q-29 -133 55.5 -198.5t213.5 -65.5l-27 -127 q-135 0 -242.5 -68t-136.5 -201l-94 -444q-25 -113 25.5 -179.5t152.5 -66.5h92l-26 -125q-193 0 -317 99t-83 294z" />
<glyph unicode="&#x2046;" horiz-adv-x="739" d="M2 -510l27 125q16 0 44.5 -1t45.5 -1q231 0 260 141l94 434q27 131 -54 197t-214 66l26 127q150 0 252.5 71.5t126.5 190.5l92 434q10 47 -5 77.5t-52 43t-67.5 16.5t-75.5 4q-14 0 -45 -1t-45 -1l26 125q365 0 424 -141q16 -43 -4 -144l-88 -413q-29 -131 -141.5 -227.5 t-243.5 -96.5l-2 -4q49 0 106 -27q92 -33 128 -113.5t14 -185.5l-86 -411q-25 -100 -58 -144q-118 -141 -485 -141z" />
<glyph unicode="&#x2052;" d="M125 45q2 14 16.5 35.5t35 48.5t26.5 37l913 1296l29 39q16 31 39 35l14 2q16 0 24.5 -13.5t4.5 -29.5q-2 -16 -60 -90l-194 -275l-168 -239l-391 -557l-207 -293q-29 -37 -49 -39h-2q-18 0 -26.5 12.5t-4.5 30.5zM438 1335l29 142q12 49 45 59q10 2 29 2h141 q53 0 41 -51l-35 -168q-16 -35 -65 -35h-144q-53 0 -41 51zM627 53l28 142q12 49 45 59q10 2 29 2h141q53 0 41 -51l-34 -168q-16 -35 -66 -35h-143q-53 0 -41 51z" />
<glyph unicode="&#x2054;" horiz-adv-x="1222" d="M80 -397q14 68 71.5 120t135.5 79.5t153.5 41t145.5 13.5q66 0 134 -13.5t133 -41t99.5 -80t22.5 -119.5h-160q6 47 -43 76.5t-106.5 38t-120.5 8.5q-96 0 -191.5 -28t-113.5 -95h-160z" />
<glyph unicode="&#x205f;" horiz-adv-x="589" />
<glyph unicode="&#x20a1;" horiz-adv-x="1308" d="M289 711q55 262 242.5 471t429.5 266l36 170h131l-32 -152h22q186 0 361 -71l-66 -166q-145 106 -323 106h-21l-266 -1249h26q113 0 199 24.5t209 100.5l-18 -141q-125 -68 -210 -91.5t-210 -23.5h-25l-31 -152h-131l35 170q-217 59 -315 268.5t-43 469.5zM471 711 q-43 -199 11.5 -366t195.5 -230l254 1192q-164 -61 -291 -226t-170 -370z" />
<glyph unicode="&#x20a4;" horiz-adv-x="1366" d="M172 86q258 246 322 426h-248l28 131h246v25q0 14 -4 39l-10 71h-203l27 131h157q6 199 161 355.5t349 156.5q166 0 255 -121.5t53 -293.5h-160q23 104 -29.5 180t-152.5 76q-123 0 -218.5 -102.5t-93.5 -231.5v-19h361l-27 -131h-309l2 -16q2 -8 4 -26.5t2 -26.5 q0 -43 -2 -66h274l-28 -131h-273l-4 -8q-45 -143 -176 -305q104 0 322 -56q92 -29 172 -28q59 0 104 56t60 132h159q-29 -141 -131 -244.5t-227 -103.5q-88 0 -209 33q-109 29 -171 41t-148.5 6t-131.5 -51z" />
<glyph unicode="&#x20a6;" horiz-adv-x="1449" d="M197 0l108 512h-88l29 131h88l28 135h-88l27 131h88l111 512h254l147 -512h383l111 512h159l-110 -512h88l-27 -131h-88l-28 -135h88l-29 -131h-88l-109 -512h-254l-149 512h-383l-109 -512h-159zM494 643h317l-41 135h-248zM549 909h182l-24 86l-78 281h-2zM940 778 l39 -135h250l28 135h-317zM1018 512l24 -86l78 -281h2l78 367h-182z" />
<glyph unicode="&#x20a9;" horiz-adv-x="1933" d="M137 512l29 131h227l-10 135h-188l26 131h150l-39 512h176l37 -512h391l258 512h166l37 -512h403l258 512h148l-260 -512h149l-27 -131h-188l-68 -135h228l-29 -131h-266l-258 -512h-178l-39 512h-404l-256 -512h-166l-41 512h-266zM555 778l10 -135h240l65 135h-315z M573 502q10 -315 7 -350h2q29 94 157 360h-166v-10zM934 643h328l-11 135h-250l-34 -67zM1065 909h176q-16 274 -10 363h-2q-33 -99 -164 -363zM1407 778l4 -55l6 -80h250l68 135h-328zM1425 512q8 -129 10.5 -220t2.5 -118l-2 -27h2q23 70 164 365h-177z" />
<glyph unicode="&#x20ab;" horiz-adv-x="1058" d="M41 -131l29 131h925l-28 -131h-926zM176 504q41 188 169 320t271 132q158 0 263 -106l57 266h-295l27 125h295l38 180h146l-39 -180h152l-27 -125h-152l-223 -1044h-151l22 100q-154 -123 -313 -123q-139 0 -209 131t-31 324zM328 502q-35 -166 26.5 -250t165.5 -84 q80 0 156 55q80 59 88 119l84 389q-53 106 -166 107q-47 0 -97 -17.5t-101.5 -54.5t-93.5 -105.5t-62 -158.5z" />
<glyph unicode="&#x20ac;" horiz-adv-x="1226" d="M215 522l45 115h129q8 49 14 74q6 37 19 73h-150l43 115h146q78 197 221 346q211 221 442 221q156 0 275 -69l-66 -170q-82 109 -235 108q-160 0 -310 -182q-94 -115 -147 -254h565l-45 -115h-559q-12 -37 -18 -73q-6 -25 -15 -74h535l-45 -115h-500q-4 -139 41 -254 q76 -182 231 -182q106 0 172 25.5t154 101.5l-18 -143q-96 -70 -163 -92.5t-173 -22.5q-115 0 -205 60.5t-143 160.5q-80 150 -74 346h-166z" />
<glyph unicode="&#x20b1;" horiz-adv-x="1308" d="M102 291l29 131h156l213 999h510q207 0 319.5 -122.5t77.5 -290.5q-37 -172 -203 -294t-358 -122h-342l-35 -170h274l-28 -131h-275l-61 -291h-182l61 291h-156zM524 711h289q170 0 285.5 85t142.5 212q29 133 -53 216t-248 83h-289z" />
<glyph unicode="&#x2103;" horiz-adv-x="1763" d="M256 1196q18 88 89 152.5t163 74.5h18q100 0 151.5 -66.5t31.5 -158.5q-18 -88 -90 -153.5t-162 -75.5h-19q-102 0 -152 66.5t-30 160.5zM334 1182q-2 -59 30.5 -95t86.5 -36q59 0 111 43t65 102l4 14q2 57 -32 94t-89 37q-57 0 -109.5 -44t-64.5 -101zM741 711 q63 299 302 528t530 229q193 0 360 -71l-63 -168q-16 6 -41 26q-143 82 -285 82q-117 0 -225.5 -57t-186 -150.5t-132 -201t-76.5 -213.5q-27 -106 -14.5 -218t49 -202t119.5 -148.5t198 -58.5q156 0 252 41q47 18 164 86q-2 -16 -6.5 -60t-8.5 -69q-2 -12 -22 -25l-35 -18 q-174 -86 -375 -86q-197 0 -329 113.5t-173 285t-2 355.5z" />
<glyph unicode="&#x2116;" horiz-adv-x="1677" d="M195 0l303 1423h258l61 -1124l-8 -154l272 1278h162l-303 -1423h-256l-59 907q-12 231 2 373l-273 -1280h-159zM1169 328l27 121h414l-27 -121h-414zM1270 819q25 115 99.5 206t174.5 91q98 0 134 -95t14 -202q-20 -100 -96 -189t-174.5 -89t-135 88t-16.5 190zM1403 821 q-33 -145 47 -145q39 0 66.5 44t39.5 101q18 57 14.5 113.5t-53 56.5t-74 -46t-40.5 -124z" />
<glyph unicode="&#x2117;" horiz-adv-x="1421" d="M151.5 711q63.5 295 315.5 502.5t547 207.5t458.5 -207.5t100 -502.5t-315 -503t-546.5 -208t-459 208t-100.5 503zM229 711q-57 -262 89.5 -447.5t408.5 -185.5t486.5 185.5t281.5 447.5q55 262 -91.5 447t-408.5 185t-486.5 -185t-279.5 -447zM489 264l191 895h321 q131 0 203 -77.5t47 -182.5q-23 -109 -127 -185.5t-225 -76.5h-215l-80 -373h-115zM696 711h183q109 0 180 54t88 134q18 82 -33 134t-156 52h-182z" />
<glyph unicode="&#x211e;" horiz-adv-x="1323" d="M197 0l303 1421h493q217 0 342 -113.5t92 -267.5q-27 -125 -142.5 -225t-285.5 -147l117 -291l166 127l68 -96l-191 -146l105 -262h-183l-59 156l-180 -140l-70 99l205 155l-143 379h-324l-137 -649h-176zM537 774h294q174 0 290 76t141 190q25 113 -59.5 190t-256.5 77 h-295z" />
<glyph unicode="&#x2120;" horiz-adv-x="1757" d="M180 600l41 100q98 -100 242 -100q80 0 141.5 49t73.5 113q16 72 -27 115q-20 23 -41.5 32t-97.5 27q-43 12 -64.5 19.5t-49 24.5t-46.5 44q-49 70 -33 156q20 96 113.5 168.5t216.5 72.5q121 0 211 -61l-39 -98q-76 80 -190 79q-82 0 -140.5 -44t-70.5 -103 q-12 -51 22 -96q31 -33 115 -54q88 -23 124 -41t69 -61q49 -70 26 -168q-23 -104 -116 -181t-211 -77q-152 0 -269 84zM850 543l182 852h139l21 -107l84 -508q12 -106 12 -123h2q27 61 183 322l247 416h142l-183 -852h-96l162 762h-2q-4 -12 -20.5 -41t-36 -64t-25.5 -47 l-92 -156l-254 -428h-90l-80 478q-39 195 -35 258h-2l-162 -762h-96z" />
<glyph unicode="&#x2122;" horiz-adv-x="1910" d="M330 1341l18 80h746l-19 -80h-164q-6 0 -21.5 1t-23.5 1h-108l-162 -765h-109l162 765h-110q-8 0 -23.5 -1t-21.5 -1h-164zM1036 578l181 852h139l20 -107l84 -510q10 -59 15 -123h2q20 47 180 324l248 416h141l-180 -852h-97l162 761h-2q-14 -33 -84 -151l-92 -156 l-252 -428h-90l-82 477q-35 207 -33 258h-2l-161 -761h-97z" />
<glyph unicode="&#x2126;" horiz-adv-x="1478" d="M90 0l31 145h174q12 0 36.5 -1t37.5 -1h108q-4 111 -76 306q-27 68 -40 106.5t-29.5 96t-22.5 99.5t-5 94t11 101q47 215 260 367.5t476 152.5q260 0 409.5 -152.5t102.5 -367.5q-16 -80 -63.5 -169t-90.5 -147.5t-117 -148.5q-176 -219 -231 -338h108q12 0 37 1t37 1 h174l-31 -145h-501q25 113 80 212t163 255q74 106 112 165.5t81 147.5t59 164q37 172 -65.5 284.5t-292.5 112.5q-186 0 -336.5 -112.5t-187.5 -284.5q-12 -61 -13.5 -122.5t11 -133.5t24.5 -118t35 -128q72 -264 37 -442h-502z" />
<glyph unicode="&#x2127;" horiz-adv-x="1478" d="M217 475q16 80 64.5 169t90.5 146.5t117 149.5q176 219 232 338h-109q-12 0 -37.5 -1t-37.5 -1h-175l33 145h502q-25 -111 -80 -209t-166 -258q-74 -106 -111.5 -165.5t-80.5 -147.5t-58 -164q-37 -172 64.5 -284.5t292.5 -112.5q184 0 335.5 112.5t190.5 284.5 q10 49 11 104.5t-2 95.5t-17 104.5t-22.5 95t-26.5 102.5q-72 264 -37 442h502l-33 -145h-174q-12 0 -36 1t-36 1h-108q2 -113 75 -305q27 -70 39.5 -107t29.5 -95t22.5 -100t4.5 -94.5t-12 -101.5q-45 -215 -258 -367.5t-477 -152.5q-258 0 -407.5 152.5t-104.5 367.5z" />
<glyph unicode="&#x212e;" horiz-adv-x="1370" d="M205 692l2 15q41 186 152.5 355t291.5 282.5t383 113.5q217 0 342 -127q178 -184 92 -590h-1079q-31 -135 -18 -247q18 -160 116.5 -269.5t253.5 -120.5h27q205 0 424 66q23 6 70 23.5t73 25.5q-2 -16 -6 -56t-8 -63q-4 -16 -47 -30q-281 -90 -522 -90 q-293 0 -447.5 212.5t-99.5 499.5zM426 854h905q35 209 -59 344t-277 135q-180 0 -347 -150.5t-222 -328.5z" />
<glyph unicode="&#x2190;" horiz-adv-x="2048" d="M223 512l2 4q178 70 312.5 209t212.5 322h81q-102 -285 -387 -492h1553q14 0 24.5 -2t17.5 -12.5t3 -26.5q-6 -41 -64 -41h-1552q197 -207 178 -491h-82q2 180 -75 320t-224 210z" />
<glyph unicode="&#x2191;" d="M242 868l18 82q180 39 331.5 167t223.5 304q-4 -174 92.5 -302t261.5 -169l-18 -82q-248 59 -354 283l-320 -1507q-8 -39 -47 -41q-35 -2 -37 28q0 6 2 13l320 1507q-197 -224 -473 -283z" />
<glyph unicode="&#x2192;" horiz-adv-x="2048" d="M221 514q8 41 66 41h1552q-197 207 -178 492h82q-2 -182 74.5 -321.5t224.5 -209.5l-2 -4q-178 -70 -312.5 -209t-211.5 -321h-82q102 285 387 491h-1553q-14 0 -24.5 2t-17.5 12.5t-5 26.5z" />
<glyph unicode="&#x2193;" d="M74 74l16 82q248 -59 354 -283l320 1507q8 39 47 41q35 2 37 -28q0 -6 -2 -13l-320 -1507q197 223 473 283l-16 -82q-182 -39 -332.5 -167t-222.5 -304q2 174 -94 302t-260 169z" />
<glyph unicode="&#x2212;" horiz-adv-x="1593" d="M223 512q8 41 76 41h1227q20 0 31.5 -1t21.5 -11.5t6 -28.5q-8 -41 -78 -41h-1222q-20 0 -32.5 1t-23 11.5t-6.5 28.5z" />
<glyph unicode="&#x2215;" horiz-adv-x="0" d="M-449 41l1104 1339h95l-1104 -1339h-95z" />
<glyph unicode="&#x2217;" d="M201 328q4 18 19.5 34.5t25.5 22.5t38.5 18.5t32.5 14.5q168 84 199 94l2 4q-31 12 -160 94q-4 2 -27.5 14.5t-30.5 18.5t-15.5 22.5t-3.5 34.5q6 29 32.5 52.5t55.5 23.5q25 0 73 -45q16 -12 66.5 -55t79.5 -64q10 47 20 139.5t21 139.5q18 78 88 78q33 0 47 -22.5 t6 -57.5q-8 -45 -36.5 -137.5t-37.5 -139.5q35 20 100.5 60.5t94.5 58.5q70 45 94 45q31 0 46.5 -23.5t8.5 -52.5q-4 -18 -19 -34.5t-26.5 -22.5t-39 -18.5t-33.5 -14.5q-158 -82 -197 -94l-2 -4q39 -14 158 -94q4 -2 27.5 -14.5t31.5 -18.5t16.5 -22.5t4.5 -34.5 q-6 -29 -33 -52.5t-56 -23.5q-25 0 -73 45q-18 14 -68.5 56t-77.5 63q-8 -43 -20 -136.5t-23 -142.5q-16 -78 -86 -78q-33 0 -47 22.5t-8 57.5q10 43 38 135.5t38 141.5q-37 -20 -103.5 -62.5t-91.5 -56.5q-70 -45 -94 -45q-31 0 -46 23.5t-9 52.5z" />
<glyph unicode="&#x221a;" horiz-adv-x="966" d="M90 197l373 477l-8 -504q6 16 20 46t19 40l548 1184q4 10 19.5 41.5t23 43t28 25t46.5 13.5h184q14 0 25.5 -3.5t20 -12.5t4.5 -25q-8 -37 -45 -41h-201q-10 -33 -41 -93.5t-37 -74.5l-651 -1403l-35 -70q-16 -53 -68 -53h-28l8 498l-137 -176l-52 61z" />
<glyph unicode="&#x221e;" horiz-adv-x="2048" d="M211 455q43 203 193.5 350t332.5 147q125 0 208 -79.5t159 -219.5l33 -63q289 369 551 368q193 0 289 -149.5t53 -353.5q-43 -203 -193.5 -350.5t-333.5 -147.5q-123 0 -207 80t-157 219l-35 63q-285 -369 -551 -368q-190 0 -287.5 149.5t-54.5 354.5zM334 187 q35 -124 149 -124q264 0 551 388l-59 108q-33 63 -55.5 98t-60.5 80t-84 66.5t-101 21.5q-119 0 -211 -109.5t-125 -260.5q-39 -144 -4 -268zM1208 459l58 -109q35 -66 56 -98.5t60 -79.5t85 -67.5t102 -20.5q119 0 211 110.5t123 260.5q18 98 18 185t-42 146.5t-122 59.5 q-262 0 -549 -387z" />
<glyph unicode="&#x2222;" horiz-adv-x="1593" d="M223 512q6 29 35 39l995 340q-25 125 -90 237q-4 12 -2 25q8 41 49 41q18 0 29 -16q70 -115 98 -258l301 102q20 8 36 -4t12 -35q-6 -29 -35 -39l-303 -102q18 -166 -17 -330q-37 -170 -123 -330l258 -102q25 -10 19 -39q-4 -23 -24.5 -35t-39.5 -4l-256 102 q-94 -147 -209 -258q-16 -16 -36 -16q-16 0 -25.5 12.5t-5.5 28.5q2 8 12 25q109 106 193 237l-852 340q-25 10 -19 39zM383 512l756 -301q80 152 110 301q33 147 17 301z" />
<glyph unicode="&#x2300;" horiz-adv-x="1593" d="M88 -129q4 20 18 29l232 192q-121 180 -70 420q57 264 282.5 450.5t489.5 186.5q240 0 387 -158l232 191q8 12 31 12q16 0 26 -12.5t6 -28.5q-6 -20 -18 -29l-231 -190q121 -180 69 -422q-55 -264 -281.5 -450.5t-490.5 -186.5q-242 0 -387 158l-231 -191 q-12 -12 -33 -12q-16 0 -25.5 12.5t-5.5 28.5zM350 512q-43 -205 60 -362l948 784q-133 133 -334 133q-231 0 -428 -163t-246 -392zM455 92q125 -135 333 -135q229 0 426 162t246 393q45 207 -57 362z" />
<glyph unicode="&#x2329;" horiz-adv-x="796" d="M334 514q2 12 17.5 35.5t17.5 28.5l75 129l441 737q47 88 71 92l15 2q16 0 23 -13.5t3 -29.5q0 -10 -6 -16q-29 -53 -88 -153.5t-74 -123.5l-370 -622l-25 -41l-12 -25q0 -2 6 -51l18 -107l125 -739l4 -23q6 -61 7 -63q-4 -16 -18.5 -28.5t-31.5 -12.5q-8 0 -15 3t-11 11 l-7 15q-3 6 -5 18t-3.5 19.5t-2.5 20.5t-1 17l-145 865q-10 43 -8 55z" />
<glyph unicode="&#x232a;" horiz-adv-x="796" d="M12 -469q4 10 19 35l524 883l25 40q10 20 10 25q0 2 -6 55l-142 852q-14 55 -12 72v4q6 31 39 39l14 2q14 0 23.5 -14.5t12.5 -29.5t5 -34.5t2 -21.5l146 -865q10 -43 6 -59q-2 -12 -16.5 -36.5t-16.5 -26.5l-78 -129l-440 -742l-25 -43q-27 -45 -53 -47h-4 q-16 0 -26.5 12.5t-6.5 28.5z" />
<glyph unicode="&#x2422;" horiz-adv-x="1058" d="M168 0l205 963l-97 -72l-67 96l201 154l61 280h154l-31 -141l125 96l69 -96l-231 -176l-63 -293q174 121 356 121q141 0 206.5 -140.5t22.5 -334.5q-43 -203 -184 -341.5t-297 -138.5q-150 0 -250 117l-20 -94h-160zM377 233q43 -131 172 -131q113 0 223.5 87t147.5 268 q39 178 -27 264t-174 86q-139 0 -246 -121z" />
<glyph unicode="&#x2423;" d="M45 -199l137 648q8 41 49 43q37 2 39 -31q0 -6 -2 -12l-129 -605h680l127 605q8 41 49 43q37 2 39 -31q0 -6 -2 -12l-137 -648q-2 -18 -18.5 -30.5t-32.5 -12.5h-766q-16 0 -26.5 12.5t-6.5 30.5z" />
<glyph unicode="&#x25e6;" horiz-adv-x="1593" d="M557 248l125 586h586l-125 -586h-586zM700.5 541q-18.5 -88 29.5 -149.5t136 -61.5t163 61.5t93.5 149.5t-30 149.5t-136.5 61.5t-162.5 -61.5t-93 -149.5z" />
<glyph unicode="&#x266a;" horiz-adv-x="1251" d="M162 223q27 121 141.5 184.5t251.5 63.5q160 0 240 -80l217 1026q14 63 57 64q33 0 29 -41l-6 -37q-4 -20 -9 -53q-10 -168 59.5 -458t71.5 -431q-2 -80 -16 -182q-12 -51 -51 -52h-4q-18 2 -24.5 18.5t-4.5 34t6 39t4 25.5q10 35 5 103.5t-6 101.5t-14 99.5t-20.5 97 t-24.5 96t-24 94.5q-2 8 -10 50t-14 65l-133 -631l-39 -166q0 -4 -2 -14.5t-2 -16.5q-35 -133 -152 -208.5t-248 -75.5q-133 0 -219 79.5t-59 204.5z" />
<glyph unicode="&#x26ad;" d="M-74 514q41 186 198 320.5t341 134.5q141 0 233 -88q49 43 128 65.5t149 22.5q182 0 280.5 -136.5t59.5 -320.5q-37 -178 -192.5 -315.5t-334.5 -137.5q-176 0 -245 88h-2q-49 -43 -127 -65.5t-148 -22.5q-184 0 -281.5 134.5t-58.5 320.5zM68 516q-29 -129 31.5 -221 t201.5 -92q49 0 164 45q-53 137 -27 266q29 125 140 266q-90 45 -162 45q-125 -2 -223 -92t-125 -217zM590 371q2 6 21.5 46t27.5 62l6 29q6 33 6 149h-2q-43 -96 -55 -143q-18 -84 -4 -143zM664 248q90 -45 143 -45q139 0 240.5 92t128.5 221q27 127 -34 217t-184 92 q-74 0 -182 -45q51 -145 25 -266q-26 -123 -137 -266z" />
<glyph unicode="&#x26ae;" d="M-304 304.5q-15 101.5 1 209.5q37 172 161 304t283 151q6 0 14.5 1t14.5 1q166 0 238.5 -142.5t35.5 -314.5q-37 -174 -172 -315.5t-303 -141.5q-111 0 -184.5 73t-88.5 174.5zM-166 481q-10 -117 28 -196.5t142 -79.5q80 0 143.5 53t94 116.5t47.5 133.5l10 51 q14 113 -28 189.5t-138 76.5q-123 0 -195.5 -99t-99.5 -222zM383 -231l317 1491h160l-317 -1491h-160zM793.5 304.5q-21.5 103.5 1.5 209.5q37 168 157.5 301t292.5 154q4 0 12.5 1t12.5 1q166 0 237.5 -143.5t34.5 -313.5q-37 -174 -171 -315.5t-300 -141.5 q-111 0 -183.5 72t-94 175.5zM950 508q-25 -119 10 -211t146 -92q102 0 176 81t109 193q4 8 8 33q27 121 -10 217t-148 96q-100 0 -174 -79.5t-106 -186.5z" />
<glyph unicode="&#x27e6;" horiz-adv-x="825" d="M133 -510l436 2048h537l-19 -82h-200l-400 -1884h201l-18 -82h-537zM233 -428h173l399 1884h-172z" />
<glyph unicode="&#x27e7;" horiz-adv-x="825" d="M-61 -510l18 82h199l399 1884h-199l19 82h534l-436 -2048h-534zM238 -428h172l399 1884h-172z" />
<glyph unicode="&#xe000;" horiz-adv-x="910" d="M0 910h910v-910h-910v910z" />
<glyph unicode="&#xea00;" d="M532 1016l412 250h227l-456 -250h-183z" />
<glyph unicode="&#xea01;" horiz-adv-x="0" d="M-297 1591l346 342h160l-381 -342h-125z" />
<glyph unicode="&#xea02;" d="M461 1380h125q-18 -104 36 -165.5t138 -61.5q82 0 161.5 60.5t104.5 166.5h125q-37 -158 -161 -261t-263 -103q-137 0 -217 102t-49 262z" />
<glyph unicode="&#xea03;" d="M461 1380h125q-18 -104 36 -165.5t138 -61.5q82 0 161.5 60.5t104.5 166.5h125q-37 -158 -161 -261t-263 -103q-137 0 -217 102t-49 262zM530 1452l412 250h227l-456 -250h-183z" />
<glyph unicode="&#xea04;" d="M473 1434h125q-20 -104 34 -166t138 -62q82 0 162 60.5t106 167.5h125q-37 -158 -160.5 -261.5t-263.5 -103.5q-137 0 -217 102.5t-49 262.5zM541 1505l411 250h228l-457 -250h-182z" />
<glyph unicode="&#xea05;" d="M139 -135h125q-18 -104 35 -165.5t137 -61.5q82 0 162 60t107 167h124q-37 -158 -160.5 -261.5t-262.5 -103.5q-137 0 -217.5 102.5t-49.5 262.5z" />
<glyph unicode="&#xea06;" d="M61 -500q37 158 161 261.5t263 103.5q137 0 217 -102.5t50 -262.5h-125q18 104 -35 166t-137 62q-82 0 -162 -60.5t-107 -167.5h-125z" />
<glyph unicode="&#xea07;" horiz-adv-x="0" d="M-422 1946h125q-18 -104 35 -166t137 -62q82 0 162 60.5t106 167.5h125q-37 -158 -160.5 -261.5t-263.5 -103.5q-137 0 -217 102.5t-49 262.5z" />
<glyph unicode="&#xea08;" d="M461 1380h125q-18 -104 36 -165.5t138 -61.5q82 0 161.5 60.5t104.5 166.5h125q-37 -158 -161 -261t-263 -103q-137 0 -217 102t-49 262zM584 1702l350 -250h182l-305 250h-227z" />
<glyph unicode="&#xea09;" d="M473 1434h125q-20 -104 34 -166t138 -62q82 0 162 60.5t106 167.5h125q-37 -158 -160.5 -261.5t-263.5 -103.5q-137 0 -217 102.5t-49 262.5zM594 1755l350 -250h182l-305 250h-227z" />
<glyph unicode="&#xea0a;" d="M461 1380h125q-18 -104 36 -165.5t138 -61.5q82 0 161.5 60.5t104.5 166.5h125q-37 -158 -161 -261t-263 -103q-137 0 -217 102t-49 262zM690 1763q88 88 203 88q102 0 149 -41q45 -39 31 -118q-16 -68 -78 -103l-30 -18q-63 -35 -92 -59.5t-35 -59.5l-9 -39l-4 -2h-53v2 l8 39q27 137 152 197q33 18 39 43q6 45 -13 61q-27 18 -81 19q-102 0 -170 -91h-2h-3z" />
<glyph unicode="&#xea0b;" d="M473 1434h125q-20 -104 34 -166t138 -62q82 0 162 60.5t106 167.5h125q-37 -158 -160.5 -261.5t-263.5 -103.5q-137 0 -217 102.5t-49 262.5zM702 1817q84 88 203 88q104 0 148 -41q47 -39 30 -119q-14 -68 -77 -103l-29 -18q-63 -33 -92 -57.5t-37 -61.5l-8 -39l-2 -2 h-54l-2 2l9 39q31 137 153 197q31 16 37 43q10 43 -12 61q-25 18 -82 19q-100 0 -170 -90h-2h-2z" />
<glyph unicode="&#xea0c;" d="M383 1016q37 158 161 261t263 103q137 0 217 -102t49 -262h-125q20 104 -34 165.5t-138 61.5q-82 0 -161.5 -60.5t-106.5 -166.5h-125z" />
<glyph unicode="&#xea0d;" d="M395 1069q37 158 161 261.5t263 103.5q137 0 217 -102.5t49 -262.5h-124q18 104 -35.5 165.5t-137.5 61.5q-82 0 -161.5 -60t-106.5 -167h-125z" />
<glyph unicode="&#xea0e;" horiz-adv-x="0" d="M-500 1581q37 158 161 261.5t263 103.5q137 0 217 -102.5t49 -262.5h-124q18 104 -35.5 165.5t-136.5 61.5q-82 0 -162 -60t-107 -167h-125z" />
<glyph unicode="&#xea0f;" d="M461 1380h125q-18 -104 36 -165.5t138 -61.5q82 0 161.5 60.5t104.5 166.5h125q-37 -158 -161 -261t-263 -103q-137 0 -217 102t-49 262zM489 1493q27 113 101 178.5t151 65.5q57 0 121 -51q82 -68 131 -68q76 0 105 119h125q-27 -113 -100.5 -178.5t-151.5 -65.5 q-53 0 -121 51q-82 68 -131 68q-76 0 -105 -119h-125z" />
<glyph unicode="&#xea10;" d="M473 1434h125q-20 -104 34 -166t138 -62q82 0 162 60.5t106 167.5h125q-37 -158 -160.5 -261.5t-263.5 -103.5q-137 0 -217 102.5t-49 262.5zM500 1546q27 113 101.5 178.5t152.5 65.5q55 0 118 -51q82 -68 132 -68q78 0 106 119h125q-27 -113 -101.5 -178.5 t-152.5 -65.5q-55 0 -119 51q-82 68 -131 68q-76 0 -106 -119h-125z" />
<glyph unicode="&#xea11;" d="M463 1270h121l155 -199l242 199h121l-318 -275h-122z" />
<glyph unicode="&#xea14;" horiz-adv-x="0" d="M-397 1939h121l143 -251l250 251h121l-330 -352h-123z" />
<glyph unicode="&#xea15;" d="M403 995l318 275h123l198 -275h-120l-156 199l-242 -199h-121z" />
<glyph unicode="&#xea16;" d="M403 995l318 275h123l198 -275h-120l-156 199l-242 -199h-121zM504 1341l411 250h228l-457 -250h-182z" />
<glyph unicode="&#xea17;" d="M422 1075l315 275h123l201 -275h-121l-158 199l-239 -199h-121zM522 1421l410 250h227l-454 -250h-183z" />
<glyph unicode="&#xea18;" horiz-adv-x="0" d="M-471 1587l330 352h123l182 -352h-121l-143 252l-250 -252h-121z" />
<glyph unicode="&#xea19;" d="M403 995l318 275h123l198 -275h-120l-156 199l-242 -199h-121zM557 1591l350 -250h183l-306 250h-227z" />
<glyph unicode="&#xea1a;" d="M422 1075l315 275h123l201 -275h-121l-158 199l-239 -199h-121zM573 1671l353 -250h182l-307 250h-228z" />
<glyph unicode="&#xea1b;" d="M403 995l318 275h123l198 -275h-120l-156 199l-242 -199h-121zM864 1653q84 88 203 88q104 0 147 -41q47 -39 31 -119q-14 -68 -78 -102l-28 -19q-63 -33 -92 -57.5t-37 -61.5l-9 -38l-2 -3h-53l-2 3l8 38q31 137 154 197q31 16 37 43q10 43 -13 61q-25 18 -81 19 q-100 0 -170 -90h-2h-3z" />
<glyph unicode="&#xea1c;" d="M422 1075l315 275h123l201 -275h-121l-158 199l-239 -199h-121zM881 1733q88 88 202 88q102 0 150 -41q45 -39 29 -119q-12 -66 -76 -102l-31 -19q-63 -35 -92 -59.5t-35 -59.5l-10 -39l-2 -2h-53l-2 2l10 39q27 137 151 197q35 18 37 43q10 41 -10 61q-27 18 -82 19 q-102 0 -172 -90h-2h-2z" />
<glyph unicode="&#xea1d;" d="M403 995l318 275h123l198 -275h-120l-156 199l-242 -199h-121zM465 1382q27 113 101.5 178.5t152.5 65.5q55 0 119 -51q82 -68 131 -68q78 0 106 119h125q-27 -113 -101.5 -178.5t-152.5 -65.5q-55 0 -119 52q-82 68 -131 67q-76 0 -106 -119h-125z" />
<glyph unicode="&#xea1e;" d="M422 1075l315 275h123l201 -275h-121l-158 199l-239 -199h-121zM483 1462q27 113 100.5 178.5t151.5 65.5q57 0 121 -51q82 -68 131 -68q76 0 105 119h125q-27 -113 -101 -178.5t-151 -65.5q-57 0 -121 51q-82 68 -131 68q-76 0 -105 -119h-125z" />
<glyph unicode="&#xea1f;" d="M319 -545l95 230h-45l32 153h152l-33 -151l-125 -232h-76z" />
<glyph unicode="&#xea25;" d="M461 1358h160l55 -342h-125zM803 1358h160l55 -342h-125z" />
<glyph unicode="&#xea26;" d="M475 1421h160l55 -342h-125zM817 1421h160l55 -342h-125z" />
<glyph unicode="&#xea27;" horiz-adv-x="0" d="M-420 1933h160l55 -342h-125zM-78 1933h160l55 -342h-125z" />
<glyph unicode="&#xea28;" d="M463 995l35 164h164l-35 -164h-164zM819 995l35 164h164l-35 -164h-164z" />
<glyph unicode="&#xea29;" d="M463 995l35 164h164l-35 -164h-164zM586 1266l411 250h228l-457 -250h-182zM819 995l35 164h164l-35 -164h-164z" />
<glyph unicode="&#xea2a;" d="M528 1169l35 164h164l-35 -164h-164zM625 1448l411 250h228l-457 -250h-182zM827 1169l35 164h164l-35 -164h-164z" />
</font>
</defs>
</svg>
